M48
; DRILL file KiCad 10.0.0 date 2026-04-14T08:11:07
; FORMAT={-:-/ absolute / metric / decimal}
; #@! TF.CreationDate,2026-04-14T08:11:07-07:00
; #@! TF.GenerationSoftware,Kicad,Pcbnew,10.0.0
; #@! TF.FileFunction,Plated,1,4,PTH
FMAT,2
METRIC
; #@! TA.AperFunction,Plated,PTH,ComponentDrill
T1C0.200
; #@! TA.AperFunction,Plated,PTH,ViaDrill
T2C0.300
; #@! TA.AperFunction,Plated,PTH,ComponentDrill
T3C0.600
; #@! TA.AperFunction,Plated,PTH,ComponentDrill
T4C1.000
%
G90
G05
T1
X125.11Y-95.7
X125.11Y-96.8
X125.66Y-95.15
X125.66Y-96.25
X125.66Y-97.35
X126.21Y-95.7
X126.21Y-96.8
X126.76Y-95.15
X126.76Y-96.25
X126.76Y-97.35
X127.31Y-95.7
X127.31Y-96.8
T2
X111.379Y-92.964
X111.506Y-89.916
X112.903Y-93.091
X113.792Y-93.218
X114.427Y-121.793
X115.486Y-119.591
X116.586Y-111.252
X117.602Y-121.412
X117.983Y-100.711
X118.618Y-89.535
X118.745Y-90.424
X118.872Y-101.854
X118.872Y-115.824
X118.999Y-99.187
X120.142Y-112.014
X120.142Y-113.157
X122.174Y-115.697
X122.174Y-118.872
X122.301Y-118.237
X122.301Y-119.507
X123.063Y-112.776
X123.317Y-115.824
X123.571Y-113.919
X127.127Y-105.41
X132.334Y-91.55
X132.334Y-98.981
X132.334Y-100.481
X132.334Y-101.981
X132.461Y-90.05
X137.287Y-121.793
T4
X112.268Y-99.441
X112.268Y-101.981
X112.268Y-104.521
X112.268Y-107.061
X112.268Y-109.601
X112.268Y-112.141
X112.268Y-114.681
X112.268Y-117.221
X138.938Y-98.933
X138.938Y-101.473
X138.938Y-104.013
X138.938Y-106.553
X138.938Y-109.093
X138.938Y-111.633
X138.938Y-114.173
X138.938Y-116.713
T3
G00X122.638Y-121.212
M15
G01X122.638Y-122.312
M16
G05
G00X122.638Y-125.562
M15
G01X122.638Y-126.362
M16
G05
G00X131.278Y-121.212
M15
G01X131.278Y-122.312
M16
G05
G00X131.278Y-125.562
M15
G01X131.278Y-126.362
M16
G05
M30
