%TF.GenerationSoftware,KiCad,Pcbnew,10.0.0*%
%TF.CreationDate,2026-04-14T08:11:00-07:00*%
%TF.ProjectId,ESP32,45535033-322e-46b6-9963-61645f706362,rev?*%
%TF.SameCoordinates,Original*%
%TF.FileFunction,Soldermask,Top*%
%TF.FilePolarity,Negative*%
%FSLAX46Y46*%
G04 Gerber Fmt 4.6, Leading zero omitted, Abs format (unit mm)*
G04 Created by KiCad (PCBNEW 10.0.0) date 2026-04-14 08:11:00*
%MOMM*%
%LPD*%
G01*
G04 APERTURE LIST*
G04 Aperture macros list*
%AMRoundRect*
0 Rectangle with rounded corners*
0 $1 Rounding radius*
0 $2 $3 $4 $5 $6 $7 $8 $9 X,Y pos of 4 corners*
0 Add a 4 corners polygon primitive as box body*
4,1,4,$2,$3,$4,$5,$6,$7,$8,$9,$2,$3,0*
0 Add four circle primitives for the rounded corners*
1,1,$1+$1,$2,$3*
1,1,$1+$1,$4,$5*
1,1,$1+$1,$6,$7*
1,1,$1+$1,$8,$9*
0 Add four rect primitives between the rounded corners*
20,1,$1+$1,$2,$3,$4,$5,0*
20,1,$1+$1,$4,$5,$6,$7,0*
20,1,$1+$1,$6,$7,$8,$9,0*
20,1,$1+$1,$8,$9,$2,$3,0*%
G04 Aperture macros list end*
%ADD10R,1.500000X0.900000*%
%ADD11C,0.600000*%
%ADD12R,2.900000X2.900000*%
%ADD13RoundRect,0.135000X0.185000X-0.135000X0.185000X0.135000X-0.185000X0.135000X-0.185000X-0.135000X0*%
%ADD14RoundRect,0.250000X0.250000X0.475000X-0.250000X0.475000X-0.250000X-0.475000X0.250000X-0.475000X0*%
%ADD15RoundRect,0.250000X0.450000X-0.262500X0.450000X0.262500X-0.450000X0.262500X-0.450000X-0.262500X0*%
%ADD16C,0.650000*%
%ADD17RoundRect,0.150000X-0.150000X-0.470000X0.150000X-0.470000X0.150000X0.470000X-0.150000X0.470000X0*%
%ADD18RoundRect,0.075000X-0.075000X-0.545000X0.075000X-0.545000X0.075000X0.545000X-0.075000X0.545000X0*%
%ADD19O,1.000000X2.100000*%
%ADD20O,1.000000X1.800000*%
%ADD21R,1.700000X1.700000*%
%ADD22C,1.700000*%
%ADD23RoundRect,0.150000X0.150000X-0.512500X0.150000X0.512500X-0.150000X0.512500X-0.150000X-0.512500X0*%
%ADD24RoundRect,0.135000X0.135000X0.185000X-0.135000X0.185000X-0.135000X-0.185000X0.135000X-0.185000X0*%
%ADD25RoundRect,0.140000X-0.170000X0.140000X-0.170000X-0.140000X0.170000X-0.140000X0.170000X0.140000X0*%
%ADD26RoundRect,0.250000X0.475000X-0.250000X0.475000X0.250000X-0.475000X0.250000X-0.475000X-0.250000X0*%
%ADD27RoundRect,0.125000X0.125000X0.225000X-0.125000X0.225000X-0.125000X-0.225000X0.125000X-0.225000X0*%
%ADD28RoundRect,0.135000X-0.135000X-0.185000X0.135000X-0.185000X0.135000X0.185000X-0.135000X0.185000X0*%
%ADD29RoundRect,0.250000X-0.250000X-0.475000X0.250000X-0.475000X0.250000X0.475000X-0.250000X0.475000X0*%
%ADD30R,0.900000X1.700000*%
%ADD31RoundRect,0.150000X0.512500X0.150000X-0.512500X0.150000X-0.512500X-0.150000X0.512500X-0.150000X0*%
%ADD32RoundRect,0.250000X-0.475000X0.250000X-0.475000X-0.250000X0.475000X-0.250000X0.475000X0.250000X0*%
G04 APERTURE END LIST*
D10*
%TO.C,U3*%
X116500000Y-90050000D03*
X116500000Y-91550000D03*
X116500000Y-93050000D03*
X116500000Y-94550000D03*
X116500000Y-96050000D03*
X116500000Y-97550000D03*
X116500000Y-99050000D03*
X116500000Y-100550000D03*
X116500000Y-102050000D03*
X134000000Y-102050000D03*
X134000000Y-100550000D03*
X134000000Y-99050000D03*
X134000000Y-97550000D03*
X134000000Y-96050000D03*
X134000000Y-94550000D03*
X134000000Y-93050000D03*
X134000000Y-91550000D03*
X134000000Y-90050000D03*
D11*
X125110000Y-95700000D03*
X125110000Y-96800000D03*
X125660000Y-95150000D03*
X125660000Y-96250000D03*
X125660000Y-97350000D03*
X126210000Y-95700000D03*
D12*
X126210000Y-96250000D03*
D11*
X126210000Y-96800000D03*
X126760000Y-95150000D03*
X126760000Y-96250000D03*
X126760000Y-97350000D03*
X127310000Y-95700000D03*
X127310000Y-96800000D03*
%TD*%
D13*
%TO.C,R8*%
X125600000Y-107910000D03*
X125600000Y-106890000D03*
%TD*%
D14*
%TO.C,C1*%
X124206000Y-117061625D03*
X122306000Y-117061625D03*
%TD*%
D15*
%TO.C,R3*%
X126688375Y-116084125D03*
X126688375Y-114259125D03*
%TD*%
D16*
%TO.C,J1*%
X124068375Y-122281625D03*
X129848375Y-122281625D03*
D17*
X123758375Y-121161625D03*
X124558375Y-121161625D03*
D18*
X125708375Y-121161625D03*
X126708375Y-121161625D03*
X127208375Y-121161625D03*
X128208375Y-121161625D03*
D17*
X129358375Y-121161625D03*
X130158375Y-121161625D03*
X130158375Y-121161625D03*
X129358375Y-121161625D03*
D18*
X128708375Y-121161625D03*
X127708375Y-121161625D03*
X126208375Y-121161625D03*
X125208375Y-121161625D03*
D17*
X124558375Y-121161625D03*
X123758375Y-121161625D03*
D19*
X122638375Y-121761625D03*
D20*
X122638375Y-125961625D03*
D19*
X131278375Y-121761625D03*
D20*
X131278375Y-125961625D03*
%TD*%
D13*
%TO.C,R9*%
X127150000Y-107900000D03*
X127150000Y-106880000D03*
%TD*%
D21*
%TO.C,J2*%
X112268000Y-99441000D03*
D22*
X112268000Y-101981000D03*
X112268000Y-104521000D03*
X112268000Y-107061000D03*
X112268000Y-109601000D03*
X112268000Y-112141000D03*
X112268000Y-114681000D03*
X112268000Y-117221000D03*
%TD*%
D23*
%TO.C,U1*%
X128988375Y-116071625D03*
X129938375Y-116071625D03*
X130888375Y-116071625D03*
X130888375Y-113796625D03*
X129938375Y-113796625D03*
X128988375Y-113796625D03*
%TD*%
D24*
%TO.C,R6*%
X115290000Y-122780000D03*
X116310000Y-122780000D03*
%TD*%
D21*
%TO.C,J3*%
X138938000Y-98933000D03*
D22*
X138938000Y-101473000D03*
X138938000Y-104013000D03*
X138938000Y-106553000D03*
X138938000Y-109093000D03*
X138938000Y-111633000D03*
X138938000Y-114173000D03*
X138938000Y-116713000D03*
%TD*%
D24*
%TO.C,R5*%
X112790000Y-122780000D03*
X113810000Y-122780000D03*
%TD*%
D25*
%TO.C,C10*%
X140130000Y-124820000D03*
X140130000Y-125780000D03*
%TD*%
D26*
%TO.C,C3*%
X121300000Y-112300000D03*
X121300000Y-110400000D03*
%TD*%
D27*
%TO.C,D1*%
X124088375Y-118961625D03*
X123288375Y-118961625D03*
%TD*%
D28*
%TO.C,R7*%
X136610000Y-122700000D03*
X137630000Y-122700000D03*
%TD*%
D13*
%TO.C,R2*%
X127588375Y-119071625D03*
X127588375Y-118051625D03*
%TD*%
D29*
%TO.C,C4*%
X116988375Y-114361625D03*
X118888375Y-114361625D03*
%TD*%
D30*
%TO.C,SW1*%
X116400000Y-125200000D03*
X113000000Y-125200000D03*
%TD*%
D25*
%TO.C,C9*%
X117790000Y-125140000D03*
X117790000Y-124180000D03*
%TD*%
D13*
%TO.C,R1*%
X131588375Y-119181625D03*
X131588375Y-118161625D03*
%TD*%
D25*
%TO.C,C6*%
X114800000Y-89920000D03*
X114800000Y-90880000D03*
%TD*%
D30*
%TO.C,SW2*%
X135200000Y-125300000D03*
X138600000Y-125300000D03*
%TD*%
D31*
%TO.C,U2*%
X119137500Y-112250000D03*
X119137500Y-111300000D03*
X119137500Y-110350000D03*
X116862500Y-110350000D03*
X116862500Y-112250000D03*
%TD*%
D32*
%TO.C,C5*%
X113000000Y-90100000D03*
X113000000Y-92000000D03*
%TD*%
D29*
%TO.C,C2*%
X120638375Y-114461625D03*
X122538375Y-114461625D03*
%TD*%
M02*
