%TF.GenerationSoftware,KiCad,Pcbnew,10.0.0*%
%TF.CreationDate,2026-04-14T08:10:59-07:00*%
%TF.ProjectId,ESP32,45535033-322e-46b6-9963-61645f706362,rev?*%
%TF.SameCoordinates,Original*%
%TF.FileFunction,Copper,L2,Inr*%
%TF.FilePolarity,Positive*%
%FSLAX46Y46*%
G04 Gerber Fmt 4.6, Leading zero omitted, Abs format (unit mm)*
G04 Created by KiCad (PCBNEW 10.0.0) date 2026-04-14 08:10:59*
%MOMM*%
%LPD*%
G01*
G04 APERTURE LIST*
%TA.AperFunction,HeatsinkPad*%
%ADD10C,0.600000*%
%TD*%
%TA.AperFunction,ComponentPad*%
%ADD11O,1.000000X2.100000*%
%TD*%
%TA.AperFunction,ComponentPad*%
%ADD12O,1.000000X1.800000*%
%TD*%
%TA.AperFunction,ComponentPad*%
%ADD13R,1.700000X1.700000*%
%TD*%
%TA.AperFunction,ComponentPad*%
%ADD14C,1.700000*%
%TD*%
%TA.AperFunction,ViaPad*%
%ADD15C,0.600000*%
%TD*%
G04 APERTURE END LIST*
D10*
%TO.N,GND*%
%TO.C,U3*%
X125110000Y-95700000D03*
X125110000Y-96800000D03*
X125660000Y-95150000D03*
X125660000Y-96250000D03*
X125660000Y-97350000D03*
X126210000Y-95700000D03*
X126210000Y-96800000D03*
X126760000Y-95150000D03*
X126760000Y-96250000D03*
X126760000Y-97350000D03*
X127310000Y-95700000D03*
X127310000Y-96800000D03*
%TD*%
D11*
%TO.N,GND*%
%TO.C,J1*%
X122638375Y-121761625D03*
D12*
X122638375Y-125961625D03*
D11*
X131278375Y-121761625D03*
D12*
X131278375Y-125961625D03*
%TD*%
D13*
%TO.N,+3V3*%
%TO.C,J2*%
X112268000Y-99441000D03*
D14*
%TO.N,GND*%
X112268000Y-101981000D03*
%TO.N,EN*%
X112268000Y-104521000D03*
%TO.N,IO4*%
X112268000Y-107061000D03*
%TO.N,IO5*%
X112268000Y-109601000D03*
%TO.N,IO6*%
X112268000Y-112141000D03*
%TO.N,IO7*%
X112268000Y-114681000D03*
%TO.N,IO9*%
X112268000Y-117221000D03*
%TD*%
D13*
%TO.N,+5V*%
%TO.C,J3*%
X138938000Y-98933000D03*
D14*
%TO.N,GND*%
X138938000Y-101473000D03*
%TO.N,IO3*%
X138938000Y-104013000D03*
%TO.N,GND*%
X138938000Y-106553000D03*
%TO.N,RXD*%
X138938000Y-109093000D03*
%TO.N,TXD*%
X138938000Y-111633000D03*
%TO.N,GND*%
X138938000Y-114173000D03*
%TO.N,IO10*%
X138938000Y-116713000D03*
%TD*%
D15*
%TO.N,GND*%
X118872000Y-115824000D03*
X118618000Y-89535000D03*
X118745000Y-90424000D03*
X113792000Y-93218000D03*
X112903000Y-93091000D03*
X111379000Y-92964000D03*
X117983000Y-100711000D03*
X118872000Y-101854000D03*
X123317000Y-115824000D03*
X123063000Y-112776000D03*
X123571000Y-113919000D03*
%TO.N,+3V3*%
X117602000Y-121412000D03*
X114427000Y-121793000D03*
X115486265Y-119590735D03*
X111506000Y-89916000D03*
X116586000Y-111252000D03*
%TO.N,IO9*%
X137287000Y-121793000D03*
%TO.N,IO8*%
X127127000Y-105410000D03*
X118999000Y-99187000D03*
%TO.N,+5V*%
X120142000Y-113157000D03*
X120142000Y-112014000D03*
%TO.N,RXD*%
X132334000Y-100481000D03*
%TO.N,IO10*%
X132334000Y-101981000D03*
%TO.N,TXD*%
X132334000Y-98981000D03*
%TO.N,GND*%
X122174000Y-115697000D03*
X122301000Y-118237000D03*
X122301000Y-119507000D03*
X122174000Y-118872000D03*
%TO.N,Net-(U3-IO1)*%
X132334000Y-91550000D03*
%TO.N,Net-(U3-IO0)*%
X132461000Y-90050000D03*
%TD*%
%TA.AperFunction,Conductor*%
%TO.N,GND*%
G36*
X111193039Y-88585185D02*
G01*
X111238794Y-88637989D01*
X111250000Y-88689500D01*
X111250000Y-88950000D01*
X139250000Y-88950000D01*
X139250000Y-88689500D01*
X139269685Y-88622461D01*
X139322489Y-88576706D01*
X139374000Y-88565500D01*
X140908670Y-88565500D01*
X140943606Y-88570523D01*
X140958604Y-88574927D01*
X141017355Y-88612672D01*
X141018542Y-88614041D01*
X141046018Y-88668902D01*
X141047663Y-88676460D01*
X141050500Y-88702831D01*
X141050500Y-128208670D01*
X141045475Y-128243614D01*
X141041070Y-128258612D01*
X141003327Y-128317355D01*
X141001958Y-128318542D01*
X140947097Y-128346018D01*
X140939539Y-128347663D01*
X140913168Y-128350500D01*
X110297330Y-128350500D01*
X110262389Y-128345475D01*
X110247390Y-128341070D01*
X110188644Y-128303327D01*
X110187457Y-128301958D01*
X110159977Y-128247083D01*
X110158332Y-128239521D01*
X110155500Y-128213168D01*
X110155500Y-121720525D01*
X113876500Y-121720525D01*
X113876500Y-121865475D01*
X113877888Y-121870654D01*
X113902498Y-121962501D01*
X113914015Y-122005484D01*
X113914018Y-122005491D01*
X113984631Y-122127795D01*
X113986489Y-122131013D01*
X114088985Y-122233509D01*
X114089674Y-122234005D01*
X114092178Y-122235353D01*
X114211069Y-122303995D01*
X114214087Y-122305869D01*
X114214514Y-122305983D01*
X114214515Y-122305984D01*
X114354525Y-122343500D01*
X114354528Y-122343500D01*
X114499472Y-122343500D01*
X114499475Y-122343500D01*
X114639485Y-122305984D01*
X114765015Y-122233509D01*
X114792665Y-122205859D01*
X123492875Y-122205859D01*
X123492875Y-122357390D01*
X123512484Y-122430575D01*
X123532094Y-122503762D01*
X123569977Y-122569375D01*
X123607860Y-122634990D01*
X123715010Y-122742140D01*
X123846240Y-122817906D01*
X123992609Y-122857125D01*
X123992611Y-122857125D01*
X124144139Y-122857125D01*
X124144141Y-122857125D01*
X124290510Y-122817906D01*
X124421740Y-122742140D01*
X124528890Y-122634990D01*
X124604656Y-122503760D01*
X124643875Y-122357391D01*
X124643875Y-122205859D01*
X129272875Y-122205859D01*
X129272875Y-122357390D01*
X129292484Y-122430575D01*
X129312094Y-122503762D01*
X129349977Y-122569375D01*
X129387860Y-122634990D01*
X129495010Y-122742140D01*
X129626240Y-122817906D01*
X129772609Y-122857125D01*
X129772611Y-122857125D01*
X129924139Y-122857125D01*
X129924141Y-122857125D01*
X130070510Y-122817906D01*
X130201740Y-122742140D01*
X130308890Y-122634990D01*
X130384656Y-122503760D01*
X130423875Y-122357391D01*
X130423875Y-122205859D01*
X130384656Y-122059490D01*
X130384651Y-122059482D01*
X130374504Y-122041906D01*
X130308890Y-121928260D01*
X130201740Y-121821110D01*
X130133636Y-121781790D01*
X130070511Y-121745344D01*
X129997325Y-121725734D01*
X129997324Y-121725733D01*
X129977886Y-121720525D01*
X136736500Y-121720525D01*
X136736500Y-121865474D01*
X136762498Y-121962501D01*
X136774015Y-122005484D01*
X136774018Y-122005491D01*
X136844631Y-122127795D01*
X136846489Y-122131013D01*
X136948985Y-122233509D01*
X136949674Y-122234005D01*
X136952178Y-122235353D01*
X137071069Y-122303995D01*
X137074087Y-122305869D01*
X137074514Y-122305983D01*
X137074515Y-122305984D01*
X137214525Y-122343500D01*
X137214528Y-122343500D01*
X137359472Y-122343500D01*
X137359475Y-122343500D01*
X137499485Y-122305984D01*
X137625015Y-122233509D01*
X137727509Y-122131015D01*
X137799984Y-122005485D01*
X137837500Y-121865475D01*
X137837500Y-121720525D01*
X137799984Y-121580515D01*
X137744533Y-121484472D01*
X137727511Y-121454988D01*
X137727506Y-121454982D01*
X137727502Y-121454978D01*
X137727493Y-121454968D01*
X137625030Y-121352505D01*
X137625014Y-121352490D01*
X137625006Y-121352485D01*
X137571243Y-121321445D01*
X137542808Y-121291624D01*
X137488007Y-121276939D01*
X137488007Y-121276940D01*
X137423740Y-121259720D01*
X137359475Y-121242500D01*
X137359474Y-121242500D01*
X137214525Y-121242500D01*
X137085994Y-121276939D01*
X137085993Y-121276940D01*
X137078338Y-121278991D01*
X137074510Y-121280017D01*
X136948991Y-121352485D01*
X136948984Y-121352490D01*
X136948968Y-121352505D01*
X136846505Y-121454968D01*
X136846490Y-121454984D01*
X136846485Y-121454992D01*
X136774017Y-121580509D01*
X136773989Y-121580578D01*
X136773748Y-121581511D01*
X136736500Y-121720525D01*
X129977886Y-121720525D01*
X129924142Y-121706125D01*
X129924141Y-121706125D01*
X129772609Y-121706125D01*
X129626234Y-121745345D01*
X129626232Y-121745346D01*
X129495020Y-121821103D01*
X129495006Y-121821112D01*
X129495001Y-121821116D01*
X129387866Y-121928251D01*
X129387862Y-121928256D01*
X129387853Y-121928270D01*
X129312096Y-122059482D01*
X129312095Y-122059484D01*
X129312094Y-122059488D01*
X129272875Y-122205859D01*
X124643875Y-122205859D01*
X124604656Y-122059490D01*
X124604651Y-122059482D01*
X124594504Y-122041906D01*
X124528890Y-121928260D01*
X124421740Y-121821110D01*
X124356125Y-121783227D01*
X124290511Y-121745344D01*
X124217325Y-121725734D01*
X124217324Y-121725733D01*
X124144142Y-121706125D01*
X124144141Y-121706125D01*
X123992609Y-121706125D01*
X123846234Y-121745345D01*
X123846232Y-121745346D01*
X123715020Y-121821103D01*
X123715006Y-121821112D01*
X123715001Y-121821116D01*
X123607866Y-121928251D01*
X123607862Y-121928256D01*
X123607853Y-121928270D01*
X123532096Y-122059482D01*
X123532095Y-122059484D01*
X123532094Y-122059488D01*
X123492875Y-122205859D01*
X114792665Y-122205859D01*
X114867509Y-122131015D01*
X114939984Y-122005485D01*
X114977500Y-121865475D01*
X114977500Y-121720525D01*
X114939984Y-121580515D01*
X114884533Y-121484472D01*
X114867511Y-121454988D01*
X114867506Y-121454982D01*
X114826681Y-121414157D01*
X114826678Y-121414153D01*
X114765030Y-121352505D01*
X114765014Y-121352490D01*
X114765006Y-121352485D01*
X114742559Y-121339525D01*
X117051500Y-121339525D01*
X117051500Y-121484475D01*
X117052888Y-121489654D01*
X117089013Y-121624477D01*
X117089017Y-121624488D01*
X117089018Y-121624489D01*
X117159631Y-121746795D01*
X117161489Y-121750013D01*
X117263985Y-121852509D01*
X117264674Y-121853005D01*
X117267178Y-121854353D01*
X117386069Y-121922995D01*
X117389087Y-121924869D01*
X117389514Y-121924983D01*
X117389515Y-121924984D01*
X117529525Y-121962500D01*
X117529528Y-121962500D01*
X117674472Y-121962500D01*
X117674475Y-121962500D01*
X117814485Y-121924984D01*
X117940015Y-121852509D01*
X118042509Y-121750015D01*
X118114984Y-121624485D01*
X118152500Y-121484475D01*
X118152500Y-121339525D01*
X118114984Y-121199515D01*
X118042509Y-121073985D01*
X117940015Y-120971491D01*
X117940013Y-120971489D01*
X117939321Y-120970990D01*
X117936802Y-120969635D01*
X117886243Y-120940445D01*
X117857808Y-120910624D01*
X117803007Y-120895939D01*
X117803007Y-120895940D01*
X117738740Y-120878720D01*
X117674475Y-120861500D01*
X117674474Y-120861500D01*
X117529525Y-120861500D01*
X117400994Y-120895939D01*
X117400993Y-120895940D01*
X117393338Y-120897991D01*
X117389510Y-120899017D01*
X117263991Y-120971485D01*
X117263984Y-120971490D01*
X117263968Y-120971505D01*
X117161505Y-121073968D01*
X117161490Y-121073984D01*
X117161485Y-121073992D01*
X117090287Y-121197308D01*
X117090286Y-121197312D01*
X117089017Y-121199511D01*
X117089016Y-121199515D01*
X117051500Y-121339525D01*
X114742559Y-121339525D01*
X114711243Y-121321445D01*
X114682808Y-121291624D01*
X114628007Y-121276939D01*
X114628007Y-121276940D01*
X114563740Y-121259720D01*
X114499475Y-121242500D01*
X114499474Y-121242500D01*
X114354525Y-121242500D01*
X114225994Y-121276939D01*
X114225993Y-121276940D01*
X114218338Y-121278991D01*
X114214510Y-121280017D01*
X114088991Y-121352485D01*
X114088984Y-121352490D01*
X114088968Y-121352505D01*
X113986505Y-121454968D01*
X113986490Y-121454984D01*
X113986485Y-121454992D01*
X113915287Y-121578308D01*
X113915286Y-121578312D01*
X113914017Y-121580511D01*
X113914016Y-121580515D01*
X113876500Y-121720525D01*
X110155500Y-121720525D01*
X110155500Y-119518260D01*
X114935765Y-119518260D01*
X114935765Y-119663210D01*
X114937153Y-119668389D01*
X114973278Y-119803212D01*
X114973282Y-119803223D01*
X114973283Y-119803224D01*
X115043896Y-119925530D01*
X115045754Y-119928748D01*
X115148250Y-120031244D01*
X115148939Y-120031740D01*
X115151443Y-120033088D01*
X115270334Y-120101730D01*
X115273352Y-120103604D01*
X115273779Y-120103718D01*
X115273780Y-120103719D01*
X115413790Y-120141235D01*
X115413793Y-120141235D01*
X115558737Y-120141235D01*
X115558740Y-120141235D01*
X115698750Y-120103719D01*
X115824280Y-120031244D01*
X115926774Y-119928750D01*
X115999249Y-119803220D01*
X116036765Y-119663210D01*
X116036765Y-119518260D01*
X115999249Y-119378250D01*
X115926774Y-119252720D01*
X115824280Y-119150226D01*
X115824278Y-119150224D01*
X115823586Y-119149725D01*
X115821067Y-119148370D01*
X115770508Y-119119180D01*
X115742073Y-119089359D01*
X115687272Y-119074674D01*
X115687272Y-119074675D01*
X115623005Y-119057455D01*
X115558740Y-119040235D01*
X115558739Y-119040235D01*
X115413790Y-119040235D01*
X115285259Y-119074674D01*
X115285258Y-119074675D01*
X115277603Y-119076726D01*
X115273775Y-119077752D01*
X115148256Y-119150220D01*
X115148249Y-119150225D01*
X115148233Y-119150240D01*
X115045770Y-119252703D01*
X115045755Y-119252719D01*
X115045750Y-119252727D01*
X114974552Y-119376043D01*
X114974551Y-119376047D01*
X114973282Y-119378246D01*
X114973281Y-119378250D01*
X114935765Y-119518260D01*
X110155500Y-119518260D01*
X110155500Y-117134383D01*
X111167500Y-117134383D01*
X111167500Y-117134389D01*
X111167500Y-117307611D01*
X111194598Y-117478701D01*
X111248127Y-117643445D01*
X111326768Y-117797788D01*
X111428586Y-117937928D01*
X111551072Y-118060414D01*
X111691212Y-118162232D01*
X111845555Y-118240873D01*
X112010299Y-118294402D01*
X112181389Y-118321500D01*
X112181390Y-118321500D01*
X112354610Y-118321500D01*
X112354611Y-118321500D01*
X112525701Y-118294402D01*
X112690445Y-118240873D01*
X112844788Y-118162232D01*
X112984928Y-118060414D01*
X113107414Y-117937928D01*
X113209232Y-117797788D01*
X113287873Y-117643445D01*
X113341402Y-117478701D01*
X113368500Y-117307611D01*
X113368500Y-117134389D01*
X113341402Y-116963299D01*
X113287873Y-116798555D01*
X113287870Y-116798549D01*
X113287840Y-116798490D01*
X113226355Y-116677815D01*
X113226354Y-116677814D01*
X113223681Y-116672568D01*
X113221927Y-116669127D01*
X113221926Y-116669125D01*
X113221924Y-116669120D01*
X113221919Y-116669112D01*
X113209230Y-116644210D01*
X113196278Y-116626383D01*
X137837500Y-116626383D01*
X137837500Y-116799615D01*
X137863423Y-116963294D01*
X137863424Y-116963294D01*
X137864597Y-116970699D01*
X137918128Y-117135449D01*
X137996768Y-117289788D01*
X138098586Y-117429928D01*
X138221072Y-117552414D01*
X138361212Y-117654232D01*
X138515555Y-117732873D01*
X138680299Y-117786402D01*
X138851389Y-117813500D01*
X138851390Y-117813500D01*
X139024610Y-117813500D01*
X139024611Y-117813500D01*
X139195701Y-117786402D01*
X139360445Y-117732873D01*
X139514788Y-117654232D01*
X139654928Y-117552414D01*
X139777414Y-117429928D01*
X139879232Y-117289788D01*
X139957873Y-117135445D01*
X140011402Y-116970701D01*
X140038500Y-116799611D01*
X140038500Y-116626389D01*
X140011402Y-116455299D01*
X139957873Y-116290555D01*
X139879232Y-116136212D01*
X139777414Y-115996072D01*
X139654928Y-115873586D01*
X139514788Y-115771768D01*
X139480705Y-115754402D01*
X139360449Y-115693128D01*
X139209215Y-115643988D01*
X139209203Y-115643985D01*
X139195701Y-115639598D01*
X139195699Y-115639597D01*
X139195698Y-115639597D01*
X139181312Y-115637318D01*
X139181306Y-115637317D01*
X139086053Y-115622231D01*
X139064271Y-115618781D01*
X139048407Y-115616268D01*
X139024614Y-115612500D01*
X139024611Y-115612500D01*
X138851389Y-115612500D01*
X138851388Y-115612500D01*
X138811726Y-115618781D01*
X138811725Y-115618780D01*
X138680304Y-115639596D01*
X138515549Y-115693129D01*
X138361210Y-115771768D01*
X138281256Y-115829859D01*
X138281255Y-115829859D01*
X138232941Y-115864961D01*
X138225564Y-115869092D01*
X138094092Y-116000564D01*
X138089961Y-116007941D01*
X138054859Y-116056255D01*
X138054859Y-116056256D01*
X137996768Y-116136210D01*
X137918129Y-116290549D01*
X137864596Y-116455305D01*
X137837500Y-116626383D01*
X113196278Y-116626383D01*
X113107414Y-116504072D01*
X112984928Y-116381586D01*
X112844788Y-116279768D01*
X112690449Y-116201128D01*
X112539215Y-116151988D01*
X112539203Y-116151985D01*
X112525701Y-116147598D01*
X112525699Y-116147597D01*
X112525698Y-116147597D01*
X112511312Y-116145318D01*
X112511306Y-116145317D01*
X112421188Y-116131044D01*
X112394271Y-116126781D01*
X112378407Y-116124268D01*
X112354614Y-116120500D01*
X112354611Y-116120500D01*
X112181389Y-116120500D01*
X112181388Y-116120500D01*
X112141726Y-116126781D01*
X112141725Y-116126780D01*
X112010304Y-116147596D01*
X111845549Y-116201129D01*
X111691210Y-116279768D01*
X111611256Y-116337859D01*
X111611255Y-116337859D01*
X111562941Y-116372961D01*
X111555564Y-116377092D01*
X111424092Y-116508564D01*
X111419961Y-116515941D01*
X111384859Y-116564255D01*
X111384859Y-116564256D01*
X111326768Y-116644210D01*
X111248129Y-116798549D01*
X111194596Y-116963305D01*
X111167500Y-117134383D01*
X110155500Y-117134383D01*
X110155500Y-114594383D01*
X111167500Y-114594383D01*
X111167500Y-114594389D01*
X111167500Y-114767611D01*
X111194598Y-114938701D01*
X111248127Y-115103445D01*
X111326768Y-115257788D01*
X111428586Y-115397928D01*
X111551072Y-115520414D01*
X111691212Y-115622232D01*
X111845555Y-115700873D01*
X112010299Y-115754402D01*
X112181389Y-115781500D01*
X112181390Y-115781500D01*
X112354610Y-115781500D01*
X112354611Y-115781500D01*
X112525701Y-115754402D01*
X112690445Y-115700873D01*
X112844788Y-115622232D01*
X112984928Y-115520414D01*
X113107414Y-115397928D01*
X113209232Y-115257788D01*
X113287873Y-115103445D01*
X113341402Y-114938701D01*
X113368500Y-114767611D01*
X113368500Y-114594389D01*
X113341402Y-114423299D01*
X113287873Y-114258555D01*
X113209232Y-114104212D01*
X113107414Y-113964072D01*
X112984928Y-113841586D01*
X112844788Y-113739768D01*
X112690449Y-113661128D01*
X112539215Y-113611988D01*
X112539203Y-113611985D01*
X112525701Y-113607598D01*
X112525699Y-113607597D01*
X112525698Y-113607597D01*
X112511312Y-113605318D01*
X112511306Y-113605317D01*
X112421188Y-113591044D01*
X112394271Y-113586781D01*
X112378407Y-113584268D01*
X112354614Y-113580500D01*
X112354611Y-113580500D01*
X112181389Y-113580500D01*
X112181388Y-113580500D01*
X112141726Y-113586781D01*
X112141725Y-113586780D01*
X112010304Y-113607596D01*
X111845549Y-113661129D01*
X111691210Y-113739768D01*
X111611256Y-113797859D01*
X111611255Y-113797859D01*
X111562941Y-113832961D01*
X111555564Y-113837092D01*
X111424092Y-113968564D01*
X111419961Y-113975941D01*
X111384859Y-114024255D01*
X111384859Y-114024256D01*
X111326768Y-114104210D01*
X111248129Y-114258549D01*
X111194596Y-114423305D01*
X111167500Y-114594383D01*
X110155500Y-114594383D01*
X110155500Y-112054383D01*
X111167500Y-112054383D01*
X111167500Y-112227614D01*
X111183262Y-112327134D01*
X111187203Y-112352015D01*
X111194598Y-112398701D01*
X111248127Y-112563445D01*
X111326768Y-112717788D01*
X111428586Y-112857928D01*
X111551072Y-112980414D01*
X111691212Y-113082232D01*
X111845555Y-113160873D01*
X112010299Y-113214402D01*
X112181389Y-113241500D01*
X112181390Y-113241500D01*
X112354610Y-113241500D01*
X112354611Y-113241500D01*
X112525701Y-113214402D01*
X112690445Y-113160873D01*
X112844788Y-113082232D01*
X112984928Y-112980414D01*
X113107414Y-112857928D01*
X113209232Y-112717788D01*
X113287873Y-112563445D01*
X113341402Y-112398701D01*
X113368500Y-112227611D01*
X113368500Y-112054389D01*
X113350623Y-111941525D01*
X119591500Y-111941525D01*
X119591500Y-112086474D01*
X119624541Y-112209786D01*
X119629016Y-112226487D01*
X119629018Y-112226491D01*
X119699631Y-112348795D01*
X119701489Y-112352013D01*
X119701491Y-112352015D01*
X119803985Y-112454509D01*
X119803986Y-112454509D01*
X119803989Y-112454511D01*
X119803991Y-112454513D01*
X119804007Y-112454522D01*
X119805581Y-112455495D01*
X119805584Y-112455497D01*
X119812232Y-112459605D01*
X119814852Y-112460784D01*
X119829432Y-112469202D01*
X119857166Y-112491012D01*
X119866748Y-112501061D01*
X119898763Y-112563162D01*
X119892122Y-112632715D01*
X119892109Y-112632747D01*
X119891504Y-112634257D01*
X119857600Y-112681853D01*
X119853818Y-112685130D01*
X119834620Y-112698802D01*
X119803987Y-112716488D01*
X119803986Y-112716489D01*
X119701495Y-112818979D01*
X119701490Y-112818984D01*
X119701485Y-112818992D01*
X119629017Y-112944509D01*
X119628989Y-112944578D01*
X119628748Y-112945511D01*
X119591500Y-113084525D01*
X119591500Y-113229474D01*
X119629013Y-113369477D01*
X119629017Y-113369488D01*
X119629018Y-113369489D01*
X119699631Y-113491795D01*
X119701489Y-113495013D01*
X119803985Y-113597509D01*
X119804674Y-113598005D01*
X119807178Y-113599353D01*
X119926069Y-113667995D01*
X119929087Y-113669869D01*
X119929514Y-113669983D01*
X119929515Y-113669984D01*
X120069525Y-113707500D01*
X120069528Y-113707500D01*
X120214472Y-113707500D01*
X120214475Y-113707500D01*
X120354485Y-113669984D01*
X120480015Y-113597509D01*
X120582509Y-113495015D01*
X120654984Y-113369485D01*
X120692500Y-113229475D01*
X120692500Y-113084525D01*
X120654984Y-112944515D01*
X120654981Y-112944509D01*
X120604993Y-112857928D01*
X120604993Y-112857929D01*
X120582511Y-112818988D01*
X120582506Y-112818982D01*
X120480017Y-112716493D01*
X120480015Y-112716491D01*
X120450881Y-112699670D01*
X120447352Y-112697296D01*
X120444545Y-112693916D01*
X120426829Y-112679984D01*
X120417252Y-112669940D01*
X120405154Y-112646474D01*
X120402719Y-112643541D01*
X120402431Y-112641192D01*
X120385236Y-112607838D01*
X120391873Y-112538293D01*
X120392480Y-112536779D01*
X120426399Y-112489146D01*
X120430188Y-112485863D01*
X120449390Y-112472190D01*
X120471188Y-112459605D01*
X120480015Y-112454509D01*
X120582509Y-112352015D01*
X120654984Y-112226485D01*
X120692500Y-112086475D01*
X120692500Y-111941525D01*
X120654984Y-111801515D01*
X120592050Y-111692511D01*
X120582511Y-111675988D01*
X120582506Y-111675982D01*
X120532288Y-111625764D01*
X120532283Y-111625758D01*
X120480030Y-111573505D01*
X120480014Y-111573490D01*
X120480006Y-111573485D01*
X120433064Y-111546383D01*
X137837500Y-111546383D01*
X137837500Y-111719615D01*
X137863423Y-111883294D01*
X137863424Y-111883294D01*
X137864597Y-111890699D01*
X137918128Y-112055449D01*
X137933937Y-112086475D01*
X137996768Y-112209788D01*
X138098586Y-112349928D01*
X138221072Y-112472414D01*
X138361212Y-112574232D01*
X138515555Y-112652873D01*
X138680299Y-112706402D01*
X138851389Y-112733500D01*
X138851390Y-112733500D01*
X139024610Y-112733500D01*
X139024611Y-112733500D01*
X139195701Y-112706402D01*
X139360445Y-112652873D01*
X139514788Y-112574232D01*
X139654928Y-112472414D01*
X139777414Y-112349928D01*
X139879232Y-112209788D01*
X139957873Y-112055445D01*
X140011402Y-111890701D01*
X140038500Y-111719611D01*
X140038500Y-111546389D01*
X140011402Y-111375299D01*
X139957873Y-111210555D01*
X139879232Y-111056212D01*
X139777414Y-110916072D01*
X139654928Y-110793586D01*
X139514788Y-110691768D01*
X139480705Y-110674402D01*
X139360449Y-110613128D01*
X139209215Y-110563988D01*
X139209203Y-110563985D01*
X139195701Y-110559598D01*
X139195699Y-110559597D01*
X139195698Y-110559597D01*
X139181312Y-110557318D01*
X139181306Y-110557317D01*
X139086053Y-110542231D01*
X139064271Y-110538781D01*
X139048407Y-110536268D01*
X139024614Y-110532500D01*
X139024611Y-110532500D01*
X138851389Y-110532500D01*
X138851388Y-110532500D01*
X138811726Y-110538781D01*
X138811725Y-110538780D01*
X138680304Y-110559596D01*
X138515549Y-110613129D01*
X138361210Y-110691768D01*
X138281256Y-110749859D01*
X138281255Y-110749859D01*
X138232941Y-110784961D01*
X138225564Y-110789092D01*
X138094092Y-110920564D01*
X138089961Y-110927941D01*
X138054859Y-110976255D01*
X138054859Y-110976256D01*
X137996768Y-111056210D01*
X137918129Y-111210549D01*
X137864596Y-111375305D01*
X137837500Y-111546383D01*
X120433064Y-111546383D01*
X120426243Y-111542445D01*
X120397808Y-111512624D01*
X120343007Y-111497939D01*
X120343007Y-111497940D01*
X120278740Y-111480720D01*
X120214475Y-111463500D01*
X120214474Y-111463500D01*
X120069525Y-111463500D01*
X119940994Y-111497939D01*
X119940993Y-111497940D01*
X119933338Y-111499991D01*
X119929510Y-111501017D01*
X119803991Y-111573485D01*
X119803984Y-111573490D01*
X119803968Y-111573505D01*
X119701505Y-111675968D01*
X119701490Y-111675984D01*
X119701485Y-111675992D01*
X119629017Y-111801509D01*
X119628989Y-111801578D01*
X119628748Y-111802511D01*
X119591500Y-111941525D01*
X113350623Y-111941525D01*
X113350286Y-111939395D01*
X113341403Y-111883303D01*
X113341402Y-111883302D01*
X113340890Y-111880064D01*
X113338388Y-111874024D01*
X113315152Y-111802511D01*
X113287873Y-111718555D01*
X113209232Y-111564212D01*
X113107414Y-111424072D01*
X112984928Y-111301586D01*
X112844788Y-111199768D01*
X112805059Y-111179525D01*
X116035500Y-111179525D01*
X116035500Y-111324475D01*
X116049119Y-111375302D01*
X116072746Y-111463478D01*
X116073015Y-111464483D01*
X116073019Y-111464492D01*
X116143631Y-111586795D01*
X116145489Y-111590013D01*
X116247985Y-111692509D01*
X116248674Y-111693005D01*
X116251178Y-111694353D01*
X116370069Y-111762995D01*
X116373087Y-111764869D01*
X116373514Y-111764983D01*
X116373515Y-111764984D01*
X116513525Y-111802500D01*
X116513528Y-111802500D01*
X116658472Y-111802500D01*
X116658475Y-111802500D01*
X116798485Y-111764984D01*
X116924015Y-111692509D01*
X117026509Y-111590015D01*
X117098984Y-111464485D01*
X117136500Y-111324475D01*
X117136500Y-111179525D01*
X117098984Y-111039515D01*
X117062461Y-110976256D01*
X117026511Y-110913988D01*
X117026506Y-110913982D01*
X116924013Y-110811489D01*
X116923321Y-110810990D01*
X116920802Y-110809635D01*
X116870243Y-110780445D01*
X116841808Y-110750624D01*
X116787007Y-110735939D01*
X116787007Y-110735940D01*
X116722740Y-110718720D01*
X116658475Y-110701500D01*
X116658474Y-110701500D01*
X116513525Y-110701500D01*
X116384994Y-110735939D01*
X116384993Y-110735940D01*
X116377338Y-110737991D01*
X116373510Y-110739017D01*
X116247991Y-110811485D01*
X116247984Y-110811490D01*
X116247968Y-110811505D01*
X116145505Y-110913968D01*
X116145490Y-110913984D01*
X116145485Y-110913992D01*
X116074287Y-111037308D01*
X116074286Y-111037312D01*
X116073017Y-111039511D01*
X116073016Y-111039515D01*
X116035500Y-111179525D01*
X112805059Y-111179525D01*
X112690449Y-111121128D01*
X112539215Y-111071988D01*
X112539203Y-111071985D01*
X112525701Y-111067598D01*
X112525699Y-111067597D01*
X112525698Y-111067597D01*
X112511312Y-111065318D01*
X112511306Y-111065317D01*
X112421188Y-111051044D01*
X112394271Y-111046781D01*
X112378407Y-111044268D01*
X112354614Y-111040500D01*
X112354611Y-111040500D01*
X112181389Y-111040500D01*
X112181388Y-111040500D01*
X112141726Y-111046781D01*
X112141725Y-111046780D01*
X112010304Y-111067596D01*
X111845549Y-111121129D01*
X111691210Y-111199768D01*
X111611256Y-111257859D01*
X111611255Y-111257859D01*
X111562941Y-111292961D01*
X111555564Y-111297092D01*
X111424093Y-111428563D01*
X111419963Y-111435939D01*
X111399942Y-111463497D01*
X111399940Y-111463499D01*
X111326772Y-111564205D01*
X111326768Y-111564211D01*
X111326766Y-111564213D01*
X111326764Y-111564218D01*
X111248129Y-111718549D01*
X111194596Y-111883305D01*
X111167500Y-112054383D01*
X110155500Y-112054383D01*
X110155500Y-109514383D01*
X111167500Y-109514383D01*
X111167500Y-109514389D01*
X111167500Y-109687611D01*
X111194598Y-109858701D01*
X111248127Y-110023445D01*
X111326768Y-110177788D01*
X111428586Y-110317928D01*
X111551072Y-110440414D01*
X111691212Y-110542232D01*
X111845555Y-110620873D01*
X112010299Y-110674402D01*
X112181389Y-110701500D01*
X112181390Y-110701500D01*
X112354610Y-110701500D01*
X112354611Y-110701500D01*
X112525701Y-110674402D01*
X112690445Y-110620873D01*
X112844788Y-110542232D01*
X112984928Y-110440414D01*
X113107414Y-110317928D01*
X113209232Y-110177788D01*
X113287873Y-110023445D01*
X113341402Y-109858701D01*
X113368500Y-109687611D01*
X113368500Y-109514389D01*
X113341402Y-109343299D01*
X113287873Y-109178555D01*
X113287870Y-109178549D01*
X113287840Y-109178490D01*
X113226355Y-109057815D01*
X113226354Y-109057814D01*
X113223681Y-109052568D01*
X113221927Y-109049127D01*
X113221926Y-109049125D01*
X113221924Y-109049120D01*
X113221919Y-109049112D01*
X113209230Y-109024210D01*
X113196278Y-109006383D01*
X137837500Y-109006383D01*
X137837500Y-109179615D01*
X137863423Y-109343294D01*
X137863424Y-109343294D01*
X137864597Y-109350699D01*
X137918128Y-109515449D01*
X137996768Y-109669788D01*
X138098586Y-109809928D01*
X138221072Y-109932414D01*
X138361212Y-110034232D01*
X138515555Y-110112873D01*
X138680299Y-110166402D01*
X138851389Y-110193500D01*
X138851390Y-110193500D01*
X139024610Y-110193500D01*
X139024611Y-110193500D01*
X139195701Y-110166402D01*
X139360445Y-110112873D01*
X139514788Y-110034232D01*
X139654928Y-109932414D01*
X139777414Y-109809928D01*
X139879232Y-109669788D01*
X139957873Y-109515445D01*
X140011402Y-109350701D01*
X140038500Y-109179611D01*
X140038500Y-109006389D01*
X140011402Y-108835299D01*
X139957873Y-108670555D01*
X139879232Y-108516212D01*
X139777414Y-108376072D01*
X139654928Y-108253586D01*
X139514788Y-108151768D01*
X139480705Y-108134402D01*
X139360449Y-108073128D01*
X139209215Y-108023988D01*
X139209203Y-108023985D01*
X139195701Y-108019598D01*
X139195699Y-108019597D01*
X139195698Y-108019597D01*
X139181312Y-108017318D01*
X139181306Y-108017317D01*
X139086053Y-108002231D01*
X139064271Y-107998781D01*
X139048407Y-107996268D01*
X139024614Y-107992500D01*
X139024611Y-107992500D01*
X138851389Y-107992500D01*
X138851388Y-107992500D01*
X138811726Y-107998781D01*
X138811725Y-107998780D01*
X138680304Y-108019596D01*
X138515549Y-108073129D01*
X138361210Y-108151768D01*
X138281256Y-108209859D01*
X138281255Y-108209859D01*
X138232941Y-108244961D01*
X138225564Y-108249092D01*
X138094092Y-108380564D01*
X138089961Y-108387941D01*
X138054859Y-108436255D01*
X138054859Y-108436256D01*
X137996768Y-108516210D01*
X137918129Y-108670549D01*
X137864596Y-108835305D01*
X137837500Y-109006383D01*
X113196278Y-109006383D01*
X113107414Y-108884072D01*
X112984928Y-108761586D01*
X112844788Y-108659768D01*
X112690449Y-108581128D01*
X112539215Y-108531988D01*
X112539203Y-108531985D01*
X112525701Y-108527598D01*
X112525699Y-108527597D01*
X112525698Y-108527597D01*
X112511312Y-108525318D01*
X112511306Y-108525317D01*
X112421188Y-108511044D01*
X112394271Y-108506781D01*
X112378407Y-108504268D01*
X112354614Y-108500500D01*
X112354611Y-108500500D01*
X112181389Y-108500500D01*
X112181388Y-108500500D01*
X112141726Y-108506781D01*
X112141725Y-108506780D01*
X112010304Y-108527596D01*
X111845549Y-108581129D01*
X111691210Y-108659768D01*
X111611256Y-108717859D01*
X111611255Y-108717859D01*
X111562941Y-108752961D01*
X111555564Y-108757092D01*
X111424092Y-108888564D01*
X111419961Y-108895941D01*
X111384859Y-108944255D01*
X111384859Y-108944256D01*
X111326768Y-109024210D01*
X111248129Y-109178549D01*
X111194596Y-109343305D01*
X111167500Y-109514383D01*
X110155500Y-109514383D01*
X110155500Y-106974383D01*
X111167500Y-106974383D01*
X111167500Y-106974389D01*
X111167500Y-107147611D01*
X111194598Y-107318701D01*
X111248127Y-107483445D01*
X111326768Y-107637788D01*
X111428586Y-107777928D01*
X111551072Y-107900414D01*
X111691212Y-108002232D01*
X111845555Y-108080873D01*
X112010299Y-108134402D01*
X112181389Y-108161500D01*
X112181390Y-108161500D01*
X112354610Y-108161500D01*
X112354611Y-108161500D01*
X112525701Y-108134402D01*
X112690445Y-108080873D01*
X112844788Y-108002232D01*
X112984928Y-107900414D01*
X113107414Y-107777928D01*
X113209232Y-107637788D01*
X113287873Y-107483445D01*
X113341402Y-107318701D01*
X113368500Y-107147611D01*
X113368500Y-106974389D01*
X113341402Y-106803299D01*
X113287873Y-106638555D01*
X113209232Y-106484212D01*
X113107414Y-106344072D01*
X112984928Y-106221586D01*
X112844788Y-106119768D01*
X112690449Y-106041128D01*
X112539215Y-105991988D01*
X112539203Y-105991985D01*
X112525701Y-105987598D01*
X112525699Y-105987597D01*
X112525698Y-105987597D01*
X112511312Y-105985318D01*
X112511306Y-105985317D01*
X112421188Y-105971044D01*
X112394271Y-105966781D01*
X112378407Y-105964268D01*
X112354614Y-105960500D01*
X112354611Y-105960500D01*
X112181389Y-105960500D01*
X112181388Y-105960500D01*
X112141726Y-105966781D01*
X112141725Y-105966780D01*
X112010304Y-105987596D01*
X111845549Y-106041129D01*
X111691210Y-106119768D01*
X111611256Y-106177859D01*
X111611255Y-106177859D01*
X111562941Y-106212961D01*
X111555564Y-106217092D01*
X111424092Y-106348564D01*
X111419961Y-106355941D01*
X111384859Y-106404255D01*
X111384859Y-106404256D01*
X111326768Y-106484210D01*
X111248129Y-106638549D01*
X111194596Y-106803305D01*
X111167500Y-106974383D01*
X110155500Y-106974383D01*
X110155500Y-104434383D01*
X111167500Y-104434383D01*
X111167500Y-104434389D01*
X111167500Y-104607611D01*
X111194598Y-104778701D01*
X111248127Y-104943445D01*
X111326768Y-105097788D01*
X111428586Y-105237928D01*
X111551072Y-105360414D01*
X111691212Y-105462232D01*
X111845555Y-105540873D01*
X112010299Y-105594402D01*
X112181389Y-105621500D01*
X112181390Y-105621500D01*
X112354610Y-105621500D01*
X112354611Y-105621500D01*
X112525701Y-105594402D01*
X112690445Y-105540873D01*
X112844788Y-105462232D01*
X112984928Y-105360414D01*
X113007817Y-105337525D01*
X126576500Y-105337525D01*
X126576500Y-105482475D01*
X126577888Y-105487654D01*
X126577888Y-105487655D01*
X126592147Y-105540872D01*
X126614016Y-105622487D01*
X126614018Y-105622491D01*
X126684631Y-105744795D01*
X126686489Y-105748013D01*
X126788985Y-105850509D01*
X126789674Y-105851005D01*
X126792178Y-105852353D01*
X126911069Y-105920995D01*
X126914087Y-105922869D01*
X126914514Y-105922983D01*
X126914515Y-105922984D01*
X127054525Y-105960500D01*
X127054528Y-105960500D01*
X127199472Y-105960500D01*
X127199475Y-105960500D01*
X127339485Y-105922984D01*
X127465015Y-105850509D01*
X127567509Y-105748015D01*
X127639984Y-105622485D01*
X127677500Y-105482475D01*
X127677500Y-105337525D01*
X127639984Y-105197515D01*
X127582406Y-105097788D01*
X127567511Y-105071988D01*
X127567506Y-105071982D01*
X127567502Y-105071978D01*
X127567493Y-105071968D01*
X127465030Y-104969505D01*
X127465014Y-104969490D01*
X127465006Y-104969485D01*
X127411243Y-104938445D01*
X127382808Y-104908624D01*
X127328007Y-104893939D01*
X127328007Y-104893940D01*
X127263740Y-104876720D01*
X127199475Y-104859500D01*
X127199474Y-104859500D01*
X127054525Y-104859500D01*
X126925994Y-104893939D01*
X126925993Y-104893940D01*
X126918338Y-104895991D01*
X126914510Y-104897017D01*
X126788991Y-104969485D01*
X126788984Y-104969490D01*
X126788968Y-104969505D01*
X126686505Y-105071968D01*
X126686490Y-105071984D01*
X126686485Y-105071992D01*
X126615287Y-105195308D01*
X126615286Y-105195312D01*
X126614017Y-105197511D01*
X126614016Y-105197515D01*
X126576500Y-105337525D01*
X113007817Y-105337525D01*
X113107414Y-105237928D01*
X113209232Y-105097788D01*
X113287873Y-104943445D01*
X113341402Y-104778701D01*
X113368500Y-104607611D01*
X113368500Y-104434389D01*
X113341402Y-104263299D01*
X113287873Y-104098555D01*
X113287870Y-104098549D01*
X113287840Y-104098490D01*
X113226355Y-103977815D01*
X113226354Y-103977814D01*
X113223681Y-103972568D01*
X113221927Y-103969127D01*
X113221926Y-103969125D01*
X113221924Y-103969120D01*
X113221919Y-103969112D01*
X113209230Y-103944210D01*
X113196278Y-103926383D01*
X137837500Y-103926383D01*
X137837500Y-104099615D01*
X137863423Y-104263294D01*
X137863424Y-104263294D01*
X137864597Y-104270699D01*
X137918128Y-104435449D01*
X137996768Y-104589788D01*
X138098586Y-104729928D01*
X138221072Y-104852414D01*
X138361212Y-104954232D01*
X138515555Y-105032873D01*
X138680299Y-105086402D01*
X138851389Y-105113500D01*
X138851390Y-105113500D01*
X139024610Y-105113500D01*
X139024611Y-105113500D01*
X139195701Y-105086402D01*
X139360445Y-105032873D01*
X139514788Y-104954232D01*
X139654928Y-104852414D01*
X139777414Y-104729928D01*
X139879232Y-104589788D01*
X139957873Y-104435445D01*
X140011402Y-104270701D01*
X140038500Y-104099611D01*
X140038500Y-103926389D01*
X140011402Y-103755299D01*
X139957873Y-103590555D01*
X139879232Y-103436212D01*
X139777414Y-103296072D01*
X139654928Y-103173586D01*
X139514788Y-103071768D01*
X139360449Y-102993128D01*
X139209215Y-102943988D01*
X139209203Y-102943985D01*
X139195701Y-102939598D01*
X139195699Y-102939597D01*
X139195698Y-102939597D01*
X139181312Y-102937318D01*
X139181306Y-102937317D01*
X139091188Y-102923044D01*
X139064271Y-102918781D01*
X139048407Y-102916268D01*
X139024614Y-102912500D01*
X139024611Y-102912500D01*
X138851389Y-102912500D01*
X138851388Y-102912500D01*
X138811726Y-102918781D01*
X138811725Y-102918780D01*
X138680304Y-102939596D01*
X138515549Y-102993129D01*
X138361210Y-103071768D01*
X138281256Y-103129859D01*
X138281255Y-103129859D01*
X138232941Y-103164961D01*
X138225564Y-103169092D01*
X138094092Y-103300564D01*
X138089961Y-103307941D01*
X138054859Y-103356255D01*
X138054859Y-103356256D01*
X137996768Y-103436210D01*
X137918129Y-103590549D01*
X137864596Y-103755305D01*
X137837500Y-103926383D01*
X113196278Y-103926383D01*
X113107414Y-103804072D01*
X112984928Y-103681586D01*
X112844788Y-103579768D01*
X112690449Y-103501128D01*
X112539215Y-103451988D01*
X112539203Y-103451985D01*
X112525701Y-103447598D01*
X112525699Y-103447597D01*
X112525698Y-103447597D01*
X112511312Y-103445318D01*
X112511306Y-103445317D01*
X112421188Y-103431044D01*
X112394271Y-103426781D01*
X112378407Y-103424268D01*
X112354614Y-103420500D01*
X112354611Y-103420500D01*
X112181389Y-103420500D01*
X112181388Y-103420500D01*
X112141726Y-103426781D01*
X112141725Y-103426780D01*
X112010304Y-103447596D01*
X111845549Y-103501129D01*
X111691210Y-103579768D01*
X111611256Y-103637859D01*
X111611255Y-103637859D01*
X111562941Y-103672961D01*
X111555564Y-103677092D01*
X111424092Y-103808564D01*
X111419961Y-103815941D01*
X111384859Y-103864255D01*
X111384859Y-103864256D01*
X111326768Y-103944210D01*
X111248129Y-104098549D01*
X111194596Y-104263305D01*
X111167500Y-104434383D01*
X110155500Y-104434383D01*
X110155500Y-101908525D01*
X131783500Y-101908525D01*
X131783500Y-102053475D01*
X131784888Y-102058654D01*
X131821013Y-102193477D01*
X131821017Y-102193488D01*
X131821018Y-102193489D01*
X131891631Y-102315795D01*
X131893489Y-102319013D01*
X131995985Y-102421509D01*
X131996674Y-102422005D01*
X131999178Y-102423353D01*
X132118069Y-102491995D01*
X132121087Y-102493869D01*
X132121514Y-102493983D01*
X132121515Y-102493984D01*
X132261525Y-102531500D01*
X132261528Y-102531500D01*
X132406472Y-102531500D01*
X132406475Y-102531500D01*
X132546485Y-102493984D01*
X132672015Y-102421509D01*
X132774509Y-102319015D01*
X132846984Y-102193485D01*
X132884500Y-102053475D01*
X132884500Y-101908525D01*
X132846984Y-101768515D01*
X132774509Y-101642985D01*
X132672015Y-101540491D01*
X132672013Y-101540489D01*
X132671321Y-101539990D01*
X132668802Y-101538635D01*
X132618243Y-101509445D01*
X132589808Y-101479624D01*
X132535007Y-101464939D01*
X132535007Y-101464940D01*
X132470740Y-101447720D01*
X132406475Y-101430500D01*
X132406474Y-101430500D01*
X132261525Y-101430500D01*
X132132994Y-101464939D01*
X132132993Y-101464940D01*
X132125338Y-101466991D01*
X132121510Y-101468017D01*
X131995991Y-101540485D01*
X131995984Y-101540490D01*
X131995968Y-101540505D01*
X131893505Y-101642968D01*
X131893490Y-101642984D01*
X131893485Y-101642992D01*
X131822287Y-101766308D01*
X131822286Y-101766312D01*
X131821017Y-101768511D01*
X131821016Y-101768515D01*
X131783500Y-101908525D01*
X110155500Y-101908525D01*
X110155500Y-100315680D01*
X111167499Y-100315680D01*
X111182028Y-100388717D01*
X111182032Y-100388735D01*
X111182033Y-100388739D01*
X111185480Y-100394826D01*
X111188816Y-100398891D01*
X111237399Y-100471601D01*
X111320256Y-100526964D01*
X111320258Y-100526965D01*
X111320259Y-100526965D01*
X111320260Y-100526966D01*
X111320264Y-100526967D01*
X111320279Y-100526970D01*
X111320288Y-100526972D01*
X111365021Y-100535869D01*
X111385681Y-100539979D01*
X111388415Y-100540703D01*
X111393323Y-100541500D01*
X113142676Y-100541500D01*
X113146796Y-100541500D01*
X113154648Y-100539117D01*
X113215740Y-100526966D01*
X113298601Y-100471601D01*
X113340746Y-100408525D01*
X131783500Y-100408525D01*
X131783500Y-100553474D01*
X131821013Y-100693477D01*
X131821017Y-100693488D01*
X131821018Y-100693489D01*
X131891631Y-100815795D01*
X131893489Y-100819013D01*
X131995985Y-100921509D01*
X131996674Y-100922005D01*
X131999178Y-100923353D01*
X132118069Y-100991995D01*
X132121087Y-100993869D01*
X132121514Y-100993983D01*
X132121515Y-100993984D01*
X132261525Y-101031500D01*
X132261528Y-101031500D01*
X132406472Y-101031500D01*
X132406475Y-101031500D01*
X132546485Y-100993984D01*
X132672015Y-100921509D01*
X132774509Y-100819015D01*
X132846984Y-100693485D01*
X132884500Y-100553475D01*
X132884500Y-100408525D01*
X132846984Y-100268515D01*
X132774509Y-100142985D01*
X132672015Y-100040491D01*
X132672013Y-100040489D01*
X132671321Y-100039990D01*
X132668802Y-100038635D01*
X132618242Y-100009444D01*
X132589808Y-99979624D01*
X132530004Y-99963600D01*
X132530003Y-99963599D01*
X132439574Y-99939368D01*
X132406475Y-99930500D01*
X132406474Y-99930500D01*
X132261525Y-99930500D01*
X132137995Y-99963600D01*
X132132296Y-99963464D01*
X132129023Y-99964905D01*
X132121512Y-99968016D01*
X131995992Y-100040485D01*
X131995984Y-100040490D01*
X131995968Y-100040505D01*
X131893505Y-100142968D01*
X131893490Y-100142984D01*
X131893485Y-100142992D01*
X131821017Y-100268509D01*
X131820989Y-100268578D01*
X131820748Y-100269511D01*
X131783500Y-100408525D01*
X113340746Y-100408525D01*
X113353966Y-100388740D01*
X113353967Y-100388735D01*
X113356460Y-100376206D01*
X113356460Y-100376205D01*
X113368072Y-100317822D01*
X113368500Y-100315857D01*
X113368500Y-99807680D01*
X137837499Y-99807680D01*
X137852028Y-99880717D01*
X137852032Y-99880735D01*
X137852033Y-99880739D01*
X137855480Y-99886826D01*
X137858816Y-99890891D01*
X137907399Y-99963601D01*
X137990256Y-100018964D01*
X137990258Y-100018965D01*
X137990259Y-100018965D01*
X137990260Y-100018966D01*
X137990264Y-100018967D01*
X137990279Y-100018970D01*
X137990288Y-100018972D01*
X138035021Y-100027869D01*
X138055681Y-100031979D01*
X138058415Y-100032703D01*
X138063323Y-100033500D01*
X139812676Y-100033500D01*
X139816796Y-100033500D01*
X139824648Y-100031117D01*
X139885740Y-100018966D01*
X139968601Y-99963601D01*
X140023966Y-99880740D01*
X140038500Y-99807674D01*
X140038500Y-98058326D01*
X140038500Y-98058323D01*
X140038500Y-98058139D01*
X140038064Y-98056134D01*
X140023972Y-97985289D01*
X140023967Y-97985266D01*
X140023967Y-97985264D01*
X140023966Y-97985260D01*
X140023965Y-97985258D01*
X140023964Y-97985256D01*
X139968601Y-97902399D01*
X139895891Y-97853816D01*
X139891826Y-97850480D01*
X139885739Y-97847033D01*
X139885735Y-97847032D01*
X139885709Y-97847026D01*
X139812680Y-97832500D01*
X139812677Y-97832500D01*
X139812674Y-97832500D01*
X138063326Y-97832500D01*
X138063323Y-97832500D01*
X138063319Y-97832500D01*
X137990285Y-97847027D01*
X137990262Y-97847032D01*
X137990258Y-97847033D01*
X137907399Y-97902399D01*
X137852033Y-97985258D01*
X137852032Y-97985266D01*
X137852028Y-97985281D01*
X137837500Y-98058318D01*
X137837500Y-98058321D01*
X137837500Y-99807678D01*
X137837500Y-99807680D01*
X137837499Y-99807680D01*
X113368500Y-99807680D01*
X113368500Y-99114525D01*
X118448500Y-99114525D01*
X118448500Y-99259475D01*
X118449888Y-99264654D01*
X118486013Y-99399477D01*
X118486016Y-99399485D01*
X118486017Y-99399488D01*
X118531411Y-99478112D01*
X118556631Y-99521795D01*
X118558489Y-99525013D01*
X118660985Y-99627509D01*
X118661674Y-99628005D01*
X118664178Y-99629353D01*
X118783069Y-99697995D01*
X118786087Y-99699869D01*
X118786514Y-99699983D01*
X118786515Y-99699984D01*
X118926525Y-99737500D01*
X118926528Y-99737500D01*
X119071472Y-99737500D01*
X119071475Y-99737500D01*
X119211485Y-99699984D01*
X119337015Y-99627509D01*
X119439509Y-99525015D01*
X119511984Y-99399485D01*
X119549500Y-99259475D01*
X119549500Y-99114525D01*
X119511984Y-98974515D01*
X119473885Y-98908525D01*
X131783500Y-98908525D01*
X131783500Y-99053475D01*
X131784888Y-99058654D01*
X131821013Y-99193477D01*
X131821017Y-99193488D01*
X131821018Y-99193489D01*
X131891631Y-99315795D01*
X131893489Y-99319013D01*
X131995985Y-99421509D01*
X131996674Y-99422005D01*
X131999178Y-99423353D01*
X132118069Y-99491995D01*
X132121087Y-99493869D01*
X132121514Y-99493983D01*
X132121515Y-99493984D01*
X132261525Y-99531500D01*
X132261528Y-99531500D01*
X132406472Y-99531500D01*
X132406475Y-99531500D01*
X132546485Y-99493984D01*
X132672015Y-99421509D01*
X132774509Y-99319015D01*
X132846984Y-99193485D01*
X132884500Y-99053475D01*
X132884500Y-98908525D01*
X132846984Y-98768515D01*
X132846982Y-98768512D01*
X132846983Y-98768512D01*
X132834268Y-98746490D01*
X132834267Y-98746489D01*
X132774513Y-98642991D01*
X132774508Y-98642984D01*
X132774493Y-98642968D01*
X132672030Y-98540505D01*
X132672014Y-98540490D01*
X132672006Y-98540485D01*
X132618243Y-98509445D01*
X132589808Y-98479624D01*
X132535007Y-98464939D01*
X132535007Y-98464940D01*
X132470740Y-98447720D01*
X132406475Y-98430500D01*
X132406474Y-98430500D01*
X132261525Y-98430500D01*
X132132994Y-98464939D01*
X132132993Y-98464940D01*
X132125338Y-98466991D01*
X132121510Y-98468017D01*
X131995991Y-98540485D01*
X131995984Y-98540490D01*
X131995968Y-98540505D01*
X131893505Y-98642968D01*
X131893490Y-98642984D01*
X131893485Y-98642992D01*
X131822287Y-98766308D01*
X131822286Y-98766312D01*
X131821017Y-98768511D01*
X131821016Y-98768515D01*
X131783500Y-98908525D01*
X119473885Y-98908525D01*
X119439509Y-98848985D01*
X119337015Y-98746491D01*
X119337013Y-98746489D01*
X119336321Y-98745990D01*
X119333802Y-98744635D01*
X119283243Y-98715445D01*
X119254808Y-98685624D01*
X119200007Y-98670939D01*
X119200007Y-98670940D01*
X119095703Y-98642992D01*
X119071475Y-98636500D01*
X119071474Y-98636500D01*
X118926525Y-98636500D01*
X118797994Y-98670939D01*
X118797993Y-98670940D01*
X118790338Y-98672991D01*
X118786510Y-98674017D01*
X118660991Y-98746485D01*
X118660987Y-98746489D01*
X118660984Y-98746490D01*
X118660968Y-98746505D01*
X118558505Y-98848968D01*
X118558490Y-98848984D01*
X118558485Y-98848992D01*
X118487287Y-98972308D01*
X118487286Y-98972312D01*
X118486017Y-98974511D01*
X118486016Y-98974515D01*
X118448500Y-99114525D01*
X113368500Y-99114525D01*
X113368500Y-98569116D01*
X113368500Y-98566323D01*
X113368499Y-98566321D01*
X113353967Y-98493264D01*
X113353966Y-98493260D01*
X113337099Y-98468017D01*
X113312032Y-98430500D01*
X113298604Y-98410402D01*
X113298600Y-98410398D01*
X113225891Y-98361816D01*
X113221826Y-98358480D01*
X113215739Y-98355033D01*
X113215735Y-98355032D01*
X113215709Y-98355026D01*
X113142680Y-98340500D01*
X113142677Y-98340500D01*
X113142674Y-98340500D01*
X111393326Y-98340500D01*
X111393323Y-98340500D01*
X111393319Y-98340500D01*
X111320285Y-98355027D01*
X111320262Y-98355032D01*
X111320258Y-98355033D01*
X111237399Y-98410399D01*
X111182033Y-98493258D01*
X111182032Y-98493266D01*
X111182028Y-98493281D01*
X111167500Y-98566318D01*
X111167500Y-98566321D01*
X111167500Y-100315678D01*
X111167500Y-100315680D01*
X111167499Y-100315680D01*
X110155500Y-100315680D01*
X110155500Y-91477525D01*
X131783500Y-91477525D01*
X131783500Y-91622475D01*
X131784888Y-91627654D01*
X131821013Y-91762477D01*
X131821017Y-91762488D01*
X131821018Y-91762489D01*
X131891631Y-91884795D01*
X131893489Y-91888013D01*
X131995985Y-91990509D01*
X131996674Y-91991005D01*
X131999178Y-91992353D01*
X132118069Y-92060995D01*
X132121087Y-92062869D01*
X132121514Y-92062983D01*
X132121515Y-92062984D01*
X132261525Y-92100500D01*
X132261528Y-92100500D01*
X132406472Y-92100500D01*
X132406475Y-92100500D01*
X132546485Y-92062984D01*
X132672015Y-91990509D01*
X132774509Y-91888015D01*
X132846984Y-91762485D01*
X132884500Y-91622475D01*
X132884500Y-91477525D01*
X132846984Y-91337515D01*
X132774509Y-91211985D01*
X132672015Y-91109491D01*
X132672013Y-91109489D01*
X132671321Y-91108990D01*
X132668802Y-91107635D01*
X132618243Y-91078445D01*
X132589808Y-91048624D01*
X132535007Y-91033939D01*
X132535007Y-91033940D01*
X132470740Y-91016720D01*
X132406475Y-90999500D01*
X132406474Y-90999500D01*
X132261525Y-90999500D01*
X132132994Y-91033939D01*
X132132993Y-91033940D01*
X132125338Y-91035991D01*
X132121510Y-91037017D01*
X131995991Y-91109485D01*
X131995984Y-91109490D01*
X131995968Y-91109505D01*
X131893505Y-91211968D01*
X131893490Y-91211984D01*
X131893485Y-91211992D01*
X131822287Y-91335308D01*
X131822286Y-91335312D01*
X131821017Y-91337511D01*
X131821016Y-91337515D01*
X131783500Y-91477525D01*
X110155500Y-91477525D01*
X110155500Y-89843525D01*
X110955500Y-89843525D01*
X110955500Y-89988475D01*
X110991405Y-90122472D01*
X110991404Y-90122472D01*
X110993015Y-90128485D01*
X110993018Y-90128491D01*
X111063631Y-90250795D01*
X111065489Y-90254013D01*
X111167985Y-90356509D01*
X111168674Y-90357005D01*
X111171178Y-90358353D01*
X111290069Y-90426995D01*
X111293087Y-90428869D01*
X111293514Y-90428983D01*
X111293515Y-90428984D01*
X111433525Y-90466500D01*
X111433528Y-90466500D01*
X111578472Y-90466500D01*
X111578475Y-90466500D01*
X111718485Y-90428984D01*
X111844015Y-90356509D01*
X111946509Y-90254015D01*
X112018984Y-90128485D01*
X112056500Y-89988475D01*
X112056500Y-89977525D01*
X131910500Y-89977525D01*
X131910500Y-90122475D01*
X131945747Y-90254017D01*
X131948017Y-90262488D01*
X132019744Y-90386722D01*
X132020361Y-90387885D01*
X132122985Y-90490509D01*
X132123674Y-90491005D01*
X132126178Y-90492353D01*
X132245069Y-90560995D01*
X132248087Y-90562869D01*
X132248514Y-90562983D01*
X132248515Y-90562984D01*
X132388525Y-90600500D01*
X132388528Y-90600500D01*
X132533472Y-90600500D01*
X132533475Y-90600500D01*
X132673485Y-90562984D01*
X132799015Y-90490509D01*
X132901509Y-90388015D01*
X132973984Y-90262485D01*
X133011500Y-90122475D01*
X133011500Y-89977525D01*
X132973984Y-89837515D01*
X132901509Y-89711985D01*
X132799015Y-89609491D01*
X132799013Y-89609489D01*
X132798321Y-89608990D01*
X132795802Y-89607635D01*
X132745243Y-89578445D01*
X132716808Y-89548624D01*
X132662007Y-89533939D01*
X132662007Y-89533940D01*
X132597740Y-89516720D01*
X132533475Y-89499500D01*
X132533474Y-89499500D01*
X132388525Y-89499500D01*
X132259994Y-89533939D01*
X132259993Y-89533940D01*
X132252338Y-89535991D01*
X132248510Y-89537017D01*
X132122991Y-89609485D01*
X132122988Y-89609488D01*
X132122985Y-89609491D01*
X132122968Y-89609505D01*
X132020505Y-89711968D01*
X132020490Y-89711984D01*
X132020485Y-89711992D01*
X131949287Y-89835308D01*
X131949286Y-89835312D01*
X131948017Y-89837511D01*
X131948016Y-89837515D01*
X131910500Y-89977525D01*
X112056500Y-89977525D01*
X112056500Y-89843525D01*
X112018984Y-89703515D01*
X111964697Y-89609488D01*
X111964409Y-89608990D01*
X111946514Y-89577993D01*
X111946512Y-89577989D01*
X111946510Y-89577986D01*
X111946506Y-89577982D01*
X111946502Y-89577978D01*
X111946493Y-89577968D01*
X111844030Y-89475505D01*
X111844014Y-89475490D01*
X111844006Y-89475485D01*
X111790243Y-89444445D01*
X111761808Y-89414624D01*
X111707007Y-89399939D01*
X111707007Y-89399940D01*
X111642740Y-89382720D01*
X111578475Y-89365500D01*
X111578474Y-89365500D01*
X111433525Y-89365500D01*
X111304994Y-89399939D01*
X111304993Y-89399940D01*
X111297338Y-89401991D01*
X111293510Y-89403017D01*
X111167991Y-89475485D01*
X111167984Y-89475490D01*
X111167968Y-89475505D01*
X111065505Y-89577968D01*
X111065490Y-89577984D01*
X111065485Y-89577992D01*
X110994287Y-89701308D01*
X110994286Y-89701312D01*
X110993017Y-89703511D01*
X110993016Y-89703515D01*
X110955500Y-89843525D01*
X110155500Y-89843525D01*
X110155500Y-88707329D01*
X110160523Y-88672393D01*
X110164927Y-88657395D01*
X110202672Y-88598644D01*
X110204041Y-88597457D01*
X110258920Y-88569977D01*
X110266479Y-88568333D01*
X110292832Y-88565500D01*
X111126000Y-88565500D01*
X111193039Y-88585185D01*
G37*
%TD.AperFunction*%
%TD*%
M02*
