%TF.GenerationSoftware,KiCad,Pcbnew,10.0.0*%
%TF.CreationDate,2026-04-14T08:10:59-07:00*%
%TF.ProjectId,ESP32,45535033-322e-46b6-9963-61645f706362,rev?*%
%TF.SameCoordinates,Original*%
%TF.FileFunction,Legend,Bot*%
%TF.FilePolarity,Positive*%
%FSLAX46Y46*%
G04 Gerber Fmt 4.6, Leading zero omitted, Abs format (unit mm)*
G04 Created by KiCad (PCBNEW 10.0.0) date 2026-04-14 08:10:59*
%MOMM*%
%LPD*%
G01*
G04 APERTURE LIST*
%ADD10C,0.100000*%
%ADD11C,0.200000*%
%ADD12C,0.150000*%
%ADD13C,0.120000*%
G04 APERTURE END LIST*
D10*
X137091390Y-98764068D02*
X137091390Y-99002163D01*
X137091390Y-99002163D02*
X136853295Y-99025972D01*
X136853295Y-99025972D02*
X136877104Y-99002163D01*
X136877104Y-99002163D02*
X136900914Y-98954544D01*
X136900914Y-98954544D02*
X136900914Y-98835496D01*
X136900914Y-98835496D02*
X136877104Y-98787877D01*
X136877104Y-98787877D02*
X136853295Y-98764068D01*
X136853295Y-98764068D02*
X136805676Y-98740258D01*
X136805676Y-98740258D02*
X136686628Y-98740258D01*
X136686628Y-98740258D02*
X136639009Y-98764068D01*
X136639009Y-98764068D02*
X136615200Y-98787877D01*
X136615200Y-98787877D02*
X136591390Y-98835496D01*
X136591390Y-98835496D02*
X136591390Y-98954544D01*
X136591390Y-98954544D02*
X136615200Y-99002163D01*
X136615200Y-99002163D02*
X136639009Y-99025972D01*
X137091390Y-98597401D02*
X136591390Y-98430735D01*
X136591390Y-98430735D02*
X137091390Y-98264068D01*
X136940580Y-101788258D02*
X136964390Y-101835877D01*
X136964390Y-101835877D02*
X136964390Y-101907306D01*
X136964390Y-101907306D02*
X136940580Y-101978734D01*
X136940580Y-101978734D02*
X136892961Y-102026353D01*
X136892961Y-102026353D02*
X136845342Y-102050163D01*
X136845342Y-102050163D02*
X136750104Y-102073972D01*
X136750104Y-102073972D02*
X136678676Y-102073972D01*
X136678676Y-102073972D02*
X136583438Y-102050163D01*
X136583438Y-102050163D02*
X136535819Y-102026353D01*
X136535819Y-102026353D02*
X136488200Y-101978734D01*
X136488200Y-101978734D02*
X136464390Y-101907306D01*
X136464390Y-101907306D02*
X136464390Y-101859687D01*
X136464390Y-101859687D02*
X136488200Y-101788258D01*
X136488200Y-101788258D02*
X136512009Y-101764449D01*
X136512009Y-101764449D02*
X136678676Y-101764449D01*
X136678676Y-101764449D02*
X136678676Y-101859687D01*
X136464390Y-101550163D02*
X136964390Y-101550163D01*
X136964390Y-101550163D02*
X136464390Y-101264449D01*
X136464390Y-101264449D02*
X136964390Y-101264449D01*
X136464390Y-101026353D02*
X136964390Y-101026353D01*
X136964390Y-101026353D02*
X136964390Y-100907305D01*
X136964390Y-100907305D02*
X136940580Y-100835877D01*
X136940580Y-100835877D02*
X136892961Y-100788258D01*
X136892961Y-100788258D02*
X136845342Y-100764448D01*
X136845342Y-100764448D02*
X136750104Y-100740639D01*
X136750104Y-100740639D02*
X136678676Y-100740639D01*
X136678676Y-100740639D02*
X136583438Y-100764448D01*
X136583438Y-100764448D02*
X136535819Y-100788258D01*
X136535819Y-100788258D02*
X136488200Y-100835877D01*
X136488200Y-100835877D02*
X136464390Y-100907305D01*
X136464390Y-100907305D02*
X136464390Y-101026353D01*
X136718390Y-104328258D02*
X136718390Y-104613972D01*
X136718390Y-104471115D02*
X137218390Y-104471115D01*
X137218390Y-104471115D02*
X137146961Y-104518734D01*
X137146961Y-104518734D02*
X137099342Y-104566353D01*
X137099342Y-104566353D02*
X137075533Y-104613972D01*
X137218390Y-104018735D02*
X137218390Y-103971116D01*
X137218390Y-103971116D02*
X137194580Y-103923497D01*
X137194580Y-103923497D02*
X137170771Y-103899687D01*
X137170771Y-103899687D02*
X137123152Y-103875878D01*
X137123152Y-103875878D02*
X137027914Y-103852068D01*
X137027914Y-103852068D02*
X136908866Y-103852068D01*
X136908866Y-103852068D02*
X136813628Y-103875878D01*
X136813628Y-103875878D02*
X136766009Y-103899687D01*
X136766009Y-103899687D02*
X136742200Y-103923497D01*
X136742200Y-103923497D02*
X136718390Y-103971116D01*
X136718390Y-103971116D02*
X136718390Y-104018735D01*
X136718390Y-104018735D02*
X136742200Y-104066354D01*
X136742200Y-104066354D02*
X136766009Y-104090163D01*
X136766009Y-104090163D02*
X136813628Y-104113973D01*
X136813628Y-104113973D02*
X136908866Y-104137782D01*
X136908866Y-104137782D02*
X137027914Y-104137782D01*
X137027914Y-104137782D02*
X137123152Y-104113973D01*
X137123152Y-104113973D02*
X137170771Y-104090163D01*
X137170771Y-104090163D02*
X137194580Y-104066354D01*
X137194580Y-104066354D02*
X137218390Y-104018735D01*
X137218390Y-103685402D02*
X137218390Y-103375878D01*
X137218390Y-103375878D02*
X137027914Y-103542545D01*
X137027914Y-103542545D02*
X137027914Y-103471116D01*
X137027914Y-103471116D02*
X137004104Y-103423497D01*
X137004104Y-103423497D02*
X136980295Y-103399688D01*
X136980295Y-103399688D02*
X136932676Y-103375878D01*
X136932676Y-103375878D02*
X136813628Y-103375878D01*
X136813628Y-103375878D02*
X136766009Y-103399688D01*
X136766009Y-103399688D02*
X136742200Y-103423497D01*
X136742200Y-103423497D02*
X136718390Y-103471116D01*
X136718390Y-103471116D02*
X136718390Y-103613973D01*
X136718390Y-103613973D02*
X136742200Y-103661592D01*
X136742200Y-103661592D02*
X136766009Y-103685402D01*
X137194580Y-106868258D02*
X137218390Y-106915877D01*
X137218390Y-106915877D02*
X137218390Y-106987306D01*
X137218390Y-106987306D02*
X137194580Y-107058734D01*
X137194580Y-107058734D02*
X137146961Y-107106353D01*
X137146961Y-107106353D02*
X137099342Y-107130163D01*
X137099342Y-107130163D02*
X137004104Y-107153972D01*
X137004104Y-107153972D02*
X136932676Y-107153972D01*
X136932676Y-107153972D02*
X136837438Y-107130163D01*
X136837438Y-107130163D02*
X136789819Y-107106353D01*
X136789819Y-107106353D02*
X136742200Y-107058734D01*
X136742200Y-107058734D02*
X136718390Y-106987306D01*
X136718390Y-106987306D02*
X136718390Y-106939687D01*
X136718390Y-106939687D02*
X136742200Y-106868258D01*
X136742200Y-106868258D02*
X136766009Y-106844449D01*
X136766009Y-106844449D02*
X136932676Y-106844449D01*
X136932676Y-106844449D02*
X136932676Y-106939687D01*
X136718390Y-106630163D02*
X137218390Y-106630163D01*
X137218390Y-106630163D02*
X136718390Y-106344449D01*
X136718390Y-106344449D02*
X137218390Y-106344449D01*
X136718390Y-106106353D02*
X137218390Y-106106353D01*
X137218390Y-106106353D02*
X137218390Y-105987305D01*
X137218390Y-105987305D02*
X137194580Y-105915877D01*
X137194580Y-105915877D02*
X137146961Y-105868258D01*
X137146961Y-105868258D02*
X137099342Y-105844448D01*
X137099342Y-105844448D02*
X137004104Y-105820639D01*
X137004104Y-105820639D02*
X136932676Y-105820639D01*
X136932676Y-105820639D02*
X136837438Y-105844448D01*
X136837438Y-105844448D02*
X136789819Y-105868258D01*
X136789819Y-105868258D02*
X136742200Y-105915877D01*
X136742200Y-105915877D02*
X136718390Y-105987305D01*
X136718390Y-105987305D02*
X136718390Y-106106353D01*
X137091390Y-109614591D02*
X137091390Y-109328877D01*
X136591390Y-109471734D02*
X137091390Y-109471734D01*
X137091390Y-109209830D02*
X136591390Y-108876497D01*
X137091390Y-108876497D02*
X136591390Y-109209830D01*
X136591390Y-108686021D02*
X137091390Y-108686021D01*
X137091390Y-108686021D02*
X137091390Y-108566973D01*
X137091390Y-108566973D02*
X137067580Y-108495545D01*
X137067580Y-108495545D02*
X137019961Y-108447926D01*
X137019961Y-108447926D02*
X136972342Y-108424116D01*
X136972342Y-108424116D02*
X136877104Y-108400307D01*
X136877104Y-108400307D02*
X136805676Y-108400307D01*
X136805676Y-108400307D02*
X136710438Y-108424116D01*
X136710438Y-108424116D02*
X136662819Y-108447926D01*
X136662819Y-108447926D02*
X136615200Y-108495545D01*
X136615200Y-108495545D02*
X136591390Y-108566973D01*
X136591390Y-108566973D02*
X136591390Y-108686021D01*
X136718390Y-111797449D02*
X136956485Y-111964115D01*
X136718390Y-112083163D02*
X137218390Y-112083163D01*
X137218390Y-112083163D02*
X137218390Y-111892687D01*
X137218390Y-111892687D02*
X137194580Y-111845068D01*
X137194580Y-111845068D02*
X137170771Y-111821258D01*
X137170771Y-111821258D02*
X137123152Y-111797449D01*
X137123152Y-111797449D02*
X137051723Y-111797449D01*
X137051723Y-111797449D02*
X137004104Y-111821258D01*
X137004104Y-111821258D02*
X136980295Y-111845068D01*
X136980295Y-111845068D02*
X136956485Y-111892687D01*
X136956485Y-111892687D02*
X136956485Y-112083163D01*
X137218390Y-111630782D02*
X136718390Y-111297449D01*
X137218390Y-111297449D02*
X136718390Y-111630782D01*
X136718390Y-111106973D02*
X137218390Y-111106973D01*
X137218390Y-111106973D02*
X137218390Y-110987925D01*
X137218390Y-110987925D02*
X137194580Y-110916497D01*
X137194580Y-110916497D02*
X137146961Y-110868878D01*
X137146961Y-110868878D02*
X137099342Y-110845068D01*
X137099342Y-110845068D02*
X137004104Y-110821259D01*
X137004104Y-110821259D02*
X136932676Y-110821259D01*
X136932676Y-110821259D02*
X136837438Y-110845068D01*
X136837438Y-110845068D02*
X136789819Y-110868878D01*
X136789819Y-110868878D02*
X136742200Y-110916497D01*
X136742200Y-110916497D02*
X136718390Y-110987925D01*
X136718390Y-110987925D02*
X136718390Y-111106973D01*
X137321580Y-114361258D02*
X137345390Y-114408877D01*
X137345390Y-114408877D02*
X137345390Y-114480306D01*
X137345390Y-114480306D02*
X137321580Y-114551734D01*
X137321580Y-114551734D02*
X137273961Y-114599353D01*
X137273961Y-114599353D02*
X137226342Y-114623163D01*
X137226342Y-114623163D02*
X137131104Y-114646972D01*
X137131104Y-114646972D02*
X137059676Y-114646972D01*
X137059676Y-114646972D02*
X136964438Y-114623163D01*
X136964438Y-114623163D02*
X136916819Y-114599353D01*
X136916819Y-114599353D02*
X136869200Y-114551734D01*
X136869200Y-114551734D02*
X136845390Y-114480306D01*
X136845390Y-114480306D02*
X136845390Y-114432687D01*
X136845390Y-114432687D02*
X136869200Y-114361258D01*
X136869200Y-114361258D02*
X136893009Y-114337449D01*
X136893009Y-114337449D02*
X137059676Y-114337449D01*
X137059676Y-114337449D02*
X137059676Y-114432687D01*
X136845390Y-114123163D02*
X137345390Y-114123163D01*
X137345390Y-114123163D02*
X136845390Y-113837449D01*
X136845390Y-113837449D02*
X137345390Y-113837449D01*
X136845390Y-113599353D02*
X137345390Y-113599353D01*
X137345390Y-113599353D02*
X137345390Y-113480305D01*
X137345390Y-113480305D02*
X137321580Y-113408877D01*
X137321580Y-113408877D02*
X137273961Y-113361258D01*
X137273961Y-113361258D02*
X137226342Y-113337448D01*
X137226342Y-113337448D02*
X137131104Y-113313639D01*
X137131104Y-113313639D02*
X137059676Y-113313639D01*
X137059676Y-113313639D02*
X136964438Y-113337448D01*
X136964438Y-113337448D02*
X136916819Y-113361258D01*
X136916819Y-113361258D02*
X136869200Y-113408877D01*
X136869200Y-113408877D02*
X136845390Y-113480305D01*
X136845390Y-113480305D02*
X136845390Y-113599353D01*
X136845390Y-116901258D02*
X136845390Y-117186972D01*
X136845390Y-117044115D02*
X137345390Y-117044115D01*
X137345390Y-117044115D02*
X137273961Y-117091734D01*
X137273961Y-117091734D02*
X137226342Y-117139353D01*
X137226342Y-117139353D02*
X137202533Y-117186972D01*
X137345390Y-116591735D02*
X137345390Y-116544116D01*
X137345390Y-116544116D02*
X137321580Y-116496497D01*
X137321580Y-116496497D02*
X137297771Y-116472687D01*
X137297771Y-116472687D02*
X137250152Y-116448878D01*
X137250152Y-116448878D02*
X137154914Y-116425068D01*
X137154914Y-116425068D02*
X137035866Y-116425068D01*
X137035866Y-116425068D02*
X136940628Y-116448878D01*
X136940628Y-116448878D02*
X136893009Y-116472687D01*
X136893009Y-116472687D02*
X136869200Y-116496497D01*
X136869200Y-116496497D02*
X136845390Y-116544116D01*
X136845390Y-116544116D02*
X136845390Y-116591735D01*
X136845390Y-116591735D02*
X136869200Y-116639354D01*
X136869200Y-116639354D02*
X136893009Y-116663163D01*
X136893009Y-116663163D02*
X136940628Y-116686973D01*
X136940628Y-116686973D02*
X137035866Y-116710782D01*
X137035866Y-116710782D02*
X137154914Y-116710782D01*
X137154914Y-116710782D02*
X137250152Y-116686973D01*
X137250152Y-116686973D02*
X137297771Y-116663163D01*
X137297771Y-116663163D02*
X137321580Y-116639354D01*
X137321580Y-116639354D02*
X137345390Y-116591735D01*
X136845390Y-115948878D02*
X136845390Y-116234592D01*
X136845390Y-116091735D02*
X137345390Y-116091735D01*
X137345390Y-116091735D02*
X137273961Y-116139354D01*
X137273961Y-116139354D02*
X137226342Y-116186973D01*
X137226342Y-116186973D02*
X137202533Y-116234592D01*
X137345390Y-115639355D02*
X137345390Y-115591736D01*
X137345390Y-115591736D02*
X137321580Y-115544117D01*
X137321580Y-115544117D02*
X137297771Y-115520307D01*
X137297771Y-115520307D02*
X137250152Y-115496498D01*
X137250152Y-115496498D02*
X137154914Y-115472688D01*
X137154914Y-115472688D02*
X137035866Y-115472688D01*
X137035866Y-115472688D02*
X136940628Y-115496498D01*
X136940628Y-115496498D02*
X136893009Y-115520307D01*
X136893009Y-115520307D02*
X136869200Y-115544117D01*
X136869200Y-115544117D02*
X136845390Y-115591736D01*
X136845390Y-115591736D02*
X136845390Y-115639355D01*
X136845390Y-115639355D02*
X136869200Y-115686974D01*
X136869200Y-115686974D02*
X136893009Y-115710783D01*
X136893009Y-115710783D02*
X136940628Y-115734593D01*
X136940628Y-115734593D02*
X137035866Y-115758402D01*
X137035866Y-115758402D02*
X137154914Y-115758402D01*
X137154914Y-115758402D02*
X137250152Y-115734593D01*
X137250152Y-115734593D02*
X137297771Y-115710783D01*
X137297771Y-115710783D02*
X137321580Y-115686974D01*
X137321580Y-115686974D02*
X137345390Y-115639355D01*
X113794866Y-100018163D02*
X113794866Y-99637211D01*
X113604390Y-99827687D02*
X113985342Y-99827687D01*
X114104390Y-99446734D02*
X114104390Y-99137210D01*
X114104390Y-99137210D02*
X113913914Y-99303877D01*
X113913914Y-99303877D02*
X113913914Y-99232448D01*
X113913914Y-99232448D02*
X113890104Y-99184829D01*
X113890104Y-99184829D02*
X113866295Y-99161020D01*
X113866295Y-99161020D02*
X113818676Y-99137210D01*
X113818676Y-99137210D02*
X113699628Y-99137210D01*
X113699628Y-99137210D02*
X113652009Y-99161020D01*
X113652009Y-99161020D02*
X113628200Y-99184829D01*
X113628200Y-99184829D02*
X113604390Y-99232448D01*
X113604390Y-99232448D02*
X113604390Y-99375305D01*
X113604390Y-99375305D02*
X113628200Y-99422924D01*
X113628200Y-99422924D02*
X113652009Y-99446734D01*
X114104390Y-98994353D02*
X113604390Y-98827687D01*
X113604390Y-98827687D02*
X114104390Y-98661020D01*
X114207580Y-101915258D02*
X114231390Y-101962877D01*
X114231390Y-101962877D02*
X114231390Y-102034306D01*
X114231390Y-102034306D02*
X114207580Y-102105734D01*
X114207580Y-102105734D02*
X114159961Y-102153353D01*
X114159961Y-102153353D02*
X114112342Y-102177163D01*
X114112342Y-102177163D02*
X114017104Y-102200972D01*
X114017104Y-102200972D02*
X113945676Y-102200972D01*
X113945676Y-102200972D02*
X113850438Y-102177163D01*
X113850438Y-102177163D02*
X113802819Y-102153353D01*
X113802819Y-102153353D02*
X113755200Y-102105734D01*
X113755200Y-102105734D02*
X113731390Y-102034306D01*
X113731390Y-102034306D02*
X113731390Y-101986687D01*
X113731390Y-101986687D02*
X113755200Y-101915258D01*
X113755200Y-101915258D02*
X113779009Y-101891449D01*
X113779009Y-101891449D02*
X113945676Y-101891449D01*
X113945676Y-101891449D02*
X113945676Y-101986687D01*
X113731390Y-101677163D02*
X114231390Y-101677163D01*
X114231390Y-101677163D02*
X113731390Y-101391449D01*
X113731390Y-101391449D02*
X114231390Y-101391449D01*
X113731390Y-101153353D02*
X114231390Y-101153353D01*
X114231390Y-101153353D02*
X114231390Y-101034305D01*
X114231390Y-101034305D02*
X114207580Y-100962877D01*
X114207580Y-100962877D02*
X114159961Y-100915258D01*
X114159961Y-100915258D02*
X114112342Y-100891448D01*
X114112342Y-100891448D02*
X114017104Y-100867639D01*
X114017104Y-100867639D02*
X113945676Y-100867639D01*
X113945676Y-100867639D02*
X113850438Y-100891448D01*
X113850438Y-100891448D02*
X113802819Y-100915258D01*
X113802819Y-100915258D02*
X113755200Y-100962877D01*
X113755200Y-100962877D02*
X113731390Y-101034305D01*
X113731390Y-101034305D02*
X113731390Y-101153353D01*
X113993295Y-104844163D02*
X113993295Y-104677496D01*
X113731390Y-104606068D02*
X113731390Y-104844163D01*
X113731390Y-104844163D02*
X114231390Y-104844163D01*
X114231390Y-104844163D02*
X114231390Y-104606068D01*
X113731390Y-104391782D02*
X114231390Y-104391782D01*
X114231390Y-104391782D02*
X113731390Y-104106068D01*
X113731390Y-104106068D02*
X114231390Y-104106068D01*
X113731390Y-107376258D02*
X113731390Y-107661972D01*
X113731390Y-107519115D02*
X114231390Y-107519115D01*
X114231390Y-107519115D02*
X114159961Y-107566734D01*
X114159961Y-107566734D02*
X114112342Y-107614353D01*
X114112342Y-107614353D02*
X114088533Y-107661972D01*
X114231390Y-107066735D02*
X114231390Y-107019116D01*
X114231390Y-107019116D02*
X114207580Y-106971497D01*
X114207580Y-106971497D02*
X114183771Y-106947687D01*
X114183771Y-106947687D02*
X114136152Y-106923878D01*
X114136152Y-106923878D02*
X114040914Y-106900068D01*
X114040914Y-106900068D02*
X113921866Y-106900068D01*
X113921866Y-106900068D02*
X113826628Y-106923878D01*
X113826628Y-106923878D02*
X113779009Y-106947687D01*
X113779009Y-106947687D02*
X113755200Y-106971497D01*
X113755200Y-106971497D02*
X113731390Y-107019116D01*
X113731390Y-107019116D02*
X113731390Y-107066735D01*
X113731390Y-107066735D02*
X113755200Y-107114354D01*
X113755200Y-107114354D02*
X113779009Y-107138163D01*
X113779009Y-107138163D02*
X113826628Y-107161973D01*
X113826628Y-107161973D02*
X113921866Y-107185782D01*
X113921866Y-107185782D02*
X114040914Y-107185782D01*
X114040914Y-107185782D02*
X114136152Y-107161973D01*
X114136152Y-107161973D02*
X114183771Y-107138163D01*
X114183771Y-107138163D02*
X114207580Y-107114354D01*
X114207580Y-107114354D02*
X114231390Y-107066735D01*
X114064723Y-106471497D02*
X113731390Y-106471497D01*
X114255200Y-106590545D02*
X113898057Y-106709592D01*
X113898057Y-106709592D02*
X113898057Y-106400069D01*
X113731390Y-109662258D02*
X113731390Y-109947972D01*
X113731390Y-109805115D02*
X114231390Y-109805115D01*
X114231390Y-109805115D02*
X114159961Y-109852734D01*
X114159961Y-109852734D02*
X114112342Y-109900353D01*
X114112342Y-109900353D02*
X114088533Y-109947972D01*
X114231390Y-109352735D02*
X114231390Y-109305116D01*
X114231390Y-109305116D02*
X114207580Y-109257497D01*
X114207580Y-109257497D02*
X114183771Y-109233687D01*
X114183771Y-109233687D02*
X114136152Y-109209878D01*
X114136152Y-109209878D02*
X114040914Y-109186068D01*
X114040914Y-109186068D02*
X113921866Y-109186068D01*
X113921866Y-109186068D02*
X113826628Y-109209878D01*
X113826628Y-109209878D02*
X113779009Y-109233687D01*
X113779009Y-109233687D02*
X113755200Y-109257497D01*
X113755200Y-109257497D02*
X113731390Y-109305116D01*
X113731390Y-109305116D02*
X113731390Y-109352735D01*
X113731390Y-109352735D02*
X113755200Y-109400354D01*
X113755200Y-109400354D02*
X113779009Y-109424163D01*
X113779009Y-109424163D02*
X113826628Y-109447973D01*
X113826628Y-109447973D02*
X113921866Y-109471782D01*
X113921866Y-109471782D02*
X114040914Y-109471782D01*
X114040914Y-109471782D02*
X114136152Y-109447973D01*
X114136152Y-109447973D02*
X114183771Y-109424163D01*
X114183771Y-109424163D02*
X114207580Y-109400354D01*
X114207580Y-109400354D02*
X114231390Y-109352735D01*
X114231390Y-108733688D02*
X114231390Y-108971783D01*
X114231390Y-108971783D02*
X113993295Y-108995592D01*
X113993295Y-108995592D02*
X114017104Y-108971783D01*
X114017104Y-108971783D02*
X114040914Y-108924164D01*
X114040914Y-108924164D02*
X114040914Y-108805116D01*
X114040914Y-108805116D02*
X114017104Y-108757497D01*
X114017104Y-108757497D02*
X113993295Y-108733688D01*
X113993295Y-108733688D02*
X113945676Y-108709878D01*
X113945676Y-108709878D02*
X113826628Y-108709878D01*
X113826628Y-108709878D02*
X113779009Y-108733688D01*
X113779009Y-108733688D02*
X113755200Y-108757497D01*
X113755200Y-108757497D02*
X113731390Y-108805116D01*
X113731390Y-108805116D02*
X113731390Y-108924164D01*
X113731390Y-108924164D02*
X113755200Y-108971783D01*
X113755200Y-108971783D02*
X113779009Y-108995592D01*
X113731390Y-112329258D02*
X113731390Y-112614972D01*
X113731390Y-112472115D02*
X114231390Y-112472115D01*
X114231390Y-112472115D02*
X114159961Y-112519734D01*
X114159961Y-112519734D02*
X114112342Y-112567353D01*
X114112342Y-112567353D02*
X114088533Y-112614972D01*
X114231390Y-112019735D02*
X114231390Y-111972116D01*
X114231390Y-111972116D02*
X114207580Y-111924497D01*
X114207580Y-111924497D02*
X114183771Y-111900687D01*
X114183771Y-111900687D02*
X114136152Y-111876878D01*
X114136152Y-111876878D02*
X114040914Y-111853068D01*
X114040914Y-111853068D02*
X113921866Y-111853068D01*
X113921866Y-111853068D02*
X113826628Y-111876878D01*
X113826628Y-111876878D02*
X113779009Y-111900687D01*
X113779009Y-111900687D02*
X113755200Y-111924497D01*
X113755200Y-111924497D02*
X113731390Y-111972116D01*
X113731390Y-111972116D02*
X113731390Y-112019735D01*
X113731390Y-112019735D02*
X113755200Y-112067354D01*
X113755200Y-112067354D02*
X113779009Y-112091163D01*
X113779009Y-112091163D02*
X113826628Y-112114973D01*
X113826628Y-112114973D02*
X113921866Y-112138782D01*
X113921866Y-112138782D02*
X114040914Y-112138782D01*
X114040914Y-112138782D02*
X114136152Y-112114973D01*
X114136152Y-112114973D02*
X114183771Y-112091163D01*
X114183771Y-112091163D02*
X114207580Y-112067354D01*
X114207580Y-112067354D02*
X114231390Y-112019735D01*
X114231390Y-111424497D02*
X114231390Y-111519735D01*
X114231390Y-111519735D02*
X114207580Y-111567354D01*
X114207580Y-111567354D02*
X114183771Y-111591164D01*
X114183771Y-111591164D02*
X114112342Y-111638783D01*
X114112342Y-111638783D02*
X114017104Y-111662592D01*
X114017104Y-111662592D02*
X113826628Y-111662592D01*
X113826628Y-111662592D02*
X113779009Y-111638783D01*
X113779009Y-111638783D02*
X113755200Y-111614973D01*
X113755200Y-111614973D02*
X113731390Y-111567354D01*
X113731390Y-111567354D02*
X113731390Y-111472116D01*
X113731390Y-111472116D02*
X113755200Y-111424497D01*
X113755200Y-111424497D02*
X113779009Y-111400688D01*
X113779009Y-111400688D02*
X113826628Y-111376878D01*
X113826628Y-111376878D02*
X113945676Y-111376878D01*
X113945676Y-111376878D02*
X113993295Y-111400688D01*
X113993295Y-111400688D02*
X114017104Y-111424497D01*
X114017104Y-111424497D02*
X114040914Y-111472116D01*
X114040914Y-111472116D02*
X114040914Y-111567354D01*
X114040914Y-111567354D02*
X114017104Y-111614973D01*
X114017104Y-111614973D02*
X113993295Y-111638783D01*
X113993295Y-111638783D02*
X113945676Y-111662592D01*
X113731390Y-115258163D02*
X114231390Y-115258163D01*
X114231390Y-114924830D02*
X114231390Y-114877211D01*
X114231390Y-114877211D02*
X114207580Y-114829592D01*
X114207580Y-114829592D02*
X114183771Y-114805782D01*
X114183771Y-114805782D02*
X114136152Y-114781973D01*
X114136152Y-114781973D02*
X114040914Y-114758163D01*
X114040914Y-114758163D02*
X113921866Y-114758163D01*
X113921866Y-114758163D02*
X113826628Y-114781973D01*
X113826628Y-114781973D02*
X113779009Y-114805782D01*
X113779009Y-114805782D02*
X113755200Y-114829592D01*
X113755200Y-114829592D02*
X113731390Y-114877211D01*
X113731390Y-114877211D02*
X113731390Y-114924830D01*
X113731390Y-114924830D02*
X113755200Y-114972449D01*
X113755200Y-114972449D02*
X113779009Y-114996258D01*
X113779009Y-114996258D02*
X113826628Y-115020068D01*
X113826628Y-115020068D02*
X113921866Y-115043877D01*
X113921866Y-115043877D02*
X114040914Y-115043877D01*
X114040914Y-115043877D02*
X114136152Y-115020068D01*
X114136152Y-115020068D02*
X114183771Y-114996258D01*
X114183771Y-114996258D02*
X114207580Y-114972449D01*
X114207580Y-114972449D02*
X114231390Y-114924830D01*
X114231390Y-114591497D02*
X114231390Y-114258164D01*
X114231390Y-114258164D02*
X113731390Y-114472449D01*
X113858390Y-117790258D02*
X113858390Y-118075972D01*
X113858390Y-117933115D02*
X114358390Y-117933115D01*
X114358390Y-117933115D02*
X114286961Y-117980734D01*
X114286961Y-117980734D02*
X114239342Y-118028353D01*
X114239342Y-118028353D02*
X114215533Y-118075972D01*
X114358390Y-117480735D02*
X114358390Y-117433116D01*
X114358390Y-117433116D02*
X114334580Y-117385497D01*
X114334580Y-117385497D02*
X114310771Y-117361687D01*
X114310771Y-117361687D02*
X114263152Y-117337878D01*
X114263152Y-117337878D02*
X114167914Y-117314068D01*
X114167914Y-117314068D02*
X114048866Y-117314068D01*
X114048866Y-117314068D02*
X113953628Y-117337878D01*
X113953628Y-117337878D02*
X113906009Y-117361687D01*
X113906009Y-117361687D02*
X113882200Y-117385497D01*
X113882200Y-117385497D02*
X113858390Y-117433116D01*
X113858390Y-117433116D02*
X113858390Y-117480735D01*
X113858390Y-117480735D02*
X113882200Y-117528354D01*
X113882200Y-117528354D02*
X113906009Y-117552163D01*
X113906009Y-117552163D02*
X113953628Y-117575973D01*
X113953628Y-117575973D02*
X114048866Y-117599782D01*
X114048866Y-117599782D02*
X114167914Y-117599782D01*
X114167914Y-117599782D02*
X114263152Y-117575973D01*
X114263152Y-117575973D02*
X114310771Y-117552163D01*
X114310771Y-117552163D02*
X114334580Y-117528354D01*
X114334580Y-117528354D02*
X114358390Y-117480735D01*
X113858390Y-117075973D02*
X113858390Y-116980735D01*
X113858390Y-116980735D02*
X113882200Y-116933116D01*
X113882200Y-116933116D02*
X113906009Y-116909307D01*
X113906009Y-116909307D02*
X113977438Y-116861688D01*
X113977438Y-116861688D02*
X114072676Y-116837878D01*
X114072676Y-116837878D02*
X114263152Y-116837878D01*
X114263152Y-116837878D02*
X114310771Y-116861688D01*
X114310771Y-116861688D02*
X114334580Y-116885497D01*
X114334580Y-116885497D02*
X114358390Y-116933116D01*
X114358390Y-116933116D02*
X114358390Y-117028354D01*
X114358390Y-117028354D02*
X114334580Y-117075973D01*
X114334580Y-117075973D02*
X114310771Y-117099783D01*
X114310771Y-117099783D02*
X114263152Y-117123592D01*
X114263152Y-117123592D02*
X114144104Y-117123592D01*
X114144104Y-117123592D02*
X114096485Y-117099783D01*
X114096485Y-117099783D02*
X114072676Y-117075973D01*
X114072676Y-117075973D02*
X114048866Y-117028354D01*
X114048866Y-117028354D02*
X114048866Y-116933116D01*
X114048866Y-116933116D02*
X114072676Y-116885497D01*
X114072676Y-116885497D02*
X114096485Y-116861688D01*
X114096485Y-116861688D02*
X114144104Y-116837878D01*
D11*
G36*
X127546611Y-109146028D02*
G01*
X127289266Y-109146028D01*
X127229656Y-109116223D01*
X127204988Y-109091554D01*
X127175183Y-109031944D01*
X127175183Y-108936302D01*
X127204988Y-108876692D01*
X127229656Y-108852023D01*
X127289266Y-108822219D01*
X127546611Y-108822219D01*
X127546611Y-109146028D01*
G37*
G36*
X126546611Y-109146028D02*
G01*
X126289266Y-109146028D01*
X126229656Y-109116223D01*
X126204988Y-109091554D01*
X126175183Y-109031944D01*
X126175183Y-108936302D01*
X126204988Y-108876692D01*
X126229656Y-108852023D01*
X126289266Y-108822219D01*
X126546611Y-108822219D01*
X126546611Y-109146028D01*
G37*
G36*
X127975183Y-107536084D02*
G01*
X127717838Y-107536084D01*
X127658228Y-107506279D01*
X127633560Y-107481610D01*
X127603755Y-107422000D01*
X127603755Y-107326358D01*
X127633560Y-107266748D01*
X127658228Y-107242079D01*
X127717838Y-107212275D01*
X127975183Y-107212275D01*
X127975183Y-107536084D01*
G37*
G36*
X130143437Y-109933330D02*
G01*
X117864073Y-109933330D01*
X117864073Y-108797948D01*
X123072342Y-108797948D01*
X123072342Y-108836966D01*
X123087274Y-108873014D01*
X123114864Y-108900604D01*
X123150912Y-108915536D01*
X123189930Y-108915536D01*
X123225978Y-108900604D01*
X123241132Y-108888168D01*
X123272058Y-108857240D01*
X123377123Y-108822219D01*
X123439908Y-108822219D01*
X123544972Y-108857240D01*
X123612045Y-108924313D01*
X123647497Y-108995218D01*
X123689468Y-109163099D01*
X123689468Y-109281337D01*
X123647497Y-109449218D01*
X123612044Y-109520124D01*
X123544973Y-109587197D01*
X123439908Y-109622219D01*
X123377123Y-109622219D01*
X123272058Y-109587197D01*
X123241132Y-109556270D01*
X123225979Y-109543833D01*
X123189931Y-109528902D01*
X123150913Y-109528901D01*
X123114864Y-109543832D01*
X123087274Y-109571422D01*
X123072343Y-109607470D01*
X123072342Y-109646488D01*
X123087273Y-109682537D01*
X123099710Y-109697690D01*
X123147328Y-109745310D01*
X123162482Y-109757747D01*
X123165801Y-109759122D01*
X123168517Y-109761477D01*
X123186417Y-109769468D01*
X123329274Y-109817087D01*
X123338946Y-109819286D01*
X123341388Y-109820298D01*
X123344925Y-109820646D01*
X123348389Y-109821434D01*
X123351023Y-109821246D01*
X123360897Y-109822219D01*
X123456135Y-109822219D01*
X123466008Y-109821246D01*
X123468642Y-109821434D01*
X123472105Y-109820646D01*
X123475644Y-109820298D01*
X123478086Y-109819286D01*
X123487758Y-109817087D01*
X123630614Y-109769468D01*
X123648515Y-109761477D01*
X123651230Y-109759122D01*
X123654550Y-109757747D01*
X123669703Y-109745310D01*
X123764941Y-109650071D01*
X123771233Y-109642404D01*
X123773230Y-109640673D01*
X123775123Y-109637665D01*
X123777378Y-109634918D01*
X123778389Y-109632476D01*
X123783673Y-109624082D01*
X123831292Y-109528845D01*
X123831838Y-109527416D01*
X123832268Y-109526837D01*
X123835189Y-109518660D01*
X123838298Y-109510536D01*
X123838349Y-109509815D01*
X123838863Y-109508377D01*
X123856831Y-109436504D01*
X124070421Y-109436504D01*
X124070421Y-109531742D01*
X124072342Y-109551251D01*
X124073717Y-109554571D01*
X124073972Y-109558155D01*
X124080978Y-109576463D01*
X124128597Y-109671701D01*
X124133880Y-109680093D01*
X124134892Y-109682537D01*
X124137148Y-109685286D01*
X124139040Y-109688291D01*
X124141034Y-109690020D01*
X124147329Y-109697690D01*
X124194947Y-109745310D01*
X124202615Y-109751603D01*
X124204347Y-109753600D01*
X124207355Y-109755493D01*
X124210101Y-109757747D01*
X124212541Y-109758757D01*
X124220938Y-109764043D01*
X124316175Y-109811662D01*
X124334484Y-109818668D01*
X124338067Y-109818922D01*
X124341388Y-109820298D01*
X124360897Y-109822219D01*
X124598992Y-109822219D01*
X124608865Y-109821246D01*
X124611499Y-109821434D01*
X124614962Y-109820646D01*
X124618501Y-109820298D01*
X124620943Y-109819286D01*
X124630615Y-109817087D01*
X124773471Y-109769468D01*
X124791372Y-109761477D01*
X124820848Y-109735912D01*
X124838297Y-109701013D01*
X124841064Y-109662093D01*
X124828725Y-109625077D01*
X124803160Y-109595601D01*
X124768261Y-109578151D01*
X124729341Y-109575385D01*
X124710226Y-109579732D01*
X124582765Y-109622219D01*
X124384504Y-109622219D01*
X124324894Y-109592414D01*
X124300227Y-109567746D01*
X124270421Y-109508134D01*
X124270421Y-109460111D01*
X124282225Y-109436504D01*
X125022802Y-109436504D01*
X125022802Y-109531742D01*
X125024723Y-109551251D01*
X125026098Y-109554571D01*
X125026353Y-109558155D01*
X125033359Y-109576463D01*
X125080978Y-109671701D01*
X125086261Y-109680093D01*
X125087273Y-109682537D01*
X125089529Y-109685286D01*
X125091421Y-109688291D01*
X125093415Y-109690020D01*
X125099710Y-109697690D01*
X125147328Y-109745310D01*
X125154996Y-109751603D01*
X125156728Y-109753600D01*
X125159736Y-109755493D01*
X125162482Y-109757747D01*
X125164922Y-109758757D01*
X125173319Y-109764043D01*
X125268556Y-109811662D01*
X125286865Y-109818668D01*
X125290448Y-109818922D01*
X125293769Y-109820298D01*
X125313278Y-109822219D01*
X125551373Y-109822219D01*
X125561246Y-109821246D01*
X125563880Y-109821434D01*
X125567343Y-109820646D01*
X125570882Y-109820298D01*
X125573324Y-109819286D01*
X125582996Y-109817087D01*
X125725852Y-109769468D01*
X125743753Y-109761477D01*
X125773229Y-109735912D01*
X125790678Y-109701013D01*
X125793445Y-109662093D01*
X125781106Y-109625077D01*
X125755541Y-109595601D01*
X125720642Y-109578151D01*
X125681722Y-109575385D01*
X125662607Y-109579732D01*
X125535146Y-109622219D01*
X125336885Y-109622219D01*
X125277275Y-109592414D01*
X125252608Y-109567746D01*
X125222802Y-109508134D01*
X125222802Y-109460111D01*
X125252607Y-109400501D01*
X125277275Y-109375832D01*
X125348182Y-109340379D01*
X125528007Y-109295423D01*
X125529444Y-109294909D01*
X125530167Y-109294858D01*
X125538291Y-109291749D01*
X125546468Y-109288828D01*
X125547048Y-109288397D01*
X125548475Y-109287852D01*
X125643713Y-109240233D01*
X125652109Y-109234947D01*
X125654549Y-109233937D01*
X125657295Y-109231683D01*
X125660303Y-109229790D01*
X125662032Y-109227795D01*
X125669703Y-109221501D01*
X125717321Y-109173882D01*
X125723613Y-109166215D01*
X125725611Y-109164483D01*
X125727504Y-109161474D01*
X125729758Y-109158729D01*
X125730768Y-109156288D01*
X125736054Y-109147892D01*
X125783673Y-109052655D01*
X125790679Y-109034346D01*
X125790933Y-109030762D01*
X125792309Y-109027442D01*
X125794230Y-109007933D01*
X125794230Y-108912695D01*
X125975183Y-108912695D01*
X125975183Y-109055552D01*
X125977104Y-109075061D01*
X125978479Y-109078381D01*
X125978734Y-109081965D01*
X125985740Y-109100273D01*
X126033359Y-109195511D01*
X126038644Y-109203907D01*
X126039655Y-109206347D01*
X126041908Y-109209093D01*
X126043802Y-109212101D01*
X126045796Y-109213830D01*
X126052091Y-109221501D01*
X126099710Y-109269119D01*
X126107376Y-109275411D01*
X126109109Y-109277409D01*
X126112117Y-109279302D01*
X126114863Y-109281556D01*
X126117303Y-109282566D01*
X126125700Y-109287852D01*
X126220937Y-109335471D01*
X126239246Y-109342477D01*
X126242829Y-109342731D01*
X126246150Y-109344107D01*
X126265659Y-109346028D01*
X126546611Y-109346028D01*
X126546611Y-109722219D01*
X126548532Y-109741728D01*
X126563464Y-109777776D01*
X126591054Y-109805366D01*
X126627102Y-109820298D01*
X126666120Y-109820298D01*
X126702168Y-109805366D01*
X126729758Y-109777776D01*
X126744690Y-109741728D01*
X126746611Y-109722219D01*
X126746611Y-108912695D01*
X126975183Y-108912695D01*
X126975183Y-109055552D01*
X126977104Y-109075061D01*
X126978479Y-109078381D01*
X126978734Y-109081965D01*
X126985740Y-109100273D01*
X127033359Y-109195511D01*
X127038644Y-109203907D01*
X127039655Y-109206347D01*
X127041908Y-109209093D01*
X127043802Y-109212101D01*
X127045796Y-109213830D01*
X127052091Y-109221501D01*
X127099710Y-109269119D01*
X127107376Y-109275411D01*
X127109109Y-109277409D01*
X127112117Y-109279302D01*
X127114863Y-109281556D01*
X127117303Y-109282566D01*
X127125700Y-109287852D01*
X127220937Y-109335471D01*
X127223227Y-109336347D01*
X126993260Y-109664873D01*
X126983646Y-109681957D01*
X126975206Y-109720051D01*
X126981987Y-109758476D01*
X127002956Y-109791381D01*
X127034921Y-109813756D01*
X127073015Y-109822196D01*
X127111440Y-109815415D01*
X127144345Y-109794446D01*
X127157106Y-109779565D01*
X127460581Y-109346028D01*
X127546611Y-109346028D01*
X127546611Y-109722219D01*
X127548532Y-109741728D01*
X127563464Y-109777776D01*
X127591054Y-109805366D01*
X127627102Y-109820298D01*
X127666120Y-109820298D01*
X127702168Y-109805366D01*
X127729758Y-109777776D01*
X127744690Y-109741728D01*
X127746611Y-109722219D01*
X127746611Y-108722219D01*
X127744690Y-108702710D01*
X127729758Y-108666662D01*
X127702168Y-108639072D01*
X127666120Y-108624140D01*
X127646611Y-108622219D01*
X127265659Y-108622219D01*
X127246150Y-108624140D01*
X127242829Y-108625515D01*
X127239246Y-108625770D01*
X127220937Y-108632776D01*
X127125700Y-108680395D01*
X127117303Y-108685680D01*
X127114863Y-108686691D01*
X127112117Y-108688944D01*
X127109109Y-108690838D01*
X127107376Y-108692835D01*
X127099710Y-108699128D01*
X127052091Y-108746746D01*
X127045796Y-108754416D01*
X127043802Y-108756146D01*
X127041908Y-108759153D01*
X127039655Y-108761900D01*
X127038644Y-108764339D01*
X127033359Y-108772736D01*
X126985740Y-108867974D01*
X126978734Y-108886282D01*
X126978479Y-108889865D01*
X126977104Y-108893186D01*
X126975183Y-108912695D01*
X126746611Y-108912695D01*
X126746611Y-108722219D01*
X126744690Y-108702710D01*
X126729758Y-108666662D01*
X126702168Y-108639072D01*
X126666120Y-108624140D01*
X126646611Y-108622219D01*
X126265659Y-108622219D01*
X126246150Y-108624140D01*
X126242829Y-108625515D01*
X126239246Y-108625770D01*
X126220937Y-108632776D01*
X126125700Y-108680395D01*
X126117303Y-108685680D01*
X126114863Y-108686691D01*
X126112117Y-108688944D01*
X126109109Y-108690838D01*
X126107376Y-108692835D01*
X126099710Y-108699128D01*
X126052091Y-108746746D01*
X126045796Y-108754416D01*
X126043802Y-108756146D01*
X126041908Y-108759153D01*
X126039655Y-108761900D01*
X126038644Y-108764339D01*
X126033359Y-108772736D01*
X125985740Y-108867974D01*
X125978734Y-108886282D01*
X125978479Y-108889865D01*
X125977104Y-108893186D01*
X125975183Y-108912695D01*
X125794230Y-108912695D01*
X125792309Y-108893186D01*
X125790933Y-108889865D01*
X125790679Y-108886282D01*
X125783673Y-108867973D01*
X125736054Y-108772736D01*
X125730768Y-108764339D01*
X125729758Y-108761899D01*
X125727504Y-108759153D01*
X125725611Y-108756145D01*
X125723613Y-108754412D01*
X125717321Y-108746746D01*
X125669703Y-108699127D01*
X125662032Y-108692832D01*
X125660303Y-108690838D01*
X125657295Y-108688944D01*
X125654549Y-108686691D01*
X125652109Y-108685680D01*
X125643713Y-108680395D01*
X125548475Y-108632776D01*
X125530167Y-108625770D01*
X125526583Y-108625515D01*
X125523263Y-108624140D01*
X125503754Y-108622219D01*
X125265659Y-108622219D01*
X125255785Y-108623191D01*
X125253151Y-108623004D01*
X125249687Y-108623791D01*
X125246150Y-108624140D01*
X125243708Y-108625151D01*
X125234036Y-108627351D01*
X125091179Y-108674970D01*
X125073279Y-108682961D01*
X125043803Y-108708526D01*
X125026353Y-108743425D01*
X125023587Y-108782345D01*
X125035925Y-108819361D01*
X125061490Y-108848837D01*
X125096389Y-108866287D01*
X125135309Y-108869053D01*
X125154425Y-108864706D01*
X125281885Y-108822219D01*
X125480147Y-108822219D01*
X125539756Y-108852024D01*
X125564425Y-108876692D01*
X125594230Y-108936302D01*
X125594230Y-108984326D01*
X125564425Y-109043935D01*
X125539756Y-109068603D01*
X125468849Y-109104057D01*
X125289024Y-109149014D01*
X125287585Y-109149527D01*
X125286865Y-109149579D01*
X125278740Y-109152687D01*
X125270564Y-109155609D01*
X125269984Y-109156038D01*
X125268556Y-109156585D01*
X125173319Y-109204204D01*
X125164922Y-109209489D01*
X125162482Y-109210500D01*
X125159736Y-109212753D01*
X125156728Y-109214647D01*
X125154995Y-109216644D01*
X125147329Y-109222937D01*
X125099710Y-109270555D01*
X125093415Y-109278225D01*
X125091421Y-109279955D01*
X125089527Y-109282962D01*
X125087274Y-109285709D01*
X125086263Y-109288148D01*
X125080978Y-109296545D01*
X125033359Y-109391783D01*
X125026353Y-109410091D01*
X125026098Y-109413674D01*
X125024723Y-109416995D01*
X125022802Y-109436504D01*
X124282225Y-109436504D01*
X124300226Y-109400501D01*
X124324894Y-109375832D01*
X124395801Y-109340379D01*
X124575626Y-109295423D01*
X124577063Y-109294909D01*
X124577786Y-109294858D01*
X124585910Y-109291749D01*
X124594087Y-109288828D01*
X124594667Y-109288397D01*
X124596094Y-109287852D01*
X124691332Y-109240233D01*
X124699728Y-109234947D01*
X124702168Y-109233937D01*
X124704914Y-109231683D01*
X124707922Y-109229790D01*
X124709651Y-109227795D01*
X124717322Y-109221501D01*
X124764940Y-109173882D01*
X124771232Y-109166215D01*
X124773230Y-109164483D01*
X124775123Y-109161474D01*
X124777377Y-109158729D01*
X124778387Y-109156288D01*
X124783673Y-109147892D01*
X124831292Y-109052655D01*
X124838298Y-109034346D01*
X124838552Y-109030762D01*
X124839928Y-109027442D01*
X124841849Y-109007933D01*
X124841849Y-108912695D01*
X124839928Y-108893186D01*
X124838552Y-108889865D01*
X124838298Y-108886282D01*
X124831292Y-108867973D01*
X124783673Y-108772736D01*
X124778387Y-108764339D01*
X124777377Y-108761899D01*
X124775123Y-108759153D01*
X124773230Y-108756145D01*
X124771232Y-108754412D01*
X124764940Y-108746746D01*
X124717322Y-108699127D01*
X124709651Y-108692832D01*
X124707922Y-108690838D01*
X124704914Y-108688944D01*
X124702168Y-108686691D01*
X124699728Y-108685680D01*
X124691332Y-108680395D01*
X124596094Y-108632776D01*
X124577786Y-108625770D01*
X124574202Y-108625515D01*
X124570882Y-108624140D01*
X124551373Y-108622219D01*
X124313278Y-108622219D01*
X124303404Y-108623191D01*
X124300770Y-108623004D01*
X124297306Y-108623791D01*
X124293769Y-108624140D01*
X124291327Y-108625151D01*
X124281655Y-108627351D01*
X124138798Y-108674970D01*
X124120898Y-108682961D01*
X124091422Y-108708526D01*
X124073972Y-108743425D01*
X124071206Y-108782345D01*
X124083544Y-108819361D01*
X124109109Y-108848837D01*
X124144008Y-108866287D01*
X124182928Y-108869053D01*
X124202044Y-108864706D01*
X124329504Y-108822219D01*
X124527766Y-108822219D01*
X124587375Y-108852024D01*
X124612044Y-108876692D01*
X124641849Y-108936302D01*
X124641849Y-108984326D01*
X124612044Y-109043935D01*
X124587375Y-109068603D01*
X124516468Y-109104057D01*
X124336643Y-109149014D01*
X124335204Y-109149527D01*
X124334484Y-109149579D01*
X124326359Y-109152687D01*
X124318183Y-109155609D01*
X124317603Y-109156038D01*
X124316175Y-109156585D01*
X124220938Y-109204204D01*
X124212541Y-109209489D01*
X124210101Y-109210500D01*
X124207355Y-109212753D01*
X124204347Y-109214647D01*
X124202614Y-109216644D01*
X124194948Y-109222937D01*
X124147329Y-109270555D01*
X124141034Y-109278225D01*
X124139040Y-109279955D01*
X124137146Y-109282962D01*
X124134893Y-109285709D01*
X124133882Y-109288148D01*
X124128597Y-109296545D01*
X124080978Y-109391783D01*
X124073972Y-109410091D01*
X124073717Y-109413674D01*
X124072342Y-109416995D01*
X124070421Y-109436504D01*
X123856831Y-109436504D01*
X123886482Y-109317901D01*
X123886982Y-109314519D01*
X123887547Y-109313156D01*
X123888270Y-109305805D01*
X123889350Y-109298508D01*
X123889132Y-109297049D01*
X123889468Y-109293647D01*
X123889468Y-109150790D01*
X123889132Y-109147387D01*
X123889350Y-109145929D01*
X123888270Y-109138631D01*
X123887547Y-109131281D01*
X123886982Y-109129917D01*
X123886482Y-109126536D01*
X123838863Y-108936060D01*
X123838349Y-108934621D01*
X123838298Y-108933901D01*
X123835189Y-108925776D01*
X123832268Y-108917600D01*
X123831838Y-108917020D01*
X123831292Y-108915592D01*
X123783673Y-108820355D01*
X123778386Y-108811956D01*
X123777377Y-108809519D01*
X123775125Y-108806775D01*
X123773230Y-108803764D01*
X123771232Y-108802031D01*
X123764941Y-108794365D01*
X123669703Y-108699127D01*
X123654549Y-108686691D01*
X123651230Y-108685316D01*
X123648515Y-108682961D01*
X123630614Y-108674970D01*
X123487758Y-108627351D01*
X123478086Y-108625151D01*
X123475644Y-108624140D01*
X123472105Y-108623791D01*
X123468642Y-108623004D01*
X123466008Y-108623191D01*
X123456135Y-108622219D01*
X123360897Y-108622219D01*
X123351023Y-108623191D01*
X123348389Y-108623004D01*
X123344925Y-108623791D01*
X123341388Y-108624140D01*
X123338946Y-108625151D01*
X123329274Y-108627351D01*
X123186417Y-108674970D01*
X123168517Y-108682961D01*
X123165801Y-108685316D01*
X123162482Y-108686691D01*
X123147329Y-108699128D01*
X123099710Y-108746746D01*
X123087274Y-108761900D01*
X123072342Y-108797948D01*
X117864073Y-108797948D01*
X117864073Y-107112275D01*
X117975184Y-107112275D01*
X117975184Y-108112275D01*
X117977105Y-108131784D01*
X117992037Y-108167832D01*
X118019627Y-108195422D01*
X118055675Y-108210354D01*
X118094693Y-108210354D01*
X118130741Y-108195422D01*
X118158331Y-108167832D01*
X118173263Y-108131784D01*
X118175184Y-108112275D01*
X118175184Y-107112275D01*
X118451375Y-107112275D01*
X118451375Y-108112275D01*
X118451869Y-108117292D01*
X118451619Y-108119260D01*
X118452313Y-108121806D01*
X118453296Y-108131784D01*
X118458387Y-108144074D01*
X118461886Y-108156903D01*
X118465788Y-108161941D01*
X118468228Y-108167832D01*
X118477633Y-108177237D01*
X118485776Y-108187752D01*
X118491310Y-108190914D01*
X118495818Y-108195422D01*
X118508103Y-108200510D01*
X118519653Y-108207111D01*
X118525977Y-108207914D01*
X118531866Y-108210354D01*
X118545167Y-108210354D01*
X118558360Y-108212031D01*
X118564509Y-108210354D01*
X118570884Y-108210354D01*
X118583174Y-108205262D01*
X118596003Y-108201764D01*
X118601041Y-108197861D01*
X118606932Y-108195422D01*
X118616337Y-108186016D01*
X118626852Y-108177874D01*
X118632655Y-108169698D01*
X118634522Y-108167832D01*
X118635280Y-108165999D01*
X118638199Y-108161889D01*
X119022803Y-107488831D01*
X119022803Y-108112275D01*
X119024724Y-108131784D01*
X119039656Y-108167832D01*
X119067246Y-108195422D01*
X119103294Y-108210354D01*
X119142312Y-108210354D01*
X119178360Y-108195422D01*
X119205950Y-108167832D01*
X119220882Y-108131784D01*
X119222803Y-108112275D01*
X119222803Y-107112275D01*
X119498993Y-107112275D01*
X119498993Y-108112275D01*
X119500914Y-108131784D01*
X119515846Y-108167832D01*
X119543436Y-108195422D01*
X119579484Y-108210354D01*
X119618502Y-108210354D01*
X119654550Y-108195422D01*
X119682140Y-108167832D01*
X119697072Y-108131784D01*
X119698993Y-108112275D01*
X119698993Y-107112275D01*
X119975184Y-107112275D01*
X119975184Y-108112275D01*
X119977105Y-108131784D01*
X119992037Y-108167832D01*
X120019627Y-108195422D01*
X120055675Y-108210354D01*
X120094693Y-108210354D01*
X120130741Y-108195422D01*
X120158331Y-108167832D01*
X120173263Y-108131784D01*
X120175184Y-108112275D01*
X120175184Y-107563031D01*
X120317899Y-107868849D01*
X120322131Y-107875994D01*
X120323011Y-107878412D01*
X120324576Y-107880121D01*
X120327890Y-107885715D01*
X120339100Y-107895981D01*
X120349362Y-107907187D01*
X120353387Y-107909065D01*
X120356665Y-107912067D01*
X120370947Y-107917260D01*
X120384720Y-107923688D01*
X120389159Y-107923883D01*
X120393334Y-107925401D01*
X120408517Y-107924733D01*
X120423700Y-107925401D01*
X120427873Y-107923883D01*
X120432315Y-107923688D01*
X120446099Y-107917255D01*
X120460369Y-107912066D01*
X120463642Y-107909068D01*
X120467672Y-107907188D01*
X120477941Y-107895973D01*
X120489144Y-107885715D01*
X120492455Y-107880124D01*
X120494024Y-107878412D01*
X120494904Y-107875990D01*
X120499135Y-107868849D01*
X120641850Y-107563030D01*
X120641850Y-108112275D01*
X120643771Y-108131784D01*
X120658703Y-108167832D01*
X120686293Y-108195422D01*
X120722341Y-108210354D01*
X120761359Y-108210354D01*
X120797407Y-108195422D01*
X120824997Y-108167832D01*
X120839929Y-108131784D01*
X120841850Y-108112275D01*
X120841850Y-107711813D01*
X121119962Y-107711813D01*
X121119962Y-107750831D01*
X121134894Y-107786879D01*
X121162484Y-107814469D01*
X121198532Y-107829401D01*
X121218041Y-107831322D01*
X121979945Y-107831322D01*
X121999454Y-107829401D01*
X122035502Y-107814469D01*
X122063092Y-107786879D01*
X122078024Y-107750831D01*
X122078024Y-107711813D01*
X122066380Y-107683703D01*
X122308517Y-107683703D01*
X122308517Y-107921798D01*
X122310438Y-107941307D01*
X122311813Y-107944627D01*
X122312068Y-107948211D01*
X122319074Y-107966519D01*
X122366693Y-108061757D01*
X122371976Y-108070149D01*
X122372988Y-108072593D01*
X122375244Y-108075342D01*
X122377136Y-108078347D01*
X122379130Y-108080076D01*
X122385425Y-108087746D01*
X122433043Y-108135366D01*
X122440711Y-108141659D01*
X122442443Y-108143656D01*
X122445451Y-108145549D01*
X122448197Y-108147803D01*
X122450637Y-108148813D01*
X122459034Y-108154099D01*
X122554271Y-108201718D01*
X122572580Y-108208724D01*
X122576163Y-108208978D01*
X122579484Y-108210354D01*
X122598993Y-108212275D01*
X122884707Y-108212275D01*
X122904216Y-108210354D01*
X122907536Y-108208978D01*
X122911120Y-108208724D01*
X122929428Y-108201718D01*
X123024666Y-108154099D01*
X123033061Y-108148814D01*
X123035503Y-108147803D01*
X123038250Y-108145547D01*
X123041256Y-108143656D01*
X123042986Y-108141661D01*
X123050656Y-108135366D01*
X123098275Y-108087746D01*
X123110712Y-108072593D01*
X123125643Y-108036544D01*
X123125642Y-107997526D01*
X123110711Y-107961478D01*
X123083120Y-107933888D01*
X123047072Y-107918957D01*
X123008054Y-107918958D01*
X122972006Y-107933889D01*
X122956852Y-107946326D01*
X122920709Y-107982469D01*
X122861100Y-108012275D01*
X122622600Y-108012275D01*
X122562990Y-107982470D01*
X122538323Y-107957802D01*
X122508517Y-107898190D01*
X122508517Y-107707310D01*
X122538322Y-107647700D01*
X122562990Y-107623031D01*
X122622600Y-107593227D01*
X122741850Y-107593227D01*
X122752167Y-107592211D01*
X122754792Y-107592386D01*
X122756599Y-107591774D01*
X122761359Y-107591306D01*
X122776362Y-107585091D01*
X122791754Y-107579886D01*
X122794293Y-107577663D01*
X122797407Y-107576374D01*
X122808884Y-107564896D01*
X122821118Y-107554192D01*
X122822613Y-107551167D01*
X122824997Y-107548784D01*
X122831211Y-107533782D01*
X122838414Y-107519217D01*
X122838638Y-107515851D01*
X122839929Y-107512736D01*
X122839929Y-107496487D01*
X122841009Y-107480285D01*
X122839929Y-107477091D01*
X122839929Y-107473718D01*
X122833713Y-107458712D01*
X122828509Y-107443324D01*
X122825727Y-107439433D01*
X122824997Y-107437670D01*
X122823137Y-107435810D01*
X122817108Y-107427377D01*
X122628894Y-107212275D01*
X123027564Y-107212275D01*
X123047073Y-107210354D01*
X123083121Y-107195422D01*
X123090539Y-107188004D01*
X123262819Y-107188004D01*
X123262819Y-107227022D01*
X123277751Y-107263070D01*
X123305341Y-107290660D01*
X123341389Y-107305592D01*
X123380407Y-107305592D01*
X123416455Y-107290660D01*
X123431609Y-107278224D01*
X123462535Y-107247296D01*
X123567600Y-107212275D01*
X123630385Y-107212275D01*
X123735449Y-107247296D01*
X123802522Y-107314369D01*
X123837974Y-107385274D01*
X123879945Y-107553155D01*
X123879945Y-107671393D01*
X123837974Y-107839274D01*
X123802521Y-107910180D01*
X123735450Y-107977253D01*
X123630385Y-108012275D01*
X123567600Y-108012275D01*
X123462535Y-107977253D01*
X123431609Y-107946326D01*
X123416456Y-107933889D01*
X123380408Y-107918958D01*
X123341390Y-107918957D01*
X123305341Y-107933888D01*
X123277751Y-107961478D01*
X123262820Y-107997526D01*
X123262819Y-108036544D01*
X123277750Y-108072593D01*
X123290187Y-108087746D01*
X123337805Y-108135366D01*
X123352959Y-108147803D01*
X123356278Y-108149178D01*
X123358994Y-108151533D01*
X123376894Y-108159524D01*
X123519751Y-108207143D01*
X123529423Y-108209342D01*
X123531865Y-108210354D01*
X123535402Y-108210702D01*
X123538866Y-108211490D01*
X123541500Y-108211302D01*
X123551374Y-108212275D01*
X123646612Y-108212275D01*
X123656485Y-108211302D01*
X123659119Y-108211490D01*
X123662582Y-108210702D01*
X123666121Y-108210354D01*
X123668563Y-108209342D01*
X123678235Y-108207143D01*
X123821091Y-108159524D01*
X123838992Y-108151533D01*
X123841707Y-108149178D01*
X123845027Y-108147803D01*
X123860180Y-108135366D01*
X123955418Y-108040127D01*
X123961710Y-108032460D01*
X123963707Y-108030729D01*
X123965600Y-108027721D01*
X123967855Y-108024974D01*
X123968866Y-108022532D01*
X123974150Y-108014138D01*
X124021769Y-107918901D01*
X124022315Y-107917472D01*
X124022745Y-107916893D01*
X124025666Y-107908716D01*
X124028775Y-107900592D01*
X124028826Y-107899871D01*
X124029340Y-107898433D01*
X124075995Y-107711813D01*
X124310438Y-107711813D01*
X124310438Y-107750831D01*
X124325370Y-107786879D01*
X124352960Y-107814469D01*
X124389008Y-107829401D01*
X124408517Y-107831322D01*
X125170421Y-107831322D01*
X125189930Y-107829401D01*
X125225978Y-107814469D01*
X125253568Y-107786879D01*
X125268500Y-107750831D01*
X125268500Y-107711813D01*
X125253568Y-107675765D01*
X125225978Y-107648175D01*
X125189930Y-107633243D01*
X125170421Y-107631322D01*
X124408517Y-107631322D01*
X124389008Y-107633243D01*
X124352960Y-107648175D01*
X124325370Y-107675765D01*
X124310438Y-107711813D01*
X124075995Y-107711813D01*
X124076959Y-107707957D01*
X124077459Y-107704575D01*
X124078024Y-107703212D01*
X124078747Y-107695861D01*
X124079827Y-107688564D01*
X124079609Y-107687105D01*
X124079945Y-107683703D01*
X124079945Y-107540846D01*
X124079609Y-107537443D01*
X124079827Y-107535985D01*
X124078747Y-107528687D01*
X124078024Y-107521337D01*
X124077459Y-107519973D01*
X124076959Y-107516592D01*
X124029340Y-107326116D01*
X124028826Y-107324677D01*
X124028775Y-107323957D01*
X124025666Y-107315832D01*
X124022745Y-107307656D01*
X124022315Y-107307076D01*
X124021769Y-107305648D01*
X124020320Y-107302751D01*
X125498993Y-107302751D01*
X125498993Y-107397989D01*
X125499965Y-107407862D01*
X125499778Y-107410496D01*
X125500565Y-107413959D01*
X125500914Y-107417498D01*
X125501925Y-107419940D01*
X125504125Y-107429612D01*
X125551744Y-107572468D01*
X125559735Y-107590369D01*
X125562090Y-107593084D01*
X125563465Y-107596403D01*
X125575901Y-107611557D01*
X125976618Y-108012275D01*
X125598993Y-108012275D01*
X125579484Y-108014196D01*
X125543436Y-108029128D01*
X125515846Y-108056718D01*
X125500914Y-108092766D01*
X125500914Y-108131784D01*
X125515846Y-108167832D01*
X125543436Y-108195422D01*
X125579484Y-108210354D01*
X125598993Y-108212275D01*
X126218040Y-108212275D01*
X126237549Y-108210354D01*
X126273597Y-108195422D01*
X126301187Y-108167832D01*
X126316119Y-108131784D01*
X126316119Y-108092766D01*
X126301187Y-108056718D01*
X126288751Y-108041564D01*
X125930891Y-107683703D01*
X126451374Y-107683703D01*
X126451374Y-107921798D01*
X126453295Y-107941307D01*
X126454670Y-107944627D01*
X126454925Y-107948211D01*
X126461931Y-107966519D01*
X126509550Y-108061757D01*
X126514833Y-108070149D01*
X126515845Y-108072593D01*
X126518101Y-108075342D01*
X126519993Y-108078347D01*
X126521987Y-108080076D01*
X126528282Y-108087746D01*
X126575900Y-108135366D01*
X126583568Y-108141659D01*
X126585300Y-108143656D01*
X126588308Y-108145549D01*
X126591054Y-108147803D01*
X126593494Y-108148813D01*
X126601891Y-108154099D01*
X126697128Y-108201718D01*
X126715437Y-108208724D01*
X126719020Y-108208978D01*
X126722341Y-108210354D01*
X126741850Y-108212275D01*
X127027564Y-108212275D01*
X127047073Y-108210354D01*
X127050393Y-108208978D01*
X127053977Y-108208724D01*
X127072285Y-108201718D01*
X127167523Y-108154099D01*
X127175918Y-108148814D01*
X127178360Y-108147803D01*
X127181107Y-108145547D01*
X127184113Y-108143656D01*
X127185843Y-108141661D01*
X127193513Y-108135366D01*
X127241132Y-108087746D01*
X127253569Y-108072593D01*
X127268500Y-108036544D01*
X127268499Y-107997526D01*
X127253568Y-107961478D01*
X127225977Y-107933888D01*
X127189929Y-107918957D01*
X127150911Y-107918958D01*
X127114863Y-107933889D01*
X127099709Y-107946326D01*
X127063566Y-107982469D01*
X127003957Y-108012275D01*
X126765457Y-108012275D01*
X126705847Y-107982470D01*
X126681180Y-107957802D01*
X126651374Y-107898190D01*
X126651374Y-107707310D01*
X126681179Y-107647700D01*
X126705847Y-107623031D01*
X126765457Y-107593227D01*
X126884707Y-107593227D01*
X126895024Y-107592211D01*
X126897649Y-107592386D01*
X126899456Y-107591774D01*
X126904216Y-107591306D01*
X126919219Y-107585091D01*
X126934611Y-107579886D01*
X126937150Y-107577663D01*
X126940264Y-107576374D01*
X126951741Y-107564896D01*
X126963975Y-107554192D01*
X126965470Y-107551167D01*
X126967854Y-107548784D01*
X126974068Y-107533782D01*
X126981271Y-107519217D01*
X126981495Y-107515851D01*
X126982786Y-107512736D01*
X126982786Y-107496487D01*
X126983866Y-107480285D01*
X126982786Y-107477091D01*
X126982786Y-107473718D01*
X126976570Y-107458712D01*
X126971366Y-107443324D01*
X126968584Y-107439433D01*
X126967854Y-107437670D01*
X126965994Y-107435810D01*
X126959965Y-107427377D01*
X126850917Y-107302751D01*
X127403755Y-107302751D01*
X127403755Y-107445608D01*
X127405676Y-107465117D01*
X127407051Y-107468437D01*
X127407306Y-107472021D01*
X127414312Y-107490329D01*
X127461931Y-107585567D01*
X127467216Y-107593963D01*
X127468227Y-107596403D01*
X127470480Y-107599149D01*
X127472374Y-107602157D01*
X127474368Y-107603886D01*
X127480663Y-107611557D01*
X127528282Y-107659175D01*
X127535948Y-107665467D01*
X127537681Y-107667465D01*
X127540689Y-107669358D01*
X127543435Y-107671612D01*
X127545875Y-107672622D01*
X127554272Y-107677908D01*
X127649509Y-107725527D01*
X127667818Y-107732533D01*
X127671401Y-107732787D01*
X127674722Y-107734163D01*
X127694231Y-107736084D01*
X127975183Y-107736084D01*
X127975183Y-108112275D01*
X127977104Y-108131784D01*
X127992036Y-108167832D01*
X128019626Y-108195422D01*
X128055674Y-108210354D01*
X128094692Y-108210354D01*
X128130740Y-108195422D01*
X128158330Y-108167832D01*
X128173262Y-108131784D01*
X128175183Y-108112275D01*
X128175183Y-107826560D01*
X128403755Y-107826560D01*
X128403755Y-107921798D01*
X128405676Y-107941307D01*
X128407051Y-107944627D01*
X128407306Y-107948211D01*
X128414312Y-107966519D01*
X128461931Y-108061757D01*
X128467214Y-108070149D01*
X128468226Y-108072593D01*
X128470482Y-108075342D01*
X128472374Y-108078347D01*
X128474368Y-108080076D01*
X128480663Y-108087746D01*
X128528281Y-108135366D01*
X128535949Y-108141659D01*
X128537681Y-108143656D01*
X128540689Y-108145549D01*
X128543435Y-108147803D01*
X128545875Y-108148813D01*
X128554272Y-108154099D01*
X128649509Y-108201718D01*
X128667818Y-108208724D01*
X128671401Y-108208978D01*
X128674722Y-108210354D01*
X128694231Y-108212275D01*
X128932326Y-108212275D01*
X128942199Y-108211302D01*
X128944833Y-108211490D01*
X128948296Y-108210702D01*
X128951835Y-108210354D01*
X128954277Y-108209342D01*
X128963949Y-108207143D01*
X129106805Y-108159524D01*
X129124706Y-108151533D01*
X129154182Y-108125968D01*
X129171631Y-108091069D01*
X129174398Y-108052149D01*
X129162059Y-108015133D01*
X129136494Y-107985657D01*
X129101595Y-107968207D01*
X129062675Y-107965441D01*
X129043560Y-107969788D01*
X128916099Y-108012275D01*
X128717838Y-108012275D01*
X128658228Y-107982470D01*
X128633561Y-107957802D01*
X128603755Y-107898190D01*
X128603755Y-107850167D01*
X128633560Y-107790557D01*
X128658228Y-107765888D01*
X128729135Y-107730435D01*
X128908960Y-107685479D01*
X128910397Y-107684965D01*
X128911120Y-107684914D01*
X128919244Y-107681805D01*
X128927421Y-107678884D01*
X128928001Y-107678453D01*
X128929428Y-107677908D01*
X129024666Y-107630289D01*
X129033062Y-107625003D01*
X129035502Y-107623993D01*
X129038248Y-107621739D01*
X129041256Y-107619846D01*
X129042985Y-107617851D01*
X129050656Y-107611557D01*
X129098274Y-107563938D01*
X129104566Y-107556271D01*
X129106564Y-107554539D01*
X129108457Y-107551530D01*
X129110711Y-107548785D01*
X129111721Y-107546344D01*
X129117007Y-107537948D01*
X129164626Y-107442711D01*
X129171632Y-107424402D01*
X129171886Y-107420818D01*
X129173262Y-107417498D01*
X129175183Y-107397989D01*
X129175183Y-107302751D01*
X129173262Y-107283242D01*
X129171886Y-107279921D01*
X129171632Y-107276338D01*
X129164626Y-107258029D01*
X129117007Y-107162792D01*
X129111721Y-107154395D01*
X129110711Y-107151955D01*
X129108457Y-107149209D01*
X129106564Y-107146201D01*
X129104566Y-107144468D01*
X129098274Y-107136802D01*
X129054239Y-107092766D01*
X129358057Y-107092766D01*
X129358057Y-107131784D01*
X129372989Y-107167832D01*
X129400579Y-107195422D01*
X129436627Y-107210354D01*
X129456136Y-107212275D01*
X129832326Y-107212275D01*
X129832326Y-107488465D01*
X129598993Y-107488465D01*
X129579484Y-107490386D01*
X129543436Y-107505318D01*
X129515846Y-107532908D01*
X129500914Y-107568956D01*
X129500914Y-107607974D01*
X129515846Y-107644022D01*
X129543436Y-107671612D01*
X129579484Y-107686544D01*
X129598993Y-107688465D01*
X129832326Y-107688465D01*
X129832326Y-108012275D01*
X129456136Y-108012275D01*
X129436627Y-108014196D01*
X129400579Y-108029128D01*
X129372989Y-108056718D01*
X129358057Y-108092766D01*
X129358057Y-108131784D01*
X129372989Y-108167832D01*
X129400579Y-108195422D01*
X129436627Y-108210354D01*
X129456136Y-108212275D01*
X129932326Y-108212275D01*
X129951835Y-108210354D01*
X129987883Y-108195422D01*
X130015473Y-108167832D01*
X130030405Y-108131784D01*
X130032326Y-108112275D01*
X130032326Y-107112275D01*
X130030405Y-107092766D01*
X130015473Y-107056718D01*
X129987883Y-107029128D01*
X129951835Y-107014196D01*
X129932326Y-107012275D01*
X129456136Y-107012275D01*
X129436627Y-107014196D01*
X129400579Y-107029128D01*
X129372989Y-107056718D01*
X129358057Y-107092766D01*
X129054239Y-107092766D01*
X129050656Y-107089183D01*
X129042985Y-107082888D01*
X129041256Y-107080894D01*
X129038248Y-107079000D01*
X129035502Y-107076747D01*
X129033062Y-107075736D01*
X129024666Y-107070451D01*
X128929428Y-107022832D01*
X128911120Y-107015826D01*
X128907536Y-107015571D01*
X128904216Y-107014196D01*
X128884707Y-107012275D01*
X128646612Y-107012275D01*
X128636738Y-107013247D01*
X128634104Y-107013060D01*
X128630640Y-107013847D01*
X128627103Y-107014196D01*
X128624661Y-107015207D01*
X128614989Y-107017407D01*
X128472132Y-107065026D01*
X128454232Y-107073017D01*
X128424756Y-107098582D01*
X128407306Y-107133481D01*
X128404540Y-107172401D01*
X128416878Y-107209417D01*
X128442443Y-107238893D01*
X128477342Y-107256343D01*
X128516262Y-107259109D01*
X128535378Y-107254762D01*
X128662838Y-107212275D01*
X128861100Y-107212275D01*
X128920709Y-107242080D01*
X128945378Y-107266748D01*
X128975183Y-107326358D01*
X128975183Y-107374382D01*
X128945378Y-107433991D01*
X128920709Y-107458659D01*
X128849802Y-107494113D01*
X128669977Y-107539070D01*
X128668538Y-107539583D01*
X128667818Y-107539635D01*
X128659693Y-107542743D01*
X128651517Y-107545665D01*
X128650937Y-107546094D01*
X128649509Y-107546641D01*
X128554272Y-107594260D01*
X128545875Y-107599545D01*
X128543435Y-107600556D01*
X128540689Y-107602809D01*
X128537681Y-107604703D01*
X128535948Y-107606700D01*
X128528282Y-107612993D01*
X128480663Y-107660611D01*
X128474368Y-107668281D01*
X128472374Y-107670011D01*
X128470480Y-107673018D01*
X128468227Y-107675765D01*
X128467216Y-107678204D01*
X128461931Y-107686601D01*
X128414312Y-107781839D01*
X128407306Y-107800147D01*
X128407051Y-107803730D01*
X128405676Y-107807051D01*
X128403755Y-107826560D01*
X128175183Y-107826560D01*
X128175183Y-107112275D01*
X128173262Y-107092766D01*
X128158330Y-107056718D01*
X128130740Y-107029128D01*
X128094692Y-107014196D01*
X128075183Y-107012275D01*
X127694231Y-107012275D01*
X127674722Y-107014196D01*
X127671401Y-107015571D01*
X127667818Y-107015826D01*
X127649509Y-107022832D01*
X127554272Y-107070451D01*
X127545875Y-107075736D01*
X127543435Y-107076747D01*
X127540689Y-107079000D01*
X127537681Y-107080894D01*
X127535948Y-107082891D01*
X127528282Y-107089184D01*
X127480663Y-107136802D01*
X127474368Y-107144472D01*
X127472374Y-107146202D01*
X127470480Y-107149209D01*
X127468227Y-107151956D01*
X127467216Y-107154395D01*
X127461931Y-107162792D01*
X127414312Y-107258030D01*
X127407306Y-107276338D01*
X127407051Y-107279921D01*
X127405676Y-107283242D01*
X127403755Y-107302751D01*
X126850917Y-107302751D01*
X126771751Y-107212275D01*
X127170421Y-107212275D01*
X127189930Y-107210354D01*
X127225978Y-107195422D01*
X127253568Y-107167832D01*
X127268500Y-107131784D01*
X127268500Y-107092766D01*
X127253568Y-107056718D01*
X127225978Y-107029128D01*
X127189930Y-107014196D01*
X127170421Y-107012275D01*
X126551374Y-107012275D01*
X126541056Y-107013290D01*
X126538432Y-107013116D01*
X126536624Y-107013727D01*
X126531865Y-107014196D01*
X126516859Y-107020411D01*
X126501471Y-107025616D01*
X126498931Y-107027837D01*
X126495817Y-107029128D01*
X126484332Y-107040612D01*
X126472107Y-107051310D01*
X126470611Y-107054333D01*
X126468227Y-107056718D01*
X126462010Y-107071724D01*
X126454810Y-107086285D01*
X126454585Y-107089650D01*
X126453295Y-107092766D01*
X126453295Y-107109014D01*
X126452215Y-107125217D01*
X126453295Y-107128410D01*
X126453295Y-107131784D01*
X126459510Y-107146789D01*
X126464715Y-107162178D01*
X126467496Y-107166068D01*
X126468227Y-107167832D01*
X126470086Y-107169691D01*
X126476116Y-107178125D01*
X126680737Y-107411979D01*
X126601891Y-107451403D01*
X126593494Y-107456688D01*
X126591054Y-107457699D01*
X126588308Y-107459952D01*
X126585300Y-107461846D01*
X126583567Y-107463843D01*
X126575901Y-107470136D01*
X126528282Y-107517754D01*
X126521987Y-107525424D01*
X126519993Y-107527154D01*
X126518099Y-107530161D01*
X126515846Y-107532908D01*
X126514835Y-107535347D01*
X126509550Y-107543744D01*
X126461931Y-107638982D01*
X126454925Y-107657290D01*
X126454670Y-107660873D01*
X126453295Y-107664194D01*
X126451374Y-107683703D01*
X125930891Y-107683703D01*
X125734014Y-107486826D01*
X125698993Y-107381762D01*
X125698993Y-107326358D01*
X125728798Y-107266748D01*
X125753466Y-107242079D01*
X125813076Y-107212275D01*
X126003957Y-107212275D01*
X126063566Y-107242080D01*
X126099710Y-107278223D01*
X126114863Y-107290660D01*
X126150912Y-107305591D01*
X126189930Y-107305591D01*
X126225978Y-107290660D01*
X126253568Y-107263070D01*
X126268499Y-107227022D01*
X126268499Y-107188004D01*
X126253568Y-107151955D01*
X126241131Y-107136802D01*
X126193513Y-107089183D01*
X126185842Y-107082888D01*
X126184113Y-107080894D01*
X126181105Y-107079000D01*
X126178359Y-107076747D01*
X126175919Y-107075736D01*
X126167523Y-107070451D01*
X126072285Y-107022832D01*
X126053977Y-107015826D01*
X126050393Y-107015571D01*
X126047073Y-107014196D01*
X126027564Y-107012275D01*
X125789469Y-107012275D01*
X125769960Y-107014196D01*
X125766639Y-107015571D01*
X125763056Y-107015826D01*
X125744747Y-107022832D01*
X125649510Y-107070451D01*
X125641113Y-107075736D01*
X125638673Y-107076747D01*
X125635927Y-107079000D01*
X125632919Y-107080894D01*
X125631186Y-107082891D01*
X125623520Y-107089184D01*
X125575901Y-107136802D01*
X125569606Y-107144472D01*
X125567612Y-107146202D01*
X125565718Y-107149209D01*
X125563465Y-107151956D01*
X125562454Y-107154395D01*
X125557169Y-107162792D01*
X125509550Y-107258030D01*
X125502544Y-107276338D01*
X125502289Y-107279921D01*
X125500914Y-107283242D01*
X125498993Y-107302751D01*
X124020320Y-107302751D01*
X123974150Y-107210411D01*
X123968863Y-107202012D01*
X123967854Y-107199575D01*
X123965602Y-107196831D01*
X123963707Y-107193820D01*
X123961709Y-107192087D01*
X123955418Y-107184421D01*
X123860180Y-107089183D01*
X123845026Y-107076747D01*
X123841707Y-107075372D01*
X123838992Y-107073017D01*
X123821091Y-107065026D01*
X123678235Y-107017407D01*
X123668563Y-107015207D01*
X123666121Y-107014196D01*
X123662582Y-107013847D01*
X123659119Y-107013060D01*
X123656485Y-107013247D01*
X123646612Y-107012275D01*
X123551374Y-107012275D01*
X123541500Y-107013247D01*
X123538866Y-107013060D01*
X123535402Y-107013847D01*
X123531865Y-107014196D01*
X123529423Y-107015207D01*
X123519751Y-107017407D01*
X123376894Y-107065026D01*
X123358994Y-107073017D01*
X123356278Y-107075372D01*
X123352959Y-107076747D01*
X123337806Y-107089184D01*
X123290187Y-107136802D01*
X123277751Y-107151956D01*
X123262819Y-107188004D01*
X123090539Y-107188004D01*
X123110711Y-107167832D01*
X123125643Y-107131784D01*
X123125643Y-107092766D01*
X123110711Y-107056718D01*
X123083121Y-107029128D01*
X123047073Y-107014196D01*
X123027564Y-107012275D01*
X122408517Y-107012275D01*
X122398199Y-107013290D01*
X122395575Y-107013116D01*
X122393767Y-107013727D01*
X122389008Y-107014196D01*
X122374002Y-107020411D01*
X122358614Y-107025616D01*
X122356074Y-107027837D01*
X122352960Y-107029128D01*
X122341475Y-107040612D01*
X122329250Y-107051310D01*
X122327754Y-107054333D01*
X122325370Y-107056718D01*
X122319153Y-107071724D01*
X122311953Y-107086285D01*
X122311728Y-107089650D01*
X122310438Y-107092766D01*
X122310438Y-107109014D01*
X122309358Y-107125217D01*
X122310438Y-107128410D01*
X122310438Y-107131784D01*
X122316653Y-107146789D01*
X122321858Y-107162178D01*
X122324639Y-107166068D01*
X122325370Y-107167832D01*
X122327229Y-107169691D01*
X122333259Y-107178125D01*
X122537880Y-107411979D01*
X122459034Y-107451403D01*
X122450637Y-107456688D01*
X122448197Y-107457699D01*
X122445451Y-107459952D01*
X122442443Y-107461846D01*
X122440710Y-107463843D01*
X122433044Y-107470136D01*
X122385425Y-107517754D01*
X122379130Y-107525424D01*
X122377136Y-107527154D01*
X122375242Y-107530161D01*
X122372989Y-107532908D01*
X122371978Y-107535347D01*
X122366693Y-107543744D01*
X122319074Y-107638982D01*
X122312068Y-107657290D01*
X122311813Y-107660873D01*
X122310438Y-107664194D01*
X122308517Y-107683703D01*
X122066380Y-107683703D01*
X122063092Y-107675765D01*
X122035502Y-107648175D01*
X121999454Y-107633243D01*
X121979945Y-107631322D01*
X121218041Y-107631322D01*
X121198532Y-107633243D01*
X121162484Y-107648175D01*
X121134894Y-107675765D01*
X121119962Y-107711813D01*
X120841850Y-107711813D01*
X120841850Y-107112275D01*
X120840587Y-107099451D01*
X120840691Y-107097092D01*
X120840230Y-107095824D01*
X120839929Y-107092766D01*
X120833288Y-107076735D01*
X120827357Y-107060423D01*
X120825850Y-107058777D01*
X120824997Y-107056718D01*
X120812735Y-107044456D01*
X120801005Y-107031647D01*
X120798981Y-107030702D01*
X120797407Y-107029128D01*
X120781391Y-107022493D01*
X120765648Y-107015147D01*
X120763418Y-107015049D01*
X120761359Y-107014196D01*
X120744007Y-107014196D01*
X120726667Y-107013434D01*
X120724571Y-107014196D01*
X120722341Y-107014196D01*
X120706310Y-107020836D01*
X120689998Y-107026768D01*
X120688352Y-107028274D01*
X120686293Y-107029128D01*
X120674025Y-107041395D01*
X120661223Y-107053120D01*
X120659656Y-107055764D01*
X120658703Y-107056718D01*
X120657799Y-107058899D01*
X120651232Y-107069986D01*
X120408516Y-107590089D01*
X120165802Y-107069986D01*
X120159234Y-107058899D01*
X120158331Y-107056718D01*
X120157377Y-107055764D01*
X120155811Y-107053120D01*
X120143014Y-107041401D01*
X120130741Y-107029128D01*
X120128679Y-107028274D01*
X120127036Y-107026769D01*
X120110734Y-107020840D01*
X120094693Y-107014196D01*
X120092462Y-107014196D01*
X120090367Y-107013434D01*
X120073027Y-107014196D01*
X120055675Y-107014196D01*
X120053615Y-107015049D01*
X120051387Y-107015147D01*
X120035656Y-107022488D01*
X120019627Y-107029128D01*
X120018050Y-107030704D01*
X120016029Y-107031648D01*
X120004310Y-107044444D01*
X119992037Y-107056718D01*
X119991183Y-107058779D01*
X119989678Y-107060423D01*
X119983749Y-107076724D01*
X119977105Y-107092766D01*
X119976803Y-107095824D01*
X119976343Y-107097092D01*
X119976446Y-107099451D01*
X119975184Y-107112275D01*
X119698993Y-107112275D01*
X119697072Y-107092766D01*
X119682140Y-107056718D01*
X119654550Y-107029128D01*
X119618502Y-107014196D01*
X119579484Y-107014196D01*
X119543436Y-107029128D01*
X119515846Y-107056718D01*
X119500914Y-107092766D01*
X119498993Y-107112275D01*
X119222803Y-107112275D01*
X119222308Y-107107257D01*
X119222559Y-107105290D01*
X119221864Y-107102743D01*
X119220882Y-107092766D01*
X119215792Y-107080479D01*
X119212293Y-107067647D01*
X119208388Y-107062605D01*
X119205950Y-107056718D01*
X119196546Y-107047314D01*
X119188402Y-107036798D01*
X119182867Y-107033635D01*
X119178360Y-107029128D01*
X119166074Y-107024039D01*
X119154525Y-107017439D01*
X119148200Y-107016635D01*
X119142312Y-107014196D01*
X119129012Y-107014196D01*
X119115819Y-107012519D01*
X119109670Y-107014196D01*
X119103294Y-107014196D01*
X119091007Y-107019285D01*
X119078175Y-107022785D01*
X119073133Y-107026689D01*
X119067246Y-107029128D01*
X119057842Y-107038531D01*
X119047326Y-107046676D01*
X119041522Y-107054851D01*
X119039656Y-107056718D01*
X119038897Y-107058550D01*
X119035979Y-107062661D01*
X118651375Y-107735718D01*
X118651375Y-107112275D01*
X118649454Y-107092766D01*
X118634522Y-107056718D01*
X118606932Y-107029128D01*
X118570884Y-107014196D01*
X118531866Y-107014196D01*
X118495818Y-107029128D01*
X118468228Y-107056718D01*
X118453296Y-107092766D01*
X118451375Y-107112275D01*
X118175184Y-107112275D01*
X118173263Y-107092766D01*
X118158331Y-107056718D01*
X118130741Y-107029128D01*
X118094693Y-107014196D01*
X118055675Y-107014196D01*
X118019627Y-107029128D01*
X117992037Y-107056718D01*
X117977105Y-107092766D01*
X117975184Y-107112275D01*
X117864073Y-107112275D01*
X117864073Y-106901164D01*
X130143437Y-106901164D01*
X130143437Y-109933330D01*
G37*
D12*
X136217819Y-94324333D02*
X135741628Y-93991000D01*
X136217819Y-93752905D02*
X135217819Y-93752905D01*
X135217819Y-93752905D02*
X135217819Y-94133857D01*
X135217819Y-94133857D02*
X135265438Y-94229095D01*
X135265438Y-94229095D02*
X135313057Y-94276714D01*
X135313057Y-94276714D02*
X135408295Y-94324333D01*
X135408295Y-94324333D02*
X135551152Y-94324333D01*
X135551152Y-94324333D02*
X135646390Y-94276714D01*
X135646390Y-94276714D02*
X135694009Y-94229095D01*
X135694009Y-94229095D02*
X135741628Y-94133857D01*
X135741628Y-94133857D02*
X135741628Y-93752905D01*
X135551152Y-95181476D02*
X136217819Y-95181476D01*
X135170200Y-94943381D02*
X135884485Y-94705286D01*
X135884485Y-94705286D02*
X135884485Y-95324333D01*
X137646580Y-95464333D02*
X137694200Y-95416714D01*
X137694200Y-95416714D02*
X137741819Y-95273857D01*
X137741819Y-95273857D02*
X137741819Y-95178619D01*
X137741819Y-95178619D02*
X137694200Y-95035762D01*
X137694200Y-95035762D02*
X137598961Y-94940524D01*
X137598961Y-94940524D02*
X137503723Y-94892905D01*
X137503723Y-94892905D02*
X137313247Y-94845286D01*
X137313247Y-94845286D02*
X137170390Y-94845286D01*
X137170390Y-94845286D02*
X136979914Y-94892905D01*
X136979914Y-94892905D02*
X136884676Y-94940524D01*
X136884676Y-94940524D02*
X136789438Y-95035762D01*
X136789438Y-95035762D02*
X136741819Y-95178619D01*
X136741819Y-95178619D02*
X136741819Y-95273857D01*
X136741819Y-95273857D02*
X136789438Y-95416714D01*
X136789438Y-95416714D02*
X136837057Y-95464333D01*
X137170390Y-96035762D02*
X137122771Y-95940524D01*
X137122771Y-95940524D02*
X137075152Y-95892905D01*
X137075152Y-95892905D02*
X136979914Y-95845286D01*
X136979914Y-95845286D02*
X136932295Y-95845286D01*
X136932295Y-95845286D02*
X136837057Y-95892905D01*
X136837057Y-95892905D02*
X136789438Y-95940524D01*
X136789438Y-95940524D02*
X136741819Y-96035762D01*
X136741819Y-96035762D02*
X136741819Y-96226238D01*
X136741819Y-96226238D02*
X136789438Y-96321476D01*
X136789438Y-96321476D02*
X136837057Y-96369095D01*
X136837057Y-96369095D02*
X136932295Y-96416714D01*
X136932295Y-96416714D02*
X136979914Y-96416714D01*
X136979914Y-96416714D02*
X137075152Y-96369095D01*
X137075152Y-96369095D02*
X137122771Y-96321476D01*
X137122771Y-96321476D02*
X137170390Y-96226238D01*
X137170390Y-96226238D02*
X137170390Y-96035762D01*
X137170390Y-96035762D02*
X137218009Y-95940524D01*
X137218009Y-95940524D02*
X137265628Y-95892905D01*
X137265628Y-95892905D02*
X137360866Y-95845286D01*
X137360866Y-95845286D02*
X137551342Y-95845286D01*
X137551342Y-95845286D02*
X137646580Y-95892905D01*
X137646580Y-95892905D02*
X137694200Y-95940524D01*
X137694200Y-95940524D02*
X137741819Y-96035762D01*
X137741819Y-96035762D02*
X137741819Y-96226238D01*
X137741819Y-96226238D02*
X137694200Y-96321476D01*
X137694200Y-96321476D02*
X137646580Y-96369095D01*
X137646580Y-96369095D02*
X137551342Y-96416714D01*
X137551342Y-96416714D02*
X137360866Y-96416714D01*
X137360866Y-96416714D02*
X137265628Y-96369095D01*
X137265628Y-96369095D02*
X137218009Y-96321476D01*
X137218009Y-96321476D02*
X137170390Y-96226238D01*
X137326666Y-90402580D02*
X137374285Y-90450200D01*
X137374285Y-90450200D02*
X137517142Y-90497819D01*
X137517142Y-90497819D02*
X137612380Y-90497819D01*
X137612380Y-90497819D02*
X137755237Y-90450200D01*
X137755237Y-90450200D02*
X137850475Y-90354961D01*
X137850475Y-90354961D02*
X137898094Y-90259723D01*
X137898094Y-90259723D02*
X137945713Y-90069247D01*
X137945713Y-90069247D02*
X137945713Y-89926390D01*
X137945713Y-89926390D02*
X137898094Y-89735914D01*
X137898094Y-89735914D02*
X137850475Y-89640676D01*
X137850475Y-89640676D02*
X137755237Y-89545438D01*
X137755237Y-89545438D02*
X137612380Y-89497819D01*
X137612380Y-89497819D02*
X137517142Y-89497819D01*
X137517142Y-89497819D02*
X137374285Y-89545438D01*
X137374285Y-89545438D02*
X137326666Y-89593057D01*
X136993332Y-89497819D02*
X136326666Y-89497819D01*
X136326666Y-89497819D02*
X136755237Y-90497819D01*
X139126190Y-95469628D02*
X139126190Y-95945819D01*
X139459523Y-94945819D02*
X139126190Y-95469628D01*
X139126190Y-95469628D02*
X138792857Y-94945819D01*
X137935714Y-95945819D02*
X138507142Y-95945819D01*
X138221428Y-95945819D02*
X138221428Y-94945819D01*
X138221428Y-94945819D02*
X138316666Y-95088676D01*
X138316666Y-95088676D02*
X138411904Y-95183914D01*
X138411904Y-95183914D02*
X138507142Y-95231533D01*
%TO.C,Y1*%
D13*
X139725000Y-93366000D02*
X139725000Y-92016000D01*
X137975000Y-93366000D02*
X137975000Y-92016000D01*
%TD*%
M02*
