%TF.GenerationSoftware,KiCad,Pcbnew,10.0.0*%
%TF.CreationDate,2026-04-14T08:10:59-07:00*%
%TF.ProjectId,ESP32,45535033-322e-46b6-9963-61645f706362,rev?*%
%TF.SameCoordinates,Original*%
%TF.FileFunction,Legend,Top*%
%TF.FilePolarity,Positive*%
%FSLAX46Y46*%
G04 Gerber Fmt 4.6, Leading zero omitted, Abs format (unit mm)*
G04 Created by KiCad (PCBNEW 10.0.0) date 2026-04-14 08:10:59*
%MOMM*%
%LPD*%
G01*
G04 APERTURE LIST*
%ADD10C,0.125000*%
%ADD11C,0.250000*%
%ADD12C,0.200000*%
%ADD13C,0.150000*%
%ADD14C,0.120000*%
G04 APERTURE END LIST*
D10*
X137028833Y-98858716D02*
X137028833Y-98477764D01*
X137219309Y-98668240D02*
X136838357Y-98668240D01*
X136719309Y-98001573D02*
X136719309Y-98239668D01*
X136719309Y-98239668D02*
X136957404Y-98263477D01*
X136957404Y-98263477D02*
X136933595Y-98239668D01*
X136933595Y-98239668D02*
X136909785Y-98192049D01*
X136909785Y-98192049D02*
X136909785Y-98073001D01*
X136909785Y-98073001D02*
X136933595Y-98025382D01*
X136933595Y-98025382D02*
X136957404Y-98001573D01*
X136957404Y-98001573D02*
X137005023Y-97977763D01*
X137005023Y-97977763D02*
X137124071Y-97977763D01*
X137124071Y-97977763D02*
X137171690Y-98001573D01*
X137171690Y-98001573D02*
X137195500Y-98025382D01*
X137195500Y-98025382D02*
X137219309Y-98073001D01*
X137219309Y-98073001D02*
X137219309Y-98192049D01*
X137219309Y-98192049D02*
X137195500Y-98239668D01*
X137195500Y-98239668D02*
X137171690Y-98263477D01*
X136719309Y-97834906D02*
X137219309Y-97668240D01*
X137219309Y-97668240D02*
X136719309Y-97501573D01*
X136616119Y-101644811D02*
X136592309Y-101692430D01*
X136592309Y-101692430D02*
X136592309Y-101763859D01*
X136592309Y-101763859D02*
X136616119Y-101835287D01*
X136616119Y-101835287D02*
X136663738Y-101882906D01*
X136663738Y-101882906D02*
X136711357Y-101906716D01*
X136711357Y-101906716D02*
X136806595Y-101930525D01*
X136806595Y-101930525D02*
X136878023Y-101930525D01*
X136878023Y-101930525D02*
X136973261Y-101906716D01*
X136973261Y-101906716D02*
X137020880Y-101882906D01*
X137020880Y-101882906D02*
X137068500Y-101835287D01*
X137068500Y-101835287D02*
X137092309Y-101763859D01*
X137092309Y-101763859D02*
X137092309Y-101716240D01*
X137092309Y-101716240D02*
X137068500Y-101644811D01*
X137068500Y-101644811D02*
X137044690Y-101621002D01*
X137044690Y-101621002D02*
X136878023Y-101621002D01*
X136878023Y-101621002D02*
X136878023Y-101716240D01*
X137092309Y-101406716D02*
X136592309Y-101406716D01*
X136592309Y-101406716D02*
X137092309Y-101121002D01*
X137092309Y-101121002D02*
X136592309Y-101121002D01*
X137092309Y-100882906D02*
X136592309Y-100882906D01*
X136592309Y-100882906D02*
X136592309Y-100763858D01*
X136592309Y-100763858D02*
X136616119Y-100692430D01*
X136616119Y-100692430D02*
X136663738Y-100644811D01*
X136663738Y-100644811D02*
X136711357Y-100621001D01*
X136711357Y-100621001D02*
X136806595Y-100597192D01*
X136806595Y-100597192D02*
X136878023Y-100597192D01*
X136878023Y-100597192D02*
X136973261Y-100621001D01*
X136973261Y-100621001D02*
X137020880Y-100644811D01*
X137020880Y-100644811D02*
X137068500Y-100692430D01*
X137068500Y-100692430D02*
X137092309Y-100763858D01*
X137092309Y-100763858D02*
X137092309Y-100882906D01*
X137092309Y-104192716D02*
X136592309Y-104192716D01*
X136592309Y-103859383D02*
X136592309Y-103764145D01*
X136592309Y-103764145D02*
X136616119Y-103716526D01*
X136616119Y-103716526D02*
X136663738Y-103668907D01*
X136663738Y-103668907D02*
X136758976Y-103645097D01*
X136758976Y-103645097D02*
X136925642Y-103645097D01*
X136925642Y-103645097D02*
X137020880Y-103668907D01*
X137020880Y-103668907D02*
X137068500Y-103716526D01*
X137068500Y-103716526D02*
X137092309Y-103764145D01*
X137092309Y-103764145D02*
X137092309Y-103859383D01*
X137092309Y-103859383D02*
X137068500Y-103907002D01*
X137068500Y-103907002D02*
X137020880Y-103954621D01*
X137020880Y-103954621D02*
X136925642Y-103978430D01*
X136925642Y-103978430D02*
X136758976Y-103978430D01*
X136758976Y-103978430D02*
X136663738Y-103954621D01*
X136663738Y-103954621D02*
X136616119Y-103907002D01*
X136616119Y-103907002D02*
X136592309Y-103859383D01*
X136592309Y-103478430D02*
X136592309Y-103168906D01*
X136592309Y-103168906D02*
X136782785Y-103335573D01*
X136782785Y-103335573D02*
X136782785Y-103264144D01*
X136782785Y-103264144D02*
X136806595Y-103216525D01*
X136806595Y-103216525D02*
X136830404Y-103192716D01*
X136830404Y-103192716D02*
X136878023Y-103168906D01*
X136878023Y-103168906D02*
X136997071Y-103168906D01*
X136997071Y-103168906D02*
X137044690Y-103192716D01*
X137044690Y-103192716D02*
X137068500Y-103216525D01*
X137068500Y-103216525D02*
X137092309Y-103264144D01*
X137092309Y-103264144D02*
X137092309Y-103407001D01*
X137092309Y-103407001D02*
X137068500Y-103454620D01*
X137068500Y-103454620D02*
X137044690Y-103478430D01*
X136616119Y-106978811D02*
X136592309Y-107026430D01*
X136592309Y-107026430D02*
X136592309Y-107097859D01*
X136592309Y-107097859D02*
X136616119Y-107169287D01*
X136616119Y-107169287D02*
X136663738Y-107216906D01*
X136663738Y-107216906D02*
X136711357Y-107240716D01*
X136711357Y-107240716D02*
X136806595Y-107264525D01*
X136806595Y-107264525D02*
X136878023Y-107264525D01*
X136878023Y-107264525D02*
X136973261Y-107240716D01*
X136973261Y-107240716D02*
X137020880Y-107216906D01*
X137020880Y-107216906D02*
X137068500Y-107169287D01*
X137068500Y-107169287D02*
X137092309Y-107097859D01*
X137092309Y-107097859D02*
X137092309Y-107050240D01*
X137092309Y-107050240D02*
X137068500Y-106978811D01*
X137068500Y-106978811D02*
X137044690Y-106955002D01*
X137044690Y-106955002D02*
X136878023Y-106955002D01*
X136878023Y-106955002D02*
X136878023Y-107050240D01*
X137092309Y-106740716D02*
X136592309Y-106740716D01*
X136592309Y-106740716D02*
X137092309Y-106455002D01*
X137092309Y-106455002D02*
X136592309Y-106455002D01*
X137092309Y-106216906D02*
X136592309Y-106216906D01*
X136592309Y-106216906D02*
X136592309Y-106097858D01*
X136592309Y-106097858D02*
X136616119Y-106026430D01*
X136616119Y-106026430D02*
X136663738Y-105978811D01*
X136663738Y-105978811D02*
X136711357Y-105955001D01*
X136711357Y-105955001D02*
X136806595Y-105931192D01*
X136806595Y-105931192D02*
X136878023Y-105931192D01*
X136878023Y-105931192D02*
X136973261Y-105955001D01*
X136973261Y-105955001D02*
X137020880Y-105978811D01*
X137020880Y-105978811D02*
X137068500Y-106026430D01*
X137068500Y-106026430D02*
X137092309Y-106097858D01*
X137092309Y-106097858D02*
X137092309Y-106216906D01*
X137092309Y-109241002D02*
X136854214Y-109407668D01*
X137092309Y-109526716D02*
X136592309Y-109526716D01*
X136592309Y-109526716D02*
X136592309Y-109336240D01*
X136592309Y-109336240D02*
X136616119Y-109288621D01*
X136616119Y-109288621D02*
X136639928Y-109264811D01*
X136639928Y-109264811D02*
X136687547Y-109241002D01*
X136687547Y-109241002D02*
X136758976Y-109241002D01*
X136758976Y-109241002D02*
X136806595Y-109264811D01*
X136806595Y-109264811D02*
X136830404Y-109288621D01*
X136830404Y-109288621D02*
X136854214Y-109336240D01*
X136854214Y-109336240D02*
X136854214Y-109526716D01*
X136592309Y-109074335D02*
X137092309Y-108741002D01*
X136592309Y-108741002D02*
X137092309Y-109074335D01*
X137092309Y-108550526D02*
X136592309Y-108550526D01*
X136592309Y-108550526D02*
X136592309Y-108431478D01*
X136592309Y-108431478D02*
X136616119Y-108360050D01*
X136616119Y-108360050D02*
X136663738Y-108312431D01*
X136663738Y-108312431D02*
X136711357Y-108288621D01*
X136711357Y-108288621D02*
X136806595Y-108264812D01*
X136806595Y-108264812D02*
X136878023Y-108264812D01*
X136878023Y-108264812D02*
X136973261Y-108288621D01*
X136973261Y-108288621D02*
X137020880Y-108312431D01*
X137020880Y-108312431D02*
X137068500Y-108360050D01*
X137068500Y-108360050D02*
X137092309Y-108431478D01*
X137092309Y-108431478D02*
X137092309Y-108550526D01*
X136592309Y-112138144D02*
X136592309Y-111852430D01*
X137092309Y-111995287D02*
X136592309Y-111995287D01*
X136592309Y-111733383D02*
X137092309Y-111400050D01*
X136592309Y-111400050D02*
X137092309Y-111733383D01*
X137092309Y-111209574D02*
X136592309Y-111209574D01*
X136592309Y-111209574D02*
X136592309Y-111090526D01*
X136592309Y-111090526D02*
X136616119Y-111019098D01*
X136616119Y-111019098D02*
X136663738Y-110971479D01*
X136663738Y-110971479D02*
X136711357Y-110947669D01*
X136711357Y-110947669D02*
X136806595Y-110923860D01*
X136806595Y-110923860D02*
X136878023Y-110923860D01*
X136878023Y-110923860D02*
X136973261Y-110947669D01*
X136973261Y-110947669D02*
X137020880Y-110971479D01*
X137020880Y-110971479D02*
X137068500Y-111019098D01*
X137068500Y-111019098D02*
X137092309Y-111090526D01*
X137092309Y-111090526D02*
X137092309Y-111209574D01*
X136616119Y-114471811D02*
X136592309Y-114519430D01*
X136592309Y-114519430D02*
X136592309Y-114590859D01*
X136592309Y-114590859D02*
X136616119Y-114662287D01*
X136616119Y-114662287D02*
X136663738Y-114709906D01*
X136663738Y-114709906D02*
X136711357Y-114733716D01*
X136711357Y-114733716D02*
X136806595Y-114757525D01*
X136806595Y-114757525D02*
X136878023Y-114757525D01*
X136878023Y-114757525D02*
X136973261Y-114733716D01*
X136973261Y-114733716D02*
X137020880Y-114709906D01*
X137020880Y-114709906D02*
X137068500Y-114662287D01*
X137068500Y-114662287D02*
X137092309Y-114590859D01*
X137092309Y-114590859D02*
X137092309Y-114543240D01*
X137092309Y-114543240D02*
X137068500Y-114471811D01*
X137068500Y-114471811D02*
X137044690Y-114448002D01*
X137044690Y-114448002D02*
X136878023Y-114448002D01*
X136878023Y-114448002D02*
X136878023Y-114543240D01*
X137092309Y-114233716D02*
X136592309Y-114233716D01*
X136592309Y-114233716D02*
X137092309Y-113948002D01*
X137092309Y-113948002D02*
X136592309Y-113948002D01*
X137092309Y-113709906D02*
X136592309Y-113709906D01*
X136592309Y-113709906D02*
X136592309Y-113590858D01*
X136592309Y-113590858D02*
X136616119Y-113519430D01*
X136616119Y-113519430D02*
X136663738Y-113471811D01*
X136663738Y-113471811D02*
X136711357Y-113448001D01*
X136711357Y-113448001D02*
X136806595Y-113424192D01*
X136806595Y-113424192D02*
X136878023Y-113424192D01*
X136878023Y-113424192D02*
X136973261Y-113448001D01*
X136973261Y-113448001D02*
X137020880Y-113471811D01*
X137020880Y-113471811D02*
X137068500Y-113519430D01*
X137068500Y-113519430D02*
X137092309Y-113590858D01*
X137092309Y-113590858D02*
X137092309Y-113709906D01*
X137092309Y-117011811D02*
X137092309Y-117297525D01*
X137092309Y-117154668D02*
X136592309Y-117154668D01*
X136592309Y-117154668D02*
X136663738Y-117202287D01*
X136663738Y-117202287D02*
X136711357Y-117249906D01*
X136711357Y-117249906D02*
X136735166Y-117297525D01*
X137092309Y-116535621D02*
X137092309Y-116821335D01*
X137092309Y-116678478D02*
X136592309Y-116678478D01*
X136592309Y-116678478D02*
X136663738Y-116726097D01*
X136663738Y-116726097D02*
X136711357Y-116773716D01*
X136711357Y-116773716D02*
X136735166Y-116821335D01*
X136592309Y-116226098D02*
X136592309Y-116178479D01*
X136592309Y-116178479D02*
X136616119Y-116130860D01*
X136616119Y-116130860D02*
X136639928Y-116107050D01*
X136639928Y-116107050D02*
X136687547Y-116083241D01*
X136687547Y-116083241D02*
X136782785Y-116059431D01*
X136782785Y-116059431D02*
X136901833Y-116059431D01*
X136901833Y-116059431D02*
X136997071Y-116083241D01*
X136997071Y-116083241D02*
X137044690Y-116107050D01*
X137044690Y-116107050D02*
X137068500Y-116130860D01*
X137068500Y-116130860D02*
X137092309Y-116178479D01*
X137092309Y-116178479D02*
X137092309Y-116226098D01*
X137092309Y-116226098D02*
X137068500Y-116273717D01*
X137068500Y-116273717D02*
X137044690Y-116297526D01*
X137044690Y-116297526D02*
X136997071Y-116321336D01*
X136997071Y-116321336D02*
X136901833Y-116345145D01*
X136901833Y-116345145D02*
X136782785Y-116345145D01*
X136782785Y-116345145D02*
X136687547Y-116321336D01*
X136687547Y-116321336D02*
X136639928Y-116297526D01*
X136639928Y-116297526D02*
X136616119Y-116273717D01*
X136616119Y-116273717D02*
X136592309Y-116226098D01*
X114041833Y-99620716D02*
X114041833Y-99239764D01*
X114232309Y-99430240D02*
X113851357Y-99430240D01*
X113732309Y-99049287D02*
X113732309Y-98739763D01*
X113732309Y-98739763D02*
X113922785Y-98906430D01*
X113922785Y-98906430D02*
X113922785Y-98835001D01*
X113922785Y-98835001D02*
X113946595Y-98787382D01*
X113946595Y-98787382D02*
X113970404Y-98763573D01*
X113970404Y-98763573D02*
X114018023Y-98739763D01*
X114018023Y-98739763D02*
X114137071Y-98739763D01*
X114137071Y-98739763D02*
X114184690Y-98763573D01*
X114184690Y-98763573D02*
X114208500Y-98787382D01*
X114208500Y-98787382D02*
X114232309Y-98835001D01*
X114232309Y-98835001D02*
X114232309Y-98977858D01*
X114232309Y-98977858D02*
X114208500Y-99025477D01*
X114208500Y-99025477D02*
X114184690Y-99049287D01*
X113732309Y-98596906D02*
X114232309Y-98430240D01*
X114232309Y-98430240D02*
X113732309Y-98263573D01*
X113732309Y-98144526D02*
X113732309Y-97835002D01*
X113732309Y-97835002D02*
X113922785Y-98001669D01*
X113922785Y-98001669D02*
X113922785Y-97930240D01*
X113922785Y-97930240D02*
X113946595Y-97882621D01*
X113946595Y-97882621D02*
X113970404Y-97858812D01*
X113970404Y-97858812D02*
X114018023Y-97835002D01*
X114018023Y-97835002D02*
X114137071Y-97835002D01*
X114137071Y-97835002D02*
X114184690Y-97858812D01*
X114184690Y-97858812D02*
X114208500Y-97882621D01*
X114208500Y-97882621D02*
X114232309Y-97930240D01*
X114232309Y-97930240D02*
X114232309Y-98073097D01*
X114232309Y-98073097D02*
X114208500Y-98120716D01*
X114208500Y-98120716D02*
X114184690Y-98144526D01*
X113629119Y-101771811D02*
X113605309Y-101819430D01*
X113605309Y-101819430D02*
X113605309Y-101890859D01*
X113605309Y-101890859D02*
X113629119Y-101962287D01*
X113629119Y-101962287D02*
X113676738Y-102009906D01*
X113676738Y-102009906D02*
X113724357Y-102033716D01*
X113724357Y-102033716D02*
X113819595Y-102057525D01*
X113819595Y-102057525D02*
X113891023Y-102057525D01*
X113891023Y-102057525D02*
X113986261Y-102033716D01*
X113986261Y-102033716D02*
X114033880Y-102009906D01*
X114033880Y-102009906D02*
X114081500Y-101962287D01*
X114081500Y-101962287D02*
X114105309Y-101890859D01*
X114105309Y-101890859D02*
X114105309Y-101843240D01*
X114105309Y-101843240D02*
X114081500Y-101771811D01*
X114081500Y-101771811D02*
X114057690Y-101748002D01*
X114057690Y-101748002D02*
X113891023Y-101748002D01*
X113891023Y-101748002D02*
X113891023Y-101843240D01*
X114105309Y-101533716D02*
X113605309Y-101533716D01*
X113605309Y-101533716D02*
X114105309Y-101248002D01*
X114105309Y-101248002D02*
X113605309Y-101248002D01*
X114105309Y-101009906D02*
X113605309Y-101009906D01*
X113605309Y-101009906D02*
X113605309Y-100890858D01*
X113605309Y-100890858D02*
X113629119Y-100819430D01*
X113629119Y-100819430D02*
X113676738Y-100771811D01*
X113676738Y-100771811D02*
X113724357Y-100748001D01*
X113724357Y-100748001D02*
X113819595Y-100724192D01*
X113819595Y-100724192D02*
X113891023Y-100724192D01*
X113891023Y-100724192D02*
X113986261Y-100748001D01*
X113986261Y-100748001D02*
X114033880Y-100771811D01*
X114033880Y-100771811D02*
X114081500Y-100819430D01*
X114081500Y-100819430D02*
X114105309Y-100890858D01*
X114105309Y-100890858D02*
X114105309Y-101009906D01*
X113843404Y-104700716D02*
X113843404Y-104534049D01*
X114105309Y-104462621D02*
X114105309Y-104700716D01*
X114105309Y-104700716D02*
X113605309Y-104700716D01*
X113605309Y-104700716D02*
X113605309Y-104462621D01*
X114105309Y-104248335D02*
X113605309Y-104248335D01*
X113605309Y-104248335D02*
X114105309Y-103962621D01*
X114105309Y-103962621D02*
X113605309Y-103962621D01*
X114232309Y-107494716D02*
X113732309Y-107494716D01*
X113732309Y-107161383D02*
X113732309Y-107066145D01*
X113732309Y-107066145D02*
X113756119Y-107018526D01*
X113756119Y-107018526D02*
X113803738Y-106970907D01*
X113803738Y-106970907D02*
X113898976Y-106947097D01*
X113898976Y-106947097D02*
X114065642Y-106947097D01*
X114065642Y-106947097D02*
X114160880Y-106970907D01*
X114160880Y-106970907D02*
X114208500Y-107018526D01*
X114208500Y-107018526D02*
X114232309Y-107066145D01*
X114232309Y-107066145D02*
X114232309Y-107161383D01*
X114232309Y-107161383D02*
X114208500Y-107209002D01*
X114208500Y-107209002D02*
X114160880Y-107256621D01*
X114160880Y-107256621D02*
X114065642Y-107280430D01*
X114065642Y-107280430D02*
X113898976Y-107280430D01*
X113898976Y-107280430D02*
X113803738Y-107256621D01*
X113803738Y-107256621D02*
X113756119Y-107209002D01*
X113756119Y-107209002D02*
X113732309Y-107161383D01*
X113898976Y-106518525D02*
X114232309Y-106518525D01*
X113708500Y-106637573D02*
X114065642Y-106756620D01*
X114065642Y-106756620D02*
X114065642Y-106447097D01*
X114359309Y-109653716D02*
X113859309Y-109653716D01*
X113859309Y-109320383D02*
X113859309Y-109225145D01*
X113859309Y-109225145D02*
X113883119Y-109177526D01*
X113883119Y-109177526D02*
X113930738Y-109129907D01*
X113930738Y-109129907D02*
X114025976Y-109106097D01*
X114025976Y-109106097D02*
X114192642Y-109106097D01*
X114192642Y-109106097D02*
X114287880Y-109129907D01*
X114287880Y-109129907D02*
X114335500Y-109177526D01*
X114335500Y-109177526D02*
X114359309Y-109225145D01*
X114359309Y-109225145D02*
X114359309Y-109320383D01*
X114359309Y-109320383D02*
X114335500Y-109368002D01*
X114335500Y-109368002D02*
X114287880Y-109415621D01*
X114287880Y-109415621D02*
X114192642Y-109439430D01*
X114192642Y-109439430D02*
X114025976Y-109439430D01*
X114025976Y-109439430D02*
X113930738Y-109415621D01*
X113930738Y-109415621D02*
X113883119Y-109368002D01*
X113883119Y-109368002D02*
X113859309Y-109320383D01*
X113859309Y-108653716D02*
X113859309Y-108891811D01*
X113859309Y-108891811D02*
X114097404Y-108915620D01*
X114097404Y-108915620D02*
X114073595Y-108891811D01*
X114073595Y-108891811D02*
X114049785Y-108844192D01*
X114049785Y-108844192D02*
X114049785Y-108725144D01*
X114049785Y-108725144D02*
X114073595Y-108677525D01*
X114073595Y-108677525D02*
X114097404Y-108653716D01*
X114097404Y-108653716D02*
X114145023Y-108629906D01*
X114145023Y-108629906D02*
X114264071Y-108629906D01*
X114264071Y-108629906D02*
X114311690Y-108653716D01*
X114311690Y-108653716D02*
X114335500Y-108677525D01*
X114335500Y-108677525D02*
X114359309Y-108725144D01*
X114359309Y-108725144D02*
X114359309Y-108844192D01*
X114359309Y-108844192D02*
X114335500Y-108891811D01*
X114335500Y-108891811D02*
X114311690Y-108915620D01*
X114359309Y-112447716D02*
X113859309Y-112447716D01*
X113859309Y-112114383D02*
X113859309Y-112019145D01*
X113859309Y-112019145D02*
X113883119Y-111971526D01*
X113883119Y-111971526D02*
X113930738Y-111923907D01*
X113930738Y-111923907D02*
X114025976Y-111900097D01*
X114025976Y-111900097D02*
X114192642Y-111900097D01*
X114192642Y-111900097D02*
X114287880Y-111923907D01*
X114287880Y-111923907D02*
X114335500Y-111971526D01*
X114335500Y-111971526D02*
X114359309Y-112019145D01*
X114359309Y-112019145D02*
X114359309Y-112114383D01*
X114359309Y-112114383D02*
X114335500Y-112162002D01*
X114335500Y-112162002D02*
X114287880Y-112209621D01*
X114287880Y-112209621D02*
X114192642Y-112233430D01*
X114192642Y-112233430D02*
X114025976Y-112233430D01*
X114025976Y-112233430D02*
X113930738Y-112209621D01*
X113930738Y-112209621D02*
X113883119Y-112162002D01*
X113883119Y-112162002D02*
X113859309Y-112114383D01*
X113859309Y-111471525D02*
X113859309Y-111566763D01*
X113859309Y-111566763D02*
X113883119Y-111614382D01*
X113883119Y-111614382D02*
X113906928Y-111638192D01*
X113906928Y-111638192D02*
X113978357Y-111685811D01*
X113978357Y-111685811D02*
X114073595Y-111709620D01*
X114073595Y-111709620D02*
X114264071Y-111709620D01*
X114264071Y-111709620D02*
X114311690Y-111685811D01*
X114311690Y-111685811D02*
X114335500Y-111662001D01*
X114335500Y-111662001D02*
X114359309Y-111614382D01*
X114359309Y-111614382D02*
X114359309Y-111519144D01*
X114359309Y-111519144D02*
X114335500Y-111471525D01*
X114335500Y-111471525D02*
X114311690Y-111447716D01*
X114311690Y-111447716D02*
X114264071Y-111423906D01*
X114264071Y-111423906D02*
X114145023Y-111423906D01*
X114145023Y-111423906D02*
X114097404Y-111447716D01*
X114097404Y-111447716D02*
X114073595Y-111471525D01*
X114073595Y-111471525D02*
X114049785Y-111519144D01*
X114049785Y-111519144D02*
X114049785Y-111614382D01*
X114049785Y-111614382D02*
X114073595Y-111662001D01*
X114073595Y-111662001D02*
X114097404Y-111685811D01*
X114097404Y-111685811D02*
X114145023Y-111709620D01*
X114359309Y-114987716D02*
X113859309Y-114987716D01*
X113859309Y-114654383D02*
X113859309Y-114559145D01*
X113859309Y-114559145D02*
X113883119Y-114511526D01*
X113883119Y-114511526D02*
X113930738Y-114463907D01*
X113930738Y-114463907D02*
X114025976Y-114440097D01*
X114025976Y-114440097D02*
X114192642Y-114440097D01*
X114192642Y-114440097D02*
X114287880Y-114463907D01*
X114287880Y-114463907D02*
X114335500Y-114511526D01*
X114335500Y-114511526D02*
X114359309Y-114559145D01*
X114359309Y-114559145D02*
X114359309Y-114654383D01*
X114359309Y-114654383D02*
X114335500Y-114702002D01*
X114335500Y-114702002D02*
X114287880Y-114749621D01*
X114287880Y-114749621D02*
X114192642Y-114773430D01*
X114192642Y-114773430D02*
X114025976Y-114773430D01*
X114025976Y-114773430D02*
X113930738Y-114749621D01*
X113930738Y-114749621D02*
X113883119Y-114702002D01*
X113883119Y-114702002D02*
X113859309Y-114654383D01*
X113859309Y-114273430D02*
X113859309Y-113940097D01*
X113859309Y-113940097D02*
X114359309Y-114154382D01*
X114613309Y-118035716D02*
X114113309Y-118035716D01*
X114113309Y-117702383D02*
X114113309Y-117607145D01*
X114113309Y-117607145D02*
X114137119Y-117559526D01*
X114137119Y-117559526D02*
X114184738Y-117511907D01*
X114184738Y-117511907D02*
X114279976Y-117488097D01*
X114279976Y-117488097D02*
X114446642Y-117488097D01*
X114446642Y-117488097D02*
X114541880Y-117511907D01*
X114541880Y-117511907D02*
X114589500Y-117559526D01*
X114589500Y-117559526D02*
X114613309Y-117607145D01*
X114613309Y-117607145D02*
X114613309Y-117702383D01*
X114613309Y-117702383D02*
X114589500Y-117750002D01*
X114589500Y-117750002D02*
X114541880Y-117797621D01*
X114541880Y-117797621D02*
X114446642Y-117821430D01*
X114446642Y-117821430D02*
X114279976Y-117821430D01*
X114279976Y-117821430D02*
X114184738Y-117797621D01*
X114184738Y-117797621D02*
X114137119Y-117750002D01*
X114137119Y-117750002D02*
X114113309Y-117702383D01*
X114613309Y-117250001D02*
X114613309Y-117154763D01*
X114613309Y-117154763D02*
X114589500Y-117107144D01*
X114589500Y-117107144D02*
X114565690Y-117083335D01*
X114565690Y-117083335D02*
X114494261Y-117035716D01*
X114494261Y-117035716D02*
X114399023Y-117011906D01*
X114399023Y-117011906D02*
X114208547Y-117011906D01*
X114208547Y-117011906D02*
X114160928Y-117035716D01*
X114160928Y-117035716D02*
X114137119Y-117059525D01*
X114137119Y-117059525D02*
X114113309Y-117107144D01*
X114113309Y-117107144D02*
X114113309Y-117202382D01*
X114113309Y-117202382D02*
X114137119Y-117250001D01*
X114137119Y-117250001D02*
X114160928Y-117273811D01*
X114160928Y-117273811D02*
X114208547Y-117297620D01*
X114208547Y-117297620D02*
X114327595Y-117297620D01*
X114327595Y-117297620D02*
X114375214Y-117273811D01*
X114375214Y-117273811D02*
X114399023Y-117250001D01*
X114399023Y-117250001D02*
X114422833Y-117202382D01*
X114422833Y-117202382D02*
X114422833Y-117107144D01*
X114422833Y-117107144D02*
X114399023Y-117059525D01*
X114399023Y-117059525D02*
X114375214Y-117035716D01*
X114375214Y-117035716D02*
X114327595Y-117011906D01*
D11*
G36*
X117771713Y-122331969D02*
G01*
X117790645Y-122350902D01*
X117815996Y-122401603D01*
X117815996Y-122485443D01*
X117790645Y-122536144D01*
X117771713Y-122555077D01*
X117721012Y-122580428D01*
X117494568Y-122580428D01*
X117494568Y-122306619D01*
X117721012Y-122306619D01*
X117771713Y-122331969D01*
G37*
G36*
X121807642Y-123431619D02*
G01*
X117119568Y-123431619D01*
X117119568Y-122181619D01*
X117244568Y-122181619D01*
X117244568Y-123181619D01*
X117246970Y-123206005D01*
X117265634Y-123251065D01*
X117300122Y-123285553D01*
X117345182Y-123304217D01*
X117393954Y-123304217D01*
X117439014Y-123285553D01*
X117473502Y-123251065D01*
X117492166Y-123206005D01*
X117494568Y-123181619D01*
X117494568Y-122830428D01*
X117542581Y-122830428D01*
X117838592Y-123253302D01*
X117854544Y-123271902D01*
X117895675Y-123298114D01*
X117943706Y-123306590D01*
X117991324Y-123296040D01*
X118031279Y-123268071D01*
X118057491Y-123226941D01*
X118065967Y-123178909D01*
X118055417Y-123131292D01*
X118043400Y-123109936D01*
X117830188Y-122805347D01*
X117901659Y-122769613D01*
X117912157Y-122763003D01*
X117915204Y-122761742D01*
X117918635Y-122758926D01*
X117922397Y-122756558D01*
X117924560Y-122754063D01*
X117934146Y-122746197D01*
X117981765Y-122698579D01*
X117989634Y-122688990D01*
X117992126Y-122686829D01*
X117994491Y-122683071D01*
X117997310Y-122679637D01*
X117998573Y-122676586D01*
X118005180Y-122666092D01*
X118052799Y-122570854D01*
X118061557Y-122547968D01*
X118061875Y-122543487D01*
X118063594Y-122539338D01*
X118065996Y-122514952D01*
X118065996Y-122372095D01*
X118063594Y-122347709D01*
X118061875Y-122343559D01*
X118061557Y-122339079D01*
X118052799Y-122316193D01*
X118005180Y-122220955D01*
X117998573Y-122210460D01*
X117997310Y-122207410D01*
X117994491Y-122203975D01*
X117992126Y-122200218D01*
X117989634Y-122198056D01*
X117981765Y-122188468D01*
X117974916Y-122181619D01*
X118244568Y-122181619D01*
X118244568Y-123181619D01*
X118246970Y-123206005D01*
X118265634Y-123251065D01*
X118300122Y-123285553D01*
X118345182Y-123304217D01*
X118369568Y-123306619D01*
X118845758Y-123306619D01*
X118870144Y-123304217D01*
X118915204Y-123285553D01*
X118949692Y-123251065D01*
X118968356Y-123206005D01*
X118968356Y-123157233D01*
X118949692Y-123112173D01*
X118915204Y-123077685D01*
X118870144Y-123059021D01*
X118845758Y-123056619D01*
X118494568Y-123056619D01*
X118494568Y-122782809D01*
X118702901Y-122782809D01*
X118727287Y-122780407D01*
X118772347Y-122761743D01*
X118806835Y-122727255D01*
X118825499Y-122682195D01*
X118825499Y-122633423D01*
X118806835Y-122588363D01*
X118772347Y-122553875D01*
X118727287Y-122535211D01*
X118702901Y-122532809D01*
X118494568Y-122532809D01*
X118494568Y-122372095D01*
X119101711Y-122372095D01*
X119101711Y-122467333D01*
X119104113Y-122491719D01*
X119105831Y-122495867D01*
X119106150Y-122500349D01*
X119114908Y-122523235D01*
X119162526Y-122618472D01*
X119169135Y-122628970D01*
X119170397Y-122632017D01*
X119173212Y-122635448D01*
X119175581Y-122639210D01*
X119178075Y-122641373D01*
X119185942Y-122650959D01*
X119233560Y-122698578D01*
X119243148Y-122706447D01*
X119245310Y-122708939D01*
X119249067Y-122711304D01*
X119252502Y-122714123D01*
X119255552Y-122715386D01*
X119266047Y-122721993D01*
X119361285Y-122769612D01*
X119363070Y-122770295D01*
X119363795Y-122770832D01*
X119374024Y-122774487D01*
X119384171Y-122778370D01*
X119385070Y-122778433D01*
X119386870Y-122779077D01*
X119564036Y-122823368D01*
X119628856Y-122855778D01*
X119647788Y-122874711D01*
X119673139Y-122925412D01*
X119673139Y-122961633D01*
X119647787Y-123012336D01*
X119628856Y-123031268D01*
X119578155Y-123056619D01*
X119389854Y-123056619D01*
X119266239Y-123015415D01*
X119242345Y-123009982D01*
X119193696Y-123013439D01*
X119150071Y-123035251D01*
X119118116Y-123072097D01*
X119102693Y-123118366D01*
X119106150Y-123167015D01*
X119127962Y-123210640D01*
X119164808Y-123242595D01*
X119187183Y-123252585D01*
X119330039Y-123300204D01*
X119342132Y-123302953D01*
X119345182Y-123304217D01*
X119349603Y-123304652D01*
X119353933Y-123305637D01*
X119357224Y-123305403D01*
X119369568Y-123306619D01*
X119607663Y-123306619D01*
X119632049Y-123304217D01*
X119636197Y-123302498D01*
X119640679Y-123302180D01*
X119663565Y-123293422D01*
X119758802Y-123245804D01*
X119769298Y-123239196D01*
X119772348Y-123237933D01*
X119775781Y-123235114D01*
X119779540Y-123232749D01*
X119781702Y-123230255D01*
X119791290Y-123222387D01*
X119838909Y-123174768D01*
X119846776Y-123165180D01*
X119849269Y-123163019D01*
X119851635Y-123159259D01*
X119854454Y-123155825D01*
X119855716Y-123152776D01*
X119862323Y-123142282D01*
X119909942Y-123047044D01*
X119918700Y-123024158D01*
X119919018Y-123019677D01*
X119920737Y-123015528D01*
X119923139Y-122991142D01*
X119923139Y-122895904D01*
X119920737Y-122871518D01*
X119919018Y-122867368D01*
X119918700Y-122862888D01*
X119909942Y-122840002D01*
X119862323Y-122744764D01*
X119855716Y-122734269D01*
X119854453Y-122731219D01*
X119851634Y-122727784D01*
X119849269Y-122724027D01*
X119846777Y-122721865D01*
X119838908Y-122712277D01*
X119791289Y-122664659D01*
X119781703Y-122656792D01*
X119779540Y-122654298D01*
X119775778Y-122651929D01*
X119772347Y-122649114D01*
X119769300Y-122647852D01*
X119758802Y-122641243D01*
X119663565Y-122593625D01*
X119661779Y-122592941D01*
X119661055Y-122592405D01*
X119650825Y-122588749D01*
X119640679Y-122584867D01*
X119639779Y-122584803D01*
X119637980Y-122584160D01*
X119460815Y-122539868D01*
X119395994Y-122507458D01*
X119377061Y-122488526D01*
X119351711Y-122437825D01*
X119351711Y-122401603D01*
X119377061Y-122350901D01*
X119395994Y-122331969D01*
X119446696Y-122306619D01*
X119634999Y-122306619D01*
X119758610Y-122347823D01*
X119782504Y-122353256D01*
X119831154Y-122349799D01*
X119874778Y-122327987D01*
X119906734Y-122291141D01*
X119922157Y-122244872D01*
X119918700Y-122196222D01*
X119911398Y-122181619D01*
X120101711Y-122181619D01*
X120101711Y-123181619D01*
X120104113Y-123206005D01*
X120122777Y-123251065D01*
X120157265Y-123285553D01*
X120202325Y-123304217D01*
X120226711Y-123306619D01*
X120702901Y-123306619D01*
X120727287Y-123304217D01*
X120772347Y-123285553D01*
X120806835Y-123251065D01*
X120825499Y-123206005D01*
X120825499Y-123157233D01*
X120806835Y-123112173D01*
X120772347Y-123077685D01*
X120727287Y-123059021D01*
X120702901Y-123056619D01*
X120351711Y-123056619D01*
X120351711Y-122782809D01*
X120560044Y-122782809D01*
X120584430Y-122780407D01*
X120629490Y-122761743D01*
X120663978Y-122727255D01*
X120682642Y-122682195D01*
X120682642Y-122633423D01*
X120663978Y-122588363D01*
X120629490Y-122553875D01*
X120584430Y-122535211D01*
X120560044Y-122532809D01*
X120351711Y-122532809D01*
X120351711Y-122306619D01*
X120702901Y-122306619D01*
X120727287Y-122304217D01*
X120772347Y-122285553D01*
X120806835Y-122251065D01*
X120825499Y-122206005D01*
X120825499Y-122157233D01*
X120866018Y-122157233D01*
X120866018Y-122206005D01*
X120884682Y-122251065D01*
X120919170Y-122285553D01*
X120964230Y-122304217D01*
X120988616Y-122306619D01*
X121149330Y-122306619D01*
X121149330Y-123181619D01*
X121151732Y-123206005D01*
X121170396Y-123251065D01*
X121204884Y-123285553D01*
X121249944Y-123304217D01*
X121298716Y-123304217D01*
X121343776Y-123285553D01*
X121378264Y-123251065D01*
X121396928Y-123206005D01*
X121399330Y-123181619D01*
X121399330Y-122306619D01*
X121560044Y-122306619D01*
X121584430Y-122304217D01*
X121629490Y-122285553D01*
X121663978Y-122251065D01*
X121682642Y-122206005D01*
X121682642Y-122157233D01*
X121663978Y-122112173D01*
X121629490Y-122077685D01*
X121584430Y-122059021D01*
X121560044Y-122056619D01*
X120988616Y-122056619D01*
X120964230Y-122059021D01*
X120919170Y-122077685D01*
X120884682Y-122112173D01*
X120866018Y-122157233D01*
X120825499Y-122157233D01*
X120806835Y-122112173D01*
X120772347Y-122077685D01*
X120727287Y-122059021D01*
X120702901Y-122056619D01*
X120226711Y-122056619D01*
X120202325Y-122059021D01*
X120157265Y-122077685D01*
X120122777Y-122112173D01*
X120104113Y-122157233D01*
X120101711Y-122181619D01*
X119911398Y-122181619D01*
X119896888Y-122152598D01*
X119860042Y-122120643D01*
X119837667Y-122110652D01*
X119694810Y-122063034D01*
X119682719Y-122060284D01*
X119679668Y-122059021D01*
X119675245Y-122058585D01*
X119670916Y-122057601D01*
X119667625Y-122057834D01*
X119655282Y-122056619D01*
X119417187Y-122056619D01*
X119392801Y-122059021D01*
X119388651Y-122060739D01*
X119384171Y-122061058D01*
X119361285Y-122069816D01*
X119266047Y-122117435D01*
X119255552Y-122124041D01*
X119252502Y-122125305D01*
X119249067Y-122128123D01*
X119245310Y-122130489D01*
X119243148Y-122132980D01*
X119233560Y-122140850D01*
X119185942Y-122188469D01*
X119178075Y-122198054D01*
X119175581Y-122200218D01*
X119173212Y-122203979D01*
X119170397Y-122207411D01*
X119169135Y-122210457D01*
X119162526Y-122220956D01*
X119114908Y-122316193D01*
X119106150Y-122339079D01*
X119105831Y-122343560D01*
X119104113Y-122347709D01*
X119101711Y-122372095D01*
X118494568Y-122372095D01*
X118494568Y-122306619D01*
X118845758Y-122306619D01*
X118870144Y-122304217D01*
X118915204Y-122285553D01*
X118949692Y-122251065D01*
X118968356Y-122206005D01*
X118968356Y-122157233D01*
X118949692Y-122112173D01*
X118915204Y-122077685D01*
X118870144Y-122059021D01*
X118845758Y-122056619D01*
X118369568Y-122056619D01*
X118345182Y-122059021D01*
X118300122Y-122077685D01*
X118265634Y-122112173D01*
X118246970Y-122157233D01*
X118244568Y-122181619D01*
X117974916Y-122181619D01*
X117934146Y-122140850D01*
X117924560Y-122132983D01*
X117922397Y-122130489D01*
X117918635Y-122128120D01*
X117915204Y-122125305D01*
X117912157Y-122124043D01*
X117901659Y-122117434D01*
X117806422Y-122069816D01*
X117783536Y-122061058D01*
X117779054Y-122060739D01*
X117774906Y-122059021D01*
X117750520Y-122056619D01*
X117369568Y-122056619D01*
X117345182Y-122059021D01*
X117300122Y-122077685D01*
X117265634Y-122112173D01*
X117246970Y-122157233D01*
X117244568Y-122181619D01*
X117119568Y-122181619D01*
X117119568Y-121931619D01*
X121807642Y-121931619D01*
X121807642Y-123431619D01*
G37*
D12*
G36*
X132744844Y-123176430D02*
G01*
X132764296Y-123195882D01*
X132794101Y-123255492D01*
X132794101Y-123351135D01*
X132764296Y-123410743D01*
X132739627Y-123435413D01*
X132680018Y-123465219D01*
X132422673Y-123465219D01*
X132422673Y-123141409D01*
X132639779Y-123141409D01*
X132744844Y-123176430D01*
G37*
G36*
X132692008Y-122695024D02*
G01*
X132716677Y-122719692D01*
X132746482Y-122779302D01*
X132746482Y-122827326D01*
X132716677Y-122886935D01*
X132692008Y-122911603D01*
X132632399Y-122941409D01*
X132422673Y-122941409D01*
X132422673Y-122665219D01*
X132632399Y-122665219D01*
X132692008Y-122695024D01*
G37*
G36*
X133739626Y-122695023D02*
G01*
X133803805Y-122759202D01*
X133841720Y-122910861D01*
X133841720Y-123219575D01*
X133803804Y-123371235D01*
X133739628Y-123435413D01*
X133680018Y-123465219D01*
X133536756Y-123465219D01*
X133477146Y-123435414D01*
X133412969Y-123371236D01*
X133375054Y-123219575D01*
X133375054Y-122910862D01*
X133412969Y-122759202D01*
X133477148Y-122695023D01*
X133536756Y-122665219D01*
X133680018Y-122665219D01*
X133739626Y-122695023D01*
G37*
G36*
X134787245Y-122695023D02*
G01*
X134851424Y-122759202D01*
X134889339Y-122910861D01*
X134889339Y-123219575D01*
X134851423Y-123371235D01*
X134787247Y-123435413D01*
X134727637Y-123465219D01*
X134584375Y-123465219D01*
X134524765Y-123435414D01*
X134460588Y-123371236D01*
X134422673Y-123219575D01*
X134422673Y-122910862D01*
X134460588Y-122759202D01*
X134524767Y-122695023D01*
X134584375Y-122665219D01*
X134727637Y-122665219D01*
X134787245Y-122695023D01*
G37*
G36*
X136055672Y-123776330D02*
G01*
X132111562Y-123776330D01*
X132111562Y-122565219D01*
X132222673Y-122565219D01*
X132222673Y-123565219D01*
X132224594Y-123584728D01*
X132239526Y-123620776D01*
X132267116Y-123648366D01*
X132303164Y-123663298D01*
X132322673Y-123665219D01*
X132703625Y-123665219D01*
X132723134Y-123663298D01*
X132726454Y-123661922D01*
X132730038Y-123661668D01*
X132748346Y-123654662D01*
X132843584Y-123607043D01*
X132851979Y-123601758D01*
X132854421Y-123600747D01*
X132857168Y-123598491D01*
X132860174Y-123596600D01*
X132861904Y-123594605D01*
X132869574Y-123588310D01*
X132917193Y-123540690D01*
X132923485Y-123533023D01*
X132925482Y-123531292D01*
X132927375Y-123528284D01*
X132929630Y-123525537D01*
X132930641Y-123523095D01*
X132935925Y-123514701D01*
X132983544Y-123419464D01*
X132990550Y-123401155D01*
X132990804Y-123397571D01*
X132992180Y-123394251D01*
X132994101Y-123374742D01*
X132994101Y-123231885D01*
X132992180Y-123212376D01*
X132990804Y-123209055D01*
X132990550Y-123205472D01*
X132983544Y-123187163D01*
X132935925Y-123091926D01*
X132930639Y-123083529D01*
X132929629Y-123081089D01*
X132927375Y-123078343D01*
X132925482Y-123075335D01*
X132923484Y-123073602D01*
X132917192Y-123065936D01*
X132869574Y-123018317D01*
X132868785Y-123017669D01*
X132869573Y-123016882D01*
X132875865Y-123009215D01*
X132877863Y-123007483D01*
X132879756Y-123004474D01*
X132882010Y-123001729D01*
X132883020Y-122999288D01*
X132888306Y-122990892D01*
X132934476Y-122898552D01*
X133175054Y-122898552D01*
X133175054Y-123231885D01*
X133175389Y-123235287D01*
X133175172Y-123236746D01*
X133176251Y-123244043D01*
X133176975Y-123251394D01*
X133177539Y-123252757D01*
X133178040Y-123256139D01*
X133225659Y-123446614D01*
X133232254Y-123465075D01*
X133236679Y-123471047D01*
X133239525Y-123477918D01*
X133251962Y-123493071D01*
X133347200Y-123588311D01*
X133354868Y-123594604D01*
X133356599Y-123596600D01*
X133359606Y-123598493D01*
X133362353Y-123600747D01*
X133364793Y-123601757D01*
X133373190Y-123607043D01*
X133468427Y-123654662D01*
X133486736Y-123661668D01*
X133490319Y-123661922D01*
X133493640Y-123663298D01*
X133513149Y-123665219D01*
X133703625Y-123665219D01*
X133723134Y-123663298D01*
X133726454Y-123661922D01*
X133730038Y-123661668D01*
X133748346Y-123654662D01*
X133843584Y-123607043D01*
X133851979Y-123601758D01*
X133854421Y-123600747D01*
X133857168Y-123598491D01*
X133860174Y-123596600D01*
X133861904Y-123594605D01*
X133869574Y-123588310D01*
X133964812Y-123493071D01*
X133977249Y-123477918D01*
X133980094Y-123471047D01*
X133984520Y-123465075D01*
X133991115Y-123446615D01*
X134038734Y-123256139D01*
X134039234Y-123252757D01*
X134039799Y-123251394D01*
X134040522Y-123244043D01*
X134041602Y-123236746D01*
X134041384Y-123235287D01*
X134041720Y-123231885D01*
X134041720Y-122898552D01*
X134222673Y-122898552D01*
X134222673Y-123231885D01*
X134223008Y-123235287D01*
X134222791Y-123236746D01*
X134223870Y-123244043D01*
X134224594Y-123251394D01*
X134225158Y-123252757D01*
X134225659Y-123256139D01*
X134273278Y-123446614D01*
X134279873Y-123465075D01*
X134284298Y-123471047D01*
X134287144Y-123477918D01*
X134299581Y-123493071D01*
X134394819Y-123588311D01*
X134402487Y-123594604D01*
X134404218Y-123596600D01*
X134407225Y-123598493D01*
X134409972Y-123600747D01*
X134412412Y-123601757D01*
X134420809Y-123607043D01*
X134516046Y-123654662D01*
X134534355Y-123661668D01*
X134537938Y-123661922D01*
X134541259Y-123663298D01*
X134560768Y-123665219D01*
X134751244Y-123665219D01*
X134770753Y-123663298D01*
X134774073Y-123661922D01*
X134777657Y-123661668D01*
X134795965Y-123654662D01*
X134891203Y-123607043D01*
X134899598Y-123601758D01*
X134902040Y-123600747D01*
X134904787Y-123598491D01*
X134907793Y-123596600D01*
X134909523Y-123594605D01*
X134917193Y-123588310D01*
X135012431Y-123493071D01*
X135024868Y-123477918D01*
X135027713Y-123471047D01*
X135032139Y-123465075D01*
X135038734Y-123446615D01*
X135086353Y-123256139D01*
X135086853Y-123252757D01*
X135087418Y-123251394D01*
X135088141Y-123244043D01*
X135089221Y-123236746D01*
X135089003Y-123235287D01*
X135089339Y-123231885D01*
X135089339Y-122898552D01*
X135089003Y-122895149D01*
X135089221Y-122893691D01*
X135088141Y-122886393D01*
X135087418Y-122879043D01*
X135086853Y-122877679D01*
X135086353Y-122874298D01*
X135038734Y-122683822D01*
X135032139Y-122665362D01*
X135027712Y-122659387D01*
X135024867Y-122652519D01*
X135012431Y-122637365D01*
X134920776Y-122545710D01*
X135176975Y-122545710D01*
X135176975Y-122584728D01*
X135191907Y-122620776D01*
X135219497Y-122648366D01*
X135255545Y-122663298D01*
X135275054Y-122665219D01*
X135460768Y-122665219D01*
X135460768Y-123565219D01*
X135462689Y-123584728D01*
X135477621Y-123620776D01*
X135505211Y-123648366D01*
X135541259Y-123663298D01*
X135580277Y-123663298D01*
X135616325Y-123648366D01*
X135643915Y-123620776D01*
X135658847Y-123584728D01*
X135660768Y-123565219D01*
X135660768Y-122665219D01*
X135846482Y-122665219D01*
X135865991Y-122663298D01*
X135902039Y-122648366D01*
X135929629Y-122620776D01*
X135944561Y-122584728D01*
X135944561Y-122545710D01*
X135929629Y-122509662D01*
X135902039Y-122482072D01*
X135865991Y-122467140D01*
X135846482Y-122465219D01*
X135275054Y-122465219D01*
X135255545Y-122467140D01*
X135219497Y-122482072D01*
X135191907Y-122509662D01*
X135176975Y-122545710D01*
X134920776Y-122545710D01*
X134917193Y-122542127D01*
X134909522Y-122535832D01*
X134907793Y-122533838D01*
X134904785Y-122531944D01*
X134902039Y-122529691D01*
X134899599Y-122528680D01*
X134891203Y-122523395D01*
X134795965Y-122475776D01*
X134777657Y-122468770D01*
X134774073Y-122468515D01*
X134770753Y-122467140D01*
X134751244Y-122465219D01*
X134560768Y-122465219D01*
X134541259Y-122467140D01*
X134537938Y-122468515D01*
X134534355Y-122468770D01*
X134516046Y-122475776D01*
X134420809Y-122523395D01*
X134412410Y-122528681D01*
X134409973Y-122529691D01*
X134407229Y-122531942D01*
X134404218Y-122533838D01*
X134402485Y-122535835D01*
X134394819Y-122542127D01*
X134299581Y-122637365D01*
X134287145Y-122652519D01*
X134284299Y-122659387D01*
X134279873Y-122665362D01*
X134273278Y-122683823D01*
X134225659Y-122874298D01*
X134225158Y-122877679D01*
X134224594Y-122879043D01*
X134223870Y-122886393D01*
X134222791Y-122893691D01*
X134223008Y-122895149D01*
X134222673Y-122898552D01*
X134041720Y-122898552D01*
X134041384Y-122895149D01*
X134041602Y-122893691D01*
X134040522Y-122886393D01*
X134039799Y-122879043D01*
X134039234Y-122877679D01*
X134038734Y-122874298D01*
X133991115Y-122683822D01*
X133984520Y-122665362D01*
X133980093Y-122659387D01*
X133977248Y-122652519D01*
X133964812Y-122637365D01*
X133869574Y-122542127D01*
X133861903Y-122535832D01*
X133860174Y-122533838D01*
X133857166Y-122531944D01*
X133854420Y-122529691D01*
X133851980Y-122528680D01*
X133843584Y-122523395D01*
X133748346Y-122475776D01*
X133730038Y-122468770D01*
X133726454Y-122468515D01*
X133723134Y-122467140D01*
X133703625Y-122465219D01*
X133513149Y-122465219D01*
X133493640Y-122467140D01*
X133490319Y-122468515D01*
X133486736Y-122468770D01*
X133468427Y-122475776D01*
X133373190Y-122523395D01*
X133364791Y-122528681D01*
X133362354Y-122529691D01*
X133359610Y-122531942D01*
X133356599Y-122533838D01*
X133354866Y-122535835D01*
X133347200Y-122542127D01*
X133251962Y-122637365D01*
X133239526Y-122652519D01*
X133236680Y-122659387D01*
X133232254Y-122665362D01*
X133225659Y-122683823D01*
X133178040Y-122874298D01*
X133177539Y-122877679D01*
X133176975Y-122879043D01*
X133176251Y-122886393D01*
X133175172Y-122893691D01*
X133175389Y-122895149D01*
X133175054Y-122898552D01*
X132934476Y-122898552D01*
X132935925Y-122895655D01*
X132942931Y-122877346D01*
X132943185Y-122873762D01*
X132944561Y-122870442D01*
X132946482Y-122850933D01*
X132946482Y-122755695D01*
X132944561Y-122736186D01*
X132943185Y-122732865D01*
X132942931Y-122729282D01*
X132935925Y-122710973D01*
X132888306Y-122615736D01*
X132883020Y-122607339D01*
X132882010Y-122604899D01*
X132879756Y-122602153D01*
X132877863Y-122599145D01*
X132875865Y-122597412D01*
X132869573Y-122589746D01*
X132821955Y-122542127D01*
X132814284Y-122535832D01*
X132812555Y-122533838D01*
X132809547Y-122531944D01*
X132806801Y-122529691D01*
X132804361Y-122528680D01*
X132795965Y-122523395D01*
X132700727Y-122475776D01*
X132682419Y-122468770D01*
X132678835Y-122468515D01*
X132675515Y-122467140D01*
X132656006Y-122465219D01*
X132322673Y-122465219D01*
X132303164Y-122467140D01*
X132267116Y-122482072D01*
X132239526Y-122509662D01*
X132224594Y-122545710D01*
X132222673Y-122565219D01*
X132111562Y-122565219D01*
X132111562Y-122354108D01*
X136055672Y-122354108D01*
X136055672Y-123776330D01*
G37*
D13*
X114204819Y-101941904D02*
X115014342Y-101941904D01*
X115014342Y-101941904D02*
X115109580Y-101894285D01*
X115109580Y-101894285D02*
X115157200Y-101846666D01*
X115157200Y-101846666D02*
X115204819Y-101751428D01*
X115204819Y-101751428D02*
X115204819Y-101560952D01*
X115204819Y-101560952D02*
X115157200Y-101465714D01*
X115157200Y-101465714D02*
X115109580Y-101418095D01*
X115109580Y-101418095D02*
X115014342Y-101370476D01*
X115014342Y-101370476D02*
X114204819Y-101370476D01*
X114204819Y-100989523D02*
X114204819Y-100370476D01*
X114204819Y-100370476D02*
X114585771Y-100703809D01*
X114585771Y-100703809D02*
X114585771Y-100560952D01*
X114585771Y-100560952D02*
X114633390Y-100465714D01*
X114633390Y-100465714D02*
X114681009Y-100418095D01*
X114681009Y-100418095D02*
X114776247Y-100370476D01*
X114776247Y-100370476D02*
X115014342Y-100370476D01*
X115014342Y-100370476D02*
X115109580Y-100418095D01*
X115109580Y-100418095D02*
X115157200Y-100465714D01*
X115157200Y-100465714D02*
X115204819Y-100560952D01*
X115204819Y-100560952D02*
X115204819Y-100846666D01*
X115204819Y-100846666D02*
X115157200Y-100941904D01*
X115157200Y-100941904D02*
X115109580Y-100989523D01*
X124884819Y-107566666D02*
X124408628Y-107899999D01*
X124884819Y-108138094D02*
X123884819Y-108138094D01*
X123884819Y-108138094D02*
X123884819Y-107757142D01*
X123884819Y-107757142D02*
X123932438Y-107661904D01*
X123932438Y-107661904D02*
X123980057Y-107614285D01*
X123980057Y-107614285D02*
X124075295Y-107566666D01*
X124075295Y-107566666D02*
X124218152Y-107566666D01*
X124218152Y-107566666D02*
X124313390Y-107614285D01*
X124313390Y-107614285D02*
X124361009Y-107661904D01*
X124361009Y-107661904D02*
X124408628Y-107757142D01*
X124408628Y-107757142D02*
X124408628Y-108138094D01*
X124313390Y-106995237D02*
X124265771Y-107090475D01*
X124265771Y-107090475D02*
X124218152Y-107138094D01*
X124218152Y-107138094D02*
X124122914Y-107185713D01*
X124122914Y-107185713D02*
X124075295Y-107185713D01*
X124075295Y-107185713D02*
X123980057Y-107138094D01*
X123980057Y-107138094D02*
X123932438Y-107090475D01*
X123932438Y-107090475D02*
X123884819Y-106995237D01*
X123884819Y-106995237D02*
X123884819Y-106804761D01*
X123884819Y-106804761D02*
X123932438Y-106709523D01*
X123932438Y-106709523D02*
X123980057Y-106661904D01*
X123980057Y-106661904D02*
X124075295Y-106614285D01*
X124075295Y-106614285D02*
X124122914Y-106614285D01*
X124122914Y-106614285D02*
X124218152Y-106661904D01*
X124218152Y-106661904D02*
X124265771Y-106709523D01*
X124265771Y-106709523D02*
X124313390Y-106804761D01*
X124313390Y-106804761D02*
X124313390Y-106995237D01*
X124313390Y-106995237D02*
X124361009Y-107090475D01*
X124361009Y-107090475D02*
X124408628Y-107138094D01*
X124408628Y-107138094D02*
X124503866Y-107185713D01*
X124503866Y-107185713D02*
X124694342Y-107185713D01*
X124694342Y-107185713D02*
X124789580Y-107138094D01*
X124789580Y-107138094D02*
X124837200Y-107090475D01*
X124837200Y-107090475D02*
X124884819Y-106995237D01*
X124884819Y-106995237D02*
X124884819Y-106804761D01*
X124884819Y-106804761D02*
X124837200Y-106709523D01*
X124837200Y-106709523D02*
X124789580Y-106661904D01*
X124789580Y-106661904D02*
X124694342Y-106614285D01*
X124694342Y-106614285D02*
X124503866Y-106614285D01*
X124503866Y-106614285D02*
X124408628Y-106661904D01*
X124408628Y-106661904D02*
X124361009Y-106709523D01*
X124361009Y-106709523D02*
X124313390Y-106804761D01*
X120439333Y-117431205D02*
X120391714Y-117478825D01*
X120391714Y-117478825D02*
X120248857Y-117526444D01*
X120248857Y-117526444D02*
X120153619Y-117526444D01*
X120153619Y-117526444D02*
X120010762Y-117478825D01*
X120010762Y-117478825D02*
X119915524Y-117383586D01*
X119915524Y-117383586D02*
X119867905Y-117288348D01*
X119867905Y-117288348D02*
X119820286Y-117097872D01*
X119820286Y-117097872D02*
X119820286Y-116955015D01*
X119820286Y-116955015D02*
X119867905Y-116764539D01*
X119867905Y-116764539D02*
X119915524Y-116669301D01*
X119915524Y-116669301D02*
X120010762Y-116574063D01*
X120010762Y-116574063D02*
X120153619Y-116526444D01*
X120153619Y-116526444D02*
X120248857Y-116526444D01*
X120248857Y-116526444D02*
X120391714Y-116574063D01*
X120391714Y-116574063D02*
X120439333Y-116621682D01*
X121391714Y-117526444D02*
X120820286Y-117526444D01*
X121106000Y-117526444D02*
X121106000Y-116526444D01*
X121106000Y-116526444D02*
X121010762Y-116669301D01*
X121010762Y-116669301D02*
X120915524Y-116764539D01*
X120915524Y-116764539D02*
X120820286Y-116812158D01*
X126621708Y-112713944D02*
X126288375Y-112237753D01*
X126050280Y-112713944D02*
X126050280Y-111713944D01*
X126050280Y-111713944D02*
X126431232Y-111713944D01*
X126431232Y-111713944D02*
X126526470Y-111761563D01*
X126526470Y-111761563D02*
X126574089Y-111809182D01*
X126574089Y-111809182D02*
X126621708Y-111904420D01*
X126621708Y-111904420D02*
X126621708Y-112047277D01*
X126621708Y-112047277D02*
X126574089Y-112142515D01*
X126574089Y-112142515D02*
X126526470Y-112190134D01*
X126526470Y-112190134D02*
X126431232Y-112237753D01*
X126431232Y-112237753D02*
X126050280Y-112237753D01*
X126955042Y-111713944D02*
X127574089Y-111713944D01*
X127574089Y-111713944D02*
X127240756Y-112094896D01*
X127240756Y-112094896D02*
X127383613Y-112094896D01*
X127383613Y-112094896D02*
X127478851Y-112142515D01*
X127478851Y-112142515D02*
X127526470Y-112190134D01*
X127526470Y-112190134D02*
X127574089Y-112285372D01*
X127574089Y-112285372D02*
X127574089Y-112523467D01*
X127574089Y-112523467D02*
X127526470Y-112618705D01*
X127526470Y-112618705D02*
X127478851Y-112666325D01*
X127478851Y-112666325D02*
X127383613Y-112713944D01*
X127383613Y-112713944D02*
X127097899Y-112713944D01*
X127097899Y-112713944D02*
X127002661Y-112666325D01*
X127002661Y-112666325D02*
X126955042Y-112618705D01*
X119935666Y-125819819D02*
X119935666Y-126534104D01*
X119935666Y-126534104D02*
X119888047Y-126676961D01*
X119888047Y-126676961D02*
X119792809Y-126772200D01*
X119792809Y-126772200D02*
X119649952Y-126819819D01*
X119649952Y-126819819D02*
X119554714Y-126819819D01*
X120935666Y-126819819D02*
X120364238Y-126819819D01*
X120649952Y-126819819D02*
X120649952Y-125819819D01*
X120649952Y-125819819D02*
X120554714Y-125962676D01*
X120554714Y-125962676D02*
X120459476Y-126057914D01*
X120459476Y-126057914D02*
X120364238Y-126105533D01*
X129114819Y-107606666D02*
X128638628Y-107939999D01*
X129114819Y-108178094D02*
X128114819Y-108178094D01*
X128114819Y-108178094D02*
X128114819Y-107797142D01*
X128114819Y-107797142D02*
X128162438Y-107701904D01*
X128162438Y-107701904D02*
X128210057Y-107654285D01*
X128210057Y-107654285D02*
X128305295Y-107606666D01*
X128305295Y-107606666D02*
X128448152Y-107606666D01*
X128448152Y-107606666D02*
X128543390Y-107654285D01*
X128543390Y-107654285D02*
X128591009Y-107701904D01*
X128591009Y-107701904D02*
X128638628Y-107797142D01*
X128638628Y-107797142D02*
X128638628Y-108178094D01*
X129114819Y-107130475D02*
X129114819Y-106939999D01*
X129114819Y-106939999D02*
X129067200Y-106844761D01*
X129067200Y-106844761D02*
X129019580Y-106797142D01*
X129019580Y-106797142D02*
X128876723Y-106701904D01*
X128876723Y-106701904D02*
X128686247Y-106654285D01*
X128686247Y-106654285D02*
X128305295Y-106654285D01*
X128305295Y-106654285D02*
X128210057Y-106701904D01*
X128210057Y-106701904D02*
X128162438Y-106749523D01*
X128162438Y-106749523D02*
X128114819Y-106844761D01*
X128114819Y-106844761D02*
X128114819Y-107035237D01*
X128114819Y-107035237D02*
X128162438Y-107130475D01*
X128162438Y-107130475D02*
X128210057Y-107178094D01*
X128210057Y-107178094D02*
X128305295Y-107225713D01*
X128305295Y-107225713D02*
X128543390Y-107225713D01*
X128543390Y-107225713D02*
X128638628Y-107178094D01*
X128638628Y-107178094D02*
X128686247Y-107130475D01*
X128686247Y-107130475D02*
X128733866Y-107035237D01*
X128733866Y-107035237D02*
X128733866Y-106844761D01*
X128733866Y-106844761D02*
X128686247Y-106749523D01*
X128686247Y-106749523D02*
X128638628Y-106701904D01*
X128638628Y-106701904D02*
X128543390Y-106654285D01*
X111934666Y-96515819D02*
X111934666Y-97230104D01*
X111934666Y-97230104D02*
X111887047Y-97372961D01*
X111887047Y-97372961D02*
X111791809Y-97468200D01*
X111791809Y-97468200D02*
X111648952Y-97515819D01*
X111648952Y-97515819D02*
X111553714Y-97515819D01*
X112363238Y-96611057D02*
X112410857Y-96563438D01*
X112410857Y-96563438D02*
X112506095Y-96515819D01*
X112506095Y-96515819D02*
X112744190Y-96515819D01*
X112744190Y-96515819D02*
X112839428Y-96563438D01*
X112839428Y-96563438D02*
X112887047Y-96611057D01*
X112887047Y-96611057D02*
X112934666Y-96706295D01*
X112934666Y-96706295D02*
X112934666Y-96801533D01*
X112934666Y-96801533D02*
X112887047Y-96944390D01*
X112887047Y-96944390D02*
X112315619Y-97515819D01*
X112315619Y-97515819D02*
X112934666Y-97515819D01*
X133193194Y-116496029D02*
X134002717Y-116496029D01*
X134002717Y-116496029D02*
X134097955Y-116448410D01*
X134097955Y-116448410D02*
X134145575Y-116400791D01*
X134145575Y-116400791D02*
X134193194Y-116305553D01*
X134193194Y-116305553D02*
X134193194Y-116115077D01*
X134193194Y-116115077D02*
X134145575Y-116019839D01*
X134145575Y-116019839D02*
X134097955Y-115972220D01*
X134097955Y-115972220D02*
X134002717Y-115924601D01*
X134002717Y-115924601D02*
X133193194Y-115924601D01*
X134193194Y-114924601D02*
X134193194Y-115496029D01*
X134193194Y-115210315D02*
X133193194Y-115210315D01*
X133193194Y-115210315D02*
X133336051Y-115305553D01*
X133336051Y-115305553D02*
X133431289Y-115400791D01*
X133431289Y-115400791D02*
X133478908Y-115496029D01*
X115723333Y-122034819D02*
X115390000Y-121558628D01*
X115151905Y-122034819D02*
X115151905Y-121034819D01*
X115151905Y-121034819D02*
X115532857Y-121034819D01*
X115532857Y-121034819D02*
X115628095Y-121082438D01*
X115628095Y-121082438D02*
X115675714Y-121130057D01*
X115675714Y-121130057D02*
X115723333Y-121225295D01*
X115723333Y-121225295D02*
X115723333Y-121368152D01*
X115723333Y-121368152D02*
X115675714Y-121463390D01*
X115675714Y-121463390D02*
X115628095Y-121511009D01*
X115628095Y-121511009D02*
X115532857Y-121558628D01*
X115532857Y-121558628D02*
X115151905Y-121558628D01*
X116580476Y-121034819D02*
X116390000Y-121034819D01*
X116390000Y-121034819D02*
X116294762Y-121082438D01*
X116294762Y-121082438D02*
X116247143Y-121130057D01*
X116247143Y-121130057D02*
X116151905Y-121272914D01*
X116151905Y-121272914D02*
X116104286Y-121463390D01*
X116104286Y-121463390D02*
X116104286Y-121844342D01*
X116104286Y-121844342D02*
X116151905Y-121939580D01*
X116151905Y-121939580D02*
X116199524Y-121987200D01*
X116199524Y-121987200D02*
X116294762Y-122034819D01*
X116294762Y-122034819D02*
X116485238Y-122034819D01*
X116485238Y-122034819D02*
X116580476Y-121987200D01*
X116580476Y-121987200D02*
X116628095Y-121939580D01*
X116628095Y-121939580D02*
X116675714Y-121844342D01*
X116675714Y-121844342D02*
X116675714Y-121606247D01*
X116675714Y-121606247D02*
X116628095Y-121511009D01*
X116628095Y-121511009D02*
X116580476Y-121463390D01*
X116580476Y-121463390D02*
X116485238Y-121415771D01*
X116485238Y-121415771D02*
X116294762Y-121415771D01*
X116294762Y-121415771D02*
X116199524Y-121463390D01*
X116199524Y-121463390D02*
X116151905Y-121511009D01*
X116151905Y-121511009D02*
X116104286Y-121606247D01*
X138731666Y-119088819D02*
X138731666Y-119803104D01*
X138731666Y-119803104D02*
X138684047Y-119945961D01*
X138684047Y-119945961D02*
X138588809Y-120041200D01*
X138588809Y-120041200D02*
X138445952Y-120088819D01*
X138445952Y-120088819D02*
X138350714Y-120088819D01*
X139112619Y-119088819D02*
X139731666Y-119088819D01*
X139731666Y-119088819D02*
X139398333Y-119469771D01*
X139398333Y-119469771D02*
X139541190Y-119469771D01*
X139541190Y-119469771D02*
X139636428Y-119517390D01*
X139636428Y-119517390D02*
X139684047Y-119565009D01*
X139684047Y-119565009D02*
X139731666Y-119660247D01*
X139731666Y-119660247D02*
X139731666Y-119898342D01*
X139731666Y-119898342D02*
X139684047Y-119993580D01*
X139684047Y-119993580D02*
X139636428Y-120041200D01*
X139636428Y-120041200D02*
X139541190Y-120088819D01*
X139541190Y-120088819D02*
X139255476Y-120088819D01*
X139255476Y-120088819D02*
X139160238Y-120041200D01*
X139160238Y-120041200D02*
X139112619Y-119993580D01*
X113023333Y-122034819D02*
X112690000Y-121558628D01*
X112451905Y-122034819D02*
X112451905Y-121034819D01*
X112451905Y-121034819D02*
X112832857Y-121034819D01*
X112832857Y-121034819D02*
X112928095Y-121082438D01*
X112928095Y-121082438D02*
X112975714Y-121130057D01*
X112975714Y-121130057D02*
X113023333Y-121225295D01*
X113023333Y-121225295D02*
X113023333Y-121368152D01*
X113023333Y-121368152D02*
X112975714Y-121463390D01*
X112975714Y-121463390D02*
X112928095Y-121511009D01*
X112928095Y-121511009D02*
X112832857Y-121558628D01*
X112832857Y-121558628D02*
X112451905Y-121558628D01*
X113928095Y-121034819D02*
X113451905Y-121034819D01*
X113451905Y-121034819D02*
X113404286Y-121511009D01*
X113404286Y-121511009D02*
X113451905Y-121463390D01*
X113451905Y-121463390D02*
X113547143Y-121415771D01*
X113547143Y-121415771D02*
X113785238Y-121415771D01*
X113785238Y-121415771D02*
X113880476Y-121463390D01*
X113880476Y-121463390D02*
X113928095Y-121511009D01*
X113928095Y-121511009D02*
X113975714Y-121606247D01*
X113975714Y-121606247D02*
X113975714Y-121844342D01*
X113975714Y-121844342D02*
X113928095Y-121939580D01*
X113928095Y-121939580D02*
X113880476Y-121987200D01*
X113880476Y-121987200D02*
X113785238Y-122034819D01*
X113785238Y-122034819D02*
X113547143Y-122034819D01*
X113547143Y-122034819D02*
X113451905Y-121987200D01*
X113451905Y-121987200D02*
X113404286Y-121939580D01*
X140313580Y-123324857D02*
X140361200Y-123372476D01*
X140361200Y-123372476D02*
X140408819Y-123515333D01*
X140408819Y-123515333D02*
X140408819Y-123610571D01*
X140408819Y-123610571D02*
X140361200Y-123753428D01*
X140361200Y-123753428D02*
X140265961Y-123848666D01*
X140265961Y-123848666D02*
X140170723Y-123896285D01*
X140170723Y-123896285D02*
X139980247Y-123943904D01*
X139980247Y-123943904D02*
X139837390Y-123943904D01*
X139837390Y-123943904D02*
X139646914Y-123896285D01*
X139646914Y-123896285D02*
X139551676Y-123848666D01*
X139551676Y-123848666D02*
X139456438Y-123753428D01*
X139456438Y-123753428D02*
X139408819Y-123610571D01*
X139408819Y-123610571D02*
X139408819Y-123515333D01*
X139408819Y-123515333D02*
X139456438Y-123372476D01*
X139456438Y-123372476D02*
X139504057Y-123324857D01*
X140408819Y-122372476D02*
X140408819Y-122943904D01*
X140408819Y-122658190D02*
X139408819Y-122658190D01*
X139408819Y-122658190D02*
X139551676Y-122753428D01*
X139551676Y-122753428D02*
X139646914Y-122848666D01*
X139646914Y-122848666D02*
X139694533Y-122943904D01*
X139408819Y-121753428D02*
X139408819Y-121658190D01*
X139408819Y-121658190D02*
X139456438Y-121562952D01*
X139456438Y-121562952D02*
X139504057Y-121515333D01*
X139504057Y-121515333D02*
X139599295Y-121467714D01*
X139599295Y-121467714D02*
X139789771Y-121420095D01*
X139789771Y-121420095D02*
X140027866Y-121420095D01*
X140027866Y-121420095D02*
X140218342Y-121467714D01*
X140218342Y-121467714D02*
X140313580Y-121515333D01*
X140313580Y-121515333D02*
X140361200Y-121562952D01*
X140361200Y-121562952D02*
X140408819Y-121658190D01*
X140408819Y-121658190D02*
X140408819Y-121753428D01*
X140408819Y-121753428D02*
X140361200Y-121848666D01*
X140361200Y-121848666D02*
X140313580Y-121896285D01*
X140313580Y-121896285D02*
X140218342Y-121943904D01*
X140218342Y-121943904D02*
X140027866Y-121991523D01*
X140027866Y-121991523D02*
X139789771Y-121991523D01*
X139789771Y-121991523D02*
X139599295Y-121943904D01*
X139599295Y-121943904D02*
X139504057Y-121896285D01*
X139504057Y-121896285D02*
X139456438Y-121848666D01*
X139456438Y-121848666D02*
X139408819Y-121753428D01*
X123659580Y-111766666D02*
X123707200Y-111814285D01*
X123707200Y-111814285D02*
X123754819Y-111957142D01*
X123754819Y-111957142D02*
X123754819Y-112052380D01*
X123754819Y-112052380D02*
X123707200Y-112195237D01*
X123707200Y-112195237D02*
X123611961Y-112290475D01*
X123611961Y-112290475D02*
X123516723Y-112338094D01*
X123516723Y-112338094D02*
X123326247Y-112385713D01*
X123326247Y-112385713D02*
X123183390Y-112385713D01*
X123183390Y-112385713D02*
X122992914Y-112338094D01*
X122992914Y-112338094D02*
X122897676Y-112290475D01*
X122897676Y-112290475D02*
X122802438Y-112195237D01*
X122802438Y-112195237D02*
X122754819Y-112052380D01*
X122754819Y-112052380D02*
X122754819Y-111957142D01*
X122754819Y-111957142D02*
X122802438Y-111814285D01*
X122802438Y-111814285D02*
X122850057Y-111766666D01*
X122754819Y-111433332D02*
X122754819Y-110814285D01*
X122754819Y-110814285D02*
X123135771Y-111147618D01*
X123135771Y-111147618D02*
X123135771Y-111004761D01*
X123135771Y-111004761D02*
X123183390Y-110909523D01*
X123183390Y-110909523D02*
X123231009Y-110861904D01*
X123231009Y-110861904D02*
X123326247Y-110814285D01*
X123326247Y-110814285D02*
X123564342Y-110814285D01*
X123564342Y-110814285D02*
X123659580Y-110861904D01*
X123659580Y-110861904D02*
X123707200Y-110909523D01*
X123707200Y-110909523D02*
X123754819Y-111004761D01*
X123754819Y-111004761D02*
X123754819Y-111290475D01*
X123754819Y-111290475D02*
X123707200Y-111385713D01*
X123707200Y-111385713D02*
X123659580Y-111433332D01*
X120050280Y-119616444D02*
X120050280Y-118616444D01*
X120050280Y-118616444D02*
X120288375Y-118616444D01*
X120288375Y-118616444D02*
X120431232Y-118664063D01*
X120431232Y-118664063D02*
X120526470Y-118759301D01*
X120526470Y-118759301D02*
X120574089Y-118854539D01*
X120574089Y-118854539D02*
X120621708Y-119045015D01*
X120621708Y-119045015D02*
X120621708Y-119187872D01*
X120621708Y-119187872D02*
X120574089Y-119378348D01*
X120574089Y-119378348D02*
X120526470Y-119473586D01*
X120526470Y-119473586D02*
X120431232Y-119568825D01*
X120431232Y-119568825D02*
X120288375Y-119616444D01*
X120288375Y-119616444D02*
X120050280Y-119616444D01*
X121574089Y-119616444D02*
X121002661Y-119616444D01*
X121288375Y-119616444D02*
X121288375Y-118616444D01*
X121288375Y-118616444D02*
X121193137Y-118759301D01*
X121193137Y-118759301D02*
X121097899Y-118854539D01*
X121097899Y-118854539D02*
X121002661Y-118902158D01*
X136953333Y-121984819D02*
X136620000Y-121508628D01*
X136381905Y-121984819D02*
X136381905Y-120984819D01*
X136381905Y-120984819D02*
X136762857Y-120984819D01*
X136762857Y-120984819D02*
X136858095Y-121032438D01*
X136858095Y-121032438D02*
X136905714Y-121080057D01*
X136905714Y-121080057D02*
X136953333Y-121175295D01*
X136953333Y-121175295D02*
X136953333Y-121318152D01*
X136953333Y-121318152D02*
X136905714Y-121413390D01*
X136905714Y-121413390D02*
X136858095Y-121461009D01*
X136858095Y-121461009D02*
X136762857Y-121508628D01*
X136762857Y-121508628D02*
X136381905Y-121508628D01*
X137286667Y-120984819D02*
X137953333Y-120984819D01*
X137953333Y-120984819D02*
X137524762Y-121984819D01*
X126873194Y-118728291D02*
X126397003Y-119061624D01*
X126873194Y-119299719D02*
X125873194Y-119299719D01*
X125873194Y-119299719D02*
X125873194Y-118918767D01*
X125873194Y-118918767D02*
X125920813Y-118823529D01*
X125920813Y-118823529D02*
X125968432Y-118775910D01*
X125968432Y-118775910D02*
X126063670Y-118728291D01*
X126063670Y-118728291D02*
X126206527Y-118728291D01*
X126206527Y-118728291D02*
X126301765Y-118775910D01*
X126301765Y-118775910D02*
X126349384Y-118823529D01*
X126349384Y-118823529D02*
X126397003Y-118918767D01*
X126397003Y-118918767D02*
X126397003Y-119299719D01*
X125968432Y-118347338D02*
X125920813Y-118299719D01*
X125920813Y-118299719D02*
X125873194Y-118204481D01*
X125873194Y-118204481D02*
X125873194Y-117966386D01*
X125873194Y-117966386D02*
X125920813Y-117871148D01*
X125920813Y-117871148D02*
X125968432Y-117823529D01*
X125968432Y-117823529D02*
X126063670Y-117775910D01*
X126063670Y-117775910D02*
X126158908Y-117775910D01*
X126158908Y-117775910D02*
X126301765Y-117823529D01*
X126301765Y-117823529D02*
X126873194Y-118394957D01*
X126873194Y-118394957D02*
X126873194Y-117775910D01*
X117671708Y-116621205D02*
X117624089Y-116668825D01*
X117624089Y-116668825D02*
X117481232Y-116716444D01*
X117481232Y-116716444D02*
X117385994Y-116716444D01*
X117385994Y-116716444D02*
X117243137Y-116668825D01*
X117243137Y-116668825D02*
X117147899Y-116573586D01*
X117147899Y-116573586D02*
X117100280Y-116478348D01*
X117100280Y-116478348D02*
X117052661Y-116287872D01*
X117052661Y-116287872D02*
X117052661Y-116145015D01*
X117052661Y-116145015D02*
X117100280Y-115954539D01*
X117100280Y-115954539D02*
X117147899Y-115859301D01*
X117147899Y-115859301D02*
X117243137Y-115764063D01*
X117243137Y-115764063D02*
X117385994Y-115716444D01*
X117385994Y-115716444D02*
X117481232Y-115716444D01*
X117481232Y-115716444D02*
X117624089Y-115764063D01*
X117624089Y-115764063D02*
X117671708Y-115811682D01*
X118528851Y-116049777D02*
X118528851Y-116716444D01*
X118290756Y-115668825D02*
X118052661Y-116383110D01*
X118052661Y-116383110D02*
X118671708Y-116383110D01*
X113220667Y-127915200D02*
X113363524Y-127962819D01*
X113363524Y-127962819D02*
X113601619Y-127962819D01*
X113601619Y-127962819D02*
X113696857Y-127915200D01*
X113696857Y-127915200D02*
X113744476Y-127867580D01*
X113744476Y-127867580D02*
X113792095Y-127772342D01*
X113792095Y-127772342D02*
X113792095Y-127677104D01*
X113792095Y-127677104D02*
X113744476Y-127581866D01*
X113744476Y-127581866D02*
X113696857Y-127534247D01*
X113696857Y-127534247D02*
X113601619Y-127486628D01*
X113601619Y-127486628D02*
X113411143Y-127439009D01*
X113411143Y-127439009D02*
X113315905Y-127391390D01*
X113315905Y-127391390D02*
X113268286Y-127343771D01*
X113268286Y-127343771D02*
X113220667Y-127248533D01*
X113220667Y-127248533D02*
X113220667Y-127153295D01*
X113220667Y-127153295D02*
X113268286Y-127058057D01*
X113268286Y-127058057D02*
X113315905Y-127010438D01*
X113315905Y-127010438D02*
X113411143Y-126962819D01*
X113411143Y-126962819D02*
X113649238Y-126962819D01*
X113649238Y-126962819D02*
X113792095Y-127010438D01*
X114125429Y-126962819D02*
X114363524Y-127962819D01*
X114363524Y-127962819D02*
X114554000Y-127248533D01*
X114554000Y-127248533D02*
X114744476Y-127962819D01*
X114744476Y-127962819D02*
X114982572Y-126962819D01*
X115887333Y-127962819D02*
X115315905Y-127962819D01*
X115601619Y-127962819D02*
X115601619Y-126962819D01*
X115601619Y-126962819D02*
X115506381Y-127105676D01*
X115506381Y-127105676D02*
X115411143Y-127200914D01*
X115411143Y-127200914D02*
X115315905Y-127248533D01*
X119309580Y-124826666D02*
X119357200Y-124874285D01*
X119357200Y-124874285D02*
X119404819Y-125017142D01*
X119404819Y-125017142D02*
X119404819Y-125112380D01*
X119404819Y-125112380D02*
X119357200Y-125255237D01*
X119357200Y-125255237D02*
X119261961Y-125350475D01*
X119261961Y-125350475D02*
X119166723Y-125398094D01*
X119166723Y-125398094D02*
X118976247Y-125445713D01*
X118976247Y-125445713D02*
X118833390Y-125445713D01*
X118833390Y-125445713D02*
X118642914Y-125398094D01*
X118642914Y-125398094D02*
X118547676Y-125350475D01*
X118547676Y-125350475D02*
X118452438Y-125255237D01*
X118452438Y-125255237D02*
X118404819Y-125112380D01*
X118404819Y-125112380D02*
X118404819Y-125017142D01*
X118404819Y-125017142D02*
X118452438Y-124874285D01*
X118452438Y-124874285D02*
X118500057Y-124826666D01*
X119404819Y-124350475D02*
X119404819Y-124159999D01*
X119404819Y-124159999D02*
X119357200Y-124064761D01*
X119357200Y-124064761D02*
X119309580Y-124017142D01*
X119309580Y-124017142D02*
X119166723Y-123921904D01*
X119166723Y-123921904D02*
X118976247Y-123874285D01*
X118976247Y-123874285D02*
X118595295Y-123874285D01*
X118595295Y-123874285D02*
X118500057Y-123921904D01*
X118500057Y-123921904D02*
X118452438Y-123969523D01*
X118452438Y-123969523D02*
X118404819Y-124064761D01*
X118404819Y-124064761D02*
X118404819Y-124255237D01*
X118404819Y-124255237D02*
X118452438Y-124350475D01*
X118452438Y-124350475D02*
X118500057Y-124398094D01*
X118500057Y-124398094D02*
X118595295Y-124445713D01*
X118595295Y-124445713D02*
X118833390Y-124445713D01*
X118833390Y-124445713D02*
X118928628Y-124398094D01*
X118928628Y-124398094D02*
X118976247Y-124350475D01*
X118976247Y-124350475D02*
X119023866Y-124255237D01*
X119023866Y-124255237D02*
X119023866Y-124064761D01*
X119023866Y-124064761D02*
X118976247Y-123969523D01*
X118976247Y-123969523D02*
X118928628Y-123921904D01*
X118928628Y-123921904D02*
X118833390Y-123874285D01*
X130873194Y-118838291D02*
X130397003Y-119171624D01*
X130873194Y-119409719D02*
X129873194Y-119409719D01*
X129873194Y-119409719D02*
X129873194Y-119028767D01*
X129873194Y-119028767D02*
X129920813Y-118933529D01*
X129920813Y-118933529D02*
X129968432Y-118885910D01*
X129968432Y-118885910D02*
X130063670Y-118838291D01*
X130063670Y-118838291D02*
X130206527Y-118838291D01*
X130206527Y-118838291D02*
X130301765Y-118885910D01*
X130301765Y-118885910D02*
X130349384Y-118933529D01*
X130349384Y-118933529D02*
X130397003Y-119028767D01*
X130397003Y-119028767D02*
X130397003Y-119409719D01*
X130873194Y-117885910D02*
X130873194Y-118457338D01*
X130873194Y-118171624D02*
X129873194Y-118171624D01*
X129873194Y-118171624D02*
X130016051Y-118266862D01*
X130016051Y-118266862D02*
X130111289Y-118362100D01*
X130111289Y-118362100D02*
X130158908Y-118457338D01*
X115309580Y-92566666D02*
X115357200Y-92614285D01*
X115357200Y-92614285D02*
X115404819Y-92757142D01*
X115404819Y-92757142D02*
X115404819Y-92852380D01*
X115404819Y-92852380D02*
X115357200Y-92995237D01*
X115357200Y-92995237D02*
X115261961Y-93090475D01*
X115261961Y-93090475D02*
X115166723Y-93138094D01*
X115166723Y-93138094D02*
X114976247Y-93185713D01*
X114976247Y-93185713D02*
X114833390Y-93185713D01*
X114833390Y-93185713D02*
X114642914Y-93138094D01*
X114642914Y-93138094D02*
X114547676Y-93090475D01*
X114547676Y-93090475D02*
X114452438Y-92995237D01*
X114452438Y-92995237D02*
X114404819Y-92852380D01*
X114404819Y-92852380D02*
X114404819Y-92757142D01*
X114404819Y-92757142D02*
X114452438Y-92614285D01*
X114452438Y-92614285D02*
X114500057Y-92566666D01*
X114404819Y-91709523D02*
X114404819Y-91899999D01*
X114404819Y-91899999D02*
X114452438Y-91995237D01*
X114452438Y-91995237D02*
X114500057Y-92042856D01*
X114500057Y-92042856D02*
X114642914Y-92138094D01*
X114642914Y-92138094D02*
X114833390Y-92185713D01*
X114833390Y-92185713D02*
X115214342Y-92185713D01*
X115214342Y-92185713D02*
X115309580Y-92138094D01*
X115309580Y-92138094D02*
X115357200Y-92090475D01*
X115357200Y-92090475D02*
X115404819Y-91995237D01*
X115404819Y-91995237D02*
X115404819Y-91804761D01*
X115404819Y-91804761D02*
X115357200Y-91709523D01*
X115357200Y-91709523D02*
X115309580Y-91661904D01*
X115309580Y-91661904D02*
X115214342Y-91614285D01*
X115214342Y-91614285D02*
X114976247Y-91614285D01*
X114976247Y-91614285D02*
X114881009Y-91661904D01*
X114881009Y-91661904D02*
X114833390Y-91709523D01*
X114833390Y-91709523D02*
X114785771Y-91804761D01*
X114785771Y-91804761D02*
X114785771Y-91995237D01*
X114785771Y-91995237D02*
X114833390Y-92090475D01*
X114833390Y-92090475D02*
X114881009Y-92138094D01*
X114881009Y-92138094D02*
X114976247Y-92185713D01*
X135396667Y-128042200D02*
X135539524Y-128089819D01*
X135539524Y-128089819D02*
X135777619Y-128089819D01*
X135777619Y-128089819D02*
X135872857Y-128042200D01*
X135872857Y-128042200D02*
X135920476Y-127994580D01*
X135920476Y-127994580D02*
X135968095Y-127899342D01*
X135968095Y-127899342D02*
X135968095Y-127804104D01*
X135968095Y-127804104D02*
X135920476Y-127708866D01*
X135920476Y-127708866D02*
X135872857Y-127661247D01*
X135872857Y-127661247D02*
X135777619Y-127613628D01*
X135777619Y-127613628D02*
X135587143Y-127566009D01*
X135587143Y-127566009D02*
X135491905Y-127518390D01*
X135491905Y-127518390D02*
X135444286Y-127470771D01*
X135444286Y-127470771D02*
X135396667Y-127375533D01*
X135396667Y-127375533D02*
X135396667Y-127280295D01*
X135396667Y-127280295D02*
X135444286Y-127185057D01*
X135444286Y-127185057D02*
X135491905Y-127137438D01*
X135491905Y-127137438D02*
X135587143Y-127089819D01*
X135587143Y-127089819D02*
X135825238Y-127089819D01*
X135825238Y-127089819D02*
X135968095Y-127137438D01*
X136301429Y-127089819D02*
X136539524Y-128089819D01*
X136539524Y-128089819D02*
X136730000Y-127375533D01*
X136730000Y-127375533D02*
X136920476Y-128089819D01*
X136920476Y-128089819D02*
X137158572Y-127089819D01*
X137491905Y-127185057D02*
X137539524Y-127137438D01*
X137539524Y-127137438D02*
X137634762Y-127089819D01*
X137634762Y-127089819D02*
X137872857Y-127089819D01*
X137872857Y-127089819D02*
X137968095Y-127137438D01*
X137968095Y-127137438D02*
X138015714Y-127185057D01*
X138015714Y-127185057D02*
X138063333Y-127280295D01*
X138063333Y-127280295D02*
X138063333Y-127375533D01*
X138063333Y-127375533D02*
X138015714Y-127518390D01*
X138015714Y-127518390D02*
X137444286Y-128089819D01*
X137444286Y-128089819D02*
X138063333Y-128089819D01*
X114554819Y-112061904D02*
X115364342Y-112061904D01*
X115364342Y-112061904D02*
X115459580Y-112014285D01*
X115459580Y-112014285D02*
X115507200Y-111966666D01*
X115507200Y-111966666D02*
X115554819Y-111871428D01*
X115554819Y-111871428D02*
X115554819Y-111680952D01*
X115554819Y-111680952D02*
X115507200Y-111585714D01*
X115507200Y-111585714D02*
X115459580Y-111538095D01*
X115459580Y-111538095D02*
X115364342Y-111490476D01*
X115364342Y-111490476D02*
X114554819Y-111490476D01*
X114650057Y-111061904D02*
X114602438Y-111014285D01*
X114602438Y-111014285D02*
X114554819Y-110919047D01*
X114554819Y-110919047D02*
X114554819Y-110680952D01*
X114554819Y-110680952D02*
X114602438Y-110585714D01*
X114602438Y-110585714D02*
X114650057Y-110538095D01*
X114650057Y-110538095D02*
X114745295Y-110490476D01*
X114745295Y-110490476D02*
X114840533Y-110490476D01*
X114840533Y-110490476D02*
X114983390Y-110538095D01*
X114983390Y-110538095D02*
X115554819Y-111109523D01*
X115554819Y-111109523D02*
X115554819Y-110490476D01*
X111709580Y-91266666D02*
X111757200Y-91314285D01*
X111757200Y-91314285D02*
X111804819Y-91457142D01*
X111804819Y-91457142D02*
X111804819Y-91552380D01*
X111804819Y-91552380D02*
X111757200Y-91695237D01*
X111757200Y-91695237D02*
X111661961Y-91790475D01*
X111661961Y-91790475D02*
X111566723Y-91838094D01*
X111566723Y-91838094D02*
X111376247Y-91885713D01*
X111376247Y-91885713D02*
X111233390Y-91885713D01*
X111233390Y-91885713D02*
X111042914Y-91838094D01*
X111042914Y-91838094D02*
X110947676Y-91790475D01*
X110947676Y-91790475D02*
X110852438Y-91695237D01*
X110852438Y-91695237D02*
X110804819Y-91552380D01*
X110804819Y-91552380D02*
X110804819Y-91457142D01*
X110804819Y-91457142D02*
X110852438Y-91314285D01*
X110852438Y-91314285D02*
X110900057Y-91266666D01*
X110804819Y-90361904D02*
X110804819Y-90838094D01*
X110804819Y-90838094D02*
X111281009Y-90885713D01*
X111281009Y-90885713D02*
X111233390Y-90838094D01*
X111233390Y-90838094D02*
X111185771Y-90742856D01*
X111185771Y-90742856D02*
X111185771Y-90504761D01*
X111185771Y-90504761D02*
X111233390Y-90409523D01*
X111233390Y-90409523D02*
X111281009Y-90361904D01*
X111281009Y-90361904D02*
X111376247Y-90314285D01*
X111376247Y-90314285D02*
X111614342Y-90314285D01*
X111614342Y-90314285D02*
X111709580Y-90361904D01*
X111709580Y-90361904D02*
X111757200Y-90409523D01*
X111757200Y-90409523D02*
X111804819Y-90504761D01*
X111804819Y-90504761D02*
X111804819Y-90742856D01*
X111804819Y-90742856D02*
X111757200Y-90838094D01*
X111757200Y-90838094D02*
X111709580Y-90885713D01*
X124371708Y-115221205D02*
X124324089Y-115268825D01*
X124324089Y-115268825D02*
X124181232Y-115316444D01*
X124181232Y-115316444D02*
X124085994Y-115316444D01*
X124085994Y-115316444D02*
X123943137Y-115268825D01*
X123943137Y-115268825D02*
X123847899Y-115173586D01*
X123847899Y-115173586D02*
X123800280Y-115078348D01*
X123800280Y-115078348D02*
X123752661Y-114887872D01*
X123752661Y-114887872D02*
X123752661Y-114745015D01*
X123752661Y-114745015D02*
X123800280Y-114554539D01*
X123800280Y-114554539D02*
X123847899Y-114459301D01*
X123847899Y-114459301D02*
X123943137Y-114364063D01*
X123943137Y-114364063D02*
X124085994Y-114316444D01*
X124085994Y-114316444D02*
X124181232Y-114316444D01*
X124181232Y-114316444D02*
X124324089Y-114364063D01*
X124324089Y-114364063D02*
X124371708Y-114411682D01*
X124752661Y-114411682D02*
X124800280Y-114364063D01*
X124800280Y-114364063D02*
X124895518Y-114316444D01*
X124895518Y-114316444D02*
X125133613Y-114316444D01*
X125133613Y-114316444D02*
X125228851Y-114364063D01*
X125228851Y-114364063D02*
X125276470Y-114411682D01*
X125276470Y-114411682D02*
X125324089Y-114506920D01*
X125324089Y-114506920D02*
X125324089Y-114602158D01*
X125324089Y-114602158D02*
X125276470Y-114745015D01*
X125276470Y-114745015D02*
X124705042Y-115316444D01*
X124705042Y-115316444D02*
X125324089Y-115316444D01*
%TO.C,U3*%
D14*
X116140000Y-82840000D02*
X116140000Y-88650000D01*
X116140000Y-82840000D02*
X134360000Y-82840000D01*
X116140000Y-102760000D02*
X116140000Y-103060000D01*
X116140000Y-103060000D02*
X134360000Y-103060000D01*
X134360000Y-82840000D02*
X134360000Y-89340000D01*
X134360000Y-102760000D02*
X134360000Y-103060000D01*
X116150000Y-89350000D02*
X115650000Y-89350000D01*
X116150000Y-88850000D01*
X116150000Y-89350000D01*
G36*
X116150000Y-89350000D02*
G01*
X115650000Y-89350000D01*
X116150000Y-88850000D01*
X116150000Y-89350000D01*
G37*
%TO.C,R8*%
X125220000Y-107553641D02*
X125220000Y-107246359D01*
X125980000Y-107553641D02*
X125980000Y-107246359D01*
%TO.C,C1*%
X123517252Y-117796625D02*
X122994748Y-117796625D01*
X123517252Y-116326625D02*
X122994748Y-116326625D01*
%TO.C,R3*%
X125953375Y-115398689D02*
X125953375Y-114944561D01*
X127423375Y-115398689D02*
X127423375Y-114944561D01*
%TO.C,J1*%
X122378375Y-123036625D02*
X122378375Y-124956625D01*
X122378375Y-128671625D02*
X122378375Y-126966625D01*
X131538375Y-124956625D02*
X131538375Y-123036625D01*
X131538375Y-126966625D02*
X131538375Y-128671625D01*
X131538375Y-128671625D02*
X122378375Y-128671625D01*
%TO.C,R9*%
X126770000Y-107543641D02*
X126770000Y-107236359D01*
X127530000Y-107543641D02*
X127530000Y-107236359D01*
%TO.C,J2*%
X110888000Y-98061000D02*
X112268000Y-98061000D01*
X110888000Y-99441000D02*
X110888000Y-98061000D01*
X110888000Y-100711000D02*
X110888000Y-118601000D01*
X110888000Y-100711000D02*
X113648000Y-100711000D01*
X110888000Y-118601000D02*
X113648000Y-118601000D01*
X113648000Y-100711000D02*
X113648000Y-118601000D01*
%TO.C,U1*%
X128378375Y-114024125D02*
X128428375Y-114024125D01*
X128378375Y-115844125D02*
X128378375Y-114024125D01*
X128428375Y-115844125D02*
X128378375Y-115844125D01*
X131448375Y-114024125D02*
X131498375Y-114024125D01*
X131498375Y-114024125D02*
X131498375Y-115844125D01*
X131498375Y-115844125D02*
X131448375Y-115844125D01*
X128428375Y-116384125D02*
X128098375Y-116624125D01*
X128098375Y-116144125D01*
X128428375Y-116384125D01*
G36*
X128428375Y-116384125D02*
G01*
X128098375Y-116624125D01*
X128098375Y-116144125D01*
X128428375Y-116384125D01*
G37*
%TO.C,R6*%
X115953641Y-123160000D02*
X115646359Y-123160000D01*
X115953641Y-122400000D02*
X115646359Y-122400000D01*
%TO.C,J3*%
X137558000Y-97553000D02*
X138938000Y-97553000D01*
X137558000Y-98933000D02*
X137558000Y-97553000D01*
X137558000Y-100203000D02*
X137558000Y-118093000D01*
X137558000Y-100203000D02*
X140318000Y-100203000D01*
X137558000Y-118093000D02*
X140318000Y-118093000D01*
X140318000Y-100203000D02*
X140318000Y-118093000D01*
%TO.C,R5*%
X113453641Y-123160000D02*
X113146359Y-123160000D01*
X113453641Y-122400000D02*
X113146359Y-122400000D01*
%TO.C,C10*%
X139770000Y-125192164D02*
X139770000Y-125407836D01*
X140490000Y-125192164D02*
X140490000Y-125407836D01*
%TO.C,C3*%
X120565000Y-111611252D02*
X120565000Y-111088748D01*
X122035000Y-111611252D02*
X122035000Y-111088748D01*
%TO.C,D1*%
X124598375Y-118351625D02*
X123188375Y-118351625D01*
X124598375Y-119571625D02*
X123188375Y-119571625D01*
X124598375Y-119571625D02*
X124598375Y-118351625D01*
%TO.C,R7*%
X136966359Y-122320000D02*
X137273641Y-122320000D01*
X136966359Y-123080000D02*
X137273641Y-123080000D01*
%TO.C,R2*%
X127208375Y-118715266D02*
X127208375Y-118407984D01*
X127968375Y-118715266D02*
X127968375Y-118407984D01*
%TO.C,C4*%
X117677123Y-113626625D02*
X118199627Y-113626625D01*
X117677123Y-115096625D02*
X118199627Y-115096625D01*
%TO.C,SW1*%
X116350000Y-126600000D02*
X116350000Y-126300000D01*
X116350000Y-123800000D02*
X116350000Y-124100000D01*
X113050000Y-126600000D02*
X116350000Y-126600000D01*
X113050000Y-126300000D02*
X113050000Y-126600000D01*
X113050000Y-124100000D02*
X113050000Y-123800000D01*
X113050000Y-123800000D02*
X116350000Y-123800000D01*
%TO.C,C9*%
X118150000Y-124552164D02*
X118150000Y-124767836D01*
X117430000Y-124552164D02*
X117430000Y-124767836D01*
%TO.C,R1*%
X131208375Y-118825266D02*
X131208375Y-118517984D01*
X131968375Y-118825266D02*
X131968375Y-118517984D01*
%TO.C,C6*%
X114440000Y-90292164D02*
X114440000Y-90507836D01*
X115160000Y-90292164D02*
X115160000Y-90507836D01*
%TO.C,SW2*%
X135250000Y-123900000D02*
X138550000Y-123900000D01*
X135250000Y-124200000D02*
X135250000Y-123900000D01*
X135250000Y-126400000D02*
X135250000Y-126700000D01*
X135250000Y-126700000D02*
X138550000Y-126700000D01*
X138550000Y-123900000D02*
X138550000Y-124200000D01*
X138550000Y-126700000D02*
X138550000Y-126400000D01*
%TO.C,U2*%
X117090000Y-109740000D02*
X118910000Y-109740000D01*
X117090000Y-109790000D02*
X117090000Y-109740000D01*
X117090000Y-111690000D02*
X117090000Y-110910000D01*
X117090000Y-112860000D02*
X117090000Y-112810000D01*
X118910000Y-109740000D02*
X118910000Y-109790000D01*
X118910000Y-112810000D02*
X118910000Y-112860000D01*
X118910000Y-112860000D02*
X117090000Y-112860000D01*
X119690000Y-113140000D02*
X119210000Y-113140000D01*
X119450000Y-112810000D01*
X119690000Y-113140000D01*
G36*
X119690000Y-113140000D02*
G01*
X119210000Y-113140000D01*
X119450000Y-112810000D01*
X119690000Y-113140000D01*
G37*
%TO.C,C5*%
X112265000Y-90788748D02*
X112265000Y-91311252D01*
X113735000Y-90788748D02*
X113735000Y-91311252D01*
%TO.C,C2*%
X121327123Y-113726625D02*
X121849627Y-113726625D01*
X121327123Y-115196625D02*
X121849627Y-115196625D01*
%TD*%
M02*
