%TF.GenerationSoftware,KiCad,Pcbnew,10.0.0*%
%TF.CreationDate,2026-04-14T08:10:59-07:00*%
%TF.ProjectId,ESP32,45535033-322e-46b6-9963-61645f706362,rev?*%
%TF.SameCoordinates,Original*%
%TF.FileFunction,Copper,L1,Top*%
%TF.FilePolarity,Positive*%
%FSLAX46Y46*%
G04 Gerber Fmt 4.6, Leading zero omitted, Abs format (unit mm)*
G04 Created by KiCad (PCBNEW 10.0.0) date 2026-04-14 08:10:59*
%MOMM*%
%LPD*%
G01*
G04 APERTURE LIST*
G04 Aperture macros list*
%AMRoundRect*
0 Rectangle with rounded corners*
0 $1 Rounding radius*
0 $2 $3 $4 $5 $6 $7 $8 $9 X,Y pos of 4 corners*
0 Add a 4 corners polygon primitive as box body*
4,1,4,$2,$3,$4,$5,$6,$7,$8,$9,$2,$3,0*
0 Add four circle primitives for the rounded corners*
1,1,$1+$1,$2,$3*
1,1,$1+$1,$4,$5*
1,1,$1+$1,$6,$7*
1,1,$1+$1,$8,$9*
0 Add four rect primitives between the rounded corners*
20,1,$1+$1,$2,$3,$4,$5,0*
20,1,$1+$1,$4,$5,$6,$7,0*
20,1,$1+$1,$6,$7,$8,$9,0*
20,1,$1+$1,$8,$9,$2,$3,0*%
G04 Aperture macros list end*
%TA.AperFunction,SMDPad,CuDef*%
%ADD10R,1.500000X0.900000*%
%TD*%
%TA.AperFunction,HeatsinkPad*%
%ADD11C,0.600000*%
%TD*%
%TA.AperFunction,HeatsinkPad*%
%ADD12R,2.900000X2.900000*%
%TD*%
%TA.AperFunction,SMDPad,CuDef*%
%ADD13RoundRect,0.135000X0.185000X-0.135000X0.185000X0.135000X-0.185000X0.135000X-0.185000X-0.135000X0*%
%TD*%
%TA.AperFunction,SMDPad,CuDef*%
%ADD14RoundRect,0.250000X0.250000X0.475000X-0.250000X0.475000X-0.250000X-0.475000X0.250000X-0.475000X0*%
%TD*%
%TA.AperFunction,SMDPad,CuDef*%
%ADD15RoundRect,0.250000X0.450000X-0.262500X0.450000X0.262500X-0.450000X0.262500X-0.450000X-0.262500X0*%
%TD*%
%TA.AperFunction,SMDPad,CuDef*%
%ADD16RoundRect,0.150000X-0.150000X-0.470000X0.150000X-0.470000X0.150000X0.470000X-0.150000X0.470000X0*%
%TD*%
%TA.AperFunction,SMDPad,CuDef*%
%ADD17RoundRect,0.075000X-0.075000X-0.545000X0.075000X-0.545000X0.075000X0.545000X-0.075000X0.545000X0*%
%TD*%
%TA.AperFunction,ComponentPad*%
%ADD18O,1.000000X2.100000*%
%TD*%
%TA.AperFunction,ComponentPad*%
%ADD19O,1.000000X1.800000*%
%TD*%
%TA.AperFunction,ComponentPad*%
%ADD20R,1.700000X1.700000*%
%TD*%
%TA.AperFunction,ComponentPad*%
%ADD21C,1.700000*%
%TD*%
%TA.AperFunction,SMDPad,CuDef*%
%ADD22RoundRect,0.150000X0.150000X-0.512500X0.150000X0.512500X-0.150000X0.512500X-0.150000X-0.512500X0*%
%TD*%
%TA.AperFunction,SMDPad,CuDef*%
%ADD23RoundRect,0.135000X0.135000X0.185000X-0.135000X0.185000X-0.135000X-0.185000X0.135000X-0.185000X0*%
%TD*%
%TA.AperFunction,SMDPad,CuDef*%
%ADD24RoundRect,0.140000X-0.170000X0.140000X-0.170000X-0.140000X0.170000X-0.140000X0.170000X0.140000X0*%
%TD*%
%TA.AperFunction,SMDPad,CuDef*%
%ADD25RoundRect,0.250000X0.475000X-0.250000X0.475000X0.250000X-0.475000X0.250000X-0.475000X-0.250000X0*%
%TD*%
%TA.AperFunction,SMDPad,CuDef*%
%ADD26RoundRect,0.125000X0.125000X0.225000X-0.125000X0.225000X-0.125000X-0.225000X0.125000X-0.225000X0*%
%TD*%
%TA.AperFunction,SMDPad,CuDef*%
%ADD27RoundRect,0.135000X-0.135000X-0.185000X0.135000X-0.185000X0.135000X0.185000X-0.135000X0.185000X0*%
%TD*%
%TA.AperFunction,SMDPad,CuDef*%
%ADD28RoundRect,0.250000X-0.250000X-0.475000X0.250000X-0.475000X0.250000X0.475000X-0.250000X0.475000X0*%
%TD*%
%TA.AperFunction,SMDPad,CuDef*%
%ADD29R,0.900000X1.700000*%
%TD*%
%TA.AperFunction,SMDPad,CuDef*%
%ADD30RoundRect,0.150000X0.512500X0.150000X-0.512500X0.150000X-0.512500X-0.150000X0.512500X-0.150000X0*%
%TD*%
%TA.AperFunction,SMDPad,CuDef*%
%ADD31RoundRect,0.250000X-0.475000X0.250000X-0.475000X-0.250000X0.475000X-0.250000X0.475000X0.250000X0*%
%TD*%
%TA.AperFunction,ViaPad*%
%ADD32C,0.600000*%
%TD*%
%TA.AperFunction,Conductor*%
%ADD33C,0.200000*%
%TD*%
%TA.AperFunction,Conductor*%
%ADD34C,0.150000*%
%TD*%
G04 APERTURE END LIST*
D10*
%TO.P,U3,1,3V3_1*%
%TO.N,+3V3*%
X116500000Y-90050000D03*
%TO.P,U3,2,EN_2*%
%TO.N,EN*%
X116500000Y-91550000D03*
%TO.P,U3,3,IO4_3*%
%TO.N,IO4*%
X116500000Y-93050000D03*
%TO.P,U3,4,IO5_4*%
%TO.N,IO5*%
X116500000Y-94550000D03*
%TO.P,U3,5,IO6_5*%
%TO.N,IO6*%
X116500000Y-96050000D03*
%TO.P,U3,6,IO7_6*%
%TO.N,IO7*%
X116500000Y-97550000D03*
%TO.P,U3,7,IO8_7*%
%TO.N,IO8*%
X116500000Y-99050000D03*
%TO.P,U3,8,IO9_8*%
%TO.N,IO9*%
X116500000Y-100550000D03*
%TO.P,U3,9,GND_9*%
%TO.N,GND*%
X116500000Y-102050000D03*
%TO.P,U3,10,IO10_10*%
%TO.N,IO10*%
X134000000Y-102050000D03*
%TO.P,U3,11,IO20/RXD_11*%
%TO.N,RXD*%
X134000000Y-100550000D03*
%TO.P,U3,12,IO21/TXD_12*%
%TO.N,TXD*%
X134000000Y-99050000D03*
%TO.P,U3,13,IO18_13*%
%TO.N,USB_D-*%
X134000000Y-97550000D03*
%TO.P,U3,14,IO19_14*%
%TO.N,USB_D+*%
X134000000Y-96050000D03*
%TO.P,U3,15,IO3_15*%
%TO.N,IO3*%
X134000000Y-94550000D03*
%TO.P,U3,16,IO2_16*%
%TO.N,IO2*%
X134000000Y-93050000D03*
%TO.P,U3,17,IO1_17*%
%TO.N,Net-(U3-IO1)*%
X134000000Y-91550000D03*
%TO.P,U3,18,IO0_18*%
%TO.N,Net-(U3-IO0)*%
X134000000Y-90050000D03*
D11*
%TO.P,U3,19,GND_19*%
%TO.N,GND*%
X125110000Y-95700000D03*
X125110000Y-96800000D03*
X125660000Y-95150000D03*
X125660000Y-96250000D03*
X125660000Y-97350000D03*
X126210000Y-95700000D03*
D12*
X126210000Y-96250000D03*
D11*
X126210000Y-96800000D03*
X126760000Y-95150000D03*
X126760000Y-96250000D03*
X126760000Y-97350000D03*
X127310000Y-95700000D03*
X127310000Y-96800000D03*
%TD*%
D13*
%TO.P,R8,1*%
%TO.N,+3V3*%
X125600000Y-107910000D03*
%TO.P,R8,2*%
%TO.N,IO2*%
X125600000Y-106890000D03*
%TD*%
D14*
%TO.P,C1,1*%
%TO.N,VBUS*%
X124206000Y-117061625D03*
%TO.P,C1,2*%
%TO.N,GND*%
X122306000Y-117061625D03*
%TD*%
D15*
%TO.P,R3,1*%
%TO.N,VBUS*%
X126688375Y-116084125D03*
%TO.P,R3,2*%
%TO.N,+5V*%
X126688375Y-114259125D03*
%TD*%
D16*
%TO.P,J1,A1,GND_A1*%
%TO.N,GND*%
X123758375Y-121161625D03*
%TO.P,J1,A4,VBUS_A4*%
%TO.N,VBUS*%
X124558375Y-121161625D03*
D17*
%TO.P,J1,A5,CC1_A5*%
%TO.N,Net-(J1-CC1)*%
X125708375Y-121161625D03*
%TO.P,J1,A6,D+_A6*%
%TO.N,/ESP32-C3-Mini/D+*%
X126708375Y-121161625D03*
%TO.P,J1,A7,D-_A7*%
%TO.N,/ESP32-C3-Mini/D-*%
X127208375Y-121161625D03*
%TO.P,J1,A8,SBU1_A8*%
%TO.N,unconnected-(J1-SBU1-PadA8)*%
X128208375Y-121161625D03*
D16*
%TO.P,J1,A9,VBUS_A9*%
%TO.N,VBUS*%
X129358375Y-121161625D03*
%TO.P,J1,A12,GND_A12*%
%TO.N,GND*%
X130158375Y-121161625D03*
%TO.P,J1,B1,GND_B1*%
X130158375Y-121161625D03*
%TO.P,J1,B4,VBUS_B4*%
%TO.N,VBUS*%
X129358375Y-121161625D03*
D17*
%TO.P,J1,B5,CC2_B5*%
%TO.N,Net-(J1-CC2)*%
X128708375Y-121161625D03*
%TO.P,J1,B6,D+_B6*%
%TO.N,/ESP32-C3-Mini/D+*%
X127708375Y-121161625D03*
%TO.P,J1,B7,D-_B7*%
%TO.N,/ESP32-C3-Mini/D-*%
X126208375Y-121161625D03*
%TO.P,J1,B8,SBU2_B8*%
%TO.N,unconnected-(J1-SBU2-PadB8)*%
X125208375Y-121161625D03*
D16*
%TO.P,J1,B9,VBUS_B9*%
%TO.N,VBUS*%
X124558375Y-121161625D03*
%TO.P,J1,B12,GND_B12*%
%TO.N,GND*%
X123758375Y-121161625D03*
D18*
%TO.P,J1,SH,SHIELD_SH*%
X122638375Y-121761625D03*
D19*
X122638375Y-125961625D03*
D18*
X131278375Y-121761625D03*
D19*
X131278375Y-125961625D03*
%TD*%
D13*
%TO.P,R9,1*%
%TO.N,+3V3*%
X127150000Y-107900000D03*
%TO.P,R9,2*%
%TO.N,IO8*%
X127150000Y-106880000D03*
%TD*%
D20*
%TO.P,J2,1,Pin_1_1*%
%TO.N,+3V3*%
X112268000Y-99441000D03*
D21*
%TO.P,J2,2,Pin_2_2*%
%TO.N,GND*%
X112268000Y-101981000D03*
%TO.P,J2,3,Pin_3_3*%
%TO.N,EN*%
X112268000Y-104521000D03*
%TO.P,J2,4,Pin_4_4*%
%TO.N,IO4*%
X112268000Y-107061000D03*
%TO.P,J2,5,Pin_5_5*%
%TO.N,IO5*%
X112268000Y-109601000D03*
%TO.P,J2,6,Pin_6_6*%
%TO.N,IO6*%
X112268000Y-112141000D03*
%TO.P,J2,7,Pin_7_7*%
%TO.N,IO7*%
X112268000Y-114681000D03*
%TO.P,J2,8,Pin_8_8*%
%TO.N,IO9*%
X112268000Y-117221000D03*
%TD*%
D22*
%TO.P,U1,1,I/O1_1*%
%TO.N,/ESP32-C3-Mini/D-*%
X128988375Y-116071625D03*
%TO.P,U1,2,GND_2*%
%TO.N,GND*%
X129938375Y-116071625D03*
%TO.P,U1,3,I/O2_3*%
%TO.N,/ESP32-C3-Mini/D+*%
X130888375Y-116071625D03*
%TO.P,U1,4,I/O2_4*%
%TO.N,USB_D+*%
X130888375Y-113796625D03*
%TO.P,U1,5,VBUS_5*%
%TO.N,unconnected-(U1-VBUS-Pad5)*%
X129938375Y-113796625D03*
%TO.P,U1,6,I/O1_6*%
%TO.N,USB_D-*%
X128988375Y-113796625D03*
%TD*%
D23*
%TO.P,R6,2*%
%TO.N,Net-(R5-Pad2)*%
X115290000Y-122780000D03*
%TO.P,R6,1*%
%TO.N,EN*%
X116310000Y-122780000D03*
%TD*%
D20*
%TO.P,J3,1,Pin_1_1*%
%TO.N,+5V*%
X138938000Y-98933000D03*
D21*
%TO.P,J3,2,Pin_2_2*%
%TO.N,GND*%
X138938000Y-101473000D03*
%TO.P,J3,3,Pin_3_3*%
%TO.N,IO3*%
X138938000Y-104013000D03*
%TO.P,J3,4,Pin_4_4*%
%TO.N,GND*%
X138938000Y-106553000D03*
%TO.P,J3,5,Pin_5_5*%
%TO.N,RXD*%
X138938000Y-109093000D03*
%TO.P,J3,6,Pin_6_6*%
%TO.N,TXD*%
X138938000Y-111633000D03*
%TO.P,J3,7,Pin_7_7*%
%TO.N,GND*%
X138938000Y-114173000D03*
%TO.P,J3,8,Pin_8_8*%
%TO.N,IO10*%
X138938000Y-116713000D03*
%TD*%
D23*
%TO.P,R5,2*%
%TO.N,Net-(R5-Pad2)*%
X112790000Y-122780000D03*
%TO.P,R5,1*%
%TO.N,+3V3*%
X113810000Y-122780000D03*
%TD*%
D24*
%TO.P,C10,1*%
%TO.N,IO9*%
X140130000Y-124820000D03*
%TO.P,C10,2*%
%TO.N,GND*%
X140130000Y-125780000D03*
%TD*%
D25*
%TO.P,C3,1*%
%TO.N,+5V*%
X121300000Y-112300000D03*
%TO.P,C3,2*%
%TO.N,GND*%
X121300000Y-110400000D03*
%TD*%
D26*
%TO.P,D1,1,K_1*%
%TO.N,VBUS*%
X124088375Y-118961625D03*
%TO.P,D1,2,A_2*%
%TO.N,GND*%
X123288375Y-118961625D03*
%TD*%
D27*
%TO.P,R7,1*%
%TO.N,+3V3*%
X136610000Y-122700000D03*
%TO.P,R7,2*%
%TO.N,IO9*%
X137630000Y-122700000D03*
%TD*%
D13*
%TO.P,R2,1*%
%TO.N,Net-(J1-CC1)*%
X127588375Y-119071625D03*
%TO.P,R2,2*%
%TO.N,GND*%
X127588375Y-118051625D03*
%TD*%
D28*
%TO.P,C4,1*%
%TO.N,+3V3*%
X116988375Y-114361625D03*
%TO.P,C4,2*%
%TO.N,GND*%
X118888375Y-114361625D03*
%TD*%
D29*
%TO.P,SW1,2,2_2*%
%TO.N,Net-(R5-Pad2)*%
X116400000Y-125200000D03*
%TO.P,SW1,1,1_1*%
%TO.N,GND*%
X113000000Y-125200000D03*
%TD*%
D24*
%TO.P,C9,2*%
%TO.N,GND*%
X117790000Y-125140000D03*
%TO.P,C9,1*%
%TO.N,EN*%
X117790000Y-124180000D03*
%TD*%
D13*
%TO.P,R1,1*%
%TO.N,Net-(J1-CC2)*%
X131588375Y-119181625D03*
%TO.P,R1,2*%
%TO.N,GND*%
X131588375Y-118161625D03*
%TD*%
D24*
%TO.P,C6,1*%
%TO.N,+3V3*%
X114800000Y-89920000D03*
%TO.P,C6,2*%
%TO.N,GND*%
X114800000Y-90880000D03*
%TD*%
D29*
%TO.P,SW2,1,1_1*%
%TO.N,GND*%
X135200000Y-125300000D03*
%TO.P,SW2,2,2_2*%
%TO.N,IO9*%
X138600000Y-125300000D03*
%TD*%
D30*
%TO.P,U2,1,VIN_1*%
%TO.N,+5V*%
X119137500Y-112250000D03*
%TO.P,U2,2,GND_2*%
%TO.N,GND*%
X119137500Y-111300000D03*
%TO.P,U2,3,EN_3*%
%TO.N,+5V*%
X119137500Y-110350000D03*
%TO.P,U2,4,NC_4*%
%TO.N,unconnected-(U2-NC-Pad4)*%
X116862500Y-110350000D03*
%TO.P,U2,5,VOUT_5*%
%TO.N,+3V3*%
X116862500Y-112250000D03*
%TD*%
D31*
%TO.P,C5,1*%
%TO.N,+3V3*%
X113000000Y-90100000D03*
%TO.P,C5,2*%
%TO.N,GND*%
X113000000Y-92000000D03*
%TD*%
D28*
%TO.P,C2,1*%
%TO.N,+5V*%
X120638375Y-114461625D03*
%TO.P,C2,2*%
%TO.N,GND*%
X122538375Y-114461625D03*
%TD*%
D32*
%TO.N,GND*%
X118872000Y-115824000D03*
X118618000Y-89535000D03*
X118745000Y-90424000D03*
X113792000Y-93218000D03*
X112903000Y-93091000D03*
X111379000Y-92964000D03*
X117983000Y-100711000D03*
X118872000Y-101854000D03*
X123317000Y-115824000D03*
X123063000Y-112776000D03*
X123571000Y-113919000D03*
%TO.N,+3V3*%
X117602000Y-121412000D03*
X114427000Y-121793000D03*
X115486265Y-119590735D03*
X111506000Y-89916000D03*
X116586000Y-111252000D03*
%TO.N,IO9*%
X137287000Y-121793000D03*
%TO.N,IO8*%
X127127000Y-105410000D03*
X118999000Y-99187000D03*
%TO.N,+5V*%
X120142000Y-113157000D03*
X120142000Y-112014000D03*
%TO.N,RXD*%
X132334000Y-100481000D03*
%TO.N,IO10*%
X132334000Y-101981000D03*
%TO.N,TXD*%
X132334000Y-98981000D03*
%TO.N,GND*%
X122174000Y-115697000D03*
X122301000Y-118237000D03*
X122301000Y-119507000D03*
X122174000Y-118872000D03*
%TO.N,Net-(U3-IO1)*%
X132334000Y-91550000D03*
%TO.N,Net-(U3-IO0)*%
X132461000Y-90050000D03*
%TD*%
%TO.N,+5V*%
D33*
X124980000Y-112550750D02*
X126688375Y-114259125D01*
X132950000Y-93234314D02*
X124980000Y-101204314D01*
X124980000Y-101204314D02*
X124980000Y-112550750D01*
X135050000Y-92300000D02*
X132950000Y-92300000D01*
X138938000Y-96188000D02*
X135050000Y-92300000D01*
X132950000Y-92300000D02*
X132950000Y-93234314D01*
X138938000Y-98933000D02*
X138938000Y-96188000D01*
%TO.N,+3V3*%
X115486265Y-119590735D02*
X115780735Y-119590735D01*
X115780735Y-119590735D02*
X117602000Y-121412000D01*
X115486265Y-119590735D02*
X115824000Y-119253000D01*
X115824000Y-119253000D02*
X115824000Y-117094000D01*
X116988375Y-115929625D02*
X116988375Y-114361625D01*
X115824000Y-117094000D02*
X116988375Y-115929625D01*
X113810000Y-122410000D02*
X114427000Y-121793000D01*
X113810000Y-122780000D02*
X113810000Y-122410000D01*
X111690000Y-90100000D02*
X111506000Y-89916000D01*
X113000000Y-90100000D02*
X111690000Y-90100000D01*
X127688375Y-108438375D02*
X127150000Y-107900000D01*
X127688375Y-113799677D02*
X127688375Y-108438375D01*
X136610000Y-118322000D02*
X133047125Y-114759125D01*
X136610000Y-122700000D02*
X136610000Y-118322000D01*
X133047125Y-114759125D02*
X128647823Y-114759125D01*
X128647823Y-114759125D02*
X127688375Y-113799677D01*
X125600000Y-107910000D02*
X127140000Y-107910000D01*
X127140000Y-107910000D02*
X127150000Y-107900000D01*
X116862500Y-111528500D02*
X116586000Y-111252000D01*
X116862500Y-112250000D02*
X116862500Y-111528500D01*
%TO.N,GND*%
X122174000Y-114826000D02*
X122538375Y-114461625D01*
X122174000Y-115697000D02*
X122174000Y-114826000D01*
X122301000Y-118237000D02*
X122563750Y-118237000D01*
X122563750Y-118237000D02*
X123288375Y-118961625D01*
X123198750Y-118872000D02*
X123288375Y-118961625D01*
X122174000Y-118872000D02*
X123198750Y-118872000D01*
X122743000Y-119507000D02*
X123288375Y-118961625D01*
X122301000Y-119507000D02*
X122743000Y-119507000D01*
%TO.N,VBUS*%
X125158376Y-122381625D02*
X124558375Y-121781624D01*
X129358375Y-121720625D02*
X128697375Y-122381625D01*
X124558375Y-121781624D02*
X124558375Y-121161625D01*
X129358375Y-121161625D02*
X129358375Y-121720625D01*
X128697375Y-122381625D02*
X125158376Y-122381625D01*
%TO.N,IO9*%
X137630000Y-122136000D02*
X137287000Y-121793000D01*
X137630000Y-122700000D02*
X137630000Y-122136000D01*
%TO.N,EN*%
X111118000Y-105671000D02*
X112268000Y-104521000D01*
X111791654Y-118371000D02*
X111118000Y-117697346D01*
X116310000Y-122780000D02*
X111901000Y-118371000D01*
X111901000Y-118371000D02*
X111791654Y-118371000D01*
X111118000Y-117697346D02*
X111118000Y-105671000D01*
X117710000Y-124180000D02*
X116310000Y-122780000D01*
X117790000Y-124180000D02*
X117710000Y-124180000D01*
%TO.N,Net-(R5-Pad2)*%
X115290000Y-124090000D02*
X116400000Y-125200000D01*
X115290000Y-122780000D02*
X115290000Y-124090000D01*
X114670000Y-123400000D02*
X115290000Y-122780000D01*
X113410000Y-123400000D02*
X114670000Y-123400000D01*
X112790000Y-122780000D02*
X113410000Y-123400000D01*
%TO.N,IO8*%
X127150000Y-105433000D02*
X127127000Y-105410000D01*
X127150000Y-106880000D02*
X127150000Y-105433000D01*
X118862000Y-99050000D02*
X118999000Y-99187000D01*
X116500000Y-99050000D02*
X118862000Y-99050000D01*
%TO.N,+5V*%
X119799999Y-110350000D02*
X119137500Y-110350000D01*
X120142000Y-110692001D02*
X119799999Y-110350000D01*
X120142000Y-112014000D02*
X120142000Y-110692001D01*
%TO.N,IO3*%
X136271000Y-103251000D02*
X137033000Y-104013000D01*
X136271000Y-96521000D02*
X136271000Y-103251000D01*
X134300000Y-94550000D02*
X136271000Y-96521000D01*
X137033000Y-104013000D02*
X138938000Y-104013000D01*
X134000000Y-94550000D02*
X134300000Y-94550000D01*
%TO.N,IO10*%
X132403000Y-102050000D02*
X132334000Y-101981000D01*
X134000000Y-102050000D02*
X132403000Y-102050000D01*
%TO.N,TXD*%
X132403000Y-99050000D02*
X132334000Y-98981000D01*
X134000000Y-99050000D02*
X132403000Y-99050000D01*
%TO.N,IO2*%
X133700000Y-93050000D02*
X125600000Y-101150000D01*
X134000000Y-93050000D02*
X133700000Y-93050000D01*
X125600000Y-101150000D02*
X125600000Y-106890000D01*
%TO.N,USB_D-*%
D34*
X134300000Y-97550000D02*
X134000000Y-97550000D01*
X135463000Y-98713000D02*
X134300000Y-97550000D01*
X128988375Y-113134126D02*
X135463000Y-106659501D01*
X135463000Y-106659501D02*
X135463000Y-98713000D01*
X128988375Y-113796625D02*
X128988375Y-113134126D01*
%TO.N,USB_D+*%
X135763000Y-96901000D02*
X134912000Y-96050000D01*
X134912000Y-96050000D02*
X134000000Y-96050000D01*
X135763000Y-108922000D02*
X135763000Y-96901000D01*
X130888375Y-113796625D02*
X135763000Y-108922000D01*
%TO.N,IO9*%
D33*
X115418000Y-114071000D02*
X112268000Y-117221000D01*
X115418000Y-100682000D02*
X115418000Y-114071000D01*
X115550000Y-100550000D02*
X115418000Y-100682000D01*
X116500000Y-100550000D02*
X115550000Y-100550000D01*
%TO.N,IO7*%
X115018000Y-98082000D02*
X115018000Y-111931000D01*
X115550000Y-97550000D02*
X115018000Y-98082000D01*
X116500000Y-97550000D02*
X115550000Y-97550000D01*
X115018000Y-111931000D02*
X112268000Y-114681000D01*
%TO.N,IO6*%
X114618000Y-109791000D02*
X112268000Y-112141000D01*
X114618000Y-97632000D02*
X114618000Y-109791000D01*
X116200000Y-96050000D02*
X114618000Y-97632000D01*
X116500000Y-96050000D02*
X116200000Y-96050000D01*
%TO.N,IO5*%
X114218000Y-107651000D02*
X112268000Y-109601000D01*
X114218000Y-96532000D02*
X114218000Y-107651000D01*
X116200000Y-94550000D02*
X114218000Y-96532000D01*
X116500000Y-94550000D02*
X116200000Y-94550000D01*
%TO.N,IO4*%
X113818000Y-105511000D02*
X112268000Y-107061000D01*
X113818000Y-95432000D02*
X113818000Y-105511000D01*
X116200000Y-93050000D02*
X113818000Y-95432000D01*
X116500000Y-93050000D02*
X116200000Y-93050000D01*
%TO.N,EN*%
X113418000Y-94332000D02*
X113418000Y-103371000D01*
X116200000Y-91550000D02*
X113418000Y-94332000D01*
X113418000Y-103371000D02*
X112268000Y-104521000D01*
X116500000Y-91550000D02*
X116200000Y-91550000D01*
%TO.N,IO9*%
X138600000Y-123670000D02*
X137630000Y-122700000D01*
X138600000Y-125300000D02*
X138600000Y-123670000D01*
X139650000Y-125300000D02*
X140130000Y-124820000D01*
X138600000Y-125300000D02*
X139650000Y-125300000D01*
%TO.N,Net-(J1-CC1)*%
X127145965Y-119071625D02*
X127588375Y-119071625D01*
X125708375Y-120509215D02*
X127145965Y-119071625D01*
X125708375Y-121161625D02*
X125708375Y-120509215D01*
%TO.N,Net-(J1-CC2)*%
X130068376Y-119181625D02*
X131588375Y-119181625D01*
X128708375Y-120541626D02*
X130068376Y-119181625D01*
X128708375Y-121161625D02*
X128708375Y-120541626D01*
%TO.N,/ESP32-C3-Mini/D-*%
D34*
X127208375Y-120355193D02*
X128988375Y-118575193D01*
X127208375Y-121161625D02*
X127208375Y-120355193D01*
X128988375Y-118575193D02*
X128988375Y-116071625D01*
X127208375Y-120541626D02*
X127208375Y-121161625D01*
X126983374Y-120316625D02*
X127208375Y-120541626D01*
X126507031Y-120316625D02*
X126983374Y-120316625D01*
X126208375Y-120615281D02*
X126507031Y-120316625D01*
X126208375Y-121161625D02*
X126208375Y-120615281D01*
%TO.N,/ESP32-C3-Mini/D+*%
X130888375Y-117361626D02*
X130888375Y-116071625D01*
X127708375Y-120541626D02*
X130888375Y-117361626D01*
X127708375Y-121161625D02*
X127708375Y-120541626D01*
X127483374Y-122006625D02*
X127708375Y-121781624D01*
X126708375Y-121707969D02*
X127007031Y-122006625D01*
X127708375Y-121781624D02*
X127708375Y-121161625D01*
X126708375Y-121161625D02*
X126708375Y-121707969D01*
X127007031Y-122006625D02*
X127483374Y-122006625D01*
%TO.N,Net-(U3-IO1)*%
D33*
X134000000Y-91550000D02*
X132334000Y-91550000D01*
%TO.N,Net-(U3-IO0)*%
X134000000Y-90050000D02*
X132461000Y-90050000D01*
%TO.N,RXD*%
X132403000Y-100550000D02*
X132334000Y-100481000D01*
X134000000Y-100550000D02*
X132403000Y-100550000D01*
%TD*%
%TA.AperFunction,Conductor*%
%TO.N,VBUS*%
G36*
X124750914Y-120566310D02*
G01*
X124796669Y-120619114D01*
X124807875Y-120670625D01*
X124807875Y-121744760D01*
X124809090Y-121753994D01*
X124813056Y-121784120D01*
X124813057Y-121784124D01*
X124814116Y-121792171D01*
X124814829Y-121793700D01*
X124862628Y-121896204D01*
X124911749Y-121945325D01*
X124932899Y-121973577D01*
X124940812Y-121988068D01*
X124955665Y-122056341D01*
X124931249Y-122121806D01*
X124875317Y-122163678D01*
X124861706Y-122167881D01*
X124851569Y-122170384D01*
X124821844Y-122174000D01*
X124748317Y-122174000D01*
X124713376Y-122168975D01*
X124698377Y-122164570D01*
X124639609Y-122126802D01*
X124633802Y-122120101D01*
X124607737Y-122070991D01*
X124604655Y-122059488D01*
X124562598Y-121986644D01*
X124562598Y-121986643D01*
X124562597Y-121986642D01*
X124528894Y-121928266D01*
X124528892Y-121928263D01*
X124528890Y-121928260D01*
X124421740Y-121821110D01*
X124421737Y-121821108D01*
X124421733Y-121821105D01*
X124384268Y-121799474D01*
X124383699Y-121799139D01*
X124383013Y-121798407D01*
X124356910Y-121777880D01*
X124346123Y-121766567D01*
X124337472Y-121749788D01*
X124335934Y-121748146D01*
X124335551Y-121746062D01*
X124314107Y-121704471D01*
X124311113Y-121688937D01*
X124308874Y-121665482D01*
X124308874Y-121663150D01*
X124308875Y-121663144D01*
X124308874Y-120670624D01*
X124328559Y-120603586D01*
X124381363Y-120557831D01*
X124432874Y-120546625D01*
X124683875Y-120546625D01*
X124750914Y-120566310D01*
G37*
%TD.AperFunction*%
%TA.AperFunction,Conductor*%
G36*
X124276414Y-118636310D02*
G01*
X124322169Y-118689114D01*
X124333375Y-118740625D01*
X124333375Y-119182625D01*
X124313690Y-119249664D01*
X124260886Y-119295419D01*
X124209375Y-119306625D01*
X123967375Y-119306625D01*
X123900336Y-119286940D01*
X123854581Y-119234136D01*
X123844637Y-119164978D01*
X123873662Y-119101422D01*
X123932440Y-119063648D01*
X123967375Y-119058625D01*
X124000114Y-119058625D01*
X123858610Y-118800175D01*
X123843681Y-118731919D01*
X123868024Y-118666427D01*
X123923910Y-118624492D01*
X123967375Y-118616625D01*
X124209375Y-118616625D01*
X124276414Y-118636310D01*
G37*
%TD.AperFunction*%
%TA.AperFunction,Conductor*%
G36*
X124521163Y-116349441D02*
G01*
X124557916Y-116363149D01*
X124588891Y-116380062D01*
X124616748Y-116400915D01*
X124641702Y-116425868D01*
X124658678Y-116448544D01*
X124662556Y-116453724D01*
X124679472Y-116484704D01*
X124693182Y-116521464D01*
X124700999Y-116564795D01*
X124700999Y-117558455D01*
X124693181Y-117601789D01*
X124679472Y-117638544D01*
X124662555Y-117669524D01*
X124641703Y-117697377D01*
X124616750Y-117722329D01*
X124588896Y-117743181D01*
X124557920Y-117760096D01*
X124521167Y-117773805D01*
X124477831Y-117781624D01*
X123934166Y-117781624D01*
X123890833Y-117773806D01*
X123854080Y-117760098D01*
X123823105Y-117743184D01*
X123795248Y-117722331D01*
X123770292Y-117697375D01*
X123749438Y-117669517D01*
X123732523Y-117638537D01*
X123729079Y-117629302D01*
X123729079Y-117629301D01*
X123718819Y-117601794D01*
X123711000Y-117558459D01*
X123711000Y-116564788D01*
X123718818Y-116521455D01*
X123732525Y-116484705D01*
X123749439Y-116453729D01*
X123749443Y-116453724D01*
X123770295Y-116425868D01*
X123795240Y-116400922D01*
X123823107Y-116380061D01*
X123854073Y-116363153D01*
X123883144Y-116352310D01*
X123890835Y-116349442D01*
X123934165Y-116341625D01*
X124477834Y-116341625D01*
X124521163Y-116349441D01*
G37*
%TD.AperFunction*%
%TA.AperFunction,Conductor*%
G36*
X127203538Y-115584441D02*
G01*
X127240296Y-115598151D01*
X127271271Y-115615065D01*
X127286625Y-115626559D01*
X127299126Y-115635918D01*
X127324079Y-115660871D01*
X127344931Y-115688725D01*
X127361845Y-115719699D01*
X127375556Y-115756463D01*
X127383374Y-115799792D01*
X127383374Y-116368455D01*
X127375556Y-116411789D01*
X127361847Y-116448544D01*
X127344930Y-116479524D01*
X127324078Y-116507377D01*
X127299125Y-116532329D01*
X127271271Y-116553181D01*
X127240295Y-116570096D01*
X127203542Y-116583805D01*
X127160206Y-116591624D01*
X126216542Y-116591624D01*
X126173207Y-116583805D01*
X126136453Y-116570096D01*
X126105477Y-116553182D01*
X126077621Y-116532329D01*
X126052667Y-116507375D01*
X126035695Y-116484704D01*
X126031815Y-116479520D01*
X126014897Y-116448535D01*
X126011456Y-116439308D01*
X126011451Y-116439294D01*
X126011451Y-116439293D01*
X126001194Y-116411794D01*
X125993375Y-116368459D01*
X125993375Y-115799787D01*
X126001192Y-115756457D01*
X126014900Y-115719702D01*
X126031809Y-115688733D01*
X126052672Y-115660865D01*
X126077615Y-115635922D01*
X126105480Y-115615062D01*
X126136459Y-115598149D01*
X126144831Y-115595027D01*
X126144833Y-115595026D01*
X126155220Y-115591152D01*
X126155221Y-115591152D01*
X126173205Y-115584444D01*
X126216540Y-115576625D01*
X127160209Y-115576625D01*
X127203538Y-115584441D01*
G37*
%TD.AperFunction*%
%TD*%
%TA.AperFunction,Conductor*%
%TO.N,+5V*%
G36*
X120404812Y-111774086D02*
G01*
X120406084Y-111771165D01*
X120414215Y-111774704D01*
X120414216Y-111774705D01*
X120505623Y-111814493D01*
X120573891Y-111829344D01*
X120573892Y-111829344D01*
X120573896Y-111829345D01*
X120638356Y-111833955D01*
X120646433Y-111834533D01*
X120646434Y-111834533D01*
X120660276Y-111833543D01*
X120696371Y-111828352D01*
X120706857Y-111826070D01*
X120716025Y-111825362D01*
X120724337Y-111823503D01*
X120757854Y-111813556D01*
X120766013Y-111810512D01*
X120772399Y-111808877D01*
X120780173Y-111809148D01*
X120803165Y-111805000D01*
X121796834Y-111805000D01*
X121840166Y-111812818D01*
X121876917Y-111826525D01*
X121907891Y-111843437D01*
X121935750Y-111864292D01*
X121960704Y-111889246D01*
X121981557Y-111917102D01*
X121998471Y-111948077D01*
X122012180Y-111984830D01*
X122019999Y-112028166D01*
X122019999Y-112571833D01*
X122012181Y-112615166D01*
X121998474Y-112651916D01*
X121981558Y-112682895D01*
X121960706Y-112710749D01*
X121935751Y-112735704D01*
X121907895Y-112756557D01*
X121876920Y-112773471D01*
X121840167Y-112787180D01*
X121796831Y-112794999D01*
X120829830Y-112794999D01*
X120814025Y-112795845D01*
X120802524Y-112796461D01*
X120782067Y-112798660D01*
X120776177Y-112799293D01*
X120776172Y-112799293D01*
X120776170Y-112799294D01*
X120749135Y-112803677D01*
X120749088Y-112803685D01*
X120717162Y-112810636D01*
X120717161Y-112810637D01*
X120714298Y-112811260D01*
X120713837Y-112811660D01*
X120713244Y-112811929D01*
X120696038Y-112819676D01*
X120696005Y-112819691D01*
X120689019Y-112822834D01*
X120689016Y-112822834D01*
X120646546Y-112841958D01*
X120642279Y-112843784D01*
X120633763Y-112847241D01*
X120628312Y-112850048D01*
X120626511Y-112852423D01*
X120615285Y-112859809D01*
X120597803Y-112869998D01*
X120596141Y-112871215D01*
X120596139Y-112871217D01*
X120560897Y-112905712D01*
X120557329Y-112908545D01*
X120556271Y-112909792D01*
X120556516Y-112909999D01*
X120549929Y-112916448D01*
X120544194Y-112922062D01*
X120544189Y-112922068D01*
X120530691Y-112939700D01*
X120527082Y-112944194D01*
X120523301Y-112948684D01*
X120523214Y-112948741D01*
X120523045Y-112948987D01*
X120512076Y-112961928D01*
X120498839Y-112983022D01*
X120498754Y-112983157D01*
X120475353Y-113020451D01*
X120475092Y-113020325D01*
X120473958Y-113022670D01*
X120473949Y-113022688D01*
X120473439Y-113023502D01*
X120472707Y-113025149D01*
X120472707Y-113025151D01*
X120470927Y-113029164D01*
X120470912Y-113029157D01*
X120470800Y-113029413D01*
X120470812Y-113029419D01*
X120469579Y-113032199D01*
X120469572Y-113032216D01*
X120467448Y-113038778D01*
X120465907Y-113043245D01*
X120460103Y-113059079D01*
X120450388Y-113092228D01*
X120449101Y-113101517D01*
X120448833Y-113102805D01*
X120446336Y-113113718D01*
X120444482Y-113122530D01*
X120444489Y-113123746D01*
X120442921Y-113131310D01*
X120442884Y-113131377D01*
X120442819Y-113131800D01*
X120442548Y-113133077D01*
X120442546Y-113133092D01*
X120436663Y-113189257D01*
X120436404Y-113189229D01*
X120432988Y-113210804D01*
X120422065Y-113251564D01*
X120413809Y-113302505D01*
X120413809Y-113302506D01*
X120413809Y-113302511D01*
X120410846Y-113352247D01*
X120412994Y-113403797D01*
X120414204Y-113412214D01*
X120414205Y-113412219D01*
X120414205Y-113412222D01*
X120434688Y-113481987D01*
X120463705Y-113545532D01*
X120463718Y-113545556D01*
X120486248Y-113585126D01*
X120557984Y-113654348D01*
X120557990Y-113654353D01*
X120609416Y-113687404D01*
X120616763Y-113692126D01*
X120616769Y-113692129D01*
X120616773Y-113692131D01*
X120671887Y-113717302D01*
X120682912Y-113722338D01*
X120682913Y-113722338D01*
X120682915Y-113722339D01*
X120696225Y-113726248D01*
X120696230Y-113726249D01*
X120731856Y-113734000D01*
X120754795Y-113737298D01*
X120766787Y-113739023D01*
X120766789Y-113739023D01*
X120766795Y-113739024D01*
X120803160Y-113741625D01*
X120910209Y-113741625D01*
X120953537Y-113749441D01*
X120990298Y-113763152D01*
X121021277Y-113780070D01*
X121024394Y-113782404D01*
X121024396Y-113782405D01*
X121049124Y-113800916D01*
X121074078Y-113825869D01*
X121094932Y-113853726D01*
X121111844Y-113884699D01*
X121125555Y-113921458D01*
X121133374Y-113964793D01*
X121133374Y-114958455D01*
X121125556Y-115001789D01*
X121111847Y-115038544D01*
X121094930Y-115069524D01*
X121074078Y-115097377D01*
X121049125Y-115122329D01*
X121021271Y-115143181D01*
X120990295Y-115160096D01*
X120953542Y-115173805D01*
X120910206Y-115181624D01*
X120366541Y-115181624D01*
X120323208Y-115173806D01*
X120286451Y-115160096D01*
X120255478Y-115143183D01*
X120227618Y-115122327D01*
X120202665Y-115097373D01*
X120181816Y-115069522D01*
X120164901Y-115038544D01*
X120151193Y-115001790D01*
X120143375Y-114958458D01*
X120143375Y-113964786D01*
X120151192Y-113921454D01*
X120164077Y-113886912D01*
X120179301Y-113818885D01*
X120184879Y-113752087D01*
X120181149Y-113682476D01*
X120179869Y-113675834D01*
X120171374Y-113643387D01*
X120171373Y-113643384D01*
X120156081Y-113607103D01*
X120124065Y-113545001D01*
X120124062Y-113544997D01*
X120124060Y-113544993D01*
X120081883Y-113485764D01*
X120081880Y-113485761D01*
X120071093Y-113474448D01*
X120044118Y-113449926D01*
X120016375Y-113428109D01*
X119986187Y-113407678D01*
X119986183Y-113407676D01*
X119986161Y-113407662D01*
X119975006Y-113401222D01*
X119949323Y-113381515D01*
X119924319Y-113356511D01*
X119890834Y-113295188D01*
X119890202Y-113289318D01*
X119888000Y-113284001D01*
X119888000Y-113284000D01*
X119887999Y-113283999D01*
X119887753Y-113283753D01*
X119855662Y-113228166D01*
X119851225Y-113211606D01*
X119847000Y-113179514D01*
X119847000Y-113134486D01*
X119851225Y-113102392D01*
X119869271Y-113035044D01*
X119877525Y-112984109D01*
X119880488Y-112934367D01*
X119880488Y-112934357D01*
X119878340Y-112882820D01*
X119878339Y-112882814D01*
X119878339Y-112882809D01*
X119877129Y-112874394D01*
X119868013Y-112841166D01*
X119868212Y-112829960D01*
X119856637Y-112804615D01*
X119856638Y-112804615D01*
X119827612Y-112741060D01*
X119805072Y-112701480D01*
X119733331Y-112632259D01*
X119674553Y-112594487D01*
X119608426Y-112564287D01*
X119608413Y-112564282D01*
X119595099Y-112560372D01*
X119584623Y-112558093D01*
X119559461Y-112552620D01*
X119558969Y-112552549D01*
X119524549Y-112547601D01*
X119524538Y-112547599D01*
X119524532Y-112547599D01*
X119524521Y-112547598D01*
X119524519Y-112547598D01*
X119488180Y-112544999D01*
X119488178Y-112544999D01*
X118623347Y-112544999D01*
X118603948Y-112543472D01*
X118599030Y-112542693D01*
X118562134Y-112530705D01*
X118556205Y-112527684D01*
X118524819Y-112504880D01*
X118520118Y-112500179D01*
X118497315Y-112468793D01*
X118494295Y-112462866D01*
X118482303Y-112425955D01*
X118481524Y-112421033D01*
X118480000Y-112401649D01*
X118480000Y-112098333D01*
X118481523Y-112078958D01*
X118482299Y-112074054D01*
X118494290Y-112037140D01*
X118497324Y-112031187D01*
X118520118Y-111999816D01*
X118524816Y-111995118D01*
X118556197Y-111972318D01*
X118562137Y-111969292D01*
X118599033Y-111957304D01*
X118603958Y-111956524D01*
X118623343Y-111955000D01*
X119616131Y-111955000D01*
X119616132Y-111955000D01*
X119679324Y-111947062D01*
X119738754Y-111931892D01*
X119798018Y-111908573D01*
X119821106Y-111895965D01*
X119851768Y-111876258D01*
X119880019Y-111855109D01*
X119907567Y-111831239D01*
X119928435Y-111810371D01*
X119929596Y-111808877D01*
X119930331Y-111807931D01*
X119987003Y-111767064D01*
X120028257Y-111760000D01*
X120355200Y-111760000D01*
X120404812Y-111774086D01*
G37*
%TD.AperFunction*%
%TA.AperFunction,Conductor*%
G36*
X127230981Y-113162023D02*
G01*
X127245979Y-113166427D01*
X127304730Y-113204172D01*
X127305917Y-113205541D01*
X127333393Y-113260402D01*
X127335038Y-113267960D01*
X127337875Y-113294331D01*
X127337875Y-113845821D01*
X127358306Y-113922071D01*
X127358342Y-113922208D01*
X127361752Y-113934933D01*
X127361760Y-113934962D01*
X127361761Y-113934965D01*
X127361762Y-113934966D01*
X127361765Y-113934973D01*
X127407902Y-114014885D01*
X127407906Y-114014890D01*
X127503337Y-114110321D01*
X127536822Y-114171644D01*
X127531838Y-114241336D01*
X127504893Y-114284099D01*
X127469908Y-114320359D01*
X127432133Y-114379143D01*
X127432132Y-114379143D01*
X127401931Y-114445279D01*
X127398742Y-114456138D01*
X127390990Y-114491786D01*
X127390369Y-114496105D01*
X127387774Y-114514156D01*
X127387770Y-114514196D01*
X127385972Y-114526708D01*
X127385969Y-114526731D01*
X127385076Y-114539234D01*
X127384681Y-114543651D01*
X127383525Y-114554401D01*
X127376418Y-114584476D01*
X127361847Y-114623543D01*
X127344930Y-114654524D01*
X127324078Y-114682377D01*
X127299125Y-114707329D01*
X127271271Y-114728181D01*
X127240295Y-114745096D01*
X127203542Y-114758805D01*
X127160206Y-114766624D01*
X126216542Y-114766624D01*
X126173209Y-114758806D01*
X126136453Y-114745097D01*
X126105478Y-114728183D01*
X126077620Y-114707329D01*
X126052664Y-114682373D01*
X126041996Y-114668122D01*
X126041996Y-114668121D01*
X126031816Y-114654523D01*
X126014899Y-114623539D01*
X126011454Y-114614301D01*
X126011454Y-114614300D01*
X126001194Y-114586794D01*
X125993375Y-114543459D01*
X125993375Y-113969089D01*
X125994086Y-113955830D01*
X125994451Y-113952442D01*
X125996719Y-113931344D01*
X125997368Y-113923494D01*
X125997753Y-113918844D01*
X125997841Y-113917312D01*
X125998460Y-113906653D01*
X125998879Y-113894092D01*
X125999067Y-113872588D01*
X125991414Y-113808248D01*
X125976250Y-113747735D01*
X125974453Y-113743138D01*
X125952665Y-113687404D01*
X125952659Y-113687393D01*
X125952658Y-113687389D01*
X125943162Y-113669999D01*
X125923452Y-113639332D01*
X125923450Y-113639329D01*
X125902304Y-113611082D01*
X125878445Y-113583547D01*
X125878433Y-113583533D01*
X125878423Y-113583523D01*
X125878413Y-113583512D01*
X125663581Y-113368681D01*
X125630096Y-113307358D01*
X125635080Y-113237667D01*
X125676951Y-113181733D01*
X125742416Y-113157316D01*
X125751262Y-113157000D01*
X127196045Y-113157000D01*
X127230981Y-113162023D01*
G37*
%TD.AperFunction*%
%TD*%
%TA.AperFunction,Conductor*%
%TO.N,+3V3*%
G36*
X117181414Y-113661310D02*
G01*
X117227169Y-113714114D01*
X117238375Y-113765625D01*
X117238375Y-115066553D01*
X117218690Y-115133592D01*
X117208087Y-115147757D01*
X117171127Y-115190408D01*
X117171127Y-115190409D01*
X117133358Y-115249182D01*
X117101542Y-115318848D01*
X117055786Y-115371651D01*
X116988747Y-115391335D01*
X116921707Y-115371650D01*
X116884118Y-115333883D01*
X116874103Y-115318137D01*
X116869448Y-115301168D01*
X116865256Y-115289928D01*
X116830398Y-115226090D01*
X116788531Y-115170165D01*
X116765059Y-115146694D01*
X116757745Y-115135194D01*
X116751684Y-115114187D01*
X116741209Y-115095004D01*
X116738375Y-115068646D01*
X116738375Y-114611625D01*
X116617375Y-114611625D01*
X116550336Y-114591940D01*
X116504581Y-114539136D01*
X116493375Y-114487625D01*
X116493375Y-114235625D01*
X116513060Y-114168586D01*
X116565864Y-114122831D01*
X116617375Y-114111625D01*
X116738375Y-114111625D01*
X116738375Y-113765625D01*
X116758060Y-113698586D01*
X116810864Y-113652831D01*
X116862375Y-113641625D01*
X117114375Y-113641625D01*
X117181414Y-113661310D01*
G37*
%TD.AperFunction*%
%TA.AperFunction,Conductor*%
G36*
X117005606Y-112255023D02*
G01*
X117020604Y-112259427D01*
X117079355Y-112297172D01*
X117080542Y-112298541D01*
X117108018Y-112353402D01*
X117109663Y-112360960D01*
X117112500Y-112387331D01*
X117112500Y-112420999D01*
X117092815Y-112488038D01*
X117040011Y-112533793D01*
X116988500Y-112544999D01*
X116736500Y-112544999D01*
X116669461Y-112525314D01*
X116623706Y-112472510D01*
X116612500Y-112420999D01*
X116612500Y-112391829D01*
X116617523Y-112356893D01*
X116621927Y-112341895D01*
X116659672Y-112283144D01*
X116661041Y-112281957D01*
X116715920Y-112254477D01*
X116723479Y-112252833D01*
X116749832Y-112250000D01*
X116970670Y-112250000D01*
X117005606Y-112255023D01*
G37*
%TD.AperFunction*%
%TD*%
%TA.AperFunction,Conductor*%
%TO.N,+3V3*%
G36*
X117188039Y-89624685D02*
G01*
X117233794Y-89677489D01*
X117245000Y-89729000D01*
X117245000Y-90450511D01*
X117225315Y-90517550D01*
X117214712Y-90531714D01*
X117178343Y-90573685D01*
X117178336Y-90573694D01*
X117146699Y-90621969D01*
X117093488Y-90667250D01*
X117024244Y-90676575D01*
X116960950Y-90646984D01*
X116926459Y-90592246D01*
X115964783Y-90677515D01*
X115896267Y-90663829D01*
X115848325Y-90619150D01*
X115820250Y-90573685D01*
X115810220Y-90557442D01*
X115809054Y-90556046D01*
X115809009Y-90555991D01*
X115789841Y-90533055D01*
X115788430Y-90531788D01*
X115784501Y-90527163D01*
X115771823Y-90498672D01*
X115757381Y-90471057D01*
X115756768Y-90464840D01*
X115756096Y-90463328D01*
X115756415Y-90461250D01*
X115755000Y-90446876D01*
X115755000Y-90396493D01*
X115755000Y-90396487D01*
X115750941Y-90351124D01*
X115743123Y-90307790D01*
X115731072Y-90263864D01*
X115728391Y-90256676D01*
X115717527Y-90231702D01*
X115717525Y-90231698D01*
X115707077Y-90214777D01*
X115696472Y-90197601D01*
X115693531Y-90192837D01*
X115651657Y-90136905D01*
X115621219Y-90103023D01*
X115621213Y-90103018D01*
X115536405Y-90050636D01*
X115530931Y-90047957D01*
X115531457Y-90046881D01*
X115480606Y-90008815D01*
X115456189Y-89943350D01*
X115471041Y-89875077D01*
X115520446Y-89825672D01*
X115540709Y-89816851D01*
X115554009Y-89812426D01*
X115635900Y-89755574D01*
X115639253Y-89752100D01*
X115684412Y-89705303D01*
X115684418Y-89705297D01*
X115719632Y-89656467D01*
X115774810Y-89613608D01*
X115820206Y-89605000D01*
X117121000Y-89605000D01*
X117188039Y-89624685D01*
G37*
%TD.AperFunction*%
%TA.AperFunction,Conductor*%
G36*
X113540162Y-89612816D02*
G01*
X113576919Y-89626525D01*
X113607891Y-89643437D01*
X113635749Y-89664291D01*
X113660705Y-89689248D01*
X113681557Y-89717103D01*
X113698471Y-89748077D01*
X113705556Y-89767072D01*
X113709392Y-89777357D01*
X113712180Y-89784830D01*
X113719999Y-89828166D01*
X113719999Y-90371830D01*
X113712180Y-90415165D01*
X113698471Y-90451919D01*
X113681551Y-90482903D01*
X113680079Y-90484869D01*
X113624141Y-90526736D01*
X113616566Y-90529285D01*
X113415787Y-90589734D01*
X113380039Y-90594999D01*
X112503167Y-90594999D01*
X112459834Y-90587181D01*
X112451670Y-90584136D01*
X112423077Y-90573471D01*
X112392104Y-90556558D01*
X112364242Y-90535701D01*
X112339292Y-90510751D01*
X112328622Y-90496498D01*
X112318341Y-90482765D01*
X112304004Y-90457846D01*
X112304000Y-90457849D01*
X112303969Y-90457784D01*
X112303470Y-90456917D01*
X112302806Y-90455353D01*
X112302806Y-90455352D01*
X112283149Y-90414265D01*
X112260679Y-90376393D01*
X112234037Y-90339446D01*
X112226182Y-90330381D01*
X112226179Y-90330377D01*
X112171233Y-90282768D01*
X112171228Y-90282764D01*
X112171223Y-90282760D01*
X112141803Y-90263853D01*
X112112451Y-90244989D01*
X112112447Y-90244987D01*
X112046299Y-90214777D01*
X112040705Y-90213134D01*
X112031302Y-90210373D01*
X111995674Y-90202623D01*
X111960744Y-90197601D01*
X111943269Y-90196351D01*
X111877806Y-90171931D01*
X111835937Y-90115995D01*
X111828347Y-90080153D01*
X111821918Y-89973850D01*
X111837520Y-89905745D01*
X111887465Y-89856886D01*
X111955897Y-89842786D01*
X111972053Y-89845200D01*
X111976545Y-89846176D01*
X111976841Y-89846241D01*
X112022030Y-89851918D01*
X112120438Y-89835974D01*
X112120439Y-89835973D01*
X112120442Y-89835973D01*
X112148061Y-89825672D01*
X112185902Y-89811559D01*
X112249731Y-89776707D01*
X112260843Y-89768389D01*
X112288394Y-89744517D01*
X112313352Y-89719560D01*
X112337228Y-89692007D01*
X112339290Y-89689251D01*
X112364250Y-89664290D01*
X112369298Y-89660511D01*
X112392101Y-89643440D01*
X112423079Y-89626526D01*
X112459833Y-89612818D01*
X112503165Y-89605000D01*
X113496835Y-89605000D01*
X113540162Y-89612816D01*
G37*
%TD.AperFunction*%
%TA.AperFunction,Conductor*%
G36*
X114990226Y-89646520D02*
G01*
X114990874Y-89646622D01*
X114992798Y-89646927D01*
X115029743Y-89658926D01*
X115032203Y-89660179D01*
X115032853Y-89660511D01*
X115064228Y-89683309D01*
X115096170Y-89715251D01*
X115105547Y-89724629D01*
X115105548Y-89724631D01*
X115112674Y-89731757D01*
X115112799Y-89731881D01*
X115117198Y-89735477D01*
X115122645Y-89740201D01*
X115135577Y-89752091D01*
X115135587Y-89752099D01*
X115135588Y-89752100D01*
X115159065Y-89771247D01*
X115159069Y-89771249D01*
X115168707Y-89778200D01*
X115168710Y-89778202D01*
X115168715Y-89778205D01*
X115233159Y-89811917D01*
X115233280Y-89811959D01*
X115240335Y-89815514D01*
X115260299Y-89834195D01*
X115282474Y-89850185D01*
X115285438Y-89857719D01*
X115291352Y-89863253D01*
X115298046Y-89889762D01*
X115308057Y-89915203D01*
X115306477Y-89923145D01*
X115308460Y-89930996D01*
X115299761Y-89956914D01*
X115294428Y-89983730D01*
X115288805Y-89989557D01*
X115286229Y-89997234D01*
X115264899Y-90014333D01*
X115245914Y-90034011D01*
X115232577Y-90040246D01*
X115231715Y-90040938D01*
X115230919Y-90041021D01*
X115227888Y-90042439D01*
X115190949Y-90056217D01*
X115181021Y-90061638D01*
X115181010Y-90061645D01*
X115150336Y-90081358D01*
X115150330Y-90081362D01*
X115122107Y-90102490D01*
X115094562Y-90126358D01*
X115094537Y-90126381D01*
X115064225Y-90156692D01*
X115032825Y-90179501D01*
X115029719Y-90181083D01*
X114992878Y-90193057D01*
X114990301Y-90193466D01*
X114970864Y-90194999D01*
X114629136Y-90194999D01*
X114609714Y-90193468D01*
X114607135Y-90193059D01*
X114570265Y-90181076D01*
X114567158Y-90179493D01*
X114535769Y-90156688D01*
X114533309Y-90154228D01*
X114510511Y-90122852D01*
X114508926Y-90119742D01*
X114496926Y-90082798D01*
X114496521Y-90080236D01*
X114495000Y-90060875D01*
X114495000Y-89777357D01*
X114508507Y-89721079D01*
X114510499Y-89717168D01*
X114533308Y-89685768D01*
X114535769Y-89683307D01*
X114567148Y-89660509D01*
X114570563Y-89658768D01*
X114605771Y-89647060D01*
X114607243Y-89646806D01*
X114628328Y-89645000D01*
X114970870Y-89645000D01*
X114990226Y-89646520D01*
G37*
%TD.AperFunction*%
%TD*%
%TA.AperFunction,Conductor*%
%TO.N,GND*%
G36*
X130339217Y-115114646D02*
G01*
X130350070Y-115117832D01*
X130408851Y-115155602D01*
X130437880Y-115219156D01*
X130427940Y-115288315D01*
X130423002Y-115299127D01*
X130410740Y-115320206D01*
X130410423Y-115320645D01*
X130410329Y-115320775D01*
X130409051Y-115323283D01*
X130394541Y-115351761D01*
X130391127Y-115358461D01*
X130391126Y-115358462D01*
X130352728Y-115433820D01*
X130352725Y-115433828D01*
X130337875Y-115527594D01*
X130337875Y-116615645D01*
X130339576Y-116626383D01*
X130346172Y-116668029D01*
X130352729Y-116709429D01*
X130410325Y-116822467D01*
X130474558Y-116886700D01*
X130475263Y-116887412D01*
X130506773Y-116919509D01*
X130506278Y-116920191D01*
X130522237Y-116935260D01*
X130523883Y-116936937D01*
X130535422Y-116958540D01*
X130555092Y-116991417D01*
X130558570Y-117004270D01*
X130562875Y-117036659D01*
X130562875Y-117157607D01*
X130557851Y-117192544D01*
X130550439Y-117217785D01*
X130519144Y-117270529D01*
X129538163Y-118251510D01*
X129509913Y-118272659D01*
X129499986Y-118278080D01*
X129431713Y-118292934D01*
X129366248Y-118268520D01*
X129324375Y-118212588D01*
X129321688Y-118205382D01*
X129313875Y-118162062D01*
X129313875Y-117038011D01*
X129318896Y-117003081D01*
X129323706Y-116986700D01*
X129359494Y-116929680D01*
X129370278Y-116919925D01*
X129370277Y-116919924D01*
X129390856Y-116901307D01*
X129392385Y-116897580D01*
X129401527Y-116887364D01*
X129466425Y-116822467D01*
X129524021Y-116709429D01*
X129524021Y-116709427D01*
X129524022Y-116709426D01*
X129524023Y-116709419D01*
X129525160Y-116704685D01*
X129525160Y-116704683D01*
X129525164Y-116704664D01*
X129525548Y-116699793D01*
X129538486Y-116618104D01*
X129538812Y-116616279D01*
X129538874Y-116615648D01*
X129538875Y-116615644D01*
X129538874Y-115527607D01*
X129524021Y-115433821D01*
X129466425Y-115320783D01*
X129466421Y-115320779D01*
X129463090Y-115314241D01*
X129461876Y-115312018D01*
X129461877Y-115312018D01*
X129452983Y-115295730D01*
X129438132Y-115227460D01*
X129462548Y-115161996D01*
X129518479Y-115120125D01*
X129522355Y-115118679D01*
X129525691Y-115117436D01*
X129569005Y-115109625D01*
X130304290Y-115109625D01*
X130339217Y-115114646D01*
G37*
%TD.AperFunction*%
%TA.AperFunction,Conductor*%
G36*
X111193039Y-88585185D02*
G01*
X111238794Y-88637989D01*
X111250000Y-88689500D01*
X111250000Y-88950000D01*
X139250000Y-88950000D01*
X139250000Y-88689500D01*
X139269685Y-88622461D01*
X139322489Y-88576706D01*
X139374000Y-88565500D01*
X140908670Y-88565500D01*
X140943606Y-88570523D01*
X140958604Y-88574927D01*
X141017355Y-88612672D01*
X141018542Y-88614041D01*
X141046018Y-88668902D01*
X141047663Y-88676460D01*
X141050500Y-88702831D01*
X141050500Y-128208670D01*
X141045475Y-128243614D01*
X141041070Y-128258612D01*
X141003327Y-128317355D01*
X141001958Y-128318542D01*
X140947097Y-128346018D01*
X140939539Y-128347663D01*
X140913168Y-128350500D01*
X110297330Y-128350500D01*
X110262389Y-128345475D01*
X110247390Y-128341070D01*
X110188644Y-128303327D01*
X110187457Y-128301958D01*
X110159977Y-128247083D01*
X110158332Y-128239521D01*
X110155500Y-128213168D01*
X110155500Y-105624856D01*
X110767500Y-105624856D01*
X110767500Y-117743492D01*
X110786257Y-117813497D01*
X110791380Y-117832617D01*
X110791384Y-117832629D01*
X110791385Y-117832631D01*
X110791387Y-117832636D01*
X110837527Y-117912554D01*
X110837529Y-117912557D01*
X110837530Y-117912558D01*
X111576442Y-118651470D01*
X111656366Y-118697614D01*
X111656367Y-118697614D01*
X111656367Y-118697615D01*
X111711729Y-118712448D01*
X111741634Y-118724835D01*
X111768949Y-118740605D01*
X111794627Y-118760309D01*
X114150921Y-121116603D01*
X114172071Y-121144855D01*
X114174314Y-121148963D01*
X114178724Y-121157038D01*
X114193576Y-121225311D01*
X114169160Y-121290776D01*
X114169153Y-121290784D01*
X114164058Y-121297589D01*
X114126798Y-121330657D01*
X114088993Y-121352483D01*
X114088991Y-121352485D01*
X114088986Y-121352489D01*
X113986495Y-121454979D01*
X113986490Y-121454984D01*
X113986485Y-121454992D01*
X113914517Y-121579642D01*
X113914516Y-121579646D01*
X113914017Y-121580511D01*
X113914016Y-121580515D01*
X113876500Y-121720525D01*
X113876500Y-121720527D01*
X113876500Y-121789755D01*
X113874519Y-121800704D01*
X113872844Y-121804044D01*
X113871476Y-121813563D01*
X113864064Y-121838804D01*
X113832769Y-121891548D01*
X113529544Y-122194771D01*
X113529535Y-122194781D01*
X113529526Y-122194792D01*
X113519842Y-122211565D01*
X113507609Y-122229072D01*
X113498196Y-122240337D01*
X113457507Y-122272226D01*
X113447896Y-122276924D01*
X113397532Y-122327288D01*
X113360480Y-122352800D01*
X113360290Y-122352884D01*
X113352672Y-122356256D01*
X113352304Y-122356456D01*
X113349746Y-122357601D01*
X113317544Y-122361973D01*
X113289230Y-122366903D01*
X113289155Y-122367964D01*
X113288245Y-122367899D01*
X113286619Y-122367357D01*
X113285137Y-122367616D01*
X113284009Y-122367488D01*
X113284118Y-122366525D01*
X113284092Y-122366516D01*
X113280512Y-122367003D01*
X113267930Y-122361137D01*
X113230034Y-122348525D01*
X113223526Y-122344342D01*
X113202890Y-122327711D01*
X113152107Y-122276927D01*
X113152104Y-122276924D01*
X113152096Y-122276919D01*
X113047167Y-122225622D01*
X113047160Y-122225620D01*
X113036521Y-122220419D01*
X113036519Y-122220418D01*
X113036518Y-122220418D01*
X113019787Y-122217980D01*
X113019786Y-122217980D01*
X112961583Y-122209500D01*
X112961582Y-122209500D01*
X112618418Y-122209500D01*
X112618417Y-122209500D01*
X112560211Y-122217980D01*
X112560206Y-122217981D01*
X112543482Y-122220418D01*
X112543480Y-122220418D01*
X112543478Y-122220419D01*
X112532840Y-122225619D01*
X112532831Y-122225622D01*
X112427902Y-122276919D01*
X112427894Y-122276924D01*
X112336924Y-122367894D01*
X112336921Y-122367899D01*
X112280416Y-122483484D01*
X112279471Y-122487569D01*
X112279124Y-122492362D01*
X112269500Y-122558418D01*
X112269500Y-122558421D01*
X112269500Y-122558422D01*
X112269500Y-123001582D01*
X112276481Y-123049500D01*
X112280418Y-123076518D01*
X112280418Y-123076519D01*
X112280419Y-123076521D01*
X112285620Y-123087161D01*
X112285622Y-123087166D01*
X112336919Y-123192096D01*
X112336921Y-123192099D01*
X112336927Y-123192107D01*
X112427894Y-123283074D01*
X112427896Y-123283075D01*
X112427897Y-123283076D01*
X112427900Y-123283078D01*
X112538642Y-123337215D01*
X112538651Y-123337223D01*
X112538653Y-123337221D01*
X112540958Y-123338348D01*
X112543482Y-123339582D01*
X112618418Y-123350500D01*
X112795627Y-123350500D01*
X112830559Y-123355521D01*
X112855803Y-123362934D01*
X112908549Y-123394230D01*
X113194866Y-123680547D01*
X113196392Y-123681459D01*
X113203036Y-123685566D01*
X113205651Y-123686741D01*
X113274706Y-123726611D01*
X113274707Y-123726611D01*
X113274712Y-123726614D01*
X113363856Y-123750500D01*
X113363858Y-123750500D01*
X114716141Y-123750500D01*
X114716144Y-123750500D01*
X114766192Y-123737089D01*
X114801228Y-123732900D01*
X114815102Y-123733230D01*
X114881654Y-123754504D01*
X114926135Y-123808370D01*
X114929483Y-123816186D01*
X114939500Y-123865011D01*
X114939500Y-124136146D01*
X114948410Y-124169396D01*
X114948411Y-124169400D01*
X114963384Y-124225285D01*
X114963385Y-124225286D01*
X114970087Y-124236895D01*
X114970088Y-124236897D01*
X115009526Y-124305207D01*
X115009527Y-124305208D01*
X115009532Y-124305214D01*
X115009538Y-124305221D01*
X115650573Y-124946255D01*
X115671723Y-124974507D01*
X115684331Y-124997596D01*
X115699500Y-125057025D01*
X115699500Y-126074678D01*
X115699500Y-126074680D01*
X115699499Y-126074680D01*
X115714028Y-126147717D01*
X115714032Y-126147735D01*
X115714033Y-126147739D01*
X115717480Y-126153826D01*
X115720816Y-126157891D01*
X115769399Y-126230601D01*
X115852256Y-126285964D01*
X115852258Y-126285965D01*
X115852259Y-126285965D01*
X115852260Y-126285966D01*
X115852264Y-126285967D01*
X115852279Y-126285970D01*
X115852288Y-126285972D01*
X115897021Y-126294869D01*
X115917681Y-126298979D01*
X115920415Y-126299703D01*
X115925323Y-126300500D01*
X116874676Y-126300500D01*
X116878796Y-126300500D01*
X116886648Y-126298117D01*
X116947740Y-126285966D01*
X117030601Y-126230601D01*
X117085966Y-126147740D01*
X117100500Y-126074674D01*
X117100500Y-124669942D01*
X117105521Y-124635015D01*
X117108707Y-124624162D01*
X117146477Y-124565381D01*
X117210031Y-124536352D01*
X117279186Y-124546290D01*
X117286172Y-124549480D01*
X117322342Y-124574593D01*
X117387604Y-124639855D01*
X117387607Y-124639857D01*
X117387609Y-124639859D01*
X117497825Y-124696017D01*
X117497826Y-124696017D01*
X117497828Y-124696018D01*
X117497844Y-124696020D01*
X117502580Y-124697158D01*
X117502581Y-124697158D01*
X117507452Y-124697542D01*
X117532938Y-124701577D01*
X117532946Y-124701581D01*
X117532947Y-124701579D01*
X117589265Y-124710500D01*
X117990734Y-124710499D01*
X117990739Y-124710499D01*
X117990739Y-124710498D01*
X118036454Y-124703258D01*
X118072534Y-124697543D01*
X118079880Y-124696966D01*
X118082167Y-124696018D01*
X118082170Y-124696018D01*
X118082171Y-124696018D01*
X118082172Y-124696017D01*
X118082175Y-124696017D01*
X118082192Y-124696008D01*
X118086683Y-124694148D01*
X118086685Y-124694147D01*
X118086689Y-124694146D01*
X118094330Y-124690980D01*
X118099661Y-124687106D01*
X118192391Y-124639859D01*
X118279859Y-124552391D01*
X118336017Y-124442175D01*
X118336017Y-124442173D01*
X118336018Y-124442172D01*
X118336018Y-124442171D01*
X118336018Y-124442169D01*
X118336925Y-124440390D01*
X118337543Y-124432543D01*
X118338715Y-124425139D01*
X118339901Y-124417650D01*
X118350500Y-124350735D01*
X118350499Y-124009266D01*
X118350499Y-124009260D01*
X118337394Y-123926520D01*
X118337268Y-123925636D01*
X118337353Y-123925041D01*
X118337161Y-123922592D01*
X118336094Y-123918149D01*
X118336020Y-123917844D01*
X118336018Y-123917829D01*
X118336018Y-123917828D01*
X118336017Y-123917826D01*
X118336017Y-123917825D01*
X118279859Y-123807609D01*
X118279857Y-123807607D01*
X118279854Y-123807603D01*
X118192396Y-123720145D01*
X118192394Y-123720143D01*
X118192391Y-123720141D01*
X118086720Y-123666299D01*
X118083225Y-123664332D01*
X118082168Y-123663980D01*
X117990735Y-123649500D01*
X117744374Y-123649500D01*
X117709438Y-123644477D01*
X117684196Y-123637065D01*
X117631451Y-123605769D01*
X116879426Y-122853744D01*
X116858274Y-122825488D01*
X116845667Y-122802399D01*
X116830500Y-122742974D01*
X116830500Y-122558423D01*
X116830500Y-122558421D01*
X116830500Y-122558418D01*
X116819582Y-122483482D01*
X116819580Y-122483477D01*
X116810278Y-122464449D01*
X116810276Y-122464447D01*
X116763078Y-122367900D01*
X116763076Y-122367897D01*
X116763074Y-122367895D01*
X116763074Y-122367894D01*
X116692580Y-122297400D01*
X116692577Y-122297398D01*
X116672102Y-122276923D01*
X116672099Y-122276921D01*
X116556521Y-122220419D01*
X116556519Y-122220418D01*
X116556518Y-122220418D01*
X116556009Y-122220343D01*
X116555868Y-122220264D01*
X116552540Y-122219478D01*
X116547623Y-122219122D01*
X116481583Y-122209500D01*
X116481582Y-122209500D01*
X116481577Y-122209500D01*
X116304374Y-122209500D01*
X116279050Y-122205859D01*
X123492875Y-122205859D01*
X123492875Y-122357395D01*
X123496420Y-122370625D01*
X123496421Y-122370625D01*
X123532094Y-122503761D01*
X123563651Y-122558418D01*
X123607860Y-122634990D01*
X123715010Y-122742140D01*
X123846240Y-122817906D01*
X123992609Y-122857125D01*
X123992611Y-122857125D01*
X124144139Y-122857125D01*
X124144141Y-122857125D01*
X124290510Y-122817906D01*
X124421740Y-122742140D01*
X124528890Y-122634990D01*
X124580894Y-122544915D01*
X124602707Y-122517179D01*
X124612756Y-122507598D01*
X124674859Y-122475586D01*
X124744408Y-122482229D01*
X124752301Y-122485389D01*
X124793894Y-122512825D01*
X124943164Y-122662095D01*
X125023088Y-122708239D01*
X125112232Y-122732125D01*
X125112233Y-122732125D01*
X125112234Y-122732125D01*
X128743517Y-122732125D01*
X128743519Y-122732125D01*
X128832663Y-122708239D01*
X128912587Y-122662095D01*
X129097632Y-122477048D01*
X129125878Y-122455905D01*
X129132579Y-122452246D01*
X129138058Y-122449253D01*
X129206330Y-122434401D01*
X129271785Y-122458809D01*
X129276500Y-122462338D01*
X129309958Y-122500260D01*
X129331596Y-122538265D01*
X129333618Y-122541041D01*
X129387860Y-122634990D01*
X129495010Y-122742140D01*
X129626240Y-122817906D01*
X129772609Y-122857125D01*
X129772611Y-122857125D01*
X129924139Y-122857125D01*
X129924141Y-122857125D01*
X130070510Y-122817906D01*
X130201740Y-122742140D01*
X130308890Y-122634990D01*
X130384656Y-122503760D01*
X130423875Y-122357391D01*
X130423875Y-122205859D01*
X130384656Y-122059490D01*
X130308890Y-121928260D01*
X130201740Y-121821110D01*
X130136125Y-121783227D01*
X130070511Y-121745344D01*
X130049285Y-121739657D01*
X130038163Y-121736676D01*
X130038162Y-121736676D01*
X130017998Y-121731273D01*
X129985561Y-121717383D01*
X129972209Y-121709245D01*
X129925212Y-121657548D01*
X129923478Y-121653978D01*
X129921332Y-121649559D01*
X129908874Y-121595389D01*
X129908874Y-120660107D01*
X129908872Y-120660094D01*
X129894021Y-120566321D01*
X129836425Y-120453283D01*
X129836421Y-120453279D01*
X129836420Y-120453277D01*
X129746722Y-120363579D01*
X129746718Y-120363576D01*
X129746717Y-120363575D01*
X129697613Y-120338555D01*
X129694705Y-120337073D01*
X129694696Y-120337068D01*
X129673130Y-120326080D01*
X129644282Y-120305743D01*
X129634193Y-120296214D01*
X129598972Y-120235872D01*
X129601962Y-120166079D01*
X129604216Y-120159463D01*
X129633908Y-120111772D01*
X130164634Y-119581048D01*
X130192884Y-119559900D01*
X130215976Y-119547292D01*
X130275401Y-119532125D01*
X131004504Y-119532125D01*
X131039436Y-119537146D01*
X131064680Y-119544559D01*
X131117424Y-119575853D01*
X131176272Y-119634701D01*
X131176275Y-119634703D01*
X131287017Y-119688840D01*
X131287026Y-119688848D01*
X131287028Y-119688846D01*
X131289333Y-119689973D01*
X131291857Y-119691207D01*
X131366793Y-119702125D01*
X131366798Y-119702125D01*
X131809952Y-119702125D01*
X131809957Y-119702125D01*
X131884893Y-119691207D01*
X131942683Y-119662954D01*
X131942686Y-119662954D01*
X132000468Y-119634706D01*
X132000468Y-119634705D01*
X132000474Y-119634703D01*
X132000477Y-119634701D01*
X132091451Y-119543727D01*
X132091453Y-119543724D01*
X132103901Y-119518261D01*
X132119694Y-119485956D01*
X132119705Y-119485932D01*
X132147957Y-119428143D01*
X132158875Y-119353207D01*
X132158875Y-119010043D01*
X132147957Y-118935107D01*
X132130815Y-118900043D01*
X132091453Y-118819525D01*
X132091451Y-118819522D01*
X132091449Y-118819520D01*
X132091449Y-118819519D01*
X132000479Y-118728549D01*
X132000471Y-118728544D01*
X131895542Y-118677247D01*
X131895535Y-118677245D01*
X131884896Y-118672044D01*
X131884894Y-118672043D01*
X131884893Y-118672043D01*
X131868162Y-118669605D01*
X131868161Y-118669605D01*
X131809958Y-118661125D01*
X131809957Y-118661125D01*
X131366793Y-118661125D01*
X131366792Y-118661125D01*
X131308586Y-118669605D01*
X131308581Y-118669606D01*
X131291857Y-118672043D01*
X131291855Y-118672043D01*
X131291853Y-118672044D01*
X131281215Y-118677244D01*
X131281206Y-118677247D01*
X131176276Y-118728545D01*
X131176272Y-118728547D01*
X131122618Y-118782201D01*
X131094367Y-118803350D01*
X131071282Y-118815956D01*
X131011853Y-118831125D01*
X130196395Y-118831125D01*
X130161460Y-118826102D01*
X130150606Y-118822915D01*
X130091828Y-118785141D01*
X130062803Y-118721585D01*
X130072743Y-118652436D01*
X130075933Y-118645449D01*
X130101042Y-118609285D01*
X130603542Y-118106786D01*
X131148840Y-117561488D01*
X131191693Y-117487265D01*
X131213875Y-117404479D01*
X131213875Y-117318773D01*
X131213875Y-117038011D01*
X131218896Y-117003081D01*
X131223706Y-116986700D01*
X131259494Y-116929680D01*
X131270278Y-116919925D01*
X131270277Y-116919924D01*
X131290856Y-116901307D01*
X131292385Y-116897580D01*
X131301527Y-116887364D01*
X131366425Y-116822467D01*
X131424021Y-116709429D01*
X131424021Y-116709427D01*
X131424022Y-116709426D01*
X131424023Y-116709419D01*
X131425160Y-116704685D01*
X131425160Y-116704683D01*
X131425164Y-116704664D01*
X131425548Y-116699793D01*
X131438486Y-116618104D01*
X131438812Y-116616279D01*
X131438874Y-116615648D01*
X131438875Y-116615644D01*
X131438874Y-115527607D01*
X131424021Y-115433821D01*
X131366425Y-115320783D01*
X131366421Y-115320779D01*
X131363090Y-115314241D01*
X131361876Y-115312018D01*
X131361877Y-115312018D01*
X131352983Y-115295730D01*
X131338132Y-115227460D01*
X131362548Y-115161996D01*
X131418479Y-115120125D01*
X131422355Y-115118679D01*
X131425691Y-115117436D01*
X131469005Y-115109625D01*
X132832751Y-115109625D01*
X132867683Y-115114646D01*
X132892927Y-115122059D01*
X132945673Y-115153355D01*
X136210573Y-118418255D01*
X136231723Y-118446507D01*
X136244331Y-118469596D01*
X136259500Y-118529025D01*
X136259500Y-122116129D01*
X136254476Y-122151068D01*
X136247064Y-122176308D01*
X136215770Y-122229050D01*
X136156921Y-122287899D01*
X136156920Y-122287901D01*
X136105622Y-122392831D01*
X136105619Y-122392840D01*
X136100419Y-122403478D01*
X136100418Y-122403480D01*
X136100418Y-122403482D01*
X136097981Y-122420206D01*
X136097980Y-122420211D01*
X136089500Y-122478417D01*
X136089500Y-122921582D01*
X136093069Y-122946082D01*
X136100418Y-122996518D01*
X136100418Y-122996519D01*
X136100419Y-122996521D01*
X136105620Y-123007161D01*
X136105622Y-123007166D01*
X136156919Y-123112096D01*
X136156924Y-123112104D01*
X136247894Y-123203074D01*
X136247896Y-123203075D01*
X136247897Y-123203076D01*
X136247900Y-123203078D01*
X136358642Y-123257215D01*
X136358651Y-123257223D01*
X136358653Y-123257221D01*
X136360958Y-123258348D01*
X136363482Y-123259582D01*
X136438418Y-123270500D01*
X136438423Y-123270500D01*
X136781577Y-123270500D01*
X136781582Y-123270500D01*
X136856518Y-123259582D01*
X136914310Y-123231329D01*
X136972099Y-123203078D01*
X136972102Y-123203076D01*
X137026854Y-123148324D01*
X137035049Y-123142438D01*
X137038937Y-123141074D01*
X137047963Y-123134317D01*
X137061689Y-123126822D01*
X137129946Y-123111971D01*
X137131756Y-123112100D01*
X137189953Y-123131466D01*
X137196471Y-123135655D01*
X137217107Y-123152286D01*
X137267891Y-123203071D01*
X137267894Y-123203074D01*
X137267896Y-123203075D01*
X137267897Y-123203076D01*
X137267900Y-123203078D01*
X137378642Y-123257215D01*
X137378651Y-123257223D01*
X137378653Y-123257221D01*
X137380958Y-123258348D01*
X137383482Y-123259582D01*
X137458418Y-123270500D01*
X137635626Y-123270500D01*
X137670558Y-123275521D01*
X137695802Y-123282934D01*
X137748548Y-123314230D01*
X138200573Y-123766255D01*
X138221723Y-123794507D01*
X138234331Y-123817596D01*
X138249500Y-123877025D01*
X138249500Y-124057670D01*
X138244475Y-124092614D01*
X138240070Y-124107612D01*
X138202327Y-124166355D01*
X138200958Y-124167542D01*
X138146085Y-124195021D01*
X138129063Y-124198724D01*
X138128723Y-124198788D01*
X138128273Y-124198887D01*
X138125866Y-124199391D01*
X138064268Y-124211644D01*
X138052267Y-124214031D01*
X138052262Y-124214032D01*
X138052258Y-124214033D01*
X137969399Y-124269399D01*
X137914033Y-124352258D01*
X137914032Y-124352266D01*
X137914028Y-124352281D01*
X137899500Y-124425318D01*
X137899500Y-124425321D01*
X137899500Y-126174678D01*
X137899500Y-126174680D01*
X137899499Y-126174680D01*
X137914028Y-126247717D01*
X137914032Y-126247735D01*
X137914033Y-126247739D01*
X137917480Y-126253826D01*
X137920816Y-126257891D01*
X137969399Y-126330601D01*
X138052256Y-126385964D01*
X138052258Y-126385965D01*
X138052259Y-126385965D01*
X138052260Y-126385966D01*
X138052264Y-126385967D01*
X138052279Y-126385970D01*
X138052288Y-126385972D01*
X138097021Y-126394869D01*
X138117681Y-126398979D01*
X138120415Y-126399703D01*
X138125323Y-126400500D01*
X139074676Y-126400500D01*
X139078796Y-126400500D01*
X139086648Y-126398117D01*
X139147740Y-126385966D01*
X139230601Y-126330601D01*
X139285966Y-126247740D01*
X139300500Y-126174674D01*
X139300500Y-125792329D01*
X139305523Y-125757393D01*
X139309927Y-125742395D01*
X139347672Y-125683644D01*
X139349041Y-125682457D01*
X139403920Y-125654977D01*
X139411479Y-125653333D01*
X139437832Y-125650500D01*
X139696142Y-125650500D01*
X139696144Y-125650500D01*
X139785288Y-125626614D01*
X139865212Y-125580470D01*
X140046259Y-125399420D01*
X140074514Y-125378271D01*
X140097602Y-125365665D01*
X140157025Y-125350499D01*
X140354418Y-125350499D01*
X140363564Y-125345504D01*
X140370545Y-125344194D01*
X140376454Y-125343258D01*
X140422170Y-125336018D01*
X140422171Y-125336018D01*
X140422172Y-125336017D01*
X140422175Y-125336017D01*
X140423745Y-125335216D01*
X140424836Y-125335000D01*
X140426689Y-125334146D01*
X140434330Y-125330980D01*
X140439661Y-125327106D01*
X140532391Y-125279859D01*
X140619859Y-125192391D01*
X140676017Y-125082175D01*
X140676017Y-125082173D01*
X140676018Y-125082172D01*
X140676018Y-125082171D01*
X140676018Y-125082169D01*
X140676925Y-125080390D01*
X140677543Y-125072543D01*
X140678329Y-125067576D01*
X140679901Y-125057650D01*
X140690500Y-124990735D01*
X140690499Y-124649266D01*
X140690499Y-124649264D01*
X140690499Y-124649260D01*
X140677394Y-124566520D01*
X140677268Y-124565636D01*
X140677353Y-124565041D01*
X140677161Y-124562592D01*
X140676094Y-124558149D01*
X140676020Y-124557844D01*
X140676018Y-124557829D01*
X140676018Y-124557828D01*
X140676017Y-124557826D01*
X140676017Y-124557825D01*
X140619859Y-124447609D01*
X140619857Y-124447607D01*
X140619854Y-124447603D01*
X140532396Y-124360145D01*
X140532394Y-124360143D01*
X140532391Y-124360141D01*
X140426720Y-124306299D01*
X140423225Y-124304332D01*
X140422168Y-124303980D01*
X140330735Y-124289500D01*
X139929260Y-124289500D01*
X139905571Y-124289500D01*
X139896418Y-124294497D01*
X139889466Y-124295802D01*
X139847467Y-124302454D01*
X139842588Y-124302838D01*
X139837828Y-124303980D01*
X139727611Y-124360139D01*
X139727600Y-124360146D01*
X139640146Y-124447600D01*
X139640140Y-124447609D01*
X139583980Y-124557829D01*
X139580554Y-124572100D01*
X139577162Y-124571285D01*
X139567689Y-124603547D01*
X139569595Y-124621818D01*
X139569882Y-124644402D01*
X139569500Y-124649258D01*
X139569500Y-124807670D01*
X139564475Y-124842614D01*
X139560070Y-124857612D01*
X139522327Y-124916355D01*
X139520958Y-124917542D01*
X139466126Y-124945012D01*
X139464405Y-124945387D01*
X139403062Y-124943205D01*
X139392388Y-124940070D01*
X139333644Y-124902327D01*
X139332457Y-124900958D01*
X139304977Y-124846083D01*
X139303332Y-124838521D01*
X139300500Y-124812168D01*
X139300500Y-124425139D01*
X139300064Y-124423134D01*
X139285972Y-124352289D01*
X139285970Y-124352281D01*
X139285967Y-124352264D01*
X139285966Y-124352260D01*
X139284961Y-124350756D01*
X139284952Y-124350728D01*
X139284946Y-124350733D01*
X139230604Y-124269403D01*
X139230600Y-124269398D01*
X139172584Y-124230634D01*
X139147740Y-124214034D01*
X139147739Y-124214033D01*
X139147735Y-124214032D01*
X139074677Y-124199500D01*
X139074674Y-124199500D01*
X139074500Y-124199500D01*
X139074410Y-124199473D01*
X139073711Y-124199404D01*
X139068719Y-124197827D01*
X139068722Y-124197803D01*
X139042395Y-124190072D01*
X138983618Y-124152298D01*
X138983614Y-124152294D01*
X138982427Y-124150924D01*
X138954977Y-124096083D01*
X138953332Y-124088521D01*
X138950500Y-124062168D01*
X138950500Y-123623858D01*
X138950500Y-123623856D01*
X138926614Y-123534712D01*
X138880470Y-123454788D01*
X138199426Y-122773744D01*
X138178274Y-122745488D01*
X138165667Y-122722399D01*
X138150500Y-122662974D01*
X138150500Y-122478423D01*
X138150500Y-122478418D01*
X138139582Y-122403482D01*
X138122186Y-122367898D01*
X138083078Y-122287900D01*
X138083076Y-122287897D01*
X138021688Y-122226509D01*
X138015427Y-122217539D01*
X138014214Y-122213926D01*
X138008272Y-122205988D01*
X138005547Y-122200998D01*
X138002153Y-122194781D01*
X137995666Y-122182900D01*
X137980500Y-122123477D01*
X137980500Y-122089856D01*
X137972362Y-122059484D01*
X137956614Y-122000712D01*
X137956612Y-122000708D01*
X137956611Y-122000705D01*
X137948493Y-121986645D01*
X137916747Y-121931661D01*
X137916745Y-121931658D01*
X137914789Y-121928270D01*
X137910473Y-121920794D01*
X137910471Y-121920792D01*
X137910469Y-121920788D01*
X137886424Y-121896743D01*
X137865276Y-121868493D01*
X137852666Y-121845400D01*
X137837500Y-121785977D01*
X137837500Y-121720527D01*
X137837500Y-121720525D01*
X137799984Y-121580515D01*
X137744533Y-121484472D01*
X137727511Y-121454988D01*
X137727506Y-121454982D01*
X137727502Y-121454978D01*
X137727493Y-121454968D01*
X137625030Y-121352505D01*
X137625014Y-121352490D01*
X137625006Y-121352485D01*
X137571243Y-121321445D01*
X137542808Y-121291624D01*
X137488007Y-121276939D01*
X137488007Y-121276940D01*
X137423740Y-121259720D01*
X137359475Y-121242500D01*
X137359474Y-121242500D01*
X137214523Y-121242500D01*
X137133812Y-121264126D01*
X137098771Y-121268316D01*
X137084897Y-121267986D01*
X137018345Y-121246713D01*
X136973859Y-121192836D01*
X136973855Y-121192827D01*
X136972873Y-121190534D01*
X136970509Y-121185012D01*
X136960500Y-121136206D01*
X136960500Y-118275858D01*
X136960500Y-118275856D01*
X136936614Y-118186712D01*
X136890470Y-118106788D01*
X135410065Y-116626383D01*
X137837500Y-116626383D01*
X137837500Y-116799615D01*
X137863423Y-116963294D01*
X137863424Y-116963294D01*
X137864597Y-116970699D01*
X137918128Y-117135449D01*
X137983179Y-117263118D01*
X137996768Y-117289788D01*
X138098586Y-117429928D01*
X138221072Y-117552414D01*
X138361212Y-117654232D01*
X138515555Y-117732873D01*
X138680299Y-117786402D01*
X138851389Y-117813500D01*
X138851390Y-117813500D01*
X139024610Y-117813500D01*
X139024611Y-117813500D01*
X139195701Y-117786402D01*
X139360445Y-117732873D01*
X139514788Y-117654232D01*
X139654928Y-117552414D01*
X139777414Y-117429928D01*
X139879232Y-117289788D01*
X139957873Y-117135445D01*
X140011402Y-116970701D01*
X140038500Y-116799611D01*
X140038500Y-116626389D01*
X140011402Y-116455299D01*
X139957873Y-116290555D01*
X139879232Y-116136212D01*
X139777414Y-115996072D01*
X139654928Y-115873586D01*
X139514788Y-115771768D01*
X139480705Y-115754402D01*
X139360449Y-115693128D01*
X139209215Y-115643988D01*
X139209203Y-115643985D01*
X139195701Y-115639598D01*
X139195699Y-115639597D01*
X139195698Y-115639597D01*
X139181312Y-115637318D01*
X139181306Y-115637317D01*
X139086053Y-115622231D01*
X139064271Y-115618781D01*
X139043428Y-115615480D01*
X139024614Y-115612500D01*
X139024611Y-115612500D01*
X138851389Y-115612500D01*
X138851388Y-115612500D01*
X138811726Y-115618781D01*
X138811725Y-115618780D01*
X138680304Y-115639596D01*
X138515549Y-115693129D01*
X138361210Y-115771768D01*
X138347816Y-115781500D01*
X138293778Y-115820762D01*
X138232943Y-115864961D01*
X138225562Y-115869094D01*
X138094094Y-116000562D01*
X138089964Y-116007938D01*
X138076227Y-116026846D01*
X138074829Y-116028771D01*
X137996768Y-116136211D01*
X137996765Y-116136215D01*
X137996764Y-116136218D01*
X137918129Y-116290549D01*
X137918128Y-116290551D01*
X137918128Y-116290552D01*
X137912175Y-116308872D01*
X137864596Y-116455305D01*
X137837500Y-116626383D01*
X135410065Y-116626383D01*
X133262337Y-114478655D01*
X133262336Y-114478654D01*
X133262333Y-114478652D01*
X133194468Y-114439471D01*
X133192401Y-114438167D01*
X133190552Y-114436069D01*
X133190021Y-114435662D01*
X133174807Y-114429360D01*
X133166645Y-114428286D01*
X133093269Y-114408625D01*
X133093268Y-114408625D01*
X131580705Y-114408625D01*
X131545764Y-114403600D01*
X131530765Y-114399195D01*
X131472019Y-114361452D01*
X131470832Y-114360083D01*
X131443356Y-114305222D01*
X131442918Y-114303212D01*
X131441710Y-114297658D01*
X131438874Y-114271302D01*
X131438874Y-113775638D01*
X131443897Y-113740705D01*
X131444172Y-113739768D01*
X131451307Y-113715466D01*
X131482601Y-113662723D01*
X133598935Y-111546389D01*
X137837500Y-111546389D01*
X137837500Y-111719611D01*
X137844882Y-111766217D01*
X137846052Y-111773608D01*
X137846053Y-111773617D01*
X137860034Y-111861889D01*
X137864362Y-111889216D01*
X137864598Y-111890701D01*
X137918127Y-112055445D01*
X137996768Y-112209788D01*
X138098586Y-112349928D01*
X138221072Y-112472414D01*
X138361212Y-112574232D01*
X138515555Y-112652873D01*
X138680299Y-112706402D01*
X138851389Y-112733500D01*
X138851390Y-112733500D01*
X139024610Y-112733500D01*
X139024611Y-112733500D01*
X139195701Y-112706402D01*
X139360445Y-112652873D01*
X139514788Y-112574232D01*
X139654928Y-112472414D01*
X139777414Y-112349928D01*
X139879232Y-112209788D01*
X139957873Y-112055445D01*
X140011402Y-111890701D01*
X140012575Y-111883299D01*
X140027954Y-111786195D01*
X140038500Y-111719611D01*
X140038500Y-111546389D01*
X140011402Y-111375299D01*
X139957873Y-111210555D01*
X139879232Y-111056212D01*
X139777414Y-110916072D01*
X139654928Y-110793586D01*
X139514788Y-110691768D01*
X139471803Y-110669866D01*
X139360449Y-110613128D01*
X139209227Y-110563992D01*
X139209216Y-110563989D01*
X139195701Y-110559598D01*
X139195699Y-110559597D01*
X139195698Y-110559597D01*
X139181296Y-110557316D01*
X139181292Y-110557315D01*
X139050137Y-110536543D01*
X139024611Y-110532500D01*
X139024610Y-110532500D01*
X138851390Y-110532500D01*
X138851389Y-110532500D01*
X138825863Y-110536543D01*
X138825862Y-110536543D01*
X138680302Y-110559596D01*
X138680301Y-110559596D01*
X138515547Y-110613129D01*
X138361218Y-110691764D01*
X138361205Y-110691772D01*
X138287890Y-110745039D01*
X138240837Y-110779224D01*
X138240830Y-110779230D01*
X138221072Y-110793586D01*
X138221070Y-110793588D01*
X138221069Y-110793588D01*
X138098588Y-110916069D01*
X138098588Y-110916070D01*
X138098586Y-110916072D01*
X138089280Y-110928881D01*
X138084229Y-110935832D01*
X138084226Y-110935836D01*
X138057001Y-110973308D01*
X137996768Y-111056211D01*
X137996765Y-111056215D01*
X137996764Y-111056218D01*
X137918101Y-111210604D01*
X137917629Y-111211548D01*
X137916546Y-111215416D01*
X137864598Y-111375297D01*
X137864598Y-111375299D01*
X137837500Y-111546389D01*
X133598935Y-111546389D01*
X135952652Y-109192673D01*
X135952657Y-109192669D01*
X135962860Y-109182465D01*
X135962862Y-109182465D01*
X136023465Y-109121862D01*
X136044891Y-109084750D01*
X136066318Y-109047639D01*
X136077372Y-109006383D01*
X137837500Y-109006383D01*
X137837500Y-109179615D01*
X137863423Y-109343294D01*
X137863424Y-109343294D01*
X137864597Y-109350699D01*
X137918128Y-109515449D01*
X137979961Y-109636803D01*
X137996768Y-109669788D01*
X138098586Y-109809928D01*
X138221072Y-109932414D01*
X138361212Y-110034232D01*
X138515555Y-110112873D01*
X138680299Y-110166402D01*
X138851389Y-110193500D01*
X138851390Y-110193500D01*
X139024610Y-110193500D01*
X139024611Y-110193500D01*
X139195701Y-110166402D01*
X139360445Y-110112873D01*
X139514788Y-110034232D01*
X139654928Y-109932414D01*
X139777414Y-109809928D01*
X139879232Y-109669788D01*
X139957873Y-109515445D01*
X140011402Y-109350701D01*
X140038500Y-109179611D01*
X140038500Y-109006389D01*
X140011402Y-108835299D01*
X139957873Y-108670555D01*
X139879232Y-108516212D01*
X139777414Y-108376072D01*
X139654928Y-108253586D01*
X139514788Y-108151768D01*
X139480705Y-108134402D01*
X139360449Y-108073128D01*
X139209215Y-108023988D01*
X139209203Y-108023985D01*
X139195701Y-108019598D01*
X139195699Y-108019597D01*
X139195698Y-108019597D01*
X139181312Y-108017318D01*
X139181306Y-108017317D01*
X139086053Y-108002231D01*
X139064271Y-107998781D01*
X139048407Y-107996268D01*
X139024614Y-107992500D01*
X139024611Y-107992500D01*
X138851389Y-107992500D01*
X138851388Y-107992500D01*
X138811726Y-107998781D01*
X138811725Y-107998780D01*
X138680304Y-108019596D01*
X138515549Y-108073129D01*
X138361210Y-108151768D01*
X138281256Y-108209859D01*
X138281255Y-108209859D01*
X138232941Y-108244961D01*
X138225564Y-108249092D01*
X138094093Y-108380563D01*
X138089961Y-108387942D01*
X138066974Y-108419581D01*
X138066974Y-108419582D01*
X137996768Y-108516210D01*
X137918129Y-108670549D01*
X137918128Y-108670551D01*
X137918128Y-108670552D01*
X137912175Y-108688872D01*
X137864596Y-108835305D01*
X137837500Y-109006383D01*
X136077372Y-109006383D01*
X136088500Y-108964853D01*
X136088500Y-108879147D01*
X136088500Y-103881373D01*
X136093521Y-103846446D01*
X136096707Y-103835593D01*
X136134477Y-103776812D01*
X136198031Y-103747783D01*
X136267186Y-103757721D01*
X136274172Y-103760911D01*
X136310342Y-103786024D01*
X136817788Y-104293470D01*
X136897712Y-104339614D01*
X136986856Y-104363500D01*
X136986857Y-104363500D01*
X137079144Y-104363500D01*
X137787651Y-104363500D01*
X137822583Y-104368521D01*
X137838964Y-104373331D01*
X137895985Y-104409120D01*
X137904915Y-104418991D01*
X137923445Y-104445885D01*
X137996768Y-104589788D01*
X138098586Y-104729928D01*
X138221072Y-104852414D01*
X138361212Y-104954232D01*
X138515555Y-105032873D01*
X138680299Y-105086402D01*
X138851389Y-105113500D01*
X138851390Y-105113500D01*
X139024610Y-105113500D01*
X139024611Y-105113500D01*
X139195701Y-105086402D01*
X139360445Y-105032873D01*
X139514788Y-104954232D01*
X139654928Y-104852414D01*
X139777414Y-104729928D01*
X139879232Y-104589788D01*
X139957873Y-104435445D01*
X140011402Y-104270701D01*
X140038500Y-104099611D01*
X140038500Y-103926389D01*
X140011402Y-103755299D01*
X139957873Y-103590555D01*
X139879232Y-103436212D01*
X139777414Y-103296072D01*
X139654928Y-103173586D01*
X139514788Y-103071768D01*
X139460239Y-103043974D01*
X139360449Y-102993128D01*
X139209215Y-102943988D01*
X139209203Y-102943985D01*
X139195701Y-102939598D01*
X139195699Y-102939597D01*
X139195698Y-102939597D01*
X139181312Y-102937318D01*
X139181306Y-102937317D01*
X139091188Y-102923044D01*
X139064271Y-102918781D01*
X139048407Y-102916268D01*
X139024614Y-102912500D01*
X139024611Y-102912500D01*
X138851389Y-102912500D01*
X138851388Y-102912500D01*
X138811726Y-102918781D01*
X138811725Y-102918780D01*
X138680304Y-102939596D01*
X138515549Y-102993129D01*
X138361218Y-103071764D01*
X138361214Y-103071766D01*
X138361211Y-103071767D01*
X138361211Y-103071768D01*
X138317676Y-103103399D01*
X138314345Y-103105819D01*
X138240834Y-103159227D01*
X138240830Y-103159230D01*
X138221072Y-103173586D01*
X138221070Y-103173588D01*
X138221069Y-103173588D01*
X138098588Y-103296069D01*
X138098588Y-103296070D01*
X138098586Y-103296072D01*
X138084232Y-103315827D01*
X138084224Y-103315836D01*
X138054859Y-103356255D01*
X138054859Y-103356256D01*
X137996768Y-103436210D01*
X137924060Y-103578909D01*
X137903723Y-103607757D01*
X137892002Y-103620167D01*
X137834240Y-103654720D01*
X137824431Y-103657373D01*
X137821391Y-103658196D01*
X137789007Y-103662500D01*
X137247374Y-103662500D01*
X137212438Y-103657477D01*
X137187196Y-103650065D01*
X137134451Y-103618769D01*
X136670426Y-103154744D01*
X136649274Y-103126488D01*
X136636667Y-103103399D01*
X136621500Y-103043974D01*
X136621500Y-96474858D01*
X136621500Y-96474856D01*
X136597614Y-96385712D01*
X136597613Y-96385711D01*
X136597613Y-96385709D01*
X136582113Y-96358864D01*
X136582112Y-96358862D01*
X136568679Y-96335595D01*
X136551472Y-96305791D01*
X136551468Y-96305786D01*
X136551466Y-96305784D01*
X136551460Y-96305777D01*
X135049426Y-94803744D01*
X135028274Y-94775488D01*
X135015667Y-94752399D01*
X135000500Y-94692974D01*
X135000500Y-94075139D01*
X135000064Y-94073134D01*
X134985972Y-94002289D01*
X134985971Y-94002287D01*
X134985967Y-94002264D01*
X134985966Y-94002260D01*
X134985965Y-94002258D01*
X134985964Y-94002256D01*
X134930602Y-93919400D01*
X134921030Y-93913004D01*
X134894776Y-93889420D01*
X134885878Y-93878773D01*
X134857992Y-93814710D01*
X134869163Y-93745750D01*
X134871425Y-93741020D01*
X134914403Y-93691422D01*
X134930601Y-93680601D01*
X134985966Y-93597740D01*
X135000500Y-93524674D01*
X135000500Y-93063372D01*
X135005521Y-93028445D01*
X135008707Y-93017592D01*
X135046477Y-92958811D01*
X135110031Y-92929782D01*
X135179186Y-92939720D01*
X135186172Y-92942910D01*
X135222342Y-92968023D01*
X138538573Y-96284254D01*
X138559723Y-96312506D01*
X138572331Y-96335595D01*
X138587500Y-96395024D01*
X138587500Y-97690670D01*
X138582475Y-97725614D01*
X138578070Y-97740612D01*
X138540327Y-97799355D01*
X138538958Y-97800542D01*
X138484097Y-97828018D01*
X138476539Y-97829663D01*
X138450168Y-97832500D01*
X138063319Y-97832500D01*
X137990285Y-97847027D01*
X137990262Y-97847032D01*
X137990258Y-97847033D01*
X137907399Y-97902399D01*
X137852033Y-97985258D01*
X137852032Y-97985266D01*
X137852028Y-97985281D01*
X137837500Y-98058318D01*
X137837500Y-98058321D01*
X137837500Y-99807678D01*
X137837500Y-99807680D01*
X137837499Y-99807680D01*
X137852028Y-99880717D01*
X137852032Y-99880733D01*
X137852033Y-99880740D01*
X137866975Y-99903102D01*
X137907399Y-99963601D01*
X137990256Y-100018964D01*
X137990258Y-100018965D01*
X137990259Y-100018965D01*
X137990260Y-100018966D01*
X137990264Y-100018967D01*
X137990279Y-100018970D01*
X137990288Y-100018972D01*
X138035021Y-100027869D01*
X138055681Y-100031979D01*
X138058415Y-100032703D01*
X138063323Y-100033500D01*
X139812676Y-100033500D01*
X139816796Y-100033500D01*
X139824648Y-100031117D01*
X139885740Y-100018966D01*
X139968601Y-99963601D01*
X140023966Y-99880740D01*
X140038500Y-99807674D01*
X140038500Y-98058326D01*
X140038500Y-98058323D01*
X140038499Y-98058321D01*
X140023967Y-97985264D01*
X140023966Y-97985260D01*
X139985580Y-97927811D01*
X139978680Y-97917484D01*
X139978678Y-97917479D01*
X139968602Y-97902400D01*
X139968601Y-97902399D01*
X139895891Y-97853816D01*
X139891826Y-97850480D01*
X139885739Y-97847033D01*
X139885735Y-97847032D01*
X139885709Y-97847026D01*
X139812680Y-97832500D01*
X139812677Y-97832500D01*
X139812674Y-97832500D01*
X139430330Y-97832500D01*
X139395389Y-97827475D01*
X139380390Y-97823070D01*
X139321644Y-97785327D01*
X139320457Y-97783958D01*
X139292977Y-97729083D01*
X139291332Y-97721521D01*
X139288500Y-97695168D01*
X139288500Y-96141858D01*
X139288500Y-96141856D01*
X139264614Y-96052712D01*
X139255368Y-96036697D01*
X139218473Y-95972794D01*
X139218470Y-95972791D01*
X139218469Y-95972788D01*
X139153212Y-95907531D01*
X135265212Y-92019530D01*
X135265211Y-92019529D01*
X135265208Y-92019527D01*
X135197343Y-91980346D01*
X135195276Y-91979042D01*
X135193427Y-91976944D01*
X135192896Y-91976537D01*
X135177682Y-91970235D01*
X135169520Y-91969161D01*
X135109625Y-91953112D01*
X135077184Y-91939220D01*
X135063834Y-91931083D01*
X135016837Y-91879383D01*
X135016835Y-91879378D01*
X135012961Y-91871402D01*
X135000500Y-91817227D01*
X135000500Y-91076310D01*
X135000500Y-91075323D01*
X135000499Y-91075321D01*
X134985967Y-91002264D01*
X134985966Y-91002260D01*
X134984122Y-90999500D01*
X134930601Y-90919399D01*
X134921029Y-90913003D01*
X134894776Y-90889420D01*
X134885878Y-90878773D01*
X134857992Y-90814710D01*
X134869166Y-90745743D01*
X134871429Y-90741013D01*
X134914398Y-90691426D01*
X134930601Y-90680601D01*
X134985966Y-90597740D01*
X135000500Y-90524674D01*
X135000500Y-89575326D01*
X135000500Y-89575323D01*
X135000500Y-89575139D01*
X135000064Y-89573134D01*
X134985972Y-89502289D01*
X134985971Y-89502288D01*
X134985967Y-89502264D01*
X134985966Y-89502260D01*
X134979414Y-89492454D01*
X134979412Y-89492451D01*
X134979412Y-89492450D01*
X134947336Y-89444445D01*
X134930601Y-89419399D01*
X134875235Y-89382405D01*
X134849935Y-89365500D01*
X134847740Y-89364033D01*
X134847737Y-89364032D01*
X134847735Y-89364032D01*
X134847725Y-89364030D01*
X134847709Y-89364026D01*
X134774680Y-89349500D01*
X134774677Y-89349500D01*
X134774674Y-89349500D01*
X133225326Y-89349500D01*
X133225323Y-89349500D01*
X133225319Y-89349500D01*
X133152285Y-89364027D01*
X133152262Y-89364032D01*
X133152258Y-89364033D01*
X133069399Y-89419399D01*
X133014033Y-89502259D01*
X133014032Y-89502261D01*
X133009304Y-89526030D01*
X132997563Y-89559310D01*
X132991251Y-89571377D01*
X132942736Y-89621657D01*
X132874739Y-89637725D01*
X132815267Y-89618811D01*
X132782134Y-89597932D01*
X132780826Y-89597790D01*
X132766446Y-89590686D01*
X132745245Y-89578446D01*
X132716808Y-89548624D01*
X132662007Y-89533939D01*
X132662007Y-89533940D01*
X132597740Y-89516720D01*
X132533475Y-89499500D01*
X132533474Y-89499500D01*
X132388525Y-89499500D01*
X132259994Y-89533939D01*
X132259993Y-89533940D01*
X132252338Y-89535991D01*
X132248510Y-89537017D01*
X132122991Y-89609485D01*
X132122984Y-89609490D01*
X132122968Y-89609505D01*
X132020505Y-89711968D01*
X132020490Y-89711984D01*
X132020485Y-89711992D01*
X131948017Y-89837509D01*
X131947989Y-89837578D01*
X131947748Y-89838511D01*
X131910500Y-89977525D01*
X131910500Y-90122475D01*
X131945747Y-90254017D01*
X131948017Y-90262488D01*
X132019744Y-90386722D01*
X132020361Y-90387885D01*
X132122985Y-90490509D01*
X132123674Y-90491005D01*
X132126178Y-90492353D01*
X132245069Y-90560995D01*
X132248087Y-90562869D01*
X132248514Y-90562983D01*
X132248515Y-90562984D01*
X132388525Y-90600500D01*
X132388528Y-90600500D01*
X132533472Y-90600500D01*
X132533475Y-90600500D01*
X132673485Y-90562984D01*
X132763952Y-90510752D01*
X132765724Y-90510154D01*
X132766612Y-90509341D01*
X132806843Y-90487364D01*
X132806844Y-90487365D01*
X132824112Y-90477932D01*
X132892381Y-90463071D01*
X132957849Y-90487477D01*
X132996800Y-90536246D01*
X133000167Y-90543794D01*
X133008535Y-90570104D01*
X133011649Y-90585755D01*
X133012454Y-90593926D01*
X133015611Y-90601549D01*
X133020816Y-90607891D01*
X133069398Y-90680600D01*
X133069399Y-90680601D01*
X133078964Y-90686992D01*
X133105224Y-90710580D01*
X133112604Y-90719412D01*
X133114124Y-90721230D01*
X133142007Y-90785295D01*
X133130836Y-90854248D01*
X133128576Y-90858973D01*
X133085607Y-90908568D01*
X133069401Y-90919396D01*
X133069398Y-90919399D01*
X133014033Y-91002258D01*
X133014032Y-91002266D01*
X133014030Y-91002274D01*
X133000470Y-91070439D01*
X132997831Y-91081179D01*
X132990073Y-91107602D01*
X132952299Y-91166381D01*
X132952288Y-91166390D01*
X132950919Y-91167576D01*
X132896097Y-91195018D01*
X132888539Y-91196663D01*
X132862168Y-91199500D01*
X132831216Y-91199500D01*
X132796280Y-91194477D01*
X132771038Y-91187065D01*
X132718292Y-91155768D01*
X132672030Y-91109505D01*
X132672014Y-91109490D01*
X132672006Y-91109485D01*
X132623148Y-91081277D01*
X132618242Y-91078444D01*
X132589808Y-91048624D01*
X132535007Y-91033939D01*
X132535007Y-91033940D01*
X132470740Y-91016720D01*
X132406475Y-90999500D01*
X132406474Y-90999500D01*
X132261525Y-90999500D01*
X132132994Y-91033939D01*
X132132993Y-91033940D01*
X132125338Y-91035991D01*
X132121510Y-91037017D01*
X131995991Y-91109485D01*
X131995984Y-91109490D01*
X131995968Y-91109505D01*
X131893505Y-91211968D01*
X131893490Y-91211984D01*
X131893485Y-91211992D01*
X131821017Y-91337509D01*
X131820989Y-91337578D01*
X131820748Y-91338511D01*
X131783500Y-91477525D01*
X131783500Y-91622474D01*
X131805198Y-91703455D01*
X131821015Y-91762484D01*
X131821018Y-91762491D01*
X131891631Y-91884795D01*
X131893489Y-91888013D01*
X131995985Y-91990509D01*
X131996674Y-91991005D01*
X131999178Y-91992353D01*
X132118069Y-92060995D01*
X132121087Y-92062869D01*
X132121514Y-92062983D01*
X132121515Y-92062984D01*
X132261525Y-92100500D01*
X132261528Y-92100500D01*
X132406471Y-92100500D01*
X132406472Y-92100500D01*
X132406475Y-92100500D01*
X132434030Y-92093116D01*
X132469066Y-92088927D01*
X132482940Y-92089257D01*
X132549492Y-92110531D01*
X132593968Y-92164385D01*
X132594609Y-92165881D01*
X132604316Y-92223558D01*
X132603959Y-92228553D01*
X132600052Y-92251796D01*
X132599500Y-92253854D01*
X132599500Y-93019940D01*
X132594476Y-93054877D01*
X132587064Y-93080118D01*
X132555769Y-93132862D01*
X124699535Y-100989094D01*
X124699529Y-100989101D01*
X124699525Y-100989107D01*
X124673038Y-101034987D01*
X124673035Y-101034992D01*
X124653386Y-101069021D01*
X124645693Y-101097735D01*
X124629500Y-101158168D01*
X124629500Y-112596897D01*
X124632074Y-112606501D01*
X124643628Y-112649623D01*
X124643632Y-112649636D01*
X124653383Y-112686032D01*
X124653389Y-112686043D01*
X124699526Y-112765957D01*
X124699527Y-112765958D01*
X124699532Y-112765964D01*
X124699538Y-112765971D01*
X125697767Y-113764199D01*
X125718917Y-113792451D01*
X125728413Y-113809841D01*
X125743577Y-113870354D01*
X125743389Y-113891858D01*
X125742683Y-113904030D01*
X125737877Y-113948729D01*
X125737875Y-113948765D01*
X125737875Y-114569501D01*
X125738034Y-114571431D01*
X125738260Y-114573079D01*
X125744282Y-114629107D01*
X125772065Y-114703596D01*
X125794577Y-114763953D01*
X125794581Y-114763960D01*
X125837461Y-114821241D01*
X125880825Y-114879167D01*
X125880831Y-114879173D01*
X125892728Y-114888079D01*
X125996039Y-114965418D01*
X125996046Y-114965422D01*
X126130892Y-115015716D01*
X126130891Y-115015716D01*
X126137819Y-115016460D01*
X126190502Y-115022125D01*
X127186247Y-115022124D01*
X127245858Y-115015716D01*
X127380706Y-114965421D01*
X127495921Y-114879171D01*
X127582171Y-114763956D01*
X127632466Y-114629108D01*
X127638875Y-114569498D01*
X127638874Y-114563052D01*
X127643894Y-114528121D01*
X127647082Y-114517263D01*
X127684852Y-114458487D01*
X127748406Y-114429459D01*
X127817559Y-114439397D01*
X127821269Y-114441091D01*
X127824535Y-114442582D01*
X127860716Y-114467700D01*
X128156970Y-114763953D01*
X128367354Y-114974337D01*
X128432611Y-115039594D01*
X128509526Y-115084001D01*
X128539170Y-115108560D01*
X128539320Y-115108677D01*
X128539352Y-115108711D01*
X128541500Y-115110490D01*
X128544511Y-115113988D01*
X128544834Y-115114425D01*
X128545007Y-115114564D01*
X128547536Y-115117502D01*
X128560618Y-115146397D01*
X128575247Y-115174564D01*
X128574929Y-115178005D01*
X128576354Y-115181152D01*
X128571746Y-115212470D01*
X128569799Y-115233557D01*
X128571728Y-115234049D01*
X128571465Y-115235080D01*
X128569309Y-115238865D01*
X128568825Y-115244113D01*
X128566842Y-115249113D01*
X128566383Y-115248931D01*
X128566185Y-115250278D01*
X128556470Y-115261415D01*
X128538994Y-115292111D01*
X128510328Y-115320776D01*
X128500034Y-115340978D01*
X128494541Y-115351761D01*
X128491127Y-115358461D01*
X128491126Y-115358462D01*
X128452728Y-115433820D01*
X128452725Y-115433828D01*
X128437875Y-115527594D01*
X128437875Y-116615645D01*
X128439576Y-116626383D01*
X128446172Y-116668029D01*
X128452729Y-116709429D01*
X128510325Y-116822467D01*
X128574558Y-116886700D01*
X128575263Y-116887412D01*
X128606773Y-116919509D01*
X128606278Y-116920191D01*
X128622237Y-116935260D01*
X128623883Y-116936937D01*
X128635422Y-116958540D01*
X128655092Y-116991417D01*
X128658570Y-117004270D01*
X128662875Y-117036659D01*
X128662875Y-118371174D01*
X128657851Y-118406111D01*
X128650439Y-118431352D01*
X128619144Y-118484096D01*
X128326112Y-118777127D01*
X128297859Y-118798278D01*
X128285677Y-118804930D01*
X128217404Y-118819782D01*
X128151941Y-118795366D01*
X128146661Y-118791414D01*
X128109585Y-118746617D01*
X128091451Y-118709522D01*
X128091449Y-118709520D01*
X128091449Y-118709519D01*
X128000479Y-118618549D01*
X128000471Y-118618544D01*
X127895542Y-118567247D01*
X127895535Y-118567245D01*
X127884896Y-118562044D01*
X127884894Y-118562043D01*
X127884893Y-118562043D01*
X127868162Y-118559605D01*
X127868161Y-118559605D01*
X127809958Y-118551125D01*
X127809957Y-118551125D01*
X127366793Y-118551125D01*
X127366792Y-118551125D01*
X127308586Y-118559605D01*
X127308581Y-118559606D01*
X127291857Y-118562043D01*
X127291855Y-118562043D01*
X127291853Y-118562044D01*
X127281215Y-118567244D01*
X127281206Y-118567247D01*
X127176276Y-118618545D01*
X127176274Y-118618546D01*
X127099169Y-118695651D01*
X127073492Y-118715354D01*
X127046182Y-118731121D01*
X127016279Y-118743508D01*
X127013913Y-118744142D01*
X127010679Y-118745009D01*
X127010659Y-118745020D01*
X126930760Y-118791150D01*
X126930752Y-118791155D01*
X126930736Y-118791170D01*
X125473917Y-120247988D01*
X125445664Y-120269139D01*
X125425362Y-120280225D01*
X125371082Y-120295286D01*
X125368146Y-120295408D01*
X125346826Y-120294456D01*
X125336084Y-120293043D01*
X125336084Y-120293041D01*
X125336070Y-120293041D01*
X125321524Y-120291126D01*
X125321519Y-120291125D01*
X125321514Y-120291125D01*
X125321511Y-120291125D01*
X125321507Y-120291125D01*
X125095247Y-120291125D01*
X125095242Y-120291125D01*
X125047828Y-120297366D01*
X125047826Y-120297366D01*
X125047823Y-120297367D01*
X124998154Y-120320529D01*
X124964366Y-120330741D01*
X124941220Y-120334256D01*
X124885585Y-120330008D01*
X124883264Y-120329282D01*
X124863990Y-120321422D01*
X124833676Y-120305977D01*
X124833671Y-120305975D01*
X124739905Y-120291125D01*
X124739899Y-120291125D01*
X124376857Y-120291125D01*
X124376853Y-120291125D01*
X124312221Y-120301361D01*
X124312217Y-120301362D01*
X124295894Y-120303948D01*
X124283071Y-120305979D01*
X124170033Y-120363575D01*
X124170032Y-120363576D01*
X124170027Y-120363579D01*
X124167027Y-120366578D01*
X124167024Y-120366580D01*
X124080330Y-120453274D01*
X124080321Y-120453289D01*
X124022728Y-120566320D01*
X124022725Y-120566328D01*
X124007875Y-120660094D01*
X124007875Y-121589055D01*
X124002850Y-121623997D01*
X124002707Y-121624485D01*
X123998445Y-121638997D01*
X123960678Y-121697761D01*
X123953976Y-121703569D01*
X123904863Y-121729635D01*
X123889540Y-121733741D01*
X123889538Y-121733742D01*
X123848037Y-121744862D01*
X123846353Y-121745286D01*
X123846248Y-121745339D01*
X123846238Y-121745344D01*
X123715014Y-121821106D01*
X123715010Y-121821108D01*
X123715001Y-121821116D01*
X123607866Y-121928251D01*
X123607862Y-121928256D01*
X123607853Y-121928270D01*
X123532095Y-122059484D01*
X123523958Y-122089856D01*
X123523957Y-122089858D01*
X123492875Y-122205859D01*
X116279050Y-122205859D01*
X116269438Y-122204477D01*
X116244196Y-122197065D01*
X116191451Y-122165769D01*
X113543942Y-119518260D01*
X114935765Y-119518260D01*
X114935765Y-119663210D01*
X114942635Y-119688848D01*
X114973278Y-119803212D01*
X114973282Y-119803223D01*
X114973283Y-119803224D01*
X115043896Y-119925530D01*
X115045754Y-119928748D01*
X115148250Y-120031244D01*
X115148939Y-120031740D01*
X115151443Y-120033088D01*
X115270334Y-120101730D01*
X115273352Y-120103604D01*
X115273779Y-120103718D01*
X115273780Y-120103719D01*
X115413790Y-120141235D01*
X115413793Y-120141235D01*
X115558737Y-120141235D01*
X115558740Y-120141235D01*
X115677279Y-120109472D01*
X115696048Y-120105966D01*
X115707436Y-120104736D01*
X115707437Y-120104737D01*
X115725625Y-120102773D01*
X115794387Y-120115148D01*
X115806547Y-120121228D01*
X115838774Y-120144456D01*
X117002573Y-121308255D01*
X117023723Y-121336507D01*
X117036331Y-121359596D01*
X117051500Y-121419025D01*
X117051500Y-121484475D01*
X117065939Y-121538361D01*
X117089013Y-121624477D01*
X117089016Y-121624485D01*
X117089017Y-121624488D01*
X117117559Y-121673924D01*
X117159631Y-121746795D01*
X117161489Y-121750013D01*
X117263985Y-121852509D01*
X117264674Y-121853005D01*
X117267178Y-121854353D01*
X117386069Y-121922995D01*
X117389087Y-121924869D01*
X117389514Y-121924983D01*
X117389515Y-121924984D01*
X117529525Y-121962500D01*
X117529528Y-121962500D01*
X117674472Y-121962500D01*
X117674475Y-121962500D01*
X117814485Y-121924984D01*
X117940015Y-121852509D01*
X118042509Y-121750015D01*
X118114984Y-121624485D01*
X118152500Y-121484475D01*
X118152500Y-121339525D01*
X118114984Y-121199515D01*
X118085799Y-121148966D01*
X118085798Y-121148964D01*
X118085798Y-121148963D01*
X118042513Y-121073992D01*
X118042508Y-121073984D01*
X118042493Y-121073968D01*
X117940030Y-120971505D01*
X117940014Y-120971490D01*
X117940006Y-120971485D01*
X117886243Y-120940445D01*
X117857808Y-120910624D01*
X117803007Y-120895939D01*
X117803007Y-120895940D01*
X117738740Y-120878720D01*
X117674475Y-120861500D01*
X117674474Y-120861500D01*
X117616374Y-120861500D01*
X117581438Y-120856477D01*
X117556196Y-120849065D01*
X117503451Y-120817769D01*
X116197646Y-119511964D01*
X116176494Y-119483708D01*
X116167477Y-119467194D01*
X116152345Y-119404828D01*
X116152405Y-119402287D01*
X116152592Y-119394410D01*
X116156784Y-119365257D01*
X116160014Y-119353207D01*
X116160017Y-119353196D01*
X116160029Y-119353199D01*
X116160030Y-119353144D01*
X116160314Y-119352088D01*
X116165263Y-119333615D01*
X116174500Y-119299144D01*
X116174500Y-118700989D01*
X123587875Y-118700989D01*
X123587875Y-119222261D01*
X123592124Y-119251426D01*
X123596072Y-119278527D01*
X123596073Y-119278531D01*
X123598509Y-119295250D01*
X123598509Y-119295251D01*
X123598510Y-119295253D01*
X123603710Y-119305890D01*
X123603711Y-119305893D01*
X123653548Y-119407837D01*
X123742161Y-119496450D01*
X123742162Y-119496450D01*
X123742164Y-119496452D01*
X123849947Y-119549143D01*
X123849946Y-119549143D01*
X123854345Y-119551293D01*
X123854750Y-119551491D01*
X123927739Y-119562125D01*
X123927745Y-119562125D01*
X124249005Y-119562125D01*
X124249011Y-119562125D01*
X124322000Y-119551491D01*
X124389975Y-119518260D01*
X124434585Y-119496452D01*
X124523202Y-119407835D01*
X124537015Y-119379581D01*
X124550456Y-119352087D01*
X124559717Y-119333142D01*
X124578241Y-119295250D01*
X124588875Y-119222261D01*
X124588875Y-118700989D01*
X124578241Y-118628000D01*
X124573619Y-118618546D01*
X124523202Y-118515414D01*
X124523201Y-118515413D01*
X124523201Y-118515412D01*
X124434587Y-118426798D01*
X124332644Y-118376962D01*
X124322003Y-118371760D01*
X124322001Y-118371759D01*
X124322000Y-118371759D01*
X124305279Y-118369322D01*
X124305276Y-118369322D01*
X124284477Y-118366292D01*
X124249011Y-118361125D01*
X124249006Y-118361125D01*
X123927744Y-118361125D01*
X123927739Y-118361125D01*
X123904162Y-118364559D01*
X123871470Y-118369322D01*
X123871462Y-118369324D01*
X123854750Y-118371759D01*
X123854748Y-118371759D01*
X123854746Y-118371760D01*
X123844110Y-118376959D01*
X123844104Y-118376961D01*
X123742161Y-118426798D01*
X123653548Y-118515411D01*
X123598730Y-118627545D01*
X123598511Y-118627986D01*
X123598359Y-118628629D01*
X123598351Y-118629084D01*
X123587875Y-118700989D01*
X116174500Y-118700989D01*
X116174500Y-117308373D01*
X116179522Y-117273440D01*
X116182553Y-117263118D01*
X116186934Y-117248195D01*
X116218228Y-117195453D01*
X116874932Y-116538750D01*
X123455500Y-116538750D01*
X123455500Y-117584501D01*
X123455659Y-117586431D01*
X123455885Y-117588079D01*
X123461907Y-117644107D01*
X123489690Y-117718596D01*
X123512202Y-117778953D01*
X123512206Y-117778960D01*
X123538063Y-117813500D01*
X123598450Y-117894167D01*
X123598452Y-117894169D01*
X123598455Y-117894172D01*
X123713664Y-117980418D01*
X123713671Y-117980422D01*
X123758618Y-117997186D01*
X123848517Y-118030716D01*
X123908127Y-118037125D01*
X124503872Y-118037124D01*
X124563483Y-118030716D01*
X124698331Y-117980421D01*
X124813546Y-117894171D01*
X124899796Y-117778956D01*
X124950091Y-117644108D01*
X124956500Y-117584498D01*
X124956499Y-116538753D01*
X124950091Y-116479142D01*
X124944502Y-116464158D01*
X124940753Y-116454107D01*
X124899798Y-116344298D01*
X124899797Y-116344296D01*
X124899795Y-116344293D01*
X124899793Y-116344289D01*
X124813547Y-116229080D01*
X124813544Y-116229077D01*
X124813542Y-116229075D01*
X124720921Y-116159739D01*
X124698335Y-116142831D01*
X124698331Y-116142829D01*
X124698327Y-116142826D01*
X124698325Y-116142825D01*
X124573654Y-116096327D01*
X124573651Y-116096326D01*
X124563486Y-116092535D01*
X124563485Y-116092534D01*
X124563483Y-116092534D01*
X124550021Y-116091086D01*
X124550014Y-116091085D01*
X124503883Y-116086126D01*
X124503881Y-116086125D01*
X124503873Y-116086125D01*
X124503865Y-116086125D01*
X123908123Y-116086125D01*
X123906192Y-116086284D01*
X123904545Y-116086510D01*
X123848516Y-116092533D01*
X123713677Y-116142825D01*
X123713666Y-116142829D01*
X123713665Y-116142830D01*
X123598456Y-116229075D01*
X123598450Y-116229081D01*
X123512205Y-116344290D01*
X123512203Y-116344293D01*
X123461908Y-116479141D01*
X123455500Y-116538750D01*
X116874932Y-116538750D01*
X116965932Y-116447750D01*
X117115150Y-116298532D01*
X117268845Y-116144837D01*
X117314989Y-116064913D01*
X117318059Y-116053452D01*
X117324674Y-116028771D01*
X117333436Y-115996069D01*
X117338875Y-115975769D01*
X117338875Y-115773760D01*
X125737875Y-115773760D01*
X125737875Y-116394501D01*
X125738034Y-116396431D01*
X125738260Y-116398079D01*
X125744282Y-116454107D01*
X125772065Y-116528596D01*
X125794577Y-116588953D01*
X125794581Y-116588960D01*
X125822596Y-116626383D01*
X125880825Y-116704167D01*
X125880831Y-116704173D01*
X125887851Y-116709428D01*
X125996039Y-116790418D01*
X125996046Y-116790422D01*
X126130892Y-116840716D01*
X126130891Y-116840716D01*
X126137819Y-116841460D01*
X126190502Y-116847125D01*
X127186247Y-116847124D01*
X127245858Y-116840716D01*
X127380706Y-116790421D01*
X127495921Y-116704171D01*
X127582171Y-116588956D01*
X127632466Y-116454108D01*
X127638875Y-116394498D01*
X127638874Y-115773753D01*
X127632466Y-115714142D01*
X127628603Y-115703786D01*
X127627516Y-115700871D01*
X127582173Y-115579298D01*
X127582172Y-115579296D01*
X127582168Y-115579289D01*
X127495922Y-115464080D01*
X127495919Y-115464077D01*
X127495917Y-115464075D01*
X127413407Y-115402308D01*
X127380710Y-115377831D01*
X127380707Y-115377829D01*
X127380705Y-115377828D01*
X127380703Y-115377827D01*
X127245857Y-115327533D01*
X127245858Y-115327533D01*
X127186258Y-115321126D01*
X127186256Y-115321125D01*
X127186248Y-115321125D01*
X127186239Y-115321125D01*
X127185216Y-115321125D01*
X126190498Y-115321125D01*
X126188567Y-115321284D01*
X126186920Y-115321510D01*
X126130891Y-115327533D01*
X126065933Y-115351761D01*
X125996041Y-115377829D01*
X125996040Y-115377830D01*
X125880831Y-115464075D01*
X125880825Y-115464081D01*
X125794580Y-115579290D01*
X125794576Y-115579296D01*
X125794575Y-115579298D01*
X125744286Y-115714132D01*
X125744283Y-115714145D01*
X125737876Y-115773741D01*
X125737875Y-115773760D01*
X117338875Y-115773760D01*
X117338875Y-115437244D01*
X117343898Y-115402308D01*
X117348302Y-115387310D01*
X117386070Y-115328538D01*
X117387230Y-115327533D01*
X117395139Y-115320679D01*
X117433008Y-115298210D01*
X117480706Y-115280421D01*
X117480706Y-115280420D01*
X117480708Y-115280420D01*
X117480708Y-115280419D01*
X117595921Y-115194171D01*
X117682171Y-115078956D01*
X117732466Y-114944108D01*
X117738875Y-114884498D01*
X117738874Y-113838753D01*
X117732466Y-113779142D01*
X117727633Y-113766185D01*
X117727012Y-113764521D01*
X117682173Y-113644298D01*
X117682172Y-113644296D01*
X117682170Y-113644293D01*
X117682168Y-113644289D01*
X117595922Y-113529080D01*
X117595919Y-113529077D01*
X117595917Y-113529075D01*
X117526607Y-113477190D01*
X117480710Y-113442831D01*
X117480706Y-113442829D01*
X117480702Y-113442826D01*
X117480700Y-113442825D01*
X117356029Y-113396327D01*
X117356026Y-113396326D01*
X117345861Y-113392535D01*
X117345860Y-113392534D01*
X117345858Y-113392534D01*
X117332396Y-113391086D01*
X117332389Y-113391085D01*
X117286258Y-113386126D01*
X117286256Y-113386125D01*
X117286248Y-113386125D01*
X117286240Y-113386125D01*
X116690498Y-113386125D01*
X116688567Y-113386284D01*
X116686920Y-113386510D01*
X116630891Y-113392533D01*
X116496052Y-113442825D01*
X116496041Y-113442829D01*
X116496040Y-113442830D01*
X116380831Y-113529075D01*
X116380825Y-113529081D01*
X116294580Y-113644290D01*
X116294578Y-113644293D01*
X116244282Y-113779141D01*
X116239765Y-113821172D01*
X116239764Y-113821171D01*
X116237877Y-113838733D01*
X116237876Y-113838747D01*
X116237876Y-113838748D01*
X116237876Y-113838754D01*
X116237875Y-113838764D01*
X116237875Y-114884501D01*
X116238034Y-114886431D01*
X116238260Y-114888079D01*
X116244282Y-114944107D01*
X116259351Y-114984508D01*
X116294577Y-115078953D01*
X116294581Y-115078960D01*
X116323384Y-115117436D01*
X116380825Y-115194167D01*
X116380827Y-115194169D01*
X116380830Y-115194172D01*
X116496039Y-115280418D01*
X116496044Y-115280421D01*
X116540502Y-115297002D01*
X116571474Y-115313912D01*
X116583996Y-115323285D01*
X116625863Y-115379210D01*
X116630055Y-115390450D01*
X116637875Y-115433786D01*
X116637875Y-115715251D01*
X116632851Y-115750188D01*
X116625439Y-115775429D01*
X116594144Y-115828173D01*
X115543534Y-116878782D01*
X115543528Y-116878789D01*
X115543526Y-116878791D01*
X115497389Y-116958703D01*
X115497387Y-116958708D01*
X115497382Y-116958725D01*
X115473500Y-117047856D01*
X115473500Y-118911257D01*
X115468475Y-118946201D01*
X115464070Y-118961199D01*
X115426302Y-119019964D01*
X115419601Y-119025771D01*
X115370489Y-119051836D01*
X115273777Y-119077751D01*
X115273772Y-119077753D01*
X115148257Y-119150220D01*
X115148249Y-119150225D01*
X115148233Y-119150240D01*
X115045770Y-119252703D01*
X115045755Y-119252719D01*
X115045750Y-119252727D01*
X114973282Y-119378244D01*
X114973269Y-119378276D01*
X114973174Y-119378649D01*
X114935765Y-119518260D01*
X113543942Y-119518260D01*
X112526198Y-118500516D01*
X112505049Y-118472266D01*
X112498394Y-118460078D01*
X112483543Y-118391808D01*
X112507957Y-118326347D01*
X112509969Y-118323660D01*
X112552159Y-118287893D01*
X112553911Y-118286985D01*
X112572654Y-118279145D01*
X112575932Y-118278080D01*
X112690445Y-118240873D01*
X112844788Y-118162232D01*
X112984928Y-118060414D01*
X113107414Y-117937928D01*
X113209232Y-117797788D01*
X113287873Y-117643445D01*
X113341402Y-117478701D01*
X113368500Y-117307611D01*
X113368500Y-117134389D01*
X113341402Y-116963299D01*
X113291907Y-116810972D01*
X113285892Y-116776211D01*
X113285404Y-116759135D01*
X113301816Y-116693864D01*
X113308452Y-116682307D01*
X113328294Y-116656385D01*
X115698470Y-114286212D01*
X115744614Y-114206288D01*
X115766049Y-114126291D01*
X115768500Y-114117144D01*
X115768500Y-112675243D01*
X115779799Y-112636762D01*
X115785441Y-112607887D01*
X115797550Y-112595250D01*
X115799256Y-112593010D01*
X115799511Y-112593204D01*
X115833785Y-112557443D01*
X115901727Y-112541144D01*
X115967696Y-112564164D01*
X115993173Y-112588581D01*
X115994577Y-112590375D01*
X115995606Y-112591690D01*
X116008425Y-112611799D01*
X116021144Y-112636762D01*
X116021949Y-112638341D01*
X116021954Y-112638347D01*
X116111652Y-112728045D01*
X116111654Y-112728046D01*
X116111658Y-112728050D01*
X116224694Y-112785645D01*
X116224698Y-112785647D01*
X116318220Y-112800458D01*
X116318457Y-112800497D01*
X116318466Y-112800497D01*
X116318475Y-112800499D01*
X116318481Y-112800500D01*
X117406518Y-112800499D01*
X117500304Y-112785646D01*
X117613342Y-112728050D01*
X117703050Y-112638342D01*
X117760646Y-112525304D01*
X117760646Y-112525302D01*
X117760647Y-112525301D01*
X117760648Y-112525294D01*
X117761785Y-112520560D01*
X117761785Y-112520558D01*
X117761789Y-112520539D01*
X117762173Y-112515668D01*
X117775111Y-112433979D01*
X117775437Y-112432154D01*
X117775499Y-112431523D01*
X117775500Y-112431519D01*
X117775499Y-112068482D01*
X117760646Y-111974696D01*
X117703050Y-111861658D01*
X117703046Y-111861654D01*
X117703045Y-111861652D01*
X117613347Y-111771954D01*
X117613344Y-111771952D01*
X117613342Y-111771950D01*
X117613341Y-111771949D01*
X117518742Y-111723748D01*
X117518741Y-111723748D01*
X117500302Y-111714352D01*
X117500295Y-111714350D01*
X117406530Y-111699500D01*
X117406524Y-111699500D01*
X117406519Y-111699500D01*
X117354830Y-111699500D01*
X117319889Y-111694475D01*
X117304890Y-111690070D01*
X117246144Y-111652327D01*
X117244957Y-111650958D01*
X117217477Y-111596083D01*
X117215832Y-111588521D01*
X117213000Y-111562168D01*
X117213000Y-111482358D01*
X117213000Y-111482356D01*
X117189114Y-111393212D01*
X117178772Y-111375299D01*
X117161275Y-111344994D01*
X117148888Y-111315087D01*
X117140725Y-111284621D01*
X117136500Y-111252529D01*
X117136500Y-111179527D01*
X117136500Y-111179525D01*
X117108172Y-111073807D01*
X117103983Y-111038767D01*
X117104313Y-111024895D01*
X117125587Y-110958344D01*
X117179463Y-110913858D01*
X117184318Y-110911779D01*
X117187288Y-110910508D01*
X117236095Y-110900499D01*
X117406517Y-110900499D01*
X117406518Y-110900499D01*
X117500304Y-110885646D01*
X117613342Y-110828050D01*
X117703050Y-110738342D01*
X117760646Y-110625304D01*
X117760646Y-110625302D01*
X117760647Y-110625301D01*
X117760649Y-110625285D01*
X117761785Y-110620559D01*
X117761789Y-110620539D01*
X117762173Y-110615667D01*
X117773804Y-110542230D01*
X117773804Y-110542224D01*
X117775500Y-110531519D01*
X117775499Y-110168482D01*
X117775497Y-110168469D01*
X118224500Y-110168469D01*
X118224500Y-110531518D01*
X118228947Y-110559596D01*
X118228947Y-110559597D01*
X118228948Y-110559597D01*
X118228948Y-110559598D01*
X118239354Y-110625304D01*
X118296950Y-110738342D01*
X118296952Y-110738344D01*
X118296954Y-110738347D01*
X118386652Y-110828045D01*
X118386653Y-110828045D01*
X118386657Y-110828049D01*
X118386664Y-110828054D01*
X118386883Y-110828165D01*
X118483494Y-110877391D01*
X118483498Y-110877392D01*
X118483499Y-110877393D01*
X118499698Y-110885647D01*
X118593220Y-110900458D01*
X118593457Y-110900497D01*
X118593466Y-110900497D01*
X118593475Y-110900499D01*
X118593481Y-110900500D01*
X119649673Y-110900499D01*
X119684606Y-110905521D01*
X119699603Y-110909925D01*
X119758355Y-110947670D01*
X119759542Y-110949039D01*
X119787019Y-111003903D01*
X119788664Y-111011462D01*
X119791500Y-111037830D01*
X119791500Y-111516783D01*
X119786476Y-111551720D01*
X119779064Y-111576961D01*
X119747769Y-111629705D01*
X119726901Y-111650573D01*
X119698650Y-111671722D01*
X119675562Y-111684330D01*
X119616132Y-111699500D01*
X118593478Y-111699500D01*
X118528846Y-111709736D01*
X118528842Y-111709737D01*
X118512519Y-111712323D01*
X118499696Y-111714354D01*
X118386658Y-111771950D01*
X118386657Y-111771951D01*
X118386652Y-111771954D01*
X118383652Y-111774953D01*
X118383649Y-111774955D01*
X118296954Y-111861650D01*
X118296950Y-111861658D01*
X118282158Y-111890691D01*
X118282155Y-111890696D01*
X118282154Y-111890697D01*
X118239352Y-111974696D01*
X118239350Y-111974703D01*
X118224500Y-112068469D01*
X118224500Y-112431520D01*
X118232838Y-112484167D01*
X118232839Y-112484169D01*
X118235292Y-112499657D01*
X118239354Y-112525304D01*
X118296950Y-112638342D01*
X118296952Y-112638344D01*
X118296954Y-112638347D01*
X118386652Y-112728045D01*
X118386654Y-112728046D01*
X118386658Y-112728050D01*
X118499694Y-112785645D01*
X118499698Y-112785647D01*
X118593220Y-112800458D01*
X118593457Y-112800497D01*
X118593466Y-112800497D01*
X118593475Y-112800499D01*
X118593481Y-112800500D01*
X119488178Y-112800499D01*
X119523107Y-112805520D01*
X119536425Y-112809431D01*
X119595203Y-112847203D01*
X119624229Y-112910758D01*
X119624230Y-112910759D01*
X119625440Y-112919174D01*
X119622477Y-112968916D01*
X119591500Y-113084525D01*
X119591500Y-113229474D01*
X119629013Y-113369477D01*
X119629016Y-113369485D01*
X119629017Y-113369488D01*
X119654506Y-113413636D01*
X119699631Y-113491795D01*
X119701489Y-113495013D01*
X119701491Y-113495015D01*
X119803985Y-113597509D01*
X119858437Y-113628947D01*
X119886180Y-113650764D01*
X119896968Y-113662078D01*
X119928984Y-113724180D01*
X119928985Y-113724183D01*
X119930265Y-113730825D01*
X119924687Y-113797623D01*
X119894282Y-113879141D01*
X119887875Y-113938749D01*
X119887875Y-114984501D01*
X119888034Y-114986431D01*
X119888260Y-114988079D01*
X119894282Y-115044107D01*
X119909810Y-115085739D01*
X119944577Y-115178953D01*
X119944581Y-115178960D01*
X119955965Y-115194167D01*
X120030825Y-115294167D01*
X120030831Y-115294173D01*
X120054669Y-115312018D01*
X120146039Y-115380418D01*
X120146046Y-115380422D01*
X120190993Y-115397186D01*
X120280892Y-115430716D01*
X120340502Y-115437125D01*
X120936247Y-115437124D01*
X120995858Y-115430716D01*
X121130706Y-115380421D01*
X121245921Y-115294171D01*
X121332171Y-115178956D01*
X121382466Y-115044108D01*
X121388875Y-114984498D01*
X121388874Y-113938753D01*
X121382466Y-113879142D01*
X121380718Y-113874455D01*
X121370806Y-113847879D01*
X121370799Y-113847863D01*
X121370793Y-113847846D01*
X121332172Y-113744296D01*
X121332168Y-113744289D01*
X121245922Y-113629080D01*
X121245919Y-113629077D01*
X121245917Y-113629075D01*
X121181029Y-113580500D01*
X121130710Y-113542831D01*
X121130707Y-113542829D01*
X121130705Y-113542828D01*
X121130703Y-113542827D01*
X120995857Y-113492533D01*
X120995858Y-113492533D01*
X120936258Y-113486126D01*
X120936256Y-113486125D01*
X120936248Y-113486125D01*
X120936240Y-113486125D01*
X120935216Y-113486125D01*
X120803160Y-113486125D01*
X120768221Y-113481101D01*
X120754903Y-113477190D01*
X120696126Y-113439414D01*
X120667104Y-113375858D01*
X120665894Y-113367441D01*
X120668857Y-113317705D01*
X120692500Y-113229475D01*
X120692500Y-113186039D01*
X120695566Y-113171566D01*
X120695394Y-113170730D01*
X120700078Y-113150268D01*
X120703154Y-113135754D01*
X120703975Y-113133902D01*
X120705109Y-113131557D01*
X120705291Y-113130936D01*
X120706976Y-113127139D01*
X120727592Y-113102818D01*
X120747071Y-113077372D01*
X120748736Y-113076153D01*
X120751097Y-113075089D01*
X120752155Y-113073842D01*
X120757482Y-113072214D01*
X120795631Y-113055038D01*
X120795631Y-113055037D01*
X120795634Y-113055038D01*
X120803475Y-113053331D01*
X120829830Y-113050499D01*
X121822871Y-113050499D01*
X121822872Y-113050499D01*
X121882483Y-113044091D01*
X122017331Y-112993796D01*
X122132546Y-112907546D01*
X122132547Y-112907544D01*
X122132549Y-112907543D01*
X122218793Y-112792335D01*
X122218792Y-112792335D01*
X122218796Y-112792331D01*
X122269091Y-112657483D01*
X122275500Y-112597873D01*
X122275499Y-112002128D01*
X122270299Y-111953757D01*
X122270300Y-111953756D01*
X122270298Y-111953749D01*
X122269091Y-111942517D01*
X122257651Y-111911844D01*
X122218797Y-111807671D01*
X122218793Y-111807664D01*
X122137821Y-111699500D01*
X122132548Y-111692456D01*
X122132542Y-111692450D01*
X122048725Y-111629705D01*
X122017335Y-111606206D01*
X122017332Y-111606204D01*
X122017330Y-111606203D01*
X122017328Y-111606202D01*
X121882482Y-111555908D01*
X121882483Y-111555908D01*
X121822883Y-111549501D01*
X121822881Y-111549500D01*
X121822873Y-111549500D01*
X121822864Y-111549500D01*
X121821841Y-111549500D01*
X120778883Y-111549500D01*
X120777129Y-111549500D01*
X120777123Y-111549501D01*
X120717515Y-111555909D01*
X120668571Y-111574163D01*
X120660259Y-111576022D01*
X120655708Y-111575722D01*
X120642049Y-111578694D01*
X120628207Y-111579684D01*
X120559934Y-111564832D01*
X120510529Y-111515427D01*
X120510527Y-111515423D01*
X120507666Y-111510183D01*
X120492500Y-111450760D01*
X120492500Y-110645859D01*
X120492500Y-110645857D01*
X120468614Y-110556713D01*
X120460253Y-110542232D01*
X120460252Y-110542230D01*
X120422471Y-110476791D01*
X120422467Y-110476786D01*
X120422465Y-110476784D01*
X120422459Y-110476777D01*
X120074427Y-110128746D01*
X120056377Y-110105849D01*
X120030078Y-110062928D01*
X120025333Y-110054456D01*
X120005616Y-110015759D01*
X119978050Y-109961658D01*
X119978047Y-109961655D01*
X119978045Y-109961652D01*
X119978044Y-109961651D01*
X119978043Y-109961649D01*
X119888355Y-109871961D01*
X119888349Y-109871956D01*
X119888347Y-109871954D01*
X119888344Y-109871952D01*
X119888342Y-109871950D01*
X119888340Y-109871949D01*
X119888339Y-109871948D01*
X119811519Y-109832805D01*
X119811519Y-109832806D01*
X119810258Y-109832163D01*
X119775301Y-109814352D01*
X119775299Y-109814351D01*
X119775298Y-109814351D01*
X119775296Y-109814350D01*
X119681530Y-109799500D01*
X119681524Y-109799500D01*
X118593482Y-109799500D01*
X118593478Y-109799500D01*
X118528846Y-109809736D01*
X118528842Y-109809737D01*
X118512519Y-109812323D01*
X118499696Y-109814354D01*
X118386658Y-109871950D01*
X118386657Y-109871951D01*
X118386652Y-109871954D01*
X118383652Y-109874953D01*
X118383649Y-109874955D01*
X118296953Y-109961651D01*
X118296949Y-109961659D01*
X118286078Y-109982996D01*
X118277985Y-109998879D01*
X118277984Y-109998880D01*
X118239353Y-110074695D01*
X118239350Y-110074703D01*
X118224500Y-110168469D01*
X117775497Y-110168469D01*
X117760646Y-110074696D01*
X117703050Y-109961658D01*
X117703046Y-109961654D01*
X117703045Y-109961652D01*
X117613347Y-109871954D01*
X117613344Y-109871952D01*
X117613342Y-109871950D01*
X117613340Y-109871949D01*
X117613339Y-109871948D01*
X117536519Y-109832805D01*
X117536519Y-109832806D01*
X117535258Y-109832163D01*
X117500301Y-109814352D01*
X117500299Y-109814351D01*
X117500298Y-109814351D01*
X117500296Y-109814350D01*
X117406530Y-109799500D01*
X117406524Y-109799500D01*
X116318482Y-109799500D01*
X116318478Y-109799500D01*
X116253846Y-109809736D01*
X116253842Y-109809737D01*
X116237519Y-109812323D01*
X116224696Y-109814354D01*
X116111658Y-109871950D01*
X116111657Y-109871951D01*
X116111652Y-109871954D01*
X116108652Y-109874953D01*
X116108651Y-109874954D01*
X116021951Y-109961655D01*
X116021948Y-109961659D01*
X116011077Y-109982996D01*
X115983538Y-110012153D01*
X115965413Y-110035310D01*
X115948860Y-110041081D01*
X115946252Y-110042336D01*
X115946109Y-110042040D01*
X115899438Y-110058313D01*
X115831501Y-110041995D01*
X115783170Y-109991538D01*
X115771551Y-109958211D01*
X115770795Y-109954336D01*
X115768500Y-109930592D01*
X115768500Y-101392329D01*
X115773523Y-101357393D01*
X115777927Y-101342395D01*
X115815672Y-101283644D01*
X115817041Y-101282457D01*
X115871920Y-101254977D01*
X115879479Y-101253333D01*
X115905832Y-101250500D01*
X117278796Y-101250500D01*
X117286648Y-101248117D01*
X117347740Y-101235966D01*
X117430601Y-101180601D01*
X117485966Y-101097740D01*
X117485966Y-101097738D01*
X117485968Y-101097734D01*
X117500499Y-101024678D01*
X117500500Y-101024676D01*
X117500500Y-100079088D01*
X117500500Y-100075326D01*
X117500500Y-100075323D01*
X117500499Y-100075321D01*
X117485967Y-100002264D01*
X117485966Y-100002260D01*
X117460135Y-99963601D01*
X117430601Y-99919399D01*
X117421029Y-99913003D01*
X117394776Y-99889420D01*
X117385878Y-99878773D01*
X117357992Y-99814710D01*
X117369166Y-99745743D01*
X117371429Y-99741013D01*
X117414398Y-99691426D01*
X117430601Y-99680601D01*
X117485966Y-99597740D01*
X117485971Y-99597717D01*
X117499529Y-99529557D01*
X117502169Y-99518812D01*
X117502195Y-99518721D01*
X117502196Y-99518722D01*
X117509927Y-99492392D01*
X117547699Y-99433619D01*
X117549076Y-99432426D01*
X117603920Y-99404977D01*
X117611479Y-99403333D01*
X117637832Y-99400500D01*
X118397181Y-99400500D01*
X118432115Y-99405523D01*
X118450169Y-99410824D01*
X118504981Y-99444234D01*
X118512169Y-99451773D01*
X118529809Y-99475338D01*
X118540574Y-99493982D01*
X118558491Y-99525015D01*
X118558493Y-99525017D01*
X118660985Y-99627509D01*
X118661674Y-99628005D01*
X118664178Y-99629353D01*
X118783069Y-99697995D01*
X118786087Y-99699869D01*
X118786514Y-99699983D01*
X118786515Y-99699984D01*
X118926525Y-99737500D01*
X118926528Y-99737500D01*
X119071472Y-99737500D01*
X119071475Y-99737500D01*
X119211485Y-99699984D01*
X119337015Y-99627509D01*
X119439509Y-99525015D01*
X119511984Y-99399485D01*
X119549500Y-99259475D01*
X119549500Y-99114525D01*
X119511984Y-98974515D01*
X119439509Y-98848985D01*
X119337015Y-98746491D01*
X119337013Y-98746489D01*
X119336321Y-98745990D01*
X119333802Y-98744635D01*
X119283242Y-98715444D01*
X119254808Y-98685624D01*
X119176415Y-98664619D01*
X119176414Y-98664618D01*
X119095666Y-98642982D01*
X119071475Y-98636500D01*
X119071474Y-98636500D01*
X118926525Y-98636500D01*
X118821584Y-98664618D01*
X118821585Y-98664619D01*
X118786511Y-98674017D01*
X118786504Y-98674020D01*
X118785280Y-98674727D01*
X118755381Y-98687111D01*
X118724919Y-98695274D01*
X118692823Y-98699500D01*
X117642330Y-98699500D01*
X117607389Y-98694475D01*
X117592390Y-98690070D01*
X117533644Y-98652327D01*
X117532457Y-98650958D01*
X117504977Y-98596082D01*
X117503333Y-98588524D01*
X117503095Y-98586318D01*
X117500998Y-98577431D01*
X117500064Y-98573134D01*
X117485972Y-98502289D01*
X117485967Y-98502266D01*
X117485967Y-98502264D01*
X117485966Y-98502260D01*
X117463085Y-98468016D01*
X117430601Y-98419399D01*
X117406793Y-98403491D01*
X117395664Y-98390471D01*
X117395473Y-98390046D01*
X117394776Y-98389420D01*
X117385878Y-98378773D01*
X117357992Y-98314710D01*
X117369166Y-98245743D01*
X117371429Y-98241013D01*
X117414398Y-98191426D01*
X117430601Y-98180601D01*
X117485966Y-98097740D01*
X117500500Y-98024674D01*
X117500500Y-97075326D01*
X117500500Y-97075323D01*
X117500500Y-97075139D01*
X117500064Y-97073134D01*
X117485972Y-97002289D01*
X117485967Y-97002266D01*
X117485967Y-97002264D01*
X117485966Y-97002260D01*
X117485965Y-97002258D01*
X117485964Y-97002256D01*
X117430602Y-96919400D01*
X117430596Y-96919396D01*
X117421029Y-96913003D01*
X117394776Y-96889420D01*
X117385878Y-96878773D01*
X117357992Y-96814710D01*
X117369166Y-96745743D01*
X117371429Y-96741013D01*
X117414398Y-96691426D01*
X117430601Y-96680601D01*
X117485966Y-96597740D01*
X117500500Y-96524674D01*
X117500500Y-95575326D01*
X117500500Y-95575323D01*
X117500500Y-95575139D01*
X117500064Y-95573134D01*
X117485972Y-95502289D01*
X117485967Y-95502266D01*
X117485967Y-95502264D01*
X117485966Y-95502260D01*
X117485965Y-95502258D01*
X117485964Y-95502256D01*
X117430602Y-95419400D01*
X117430596Y-95419396D01*
X117421029Y-95413003D01*
X117394776Y-95389420D01*
X117385878Y-95378773D01*
X117357992Y-95314710D01*
X117369166Y-95245743D01*
X117371429Y-95241013D01*
X117414398Y-95191426D01*
X117430601Y-95180601D01*
X117485966Y-95097740D01*
X117500500Y-95024674D01*
X117500500Y-94075326D01*
X117500500Y-94075323D01*
X117500500Y-94075139D01*
X117500064Y-94073134D01*
X117485972Y-94002289D01*
X117485971Y-94002287D01*
X117485967Y-94002264D01*
X117485966Y-94002260D01*
X117485965Y-94002258D01*
X117485964Y-94002256D01*
X117430602Y-93919400D01*
X117421030Y-93913004D01*
X117394776Y-93889420D01*
X117385878Y-93878773D01*
X117357992Y-93814710D01*
X117369163Y-93745750D01*
X117371425Y-93741020D01*
X117414403Y-93691422D01*
X117430601Y-93680601D01*
X117485966Y-93597740D01*
X117500500Y-93524674D01*
X117500500Y-92575326D01*
X117500500Y-92575323D01*
X117500500Y-92575139D01*
X117500064Y-92573134D01*
X117485972Y-92502289D01*
X117485971Y-92502287D01*
X117485967Y-92502264D01*
X117485966Y-92502260D01*
X117485965Y-92502258D01*
X117485964Y-92502256D01*
X117430602Y-92419400D01*
X117421030Y-92413004D01*
X117394776Y-92389420D01*
X117385878Y-92378773D01*
X117357992Y-92314710D01*
X117369163Y-92245750D01*
X117371425Y-92241020D01*
X117414403Y-92191422D01*
X117430601Y-92180601D01*
X117485966Y-92097740D01*
X117500500Y-92024674D01*
X117500500Y-91075326D01*
X117500500Y-91075323D01*
X117500499Y-91075321D01*
X117485967Y-91002264D01*
X117485966Y-91002260D01*
X117484122Y-90999500D01*
X117430601Y-90919399D01*
X117421029Y-90913003D01*
X117394776Y-90889420D01*
X117385878Y-90878773D01*
X117357992Y-90814710D01*
X117369166Y-90745743D01*
X117371429Y-90741013D01*
X117414398Y-90691426D01*
X117430601Y-90680601D01*
X117485966Y-90597740D01*
X117500500Y-90524674D01*
X117500500Y-89575326D01*
X117500500Y-89575323D01*
X117500500Y-89575139D01*
X117500064Y-89573134D01*
X117485972Y-89502289D01*
X117485971Y-89502288D01*
X117485967Y-89502264D01*
X117485966Y-89502260D01*
X117479414Y-89492454D01*
X117479412Y-89492451D01*
X117479412Y-89492450D01*
X117447336Y-89444445D01*
X117430601Y-89419399D01*
X117375235Y-89382405D01*
X117349935Y-89365500D01*
X117347740Y-89364033D01*
X117347737Y-89364032D01*
X117347735Y-89364032D01*
X117347725Y-89364030D01*
X117347709Y-89364026D01*
X117274680Y-89349500D01*
X117274677Y-89349500D01*
X117274674Y-89349500D01*
X115725326Y-89349500D01*
X115725323Y-89349500D01*
X115725319Y-89349500D01*
X115652285Y-89364027D01*
X115652262Y-89364032D01*
X115652258Y-89364033D01*
X115569398Y-89419399D01*
X115528907Y-89479997D01*
X115520030Y-89491714D01*
X115518622Y-89493359D01*
X115500565Y-89527876D01*
X115452047Y-89578153D01*
X115384049Y-89594218D01*
X115351126Y-89582602D01*
X115346855Y-89582629D01*
X115341394Y-89579167D01*
X115318162Y-89570971D01*
X115308508Y-89564009D01*
X115293835Y-89550518D01*
X115293302Y-89551052D01*
X115289858Y-89547608D01*
X115289857Y-89547606D01*
X115202396Y-89460145D01*
X115202393Y-89460143D01*
X115202391Y-89460141D01*
X115096720Y-89406299D01*
X115093225Y-89404332D01*
X115092168Y-89403980D01*
X115000735Y-89389500D01*
X114599260Y-89389500D01*
X114575571Y-89389500D01*
X114566418Y-89394497D01*
X114559466Y-89395802D01*
X114517467Y-89402454D01*
X114512588Y-89402838D01*
X114507828Y-89403980D01*
X114397611Y-89460139D01*
X114397600Y-89460146D01*
X114310144Y-89547602D01*
X114304179Y-89559310D01*
X114294673Y-89577968D01*
X114294666Y-89577981D01*
X114294665Y-89577982D01*
X114253980Y-89657827D01*
X114250554Y-89672100D01*
X114249469Y-89671839D01*
X114245361Y-89693492D01*
X114236914Y-89714944D01*
X114239533Y-89721239D01*
X114239882Y-89744402D01*
X114239500Y-89749258D01*
X114239500Y-90090743D01*
X114245479Y-90128492D01*
X114253981Y-90182170D01*
X114253981Y-90182171D01*
X114253982Y-90182174D01*
X114253983Y-90182175D01*
X114261117Y-90196176D01*
X114294119Y-90260947D01*
X114310140Y-90292390D01*
X114310141Y-90292391D01*
X114310142Y-90292392D01*
X114310145Y-90292396D01*
X114397603Y-90379854D01*
X114397605Y-90379855D01*
X114397609Y-90379859D01*
X114507825Y-90436017D01*
X114507826Y-90436017D01*
X114507828Y-90436018D01*
X114507844Y-90436020D01*
X114512580Y-90437158D01*
X114512581Y-90437158D01*
X114517452Y-90437542D01*
X114542938Y-90441577D01*
X114542946Y-90441581D01*
X114542947Y-90441579D01*
X114599265Y-90450500D01*
X115000734Y-90450499D01*
X115000739Y-90450499D01*
X115000739Y-90450498D01*
X115046454Y-90443258D01*
X115082534Y-90437543D01*
X115089880Y-90436966D01*
X115092167Y-90436018D01*
X115092170Y-90436018D01*
X115092171Y-90436018D01*
X115092172Y-90436017D01*
X115092175Y-90436017D01*
X115092192Y-90436008D01*
X115096683Y-90434148D01*
X115096685Y-90434147D01*
X115096689Y-90434146D01*
X115104330Y-90430980D01*
X115109661Y-90427106D01*
X115202391Y-90379859D01*
X115225744Y-90356506D01*
X115275217Y-90307034D01*
X115303459Y-90285891D01*
X115313391Y-90280468D01*
X115330813Y-90276677D01*
X115336538Y-90273552D01*
X115343041Y-90274017D01*
X115381660Y-90265615D01*
X115447125Y-90290029D01*
X115488999Y-90345961D01*
X115489001Y-90345965D01*
X115491682Y-90353153D01*
X115499500Y-90396487D01*
X115499500Y-90524678D01*
X115499500Y-90524680D01*
X115499499Y-90524680D01*
X115514028Y-90597717D01*
X115514032Y-90597735D01*
X115514033Y-90597739D01*
X115515792Y-90600845D01*
X115517548Y-90603000D01*
X115569399Y-90680601D01*
X115593790Y-90696898D01*
X115612958Y-90719834D01*
X115614124Y-90721230D01*
X115642007Y-90785295D01*
X115630836Y-90854248D01*
X115628576Y-90858973D01*
X115585607Y-90908568D01*
X115569401Y-90919396D01*
X115569398Y-90919399D01*
X115514033Y-91002258D01*
X115514032Y-91002266D01*
X115514028Y-91002281D01*
X115499500Y-91075318D01*
X115499500Y-91685626D01*
X115494476Y-91720563D01*
X115487064Y-91745804D01*
X115455769Y-91798548D01*
X113137534Y-94116782D01*
X113137528Y-94116789D01*
X113137526Y-94116791D01*
X113091389Y-94196703D01*
X113091387Y-94196708D01*
X113091382Y-94196725D01*
X113067500Y-94285856D01*
X113067500Y-98198670D01*
X113062475Y-98233614D01*
X113058070Y-98248612D01*
X113020327Y-98307355D01*
X113018958Y-98308542D01*
X112964097Y-98336018D01*
X112956539Y-98337663D01*
X112930168Y-98340500D01*
X111393319Y-98340500D01*
X111320285Y-98355027D01*
X111320262Y-98355032D01*
X111320258Y-98355033D01*
X111237399Y-98410399D01*
X111182033Y-98493258D01*
X111182032Y-98493266D01*
X111182028Y-98493281D01*
X111167500Y-98566318D01*
X111167500Y-98566321D01*
X111167500Y-100315678D01*
X111167500Y-100315680D01*
X111167499Y-100315680D01*
X111182028Y-100388717D01*
X111182032Y-100388735D01*
X111182033Y-100388739D01*
X111185480Y-100394826D01*
X111188816Y-100398891D01*
X111237399Y-100471601D01*
X111320256Y-100526964D01*
X111320258Y-100526965D01*
X111320259Y-100526965D01*
X111320260Y-100526966D01*
X111320264Y-100526967D01*
X111320279Y-100526970D01*
X111320288Y-100526972D01*
X111365021Y-100535869D01*
X111385681Y-100539979D01*
X111388415Y-100540703D01*
X111393323Y-100541500D01*
X111393324Y-100541500D01*
X111393326Y-100541500D01*
X112925670Y-100541500D01*
X112960606Y-100546523D01*
X112975604Y-100550927D01*
X113034355Y-100588672D01*
X113035542Y-100590041D01*
X113063018Y-100644902D01*
X113064663Y-100652460D01*
X113067500Y-100678831D01*
X113067500Y-103156625D01*
X113062476Y-103191562D01*
X113055064Y-103216803D01*
X113023769Y-103269547D01*
X112833576Y-103459739D01*
X112805320Y-103480891D01*
X112790337Y-103489072D01*
X112724726Y-103504085D01*
X112719506Y-103503824D01*
X112711428Y-103503420D01*
X112679303Y-103497506D01*
X112525698Y-103447597D01*
X112394271Y-103426781D01*
X112378407Y-103424268D01*
X112354614Y-103420500D01*
X112354611Y-103420500D01*
X112181389Y-103420500D01*
X112181388Y-103420500D01*
X112141726Y-103426781D01*
X112141725Y-103426780D01*
X112010304Y-103447596D01*
X111845549Y-103501129D01*
X111691218Y-103579764D01*
X111691205Y-103579772D01*
X111627329Y-103626181D01*
X111570837Y-103667224D01*
X111570830Y-103667230D01*
X111551072Y-103681586D01*
X111551070Y-103681588D01*
X111551069Y-103681588D01*
X111428588Y-103804069D01*
X111428588Y-103804070D01*
X111428586Y-103804072D01*
X111419061Y-103817182D01*
X111414233Y-103823826D01*
X111414230Y-103823830D01*
X111326768Y-103944210D01*
X111248129Y-104098549D01*
X111194596Y-104263305D01*
X111167500Y-104434383D01*
X111167500Y-104607615D01*
X111194596Y-104778698D01*
X111244088Y-104931014D01*
X111250106Y-104965789D01*
X111250594Y-104982856D01*
X111234177Y-105048140D01*
X111227549Y-105059683D01*
X111207697Y-105085618D01*
X110837538Y-105455777D01*
X110837532Y-105455784D01*
X110837527Y-105455790D01*
X110837526Y-105455791D01*
X110791389Y-105535703D01*
X110791387Y-105535708D01*
X110791382Y-105535725D01*
X110767500Y-105624856D01*
X110155500Y-105624856D01*
X110155500Y-89843525D01*
X110955500Y-89843525D01*
X110955500Y-89988475D01*
X110982901Y-90090734D01*
X110990880Y-90120513D01*
X110993018Y-90128492D01*
X111063631Y-90250795D01*
X111065489Y-90254013D01*
X111167985Y-90356509D01*
X111168674Y-90357005D01*
X111171178Y-90358353D01*
X111290069Y-90426995D01*
X111293087Y-90428869D01*
X111293514Y-90428983D01*
X111293515Y-90428984D01*
X111433525Y-90466500D01*
X111433528Y-90466500D01*
X111578474Y-90466500D01*
X111578475Y-90466500D01*
X111614571Y-90456826D01*
X111630465Y-90453665D01*
X111646462Y-90451559D01*
X111662633Y-90450500D01*
X111924379Y-90450500D01*
X111959315Y-90455523D01*
X111974313Y-90459927D01*
X112033089Y-90497700D01*
X112040944Y-90506765D01*
X112063414Y-90544637D01*
X112081200Y-90592325D01*
X112081201Y-90592327D01*
X112081202Y-90592328D01*
X112081206Y-90592335D01*
X112124086Y-90649616D01*
X112167450Y-90707542D01*
X112167456Y-90707548D01*
X112180267Y-90717138D01*
X112282664Y-90793793D01*
X112282671Y-90793797D01*
X112417517Y-90844091D01*
X112417516Y-90844091D01*
X112424444Y-90844835D01*
X112477127Y-90850500D01*
X113522872Y-90850499D01*
X113582483Y-90844091D01*
X113717331Y-90793796D01*
X113832546Y-90707546D01*
X113918796Y-90592331D01*
X113969091Y-90457483D01*
X113975500Y-90397873D01*
X113975499Y-89802128D01*
X113970299Y-89753757D01*
X113970300Y-89753756D01*
X113970298Y-89753749D01*
X113969815Y-89749258D01*
X113969091Y-89742516D01*
X113918797Y-89607671D01*
X113918793Y-89607664D01*
X113832547Y-89492455D01*
X113832544Y-89492452D01*
X113832543Y-89492451D01*
X113832542Y-89492450D01*
X113734958Y-89419399D01*
X113717335Y-89406206D01*
X113717332Y-89406204D01*
X113717330Y-89406203D01*
X113717328Y-89406202D01*
X113582482Y-89355908D01*
X113582483Y-89355908D01*
X113522883Y-89349501D01*
X113522881Y-89349500D01*
X113522873Y-89349500D01*
X113522864Y-89349500D01*
X113521841Y-89349500D01*
X112477123Y-89349500D01*
X112475192Y-89349659D01*
X112473545Y-89349885D01*
X112417516Y-89355908D01*
X112288621Y-89403983D01*
X112282666Y-89406204D01*
X112282665Y-89406205D01*
X112167454Y-89492452D01*
X112132690Y-89538891D01*
X112107732Y-89563848D01*
X112096620Y-89572166D01*
X112031156Y-89596581D01*
X111962884Y-89581728D01*
X111950704Y-89575077D01*
X111922453Y-89553929D01*
X111844017Y-89475493D01*
X111844014Y-89475490D01*
X111844006Y-89475485D01*
X111790243Y-89444445D01*
X111761808Y-89414624D01*
X111707007Y-89399939D01*
X111707007Y-89399940D01*
X111641565Y-89382405D01*
X111578475Y-89365500D01*
X111578474Y-89365500D01*
X111433525Y-89365500D01*
X111304994Y-89399939D01*
X111304993Y-89399940D01*
X111297338Y-89401991D01*
X111293510Y-89403017D01*
X111167991Y-89475485D01*
X111167984Y-89475490D01*
X111167968Y-89475505D01*
X111065505Y-89577968D01*
X111065494Y-89577981D01*
X111065493Y-89577982D01*
X111065485Y-89577992D01*
X110994287Y-89701308D01*
X110994286Y-89701312D01*
X110993017Y-89703511D01*
X110993016Y-89703515D01*
X110955500Y-89843525D01*
X110155500Y-89843525D01*
X110155500Y-88707329D01*
X110160523Y-88672393D01*
X110164927Y-88657395D01*
X110202672Y-88598644D01*
X110204041Y-88597457D01*
X110258920Y-88569977D01*
X110266479Y-88568333D01*
X110292832Y-88565500D01*
X111126000Y-88565500D01*
X111193039Y-88585185D01*
G37*
%TD.AperFunction*%
%TD*%
M02*
