%TF.GenerationSoftware,KiCad,Pcbnew,10.0.0*%
%TF.CreationDate,2026-04-14T08:10:59-07:00*%
%TF.ProjectId,ESP32,45535033-322e-46b6-9963-61645f706362,rev?*%
%TF.SameCoordinates,Original*%
%TF.FileFunction,Copper,L4,Bot*%
%TF.FilePolarity,Positive*%
%FSLAX46Y46*%
G04 Gerber Fmt 4.6, Leading zero omitted, Abs format (unit mm)*
G04 Created by KiCad (PCBNEW 10.0.0) date 2026-04-14 08:10:59*
%MOMM*%
%LPD*%
G01*
G04 APERTURE LIST*
G04 Aperture macros list*
%AMRoundRect*
0 Rectangle with rounded corners*
0 $1 Rounding radius*
0 $2 $3 $4 $5 $6 $7 $8 $9 X,Y pos of 4 corners*
0 Add a 4 corners polygon primitive as box body*
4,1,4,$2,$3,$4,$5,$6,$7,$8,$9,$2,$3,0*
0 Add four circle primitives for the rounded corners*
1,1,$1+$1,$2,$3*
1,1,$1+$1,$4,$5*
1,1,$1+$1,$6,$7*
1,1,$1+$1,$8,$9*
0 Add four rect primitives between the rounded corners*
20,1,$1+$1,$2,$3,$4,$5,0*
20,1,$1+$1,$4,$5,$6,$7,0*
20,1,$1+$1,$6,$7,$8,$9,0*
20,1,$1+$1,$8,$9,$2,$3,0*%
G04 Aperture macros list end*
%TA.AperFunction,HeatsinkPad*%
%ADD10C,0.600000*%
%TD*%
%TA.AperFunction,ComponentPad*%
%ADD11O,1.000000X2.100000*%
%TD*%
%TA.AperFunction,ComponentPad*%
%ADD12O,1.000000X1.800000*%
%TD*%
%TA.AperFunction,ComponentPad*%
%ADD13R,1.700000X1.700000*%
%TD*%
%TA.AperFunction,ComponentPad*%
%ADD14C,1.700000*%
%TD*%
%TA.AperFunction,SMDPad,CuDef*%
%ADD15RoundRect,0.100000X-0.100000X0.130000X-0.100000X-0.130000X0.100000X-0.130000X0.100000X0.130000X0*%
%TD*%
%TA.AperFunction,SMDPad,CuDef*%
%ADD16RoundRect,0.100000X0.100000X-0.130000X0.100000X0.130000X-0.100000X0.130000X-0.100000X-0.130000X0*%
%TD*%
%TA.AperFunction,SMDPad,CuDef*%
%ADD17R,1.800000X1.000000*%
%TD*%
%TA.AperFunction,ViaPad*%
%ADD18C,0.600000*%
%TD*%
%TA.AperFunction,Conductor*%
%ADD19C,0.200000*%
%TD*%
G04 APERTURE END LIST*
D10*
%TO.P,U3,19,GND_19*%
%TO.N,GND*%
X125110000Y-95700000D03*
X125110000Y-96800000D03*
X125660000Y-95150000D03*
X125660000Y-96250000D03*
X125660000Y-97350000D03*
X126210000Y-95700000D03*
X126210000Y-96800000D03*
X126760000Y-95150000D03*
X126760000Y-96250000D03*
X126760000Y-97350000D03*
X127310000Y-95700000D03*
X127310000Y-96800000D03*
%TD*%
D11*
%TO.P,J1,SH,SHIELD_SH*%
%TO.N,GND*%
X122638375Y-121761625D03*
D12*
X122638375Y-125961625D03*
D11*
X131278375Y-121761625D03*
D12*
X131278375Y-125961625D03*
%TD*%
D13*
%TO.P,J2,1,Pin_1_1*%
%TO.N,+3V3*%
X112268000Y-99441000D03*
D14*
%TO.P,J2,2,Pin_2_2*%
%TO.N,GND*%
X112268000Y-101981000D03*
%TO.P,J2,3,Pin_3_3*%
%TO.N,EN*%
X112268000Y-104521000D03*
%TO.P,J2,4,Pin_4_4*%
%TO.N,IO4*%
X112268000Y-107061000D03*
%TO.P,J2,5,Pin_5_5*%
%TO.N,IO5*%
X112268000Y-109601000D03*
%TO.P,J2,6,Pin_6_6*%
%TO.N,IO6*%
X112268000Y-112141000D03*
%TO.P,J2,7,Pin_7_7*%
%TO.N,IO7*%
X112268000Y-114681000D03*
%TO.P,J2,8,Pin_8_8*%
%TO.N,IO9*%
X112268000Y-117221000D03*
%TD*%
D13*
%TO.P,J3,1,Pin_1_1*%
%TO.N,+5V*%
X138938000Y-98933000D03*
D14*
%TO.P,J3,2,Pin_2_2*%
%TO.N,GND*%
X138938000Y-101473000D03*
%TO.P,J3,3,Pin_3_3*%
%TO.N,IO3*%
X138938000Y-104013000D03*
%TO.P,J3,4,Pin_4_4*%
%TO.N,GND*%
X138938000Y-106553000D03*
%TO.P,J3,5,Pin_5_5*%
%TO.N,RXD*%
X138938000Y-109093000D03*
%TO.P,J3,6,Pin_6_6*%
%TO.N,TXD*%
X138938000Y-111633000D03*
%TO.P,J3,7,Pin_7_7*%
%TO.N,GND*%
X138938000Y-114173000D03*
%TO.P,J3,8,Pin_8_8*%
%TO.N,IO10*%
X138938000Y-116713000D03*
%TD*%
D15*
%TO.P,R4,1*%
%TO.N,Net-(U3-IO0)*%
X136350000Y-92371000D03*
%TO.P,R4,2*%
%TO.N,Net-(U3-IO1)*%
X136350000Y-93011000D03*
%TD*%
D16*
%TO.P,C8,1*%
%TO.N,Net-(U3-IO1)*%
X137250000Y-94209000D03*
%TO.P,C8,2*%
%TO.N,GND*%
X137250000Y-93569000D03*
%TD*%
%TO.P,C7,1*%
%TO.N,Net-(U3-IO0)*%
X137160000Y-91978000D03*
%TO.P,C7,2*%
%TO.N,GND*%
X137160000Y-91338000D03*
%TD*%
D17*
%TO.P,Y1,1,1_1*%
%TO.N,Net-(U3-IO0)*%
X138850000Y-91441000D03*
%TO.P,Y1,2,2_2*%
%TO.N,Net-(U3-IO1)*%
X138850000Y-93941000D03*
%TD*%
D18*
%TO.N,GND*%
X118872000Y-115824000D03*
X118618000Y-89535000D03*
X118745000Y-90424000D03*
X113792000Y-93218000D03*
X112903000Y-93091000D03*
X111379000Y-92964000D03*
X117983000Y-100711000D03*
X118872000Y-101854000D03*
X123317000Y-115824000D03*
X123063000Y-112776000D03*
X123571000Y-113919000D03*
%TO.N,+3V3*%
X117602000Y-121412000D03*
X114427000Y-121793000D03*
X115486265Y-119590735D03*
X111506000Y-89916000D03*
X116586000Y-111252000D03*
%TO.N,IO9*%
X137287000Y-121793000D03*
%TO.N,IO8*%
X127127000Y-105410000D03*
X118999000Y-99187000D03*
%TO.N,+5V*%
X120142000Y-113157000D03*
X120142000Y-112014000D03*
%TO.N,RXD*%
X132334000Y-100481000D03*
%TO.N,IO10*%
X132334000Y-101981000D03*
%TO.N,TXD*%
X132334000Y-98981000D03*
%TO.N,GND*%
X122174000Y-115697000D03*
X122301000Y-118237000D03*
X122301000Y-119507000D03*
X122174000Y-118872000D03*
%TO.N,Net-(U3-IO1)*%
X132334000Y-91550000D03*
%TO.N,Net-(U3-IO0)*%
X132461000Y-90050000D03*
%TD*%
%TO.N,+3V3*%
D19*
X117221000Y-121793000D02*
X117602000Y-121412000D01*
X114427000Y-121793000D02*
X117221000Y-121793000D01*
X112268000Y-90678000D02*
X111506000Y-89916000D01*
X112268000Y-99441000D02*
X112268000Y-90678000D01*
X116586000Y-111252000D02*
X116586000Y-103759000D01*
X116586000Y-103759000D02*
X112268000Y-99441000D01*
X122301000Y-111252000D02*
X125476000Y-108077000D01*
X116586000Y-111252000D02*
X122301000Y-111252000D01*
%TO.N,IO9*%
X115458625Y-120411625D02*
X112268000Y-117221000D01*
X137287000Y-121793000D02*
X135905625Y-120411625D01*
X135905625Y-120411625D02*
X115458625Y-120411625D01*
%TO.N,IO8*%
X120904000Y-99187000D02*
X127127000Y-105410000D01*
X118999000Y-99187000D02*
X120904000Y-99187000D01*
%TO.N,IO10*%
X132334000Y-110109000D02*
X138938000Y-116713000D01*
X132334000Y-101981000D02*
X132334000Y-110109000D01*
%TO.N,TXD*%
X136271000Y-101727000D02*
X136271000Y-108966000D01*
X135925000Y-101381000D02*
X136271000Y-101727000D01*
X131099000Y-101381000D02*
X135925000Y-101381000D01*
X130683000Y-100965000D02*
X131099000Y-101381000D01*
X130810000Y-100838000D02*
X130683000Y-100965000D01*
X130810000Y-99314000D02*
X130810000Y-100838000D01*
X136271000Y-108966000D02*
X138938000Y-111633000D01*
X131143000Y-98981000D02*
X130810000Y-99314000D01*
X132334000Y-98981000D02*
X131143000Y-98981000D01*
%TO.N,RXD*%
X136779000Y-101092000D02*
X136779000Y-107696000D01*
X136168000Y-100481000D02*
X136779000Y-101092000D01*
X136779000Y-107696000D02*
X137541000Y-107696000D01*
X137541000Y-107696000D02*
X138938000Y-109093000D01*
X132334000Y-100481000D02*
X136168000Y-100481000D01*
%TO.N,Net-(U3-IO1)*%
X138582000Y-94209000D02*
X138850000Y-93941000D01*
X137250000Y-94209000D02*
X138582000Y-94209000D01*
X137091544Y-94209000D02*
X137250000Y-94209000D01*
X136350000Y-93011000D02*
X136350000Y-93467456D01*
X136350000Y-93467456D02*
X137091544Y-94209000D01*
X136150001Y-93011000D02*
X136350000Y-93011000D01*
X135001000Y-91694000D02*
X135001000Y-91861999D01*
X134857000Y-91550000D02*
X135001000Y-91694000D01*
X135001000Y-91861999D02*
X136150001Y-93011000D01*
X132334000Y-91550000D02*
X134857000Y-91550000D01*
%TO.N,Net-(U3-IO0)*%
X138313000Y-91978000D02*
X137160000Y-91978000D01*
X138850000Y-91441000D02*
X138313000Y-91978000D01*
X136767000Y-92371000D02*
X137160000Y-91978000D01*
X136350000Y-92371000D02*
X136767000Y-92371000D01*
X136350000Y-91011000D02*
X136350000Y-92371000D01*
X135389000Y-90050000D02*
X136350000Y-91011000D01*
X132461000Y-90050000D02*
X135389000Y-90050000D01*
%TD*%
%TA.AperFunction,Conductor*%
%TO.N,GND*%
G36*
X111193039Y-88585185D02*
G01*
X111238794Y-88637989D01*
X111250000Y-88689500D01*
X111250000Y-88950000D01*
X139250000Y-88950000D01*
X139250000Y-88689500D01*
X139269685Y-88622461D01*
X139322489Y-88576706D01*
X139374000Y-88565500D01*
X140908670Y-88565500D01*
X140943606Y-88570523D01*
X140958604Y-88574927D01*
X141017355Y-88612672D01*
X141018542Y-88614041D01*
X141046018Y-88668902D01*
X141047663Y-88676460D01*
X141050500Y-88702831D01*
X141050500Y-128208670D01*
X141045475Y-128243614D01*
X141041070Y-128258612D01*
X141003327Y-128317355D01*
X141001958Y-128318542D01*
X140947097Y-128346018D01*
X140939539Y-128347663D01*
X140913168Y-128350500D01*
X110297330Y-128350500D01*
X110262389Y-128345475D01*
X110247390Y-128341070D01*
X110188644Y-128303327D01*
X110187457Y-128301958D01*
X110159977Y-128247083D01*
X110158332Y-128239521D01*
X110155500Y-128213168D01*
X110155500Y-117134383D01*
X111167500Y-117134383D01*
X111167500Y-117134389D01*
X111167500Y-117307611D01*
X111194598Y-117478701D01*
X111248127Y-117643445D01*
X111326768Y-117797788D01*
X111428586Y-117937928D01*
X111551072Y-118060414D01*
X111691212Y-118162232D01*
X111845555Y-118240873D01*
X112010299Y-118294402D01*
X112181389Y-118321500D01*
X112181390Y-118321500D01*
X112354610Y-118321500D01*
X112354611Y-118321500D01*
X112525701Y-118294402D01*
X112678024Y-118244908D01*
X112712784Y-118238893D01*
X112729861Y-118238405D01*
X112795139Y-118254820D01*
X112806684Y-118261449D01*
X112832619Y-118281301D01*
X115243413Y-120692095D01*
X115323337Y-120738239D01*
X115412481Y-120762125D01*
X117156159Y-120762125D01*
X117191086Y-120767146D01*
X117201939Y-120770332D01*
X117260720Y-120808102D01*
X117289749Y-120871656D01*
X117279810Y-120940815D01*
X117279803Y-120940830D01*
X117276618Y-120947803D01*
X117251509Y-120983965D01*
X117161490Y-121073984D01*
X117161485Y-121073992D01*
X117089017Y-121199509D01*
X117088989Y-121199578D01*
X117088748Y-121200511D01*
X117056295Y-121321630D01*
X117049914Y-121339714D01*
X117038594Y-121365296D01*
X116993466Y-121418636D01*
X116988374Y-121421994D01*
X116939150Y-121441006D01*
X116939002Y-121441029D01*
X116919960Y-121442500D01*
X114924216Y-121442500D01*
X114889280Y-121437477D01*
X114864038Y-121430065D01*
X114811292Y-121398768D01*
X114765030Y-121352505D01*
X114765014Y-121352490D01*
X114765006Y-121352485D01*
X114733754Y-121334442D01*
X114711242Y-121321444D01*
X114682808Y-121291624D01*
X114628007Y-121276939D01*
X114628007Y-121276940D01*
X114563740Y-121259720D01*
X114499475Y-121242500D01*
X114499474Y-121242500D01*
X114354525Y-121242500D01*
X114225994Y-121276939D01*
X114225993Y-121276940D01*
X114218338Y-121278991D01*
X114214510Y-121280017D01*
X114088991Y-121352485D01*
X114088984Y-121352490D01*
X114088968Y-121352505D01*
X113986505Y-121454968D01*
X113986490Y-121454984D01*
X113986485Y-121454992D01*
X113914017Y-121580509D01*
X113913989Y-121580578D01*
X113913748Y-121581511D01*
X113876500Y-121720525D01*
X113876500Y-121865474D01*
X113912229Y-121998817D01*
X113914016Y-122005485D01*
X113914018Y-122005491D01*
X113984631Y-122127795D01*
X113986489Y-122131013D01*
X114088985Y-122233509D01*
X114089674Y-122234005D01*
X114092178Y-122235353D01*
X114211069Y-122303995D01*
X114214087Y-122305869D01*
X114214514Y-122305983D01*
X114214515Y-122305984D01*
X114354525Y-122343500D01*
X114354528Y-122343500D01*
X114499472Y-122343500D01*
X114499475Y-122343500D01*
X114639485Y-122305984D01*
X114765015Y-122233509D01*
X114792664Y-122205859D01*
X123492875Y-122205859D01*
X123492875Y-122357390D01*
X123512484Y-122430575D01*
X123532094Y-122503762D01*
X123569977Y-122569375D01*
X123607860Y-122634990D01*
X123715010Y-122742140D01*
X123846240Y-122817906D01*
X123992609Y-122857125D01*
X123992611Y-122857125D01*
X124144139Y-122857125D01*
X124144141Y-122857125D01*
X124290510Y-122817906D01*
X124421740Y-122742140D01*
X124528890Y-122634990D01*
X124604656Y-122503760D01*
X124643875Y-122357391D01*
X124643875Y-122205859D01*
X129272875Y-122205859D01*
X129272875Y-122357390D01*
X129292484Y-122430575D01*
X129312094Y-122503762D01*
X129349977Y-122569375D01*
X129387860Y-122634990D01*
X129495010Y-122742140D01*
X129626240Y-122817906D01*
X129772609Y-122857125D01*
X129772611Y-122857125D01*
X129924139Y-122857125D01*
X129924141Y-122857125D01*
X130070510Y-122817906D01*
X130201740Y-122742140D01*
X130308890Y-122634990D01*
X130384656Y-122503760D01*
X130423875Y-122357391D01*
X130423875Y-122205859D01*
X130384656Y-122059490D01*
X130384651Y-122059482D01*
X130356906Y-122011426D01*
X130308890Y-121928260D01*
X130201740Y-121821110D01*
X130136125Y-121783227D01*
X130070511Y-121745344D01*
X129997325Y-121725734D01*
X129997324Y-121725733D01*
X129924142Y-121706125D01*
X129924141Y-121706125D01*
X129772609Y-121706125D01*
X129626234Y-121745345D01*
X129626232Y-121745346D01*
X129495020Y-121821103D01*
X129495006Y-121821112D01*
X129495001Y-121821116D01*
X129387866Y-121928251D01*
X129387862Y-121928256D01*
X129387853Y-121928270D01*
X129312096Y-122059482D01*
X129312095Y-122059484D01*
X129295984Y-122119612D01*
X129272875Y-122205859D01*
X124643875Y-122205859D01*
X124604656Y-122059490D01*
X124604651Y-122059482D01*
X124576906Y-122011426D01*
X124528890Y-121928260D01*
X124421740Y-121821110D01*
X124356125Y-121783227D01*
X124290511Y-121745344D01*
X124217325Y-121725734D01*
X124217324Y-121725733D01*
X124144142Y-121706125D01*
X124144141Y-121706125D01*
X123992609Y-121706125D01*
X123846234Y-121745345D01*
X123846232Y-121745346D01*
X123715020Y-121821103D01*
X123715006Y-121821112D01*
X123715001Y-121821116D01*
X123607866Y-121928251D01*
X123607862Y-121928256D01*
X123607853Y-121928270D01*
X123532096Y-122059482D01*
X123532095Y-122059484D01*
X123515984Y-122119612D01*
X123492875Y-122205859D01*
X114792664Y-122205859D01*
X114806099Y-122192424D01*
X114834350Y-122171275D01*
X114857442Y-122158667D01*
X114916867Y-122143500D01*
X117267142Y-122143500D01*
X117267144Y-122143500D01*
X117356288Y-122119614D01*
X117366912Y-122113480D01*
X117436212Y-122073470D01*
X117498261Y-122011420D01*
X117526508Y-121990275D01*
X117549600Y-121977667D01*
X117609025Y-121962500D01*
X117674472Y-121962500D01*
X117674475Y-121962500D01*
X117814485Y-121924984D01*
X117940015Y-121852509D01*
X118042509Y-121750015D01*
X118114984Y-121624485D01*
X118152500Y-121484475D01*
X118152500Y-121339525D01*
X118114984Y-121199515D01*
X118114553Y-121198769D01*
X118042511Y-121073988D01*
X118042506Y-121073982D01*
X117954937Y-120986413D01*
X117933788Y-120958163D01*
X117928366Y-120948233D01*
X117913513Y-120879963D01*
X117937927Y-120814498D01*
X117993857Y-120772626D01*
X117997736Y-120771179D01*
X118001072Y-120769936D01*
X118044386Y-120762125D01*
X135691251Y-120762125D01*
X135726183Y-120767146D01*
X135751427Y-120774559D01*
X135804173Y-120805855D01*
X136687573Y-121689254D01*
X136708723Y-121717506D01*
X136721331Y-121740595D01*
X136736500Y-121800024D01*
X136736500Y-121865474D01*
X136772229Y-121998817D01*
X136774016Y-122005485D01*
X136774018Y-122005491D01*
X136844631Y-122127795D01*
X136846489Y-122131013D01*
X136948985Y-122233509D01*
X136949674Y-122234005D01*
X136952178Y-122235353D01*
X137071069Y-122303995D01*
X137074087Y-122305869D01*
X137074514Y-122305983D01*
X137074515Y-122305984D01*
X137214525Y-122343500D01*
X137214528Y-122343500D01*
X137359472Y-122343500D01*
X137359475Y-122343500D01*
X137499485Y-122305984D01*
X137625015Y-122233509D01*
X137727509Y-122131015D01*
X137799984Y-122005485D01*
X137837500Y-121865475D01*
X137837500Y-121720525D01*
X137799984Y-121580515D01*
X137744533Y-121484472D01*
X137727511Y-121454988D01*
X137727506Y-121454982D01*
X137727502Y-121454978D01*
X137727493Y-121454968D01*
X137625030Y-121352505D01*
X137625014Y-121352490D01*
X137625006Y-121352485D01*
X137593754Y-121334442D01*
X137571242Y-121321444D01*
X137542808Y-121291624D01*
X137488007Y-121276939D01*
X137488007Y-121276940D01*
X137423740Y-121259720D01*
X137359475Y-121242500D01*
X137359474Y-121242500D01*
X137301373Y-121242500D01*
X137266437Y-121237477D01*
X137241195Y-121230065D01*
X137188450Y-121198769D01*
X136120841Y-120131159D01*
X136120840Y-120131158D01*
X136120838Y-120131156D01*
X136120833Y-120131152D01*
X136120828Y-120131148D01*
X136062091Y-120097237D01*
X136062086Y-120097234D01*
X136040915Y-120085012D01*
X136040914Y-120085011D01*
X136040913Y-120085011D01*
X135951769Y-120061125D01*
X135951768Y-120061125D01*
X116082952Y-120061125D01*
X116048013Y-120056101D01*
X116034695Y-120052190D01*
X115975918Y-120014414D01*
X115946896Y-119950857D01*
X115946894Y-119950846D01*
X115946663Y-119949238D01*
X115952223Y-119891048D01*
X115953866Y-119886303D01*
X115963655Y-119864872D01*
X115999247Y-119803221D01*
X115999249Y-119803220D01*
X115999249Y-119803218D01*
X116009731Y-119785063D01*
X116008456Y-119779804D01*
X116012539Y-119753619D01*
X116036765Y-119663210D01*
X116036765Y-119518260D01*
X115999249Y-119378250D01*
X115958087Y-119306956D01*
X115926776Y-119252723D01*
X115926771Y-119252717D01*
X115926767Y-119252713D01*
X115926758Y-119252703D01*
X115824295Y-119150240D01*
X115824279Y-119150225D01*
X115824271Y-119150220D01*
X115770508Y-119119180D01*
X115742073Y-119089359D01*
X115687272Y-119074674D01*
X115687272Y-119074675D01*
X115623005Y-119057455D01*
X115558740Y-119040235D01*
X115558739Y-119040235D01*
X115413790Y-119040235D01*
X115285259Y-119074674D01*
X115285258Y-119074675D01*
X115277603Y-119076726D01*
X115273775Y-119077752D01*
X115148256Y-119150220D01*
X115148249Y-119150225D01*
X115148233Y-119150240D01*
X115045770Y-119252703D01*
X115045761Y-119252713D01*
X115045757Y-119252718D01*
X115045749Y-119252729D01*
X115043825Y-119256062D01*
X115022015Y-119283792D01*
X115011972Y-119293368D01*
X114949869Y-119325384D01*
X114880316Y-119318743D01*
X114880314Y-119318742D01*
X114872421Y-119315582D01*
X114830828Y-119288146D01*
X113329259Y-117786577D01*
X113308107Y-117758321D01*
X113299926Y-117743338D01*
X113284913Y-117677729D01*
X113285579Y-117664422D01*
X113291489Y-117632314D01*
X113341402Y-117478701D01*
X113368500Y-117307611D01*
X113368500Y-117134389D01*
X113341402Y-116963299D01*
X113287873Y-116798555D01*
X113209232Y-116644212D01*
X113107414Y-116504072D01*
X112984928Y-116381586D01*
X112844788Y-116279768D01*
X112690449Y-116201128D01*
X112539215Y-116151988D01*
X112539203Y-116151985D01*
X112525701Y-116147598D01*
X112525699Y-116147597D01*
X112525698Y-116147597D01*
X112511312Y-116145318D01*
X112511306Y-116145317D01*
X112421188Y-116131044D01*
X112394271Y-116126781D01*
X112378407Y-116124268D01*
X112354614Y-116120500D01*
X112354611Y-116120500D01*
X112181389Y-116120500D01*
X112181388Y-116120500D01*
X112141726Y-116126781D01*
X112141725Y-116126780D01*
X112010304Y-116147596D01*
X111845549Y-116201129D01*
X111691210Y-116279768D01*
X111611256Y-116337859D01*
X111611255Y-116337859D01*
X111562941Y-116372961D01*
X111555564Y-116377092D01*
X111424092Y-116508564D01*
X111419961Y-116515941D01*
X111384859Y-116564255D01*
X111384859Y-116564256D01*
X111326768Y-116644210D01*
X111248129Y-116798549D01*
X111194596Y-116963305D01*
X111167500Y-117134383D01*
X110155500Y-117134383D01*
X110155500Y-114594383D01*
X111167500Y-114594383D01*
X111167500Y-114594389D01*
X111167500Y-114767611D01*
X111194598Y-114938701D01*
X111248127Y-115103445D01*
X111326768Y-115257788D01*
X111428586Y-115397928D01*
X111551072Y-115520414D01*
X111691212Y-115622232D01*
X111845555Y-115700873D01*
X112010299Y-115754402D01*
X112181389Y-115781500D01*
X112181390Y-115781500D01*
X112354610Y-115781500D01*
X112354611Y-115781500D01*
X112525701Y-115754402D01*
X112690445Y-115700873D01*
X112844788Y-115622232D01*
X112984928Y-115520414D01*
X113107414Y-115397928D01*
X113209232Y-115257788D01*
X113287873Y-115103445D01*
X113341402Y-114938701D01*
X113368500Y-114767611D01*
X113368500Y-114594389D01*
X113341402Y-114423299D01*
X113287873Y-114258555D01*
X113209232Y-114104212D01*
X113107414Y-113964072D01*
X112984928Y-113841586D01*
X112844788Y-113739768D01*
X112690449Y-113661128D01*
X112539215Y-113611988D01*
X112539203Y-113611985D01*
X112525701Y-113607598D01*
X112525699Y-113607597D01*
X112525698Y-113607597D01*
X112511312Y-113605318D01*
X112511306Y-113605317D01*
X112421188Y-113591044D01*
X112394271Y-113586781D01*
X112378407Y-113584268D01*
X112354614Y-113580500D01*
X112354611Y-113580500D01*
X112181389Y-113580500D01*
X112181388Y-113580500D01*
X112141726Y-113586781D01*
X112141725Y-113586780D01*
X112010304Y-113607596D01*
X111845549Y-113661129D01*
X111691210Y-113739768D01*
X111611256Y-113797859D01*
X111611255Y-113797859D01*
X111562941Y-113832961D01*
X111555564Y-113837092D01*
X111424092Y-113968564D01*
X111419961Y-113975941D01*
X111384859Y-114024255D01*
X111384859Y-114024256D01*
X111326768Y-114104210D01*
X111248129Y-114258549D01*
X111194596Y-114423305D01*
X111167500Y-114594383D01*
X110155500Y-114594383D01*
X110155500Y-112054383D01*
X111167500Y-112054383D01*
X111167500Y-112227614D01*
X111183262Y-112327134D01*
X111187203Y-112352015D01*
X111194598Y-112398701D01*
X111248127Y-112563445D01*
X111326768Y-112717788D01*
X111428586Y-112857928D01*
X111551072Y-112980414D01*
X111691212Y-113082232D01*
X111845555Y-113160873D01*
X112010299Y-113214402D01*
X112181389Y-113241500D01*
X112181390Y-113241500D01*
X112354610Y-113241500D01*
X112354611Y-113241500D01*
X112525701Y-113214402D01*
X112690445Y-113160873D01*
X112844788Y-113082232D01*
X112984928Y-112980414D01*
X113107414Y-112857928D01*
X113209232Y-112717788D01*
X113287873Y-112563445D01*
X113341402Y-112398701D01*
X113368500Y-112227611D01*
X113368500Y-112054389D01*
X113341402Y-111883299D01*
X113287873Y-111718555D01*
X113209232Y-111564212D01*
X113107414Y-111424072D01*
X112984928Y-111301586D01*
X112844788Y-111199768D01*
X112690449Y-111121128D01*
X112539215Y-111071988D01*
X112539203Y-111071985D01*
X112525701Y-111067598D01*
X112525699Y-111067597D01*
X112525698Y-111067597D01*
X112511312Y-111065318D01*
X112511306Y-111065317D01*
X112421188Y-111051044D01*
X112394271Y-111046781D01*
X112378407Y-111044268D01*
X112354614Y-111040500D01*
X112354611Y-111040500D01*
X112181389Y-111040500D01*
X112181388Y-111040500D01*
X112141726Y-111046781D01*
X112141725Y-111046780D01*
X112010304Y-111067596D01*
X111845549Y-111121129D01*
X111691210Y-111199768D01*
X111611256Y-111257859D01*
X111611255Y-111257859D01*
X111562941Y-111292961D01*
X111555564Y-111297092D01*
X111424093Y-111428563D01*
X111419962Y-111435940D01*
X111399225Y-111464483D01*
X111399224Y-111464485D01*
X111326768Y-111564210D01*
X111248129Y-111718549D01*
X111248128Y-111718551D01*
X111248128Y-111718552D01*
X111225400Y-111788502D01*
X111194596Y-111883305D01*
X111167500Y-112054383D01*
X110155500Y-112054383D01*
X110155500Y-109514383D01*
X111167500Y-109514383D01*
X111167500Y-109514389D01*
X111167500Y-109687611D01*
X111194598Y-109858701D01*
X111248127Y-110023445D01*
X111326768Y-110177788D01*
X111428586Y-110317928D01*
X111551072Y-110440414D01*
X111691212Y-110542232D01*
X111845555Y-110620873D01*
X112010299Y-110674402D01*
X112181389Y-110701500D01*
X112181390Y-110701500D01*
X112354610Y-110701500D01*
X112354611Y-110701500D01*
X112525701Y-110674402D01*
X112690445Y-110620873D01*
X112844788Y-110542232D01*
X112984928Y-110440414D01*
X113107414Y-110317928D01*
X113209232Y-110177788D01*
X113287873Y-110023445D01*
X113341402Y-109858701D01*
X113368500Y-109687611D01*
X113368500Y-109514389D01*
X113341402Y-109343299D01*
X113287873Y-109178555D01*
X113209232Y-109024212D01*
X113107414Y-108884072D01*
X112984928Y-108761586D01*
X112844788Y-108659768D01*
X112690449Y-108581128D01*
X112539215Y-108531988D01*
X112539203Y-108531985D01*
X112525701Y-108527598D01*
X112525699Y-108527597D01*
X112525698Y-108527597D01*
X112511312Y-108525318D01*
X112511306Y-108525317D01*
X112421188Y-108511044D01*
X112394271Y-108506781D01*
X112378407Y-108504268D01*
X112354614Y-108500500D01*
X112354611Y-108500500D01*
X112181389Y-108500500D01*
X112181388Y-108500500D01*
X112141726Y-108506781D01*
X112141725Y-108506780D01*
X112010304Y-108527596D01*
X111845549Y-108581129D01*
X111691210Y-108659768D01*
X111611256Y-108717859D01*
X111611255Y-108717859D01*
X111562941Y-108752961D01*
X111555564Y-108757092D01*
X111424092Y-108888564D01*
X111419961Y-108895941D01*
X111384859Y-108944255D01*
X111384859Y-108944256D01*
X111326768Y-109024210D01*
X111248129Y-109178549D01*
X111194596Y-109343305D01*
X111167500Y-109514383D01*
X110155500Y-109514383D01*
X110155500Y-106974383D01*
X111167500Y-106974383D01*
X111167500Y-106974389D01*
X111167500Y-107147611D01*
X111194598Y-107318701D01*
X111248127Y-107483445D01*
X111326768Y-107637788D01*
X111428586Y-107777928D01*
X111551072Y-107900414D01*
X111691212Y-108002232D01*
X111845555Y-108080873D01*
X112010299Y-108134402D01*
X112181389Y-108161500D01*
X112181390Y-108161500D01*
X112354610Y-108161500D01*
X112354611Y-108161500D01*
X112525701Y-108134402D01*
X112690445Y-108080873D01*
X112844788Y-108002232D01*
X112984928Y-107900414D01*
X113107414Y-107777928D01*
X113209232Y-107637788D01*
X113287873Y-107483445D01*
X113341402Y-107318701D01*
X113368500Y-107147611D01*
X113368500Y-106974389D01*
X113341402Y-106803299D01*
X113287873Y-106638555D01*
X113209232Y-106484212D01*
X113107414Y-106344072D01*
X112984928Y-106221586D01*
X112844788Y-106119768D01*
X112690449Y-106041128D01*
X112539215Y-105991988D01*
X112539203Y-105991985D01*
X112525701Y-105987598D01*
X112525699Y-105987597D01*
X112525698Y-105987597D01*
X112511312Y-105985318D01*
X112511306Y-105985317D01*
X112421188Y-105971044D01*
X112394271Y-105966781D01*
X112378407Y-105964268D01*
X112354614Y-105960500D01*
X112354611Y-105960500D01*
X112181389Y-105960500D01*
X112181388Y-105960500D01*
X112141726Y-105966781D01*
X112141725Y-105966780D01*
X112010304Y-105987596D01*
X111845549Y-106041129D01*
X111691210Y-106119768D01*
X111611256Y-106177859D01*
X111611255Y-106177859D01*
X111562941Y-106212961D01*
X111555564Y-106217092D01*
X111424092Y-106348564D01*
X111419961Y-106355941D01*
X111384859Y-106404255D01*
X111384859Y-106404256D01*
X111326768Y-106484210D01*
X111248129Y-106638549D01*
X111194596Y-106803305D01*
X111167500Y-106974383D01*
X110155500Y-106974383D01*
X110155500Y-104434383D01*
X111167500Y-104434383D01*
X111167500Y-104434389D01*
X111167500Y-104607611D01*
X111194598Y-104778701D01*
X111248127Y-104943445D01*
X111326768Y-105097788D01*
X111428586Y-105237928D01*
X111551072Y-105360414D01*
X111691212Y-105462232D01*
X111845555Y-105540873D01*
X112010299Y-105594402D01*
X112181389Y-105621500D01*
X112181390Y-105621500D01*
X112354610Y-105621500D01*
X112354611Y-105621500D01*
X112525701Y-105594402D01*
X112690445Y-105540873D01*
X112844788Y-105462232D01*
X112984928Y-105360414D01*
X113107414Y-105237928D01*
X113209232Y-105097788D01*
X113287873Y-104943445D01*
X113341402Y-104778701D01*
X113368500Y-104607611D01*
X113368500Y-104434389D01*
X113341402Y-104263299D01*
X113287873Y-104098555D01*
X113209232Y-103944212D01*
X113107414Y-103804072D01*
X112984928Y-103681586D01*
X112844788Y-103579768D01*
X112774179Y-103543791D01*
X112690449Y-103501128D01*
X112539215Y-103451988D01*
X112539203Y-103451985D01*
X112525701Y-103447598D01*
X112525699Y-103447597D01*
X112525698Y-103447597D01*
X112511312Y-103445318D01*
X112511306Y-103445317D01*
X112421188Y-103431044D01*
X112394271Y-103426781D01*
X112378407Y-103424268D01*
X112354614Y-103420500D01*
X112354611Y-103420500D01*
X112181389Y-103420500D01*
X112181388Y-103420500D01*
X112141726Y-103426781D01*
X112141725Y-103426780D01*
X112010304Y-103447596D01*
X111845549Y-103501129D01*
X111691210Y-103579768D01*
X111630728Y-103623712D01*
X111562943Y-103672961D01*
X111555562Y-103677094D01*
X111424092Y-103808564D01*
X111419961Y-103815941D01*
X111384859Y-103864255D01*
X111384859Y-103864256D01*
X111326768Y-103944210D01*
X111248129Y-104098549D01*
X111194596Y-104263305D01*
X111167500Y-104434383D01*
X110155500Y-104434383D01*
X110155500Y-89843525D01*
X110955500Y-89843525D01*
X110955500Y-89988475D01*
X110956888Y-89993654D01*
X110960500Y-90007132D01*
X110960501Y-90007137D01*
X110993018Y-90128491D01*
X111063631Y-90250795D01*
X111065489Y-90254013D01*
X111167985Y-90356509D01*
X111168674Y-90357005D01*
X111171178Y-90358353D01*
X111290069Y-90426995D01*
X111293087Y-90428869D01*
X111293514Y-90428983D01*
X111293515Y-90428984D01*
X111433525Y-90466500D01*
X111491626Y-90466500D01*
X111526558Y-90471521D01*
X111551802Y-90478934D01*
X111604548Y-90510230D01*
X111868573Y-90774255D01*
X111889723Y-90802507D01*
X111902331Y-90825596D01*
X111917500Y-90885025D01*
X111917500Y-98198670D01*
X111912475Y-98233614D01*
X111908070Y-98248612D01*
X111870327Y-98307355D01*
X111868958Y-98308542D01*
X111814097Y-98336018D01*
X111806539Y-98337663D01*
X111780168Y-98340500D01*
X111393319Y-98340500D01*
X111320285Y-98355027D01*
X111320262Y-98355032D01*
X111320258Y-98355033D01*
X111237399Y-98410399D01*
X111182033Y-98493258D01*
X111182032Y-98493266D01*
X111182028Y-98493281D01*
X111167500Y-98566318D01*
X111167500Y-98566321D01*
X111167500Y-100315678D01*
X111167500Y-100315680D01*
X111167499Y-100315680D01*
X111182028Y-100388717D01*
X111182032Y-100388735D01*
X111182033Y-100388739D01*
X111185480Y-100394826D01*
X111188816Y-100398891D01*
X111237399Y-100471601D01*
X111320256Y-100526964D01*
X111320258Y-100526965D01*
X111320259Y-100526965D01*
X111320260Y-100526966D01*
X111320264Y-100526967D01*
X111320279Y-100526970D01*
X111320288Y-100526972D01*
X111365021Y-100535869D01*
X111385681Y-100539979D01*
X111388415Y-100540703D01*
X111393323Y-100541500D01*
X111393324Y-100541500D01*
X111393326Y-100541500D01*
X112803626Y-100541500D01*
X112838558Y-100546521D01*
X112863802Y-100553934D01*
X112916548Y-100585230D01*
X116186573Y-103855255D01*
X116207723Y-103883507D01*
X116220331Y-103906596D01*
X116235500Y-103966025D01*
X116235500Y-110754784D01*
X116230476Y-110789721D01*
X116223064Y-110814962D01*
X116191769Y-110867706D01*
X116145495Y-110913979D01*
X116145490Y-110913985D01*
X116145485Y-110913992D01*
X116073017Y-111039509D01*
X116072989Y-111039578D01*
X116072748Y-111040511D01*
X116035500Y-111179525D01*
X116035500Y-111324474D01*
X116073013Y-111464477D01*
X116073015Y-111464483D01*
X116073016Y-111464485D01*
X116073017Y-111464488D01*
X116073018Y-111464489D01*
X116143631Y-111586795D01*
X116145489Y-111590013D01*
X116247985Y-111692509D01*
X116248674Y-111693005D01*
X116251178Y-111694353D01*
X116370069Y-111762995D01*
X116373087Y-111764869D01*
X116373514Y-111764983D01*
X116373515Y-111764984D01*
X116513525Y-111802500D01*
X116513528Y-111802500D01*
X116658472Y-111802500D01*
X116658475Y-111802500D01*
X116798485Y-111764984D01*
X116924015Y-111692509D01*
X116965099Y-111651424D01*
X116993350Y-111630275D01*
X117016442Y-111617667D01*
X117075867Y-111602500D01*
X119511313Y-111602500D01*
X119546245Y-111607521D01*
X119559564Y-111611432D01*
X119618342Y-111649206D01*
X119647368Y-111712761D01*
X119647368Y-111712767D01*
X119647599Y-111714374D01*
X119642042Y-111772570D01*
X119640403Y-111777306D01*
X119630611Y-111798751D01*
X119629016Y-111801513D01*
X119628957Y-111801630D01*
X119628534Y-111803312D01*
X119591500Y-111941525D01*
X119591500Y-112086474D01*
X119624541Y-112209786D01*
X119629016Y-112226487D01*
X119629018Y-112226491D01*
X119699631Y-112348795D01*
X119701489Y-112352013D01*
X119701491Y-112352015D01*
X119803985Y-112454509D01*
X119803986Y-112454509D01*
X119803989Y-112454511D01*
X119803991Y-112454513D01*
X119804007Y-112454522D01*
X119805581Y-112455495D01*
X119805584Y-112455497D01*
X119812232Y-112459605D01*
X119814852Y-112460784D01*
X119829432Y-112469202D01*
X119857166Y-112491012D01*
X119866748Y-112501061D01*
X119898763Y-112563162D01*
X119892122Y-112632715D01*
X119892109Y-112632747D01*
X119891504Y-112634257D01*
X119857600Y-112681853D01*
X119853818Y-112685130D01*
X119834620Y-112698802D01*
X119803987Y-112716488D01*
X119803986Y-112716489D01*
X119701495Y-112818979D01*
X119701490Y-112818984D01*
X119701485Y-112818992D01*
X119629017Y-112944509D01*
X119628989Y-112944578D01*
X119628748Y-112945511D01*
X119591500Y-113084525D01*
X119591500Y-113229474D01*
X119629013Y-113369477D01*
X119629017Y-113369488D01*
X119629018Y-113369489D01*
X119699631Y-113491795D01*
X119701489Y-113495013D01*
X119803985Y-113597509D01*
X119804674Y-113598005D01*
X119807178Y-113599353D01*
X119926069Y-113667995D01*
X119929087Y-113669869D01*
X119929514Y-113669983D01*
X119929515Y-113669984D01*
X120069525Y-113707500D01*
X120069528Y-113707500D01*
X120214472Y-113707500D01*
X120214475Y-113707500D01*
X120354485Y-113669984D01*
X120480015Y-113597509D01*
X120582509Y-113495015D01*
X120654984Y-113369485D01*
X120692500Y-113229475D01*
X120692500Y-113084525D01*
X120654984Y-112944515D01*
X120654981Y-112944509D01*
X120604993Y-112857928D01*
X120604993Y-112857929D01*
X120582511Y-112818988D01*
X120582506Y-112818982D01*
X120480017Y-112716493D01*
X120480015Y-112716491D01*
X120450881Y-112699670D01*
X120447352Y-112697296D01*
X120444545Y-112693916D01*
X120426829Y-112679984D01*
X120417252Y-112669940D01*
X120405154Y-112646474D01*
X120402719Y-112643541D01*
X120402431Y-112641192D01*
X120385236Y-112607838D01*
X120391873Y-112538293D01*
X120392480Y-112536779D01*
X120426399Y-112489146D01*
X120430188Y-112485863D01*
X120449390Y-112472190D01*
X120471188Y-112459605D01*
X120480015Y-112454509D01*
X120582509Y-112352015D01*
X120654984Y-112226485D01*
X120692500Y-112086475D01*
X120692500Y-111941525D01*
X120654984Y-111801515D01*
X120654983Y-111801513D01*
X120651873Y-111794005D01*
X120652331Y-111793814D01*
X120643266Y-111771172D01*
X120639994Y-111757683D01*
X120643320Y-111687892D01*
X120683785Y-111631031D01*
X120685064Y-111630024D01*
X120738326Y-111605686D01*
X120743256Y-111604735D01*
X120766698Y-111602500D01*
X122347142Y-111602500D01*
X122347144Y-111602500D01*
X122436288Y-111578614D01*
X122461233Y-111564212D01*
X122516212Y-111532470D01*
X125756470Y-108292212D01*
X125802614Y-108212288D01*
X125826499Y-108123144D01*
X125826499Y-108030856D01*
X125826498Y-108030850D01*
X125802615Y-107941714D01*
X125802614Y-107941713D01*
X125802614Y-107941712D01*
X125756470Y-107861788D01*
X125691212Y-107796530D01*
X125691211Y-107796529D01*
X125691208Y-107796527D01*
X125654843Y-107775532D01*
X125625424Y-107758547D01*
X125625420Y-107758544D01*
X125611285Y-107750384D01*
X125522150Y-107726501D01*
X125522149Y-107726501D01*
X125522144Y-107726501D01*
X125429856Y-107726501D01*
X125429850Y-107726501D01*
X125429848Y-107726501D01*
X125340713Y-107750384D01*
X125326574Y-107758547D01*
X125326572Y-107758547D01*
X125260795Y-107796523D01*
X125260790Y-107796527D01*
X122204744Y-110852573D01*
X122176493Y-110873722D01*
X122153405Y-110886330D01*
X122093975Y-110901500D01*
X117083216Y-110901500D01*
X117048278Y-110896476D01*
X117031217Y-110891466D01*
X116972440Y-110853691D01*
X116957321Y-110831913D01*
X116951664Y-110821552D01*
X116936500Y-110762132D01*
X116936500Y-103712858D01*
X116936500Y-103712856D01*
X116912614Y-103623712D01*
X116866470Y-103543788D01*
X113417426Y-100094744D01*
X113396274Y-100066488D01*
X113383667Y-100043399D01*
X113368500Y-99983974D01*
X113368500Y-99114525D01*
X118448500Y-99114525D01*
X118448500Y-99259475D01*
X118468559Y-99334334D01*
X118471131Y-99343933D01*
X118486018Y-99399492D01*
X118556631Y-99521795D01*
X118558489Y-99525013D01*
X118660985Y-99627509D01*
X118661674Y-99628005D01*
X118664178Y-99629353D01*
X118783069Y-99697995D01*
X118786087Y-99699869D01*
X118786514Y-99699983D01*
X118786515Y-99699984D01*
X118926525Y-99737500D01*
X118926528Y-99737500D01*
X119071472Y-99737500D01*
X119071475Y-99737500D01*
X119211485Y-99699984D01*
X119337015Y-99627509D01*
X119378099Y-99586424D01*
X119406350Y-99565275D01*
X119429442Y-99552667D01*
X119488867Y-99537500D01*
X120689626Y-99537500D01*
X120724558Y-99542521D01*
X120749802Y-99549934D01*
X120802548Y-99581230D01*
X126527573Y-105306255D01*
X126548723Y-105334507D01*
X126561331Y-105357596D01*
X126576500Y-105417025D01*
X126576500Y-105482475D01*
X126592147Y-105540872D01*
X126614016Y-105622487D01*
X126614018Y-105622491D01*
X126684631Y-105744795D01*
X126686489Y-105748013D01*
X126788985Y-105850509D01*
X126789674Y-105851005D01*
X126792178Y-105852353D01*
X126911069Y-105920995D01*
X126914087Y-105922869D01*
X126914514Y-105922983D01*
X126914515Y-105922984D01*
X127054525Y-105960500D01*
X127054528Y-105960500D01*
X127199472Y-105960500D01*
X127199475Y-105960500D01*
X127339485Y-105922984D01*
X127465015Y-105850509D01*
X127567509Y-105748015D01*
X127639984Y-105622485D01*
X127677500Y-105482475D01*
X127677500Y-105337525D01*
X127639984Y-105197515D01*
X127582406Y-105097788D01*
X127567511Y-105071988D01*
X127567506Y-105071982D01*
X127567502Y-105071978D01*
X127567493Y-105071968D01*
X127465030Y-104969505D01*
X127465014Y-104969490D01*
X127465006Y-104969485D01*
X127411243Y-104938445D01*
X127382808Y-104908624D01*
X127328007Y-104893939D01*
X127328007Y-104893940D01*
X127263740Y-104876720D01*
X127199475Y-104859500D01*
X127199474Y-104859500D01*
X127141374Y-104859500D01*
X127106438Y-104854477D01*
X127081196Y-104847065D01*
X127028451Y-104815769D01*
X123211087Y-100998404D01*
X123131531Y-100918848D01*
X130332501Y-100918848D01*
X130332501Y-101011150D01*
X130356384Y-101100285D01*
X130363331Y-101112319D01*
X130363344Y-101112339D01*
X130402527Y-101180208D01*
X130402529Y-101180211D01*
X130402530Y-101180212D01*
X130883788Y-101661470D01*
X130963712Y-101707614D01*
X131052856Y-101731500D01*
X131145144Y-101731500D01*
X131651504Y-101731500D01*
X131686436Y-101736521D01*
X131699755Y-101740432D01*
X131758533Y-101778206D01*
X131787558Y-101841759D01*
X131788768Y-101850173D01*
X131785807Y-101899913D01*
X131783500Y-101908520D01*
X131783500Y-102053474D01*
X131821013Y-102193477D01*
X131821017Y-102193488D01*
X131821018Y-102193489D01*
X131893485Y-102319006D01*
X131893490Y-102319014D01*
X131893505Y-102319030D01*
X131934573Y-102360097D01*
X131955725Y-102388352D01*
X131968332Y-102411440D01*
X131983500Y-102470867D01*
X131983500Y-110155146D01*
X131993777Y-110193497D01*
X131993777Y-110193500D01*
X131993778Y-110193500D01*
X132007385Y-110244285D01*
X132007389Y-110244295D01*
X132049902Y-110317930D01*
X132053527Y-110324208D01*
X132053531Y-110324213D01*
X134970818Y-113241500D01*
X137876739Y-116147420D01*
X137897891Y-116175676D01*
X137906072Y-116190659D01*
X137921085Y-116256271D01*
X137920420Y-116269566D01*
X137914506Y-116301694D01*
X137864603Y-116455279D01*
X137864598Y-116455295D01*
X137864598Y-116455297D01*
X137864597Y-116455301D01*
X137864595Y-116455311D01*
X137837500Y-116626383D01*
X137837500Y-116799615D01*
X137863423Y-116963294D01*
X137863424Y-116963294D01*
X137864597Y-116970699D01*
X137918128Y-117135449D01*
X137996768Y-117289788D01*
X138098586Y-117429928D01*
X138221072Y-117552414D01*
X138361212Y-117654232D01*
X138515555Y-117732873D01*
X138680299Y-117786402D01*
X138851389Y-117813500D01*
X138851390Y-117813500D01*
X139024610Y-117813500D01*
X139024611Y-117813500D01*
X139195701Y-117786402D01*
X139360445Y-117732873D01*
X139514788Y-117654232D01*
X139654928Y-117552414D01*
X139777414Y-117429928D01*
X139879232Y-117289788D01*
X139957873Y-117135445D01*
X140011402Y-116970701D01*
X140038500Y-116799611D01*
X140038500Y-116626389D01*
X140011402Y-116455299D01*
X139957873Y-116290555D01*
X139879232Y-116136212D01*
X139777414Y-115996072D01*
X139654928Y-115873586D01*
X139514788Y-115771768D01*
X139480705Y-115754402D01*
X139360449Y-115693128D01*
X139209215Y-115643988D01*
X139209203Y-115643985D01*
X139195701Y-115639598D01*
X139195699Y-115639597D01*
X139195698Y-115639597D01*
X139181312Y-115637318D01*
X139181306Y-115637317D01*
X139086053Y-115622231D01*
X139064271Y-115618781D01*
X139048407Y-115616268D01*
X139024614Y-115612500D01*
X139024611Y-115612500D01*
X138851389Y-115612500D01*
X138851388Y-115612500D01*
X138819190Y-115617599D01*
X138819189Y-115617598D01*
X138680313Y-115639594D01*
X138680302Y-115639596D01*
X138680279Y-115639603D01*
X138527980Y-115689088D01*
X138493205Y-115695106D01*
X138476138Y-115695593D01*
X138410854Y-115679176D01*
X138399309Y-115672547D01*
X138373377Y-115652696D01*
X132733426Y-110012744D01*
X132712274Y-109984488D01*
X132699667Y-109961399D01*
X132684500Y-109901974D01*
X132684500Y-102478215D01*
X132689522Y-102443282D01*
X132696934Y-102418037D01*
X132728229Y-102365294D01*
X132774509Y-102319015D01*
X132846984Y-102193485D01*
X132884500Y-102053475D01*
X132884500Y-101908525D01*
X132883504Y-101904810D01*
X132879315Y-101869771D01*
X132879645Y-101855894D01*
X132900918Y-101789345D01*
X132954793Y-101744860D01*
X132962627Y-101741505D01*
X133011426Y-101731500D01*
X135710626Y-101731500D01*
X135745558Y-101736521D01*
X135770802Y-101743934D01*
X135823548Y-101775230D01*
X135871573Y-101823255D01*
X135892723Y-101851507D01*
X135905331Y-101874596D01*
X135920500Y-101934025D01*
X135920500Y-109012144D01*
X135923731Y-109024199D01*
X135923732Y-109024211D01*
X135923734Y-109024211D01*
X135944385Y-109101285D01*
X135944389Y-109101295D01*
X135990526Y-109181207D01*
X135990527Y-109181208D01*
X135990532Y-109181214D01*
X135990538Y-109181221D01*
X137876739Y-111067421D01*
X137897891Y-111095677D01*
X137906072Y-111110660D01*
X137921085Y-111176271D01*
X137920421Y-111189564D01*
X137914506Y-111221696D01*
X137864597Y-111375297D01*
X137864597Y-111375300D01*
X137837500Y-111546383D01*
X137837500Y-111719615D01*
X137863423Y-111883294D01*
X137863424Y-111883294D01*
X137864597Y-111890699D01*
X137918128Y-112055449D01*
X137933937Y-112086475D01*
X137996768Y-112209788D01*
X138098586Y-112349928D01*
X138221072Y-112472414D01*
X138361212Y-112574232D01*
X138515555Y-112652873D01*
X138680299Y-112706402D01*
X138851389Y-112733500D01*
X138851390Y-112733500D01*
X139024610Y-112733500D01*
X139024611Y-112733500D01*
X139195701Y-112706402D01*
X139360445Y-112652873D01*
X139514788Y-112574232D01*
X139654928Y-112472414D01*
X139777414Y-112349928D01*
X139879232Y-112209788D01*
X139957873Y-112055445D01*
X140011402Y-111890701D01*
X140038500Y-111719611D01*
X140038500Y-111546389D01*
X140011402Y-111375299D01*
X139957873Y-111210555D01*
X139879232Y-111056212D01*
X139777414Y-110916072D01*
X139654928Y-110793586D01*
X139514788Y-110691768D01*
X139480705Y-110674402D01*
X139360449Y-110613128D01*
X139209215Y-110563988D01*
X139209203Y-110563985D01*
X139195701Y-110559598D01*
X139195699Y-110559597D01*
X139195698Y-110559597D01*
X139181312Y-110557318D01*
X139181306Y-110557317D01*
X139086053Y-110542231D01*
X139064271Y-110538781D01*
X139048407Y-110536268D01*
X139024614Y-110532500D01*
X139024611Y-110532500D01*
X138851389Y-110532500D01*
X138851388Y-110532500D01*
X138819190Y-110537599D01*
X138819189Y-110537598D01*
X138680300Y-110559596D01*
X138527982Y-110609088D01*
X138493207Y-110615106D01*
X138476139Y-110615593D01*
X138410855Y-110599176D01*
X138399310Y-110592547D01*
X138373378Y-110572696D01*
X136670426Y-108869744D01*
X136649274Y-108841488D01*
X136636667Y-108818399D01*
X136621500Y-108758974D01*
X136621500Y-108188329D01*
X136626523Y-108153393D01*
X136630927Y-108138395D01*
X136668672Y-108079644D01*
X136670041Y-108078457D01*
X136724920Y-108050977D01*
X136732479Y-108049333D01*
X136758832Y-108046500D01*
X137326626Y-108046500D01*
X137361558Y-108051521D01*
X137386802Y-108058934D01*
X137439548Y-108090230D01*
X137876739Y-108527420D01*
X137897891Y-108555676D01*
X137906072Y-108570659D01*
X137921085Y-108636271D01*
X137920420Y-108649566D01*
X137914506Y-108681694D01*
X137864603Y-108835279D01*
X137864598Y-108835295D01*
X137864598Y-108835297D01*
X137864597Y-108835301D01*
X137864595Y-108835311D01*
X137837500Y-109006383D01*
X137837500Y-109179615D01*
X137863423Y-109343294D01*
X137863424Y-109343294D01*
X137864597Y-109350699D01*
X137918128Y-109515449D01*
X137996768Y-109669788D01*
X138098586Y-109809928D01*
X138221072Y-109932414D01*
X138361212Y-110034232D01*
X138515555Y-110112873D01*
X138680299Y-110166402D01*
X138851389Y-110193500D01*
X138851390Y-110193500D01*
X139024610Y-110193500D01*
X139024611Y-110193500D01*
X139195701Y-110166402D01*
X139360445Y-110112873D01*
X139514788Y-110034232D01*
X139654928Y-109932414D01*
X139777414Y-109809928D01*
X139879232Y-109669788D01*
X139957873Y-109515445D01*
X140011402Y-109350701D01*
X140038500Y-109179611D01*
X140038500Y-109006389D01*
X140011402Y-108835299D01*
X139957873Y-108670555D01*
X139879232Y-108516212D01*
X139777414Y-108376072D01*
X139654928Y-108253586D01*
X139514788Y-108151768D01*
X139458610Y-108123144D01*
X139360449Y-108073128D01*
X139209215Y-108023988D01*
X139209203Y-108023985D01*
X139195701Y-108019598D01*
X139195699Y-108019597D01*
X139195698Y-108019597D01*
X139181312Y-108017318D01*
X139181306Y-108017317D01*
X139086053Y-108002231D01*
X139064271Y-107998781D01*
X139048407Y-107996268D01*
X139024614Y-107992500D01*
X139024611Y-107992500D01*
X138851389Y-107992500D01*
X138851388Y-107992500D01*
X138819190Y-107997599D01*
X138819189Y-107997598D01*
X138680313Y-108019594D01*
X138680302Y-108019596D01*
X138680279Y-108019603D01*
X138527980Y-108069088D01*
X138493205Y-108075106D01*
X138476138Y-108075593D01*
X138410854Y-108059176D01*
X138399309Y-108052547D01*
X138373377Y-108032696D01*
X138091067Y-107750386D01*
X137766016Y-107425334D01*
X137766015Y-107425333D01*
X137756212Y-107415530D01*
X137756211Y-107415529D01*
X137756208Y-107415527D01*
X137688343Y-107376346D01*
X137686276Y-107375042D01*
X137684427Y-107372944D01*
X137683896Y-107372537D01*
X137668682Y-107366235D01*
X137660520Y-107365161D01*
X137587144Y-107345500D01*
X137587143Y-107345500D01*
X137271330Y-107345500D01*
X137236389Y-107340475D01*
X137221390Y-107336070D01*
X137162644Y-107298327D01*
X137161457Y-107296958D01*
X137133977Y-107242083D01*
X137132332Y-107234521D01*
X137129500Y-107208168D01*
X137129500Y-103926383D01*
X137837500Y-103926383D01*
X137837500Y-104099615D01*
X137863423Y-104263294D01*
X137863424Y-104263294D01*
X137864597Y-104270699D01*
X137918128Y-104435449D01*
X137996768Y-104589788D01*
X138098586Y-104729928D01*
X138221072Y-104852414D01*
X138361212Y-104954232D01*
X138515555Y-105032873D01*
X138680299Y-105086402D01*
X138851389Y-105113500D01*
X138851390Y-105113500D01*
X139024610Y-105113500D01*
X139024611Y-105113500D01*
X139195701Y-105086402D01*
X139360445Y-105032873D01*
X139514788Y-104954232D01*
X139654928Y-104852414D01*
X139777414Y-104729928D01*
X139879232Y-104589788D01*
X139957873Y-104435445D01*
X140011402Y-104270701D01*
X140038500Y-104099611D01*
X140038500Y-103926389D01*
X140011402Y-103755299D01*
X139957873Y-103590555D01*
X139879232Y-103436212D01*
X139777414Y-103296072D01*
X139654928Y-103173586D01*
X139514788Y-103071768D01*
X139360449Y-102993128D01*
X139209215Y-102943988D01*
X139209203Y-102943985D01*
X139195701Y-102939598D01*
X139195699Y-102939597D01*
X139195698Y-102939597D01*
X139181312Y-102937318D01*
X139181306Y-102937317D01*
X139091188Y-102923044D01*
X139064271Y-102918781D01*
X139048407Y-102916268D01*
X139024614Y-102912500D01*
X139024611Y-102912500D01*
X138851389Y-102912500D01*
X138851388Y-102912500D01*
X138811726Y-102918781D01*
X138811725Y-102918780D01*
X138680304Y-102939596D01*
X138515549Y-102993129D01*
X138361210Y-103071768D01*
X138281256Y-103129859D01*
X138281255Y-103129859D01*
X138232941Y-103164961D01*
X138225564Y-103169092D01*
X138094092Y-103300564D01*
X138089961Y-103307941D01*
X138054859Y-103356255D01*
X138054859Y-103356256D01*
X137996768Y-103436210D01*
X137918129Y-103590549D01*
X137864596Y-103755305D01*
X137837500Y-103926383D01*
X137129500Y-103926383D01*
X137129500Y-101045858D01*
X137129500Y-101045856D01*
X137105614Y-100956712D01*
X137085289Y-100921509D01*
X137059469Y-100876787D01*
X136383212Y-100200530D01*
X136383211Y-100200529D01*
X136383208Y-100200527D01*
X136315343Y-100161346D01*
X136313276Y-100160042D01*
X136311427Y-100157944D01*
X136310896Y-100157537D01*
X136295682Y-100151235D01*
X136287520Y-100150161D01*
X136260735Y-100142984D01*
X136214144Y-100130500D01*
X136214143Y-100130500D01*
X132831216Y-100130500D01*
X132796280Y-100125477D01*
X132771038Y-100118065D01*
X132718292Y-100086768D01*
X132672030Y-100040505D01*
X132672014Y-100040490D01*
X132672011Y-100040488D01*
X132655775Y-100031114D01*
X132546488Y-99968017D01*
X132546489Y-99968017D01*
X132530004Y-99963600D01*
X132406475Y-99930500D01*
X132406474Y-99930500D01*
X132261525Y-99930500D01*
X132137995Y-99963600D01*
X132132296Y-99963464D01*
X132129023Y-99964905D01*
X132121512Y-99968016D01*
X131995992Y-100040485D01*
X131995984Y-100040490D01*
X131995968Y-100040505D01*
X131893505Y-100142968D01*
X131893490Y-100142984D01*
X131893485Y-100142992D01*
X131821017Y-100268509D01*
X131820989Y-100268578D01*
X131820748Y-100269511D01*
X131788803Y-100388735D01*
X131783500Y-100408525D01*
X131783500Y-100553475D01*
X131807075Y-100641456D01*
X131807074Y-100641456D01*
X131821016Y-100693486D01*
X131821018Y-100693491D01*
X131891121Y-100814912D01*
X131903928Y-100846425D01*
X131905040Y-100850811D01*
X131919591Y-100877455D01*
X131914610Y-100947147D01*
X131872741Y-101003083D01*
X131841765Y-101019999D01*
X131834578Y-101022680D01*
X131791239Y-101030500D01*
X131313374Y-101030500D01*
X131278439Y-101025477D01*
X131257848Y-101019431D01*
X131199070Y-100981657D01*
X131183951Y-100959881D01*
X131176820Y-100946821D01*
X131161762Y-100892545D01*
X131160607Y-100864739D01*
X131160500Y-100859593D01*
X131160500Y-99807680D01*
X137837499Y-99807680D01*
X137852028Y-99880717D01*
X137852032Y-99880735D01*
X137852033Y-99880739D01*
X137852736Y-99881981D01*
X137853180Y-99882455D01*
X137907399Y-99963601D01*
X137953578Y-99994456D01*
X137965454Y-100002391D01*
X137990258Y-100018965D01*
X137990260Y-100018966D01*
X137990264Y-100018967D01*
X137990280Y-100018970D01*
X137990288Y-100018972D01*
X137999549Y-100020814D01*
X138055681Y-100031979D01*
X138058415Y-100032703D01*
X138063323Y-100033500D01*
X139812676Y-100033500D01*
X139816796Y-100033500D01*
X139824648Y-100031117D01*
X139885740Y-100018966D01*
X139968601Y-99963601D01*
X140023966Y-99880740D01*
X140038500Y-99807674D01*
X140038500Y-98058326D01*
X140038500Y-98058323D01*
X140038500Y-98058139D01*
X140038064Y-98056134D01*
X140023972Y-97985289D01*
X140023967Y-97985266D01*
X140023967Y-97985264D01*
X140023966Y-97985260D01*
X140023965Y-97985258D01*
X140023964Y-97985256D01*
X139968601Y-97902399D01*
X139895891Y-97853816D01*
X139891826Y-97850480D01*
X139885739Y-97847033D01*
X139885735Y-97847032D01*
X139885709Y-97847026D01*
X139812680Y-97832500D01*
X139812677Y-97832500D01*
X139812674Y-97832500D01*
X138063326Y-97832500D01*
X138063323Y-97832500D01*
X138063319Y-97832500D01*
X137990285Y-97847027D01*
X137990262Y-97847032D01*
X137990258Y-97847033D01*
X137907399Y-97902399D01*
X137852033Y-97985258D01*
X137852032Y-97985266D01*
X137852028Y-97985281D01*
X137837500Y-98058318D01*
X137837500Y-98058321D01*
X137837500Y-99807678D01*
X137837500Y-99807680D01*
X137837499Y-99807680D01*
X131160500Y-99807680D01*
X131160500Y-99528373D01*
X131165522Y-99493440D01*
X131172934Y-99468195D01*
X131204228Y-99415453D01*
X131239258Y-99380423D01*
X131267508Y-99359275D01*
X131290600Y-99346667D01*
X131350025Y-99331500D01*
X131836784Y-99331500D01*
X131871716Y-99336521D01*
X131896960Y-99343934D01*
X131949706Y-99375230D01*
X131995985Y-99421509D01*
X131996674Y-99422005D01*
X131999178Y-99423353D01*
X132118069Y-99491995D01*
X132121087Y-99493869D01*
X132121514Y-99493983D01*
X132121515Y-99493984D01*
X132261525Y-99531500D01*
X132261528Y-99531500D01*
X132406472Y-99531500D01*
X132406475Y-99531500D01*
X132546485Y-99493984D01*
X132672015Y-99421509D01*
X132774509Y-99319015D01*
X132846984Y-99193485D01*
X132884500Y-99053475D01*
X132884500Y-98908525D01*
X132846984Y-98768515D01*
X132846982Y-98768512D01*
X132846983Y-98768512D01*
X132834268Y-98746490D01*
X132834267Y-98746489D01*
X132774513Y-98642991D01*
X132774508Y-98642984D01*
X132774493Y-98642968D01*
X132672030Y-98540505D01*
X132672014Y-98540490D01*
X132672006Y-98540485D01*
X132618243Y-98509445D01*
X132589808Y-98479624D01*
X132535007Y-98464939D01*
X132535007Y-98464940D01*
X132470740Y-98447720D01*
X132406475Y-98430500D01*
X132406474Y-98430500D01*
X132261525Y-98430500D01*
X132132994Y-98464939D01*
X132132993Y-98464940D01*
X132125338Y-98466991D01*
X132121510Y-98468017D01*
X131995991Y-98540485D01*
X131995979Y-98540495D01*
X131954901Y-98581574D01*
X131926649Y-98602724D01*
X131903562Y-98615331D01*
X131844133Y-98630500D01*
X131096856Y-98630500D01*
X131007725Y-98654382D01*
X131007708Y-98654387D01*
X131007703Y-98654389D01*
X130927791Y-98700526D01*
X130927790Y-98700527D01*
X130927784Y-98700532D01*
X130927777Y-98700538D01*
X130529538Y-99098777D01*
X130529532Y-99098784D01*
X130529527Y-99098790D01*
X130529526Y-99098791D01*
X130483389Y-99178703D01*
X130483387Y-99178708D01*
X130483382Y-99178725D01*
X130459500Y-99267856D01*
X130459500Y-100623626D01*
X130454476Y-100658565D01*
X130447064Y-100683805D01*
X130415769Y-100736547D01*
X130402537Y-100749778D01*
X130402533Y-100749783D01*
X130402527Y-100749790D01*
X130402523Y-100749795D01*
X130364547Y-100815572D01*
X130364547Y-100815574D01*
X130356384Y-100829713D01*
X130332501Y-100918848D01*
X123131531Y-100918848D01*
X121119221Y-98906538D01*
X121119214Y-98906532D01*
X121119208Y-98906527D01*
X121119207Y-98906526D01*
X121039796Y-98860679D01*
X121039795Y-98860678D01*
X121039290Y-98860387D01*
X121039288Y-98860386D01*
X121030562Y-98858048D01*
X121030561Y-98858047D01*
X120973357Y-98842720D01*
X120973203Y-98842678D01*
X120973093Y-98842649D01*
X120973091Y-98842648D01*
X120950148Y-98836500D01*
X120950144Y-98836500D01*
X120950143Y-98836500D01*
X119496216Y-98836500D01*
X119461280Y-98831477D01*
X119436038Y-98824065D01*
X119383292Y-98792768D01*
X119337030Y-98746505D01*
X119337014Y-98746490D01*
X119337012Y-98746489D01*
X119337013Y-98746489D01*
X119337011Y-98746488D01*
X119283242Y-98715444D01*
X119254808Y-98685624D01*
X119200007Y-98670939D01*
X119200007Y-98670940D01*
X119135740Y-98653720D01*
X119071475Y-98636500D01*
X119071474Y-98636500D01*
X118926525Y-98636500D01*
X118797994Y-98670939D01*
X118797993Y-98670940D01*
X118790338Y-98672991D01*
X118786510Y-98674017D01*
X118660991Y-98746485D01*
X118660987Y-98746489D01*
X118660984Y-98746490D01*
X118660968Y-98746505D01*
X118558505Y-98848968D01*
X118558490Y-98848984D01*
X118558485Y-98848992D01*
X118486017Y-98974509D01*
X118485989Y-98974578D01*
X118485748Y-98975511D01*
X118464859Y-99053472D01*
X118448500Y-99114525D01*
X113368500Y-99114525D01*
X113368500Y-98569116D01*
X113368500Y-98566323D01*
X113368499Y-98566321D01*
X113353967Y-98493264D01*
X113353966Y-98493260D01*
X113337099Y-98468017D01*
X113312032Y-98430500D01*
X113298604Y-98410402D01*
X113298600Y-98410398D01*
X113225891Y-98361816D01*
X113221826Y-98358480D01*
X113215739Y-98355033D01*
X113215735Y-98355032D01*
X113215709Y-98355026D01*
X113142680Y-98340500D01*
X113142677Y-98340500D01*
X113142674Y-98340500D01*
X112760330Y-98340500D01*
X112725389Y-98335475D01*
X112710390Y-98331070D01*
X112651644Y-98293327D01*
X112650457Y-98291958D01*
X112622977Y-98237083D01*
X112621332Y-98229521D01*
X112618500Y-98203168D01*
X112618500Y-91477525D01*
X131783500Y-91477525D01*
X131783500Y-91622475D01*
X131792208Y-91654973D01*
X131818510Y-91753133D01*
X131821017Y-91762488D01*
X131821018Y-91762491D01*
X131891631Y-91884795D01*
X131893489Y-91888013D01*
X131995985Y-91990509D01*
X131996674Y-91991005D01*
X131999178Y-91992353D01*
X132118069Y-92060995D01*
X132121087Y-92062869D01*
X132121514Y-92062983D01*
X132121515Y-92062984D01*
X132261525Y-92100500D01*
X132261528Y-92100500D01*
X132406472Y-92100500D01*
X132406475Y-92100500D01*
X132546485Y-92062984D01*
X132672015Y-91990509D01*
X132713099Y-91949424D01*
X132741350Y-91928275D01*
X132764442Y-91915667D01*
X132823867Y-91900500D01*
X134535473Y-91900500D01*
X134570409Y-91905523D01*
X134585407Y-91909927D01*
X134644177Y-91947693D01*
X134650020Y-91954435D01*
X134672246Y-91991649D01*
X134674385Y-91997287D01*
X134674396Y-91997307D01*
X134720525Y-92077205D01*
X134720527Y-92077208D01*
X134720532Y-92077213D01*
X134720538Y-92077220D01*
X135912155Y-93268836D01*
X135922104Y-93280069D01*
X135929344Y-93289315D01*
X135943115Y-93311304D01*
X135960801Y-93347483D01*
X135966771Y-93355844D01*
X135966438Y-93356081D01*
X135978322Y-93376395D01*
X135983487Y-93384211D01*
X135986382Y-93391408D01*
X135986862Y-93393229D01*
X135987822Y-93394987D01*
X135990540Y-93401743D01*
X135992294Y-93419797D01*
X135999500Y-93448023D01*
X135999500Y-93513600D01*
X136018907Y-93586033D01*
X136018940Y-93586152D01*
X136020106Y-93590501D01*
X136020107Y-93590508D01*
X136023382Y-93602733D01*
X136023385Y-93602741D01*
X136023386Y-93602744D01*
X136023869Y-93603581D01*
X136023870Y-93603583D01*
X136052639Y-93653412D01*
X136052641Y-93653415D01*
X136069528Y-93682667D01*
X136069530Y-93682669D01*
X136769033Y-94382171D01*
X136787542Y-94405824D01*
X136803631Y-94432507D01*
X136811073Y-94444850D01*
X136816283Y-94454417D01*
X136860803Y-94545485D01*
X136943514Y-94628196D01*
X136943515Y-94628196D01*
X136943517Y-94628198D01*
X137048607Y-94679573D01*
X137082673Y-94684536D01*
X137116739Y-94689500D01*
X137116740Y-94689500D01*
X137116741Y-94689500D01*
X137383261Y-94689500D01*
X137383262Y-94689500D01*
X137387803Y-94688838D01*
X137405971Y-94686191D01*
X137451393Y-94679573D01*
X137556483Y-94628198D01*
X137567310Y-94617370D01*
X137595566Y-94596217D01*
X137607746Y-94589566D01*
X137676018Y-94574713D01*
X137741478Y-94599125D01*
X137756030Y-94610017D01*
X137769358Y-94621567D01*
X137769396Y-94621599D01*
X137786257Y-94632865D01*
X137786256Y-94632865D01*
X137790024Y-94635382D01*
X137852259Y-94676965D01*
X137852260Y-94676966D01*
X137852264Y-94676967D01*
X137852279Y-94676970D01*
X137852288Y-94676972D01*
X137890316Y-94684536D01*
X137917681Y-94689979D01*
X137920415Y-94690703D01*
X137925323Y-94691500D01*
X139774676Y-94691500D01*
X139778796Y-94691500D01*
X139786648Y-94689117D01*
X139847740Y-94676966D01*
X139930601Y-94621601D01*
X139985966Y-94538740D01*
X140000500Y-94465674D01*
X140000500Y-93416326D01*
X140000500Y-93416323D01*
X140000500Y-93416139D01*
X140000064Y-93414134D01*
X139985972Y-93343289D01*
X139985967Y-93343266D01*
X139985967Y-93343264D01*
X139985966Y-93343260D01*
X139985965Y-93343258D01*
X139985964Y-93343256D01*
X139930601Y-93260399D01*
X139857891Y-93211816D01*
X139853826Y-93208480D01*
X139847739Y-93205033D01*
X139847735Y-93205032D01*
X139847725Y-93205030D01*
X139847709Y-93205026D01*
X139774680Y-93190500D01*
X139774677Y-93190500D01*
X139774674Y-93190500D01*
X137925326Y-93190500D01*
X137925323Y-93190500D01*
X137925319Y-93190500D01*
X137852285Y-93205027D01*
X137852262Y-93205032D01*
X137852258Y-93205033D01*
X137769399Y-93260399D01*
X137714033Y-93343258D01*
X137714032Y-93343266D01*
X137714028Y-93343281D01*
X137699500Y-93416318D01*
X137699500Y-93643244D01*
X137694475Y-93678185D01*
X137690564Y-93691502D01*
X137652787Y-93750278D01*
X137589242Y-93779298D01*
X137585404Y-93779850D01*
X137531223Y-93775611D01*
X137530266Y-93775316D01*
X137512335Y-93768219D01*
X137451393Y-93738427D01*
X137451391Y-93738426D01*
X137383261Y-93728500D01*
X137383260Y-93728500D01*
X137383255Y-93728500D01*
X137175918Y-93728500D01*
X137140982Y-93723477D01*
X137115740Y-93716065D01*
X137062995Y-93684769D01*
X136809979Y-93431753D01*
X136788827Y-93403497D01*
X136781335Y-93389776D01*
X136766484Y-93321508D01*
X136767267Y-93310556D01*
X136779550Y-93264940D01*
X136790572Y-93242395D01*
X136790573Y-93242392D01*
X136796017Y-93205032D01*
X136798134Y-93190500D01*
X136800500Y-93174264D01*
X136800500Y-92843252D01*
X136800761Y-92843252D01*
X136801475Y-92822360D01*
X136803870Y-92805484D01*
X136832773Y-92741879D01*
X136836471Y-92737596D01*
X136880066Y-92705272D01*
X136880947Y-92704881D01*
X136899128Y-92698460D01*
X136902288Y-92697614D01*
X136982212Y-92651470D01*
X137126261Y-92507420D01*
X137154508Y-92486275D01*
X137177600Y-92473667D01*
X137237025Y-92458500D01*
X137293262Y-92458500D01*
X137297803Y-92457838D01*
X137315971Y-92455191D01*
X137361393Y-92448573D01*
X137466483Y-92397198D01*
X137486256Y-92377424D01*
X137514507Y-92356276D01*
X137537594Y-92343669D01*
X137597023Y-92328500D01*
X138359142Y-92328500D01*
X138359144Y-92328500D01*
X138448288Y-92304614D01*
X138528212Y-92258470D01*
X138546256Y-92240425D01*
X138574508Y-92219275D01*
X138597600Y-92206667D01*
X138657025Y-92191500D01*
X139778796Y-92191500D01*
X139786648Y-92189117D01*
X139847740Y-92176966D01*
X139930601Y-92121601D01*
X139985966Y-92038740D01*
X140000500Y-91965674D01*
X140000500Y-90916326D01*
X140000500Y-90916323D01*
X140000500Y-90916139D01*
X140000064Y-90914134D01*
X139985972Y-90843289D01*
X139985967Y-90843265D01*
X139985967Y-90843264D01*
X139985966Y-90843260D01*
X139985965Y-90843258D01*
X139985964Y-90843256D01*
X139930601Y-90760399D01*
X139857891Y-90711816D01*
X139853826Y-90708480D01*
X139847739Y-90705033D01*
X139847735Y-90705032D01*
X139847709Y-90705026D01*
X139774680Y-90690500D01*
X139774677Y-90690500D01*
X139774674Y-90690500D01*
X137925326Y-90690500D01*
X137925323Y-90690500D01*
X137925319Y-90690500D01*
X137852285Y-90705027D01*
X137852262Y-90705032D01*
X137852258Y-90705033D01*
X137769399Y-90760399D01*
X137714033Y-90843258D01*
X137714032Y-90843265D01*
X137699500Y-90916318D01*
X137699500Y-91474626D01*
X137694476Y-91509564D01*
X137691289Y-91520417D01*
X137653514Y-91579194D01*
X137589957Y-91608217D01*
X137520807Y-91598276D01*
X137513829Y-91595089D01*
X137477657Y-91569975D01*
X137466485Y-91558803D01*
X137361391Y-91507426D01*
X137293261Y-91497500D01*
X137293260Y-91497500D01*
X137293255Y-91497500D01*
X137026744Y-91497500D01*
X137026740Y-91497500D01*
X137026739Y-91497500D01*
X136969963Y-91505771D01*
X136958607Y-91507426D01*
X136894975Y-91538534D01*
X136861390Y-91549363D01*
X136847712Y-91551699D01*
X136778316Y-91543582D01*
X136724324Y-91499234D01*
X136724317Y-91499223D01*
X136722135Y-91496016D01*
X136702154Y-91445482D01*
X136701997Y-91444488D01*
X136700500Y-91425274D01*
X136700500Y-90964858D01*
X136700500Y-90964856D01*
X136676614Y-90875712D01*
X136676613Y-90875711D01*
X136676613Y-90875709D01*
X136657881Y-90843266D01*
X136657881Y-90843265D01*
X136636747Y-90806661D01*
X136635567Y-90804037D01*
X136631457Y-90797387D01*
X136630549Y-90795868D01*
X136565212Y-90730531D01*
X135614016Y-89779334D01*
X135614015Y-89779333D01*
X135604212Y-89769530D01*
X135604211Y-89769529D01*
X135604208Y-89769527D01*
X135536343Y-89730346D01*
X135534276Y-89729042D01*
X135532427Y-89726944D01*
X135531896Y-89726537D01*
X135516682Y-89720235D01*
X135508520Y-89719161D01*
X135481735Y-89711984D01*
X135435144Y-89699500D01*
X135435143Y-89699500D01*
X132958216Y-89699500D01*
X132923280Y-89694477D01*
X132898038Y-89687065D01*
X132845292Y-89655768D01*
X132799030Y-89609505D01*
X132799021Y-89609497D01*
X132799017Y-89609493D01*
X132799011Y-89609488D01*
X132745242Y-89578444D01*
X132716808Y-89548624D01*
X132662007Y-89533939D01*
X132662007Y-89533940D01*
X132597740Y-89516720D01*
X132533475Y-89499500D01*
X132533474Y-89499500D01*
X132388525Y-89499500D01*
X132259994Y-89533939D01*
X132259993Y-89533940D01*
X132252338Y-89535991D01*
X132248510Y-89537017D01*
X132122991Y-89609485D01*
X132122987Y-89609489D01*
X132122968Y-89609505D01*
X132020505Y-89711968D01*
X132020490Y-89711984D01*
X132020485Y-89711992D01*
X131948017Y-89837509D01*
X131947989Y-89837578D01*
X131947748Y-89838511D01*
X131918997Y-89945814D01*
X131910500Y-89977525D01*
X131910500Y-90122475D01*
X131945747Y-90254017D01*
X131948017Y-90262488D01*
X132019744Y-90386722D01*
X132020361Y-90387885D01*
X132122985Y-90490509D01*
X132123674Y-90491005D01*
X132126178Y-90492353D01*
X132245069Y-90560995D01*
X132248087Y-90562869D01*
X132248514Y-90562983D01*
X132248515Y-90562984D01*
X132388525Y-90600500D01*
X132388528Y-90600500D01*
X132533472Y-90600500D01*
X132533475Y-90600500D01*
X132673485Y-90562984D01*
X132799015Y-90490509D01*
X132840099Y-90449424D01*
X132868350Y-90428275D01*
X132891442Y-90415667D01*
X132950867Y-90400500D01*
X135174626Y-90400500D01*
X135209558Y-90405521D01*
X135234802Y-90412934D01*
X135287548Y-90444230D01*
X135950573Y-91107254D01*
X135971723Y-91135506D01*
X135984331Y-91158595D01*
X135999500Y-91218024D01*
X135999500Y-91927505D01*
X135994950Y-91960786D01*
X135988403Y-91984284D01*
X135964783Y-92024736D01*
X135966771Y-92026156D01*
X135960803Y-92034514D01*
X135947364Y-92062004D01*
X135919728Y-92098973D01*
X135912453Y-92105638D01*
X135849725Y-92136410D01*
X135790630Y-92132222D01*
X135788391Y-92131500D01*
X135788389Y-92131499D01*
X135784080Y-92130109D01*
X135734459Y-92099776D01*
X135400426Y-91765743D01*
X135379274Y-91737487D01*
X135366667Y-91714398D01*
X135351500Y-91654973D01*
X135351500Y-91647858D01*
X135351500Y-91647856D01*
X135327614Y-91558712D01*
X135300356Y-91511500D01*
X135281470Y-91478788D01*
X135072212Y-91269530D01*
X135072211Y-91269529D01*
X135072208Y-91269527D01*
X135004343Y-91230346D01*
X135002276Y-91229042D01*
X135000427Y-91226944D01*
X134999896Y-91226537D01*
X134984682Y-91220235D01*
X134976520Y-91219161D01*
X134949735Y-91211984D01*
X134903144Y-91199500D01*
X134903143Y-91199500D01*
X132831216Y-91199500D01*
X132796280Y-91194477D01*
X132771038Y-91187065D01*
X132718292Y-91155768D01*
X132672030Y-91109505D01*
X132672014Y-91109490D01*
X132672006Y-91109485D01*
X132618243Y-91078445D01*
X132589808Y-91048624D01*
X132535007Y-91033939D01*
X132535007Y-91033940D01*
X132470740Y-91016720D01*
X132406475Y-90999500D01*
X132406474Y-90999500D01*
X132261525Y-90999500D01*
X132132994Y-91033939D01*
X132132993Y-91033940D01*
X132125338Y-91035991D01*
X132121510Y-91037017D01*
X131995991Y-91109485D01*
X131995984Y-91109490D01*
X131995968Y-91109505D01*
X131893505Y-91211968D01*
X131893490Y-91211984D01*
X131893485Y-91211992D01*
X131822287Y-91335308D01*
X131822286Y-91335312D01*
X131821017Y-91337511D01*
X131821016Y-91337515D01*
X131783500Y-91477525D01*
X112618500Y-91477525D01*
X112618500Y-90631858D01*
X112618500Y-90631856D01*
X112594614Y-90542712D01*
X112548470Y-90462788D01*
X112105426Y-90019744D01*
X112084274Y-89991488D01*
X112071667Y-89968399D01*
X112056500Y-89908974D01*
X112056500Y-89843527D01*
X112056500Y-89843525D01*
X112018984Y-89703515D01*
X111964697Y-89609488D01*
X111946514Y-89577993D01*
X111946512Y-89577989D01*
X111946510Y-89577986D01*
X111946506Y-89577982D01*
X111946502Y-89577978D01*
X111946493Y-89577968D01*
X111844030Y-89475505D01*
X111844014Y-89475490D01*
X111844006Y-89475485D01*
X111790243Y-89444445D01*
X111761808Y-89414624D01*
X111707007Y-89399939D01*
X111707007Y-89399940D01*
X111642740Y-89382720D01*
X111578475Y-89365500D01*
X111578474Y-89365500D01*
X111433525Y-89365500D01*
X111304994Y-89399939D01*
X111304993Y-89399940D01*
X111297338Y-89401991D01*
X111293510Y-89403017D01*
X111167991Y-89475485D01*
X111167984Y-89475490D01*
X111167968Y-89475505D01*
X111065505Y-89577968D01*
X111065490Y-89577984D01*
X111065485Y-89577992D01*
X110994287Y-89701308D01*
X110994286Y-89701312D01*
X110993017Y-89703511D01*
X110993016Y-89703515D01*
X110955500Y-89843525D01*
X110155500Y-89843525D01*
X110155500Y-88707329D01*
X110160523Y-88672393D01*
X110164927Y-88657395D01*
X110202672Y-88598644D01*
X110204041Y-88597457D01*
X110258920Y-88569977D01*
X110266479Y-88568333D01*
X110292832Y-88565500D01*
X111126000Y-88565500D01*
X111193039Y-88585185D01*
G37*
%TD.AperFunction*%
%TD*%
M02*
