%TF.GenerationSoftware,KiCad,Pcbnew,10.0.0*%
%TF.CreationDate,2026-04-24T01:18:27-07:00*%
%TF.ProjectId,LM2596,4c4d3235-3936-42e6-9b69-6361645f7063,rev?*%
%TF.SameCoordinates,Original*%
%TF.FileFunction,Copper,L1,Top*%
%TF.FilePolarity,Positive*%
%FSLAX46Y46*%
G04 Gerber Fmt 4.6, Leading zero omitted, Abs format (unit mm)*
G04 Created by KiCad (PCBNEW 10.0.0) date 2026-04-24 01:18:27*
%MOMM*%
%LPD*%
G01*
G04 APERTURE LIST*
G04 Aperture macros list*
%AMRoundRect*
0 Rectangle with rounded corners*
0 $1 Rounding radius*
0 $2 $3 $4 $5 $6 $7 $8 $9 X,Y pos of 4 corners*
0 Add a 4 corners polygon primitive as box body*
4,1,4,$2,$3,$4,$5,$6,$7,$8,$9,$2,$3,0*
0 Add four circle primitives for the rounded corners*
1,1,$1+$1,$2,$3*
1,1,$1+$1,$4,$5*
1,1,$1+$1,$6,$7*
1,1,$1+$1,$8,$9*
0 Add four rect primitives between the rounded corners*
20,1,$1+$1,$2,$3,$4,$5,0*
20,1,$1+$1,$4,$5,$6,$7,0*
20,1,$1+$1,$6,$7,$8,$9,0*
20,1,$1+$1,$8,$9,$2,$3,0*%
G04 Aperture macros list end*
%TA.AperFunction,ComponentPad*%
%ADD10R,5.020000X2.020000*%
%TD*%
%TA.AperFunction,ComponentPad*%
%ADD11O,5.020000X2.020000*%
%TD*%
%TA.AperFunction,SMDPad,CuDef*%
%ADD12RoundRect,0.250000X-0.475000X0.250000X-0.475000X-0.250000X0.475000X-0.250000X0.475000X0.250000X0*%
%TD*%
%TA.AperFunction,ComponentPad*%
%ADD13RoundRect,0.250000X-1.350000X1.350000X-1.350000X-1.350000X1.350000X-1.350000X1.350000X1.350000X0*%
%TD*%
%TA.AperFunction,ComponentPad*%
%ADD14C,3.200000*%
%TD*%
%TA.AperFunction,SMDPad,CuDef*%
%ADD15RoundRect,0.250000X2.050000X0.300000X-2.050000X0.300000X-2.050000X-0.300000X2.050000X-0.300000X0*%
%TD*%
%TA.AperFunction,SMDPad,CuDef*%
%ADD16RoundRect,0.250002X4.449998X5.149998X-4.449998X5.149998X-4.449998X-5.149998X4.449998X-5.149998X0*%
%TD*%
%TA.AperFunction,SMDPad,CuDef*%
%ADD17RoundRect,0.250001X0.999999X-0.499999X0.999999X0.499999X-0.999999X0.499999X-0.999999X-0.499999X0*%
%TD*%
%TA.AperFunction,ComponentPad*%
%ADD18RoundRect,0.250000X1.050000X1.050000X-1.050000X1.050000X-1.050000X-1.050000X1.050000X-1.050000X0*%
%TD*%
%TA.AperFunction,ComponentPad*%
%ADD19C,2.600000*%
%TD*%
%TA.AperFunction,ViaPad*%
%ADD20C,0.600000*%
%TD*%
%TA.AperFunction,Conductor*%
%ADD21C,0.200000*%
%TD*%
G04 APERTURE END LIST*
D10*
%TO.P,J1,1*%
%TO.N,Net-(U1-VIN)*%
X138176000Y-94113000D03*
D11*
%TO.P,J1,2*%
%TO.N,GND*%
X138176000Y-99293000D03*
%TD*%
D12*
%TO.P,C2,1*%
%TO.N,Net-(J2-Pin_1)*%
X148336000Y-70109000D03*
%TO.P,C2,2*%
%TO.N,GND*%
X148336000Y-72009000D03*
%TD*%
%TO.P,C1,1*%
%TO.N,Net-(U1-VIN)*%
X146558000Y-96205000D03*
%TO.P,C1,2*%
%TO.N,GND*%
X146558000Y-98105000D03*
%TD*%
D13*
%TO.P,D1,1,K_1*%
%TO.N,Net-(D1-K)*%
X153543000Y-95504000D03*
D14*
%TO.P,D1,2,A_2*%
%TO.N,GND*%
X153543000Y-108204000D03*
%TD*%
D15*
%TO.P,U1,1,VIN_1*%
%TO.N,Net-(U1-VIN)*%
X145179000Y-85423000D03*
%TO.P,U1,2,OUT_2*%
%TO.N,Net-(D1-K)*%
X145179000Y-83723000D03*
%TO.P,U1,3,GND_3*%
%TO.N,GND*%
X145179000Y-82023000D03*
D16*
X136029000Y-82023000D03*
D15*
%TO.P,U1,4,FB_4*%
%TO.N,Net-(J2-Pin_1)*%
X145179000Y-80323000D03*
%TO.P,U1,5,~{ON}/OFF_5*%
%TO.N,GND*%
X145179000Y-78623000D03*
%TD*%
D17*
%TO.P,L1,1,1_1*%
%TO.N,Net-(D1-K)*%
X151765000Y-83947000D03*
%TO.P,L1,2,2_2*%
%TO.N,Net-(J2-Pin_1)*%
X151765000Y-80247000D03*
%TD*%
D18*
%TO.P,J2,1,Pin_1_1*%
%TO.N,Net-(J2-Pin_1)*%
X139827000Y-66421000D03*
D19*
%TO.P,J2,2,Pin_2_2*%
%TO.N,GND*%
X134827000Y-66421000D03*
%TD*%
D20*
%TO.N,GND*%
X144780000Y-76835000D03*
X148463000Y-94234000D03*
%TD*%
%TO.N,Net-(J2-Pin_1)*%
D21*
X148082000Y-78994000D02*
X146753000Y-80323000D01*
X151765000Y-80247000D02*
X150512000Y-78994000D01*
X146431000Y-66421000D02*
X139827000Y-66421000D01*
X146753000Y-80323000D02*
X145179000Y-80323000D01*
X148336000Y-70109000D02*
X148336000Y-68326000D01*
X150512000Y-78994000D02*
X148082000Y-78994000D01*
X145255000Y-80247000D02*
X145179000Y-80323000D01*
X148336000Y-68326000D02*
X146431000Y-66421000D01*
%TO.N,GND*%
X145179000Y-78623000D02*
X148336000Y-75466000D01*
X148463000Y-94234000D02*
X148463000Y-96200000D01*
X145179000Y-78623000D02*
X145179000Y-77234000D01*
X145179000Y-82023000D02*
X136029000Y-82023000D01*
X134827000Y-66421000D02*
X140415000Y-72009000D01*
X138176000Y-99293000D02*
X145370000Y-99293000D01*
X145179000Y-77234000D02*
X144780000Y-76835000D01*
X145370000Y-99293000D02*
X146558000Y-98105000D01*
X140415000Y-72009000D02*
X148336000Y-72009000D01*
X153543000Y-108204000D02*
X146558000Y-101219000D01*
X146558000Y-101219000D02*
X146558000Y-98105000D01*
X148336000Y-75466000D02*
X148336000Y-72009000D01*
X148463000Y-96200000D02*
X146558000Y-98105000D01*
%TO.N,Net-(U1-VIN)*%
X144466000Y-94113000D02*
X146558000Y-96205000D01*
X144466000Y-86136000D02*
X144466000Y-94113000D01*
X145179000Y-85423000D02*
X144466000Y-86136000D01*
X138176000Y-94113000D02*
X144466000Y-94113000D01*
%TO.N,Net-(D1-K)*%
X145179000Y-83723000D02*
X151541000Y-83723000D01*
X151541000Y-83723000D02*
X151765000Y-83947000D01*
X153543000Y-85725000D02*
X151765000Y-83947000D01*
X153543000Y-95504000D02*
X153543000Y-85725000D01*
%TD*%
M02*
