%TF.GenerationSoftware,KiCad,Pcbnew,8.0.8*%
%TF.CreationDate,2026-02-04T08:37:40+05:30*%
%TF.ProjectId,power supply,706f7765-7220-4737-9570-706c792e6b69,rev?*%
%TF.SameCoordinates,Original*%
%TF.FileFunction,Legend,Top*%
%TF.FilePolarity,Positive*%
%FSLAX46Y46*%
G04 Gerber Fmt 4.6, Leading zero omitted, Abs format (unit mm)*
G04 Created by KiCad (PCBNEW 8.0.8) date 2026-02-04 08:37:40*
%MOMM*%
%LPD*%
G01*
G04 APERTURE LIST*
%ADD10C,0.100000*%
%ADD11C,0.150000*%
%ADD12C,0.120000*%
G04 APERTURE END LIST*
D10*
X88456265Y-135786704D02*
X88932455Y-135786704D01*
X88361027Y-136072419D02*
X88694360Y-135072419D01*
X88694360Y-135072419D02*
X89027693Y-136072419D01*
X89932455Y-135977180D02*
X89884836Y-136024800D01*
X89884836Y-136024800D02*
X89741979Y-136072419D01*
X89741979Y-136072419D02*
X89646741Y-136072419D01*
X89646741Y-136072419D02*
X89503884Y-136024800D01*
X89503884Y-136024800D02*
X89408646Y-135929561D01*
X89408646Y-135929561D02*
X89361027Y-135834323D01*
X89361027Y-135834323D02*
X89313408Y-135643847D01*
X89313408Y-135643847D02*
X89313408Y-135500990D01*
X89313408Y-135500990D02*
X89361027Y-135310514D01*
X89361027Y-135310514D02*
X89408646Y-135215276D01*
X89408646Y-135215276D02*
X89503884Y-135120038D01*
X89503884Y-135120038D02*
X89646741Y-135072419D01*
X89646741Y-135072419D02*
X89741979Y-135072419D01*
X89741979Y-135072419D02*
X89884836Y-135120038D01*
X89884836Y-135120038D02*
X89932455Y-135167657D01*
X152103884Y-140272419D02*
X152103884Y-139272419D01*
X152103884Y-139272419D02*
X152341979Y-139272419D01*
X152341979Y-139272419D02*
X152484836Y-139320038D01*
X152484836Y-139320038D02*
X152580074Y-139415276D01*
X152580074Y-139415276D02*
X152627693Y-139510514D01*
X152627693Y-139510514D02*
X152675312Y-139700990D01*
X152675312Y-139700990D02*
X152675312Y-139843847D01*
X152675312Y-139843847D02*
X152627693Y-140034323D01*
X152627693Y-140034323D02*
X152580074Y-140129561D01*
X152580074Y-140129561D02*
X152484836Y-140224800D01*
X152484836Y-140224800D02*
X152341979Y-140272419D01*
X152341979Y-140272419D02*
X152103884Y-140272419D01*
X153675312Y-140177180D02*
X153627693Y-140224800D01*
X153627693Y-140224800D02*
X153484836Y-140272419D01*
X153484836Y-140272419D02*
X153389598Y-140272419D01*
X153389598Y-140272419D02*
X153246741Y-140224800D01*
X153246741Y-140224800D02*
X153151503Y-140129561D01*
X153151503Y-140129561D02*
X153103884Y-140034323D01*
X153103884Y-140034323D02*
X153056265Y-139843847D01*
X153056265Y-139843847D02*
X153056265Y-139700990D01*
X153056265Y-139700990D02*
X153103884Y-139510514D01*
X153103884Y-139510514D02*
X153151503Y-139415276D01*
X153151503Y-139415276D02*
X153246741Y-139320038D01*
X153246741Y-139320038D02*
X153389598Y-139272419D01*
X153389598Y-139272419D02*
X153484836Y-139272419D01*
X153484836Y-139272419D02*
X153627693Y-139320038D01*
X153627693Y-139320038D02*
X153675312Y-139367657D01*
D11*
X102224819Y-126738094D02*
X101224819Y-126738094D01*
X101224819Y-126738094D02*
X101224819Y-126499999D01*
X101224819Y-126499999D02*
X101272438Y-126357142D01*
X101272438Y-126357142D02*
X101367676Y-126261904D01*
X101367676Y-126261904D02*
X101462914Y-126214285D01*
X101462914Y-126214285D02*
X101653390Y-126166666D01*
X101653390Y-126166666D02*
X101796247Y-126166666D01*
X101796247Y-126166666D02*
X101986723Y-126214285D01*
X101986723Y-126214285D02*
X102081961Y-126261904D01*
X102081961Y-126261904D02*
X102177200Y-126357142D01*
X102177200Y-126357142D02*
X102224819Y-126499999D01*
X102224819Y-126499999D02*
X102224819Y-126738094D01*
X102224819Y-125214285D02*
X102224819Y-125785713D01*
X102224819Y-125499999D02*
X101224819Y-125499999D01*
X101224819Y-125499999D02*
X101367676Y-125595237D01*
X101367676Y-125595237D02*
X101462914Y-125690475D01*
X101462914Y-125690475D02*
X101510533Y-125785713D01*
X101854819Y-121181904D02*
X100854819Y-121181904D01*
X101854819Y-120610476D02*
X101283390Y-121039047D01*
X100854819Y-120610476D02*
X101426247Y-121181904D01*
X102424819Y-141218094D02*
X101424819Y-141218094D01*
X101424819Y-141218094D02*
X101424819Y-140979999D01*
X101424819Y-140979999D02*
X101472438Y-140837142D01*
X101472438Y-140837142D02*
X101567676Y-140741904D01*
X101567676Y-140741904D02*
X101662914Y-140694285D01*
X101662914Y-140694285D02*
X101853390Y-140646666D01*
X101853390Y-140646666D02*
X101996247Y-140646666D01*
X101996247Y-140646666D02*
X102186723Y-140694285D01*
X102186723Y-140694285D02*
X102281961Y-140741904D01*
X102281961Y-140741904D02*
X102377200Y-140837142D01*
X102377200Y-140837142D02*
X102424819Y-140979999D01*
X102424819Y-140979999D02*
X102424819Y-141218094D01*
X101520057Y-140265713D02*
X101472438Y-140218094D01*
X101472438Y-140218094D02*
X101424819Y-140122856D01*
X101424819Y-140122856D02*
X101424819Y-139884761D01*
X101424819Y-139884761D02*
X101472438Y-139789523D01*
X101472438Y-139789523D02*
X101520057Y-139741904D01*
X101520057Y-139741904D02*
X101615295Y-139694285D01*
X101615295Y-139694285D02*
X101710533Y-139694285D01*
X101710533Y-139694285D02*
X101853390Y-139741904D01*
X101853390Y-139741904D02*
X102424819Y-140313332D01*
X102424819Y-140313332D02*
X102424819Y-139694285D01*
X102054819Y-135661904D02*
X101054819Y-135661904D01*
X102054819Y-135090476D02*
X101483390Y-135519047D01*
X101054819Y-135090476D02*
X101626247Y-135661904D01*
X95314819Y-128833333D02*
X96029104Y-128833333D01*
X96029104Y-128833333D02*
X96171961Y-128880952D01*
X96171961Y-128880952D02*
X96267200Y-128976190D01*
X96267200Y-128976190D02*
X96314819Y-129119047D01*
X96314819Y-129119047D02*
X96314819Y-129214285D01*
X96314819Y-127833333D02*
X96314819Y-128404761D01*
X96314819Y-128119047D02*
X95314819Y-128119047D01*
X95314819Y-128119047D02*
X95457676Y-128214285D01*
X95457676Y-128214285D02*
X95552914Y-128309523D01*
X95552914Y-128309523D02*
X95600533Y-128404761D01*
X86284819Y-116266666D02*
X85808628Y-116599999D01*
X86284819Y-116838094D02*
X85284819Y-116838094D01*
X85284819Y-116838094D02*
X85284819Y-116457142D01*
X85284819Y-116457142D02*
X85332438Y-116361904D01*
X85332438Y-116361904D02*
X85380057Y-116314285D01*
X85380057Y-116314285D02*
X85475295Y-116266666D01*
X85475295Y-116266666D02*
X85618152Y-116266666D01*
X85618152Y-116266666D02*
X85713390Y-116314285D01*
X85713390Y-116314285D02*
X85761009Y-116361904D01*
X85761009Y-116361904D02*
X85808628Y-116457142D01*
X85808628Y-116457142D02*
X85808628Y-116838094D01*
X86284819Y-115314285D02*
X86284819Y-115885713D01*
X86284819Y-115599999D02*
X85284819Y-115599999D01*
X85284819Y-115599999D02*
X85427676Y-115695237D01*
X85427676Y-115695237D02*
X85522914Y-115790475D01*
X85522914Y-115790475D02*
X85570533Y-115885713D01*
X145994819Y-132933333D02*
X146709104Y-132933333D01*
X146709104Y-132933333D02*
X146851961Y-132980952D01*
X146851961Y-132980952D02*
X146947200Y-133076190D01*
X146947200Y-133076190D02*
X146994819Y-133219047D01*
X146994819Y-133219047D02*
X146994819Y-133314285D01*
X146090057Y-132504761D02*
X146042438Y-132457142D01*
X146042438Y-132457142D02*
X145994819Y-132361904D01*
X145994819Y-132361904D02*
X145994819Y-132123809D01*
X145994819Y-132123809D02*
X146042438Y-132028571D01*
X146042438Y-132028571D02*
X146090057Y-131980952D01*
X146090057Y-131980952D02*
X146185295Y-131933333D01*
X146185295Y-131933333D02*
X146280533Y-131933333D01*
X146280533Y-131933333D02*
X146423390Y-131980952D01*
X146423390Y-131980952D02*
X146994819Y-132552380D01*
X146994819Y-132552380D02*
X146994819Y-131933333D01*
X117833333Y-119659580D02*
X117785714Y-119707200D01*
X117785714Y-119707200D02*
X117642857Y-119754819D01*
X117642857Y-119754819D02*
X117547619Y-119754819D01*
X117547619Y-119754819D02*
X117404762Y-119707200D01*
X117404762Y-119707200D02*
X117309524Y-119611961D01*
X117309524Y-119611961D02*
X117261905Y-119516723D01*
X117261905Y-119516723D02*
X117214286Y-119326247D01*
X117214286Y-119326247D02*
X117214286Y-119183390D01*
X117214286Y-119183390D02*
X117261905Y-118992914D01*
X117261905Y-118992914D02*
X117309524Y-118897676D01*
X117309524Y-118897676D02*
X117404762Y-118802438D01*
X117404762Y-118802438D02*
X117547619Y-118754819D01*
X117547619Y-118754819D02*
X117642857Y-118754819D01*
X117642857Y-118754819D02*
X117785714Y-118802438D01*
X117785714Y-118802438D02*
X117833333Y-118850057D01*
X118214286Y-118850057D02*
X118261905Y-118802438D01*
X118261905Y-118802438D02*
X118357143Y-118754819D01*
X118357143Y-118754819D02*
X118595238Y-118754819D01*
X118595238Y-118754819D02*
X118690476Y-118802438D01*
X118690476Y-118802438D02*
X118738095Y-118850057D01*
X118738095Y-118850057D02*
X118785714Y-118945295D01*
X118785714Y-118945295D02*
X118785714Y-119040533D01*
X118785714Y-119040533D02*
X118738095Y-119183390D01*
X118738095Y-119183390D02*
X118166667Y-119754819D01*
X118166667Y-119754819D02*
X118785714Y-119754819D01*
X110524819Y-127318094D02*
X109524819Y-127318094D01*
X109524819Y-127318094D02*
X109524819Y-127079999D01*
X109524819Y-127079999D02*
X109572438Y-126937142D01*
X109572438Y-126937142D02*
X109667676Y-126841904D01*
X109667676Y-126841904D02*
X109762914Y-126794285D01*
X109762914Y-126794285D02*
X109953390Y-126746666D01*
X109953390Y-126746666D02*
X110096247Y-126746666D01*
X110096247Y-126746666D02*
X110286723Y-126794285D01*
X110286723Y-126794285D02*
X110381961Y-126841904D01*
X110381961Y-126841904D02*
X110477200Y-126937142D01*
X110477200Y-126937142D02*
X110524819Y-127079999D01*
X110524819Y-127079999D02*
X110524819Y-127318094D01*
X109524819Y-126413332D02*
X109524819Y-125794285D01*
X109524819Y-125794285D02*
X109905771Y-126127618D01*
X109905771Y-126127618D02*
X109905771Y-125984761D01*
X109905771Y-125984761D02*
X109953390Y-125889523D01*
X109953390Y-125889523D02*
X110001009Y-125841904D01*
X110001009Y-125841904D02*
X110096247Y-125794285D01*
X110096247Y-125794285D02*
X110334342Y-125794285D01*
X110334342Y-125794285D02*
X110429580Y-125841904D01*
X110429580Y-125841904D02*
X110477200Y-125889523D01*
X110477200Y-125889523D02*
X110524819Y-125984761D01*
X110524819Y-125984761D02*
X110524819Y-126270475D01*
X110524819Y-126270475D02*
X110477200Y-126365713D01*
X110477200Y-126365713D02*
X110429580Y-126413332D01*
X110154819Y-121761904D02*
X109154819Y-121761904D01*
X110154819Y-121190476D02*
X109583390Y-121619047D01*
X109154819Y-121190476D02*
X109726247Y-121761904D01*
X130753333Y-134384819D02*
X130420000Y-133908628D01*
X130181905Y-134384819D02*
X130181905Y-133384819D01*
X130181905Y-133384819D02*
X130562857Y-133384819D01*
X130562857Y-133384819D02*
X130658095Y-133432438D01*
X130658095Y-133432438D02*
X130705714Y-133480057D01*
X130705714Y-133480057D02*
X130753333Y-133575295D01*
X130753333Y-133575295D02*
X130753333Y-133718152D01*
X130753333Y-133718152D02*
X130705714Y-133813390D01*
X130705714Y-133813390D02*
X130658095Y-133861009D01*
X130658095Y-133861009D02*
X130562857Y-133908628D01*
X130562857Y-133908628D02*
X130181905Y-133908628D01*
X131134286Y-133480057D02*
X131181905Y-133432438D01*
X131181905Y-133432438D02*
X131277143Y-133384819D01*
X131277143Y-133384819D02*
X131515238Y-133384819D01*
X131515238Y-133384819D02*
X131610476Y-133432438D01*
X131610476Y-133432438D02*
X131658095Y-133480057D01*
X131658095Y-133480057D02*
X131705714Y-133575295D01*
X131705714Y-133575295D02*
X131705714Y-133670533D01*
X131705714Y-133670533D02*
X131658095Y-133813390D01*
X131658095Y-133813390D02*
X131086667Y-134384819D01*
X131086667Y-134384819D02*
X131705714Y-134384819D01*
X141931905Y-134694819D02*
X141931905Y-133694819D01*
X141931905Y-133694819D02*
X142170000Y-133694819D01*
X142170000Y-133694819D02*
X142312857Y-133742438D01*
X142312857Y-133742438D02*
X142408095Y-133837676D01*
X142408095Y-133837676D02*
X142455714Y-133932914D01*
X142455714Y-133932914D02*
X142503333Y-134123390D01*
X142503333Y-134123390D02*
X142503333Y-134266247D01*
X142503333Y-134266247D02*
X142455714Y-134456723D01*
X142455714Y-134456723D02*
X142408095Y-134551961D01*
X142408095Y-134551961D02*
X142312857Y-134647200D01*
X142312857Y-134647200D02*
X142170000Y-134694819D01*
X142170000Y-134694819D02*
X141931905Y-134694819D01*
X142836667Y-133694819D02*
X143503333Y-133694819D01*
X143503333Y-133694819D02*
X143074762Y-134694819D01*
X132111905Y-119384819D02*
X132111905Y-118384819D01*
X132111905Y-118384819D02*
X132350000Y-118384819D01*
X132350000Y-118384819D02*
X132492857Y-118432438D01*
X132492857Y-118432438D02*
X132588095Y-118527676D01*
X132588095Y-118527676D02*
X132635714Y-118622914D01*
X132635714Y-118622914D02*
X132683333Y-118813390D01*
X132683333Y-118813390D02*
X132683333Y-118956247D01*
X132683333Y-118956247D02*
X132635714Y-119146723D01*
X132635714Y-119146723D02*
X132588095Y-119241961D01*
X132588095Y-119241961D02*
X132492857Y-119337200D01*
X132492857Y-119337200D02*
X132350000Y-119384819D01*
X132350000Y-119384819D02*
X132111905Y-119384819D01*
X133588095Y-118384819D02*
X133111905Y-118384819D01*
X133111905Y-118384819D02*
X133064286Y-118861009D01*
X133064286Y-118861009D02*
X133111905Y-118813390D01*
X133111905Y-118813390D02*
X133207143Y-118765771D01*
X133207143Y-118765771D02*
X133445238Y-118765771D01*
X133445238Y-118765771D02*
X133540476Y-118813390D01*
X133540476Y-118813390D02*
X133588095Y-118861009D01*
X133588095Y-118861009D02*
X133635714Y-118956247D01*
X133635714Y-118956247D02*
X133635714Y-119194342D01*
X133635714Y-119194342D02*
X133588095Y-119289580D01*
X133588095Y-119289580D02*
X133540476Y-119337200D01*
X133540476Y-119337200D02*
X133445238Y-119384819D01*
X133445238Y-119384819D02*
X133207143Y-119384819D01*
X133207143Y-119384819D02*
X133111905Y-119337200D01*
X133111905Y-119337200D02*
X133064286Y-119289580D01*
X126238095Y-119954819D02*
X126238095Y-118954819D01*
X126809523Y-119954819D02*
X126380952Y-119383390D01*
X126809523Y-118954819D02*
X126238095Y-119526247D01*
X118730682Y-131809580D02*
X118683063Y-131857200D01*
X118683063Y-131857200D02*
X118540206Y-131904819D01*
X118540206Y-131904819D02*
X118444968Y-131904819D01*
X118444968Y-131904819D02*
X118302111Y-131857200D01*
X118302111Y-131857200D02*
X118206873Y-131761961D01*
X118206873Y-131761961D02*
X118159254Y-131666723D01*
X118159254Y-131666723D02*
X118111635Y-131476247D01*
X118111635Y-131476247D02*
X118111635Y-131333390D01*
X118111635Y-131333390D02*
X118159254Y-131142914D01*
X118159254Y-131142914D02*
X118206873Y-131047676D01*
X118206873Y-131047676D02*
X118302111Y-130952438D01*
X118302111Y-130952438D02*
X118444968Y-130904819D01*
X118444968Y-130904819D02*
X118540206Y-130904819D01*
X118540206Y-130904819D02*
X118683063Y-130952438D01*
X118683063Y-130952438D02*
X118730682Y-131000057D01*
X119064016Y-130904819D02*
X119683063Y-130904819D01*
X119683063Y-130904819D02*
X119349730Y-131285771D01*
X119349730Y-131285771D02*
X119492587Y-131285771D01*
X119492587Y-131285771D02*
X119587825Y-131333390D01*
X119587825Y-131333390D02*
X119635444Y-131381009D01*
X119635444Y-131381009D02*
X119683063Y-131476247D01*
X119683063Y-131476247D02*
X119683063Y-131714342D01*
X119683063Y-131714342D02*
X119635444Y-131809580D01*
X119635444Y-131809580D02*
X119587825Y-131857200D01*
X119587825Y-131857200D02*
X119492587Y-131904819D01*
X119492587Y-131904819D02*
X119206873Y-131904819D01*
X119206873Y-131904819D02*
X119111635Y-131857200D01*
X119111635Y-131857200D02*
X119064016Y-131809580D01*
X102533333Y-110209580D02*
X102485714Y-110257200D01*
X102485714Y-110257200D02*
X102342857Y-110304819D01*
X102342857Y-110304819D02*
X102247619Y-110304819D01*
X102247619Y-110304819D02*
X102104762Y-110257200D01*
X102104762Y-110257200D02*
X102009524Y-110161961D01*
X102009524Y-110161961D02*
X101961905Y-110066723D01*
X101961905Y-110066723D02*
X101914286Y-109876247D01*
X101914286Y-109876247D02*
X101914286Y-109733390D01*
X101914286Y-109733390D02*
X101961905Y-109542914D01*
X101961905Y-109542914D02*
X102009524Y-109447676D01*
X102009524Y-109447676D02*
X102104762Y-109352438D01*
X102104762Y-109352438D02*
X102247619Y-109304819D01*
X102247619Y-109304819D02*
X102342857Y-109304819D01*
X102342857Y-109304819D02*
X102485714Y-109352438D01*
X102485714Y-109352438D02*
X102533333Y-109400057D01*
X103485714Y-110304819D02*
X102914286Y-110304819D01*
X103200000Y-110304819D02*
X103200000Y-109304819D01*
X103200000Y-109304819D02*
X103104762Y-109447676D01*
X103104762Y-109447676D02*
X103009524Y-109542914D01*
X103009524Y-109542914D02*
X102914286Y-109590533D01*
X131513333Y-139484819D02*
X131180000Y-139008628D01*
X130941905Y-139484819D02*
X130941905Y-138484819D01*
X130941905Y-138484819D02*
X131322857Y-138484819D01*
X131322857Y-138484819D02*
X131418095Y-138532438D01*
X131418095Y-138532438D02*
X131465714Y-138580057D01*
X131465714Y-138580057D02*
X131513333Y-138675295D01*
X131513333Y-138675295D02*
X131513333Y-138818152D01*
X131513333Y-138818152D02*
X131465714Y-138913390D01*
X131465714Y-138913390D02*
X131418095Y-138961009D01*
X131418095Y-138961009D02*
X131322857Y-139008628D01*
X131322857Y-139008628D02*
X130941905Y-139008628D01*
X131846667Y-138484819D02*
X132465714Y-138484819D01*
X132465714Y-138484819D02*
X132132381Y-138865771D01*
X132132381Y-138865771D02*
X132275238Y-138865771D01*
X132275238Y-138865771D02*
X132370476Y-138913390D01*
X132370476Y-138913390D02*
X132418095Y-138961009D01*
X132418095Y-138961009D02*
X132465714Y-139056247D01*
X132465714Y-139056247D02*
X132465714Y-139294342D01*
X132465714Y-139294342D02*
X132418095Y-139389580D01*
X132418095Y-139389580D02*
X132370476Y-139437200D01*
X132370476Y-139437200D02*
X132275238Y-139484819D01*
X132275238Y-139484819D02*
X131989524Y-139484819D01*
X131989524Y-139484819D02*
X131894286Y-139437200D01*
X131894286Y-139437200D02*
X131846667Y-139389580D01*
X135113333Y-112684819D02*
X134780000Y-112208628D01*
X134541905Y-112684819D02*
X134541905Y-111684819D01*
X134541905Y-111684819D02*
X134922857Y-111684819D01*
X134922857Y-111684819D02*
X135018095Y-111732438D01*
X135018095Y-111732438D02*
X135065714Y-111780057D01*
X135065714Y-111780057D02*
X135113333Y-111875295D01*
X135113333Y-111875295D02*
X135113333Y-112018152D01*
X135113333Y-112018152D02*
X135065714Y-112113390D01*
X135065714Y-112113390D02*
X135018095Y-112161009D01*
X135018095Y-112161009D02*
X134922857Y-112208628D01*
X134922857Y-112208628D02*
X134541905Y-112208628D01*
X135970476Y-112018152D02*
X135970476Y-112684819D01*
X135732381Y-111637200D02*
X135494286Y-112351485D01*
X135494286Y-112351485D02*
X136113333Y-112351485D01*
X146430682Y-115009580D02*
X146383063Y-115057200D01*
X146383063Y-115057200D02*
X146240206Y-115104819D01*
X146240206Y-115104819D02*
X146144968Y-115104819D01*
X146144968Y-115104819D02*
X146002111Y-115057200D01*
X146002111Y-115057200D02*
X145906873Y-114961961D01*
X145906873Y-114961961D02*
X145859254Y-114866723D01*
X145859254Y-114866723D02*
X145811635Y-114676247D01*
X145811635Y-114676247D02*
X145811635Y-114533390D01*
X145811635Y-114533390D02*
X145859254Y-114342914D01*
X145859254Y-114342914D02*
X145906873Y-114247676D01*
X145906873Y-114247676D02*
X146002111Y-114152438D01*
X146002111Y-114152438D02*
X146144968Y-114104819D01*
X146144968Y-114104819D02*
X146240206Y-114104819D01*
X146240206Y-114104819D02*
X146383063Y-114152438D01*
X146383063Y-114152438D02*
X146430682Y-114200057D01*
X147287825Y-114438152D02*
X147287825Y-115104819D01*
X147049730Y-114057200D02*
X146811635Y-114771485D01*
X146811635Y-114771485D02*
X147430682Y-114771485D01*
X121378095Y-116424819D02*
X121378095Y-117234342D01*
X121378095Y-117234342D02*
X121425714Y-117329580D01*
X121425714Y-117329580D02*
X121473333Y-117377200D01*
X121473333Y-117377200D02*
X121568571Y-117424819D01*
X121568571Y-117424819D02*
X121759047Y-117424819D01*
X121759047Y-117424819D02*
X121854285Y-117377200D01*
X121854285Y-117377200D02*
X121901904Y-117329580D01*
X121901904Y-117329580D02*
X121949523Y-117234342D01*
X121949523Y-117234342D02*
X121949523Y-116424819D01*
X122949523Y-117424819D02*
X122378095Y-117424819D01*
X122663809Y-117424819D02*
X122663809Y-116424819D01*
X122663809Y-116424819D02*
X122568571Y-116567676D01*
X122568571Y-116567676D02*
X122473333Y-116662914D01*
X122473333Y-116662914D02*
X122378095Y-116710533D01*
X110724819Y-141318094D02*
X109724819Y-141318094D01*
X109724819Y-141318094D02*
X109724819Y-141079999D01*
X109724819Y-141079999D02*
X109772438Y-140937142D01*
X109772438Y-140937142D02*
X109867676Y-140841904D01*
X109867676Y-140841904D02*
X109962914Y-140794285D01*
X109962914Y-140794285D02*
X110153390Y-140746666D01*
X110153390Y-140746666D02*
X110296247Y-140746666D01*
X110296247Y-140746666D02*
X110486723Y-140794285D01*
X110486723Y-140794285D02*
X110581961Y-140841904D01*
X110581961Y-140841904D02*
X110677200Y-140937142D01*
X110677200Y-140937142D02*
X110724819Y-141079999D01*
X110724819Y-141079999D02*
X110724819Y-141318094D01*
X110058152Y-139889523D02*
X110724819Y-139889523D01*
X109677200Y-140127618D02*
X110391485Y-140365713D01*
X110391485Y-140365713D02*
X110391485Y-139746666D01*
X110354819Y-135761904D02*
X109354819Y-135761904D01*
X110354819Y-135190476D02*
X109783390Y-135619047D01*
X109354819Y-135190476D02*
X109926247Y-135761904D01*
X133061905Y-126784819D02*
X133061905Y-125784819D01*
X133061905Y-125784819D02*
X133300000Y-125784819D01*
X133300000Y-125784819D02*
X133442857Y-125832438D01*
X133442857Y-125832438D02*
X133538095Y-125927676D01*
X133538095Y-125927676D02*
X133585714Y-126022914D01*
X133585714Y-126022914D02*
X133633333Y-126213390D01*
X133633333Y-126213390D02*
X133633333Y-126356247D01*
X133633333Y-126356247D02*
X133585714Y-126546723D01*
X133585714Y-126546723D02*
X133538095Y-126641961D01*
X133538095Y-126641961D02*
X133442857Y-126737200D01*
X133442857Y-126737200D02*
X133300000Y-126784819D01*
X133300000Y-126784819D02*
X133061905Y-126784819D01*
X134490476Y-125784819D02*
X134300000Y-125784819D01*
X134300000Y-125784819D02*
X134204762Y-125832438D01*
X134204762Y-125832438D02*
X134157143Y-125880057D01*
X134157143Y-125880057D02*
X134061905Y-126022914D01*
X134061905Y-126022914D02*
X134014286Y-126213390D01*
X134014286Y-126213390D02*
X134014286Y-126594342D01*
X134014286Y-126594342D02*
X134061905Y-126689580D01*
X134061905Y-126689580D02*
X134109524Y-126737200D01*
X134109524Y-126737200D02*
X134204762Y-126784819D01*
X134204762Y-126784819D02*
X134395238Y-126784819D01*
X134395238Y-126784819D02*
X134490476Y-126737200D01*
X134490476Y-126737200D02*
X134538095Y-126689580D01*
X134538095Y-126689580D02*
X134585714Y-126594342D01*
X134585714Y-126594342D02*
X134585714Y-126356247D01*
X134585714Y-126356247D02*
X134538095Y-126261009D01*
X134538095Y-126261009D02*
X134490476Y-126213390D01*
X134490476Y-126213390D02*
X134395238Y-126165771D01*
X134395238Y-126165771D02*
X134204762Y-126165771D01*
X134204762Y-126165771D02*
X134109524Y-126213390D01*
X134109524Y-126213390D02*
X134061905Y-126261009D01*
X134061905Y-126261009D02*
X134014286Y-126356247D01*
X127188095Y-127354819D02*
X127188095Y-126354819D01*
X127759523Y-127354819D02*
X127330952Y-126783390D01*
X127759523Y-126354819D02*
X127188095Y-126926247D01*
D12*
%TO.C,D1*%
X97830000Y-123280000D02*
X97830000Y-128720000D01*
X97830000Y-128720000D02*
X100770000Y-128720000D01*
X99300000Y-122260000D02*
X99300000Y-123280000D01*
X99300000Y-129740000D02*
X99300000Y-128720000D01*
X100770000Y-123280000D02*
X97830000Y-123280000D01*
X100770000Y-124060000D02*
X97830000Y-124060000D01*
X100770000Y-124180000D02*
X97830000Y-124180000D01*
X100770000Y-124300000D02*
X97830000Y-124300000D01*
X100770000Y-128720000D02*
X100770000Y-123280000D01*
%TO.C,D2*%
X98030000Y-137760000D02*
X98030000Y-143200000D01*
X98030000Y-143200000D02*
X100970000Y-143200000D01*
X99500000Y-136740000D02*
X99500000Y-137760000D01*
X99500000Y-144220000D02*
X99500000Y-143200000D01*
X100970000Y-137760000D02*
X98030000Y-137760000D01*
X100970000Y-138540000D02*
X98030000Y-138540000D01*
X100970000Y-138660000D02*
X98030000Y-138660000D01*
X100970000Y-138780000D02*
X98030000Y-138780000D01*
X100970000Y-143200000D02*
X100970000Y-137760000D01*
%TO.C,J1*%
X84700000Y-123200000D02*
X84700000Y-123700000D01*
X84940000Y-123440000D02*
X84940000Y-133560000D01*
X85440000Y-123200000D02*
X84700000Y-123200000D01*
X85500000Y-123440000D02*
X85500000Y-133560000D01*
X87000000Y-123440000D02*
X87000000Y-133560000D01*
X88361000Y-129966000D02*
X88326000Y-129931000D01*
X88577000Y-129773000D02*
X88531000Y-129726000D01*
X90669000Y-132275000D02*
X90623000Y-132228000D01*
X90875000Y-132070000D02*
X90839000Y-132035000D01*
X91901000Y-123440000D02*
X91901000Y-133560000D01*
X94861000Y-123440000D02*
X84940000Y-123440000D01*
X94861000Y-123440000D02*
X94861000Y-133560000D01*
X94861000Y-133560000D02*
X84940000Y-133560000D01*
X87919747Y-126028805D02*
G75*
G02*
X88065000Y-125316000I1680254J28806D01*
G01*
X88065244Y-126683318D02*
G75*
G02*
X87920000Y-126000000I1534756J683318D01*
G01*
X88916958Y-124464573D02*
G75*
G02*
X90284000Y-124465000I683041J-1535420D01*
G01*
X90283042Y-127535427D02*
G75*
G02*
X88916000Y-127535000I-683042J1535427D01*
G01*
X91135427Y-125316958D02*
G75*
G02*
X91135000Y-126684000I-1535420J-683041D01*
G01*
X91280000Y-131000000D02*
G75*
G02*
X87920000Y-131000000I-1680000J0D01*
G01*
X87920000Y-131000000D02*
G75*
G02*
X91280000Y-131000000I1680000J0D01*
G01*
%TO.C,R1*%
X86830000Y-112830000D02*
X86830000Y-119370000D01*
X86830000Y-119370000D02*
X89570000Y-119370000D01*
X88200000Y-112060000D02*
X88200000Y-112830000D01*
X88200000Y-120140000D02*
X88200000Y-119370000D01*
X89570000Y-112830000D02*
X86830000Y-112830000D01*
X89570000Y-119370000D02*
X89570000Y-112830000D01*
%TO.C,J2*%
X147539000Y-127540000D02*
X157460000Y-127540000D01*
X147539000Y-137660000D02*
X147539000Y-127540000D01*
X147539000Y-137660000D02*
X157460000Y-137660000D01*
X150499000Y-137660000D02*
X150499000Y-127540000D01*
X151525000Y-129030000D02*
X151561000Y-129065000D01*
X151731000Y-128825000D02*
X151777000Y-128872000D01*
X153823000Y-131327000D02*
X153869000Y-131374000D01*
X154039000Y-131134000D02*
X154074000Y-131169000D01*
X155400000Y-137660000D02*
X155400000Y-127540000D01*
X156900000Y-137660000D02*
X156900000Y-127540000D01*
X156960000Y-137900000D02*
X157700000Y-137900000D01*
X157460000Y-137660000D02*
X157460000Y-127540000D01*
X157700000Y-137900000D02*
X157700000Y-137400000D01*
X151264573Y-135783042D02*
G75*
G02*
X151265000Y-134416000I1535420J683041D01*
G01*
X152116958Y-133564573D02*
G75*
G02*
X153484000Y-133565000I683042J-1535427D01*
G01*
X153483042Y-136635427D02*
G75*
G02*
X152116000Y-136635000I-683041J1535420D01*
G01*
X154334756Y-134416682D02*
G75*
G02*
X154480000Y-135100000I-1534756J-683318D01*
G01*
X154480253Y-135071195D02*
G75*
G02*
X154335000Y-135784000I-1680254J-28806D01*
G01*
X154480000Y-130100000D02*
G75*
G02*
X151120000Y-130100000I-1680000J0D01*
G01*
X151120000Y-130100000D02*
G75*
G02*
X154480000Y-130100000I1680000J0D01*
G01*
%TO.C,C2*%
X113380000Y-120430000D02*
X113380000Y-123170000D01*
X113380000Y-120430000D02*
X122620000Y-120430000D01*
X113380000Y-123170000D02*
X122620000Y-123170000D01*
X122620000Y-120430000D02*
X122620000Y-123170000D01*
%TO.C,D3*%
X106130000Y-123860000D02*
X106130000Y-129300000D01*
X106130000Y-129300000D02*
X109070000Y-129300000D01*
X107600000Y-122840000D02*
X107600000Y-123860000D01*
X107600000Y-130320000D02*
X107600000Y-129300000D01*
X109070000Y-123860000D02*
X106130000Y-123860000D01*
X109070000Y-124640000D02*
X106130000Y-124640000D01*
X109070000Y-124760000D02*
X106130000Y-124760000D01*
X109070000Y-124880000D02*
X106130000Y-124880000D01*
X109070000Y-129300000D02*
X109070000Y-123860000D01*
%TO.C,R2*%
X126880000Y-136300000D02*
X127650000Y-136300000D01*
X127650000Y-134930000D02*
X127650000Y-137670000D01*
X127650000Y-137670000D02*
X134190000Y-137670000D01*
X134190000Y-134930000D02*
X127650000Y-134930000D01*
X134190000Y-137670000D02*
X134190000Y-134930000D01*
X134960000Y-136300000D02*
X134190000Y-136300000D01*
%TO.C,D7*%
X140110000Y-136655000D02*
X140110000Y-139745000D01*
X140110000Y-136655170D02*
G75*
G02*
X145660000Y-138199952I2560000J-1544830D01*
G01*
X145660000Y-138200048D02*
G75*
G02*
X140110000Y-139744830I-2990000J48D01*
G01*
X145170000Y-138200000D02*
G75*
G02*
X140170000Y-138200000I-2500000J0D01*
G01*
X140170000Y-138200000D02*
G75*
G02*
X145170000Y-138200000I2500000J0D01*
G01*
%TO.C,D5*%
X128140000Y-121900000D02*
X128280000Y-121900000D01*
X128280000Y-119930000D02*
X128280000Y-123870000D01*
X128280000Y-123870000D02*
X137420000Y-123870000D01*
X129615000Y-119930000D02*
X129615000Y-123870000D01*
X129735000Y-119930000D02*
X129735000Y-123870000D01*
X129855000Y-119930000D02*
X129855000Y-123870000D01*
X137420000Y-119930000D02*
X128280000Y-119930000D01*
X137420000Y-123870000D02*
X137420000Y-119930000D01*
X137560000Y-121900000D02*
X137420000Y-121900000D01*
%TO.C,C3*%
X114487651Y-134385000D02*
X115287651Y-134385000D01*
X114887651Y-133985000D02*
X114887651Y-134785000D01*
X118897349Y-132620000D02*
X118897349Y-140780000D01*
X118937349Y-132620000D02*
X118937349Y-140780000D01*
X118977349Y-132620000D02*
X118977349Y-140780000D01*
X119017349Y-132621000D02*
X119017349Y-140779000D01*
X119057349Y-132623000D02*
X119057349Y-140777000D01*
X119097349Y-132624000D02*
X119097349Y-140776000D01*
X119137349Y-132626000D02*
X119137349Y-135660000D01*
X119137349Y-137740000D02*
X119137349Y-140774000D01*
X119177349Y-132629000D02*
X119177349Y-135660000D01*
X119177349Y-137740000D02*
X119177349Y-140771000D01*
X119217349Y-132632000D02*
X119217349Y-135660000D01*
X119217349Y-137740000D02*
X119217349Y-140768000D01*
X119257349Y-132635000D02*
X119257349Y-135660000D01*
X119257349Y-137740000D02*
X119257349Y-140765000D01*
X119297349Y-132639000D02*
X119297349Y-135660000D01*
X119297349Y-137740000D02*
X119297349Y-140761000D01*
X119337349Y-132643000D02*
X119337349Y-135660000D01*
X119337349Y-137740000D02*
X119337349Y-140757000D01*
X119377349Y-132648000D02*
X119377349Y-135660000D01*
X119377349Y-137740000D02*
X119377349Y-140752000D01*
X119417349Y-132652000D02*
X119417349Y-135660000D01*
X119417349Y-137740000D02*
X119417349Y-140748000D01*
X119457349Y-132658000D02*
X119457349Y-135660000D01*
X119457349Y-137740000D02*
X119457349Y-140742000D01*
X119497349Y-132663000D02*
X119497349Y-135660000D01*
X119497349Y-137740000D02*
X119497349Y-140737000D01*
X119537349Y-132670000D02*
X119537349Y-135660000D01*
X119537349Y-137740000D02*
X119537349Y-140730000D01*
X119577349Y-132676000D02*
X119577349Y-135660000D01*
X119577349Y-137740000D02*
X119577349Y-140724000D01*
X119618349Y-132683000D02*
X119618349Y-135660000D01*
X119618349Y-137740000D02*
X119618349Y-140717000D01*
X119658349Y-132690000D02*
X119658349Y-135660000D01*
X119658349Y-137740000D02*
X119658349Y-140710000D01*
X119698349Y-132698000D02*
X119698349Y-135660000D01*
X119698349Y-137740000D02*
X119698349Y-140702000D01*
X119738349Y-132706000D02*
X119738349Y-135660000D01*
X119738349Y-137740000D02*
X119738349Y-140694000D01*
X119778349Y-132715000D02*
X119778349Y-135660000D01*
X119778349Y-137740000D02*
X119778349Y-140685000D01*
X119818349Y-132724000D02*
X119818349Y-135660000D01*
X119818349Y-137740000D02*
X119818349Y-140676000D01*
X119858349Y-132733000D02*
X119858349Y-135660000D01*
X119858349Y-137740000D02*
X119858349Y-140667000D01*
X119898349Y-132743000D02*
X119898349Y-135660000D01*
X119898349Y-137740000D02*
X119898349Y-140657000D01*
X119938349Y-132753000D02*
X119938349Y-135660000D01*
X119938349Y-137740000D02*
X119938349Y-140647000D01*
X119978349Y-132764000D02*
X119978349Y-135660000D01*
X119978349Y-137740000D02*
X119978349Y-140636000D01*
X120018349Y-132775000D02*
X120018349Y-135660000D01*
X120018349Y-137740000D02*
X120018349Y-140625000D01*
X120058349Y-132786000D02*
X120058349Y-135660000D01*
X120058349Y-137740000D02*
X120058349Y-140614000D01*
X120098349Y-132798000D02*
X120098349Y-135660000D01*
X120098349Y-137740000D02*
X120098349Y-140602000D01*
X120138349Y-132811000D02*
X120138349Y-135660000D01*
X120138349Y-137740000D02*
X120138349Y-140589000D01*
X120178349Y-132823000D02*
X120178349Y-135660000D01*
X120178349Y-137740000D02*
X120178349Y-140577000D01*
X120218349Y-132837000D02*
X120218349Y-135660000D01*
X120218349Y-137740000D02*
X120218349Y-140563000D01*
X120258349Y-132850000D02*
X120258349Y-135660000D01*
X120258349Y-137740000D02*
X120258349Y-140550000D01*
X120298349Y-132865000D02*
X120298349Y-135660000D01*
X120298349Y-137740000D02*
X120298349Y-140535000D01*
X120338349Y-132879000D02*
X120338349Y-135660000D01*
X120338349Y-137740000D02*
X120338349Y-140521000D01*
X120378349Y-132895000D02*
X120378349Y-135660000D01*
X120378349Y-137740000D02*
X120378349Y-140505000D01*
X120418349Y-132910000D02*
X120418349Y-135660000D01*
X120418349Y-137740000D02*
X120418349Y-140490000D01*
X120458349Y-132926000D02*
X120458349Y-135660000D01*
X120458349Y-137740000D02*
X120458349Y-140474000D01*
X120498349Y-132943000D02*
X120498349Y-135660000D01*
X120498349Y-137740000D02*
X120498349Y-140457000D01*
X120538349Y-132960000D02*
X120538349Y-135660000D01*
X120538349Y-137740000D02*
X120538349Y-140440000D01*
X120578349Y-132978000D02*
X120578349Y-135660000D01*
X120578349Y-137740000D02*
X120578349Y-140422000D01*
X120618349Y-132996000D02*
X120618349Y-135660000D01*
X120618349Y-137740000D02*
X120618349Y-140404000D01*
X120658349Y-133014000D02*
X120658349Y-135660000D01*
X120658349Y-137740000D02*
X120658349Y-140386000D01*
X120698349Y-133034000D02*
X120698349Y-135660000D01*
X120698349Y-137740000D02*
X120698349Y-140366000D01*
X120738349Y-133053000D02*
X120738349Y-135660000D01*
X120738349Y-137740000D02*
X120738349Y-140347000D01*
X120778349Y-133073000D02*
X120778349Y-135660000D01*
X120778349Y-137740000D02*
X120778349Y-140327000D01*
X120818349Y-133094000D02*
X120818349Y-135660000D01*
X120818349Y-137740000D02*
X120818349Y-140306000D01*
X120858349Y-133116000D02*
X120858349Y-135660000D01*
X120858349Y-137740000D02*
X120858349Y-140284000D01*
X120898349Y-133138000D02*
X120898349Y-135660000D01*
X120898349Y-137740000D02*
X120898349Y-140262000D01*
X120938349Y-133160000D02*
X120938349Y-135660000D01*
X120938349Y-137740000D02*
X120938349Y-140240000D01*
X120978349Y-133183000D02*
X120978349Y-135660000D01*
X120978349Y-137740000D02*
X120978349Y-140217000D01*
X121018349Y-133207000D02*
X121018349Y-135660000D01*
X121018349Y-137740000D02*
X121018349Y-140193000D01*
X121058349Y-133231000D02*
X121058349Y-135660000D01*
X121058349Y-137740000D02*
X121058349Y-140169000D01*
X121098349Y-133256000D02*
X121098349Y-135660000D01*
X121098349Y-137740000D02*
X121098349Y-140144000D01*
X121138349Y-133282000D02*
X121138349Y-135660000D01*
X121138349Y-137740000D02*
X121138349Y-140118000D01*
X121178349Y-133308000D02*
X121178349Y-135660000D01*
X121178349Y-137740000D02*
X121178349Y-140092000D01*
X121218349Y-133335000D02*
X121218349Y-140065000D01*
X121258349Y-133362000D02*
X121258349Y-140038000D01*
X121298349Y-133391000D02*
X121298349Y-140009000D01*
X121338349Y-133420000D02*
X121338349Y-139980000D01*
X121378349Y-133450000D02*
X121378349Y-139950000D01*
X121418349Y-133480000D02*
X121418349Y-139920000D01*
X121458349Y-133511000D02*
X121458349Y-139889000D01*
X121498349Y-133544000D02*
X121498349Y-139856000D01*
X121538349Y-133576000D02*
X121538349Y-139824000D01*
X121578349Y-133610000D02*
X121578349Y-139790000D01*
X121618349Y-133645000D02*
X121618349Y-139755000D01*
X121658349Y-133681000D02*
X121658349Y-139719000D01*
X121698349Y-133717000D02*
X121698349Y-139683000D01*
X121738349Y-133755000D02*
X121738349Y-139645000D01*
X121778349Y-133793000D02*
X121778349Y-139607000D01*
X121818349Y-133833000D02*
X121818349Y-139567000D01*
X121858349Y-133874000D02*
X121858349Y-139526000D01*
X121898349Y-133916000D02*
X121898349Y-139484000D01*
X121938349Y-133959000D02*
X121938349Y-139441000D01*
X121978349Y-134003000D02*
X121978349Y-139397000D01*
X122018349Y-134049000D02*
X122018349Y-139351000D01*
X122058349Y-134096000D02*
X122058349Y-139304000D01*
X122098349Y-134144000D02*
X122098349Y-139256000D01*
X122138349Y-134195000D02*
X122138349Y-139205000D01*
X122178349Y-134246000D02*
X122178349Y-139154000D01*
X122218349Y-134300000D02*
X122218349Y-139100000D01*
X122258349Y-134355000D02*
X122258349Y-139045000D01*
X122298349Y-134413000D02*
X122298349Y-138987000D01*
X122338349Y-134472000D02*
X122338349Y-138928000D01*
X122378349Y-134534000D02*
X122378349Y-138866000D01*
X122418349Y-134598000D02*
X122418349Y-138802000D01*
X122458349Y-134666000D02*
X122458349Y-138734000D01*
X122498349Y-134736000D02*
X122498349Y-138664000D01*
X122538349Y-134810000D02*
X122538349Y-138590000D01*
X122578349Y-134887000D02*
X122578349Y-138513000D01*
X122618349Y-134969000D02*
X122618349Y-138431000D01*
X122658349Y-135055000D02*
X122658349Y-138345000D01*
X122698349Y-135148000D02*
X122698349Y-138252000D01*
X122738349Y-135247000D02*
X122738349Y-138153000D01*
X122778349Y-135354000D02*
X122778349Y-138046000D01*
X122818349Y-135471000D02*
X122818349Y-137929000D01*
X122858349Y-135602000D02*
X122858349Y-137798000D01*
X122898349Y-135752000D02*
X122898349Y-137648000D01*
X122938349Y-135932000D02*
X122938349Y-137468000D01*
X122978349Y-136167000D02*
X122978349Y-137233000D01*
X123017349Y-136700000D02*
G75*
G02*
X114777349Y-136700000I-4120000J0D01*
G01*
X114777349Y-136700000D02*
G75*
G02*
X123017349Y-136700000I4120000J0D01*
G01*
%TO.C,C1*%
X93580000Y-110980000D02*
X93580000Y-117220000D01*
X93580000Y-110980000D02*
X111820000Y-110980000D01*
X93580000Y-117220000D02*
X111820000Y-117220000D01*
X111820000Y-110980000D02*
X111820000Y-117220000D01*
%TO.C,R3*%
X127640000Y-141400000D02*
X128410000Y-141400000D01*
X128410000Y-140030000D02*
X128410000Y-142770000D01*
X128410000Y-142770000D02*
X134950000Y-142770000D01*
X134950000Y-140030000D02*
X128410000Y-140030000D01*
X134950000Y-142770000D02*
X134950000Y-140030000D01*
X135720000Y-141400000D02*
X134950000Y-141400000D01*
%TO.C,R4*%
X131240000Y-114600000D02*
X132010000Y-114600000D01*
X132010000Y-113230000D02*
X132010000Y-115970000D01*
X132010000Y-115970000D02*
X138550000Y-115970000D01*
X138550000Y-113230000D02*
X132010000Y-113230000D01*
X138550000Y-115970000D02*
X138550000Y-113230000D01*
X139320000Y-114600000D02*
X138550000Y-114600000D01*
%TO.C,C4*%
X142187651Y-117585000D02*
X142987651Y-117585000D01*
X142587651Y-117185000D02*
X142587651Y-117985000D01*
X146597349Y-115820000D02*
X146597349Y-123980000D01*
X146637349Y-115820000D02*
X146637349Y-123980000D01*
X146677349Y-115820000D02*
X146677349Y-123980000D01*
X146717349Y-115821000D02*
X146717349Y-123979000D01*
X146757349Y-115823000D02*
X146757349Y-123977000D01*
X146797349Y-115824000D02*
X146797349Y-123976000D01*
X146837349Y-115826000D02*
X146837349Y-123974000D01*
X146877349Y-115829000D02*
X146877349Y-123971000D01*
X146917349Y-115832000D02*
X146917349Y-123968000D01*
X146957349Y-115835000D02*
X146957349Y-123965000D01*
X146997349Y-115839000D02*
X146997349Y-123961000D01*
X147037349Y-115843000D02*
X147037349Y-123957000D01*
X147077349Y-115848000D02*
X147077349Y-123952000D01*
X147117349Y-115852000D02*
X147117349Y-123948000D01*
X147157349Y-115858000D02*
X147157349Y-123942000D01*
X147197349Y-115863000D02*
X147197349Y-123937000D01*
X147237349Y-115870000D02*
X147237349Y-123930000D01*
X147277349Y-115876000D02*
X147277349Y-123924000D01*
X147318349Y-115883000D02*
X147318349Y-118860000D01*
X147318349Y-120940000D02*
X147318349Y-123917000D01*
X147358349Y-115890000D02*
X147358349Y-118860000D01*
X147358349Y-120940000D02*
X147358349Y-123910000D01*
X147398349Y-115898000D02*
X147398349Y-118860000D01*
X147398349Y-120940000D02*
X147398349Y-123902000D01*
X147438349Y-115906000D02*
X147438349Y-118860000D01*
X147438349Y-120940000D02*
X147438349Y-123894000D01*
X147478349Y-115915000D02*
X147478349Y-118860000D01*
X147478349Y-120940000D02*
X147478349Y-123885000D01*
X147518349Y-115924000D02*
X147518349Y-118860000D01*
X147518349Y-120940000D02*
X147518349Y-123876000D01*
X147558349Y-115933000D02*
X147558349Y-118860000D01*
X147558349Y-120940000D02*
X147558349Y-123867000D01*
X147598349Y-115943000D02*
X147598349Y-118860000D01*
X147598349Y-120940000D02*
X147598349Y-123857000D01*
X147638349Y-115953000D02*
X147638349Y-118860000D01*
X147638349Y-120940000D02*
X147638349Y-123847000D01*
X147678349Y-115964000D02*
X147678349Y-118860000D01*
X147678349Y-120940000D02*
X147678349Y-123836000D01*
X147718349Y-115975000D02*
X147718349Y-118860000D01*
X147718349Y-120940000D02*
X147718349Y-123825000D01*
X147758349Y-115986000D02*
X147758349Y-118860000D01*
X147758349Y-120940000D02*
X147758349Y-123814000D01*
X147798349Y-115998000D02*
X147798349Y-118860000D01*
X147798349Y-120940000D02*
X147798349Y-123802000D01*
X147838349Y-116011000D02*
X147838349Y-118860000D01*
X147838349Y-120940000D02*
X147838349Y-123789000D01*
X147878349Y-116023000D02*
X147878349Y-118860000D01*
X147878349Y-120940000D02*
X147878349Y-123777000D01*
X147918349Y-116037000D02*
X147918349Y-118860000D01*
X147918349Y-120940000D02*
X147918349Y-123763000D01*
X147958349Y-116050000D02*
X147958349Y-118860000D01*
X147958349Y-120940000D02*
X147958349Y-123750000D01*
X147998349Y-116065000D02*
X147998349Y-118860000D01*
X147998349Y-120940000D02*
X147998349Y-123735000D01*
X148038349Y-116079000D02*
X148038349Y-118860000D01*
X148038349Y-120940000D02*
X148038349Y-123721000D01*
X148078349Y-116095000D02*
X148078349Y-118860000D01*
X148078349Y-120940000D02*
X148078349Y-123705000D01*
X148118349Y-116110000D02*
X148118349Y-118860000D01*
X148118349Y-120940000D02*
X148118349Y-123690000D01*
X148158349Y-116126000D02*
X148158349Y-118860000D01*
X148158349Y-120940000D02*
X148158349Y-123674000D01*
X148198349Y-116143000D02*
X148198349Y-118860000D01*
X148198349Y-120940000D02*
X148198349Y-123657000D01*
X148238349Y-116160000D02*
X148238349Y-118860000D01*
X148238349Y-120940000D02*
X148238349Y-123640000D01*
X148278349Y-116178000D02*
X148278349Y-118860000D01*
X148278349Y-120940000D02*
X148278349Y-123622000D01*
X148318349Y-116196000D02*
X148318349Y-118860000D01*
X148318349Y-120940000D02*
X148318349Y-123604000D01*
X148358349Y-116214000D02*
X148358349Y-118860000D01*
X148358349Y-120940000D02*
X148358349Y-123586000D01*
X148398349Y-116234000D02*
X148398349Y-118860000D01*
X148398349Y-120940000D02*
X148398349Y-123566000D01*
X148438349Y-116253000D02*
X148438349Y-118860000D01*
X148438349Y-120940000D02*
X148438349Y-123547000D01*
X148478349Y-116273000D02*
X148478349Y-118860000D01*
X148478349Y-120940000D02*
X148478349Y-123527000D01*
X148518349Y-116294000D02*
X148518349Y-118860000D01*
X148518349Y-120940000D02*
X148518349Y-123506000D01*
X148558349Y-116316000D02*
X148558349Y-118860000D01*
X148558349Y-120940000D02*
X148558349Y-123484000D01*
X148598349Y-116338000D02*
X148598349Y-118860000D01*
X148598349Y-120940000D02*
X148598349Y-123462000D01*
X148638349Y-116360000D02*
X148638349Y-118860000D01*
X148638349Y-120940000D02*
X148638349Y-123440000D01*
X148678349Y-116383000D02*
X148678349Y-118860000D01*
X148678349Y-120940000D02*
X148678349Y-123417000D01*
X148718349Y-116407000D02*
X148718349Y-118860000D01*
X148718349Y-120940000D02*
X148718349Y-123393000D01*
X148758349Y-116431000D02*
X148758349Y-118860000D01*
X148758349Y-120940000D02*
X148758349Y-123369000D01*
X148798349Y-116456000D02*
X148798349Y-118860000D01*
X148798349Y-120940000D02*
X148798349Y-123344000D01*
X148838349Y-116482000D02*
X148838349Y-118860000D01*
X148838349Y-120940000D02*
X148838349Y-123318000D01*
X148878349Y-116508000D02*
X148878349Y-118860000D01*
X148878349Y-120940000D02*
X148878349Y-123292000D01*
X148918349Y-116535000D02*
X148918349Y-118860000D01*
X148918349Y-120940000D02*
X148918349Y-123265000D01*
X148958349Y-116562000D02*
X148958349Y-118860000D01*
X148958349Y-120940000D02*
X148958349Y-123238000D01*
X148998349Y-116591000D02*
X148998349Y-118860000D01*
X148998349Y-120940000D02*
X148998349Y-123209000D01*
X149038349Y-116620000D02*
X149038349Y-118860000D01*
X149038349Y-120940000D02*
X149038349Y-123180000D01*
X149078349Y-116650000D02*
X149078349Y-118860000D01*
X149078349Y-120940000D02*
X149078349Y-123150000D01*
X149118349Y-116680000D02*
X149118349Y-118860000D01*
X149118349Y-120940000D02*
X149118349Y-123120000D01*
X149158349Y-116711000D02*
X149158349Y-118860000D01*
X149158349Y-120940000D02*
X149158349Y-123089000D01*
X149198349Y-116744000D02*
X149198349Y-118860000D01*
X149198349Y-120940000D02*
X149198349Y-123056000D01*
X149238349Y-116776000D02*
X149238349Y-118860000D01*
X149238349Y-120940000D02*
X149238349Y-123024000D01*
X149278349Y-116810000D02*
X149278349Y-118860000D01*
X149278349Y-120940000D02*
X149278349Y-122990000D01*
X149318349Y-116845000D02*
X149318349Y-118860000D01*
X149318349Y-120940000D02*
X149318349Y-122955000D01*
X149358349Y-116881000D02*
X149358349Y-118860000D01*
X149358349Y-120940000D02*
X149358349Y-122919000D01*
X149398349Y-116917000D02*
X149398349Y-122883000D01*
X149438349Y-116955000D02*
X149438349Y-122845000D01*
X149478349Y-116993000D02*
X149478349Y-122807000D01*
X149518349Y-117033000D02*
X149518349Y-122767000D01*
X149558349Y-117074000D02*
X149558349Y-122726000D01*
X149598349Y-117116000D02*
X149598349Y-122684000D01*
X149638349Y-117159000D02*
X149638349Y-122641000D01*
X149678349Y-117203000D02*
X149678349Y-122597000D01*
X149718349Y-117249000D02*
X149718349Y-122551000D01*
X149758349Y-117296000D02*
X149758349Y-122504000D01*
X149798349Y-117344000D02*
X149798349Y-122456000D01*
X149838349Y-117395000D02*
X149838349Y-122405000D01*
X149878349Y-117446000D02*
X149878349Y-122354000D01*
X149918349Y-117500000D02*
X149918349Y-122300000D01*
X149958349Y-117555000D02*
X149958349Y-122245000D01*
X149998349Y-117613000D02*
X149998349Y-122187000D01*
X150038349Y-117672000D02*
X150038349Y-122128000D01*
X150078349Y-117734000D02*
X150078349Y-122066000D01*
X150118349Y-117798000D02*
X150118349Y-122002000D01*
X150158349Y-117866000D02*
X150158349Y-121934000D01*
X150198349Y-117936000D02*
X150198349Y-121864000D01*
X150238349Y-118010000D02*
X150238349Y-121790000D01*
X150278349Y-118087000D02*
X150278349Y-121713000D01*
X150318349Y-118169000D02*
X150318349Y-121631000D01*
X150358349Y-118255000D02*
X150358349Y-121545000D01*
X150398349Y-118348000D02*
X150398349Y-121452000D01*
X150438349Y-118447000D02*
X150438349Y-121353000D01*
X150478349Y-118554000D02*
X150478349Y-121246000D01*
X150518349Y-118671000D02*
X150518349Y-121129000D01*
X150558349Y-118802000D02*
X150558349Y-120998000D01*
X150598349Y-118952000D02*
X150598349Y-120848000D01*
X150638349Y-119132000D02*
X150638349Y-120668000D01*
X150678349Y-119367000D02*
X150678349Y-120433000D01*
X150717349Y-119900000D02*
G75*
G02*
X142477349Y-119900000I-4120000J0D01*
G01*
X142477349Y-119900000D02*
G75*
G02*
X150717349Y-119900000I4120000J0D01*
G01*
%TO.C,U1*%
X117020000Y-115970000D02*
X117020000Y-111329000D01*
X120289000Y-115970000D02*
X120289000Y-114460000D01*
X123990000Y-115970000D02*
X123990000Y-114460000D01*
X127260000Y-111329000D02*
X117020000Y-111329000D01*
X127260000Y-114460000D02*
X117020000Y-114460000D01*
X127260000Y-115970000D02*
X117020000Y-115970000D01*
X127260000Y-115970000D02*
X127260000Y-111329000D01*
%TO.C,D4*%
X106330000Y-137860000D02*
X106330000Y-143300000D01*
X106330000Y-143300000D02*
X109270000Y-143300000D01*
X107800000Y-136840000D02*
X107800000Y-137860000D01*
X107800000Y-144320000D02*
X107800000Y-143300000D01*
X109270000Y-137860000D02*
X106330000Y-137860000D01*
X109270000Y-138640000D02*
X106330000Y-138640000D01*
X109270000Y-138760000D02*
X106330000Y-138760000D01*
X109270000Y-138880000D02*
X106330000Y-138880000D01*
X109270000Y-143300000D02*
X109270000Y-137860000D01*
%TO.C,D6*%
X129090000Y-129300000D02*
X129230000Y-129300000D01*
X129230000Y-127330000D02*
X129230000Y-131270000D01*
X129230000Y-131270000D02*
X138370000Y-131270000D01*
X130565000Y-127330000D02*
X130565000Y-131270000D01*
X130685000Y-127330000D02*
X130685000Y-131270000D01*
X130805000Y-127330000D02*
X130805000Y-131270000D01*
X138370000Y-127330000D02*
X129230000Y-127330000D01*
X138370000Y-131270000D02*
X138370000Y-127330000D01*
X138510000Y-129300000D02*
X138370000Y-129300000D01*
%TD*%
M02*
