%TF.GenerationSoftware,KiCad,Pcbnew,8.0.8*%
%TF.CreationDate,2026-02-04T08:37:40+05:30*%
%TF.ProjectId,power supply,706f7765-7220-4737-9570-706c792e6b69,rev?*%
%TF.SameCoordinates,Original*%
%TF.FileFunction,Legend,Bot*%
%TF.FilePolarity,Positive*%
%FSLAX46Y46*%
G04 Gerber Fmt 4.6, Leading zero omitted, Abs format (unit mm)*
G04 Created by KiCad (PCBNEW 8.0.8) date 2026-02-04 08:37:40*
%MOMM*%
%LPD*%
G01*
G04 APERTURE LIST*
%ADD10C,0.100000*%
%ADD11C,0.010000*%
G04 APERTURE END LIST*
D10*
X118019925Y-107872419D02*
X118519925Y-107396228D01*
X118877068Y-107872419D02*
X118877068Y-106872419D01*
X118877068Y-106872419D02*
X118305639Y-106872419D01*
X118305639Y-106872419D02*
X118162782Y-106920038D01*
X118162782Y-106920038D02*
X118091353Y-106967657D01*
X118091353Y-106967657D02*
X118019925Y-107062895D01*
X118019925Y-107062895D02*
X118019925Y-107205752D01*
X118019925Y-107205752D02*
X118091353Y-107300990D01*
X118091353Y-107300990D02*
X118162782Y-107348609D01*
X118162782Y-107348609D02*
X118305639Y-107396228D01*
X118305639Y-107396228D02*
X118877068Y-107396228D01*
X116519925Y-107777180D02*
X116591353Y-107824800D01*
X116591353Y-107824800D02*
X116805639Y-107872419D01*
X116805639Y-107872419D02*
X116948496Y-107872419D01*
X116948496Y-107872419D02*
X117162782Y-107824800D01*
X117162782Y-107824800D02*
X117305639Y-107729561D01*
X117305639Y-107729561D02*
X117377068Y-107634323D01*
X117377068Y-107634323D02*
X117448496Y-107443847D01*
X117448496Y-107443847D02*
X117448496Y-107300990D01*
X117448496Y-107300990D02*
X117377068Y-107110514D01*
X117377068Y-107110514D02*
X117305639Y-107015276D01*
X117305639Y-107015276D02*
X117162782Y-106920038D01*
X117162782Y-106920038D02*
X116948496Y-106872419D01*
X116948496Y-106872419D02*
X116805639Y-106872419D01*
X116805639Y-106872419D02*
X116591353Y-106920038D01*
X116591353Y-106920038D02*
X116519925Y-106967657D01*
X115948496Y-107824800D02*
X115734211Y-107872419D01*
X115734211Y-107872419D02*
X115377068Y-107872419D01*
X115377068Y-107872419D02*
X115234211Y-107824800D01*
X115234211Y-107824800D02*
X115162782Y-107777180D01*
X115162782Y-107777180D02*
X115091353Y-107681942D01*
X115091353Y-107681942D02*
X115091353Y-107586704D01*
X115091353Y-107586704D02*
X115162782Y-107491466D01*
X115162782Y-107491466D02*
X115234211Y-107443847D01*
X115234211Y-107443847D02*
X115377068Y-107396228D01*
X115377068Y-107396228D02*
X115662782Y-107348609D01*
X115662782Y-107348609D02*
X115805639Y-107300990D01*
X115805639Y-107300990D02*
X115877068Y-107253371D01*
X115877068Y-107253371D02*
X115948496Y-107158133D01*
X115948496Y-107158133D02*
X115948496Y-107062895D01*
X115948496Y-107062895D02*
X115877068Y-106967657D01*
X115877068Y-106967657D02*
X115805639Y-106920038D01*
X115805639Y-106920038D02*
X115662782Y-106872419D01*
X115662782Y-106872419D02*
X115305639Y-106872419D01*
X115305639Y-106872419D02*
X115091353Y-106920038D01*
X114519925Y-107824800D02*
X114305640Y-107872419D01*
X114305640Y-107872419D02*
X113948497Y-107872419D01*
X113948497Y-107872419D02*
X113805640Y-107824800D01*
X113805640Y-107824800D02*
X113734211Y-107777180D01*
X113734211Y-107777180D02*
X113662782Y-107681942D01*
X113662782Y-107681942D02*
X113662782Y-107586704D01*
X113662782Y-107586704D02*
X113734211Y-107491466D01*
X113734211Y-107491466D02*
X113805640Y-107443847D01*
X113805640Y-107443847D02*
X113948497Y-107396228D01*
X113948497Y-107396228D02*
X114234211Y-107348609D01*
X114234211Y-107348609D02*
X114377068Y-107300990D01*
X114377068Y-107300990D02*
X114448497Y-107253371D01*
X114448497Y-107253371D02*
X114519925Y-107158133D01*
X114519925Y-107158133D02*
X114519925Y-107062895D01*
X114519925Y-107062895D02*
X114448497Y-106967657D01*
X114448497Y-106967657D02*
X114377068Y-106920038D01*
X114377068Y-106920038D02*
X114234211Y-106872419D01*
X114234211Y-106872419D02*
X113877068Y-106872419D01*
X113877068Y-106872419D02*
X113662782Y-106920038D01*
X112162783Y-107777180D02*
X112234211Y-107824800D01*
X112234211Y-107824800D02*
X112448497Y-107872419D01*
X112448497Y-107872419D02*
X112591354Y-107872419D01*
X112591354Y-107872419D02*
X112805640Y-107824800D01*
X112805640Y-107824800D02*
X112948497Y-107729561D01*
X112948497Y-107729561D02*
X113019926Y-107634323D01*
X113019926Y-107634323D02*
X113091354Y-107443847D01*
X113091354Y-107443847D02*
X113091354Y-107300990D01*
X113091354Y-107300990D02*
X113019926Y-107110514D01*
X113019926Y-107110514D02*
X112948497Y-107015276D01*
X112948497Y-107015276D02*
X112805640Y-106920038D01*
X112805640Y-106920038D02*
X112591354Y-106872419D01*
X112591354Y-106872419D02*
X112448497Y-106872419D01*
X112448497Y-106872419D02*
X112234211Y-106920038D01*
X112234211Y-106920038D02*
X112162783Y-106967657D01*
D11*
%TO.C,REF\u002A\u002A*%
X115555406Y-147474949D02*
X115581127Y-147490647D01*
X115607778Y-147512227D01*
X115607778Y-148159684D01*
X115581127Y-148181264D01*
X115549767Y-148198739D01*
X115513966Y-148199575D01*
X115482528Y-148179082D01*
X115478652Y-148174416D01*
X115473186Y-148164949D01*
X115468979Y-148151267D01*
X115465867Y-148130748D01*
X115463687Y-148100768D01*
X115462276Y-148058704D01*
X115461471Y-148001932D01*
X115461107Y-147927830D01*
X115461022Y-147833773D01*
X115461022Y-147512227D01*
X115487673Y-147490647D01*
X115511386Y-147475877D01*
X115534400Y-147469067D01*
X115555406Y-147474949D01*
G36*
X115555406Y-147474949D02*
G01*
X115581127Y-147490647D01*
X115607778Y-147512227D01*
X115607778Y-148159684D01*
X115581127Y-148181264D01*
X115549767Y-148198739D01*
X115513966Y-148199575D01*
X115482528Y-148179082D01*
X115478652Y-148174416D01*
X115473186Y-148164949D01*
X115468979Y-148151267D01*
X115465867Y-148130748D01*
X115463687Y-148100768D01*
X115462276Y-148058704D01*
X115461471Y-148001932D01*
X115461107Y-147927830D01*
X115461022Y-147833773D01*
X115461022Y-147512227D01*
X115487673Y-147490647D01*
X115511386Y-147475877D01*
X115534400Y-147469067D01*
X115555406Y-147474949D01*
G37*
X122686137Y-147473463D02*
X122720291Y-147496776D01*
X122748000Y-147524485D01*
X122748000Y-147837537D01*
X122747959Y-147921567D01*
X122747701Y-147995789D01*
X122747030Y-148052541D01*
X122745752Y-148094512D01*
X122743673Y-148124389D01*
X122740599Y-148144861D01*
X122736334Y-148158614D01*
X122730684Y-148168337D01*
X122723455Y-148176717D01*
X122691991Y-148198181D01*
X122656826Y-148199947D01*
X122623822Y-148180267D01*
X122618516Y-148174398D01*
X122613066Y-148165314D01*
X122608900Y-148151973D01*
X122605846Y-148131757D01*
X122603732Y-148102049D01*
X122602386Y-148060232D01*
X122601638Y-148003689D01*
X122601314Y-147929802D01*
X122601245Y-147835956D01*
X122601284Y-147760294D01*
X122601539Y-147682385D01*
X122602183Y-147622375D01*
X122603387Y-147577648D01*
X122605324Y-147545585D01*
X122608164Y-147523571D01*
X122612079Y-147508987D01*
X122617242Y-147499218D01*
X122623822Y-147491645D01*
X122653006Y-147472623D01*
X122686137Y-147473463D01*
G36*
X122686137Y-147473463D02*
G01*
X122720291Y-147496776D01*
X122748000Y-147524485D01*
X122748000Y-147837537D01*
X122747959Y-147921567D01*
X122747701Y-147995789D01*
X122747030Y-148052541D01*
X122745752Y-148094512D01*
X122743673Y-148124389D01*
X122740599Y-148144861D01*
X122736334Y-148158614D01*
X122730684Y-148168337D01*
X122723455Y-148176717D01*
X122691991Y-148198181D01*
X122656826Y-148199947D01*
X122623822Y-148180267D01*
X122618516Y-148174398D01*
X122613066Y-148165314D01*
X122608900Y-148151973D01*
X122605846Y-148131757D01*
X122603732Y-148102049D01*
X122602386Y-148060232D01*
X122601638Y-148003689D01*
X122601314Y-147929802D01*
X122601245Y-147835956D01*
X122601284Y-147760294D01*
X122601539Y-147682385D01*
X122602183Y-147622375D01*
X122603387Y-147577648D01*
X122605324Y-147545585D01*
X122608164Y-147523571D01*
X122612079Y-147508987D01*
X122617242Y-147499218D01*
X122623822Y-147491645D01*
X122653006Y-147472623D01*
X122686137Y-147473463D01*
G37*
X122154562Y-142232850D02*
X122237313Y-142260053D01*
X122312406Y-142305484D01*
X122384298Y-142371302D01*
X122422846Y-142415567D01*
X122462256Y-142473961D01*
X122487446Y-142534586D01*
X122500861Y-142603865D01*
X122504948Y-142688222D01*
X122504669Y-142734307D01*
X122502460Y-142775450D01*
X122496894Y-142807582D01*
X122486586Y-142838122D01*
X122470148Y-142874489D01*
X122456200Y-142901728D01*
X122397665Y-142987429D01*
X122325619Y-143056617D01*
X122241947Y-143107741D01*
X122148531Y-143139250D01*
X122115434Y-143146225D01*
X122074960Y-143153094D01*
X122041999Y-143154919D01*
X122007698Y-143151947D01*
X121963200Y-143144426D01*
X121911934Y-143132002D01*
X121821434Y-143094112D01*
X121742345Y-143039836D01*
X121676528Y-142971770D01*
X121625840Y-142892511D01*
X121592140Y-142804654D01*
X121577286Y-142710795D01*
X121583136Y-142613530D01*
X121609399Y-142517220D01*
X121654418Y-142428494D01*
X121715373Y-142353419D01*
X121790184Y-142293641D01*
X121876768Y-142250809D01*
X121973043Y-142226571D01*
X122076928Y-142222576D01*
X122154562Y-142232850D01*
G36*
X122154562Y-142232850D02*
G01*
X122237313Y-142260053D01*
X122312406Y-142305484D01*
X122384298Y-142371302D01*
X122422846Y-142415567D01*
X122462256Y-142473961D01*
X122487446Y-142534586D01*
X122500861Y-142603865D01*
X122504948Y-142688222D01*
X122504669Y-142734307D01*
X122502460Y-142775450D01*
X122496894Y-142807582D01*
X122486586Y-142838122D01*
X122470148Y-142874489D01*
X122456200Y-142901728D01*
X122397665Y-142987429D01*
X122325619Y-143056617D01*
X122241947Y-143107741D01*
X122148531Y-143139250D01*
X122115434Y-143146225D01*
X122074960Y-143153094D01*
X122041999Y-143154919D01*
X122007698Y-143151947D01*
X121963200Y-143144426D01*
X121911934Y-143132002D01*
X121821434Y-143094112D01*
X121742345Y-143039836D01*
X121676528Y-142971770D01*
X121625840Y-142892511D01*
X121592140Y-142804654D01*
X121577286Y-142710795D01*
X121583136Y-142613530D01*
X121609399Y-142517220D01*
X121654418Y-142428494D01*
X121715373Y-142353419D01*
X121790184Y-142293641D01*
X121876768Y-142250809D01*
X121973043Y-142226571D01*
X122076928Y-142222576D01*
X122154562Y-142232850D01*
G37*
X114855767Y-147469068D02*
X114949890Y-147469158D01*
X115024405Y-147469498D01*
X115081811Y-147470239D01*
X115124611Y-147471535D01*
X115155304Y-147473537D01*
X115176391Y-147476396D01*
X115190373Y-147480266D01*
X115199750Y-147485298D01*
X115207022Y-147491645D01*
X115225828Y-147524362D01*
X115227275Y-147561939D01*
X115210917Y-147595178D01*
X115209557Y-147596631D01*
X115198354Y-147604992D01*
X115181252Y-147610547D01*
X115154082Y-147613840D01*
X115112678Y-147615418D01*
X115052873Y-147615822D01*
X114913511Y-147615822D01*
X114913511Y-147879589D01*
X114913436Y-147955417D01*
X114913028Y-148022083D01*
X114912046Y-148071867D01*
X114910250Y-148107784D01*
X114907399Y-148132850D01*
X114903253Y-148150081D01*
X114897571Y-148162492D01*
X114890114Y-148173100D01*
X114887824Y-148175906D01*
X114856646Y-148198548D01*
X114822266Y-148200112D01*
X114789334Y-148180267D01*
X114782355Y-148172191D01*
X114776883Y-148161593D01*
X114772863Y-148145749D01*
X114770072Y-148121773D01*
X114768288Y-148086774D01*
X114767289Y-148037864D01*
X114766852Y-147972154D01*
X114766756Y-147886756D01*
X114766756Y-147615822D01*
X114620820Y-147615822D01*
X114609720Y-147615821D01*
X114553202Y-147615596D01*
X114514358Y-147614457D01*
X114488965Y-147611657D01*
X114472804Y-147606450D01*
X114461652Y-147598089D01*
X114451289Y-147585826D01*
X114435441Y-147555138D01*
X114438543Y-147521358D01*
X114464187Y-147488822D01*
X114469129Y-147485105D01*
X114479338Y-147480269D01*
X114494764Y-147476506D01*
X114517886Y-147473683D01*
X114551183Y-147471670D01*
X114597137Y-147470333D01*
X114658228Y-147469542D01*
X114736935Y-147469163D01*
X114835740Y-147469067D01*
X114855767Y-147469068D01*
G36*
X114855767Y-147469068D02*
G01*
X114949890Y-147469158D01*
X115024405Y-147469498D01*
X115081811Y-147470239D01*
X115124611Y-147471535D01*
X115155304Y-147473537D01*
X115176391Y-147476396D01*
X115190373Y-147480266D01*
X115199750Y-147485298D01*
X115207022Y-147491645D01*
X115225828Y-147524362D01*
X115227275Y-147561939D01*
X115210917Y-147595178D01*
X115209557Y-147596631D01*
X115198354Y-147604992D01*
X115181252Y-147610547D01*
X115154082Y-147613840D01*
X115112678Y-147615418D01*
X115052873Y-147615822D01*
X114913511Y-147615822D01*
X114913511Y-147879589D01*
X114913436Y-147955417D01*
X114913028Y-148022083D01*
X114912046Y-148071867D01*
X114910250Y-148107784D01*
X114907399Y-148132850D01*
X114903253Y-148150081D01*
X114897571Y-148162492D01*
X114890114Y-148173100D01*
X114887824Y-148175906D01*
X114856646Y-148198548D01*
X114822266Y-148200112D01*
X114789334Y-148180267D01*
X114782355Y-148172191D01*
X114776883Y-148161593D01*
X114772863Y-148145749D01*
X114770072Y-148121773D01*
X114768288Y-148086774D01*
X114767289Y-148037864D01*
X114766852Y-147972154D01*
X114766756Y-147886756D01*
X114766756Y-147615822D01*
X114620820Y-147615822D01*
X114609720Y-147615821D01*
X114553202Y-147615596D01*
X114514358Y-147614457D01*
X114488965Y-147611657D01*
X114472804Y-147606450D01*
X114461652Y-147598089D01*
X114451289Y-147585826D01*
X114435441Y-147555138D01*
X114438543Y-147521358D01*
X114464187Y-147488822D01*
X114469129Y-147485105D01*
X114479338Y-147480269D01*
X114494764Y-147476506D01*
X114517886Y-147473683D01*
X114551183Y-147471670D01*
X114597137Y-147470333D01*
X114658228Y-147469542D01*
X114736935Y-147469163D01*
X114835740Y-147469067D01*
X114855767Y-147469068D01*
G37*
X114179734Y-147491645D02*
X114185366Y-147497835D01*
X114190456Y-147506041D01*
X114194543Y-147517817D01*
X114197721Y-147535276D01*
X114200087Y-147560530D01*
X114201738Y-147595690D01*
X114202769Y-147642869D01*
X114203277Y-147704177D01*
X114203359Y-147781727D01*
X114203109Y-147877631D01*
X114202625Y-147994000D01*
X114202557Y-148008175D01*
X114201971Y-148069937D01*
X114200648Y-148113620D01*
X114198103Y-148143001D01*
X114193848Y-148161855D01*
X114187396Y-148173959D01*
X114178262Y-148183089D01*
X114144804Y-148200506D01*
X114109856Y-148197604D01*
X114078953Y-148173100D01*
X114069944Y-148159897D01*
X114062492Y-148141361D01*
X114058124Y-148115333D01*
X114056069Y-148076787D01*
X114055556Y-148020700D01*
X114055556Y-147898045D01*
X113558845Y-147898045D01*
X113558845Y-148032871D01*
X113558772Y-148068662D01*
X113558009Y-148114992D01*
X113555833Y-148145526D01*
X113551536Y-148164557D01*
X113544412Y-148176374D01*
X113533755Y-148185271D01*
X113501504Y-148200341D01*
X113466217Y-148197673D01*
X113435486Y-148173100D01*
X113430831Y-148166845D01*
X113424895Y-148156321D01*
X113420364Y-148142391D01*
X113417048Y-148122317D01*
X113414759Y-148093360D01*
X113413308Y-148052780D01*
X113412505Y-147997840D01*
X113412162Y-147925799D01*
X113412089Y-147833920D01*
X113412089Y-147524485D01*
X113439798Y-147496776D01*
X113471177Y-147474533D01*
X113504406Y-147471844D01*
X113536267Y-147491645D01*
X113544553Y-147501415D01*
X113551965Y-147517307D01*
X113556302Y-147541275D01*
X113558338Y-147578148D01*
X113558845Y-147632756D01*
X113558845Y-147751289D01*
X114055556Y-147751289D01*
X114055556Y-147635776D01*
X114055994Y-147584078D01*
X114057958Y-147549554D01*
X114062474Y-147526978D01*
X114070567Y-147511126D01*
X114083265Y-147496776D01*
X114114643Y-147474533D01*
X114147872Y-147471844D01*
X114179734Y-147491645D01*
G36*
X114179734Y-147491645D02*
G01*
X114185366Y-147497835D01*
X114190456Y-147506041D01*
X114194543Y-147517817D01*
X114197721Y-147535276D01*
X114200087Y-147560530D01*
X114201738Y-147595690D01*
X114202769Y-147642869D01*
X114203277Y-147704177D01*
X114203359Y-147781727D01*
X114203109Y-147877631D01*
X114202625Y-147994000D01*
X114202557Y-148008175D01*
X114201971Y-148069937D01*
X114200648Y-148113620D01*
X114198103Y-148143001D01*
X114193848Y-148161855D01*
X114187396Y-148173959D01*
X114178262Y-148183089D01*
X114144804Y-148200506D01*
X114109856Y-148197604D01*
X114078953Y-148173100D01*
X114069944Y-148159897D01*
X114062492Y-148141361D01*
X114058124Y-148115333D01*
X114056069Y-148076787D01*
X114055556Y-148020700D01*
X114055556Y-147898045D01*
X113558845Y-147898045D01*
X113558845Y-148032871D01*
X113558772Y-148068662D01*
X113558009Y-148114992D01*
X113555833Y-148145526D01*
X113551536Y-148164557D01*
X113544412Y-148176374D01*
X113533755Y-148185271D01*
X113501504Y-148200341D01*
X113466217Y-148197673D01*
X113435486Y-148173100D01*
X113430831Y-148166845D01*
X113424895Y-148156321D01*
X113420364Y-148142391D01*
X113417048Y-148122317D01*
X113414759Y-148093360D01*
X113413308Y-148052780D01*
X113412505Y-147997840D01*
X113412162Y-147925799D01*
X113412089Y-147833920D01*
X113412089Y-147524485D01*
X113439798Y-147496776D01*
X113471177Y-147474533D01*
X113504406Y-147471844D01*
X113536267Y-147491645D01*
X113544553Y-147501415D01*
X113551965Y-147517307D01*
X113556302Y-147541275D01*
X113558338Y-147578148D01*
X113558845Y-147632756D01*
X113558845Y-147751289D01*
X114055556Y-147751289D01*
X114055556Y-147635776D01*
X114055994Y-147584078D01*
X114057958Y-147549554D01*
X114062474Y-147526978D01*
X114070567Y-147511126D01*
X114083265Y-147496776D01*
X114114643Y-147474533D01*
X114147872Y-147471844D01*
X114179734Y-147491645D01*
G37*
X118885133Y-148080396D02*
X118883163Y-148113175D01*
X118880235Y-148136095D01*
X118876158Y-148151897D01*
X118870743Y-148163319D01*
X118863803Y-148173100D01*
X118840406Y-148202845D01*
X118674714Y-148202251D01*
X118639918Y-148201953D01*
X118541435Y-148198522D01*
X118460473Y-148190839D01*
X118393379Y-148178282D01*
X118336496Y-148160227D01*
X118286169Y-148136052D01*
X118282810Y-148134135D01*
X118224998Y-148097417D01*
X118182644Y-148060451D01*
X118149828Y-148016966D01*
X118120628Y-147960689D01*
X118116346Y-147951073D01*
X118093769Y-147887887D01*
X118088034Y-147842333D01*
X118237279Y-147842333D01*
X118242892Y-147867061D01*
X118248618Y-147882939D01*
X118281548Y-147942847D01*
X118328886Y-147988600D01*
X118392652Y-148021736D01*
X118474861Y-148043790D01*
X118477655Y-148044292D01*
X118523940Y-148050255D01*
X118580336Y-148054483D01*
X118635274Y-148056089D01*
X118729156Y-148056089D01*
X118729156Y-147615822D01*
X118641667Y-147616270D01*
X118574747Y-147618746D01*
X118482349Y-147629998D01*
X118403034Y-147649537D01*
X118341060Y-147676511D01*
X118310120Y-147697240D01*
X118282000Y-147727006D01*
X118258660Y-147769434D01*
X118251533Y-147785400D01*
X118239709Y-147817902D01*
X118237279Y-147842333D01*
X118088034Y-147842333D01*
X118086797Y-147832509D01*
X118095399Y-147777483D01*
X118119541Y-147715351D01*
X118120337Y-147713658D01*
X118160788Y-147644236D01*
X118211473Y-147587638D01*
X118274198Y-147543070D01*
X118350774Y-147509741D01*
X118443009Y-147486861D01*
X118552712Y-147473636D01*
X118681691Y-147469275D01*
X118685263Y-147469270D01*
X118745283Y-147469410D01*
X118787214Y-147470446D01*
X118815328Y-147473040D01*
X118833897Y-147477853D01*
X118847194Y-147485544D01*
X118859491Y-147496776D01*
X118887200Y-147524485D01*
X118887200Y-147833920D01*
X118887175Y-147895526D01*
X118886950Y-147974311D01*
X118886332Y-148035021D01*
X118885775Y-148056089D01*
X118885133Y-148080396D01*
G36*
X118885133Y-148080396D02*
G01*
X118883163Y-148113175D01*
X118880235Y-148136095D01*
X118876158Y-148151897D01*
X118870743Y-148163319D01*
X118863803Y-148173100D01*
X118840406Y-148202845D01*
X118674714Y-148202251D01*
X118639918Y-148201953D01*
X118541435Y-148198522D01*
X118460473Y-148190839D01*
X118393379Y-148178282D01*
X118336496Y-148160227D01*
X118286169Y-148136052D01*
X118282810Y-148134135D01*
X118224998Y-148097417D01*
X118182644Y-148060451D01*
X118149828Y-148016966D01*
X118120628Y-147960689D01*
X118116346Y-147951073D01*
X118093769Y-147887887D01*
X118088034Y-147842333D01*
X118237279Y-147842333D01*
X118242892Y-147867061D01*
X118248618Y-147882939D01*
X118281548Y-147942847D01*
X118328886Y-147988600D01*
X118392652Y-148021736D01*
X118474861Y-148043790D01*
X118477655Y-148044292D01*
X118523940Y-148050255D01*
X118580336Y-148054483D01*
X118635274Y-148056089D01*
X118729156Y-148056089D01*
X118729156Y-147615822D01*
X118641667Y-147616270D01*
X118574747Y-147618746D01*
X118482349Y-147629998D01*
X118403034Y-147649537D01*
X118341060Y-147676511D01*
X118310120Y-147697240D01*
X118282000Y-147727006D01*
X118258660Y-147769434D01*
X118251533Y-147785400D01*
X118239709Y-147817902D01*
X118237279Y-147842333D01*
X118088034Y-147842333D01*
X118086797Y-147832509D01*
X118095399Y-147777483D01*
X118119541Y-147715351D01*
X118120337Y-147713658D01*
X118160788Y-147644236D01*
X118211473Y-147587638D01*
X118274198Y-147543070D01*
X118350774Y-147509741D01*
X118443009Y-147486861D01*
X118552712Y-147473636D01*
X118681691Y-147469275D01*
X118685263Y-147469270D01*
X118745283Y-147469410D01*
X118787214Y-147470446D01*
X118815328Y-147473040D01*
X118833897Y-147477853D01*
X118847194Y-147485544D01*
X118859491Y-147496776D01*
X118887200Y-147524485D01*
X118887200Y-147833920D01*
X118887175Y-147895526D01*
X118886950Y-147974311D01*
X118886332Y-148035021D01*
X118885775Y-148056089D01*
X118885133Y-148080396D01*
G37*
X125976817Y-147654427D02*
X125976870Y-147735041D01*
X125976622Y-147835956D01*
X125976583Y-147911617D01*
X125976328Y-147989526D01*
X125975684Y-148049536D01*
X125974480Y-148094264D01*
X125972543Y-148126326D01*
X125969703Y-148148340D01*
X125965788Y-148162924D01*
X125960626Y-148172694D01*
X125954045Y-148180267D01*
X125947077Y-148186501D01*
X125934079Y-148193801D01*
X125914931Y-148198554D01*
X125885528Y-148201292D01*
X125841762Y-148202545D01*
X125779528Y-148202845D01*
X125730582Y-148202469D01*
X125623722Y-148198041D01*
X125534494Y-148187953D01*
X125459696Y-148171365D01*
X125396125Y-148147435D01*
X125340579Y-148115321D01*
X125289854Y-148074182D01*
X125283866Y-148068330D01*
X125246999Y-148019821D01*
X125215899Y-147959013D01*
X125194417Y-147894769D01*
X125189136Y-147856026D01*
X125336353Y-147856026D01*
X125354635Y-147906961D01*
X125384305Y-147952878D01*
X125431002Y-147995287D01*
X125492392Y-148025090D01*
X125571538Y-148044226D01*
X125573028Y-148044464D01*
X125621999Y-148050256D01*
X125680693Y-148054396D01*
X125736734Y-148056004D01*
X125829867Y-148056089D01*
X125829867Y-147615822D01*
X125753667Y-147615808D01*
X125750639Y-147615817D01*
X125699519Y-147617782D01*
X125639416Y-147622507D01*
X125582708Y-147629035D01*
X125532750Y-147638331D01*
X125457998Y-147664600D01*
X125400489Y-147703899D01*
X125358988Y-147756933D01*
X125337771Y-147808200D01*
X125336353Y-147856026D01*
X125189136Y-147856026D01*
X125186400Y-147835956D01*
X125187679Y-147814739D01*
X125199991Y-147757323D01*
X125222520Y-147697413D01*
X125251750Y-147643363D01*
X125284167Y-147603532D01*
X125303708Y-147586510D01*
X125358420Y-147547322D01*
X125418723Y-147517193D01*
X125487919Y-147495232D01*
X125569311Y-147480550D01*
X125666200Y-147472259D01*
X125781889Y-147469467D01*
X125821371Y-147469066D01*
X125867082Y-147468653D01*
X125902883Y-147470457D01*
X125929974Y-147476739D01*
X125949556Y-147489759D01*
X125962830Y-147511778D01*
X125970998Y-147545055D01*
X125975260Y-147591851D01*
X125975857Y-147615822D01*
X125976817Y-147654427D01*
G36*
X125976817Y-147654427D02*
G01*
X125976870Y-147735041D01*
X125976622Y-147835956D01*
X125976583Y-147911617D01*
X125976328Y-147989526D01*
X125975684Y-148049536D01*
X125974480Y-148094264D01*
X125972543Y-148126326D01*
X125969703Y-148148340D01*
X125965788Y-148162924D01*
X125960626Y-148172694D01*
X125954045Y-148180267D01*
X125947077Y-148186501D01*
X125934079Y-148193801D01*
X125914931Y-148198554D01*
X125885528Y-148201292D01*
X125841762Y-148202545D01*
X125779528Y-148202845D01*
X125730582Y-148202469D01*
X125623722Y-148198041D01*
X125534494Y-148187953D01*
X125459696Y-148171365D01*
X125396125Y-148147435D01*
X125340579Y-148115321D01*
X125289854Y-148074182D01*
X125283866Y-148068330D01*
X125246999Y-148019821D01*
X125215899Y-147959013D01*
X125194417Y-147894769D01*
X125189136Y-147856026D01*
X125336353Y-147856026D01*
X125354635Y-147906961D01*
X125384305Y-147952878D01*
X125431002Y-147995287D01*
X125492392Y-148025090D01*
X125571538Y-148044226D01*
X125573028Y-148044464D01*
X125621999Y-148050256D01*
X125680693Y-148054396D01*
X125736734Y-148056004D01*
X125829867Y-148056089D01*
X125829867Y-147615822D01*
X125753667Y-147615808D01*
X125750639Y-147615817D01*
X125699519Y-147617782D01*
X125639416Y-147622507D01*
X125582708Y-147629035D01*
X125532750Y-147638331D01*
X125457998Y-147664600D01*
X125400489Y-147703899D01*
X125358988Y-147756933D01*
X125337771Y-147808200D01*
X125336353Y-147856026D01*
X125189136Y-147856026D01*
X125186400Y-147835956D01*
X125187679Y-147814739D01*
X125199991Y-147757323D01*
X125222520Y-147697413D01*
X125251750Y-147643363D01*
X125284167Y-147603532D01*
X125303708Y-147586510D01*
X125358420Y-147547322D01*
X125418723Y-147517193D01*
X125487919Y-147495232D01*
X125569311Y-147480550D01*
X125666200Y-147472259D01*
X125781889Y-147469467D01*
X125821371Y-147469066D01*
X125867082Y-147468653D01*
X125902883Y-147470457D01*
X125929974Y-147476739D01*
X125949556Y-147489759D01*
X125962830Y-147511778D01*
X125970998Y-147545055D01*
X125975260Y-147591851D01*
X125975857Y-147615822D01*
X125976817Y-147654427D01*
G37*
X121031893Y-147467892D02*
X121043301Y-147474029D01*
X121053850Y-147484691D01*
X121065136Y-147498811D01*
X121069589Y-147504772D01*
X121075588Y-147515268D01*
X121080167Y-147529093D01*
X121083519Y-147548998D01*
X121085833Y-147577732D01*
X121087301Y-147618045D01*
X121088113Y-147672687D01*
X121088460Y-147744407D01*
X121088534Y-147835956D01*
X121088511Y-147894486D01*
X121088292Y-147973573D01*
X121087683Y-148034516D01*
X121086492Y-148080062D01*
X121084529Y-148112963D01*
X121081603Y-148135968D01*
X121077523Y-148151826D01*
X121072097Y-148163286D01*
X121065136Y-148173100D01*
X121034708Y-148197493D01*
X120999765Y-148200372D01*
X120962784Y-148181282D01*
X120958600Y-148177807D01*
X120950424Y-148169279D01*
X120944364Y-148157728D01*
X120939981Y-148139896D01*
X120936839Y-148112524D01*
X120934502Y-148072354D01*
X120932531Y-148016128D01*
X120930489Y-147940589D01*
X120924845Y-147721458D01*
X120659556Y-147962099D01*
X120585722Y-148028875D01*
X120520542Y-148086991D01*
X120468348Y-148131949D01*
X120427273Y-148164871D01*
X120395455Y-148186879D01*
X120371026Y-148199094D01*
X120352124Y-148202639D01*
X120336883Y-148198636D01*
X120323439Y-148188207D01*
X120309927Y-148172474D01*
X120303682Y-148163991D01*
X120298050Y-148153413D01*
X120293839Y-148139255D01*
X120290887Y-148118803D01*
X120289032Y-148089342D01*
X120288113Y-148048161D01*
X120287968Y-147992544D01*
X120288435Y-147919779D01*
X120289352Y-147827151D01*
X120292667Y-147512199D01*
X120319318Y-147490633D01*
X120345383Y-147474441D01*
X120378241Y-147471670D01*
X120412772Y-147490623D01*
X120417084Y-147494208D01*
X120425216Y-147502737D01*
X120431245Y-147514329D01*
X120435606Y-147532235D01*
X120438734Y-147559706D01*
X120441063Y-147599994D01*
X120443029Y-147656351D01*
X120445067Y-147732029D01*
X120450711Y-147951878D01*
X120631334Y-147788084D01*
X120718072Y-147709451D01*
X120793843Y-147641058D01*
X120855980Y-147585708D01*
X120906078Y-147542338D01*
X120945735Y-147509881D01*
X120976548Y-147487273D01*
X121000114Y-147473448D01*
X121018030Y-147467343D01*
X121031893Y-147467892D01*
G36*
X121031893Y-147467892D02*
G01*
X121043301Y-147474029D01*
X121053850Y-147484691D01*
X121065136Y-147498811D01*
X121069589Y-147504772D01*
X121075588Y-147515268D01*
X121080167Y-147529093D01*
X121083519Y-147548998D01*
X121085833Y-147577732D01*
X121087301Y-147618045D01*
X121088113Y-147672687D01*
X121088460Y-147744407D01*
X121088534Y-147835956D01*
X121088511Y-147894486D01*
X121088292Y-147973573D01*
X121087683Y-148034516D01*
X121086492Y-148080062D01*
X121084529Y-148112963D01*
X121081603Y-148135968D01*
X121077523Y-148151826D01*
X121072097Y-148163286D01*
X121065136Y-148173100D01*
X121034708Y-148197493D01*
X120999765Y-148200372D01*
X120962784Y-148181282D01*
X120958600Y-148177807D01*
X120950424Y-148169279D01*
X120944364Y-148157728D01*
X120939981Y-148139896D01*
X120936839Y-148112524D01*
X120934502Y-148072354D01*
X120932531Y-148016128D01*
X120930489Y-147940589D01*
X120924845Y-147721458D01*
X120659556Y-147962099D01*
X120585722Y-148028875D01*
X120520542Y-148086991D01*
X120468348Y-148131949D01*
X120427273Y-148164871D01*
X120395455Y-148186879D01*
X120371026Y-148199094D01*
X120352124Y-148202639D01*
X120336883Y-148198636D01*
X120323439Y-148188207D01*
X120309927Y-148172474D01*
X120303682Y-148163991D01*
X120298050Y-148153413D01*
X120293839Y-148139255D01*
X120290887Y-148118803D01*
X120289032Y-148089342D01*
X120288113Y-148048161D01*
X120287968Y-147992544D01*
X120288435Y-147919779D01*
X120289352Y-147827151D01*
X120292667Y-147512199D01*
X120319318Y-147490633D01*
X120345383Y-147474441D01*
X120378241Y-147471670D01*
X120412772Y-147490623D01*
X120417084Y-147494208D01*
X120425216Y-147502737D01*
X120431245Y-147514329D01*
X120435606Y-147532235D01*
X120438734Y-147559706D01*
X120441063Y-147599994D01*
X120443029Y-147656351D01*
X120445067Y-147732029D01*
X120450711Y-147951878D01*
X120631334Y-147788084D01*
X120718072Y-147709451D01*
X120793843Y-147641058D01*
X120855980Y-147585708D01*
X120906078Y-147542338D01*
X120945735Y-147509881D01*
X120976548Y-147487273D01*
X121000114Y-147473448D01*
X121018030Y-147467343D01*
X121031893Y-147467892D01*
G37*
X121829150Y-147474179D02*
X121935157Y-147490494D01*
X122028969Y-147518545D01*
X122107765Y-147557452D01*
X122168719Y-147606334D01*
X122194789Y-147639195D01*
X122224297Y-147688394D01*
X122249568Y-147742252D01*
X122267218Y-147793419D01*
X122273858Y-147834544D01*
X122272298Y-147854259D01*
X122259357Y-147905592D01*
X122236194Y-147962118D01*
X122206302Y-148016035D01*
X122173173Y-148059539D01*
X122162977Y-148069887D01*
X122095892Y-148121662D01*
X122015766Y-148161554D01*
X121929556Y-148185956D01*
X121874592Y-148194068D01*
X121781139Y-148200673D01*
X121691358Y-148198586D01*
X121608869Y-148188340D01*
X121537286Y-148170470D01*
X121480228Y-148145508D01*
X121441311Y-148113988D01*
X121439936Y-148112012D01*
X121432848Y-148086786D01*
X121428609Y-148039535D01*
X121427200Y-147970071D01*
X121428060Y-147907838D01*
X121432780Y-147860456D01*
X121444470Y-147828353D01*
X121466239Y-147808800D01*
X121501198Y-147799070D01*
X121552456Y-147796433D01*
X121623123Y-147798161D01*
X121671743Y-147801173D01*
X121721939Y-147809366D01*
X121754433Y-147823419D01*
X121771892Y-147844654D01*
X121776983Y-147874394D01*
X121776877Y-147878936D01*
X121768175Y-147913730D01*
X121744165Y-147937147D01*
X121702900Y-147950347D01*
X121642431Y-147954489D01*
X121573956Y-147954489D01*
X121573956Y-147992841D01*
X121574006Y-148001976D01*
X121576227Y-148019227D01*
X121585494Y-148029521D01*
X121606875Y-148036459D01*
X121645436Y-148043641D01*
X121650910Y-148044575D01*
X121747860Y-148054478D01*
X121837852Y-148051559D01*
X121918760Y-148036829D01*
X121988459Y-148011299D01*
X122044824Y-147975978D01*
X122085729Y-147931879D01*
X122109051Y-147880012D01*
X122112663Y-147821388D01*
X122107145Y-147792494D01*
X122080461Y-147736604D01*
X122034273Y-147690945D01*
X121969291Y-147656108D01*
X121886229Y-147632690D01*
X121861555Y-147628241D01*
X121772226Y-147617742D01*
X121692419Y-147618971D01*
X121614326Y-147631906D01*
X121579183Y-147638696D01*
X121533745Y-147639713D01*
X121502430Y-147627182D01*
X121482277Y-147600395D01*
X121475893Y-147572148D01*
X121485379Y-147540924D01*
X121494708Y-147527499D01*
X121528943Y-147503967D01*
X121581565Y-147486095D01*
X121650081Y-147474599D01*
X121732000Y-147470192D01*
X121829150Y-147474179D01*
G36*
X121829150Y-147474179D02*
G01*
X121935157Y-147490494D01*
X122028969Y-147518545D01*
X122107765Y-147557452D01*
X122168719Y-147606334D01*
X122194789Y-147639195D01*
X122224297Y-147688394D01*
X122249568Y-147742252D01*
X122267218Y-147793419D01*
X122273858Y-147834544D01*
X122272298Y-147854259D01*
X122259357Y-147905592D01*
X122236194Y-147962118D01*
X122206302Y-148016035D01*
X122173173Y-148059539D01*
X122162977Y-148069887D01*
X122095892Y-148121662D01*
X122015766Y-148161554D01*
X121929556Y-148185956D01*
X121874592Y-148194068D01*
X121781139Y-148200673D01*
X121691358Y-148198586D01*
X121608869Y-148188340D01*
X121537286Y-148170470D01*
X121480228Y-148145508D01*
X121441311Y-148113988D01*
X121439936Y-148112012D01*
X121432848Y-148086786D01*
X121428609Y-148039535D01*
X121427200Y-147970071D01*
X121428060Y-147907838D01*
X121432780Y-147860456D01*
X121444470Y-147828353D01*
X121466239Y-147808800D01*
X121501198Y-147799070D01*
X121552456Y-147796433D01*
X121623123Y-147798161D01*
X121671743Y-147801173D01*
X121721939Y-147809366D01*
X121754433Y-147823419D01*
X121771892Y-147844654D01*
X121776983Y-147874394D01*
X121776877Y-147878936D01*
X121768175Y-147913730D01*
X121744165Y-147937147D01*
X121702900Y-147950347D01*
X121642431Y-147954489D01*
X121573956Y-147954489D01*
X121573956Y-147992841D01*
X121574006Y-148001976D01*
X121576227Y-148019227D01*
X121585494Y-148029521D01*
X121606875Y-148036459D01*
X121645436Y-148043641D01*
X121650910Y-148044575D01*
X121747860Y-148054478D01*
X121837852Y-148051559D01*
X121918760Y-148036829D01*
X121988459Y-148011299D01*
X122044824Y-147975978D01*
X122085729Y-147931879D01*
X122109051Y-147880012D01*
X122112663Y-147821388D01*
X122107145Y-147792494D01*
X122080461Y-147736604D01*
X122034273Y-147690945D01*
X121969291Y-147656108D01*
X121886229Y-147632690D01*
X121861555Y-147628241D01*
X121772226Y-147617742D01*
X121692419Y-147618971D01*
X121614326Y-147631906D01*
X121579183Y-147638696D01*
X121533745Y-147639713D01*
X121502430Y-147627182D01*
X121482277Y-147600395D01*
X121475893Y-147572148D01*
X121485379Y-147540924D01*
X121494708Y-147527499D01*
X121528943Y-147503967D01*
X121581565Y-147486095D01*
X121650081Y-147474599D01*
X121732000Y-147470192D01*
X121829150Y-147474179D01*
G37*
X119879803Y-147498811D02*
X119884752Y-147505495D01*
X119890596Y-147516066D01*
X119895057Y-147530153D01*
X119898321Y-147550478D01*
X119900574Y-147579765D01*
X119902002Y-147620737D01*
X119902792Y-147676117D01*
X119903129Y-147748628D01*
X119903200Y-147840994D01*
X119903171Y-147906911D01*
X119902939Y-147985228D01*
X119902319Y-148045496D01*
X119901126Y-148090393D01*
X119899179Y-148122602D01*
X119896294Y-148144800D01*
X119892288Y-148159669D01*
X119886979Y-148169889D01*
X119880183Y-148178138D01*
X119875668Y-148182795D01*
X119867438Y-148189282D01*
X119856078Y-148194194D01*
X119838810Y-148197749D01*
X119812855Y-148200167D01*
X119775436Y-148201667D01*
X119723773Y-148202467D01*
X119655089Y-148202787D01*
X119566606Y-148202845D01*
X119546931Y-148202838D01*
X119459906Y-148202572D01*
X119392254Y-148201806D01*
X119341299Y-148200392D01*
X119304367Y-148198180D01*
X119278783Y-148195022D01*
X119261871Y-148190769D01*
X119250957Y-148185271D01*
X119240464Y-148175285D01*
X119227203Y-148144168D01*
X119228386Y-148108280D01*
X119244550Y-148076733D01*
X119246739Y-148074457D01*
X119255427Y-148068189D01*
X119268769Y-148063523D01*
X119289752Y-148060227D01*
X119321363Y-148058068D01*
X119366590Y-148056814D01*
X119428420Y-148056231D01*
X119509839Y-148056089D01*
X119756445Y-148056089D01*
X119756445Y-147898045D01*
X119594006Y-147898045D01*
X119558338Y-147897964D01*
X119502568Y-147897167D01*
X119463430Y-147895162D01*
X119436976Y-147891521D01*
X119419259Y-147885812D01*
X119406329Y-147877607D01*
X119402686Y-147874423D01*
X119384278Y-147843448D01*
X119383644Y-147807112D01*
X119401183Y-147773493D01*
X119401245Y-147773424D01*
X119410916Y-147764798D01*
X119424209Y-147758742D01*
X119444917Y-147754811D01*
X119476828Y-147752556D01*
X119523734Y-147751531D01*
X119589424Y-147751289D01*
X119757571Y-147751289D01*
X119754186Y-147686378D01*
X119750800Y-147621467D01*
X119508723Y-147618414D01*
X119483707Y-147618086D01*
X119402087Y-147616606D01*
X119339768Y-147614222D01*
X119294154Y-147610227D01*
X119262652Y-147603913D01*
X119242667Y-147594574D01*
X119231604Y-147581503D01*
X119226869Y-147563992D01*
X119225867Y-147541335D01*
X119225873Y-147538970D01*
X119227027Y-147518939D01*
X119231824Y-147503146D01*
X119242632Y-147491090D01*
X119261817Y-147482267D01*
X119291745Y-147476175D01*
X119334783Y-147472311D01*
X119393299Y-147470174D01*
X119469657Y-147469260D01*
X119566226Y-147469067D01*
X119856406Y-147469067D01*
X119879803Y-147498811D01*
G36*
X119879803Y-147498811D02*
G01*
X119884752Y-147505495D01*
X119890596Y-147516066D01*
X119895057Y-147530153D01*
X119898321Y-147550478D01*
X119900574Y-147579765D01*
X119902002Y-147620737D01*
X119902792Y-147676117D01*
X119903129Y-147748628D01*
X119903200Y-147840994D01*
X119903171Y-147906911D01*
X119902939Y-147985228D01*
X119902319Y-148045496D01*
X119901126Y-148090393D01*
X119899179Y-148122602D01*
X119896294Y-148144800D01*
X119892288Y-148159669D01*
X119886979Y-148169889D01*
X119880183Y-148178138D01*
X119875668Y-148182795D01*
X119867438Y-148189282D01*
X119856078Y-148194194D01*
X119838810Y-148197749D01*
X119812855Y-148200167D01*
X119775436Y-148201667D01*
X119723773Y-148202467D01*
X119655089Y-148202787D01*
X119566606Y-148202845D01*
X119546931Y-148202838D01*
X119459906Y-148202572D01*
X119392254Y-148201806D01*
X119341299Y-148200392D01*
X119304367Y-148198180D01*
X119278783Y-148195022D01*
X119261871Y-148190769D01*
X119250957Y-148185271D01*
X119240464Y-148175285D01*
X119227203Y-148144168D01*
X119228386Y-148108280D01*
X119244550Y-148076733D01*
X119246739Y-148074457D01*
X119255427Y-148068189D01*
X119268769Y-148063523D01*
X119289752Y-148060227D01*
X119321363Y-148058068D01*
X119366590Y-148056814D01*
X119428420Y-148056231D01*
X119509839Y-148056089D01*
X119756445Y-148056089D01*
X119756445Y-147898045D01*
X119594006Y-147898045D01*
X119558338Y-147897964D01*
X119502568Y-147897167D01*
X119463430Y-147895162D01*
X119436976Y-147891521D01*
X119419259Y-147885812D01*
X119406329Y-147877607D01*
X119402686Y-147874423D01*
X119384278Y-147843448D01*
X119383644Y-147807112D01*
X119401183Y-147773493D01*
X119401245Y-147773424D01*
X119410916Y-147764798D01*
X119424209Y-147758742D01*
X119444917Y-147754811D01*
X119476828Y-147752556D01*
X119523734Y-147751531D01*
X119589424Y-147751289D01*
X119757571Y-147751289D01*
X119754186Y-147686378D01*
X119750800Y-147621467D01*
X119508723Y-147618414D01*
X119483707Y-147618086D01*
X119402087Y-147616606D01*
X119339768Y-147614222D01*
X119294154Y-147610227D01*
X119262652Y-147603913D01*
X119242667Y-147594574D01*
X119231604Y-147581503D01*
X119226869Y-147563992D01*
X119225867Y-147541335D01*
X119225873Y-147538970D01*
X119227027Y-147518939D01*
X119231824Y-147503146D01*
X119242632Y-147491090D01*
X119261817Y-147482267D01*
X119291745Y-147476175D01*
X119334783Y-147472311D01*
X119393299Y-147470174D01*
X119469657Y-147469260D01*
X119566226Y-147469067D01*
X119856406Y-147469067D01*
X119879803Y-147498811D01*
G37*
X124556734Y-147469083D02*
X124633831Y-147469275D01*
X124692777Y-147469860D01*
X124736364Y-147471051D01*
X124767383Y-147473064D01*
X124788625Y-147476112D01*
X124802882Y-147480409D01*
X124812945Y-147486172D01*
X124821606Y-147493612D01*
X124823391Y-147495293D01*
X124830635Y-147502832D01*
X124836277Y-147511850D01*
X124840517Y-147524984D01*
X124843556Y-147544872D01*
X124845594Y-147574151D01*
X124846830Y-147615458D01*
X124847465Y-147671431D01*
X124847700Y-147744707D01*
X124847734Y-147837923D01*
X124847697Y-147910713D01*
X124847448Y-147988889D01*
X124846812Y-148049103D01*
X124845615Y-148093982D01*
X124843684Y-148126152D01*
X124840846Y-148148239D01*
X124836927Y-148162870D01*
X124831755Y-148172670D01*
X124825156Y-148180267D01*
X124821822Y-148183444D01*
X124813300Y-148189554D01*
X124801298Y-148194229D01*
X124783087Y-148197659D01*
X124755940Y-148200036D01*
X124717129Y-148201552D01*
X124663924Y-148202398D01*
X124593598Y-148202765D01*
X124503422Y-148202845D01*
X124461314Y-148202833D01*
X124380167Y-148202651D01*
X124317675Y-148202098D01*
X124271109Y-148200982D01*
X124237741Y-148199113D01*
X124214844Y-148196298D01*
X124199688Y-148192346D01*
X124189546Y-148187066D01*
X124181689Y-148180267D01*
X124166963Y-148158667D01*
X124159111Y-148129467D01*
X124164610Y-148105560D01*
X124181689Y-148078667D01*
X124186668Y-148074059D01*
X124196443Y-148067772D01*
X124210559Y-148063146D01*
X124232054Y-148059930D01*
X124263968Y-148057870D01*
X124309342Y-148056712D01*
X124371213Y-148056202D01*
X124452622Y-148056089D01*
X124700978Y-148056089D01*
X124700978Y-147898045D01*
X124539801Y-147898045D01*
X124503983Y-147897899D01*
X124438359Y-147896176D01*
X124391118Y-147891741D01*
X124359383Y-147883637D01*
X124340277Y-147870906D01*
X124330923Y-147852592D01*
X124328445Y-147827738D01*
X124329242Y-147807482D01*
X124334494Y-147785656D01*
X124347288Y-147770304D01*
X124370628Y-147760309D01*
X124407517Y-147754553D01*
X124460959Y-147751919D01*
X124533958Y-147751289D01*
X124702105Y-147751289D01*
X124698719Y-147686378D01*
X124695334Y-147621467D01*
X124447617Y-147618418D01*
X124385026Y-147617539D01*
X124316565Y-147616095D01*
X124265661Y-147614164D01*
X124229408Y-147611514D01*
X124204901Y-147607910D01*
X124189235Y-147603121D01*
X124179506Y-147596913D01*
X124173491Y-147590510D01*
X124160482Y-147558828D01*
X124164043Y-147523142D01*
X124183818Y-147492084D01*
X124187069Y-147489161D01*
X124196049Y-147482810D01*
X124208153Y-147477957D01*
X124226159Y-147474403D01*
X124252847Y-147471946D01*
X124290997Y-147470385D01*
X124343386Y-147469518D01*
X124412794Y-147469146D01*
X124502001Y-147469067D01*
X124556734Y-147469083D01*
G36*
X124556734Y-147469083D02*
G01*
X124633831Y-147469275D01*
X124692777Y-147469860D01*
X124736364Y-147471051D01*
X124767383Y-147473064D01*
X124788625Y-147476112D01*
X124802882Y-147480409D01*
X124812945Y-147486172D01*
X124821606Y-147493612D01*
X124823391Y-147495293D01*
X124830635Y-147502832D01*
X124836277Y-147511850D01*
X124840517Y-147524984D01*
X124843556Y-147544872D01*
X124845594Y-147574151D01*
X124846830Y-147615458D01*
X124847465Y-147671431D01*
X124847700Y-147744707D01*
X124847734Y-147837923D01*
X124847697Y-147910713D01*
X124847448Y-147988889D01*
X124846812Y-148049103D01*
X124845615Y-148093982D01*
X124843684Y-148126152D01*
X124840846Y-148148239D01*
X124836927Y-148162870D01*
X124831755Y-148172670D01*
X124825156Y-148180267D01*
X124821822Y-148183444D01*
X124813300Y-148189554D01*
X124801298Y-148194229D01*
X124783087Y-148197659D01*
X124755940Y-148200036D01*
X124717129Y-148201552D01*
X124663924Y-148202398D01*
X124593598Y-148202765D01*
X124503422Y-148202845D01*
X124461314Y-148202833D01*
X124380167Y-148202651D01*
X124317675Y-148202098D01*
X124271109Y-148200982D01*
X124237741Y-148199113D01*
X124214844Y-148196298D01*
X124199688Y-148192346D01*
X124189546Y-148187066D01*
X124181689Y-148180267D01*
X124166963Y-148158667D01*
X124159111Y-148129467D01*
X124164610Y-148105560D01*
X124181689Y-148078667D01*
X124186668Y-148074059D01*
X124196443Y-148067772D01*
X124210559Y-148063146D01*
X124232054Y-148059930D01*
X124263968Y-148057870D01*
X124309342Y-148056712D01*
X124371213Y-148056202D01*
X124452622Y-148056089D01*
X124700978Y-148056089D01*
X124700978Y-147898045D01*
X124539801Y-147898045D01*
X124503983Y-147897899D01*
X124438359Y-147896176D01*
X124391118Y-147891741D01*
X124359383Y-147883637D01*
X124340277Y-147870906D01*
X124330923Y-147852592D01*
X124328445Y-147827738D01*
X124329242Y-147807482D01*
X124334494Y-147785656D01*
X124347288Y-147770304D01*
X124370628Y-147760309D01*
X124407517Y-147754553D01*
X124460959Y-147751919D01*
X124533958Y-147751289D01*
X124702105Y-147751289D01*
X124698719Y-147686378D01*
X124695334Y-147621467D01*
X124447617Y-147618418D01*
X124385026Y-147617539D01*
X124316565Y-147616095D01*
X124265661Y-147614164D01*
X124229408Y-147611514D01*
X124204901Y-147607910D01*
X124189235Y-147603121D01*
X124179506Y-147596913D01*
X124173491Y-147590510D01*
X124160482Y-147558828D01*
X124164043Y-147523142D01*
X124183818Y-147492084D01*
X124187069Y-147489161D01*
X124196049Y-147482810D01*
X124208153Y-147477957D01*
X124226159Y-147474403D01*
X124252847Y-147471946D01*
X124290997Y-147470385D01*
X124343386Y-147469518D01*
X124412794Y-147469146D01*
X124502001Y-147469067D01*
X124556734Y-147469083D01*
G37*
X115989702Y-147478478D02*
X116007663Y-147496989D01*
X116028263Y-147528071D01*
X116053095Y-147573756D01*
X116083750Y-147636078D01*
X116121820Y-147717071D01*
X116136454Y-147748454D01*
X116166203Y-147811638D01*
X116192297Y-147866244D01*
X116213292Y-147909290D01*
X116227739Y-147937793D01*
X116234191Y-147948770D01*
X116235550Y-147948189D01*
X116245542Y-147934242D01*
X116262833Y-147904704D01*
X116285430Y-147863087D01*
X116311338Y-147812903D01*
X116327311Y-147781414D01*
X116356261Y-147726061D01*
X116378749Y-147687044D01*
X116396965Y-147661566D01*
X116413096Y-147646831D01*
X116429330Y-147640042D01*
X116447857Y-147638400D01*
X116458360Y-147638875D01*
X116474476Y-147643082D01*
X116489790Y-147653946D01*
X116506388Y-147674219D01*
X116526357Y-147706654D01*
X116551783Y-147754004D01*
X116584752Y-147819022D01*
X116594485Y-147838277D01*
X116618943Y-147884946D01*
X116639178Y-147921109D01*
X116653311Y-147943497D01*
X116659460Y-147948845D01*
X116660827Y-147945573D01*
X116670202Y-147924664D01*
X116687062Y-147887725D01*
X116709979Y-147837874D01*
X116737520Y-147778226D01*
X116768255Y-147711898D01*
X116794970Y-147654677D01*
X116824593Y-147592688D01*
X116847664Y-147546949D01*
X116865643Y-147514908D01*
X116879990Y-147494014D01*
X116892166Y-147481718D01*
X116903632Y-147475466D01*
X116913042Y-147472574D01*
X116938147Y-147472425D01*
X116965290Y-147487768D01*
X116966590Y-147488753D01*
X116988674Y-147511388D01*
X116999723Y-147533613D01*
X116999769Y-147534253D01*
X116995228Y-147551915D01*
X116982364Y-147586481D01*
X116962605Y-147634826D01*
X116937381Y-147693825D01*
X116908119Y-147760355D01*
X116876250Y-147831291D01*
X116843201Y-147903507D01*
X116810401Y-147973880D01*
X116779280Y-148039285D01*
X116751265Y-148096597D01*
X116727786Y-148142692D01*
X116710272Y-148174446D01*
X116700151Y-148188733D01*
X116665743Y-148202102D01*
X116624046Y-148195741D01*
X116618681Y-148191044D01*
X116602852Y-148168893D01*
X116580650Y-148132132D01*
X116554233Y-148084415D01*
X116525760Y-148029393D01*
X116445986Y-147870150D01*
X116372799Y-148016742D01*
X116363103Y-148036032D01*
X116336125Y-148088380D01*
X116312096Y-148133170D01*
X116293332Y-148166154D01*
X116282146Y-148183089D01*
X116281000Y-148184332D01*
X116252879Y-148199619D01*
X116217817Y-148201302D01*
X116186776Y-148188733D01*
X116184350Y-148185884D01*
X116172090Y-148165259D01*
X116152352Y-148127708D01*
X116126448Y-148075880D01*
X116095685Y-148012423D01*
X116061375Y-147939985D01*
X116024825Y-147861216D01*
X116004585Y-147817093D01*
X115967812Y-147736365D01*
X115939355Y-147672687D01*
X115918331Y-147623752D01*
X115903854Y-147587257D01*
X115895039Y-147560895D01*
X115891004Y-147542361D01*
X115890862Y-147529352D01*
X115893730Y-147519561D01*
X115908387Y-147498678D01*
X115934990Y-147478377D01*
X115935745Y-147478035D01*
X115955335Y-147471034D01*
X115972790Y-147470504D01*
X115989702Y-147478478D01*
G36*
X115989702Y-147478478D02*
G01*
X116007663Y-147496989D01*
X116028263Y-147528071D01*
X116053095Y-147573756D01*
X116083750Y-147636078D01*
X116121820Y-147717071D01*
X116136454Y-147748454D01*
X116166203Y-147811638D01*
X116192297Y-147866244D01*
X116213292Y-147909290D01*
X116227739Y-147937793D01*
X116234191Y-147948770D01*
X116235550Y-147948189D01*
X116245542Y-147934242D01*
X116262833Y-147904704D01*
X116285430Y-147863087D01*
X116311338Y-147812903D01*
X116327311Y-147781414D01*
X116356261Y-147726061D01*
X116378749Y-147687044D01*
X116396965Y-147661566D01*
X116413096Y-147646831D01*
X116429330Y-147640042D01*
X116447857Y-147638400D01*
X116458360Y-147638875D01*
X116474476Y-147643082D01*
X116489790Y-147653946D01*
X116506388Y-147674219D01*
X116526357Y-147706654D01*
X116551783Y-147754004D01*
X116584752Y-147819022D01*
X116594485Y-147838277D01*
X116618943Y-147884946D01*
X116639178Y-147921109D01*
X116653311Y-147943497D01*
X116659460Y-147948845D01*
X116660827Y-147945573D01*
X116670202Y-147924664D01*
X116687062Y-147887725D01*
X116709979Y-147837874D01*
X116737520Y-147778226D01*
X116768255Y-147711898D01*
X116794970Y-147654677D01*
X116824593Y-147592688D01*
X116847664Y-147546949D01*
X116865643Y-147514908D01*
X116879990Y-147494014D01*
X116892166Y-147481718D01*
X116903632Y-147475466D01*
X116913042Y-147472574D01*
X116938147Y-147472425D01*
X116965290Y-147487768D01*
X116966590Y-147488753D01*
X116988674Y-147511388D01*
X116999723Y-147533613D01*
X116999769Y-147534253D01*
X116995228Y-147551915D01*
X116982364Y-147586481D01*
X116962605Y-147634826D01*
X116937381Y-147693825D01*
X116908119Y-147760355D01*
X116876250Y-147831291D01*
X116843201Y-147903507D01*
X116810401Y-147973880D01*
X116779280Y-148039285D01*
X116751265Y-148096597D01*
X116727786Y-148142692D01*
X116710272Y-148174446D01*
X116700151Y-148188733D01*
X116665743Y-148202102D01*
X116624046Y-148195741D01*
X116618681Y-148191044D01*
X116602852Y-148168893D01*
X116580650Y-148132132D01*
X116554233Y-148084415D01*
X116525760Y-148029393D01*
X116445986Y-147870150D01*
X116372799Y-148016742D01*
X116363103Y-148036032D01*
X116336125Y-148088380D01*
X116312096Y-148133170D01*
X116293332Y-148166154D01*
X116282146Y-148183089D01*
X116281000Y-148184332D01*
X116252879Y-148199619D01*
X116217817Y-148201302D01*
X116186776Y-148188733D01*
X116184350Y-148185884D01*
X116172090Y-148165259D01*
X116152352Y-148127708D01*
X116126448Y-148075880D01*
X116095685Y-148012423D01*
X116061375Y-147939985D01*
X116024825Y-147861216D01*
X116004585Y-147817093D01*
X115967812Y-147736365D01*
X115939355Y-147672687D01*
X115918331Y-147623752D01*
X115903854Y-147587257D01*
X115895039Y-147560895D01*
X115891004Y-147542361D01*
X115890862Y-147529352D01*
X115893730Y-147519561D01*
X115908387Y-147498678D01*
X115934990Y-147478377D01*
X115935745Y-147478035D01*
X115955335Y-147471034D01*
X115972790Y-147470504D01*
X115989702Y-147478478D01*
G37*
X123540853Y-147469936D02*
X123607100Y-147475366D01*
X123662400Y-147484964D01*
X123713283Y-147499825D01*
X123784595Y-147532958D01*
X123835752Y-147575640D01*
X123866575Y-147627705D01*
X123876889Y-147688983D01*
X123875952Y-147720232D01*
X123870160Y-147745029D01*
X123855353Y-147766699D01*
X123827380Y-147794049D01*
X123819402Y-147801378D01*
X123795692Y-147822281D01*
X123773298Y-147839251D01*
X123749265Y-147853205D01*
X123720637Y-147865056D01*
X123684460Y-147875720D01*
X123637780Y-147886111D01*
X123577641Y-147897146D01*
X123501090Y-147909738D01*
X123405171Y-147924804D01*
X123386808Y-147927838D01*
X123324478Y-147941458D01*
X123279260Y-147957192D01*
X123252976Y-147974263D01*
X123247447Y-147991897D01*
X123250068Y-147996168D01*
X123268000Y-148011233D01*
X123296126Y-148027867D01*
X123308926Y-148033857D01*
X123330224Y-148041050D01*
X123356610Y-148045827D01*
X123392454Y-148048646D01*
X123442128Y-148049964D01*
X123510000Y-148050237D01*
X123527785Y-148050164D01*
X123595406Y-148049053D01*
X123660345Y-148046828D01*
X123715970Y-148043762D01*
X123755651Y-148040127D01*
X123791162Y-148036059D01*
X123820415Y-148035276D01*
X123839315Y-148039876D01*
X123854429Y-148050551D01*
X123858085Y-148054144D01*
X123874427Y-148085918D01*
X123873107Y-148121572D01*
X123854150Y-148152190D01*
X123833780Y-148163796D01*
X123797796Y-148176491D01*
X123755372Y-148186541D01*
X123751922Y-148187140D01*
X123709252Y-148192356D01*
X123651866Y-148196730D01*
X123586849Y-148199818D01*
X123521289Y-148201177D01*
X123505057Y-148201218D01*
X123406744Y-148198741D01*
X123326692Y-148190735D01*
X123261513Y-148176203D01*
X123207817Y-148154149D01*
X123162216Y-148123576D01*
X123121323Y-148083486D01*
X123101202Y-148057259D01*
X123089576Y-148027712D01*
X123086667Y-147987995D01*
X123086808Y-147976026D01*
X123090681Y-147943345D01*
X123103065Y-147916819D01*
X123128230Y-147885971D01*
X123149442Y-147863831D01*
X123175838Y-147841285D01*
X123205555Y-147822917D01*
X123241785Y-147807661D01*
X123287717Y-147794449D01*
X123346544Y-147782214D01*
X123421456Y-147769889D01*
X123515645Y-147756406D01*
X123560957Y-147749396D01*
X123628911Y-147734837D01*
X123678047Y-147718337D01*
X123707614Y-147700439D01*
X123716864Y-147681685D01*
X123705048Y-147662615D01*
X123671416Y-147643771D01*
X123668370Y-147642557D01*
X123622011Y-147630479D01*
X123559361Y-147622279D01*
X123485927Y-147618119D01*
X123407217Y-147618161D01*
X123328739Y-147622569D01*
X123256000Y-147631505D01*
X123252073Y-147632154D01*
X123203257Y-147639861D01*
X123171005Y-147643473D01*
X123150008Y-147642876D01*
X123134954Y-147637954D01*
X123120534Y-147628596D01*
X123119364Y-147627725D01*
X123094847Y-147597351D01*
X123090054Y-147561850D01*
X123105860Y-147527269D01*
X123110406Y-147522813D01*
X123140020Y-147507673D01*
X123187002Y-147494550D01*
X123247306Y-147483750D01*
X123316888Y-147475581D01*
X123391703Y-147470351D01*
X123467706Y-147468367D01*
X123540853Y-147469936D01*
G36*
X123540853Y-147469936D02*
G01*
X123607100Y-147475366D01*
X123662400Y-147484964D01*
X123713283Y-147499825D01*
X123784595Y-147532958D01*
X123835752Y-147575640D01*
X123866575Y-147627705D01*
X123876889Y-147688983D01*
X123875952Y-147720232D01*
X123870160Y-147745029D01*
X123855353Y-147766699D01*
X123827380Y-147794049D01*
X123819402Y-147801378D01*
X123795692Y-147822281D01*
X123773298Y-147839251D01*
X123749265Y-147853205D01*
X123720637Y-147865056D01*
X123684460Y-147875720D01*
X123637780Y-147886111D01*
X123577641Y-147897146D01*
X123501090Y-147909738D01*
X123405171Y-147924804D01*
X123386808Y-147927838D01*
X123324478Y-147941458D01*
X123279260Y-147957192D01*
X123252976Y-147974263D01*
X123247447Y-147991897D01*
X123250068Y-147996168D01*
X123268000Y-148011233D01*
X123296126Y-148027867D01*
X123308926Y-148033857D01*
X123330224Y-148041050D01*
X123356610Y-148045827D01*
X123392454Y-148048646D01*
X123442128Y-148049964D01*
X123510000Y-148050237D01*
X123527785Y-148050164D01*
X123595406Y-148049053D01*
X123660345Y-148046828D01*
X123715970Y-148043762D01*
X123755651Y-148040127D01*
X123791162Y-148036059D01*
X123820415Y-148035276D01*
X123839315Y-148039876D01*
X123854429Y-148050551D01*
X123858085Y-148054144D01*
X123874427Y-148085918D01*
X123873107Y-148121572D01*
X123854150Y-148152190D01*
X123833780Y-148163796D01*
X123797796Y-148176491D01*
X123755372Y-148186541D01*
X123751922Y-148187140D01*
X123709252Y-148192356D01*
X123651866Y-148196730D01*
X123586849Y-148199818D01*
X123521289Y-148201177D01*
X123505057Y-148201218D01*
X123406744Y-148198741D01*
X123326692Y-148190735D01*
X123261513Y-148176203D01*
X123207817Y-148154149D01*
X123162216Y-148123576D01*
X123121323Y-148083486D01*
X123101202Y-148057259D01*
X123089576Y-148027712D01*
X123086667Y-147987995D01*
X123086808Y-147976026D01*
X123090681Y-147943345D01*
X123103065Y-147916819D01*
X123128230Y-147885971D01*
X123149442Y-147863831D01*
X123175838Y-147841285D01*
X123205555Y-147822917D01*
X123241785Y-147807661D01*
X123287717Y-147794449D01*
X123346544Y-147782214D01*
X123421456Y-147769889D01*
X123515645Y-147756406D01*
X123560957Y-147749396D01*
X123628911Y-147734837D01*
X123678047Y-147718337D01*
X123707614Y-147700439D01*
X123716864Y-147681685D01*
X123705048Y-147662615D01*
X123671416Y-147643771D01*
X123668370Y-147642557D01*
X123622011Y-147630479D01*
X123559361Y-147622279D01*
X123485927Y-147618119D01*
X123407217Y-147618161D01*
X123328739Y-147622569D01*
X123256000Y-147631505D01*
X123252073Y-147632154D01*
X123203257Y-147639861D01*
X123171005Y-147643473D01*
X123150008Y-147642876D01*
X123134954Y-147637954D01*
X123120534Y-147628596D01*
X123119364Y-147627725D01*
X123094847Y-147597351D01*
X123090054Y-147561850D01*
X123105860Y-147527269D01*
X123110406Y-147522813D01*
X123140020Y-147507673D01*
X123187002Y-147494550D01*
X123247306Y-147483750D01*
X123316888Y-147475581D01*
X123391703Y-147470351D01*
X123467706Y-147468367D01*
X123540853Y-147469936D01*
G37*
X119688711Y-143162033D02*
X119784268Y-143179523D01*
X119948558Y-143224564D01*
X120102589Y-143287656D01*
X120248509Y-143369915D01*
X120388466Y-143472457D01*
X120524608Y-143596399D01*
X120568473Y-143641661D01*
X120680758Y-143773865D01*
X120773972Y-143911832D01*
X120850719Y-144059750D01*
X120913603Y-144221803D01*
X120917420Y-144233391D01*
X120967507Y-144419392D01*
X121000899Y-144615521D01*
X121017584Y-144817568D01*
X121017551Y-145021325D01*
X121000791Y-145222581D01*
X120967292Y-145417128D01*
X120917044Y-145600756D01*
X120873190Y-145718053D01*
X120795348Y-145880951D01*
X120701828Y-146034866D01*
X120594822Y-146176671D01*
X120476519Y-146303239D01*
X120349111Y-146411441D01*
X120271606Y-146464120D01*
X120144725Y-146533750D01*
X120007243Y-146592468D01*
X119865716Y-146637587D01*
X119726702Y-146666422D01*
X119712597Y-146668106D01*
X119669153Y-146671434D01*
X119611723Y-146674275D01*
X119546122Y-146676373D01*
X119478167Y-146677468D01*
X119351378Y-146675140D01*
X119203673Y-146662136D01*
X119065779Y-146637133D01*
X118932014Y-146599318D01*
X118908562Y-146590889D01*
X118860612Y-146571408D01*
X118804140Y-146546473D01*
X118742379Y-146517722D01*
X118678563Y-146486790D01*
X118615926Y-146455315D01*
X118557703Y-146424934D01*
X118507127Y-146397283D01*
X118467433Y-146373999D01*
X118441854Y-146356718D01*
X118433625Y-146347079D01*
X118435076Y-146343984D01*
X118446250Y-146324079D01*
X118467134Y-146288420D01*
X118496265Y-146239459D01*
X118532181Y-146179646D01*
X118573420Y-146111433D01*
X118618517Y-146037271D01*
X118799785Y-145740008D01*
X118846315Y-145784539D01*
X118937723Y-145862865D01*
X119051334Y-145937439D01*
X119169122Y-145991474D01*
X119289559Y-146024290D01*
X119411117Y-146035211D01*
X119452585Y-146033868D01*
X119570080Y-146015612D01*
X119680089Y-145976617D01*
X119781430Y-145917670D01*
X119872921Y-145839557D01*
X119953380Y-145743064D01*
X120021627Y-145628978D01*
X120037908Y-145594724D01*
X120083982Y-145471240D01*
X120119106Y-145332918D01*
X120143197Y-145183561D01*
X120156173Y-145026973D01*
X120157949Y-144866956D01*
X120148443Y-144707314D01*
X120127572Y-144551850D01*
X120095252Y-144404366D01*
X120051399Y-144268667D01*
X120013982Y-144182076D01*
X119949185Y-144068688D01*
X119873772Y-143975070D01*
X119787418Y-143900959D01*
X119689795Y-143846094D01*
X119580577Y-143810212D01*
X119459439Y-143793051D01*
X119390038Y-143791880D01*
X119267168Y-143806141D01*
X119151664Y-143841241D01*
X119044953Y-143896682D01*
X118948464Y-143971964D01*
X118932720Y-143986440D01*
X118902150Y-144012962D01*
X118879809Y-144030138D01*
X118869691Y-144034787D01*
X118867706Y-144032597D01*
X118853241Y-144013721D01*
X118829400Y-143980397D01*
X118798029Y-143935380D01*
X118760974Y-143881425D01*
X118720083Y-143821285D01*
X118677202Y-143757718D01*
X118634178Y-143693476D01*
X118592857Y-143631315D01*
X118555086Y-143573991D01*
X118522712Y-143524257D01*
X118497582Y-143484868D01*
X118481542Y-143458580D01*
X118476439Y-143448147D01*
X118481050Y-143443941D01*
X118500267Y-143438933D01*
X118509838Y-143436386D01*
X118537809Y-143425249D01*
X118579448Y-143406802D01*
X118630995Y-143382725D01*
X118688690Y-143354699D01*
X118699957Y-143349154D01*
X118877687Y-143269889D01*
X119047490Y-143210385D01*
X119211430Y-143170245D01*
X119371571Y-143149071D01*
X119529977Y-143146466D01*
X119688711Y-143162033D01*
G36*
X119688711Y-143162033D02*
G01*
X119784268Y-143179523D01*
X119948558Y-143224564D01*
X120102589Y-143287656D01*
X120248509Y-143369915D01*
X120388466Y-143472457D01*
X120524608Y-143596399D01*
X120568473Y-143641661D01*
X120680758Y-143773865D01*
X120773972Y-143911832D01*
X120850719Y-144059750D01*
X120913603Y-144221803D01*
X120917420Y-144233391D01*
X120967507Y-144419392D01*
X121000899Y-144615521D01*
X121017584Y-144817568D01*
X121017551Y-145021325D01*
X121000791Y-145222581D01*
X120967292Y-145417128D01*
X120917044Y-145600756D01*
X120873190Y-145718053D01*
X120795348Y-145880951D01*
X120701828Y-146034866D01*
X120594822Y-146176671D01*
X120476519Y-146303239D01*
X120349111Y-146411441D01*
X120271606Y-146464120D01*
X120144725Y-146533750D01*
X120007243Y-146592468D01*
X119865716Y-146637587D01*
X119726702Y-146666422D01*
X119712597Y-146668106D01*
X119669153Y-146671434D01*
X119611723Y-146674275D01*
X119546122Y-146676373D01*
X119478167Y-146677468D01*
X119351378Y-146675140D01*
X119203673Y-146662136D01*
X119065779Y-146637133D01*
X118932014Y-146599318D01*
X118908562Y-146590889D01*
X118860612Y-146571408D01*
X118804140Y-146546473D01*
X118742379Y-146517722D01*
X118678563Y-146486790D01*
X118615926Y-146455315D01*
X118557703Y-146424934D01*
X118507127Y-146397283D01*
X118467433Y-146373999D01*
X118441854Y-146356718D01*
X118433625Y-146347079D01*
X118435076Y-146343984D01*
X118446250Y-146324079D01*
X118467134Y-146288420D01*
X118496265Y-146239459D01*
X118532181Y-146179646D01*
X118573420Y-146111433D01*
X118618517Y-146037271D01*
X118799785Y-145740008D01*
X118846315Y-145784539D01*
X118937723Y-145862865D01*
X119051334Y-145937439D01*
X119169122Y-145991474D01*
X119289559Y-146024290D01*
X119411117Y-146035211D01*
X119452585Y-146033868D01*
X119570080Y-146015612D01*
X119680089Y-145976617D01*
X119781430Y-145917670D01*
X119872921Y-145839557D01*
X119953380Y-145743064D01*
X120021627Y-145628978D01*
X120037908Y-145594724D01*
X120083982Y-145471240D01*
X120119106Y-145332918D01*
X120143197Y-145183561D01*
X120156173Y-145026973D01*
X120157949Y-144866956D01*
X120148443Y-144707314D01*
X120127572Y-144551850D01*
X120095252Y-144404366D01*
X120051399Y-144268667D01*
X120013982Y-144182076D01*
X119949185Y-144068688D01*
X119873772Y-143975070D01*
X119787418Y-143900959D01*
X119689795Y-143846094D01*
X119580577Y-143810212D01*
X119459439Y-143793051D01*
X119390038Y-143791880D01*
X119267168Y-143806141D01*
X119151664Y-143841241D01*
X119044953Y-143896682D01*
X118948464Y-143971964D01*
X118932720Y-143986440D01*
X118902150Y-144012962D01*
X118879809Y-144030138D01*
X118869691Y-144034787D01*
X118867706Y-144032597D01*
X118853241Y-144013721D01*
X118829400Y-143980397D01*
X118798029Y-143935380D01*
X118760974Y-143881425D01*
X118720083Y-143821285D01*
X118677202Y-143757718D01*
X118634178Y-143693476D01*
X118592857Y-143631315D01*
X118555086Y-143573991D01*
X118522712Y-143524257D01*
X118497582Y-143484868D01*
X118481542Y-143458580D01*
X118476439Y-143448147D01*
X118481050Y-143443941D01*
X118500267Y-143438933D01*
X118509838Y-143436386D01*
X118537809Y-143425249D01*
X118579448Y-143406802D01*
X118630995Y-143382725D01*
X118688690Y-143354699D01*
X118699957Y-143349154D01*
X118877687Y-143269889D01*
X119047490Y-143210385D01*
X119211430Y-143170245D01*
X119371571Y-143149071D01*
X119529977Y-143146466D01*
X119688711Y-143162033D01*
G37*
X115885994Y-145442711D02*
X115885268Y-145520158D01*
X115876689Y-145671594D01*
X115857833Y-145808283D01*
X115827837Y-145934276D01*
X115785836Y-146053625D01*
X115730969Y-146170381D01*
X115664167Y-146281179D01*
X115573363Y-146394739D01*
X115469708Y-146490211D01*
X115353887Y-146567073D01*
X115226586Y-146624797D01*
X115088489Y-146662858D01*
X115050793Y-146668666D01*
X114971752Y-146674396D01*
X114883629Y-146674583D01*
X114794236Y-146669539D01*
X114711384Y-146659578D01*
X114642887Y-146645012D01*
X114612035Y-146635364D01*
X114534730Y-146605123D01*
X114457679Y-146567617D01*
X114388200Y-146526614D01*
X114333615Y-146485879D01*
X114310916Y-146466505D01*
X114288201Y-146448662D01*
X114276779Y-146441778D01*
X114275537Y-146443424D01*
X114272728Y-146461205D01*
X114270776Y-146494370D01*
X114270045Y-146537733D01*
X114270045Y-146633689D01*
X113411896Y-146633689D01*
X113446161Y-146572974D01*
X113451355Y-146563868D01*
X113459715Y-146549249D01*
X113467288Y-146535173D01*
X113474112Y-146520540D01*
X113480227Y-146504249D01*
X113485673Y-146485198D01*
X113490487Y-146462286D01*
X113494708Y-146434413D01*
X113498377Y-146400478D01*
X113501531Y-146359379D01*
X113504211Y-146310015D01*
X113506454Y-146251286D01*
X113508299Y-146182090D01*
X113509787Y-146101326D01*
X113510955Y-146007894D01*
X113511844Y-145900692D01*
X113512491Y-145778620D01*
X113512936Y-145640576D01*
X113513218Y-145485459D01*
X113513375Y-145312168D01*
X113513448Y-145119603D01*
X113513474Y-144906662D01*
X113513485Y-144770530D01*
X114315200Y-144770530D01*
X114315200Y-145920721D01*
X114385756Y-145967089D01*
X114426417Y-145990791D01*
X114480546Y-146016639D01*
X114529689Y-146034829D01*
X114593165Y-146050551D01*
X114689331Y-146061541D01*
X114773900Y-146053365D01*
X114847219Y-146025805D01*
X114909637Y-145978642D01*
X114961502Y-145911658D01*
X115003160Y-145824633D01*
X115034962Y-145717350D01*
X115037545Y-145705009D01*
X115046000Y-145643772D01*
X115051663Y-145566692D01*
X115054576Y-145479002D01*
X115054783Y-145385934D01*
X115052330Y-145292720D01*
X115047261Y-145204594D01*
X115039619Y-145126788D01*
X115029448Y-145064533D01*
X115028167Y-145058666D01*
X114999126Y-144948121D01*
X114964610Y-144857575D01*
X114923456Y-144784953D01*
X114874499Y-144728181D01*
X114816574Y-144685184D01*
X114784620Y-144669615D01*
X114711784Y-144650722D01*
X114630443Y-144647465D01*
X114545319Y-144659389D01*
X114461133Y-144686040D01*
X114382608Y-144726962D01*
X114315200Y-144770530D01*
X113513485Y-144770530D01*
X113513493Y-144672245D01*
X113513689Y-142987378D01*
X114419017Y-142987378D01*
X114394585Y-143024067D01*
X114388318Y-143033647D01*
X114362208Y-143079981D01*
X114344469Y-143127102D01*
X114332908Y-143182251D01*
X114325331Y-143252667D01*
X114324839Y-143259650D01*
X114323062Y-143297641D01*
X114321444Y-143351576D01*
X114319999Y-143418703D01*
X114318740Y-143496271D01*
X114317680Y-143581528D01*
X114316829Y-143671724D01*
X114316203Y-143764107D01*
X114315812Y-143855925D01*
X114315670Y-143944427D01*
X114315790Y-144026862D01*
X114316183Y-144100479D01*
X114316862Y-144162526D01*
X114317841Y-144210251D01*
X114319132Y-144240904D01*
X114320747Y-144251733D01*
X114328957Y-144247333D01*
X114350647Y-144232362D01*
X114380014Y-144210448D01*
X114428879Y-144176236D01*
X114517125Y-144129714D01*
X114615916Y-144096046D01*
X114728510Y-144074231D01*
X114858164Y-144063265D01*
X114950670Y-144062219D01*
X115072011Y-144072014D01*
X115182099Y-144096174D01*
X115285389Y-144135785D01*
X115386338Y-144191932D01*
X115431503Y-144222883D01*
X115536911Y-144314115D01*
X115628538Y-144423106D01*
X115706332Y-144549726D01*
X115770241Y-144693845D01*
X115820214Y-144855332D01*
X115856198Y-145034059D01*
X115878143Y-145229895D01*
X115883900Y-145385934D01*
X115885994Y-145442711D01*
G36*
X115885994Y-145442711D02*
G01*
X115885268Y-145520158D01*
X115876689Y-145671594D01*
X115857833Y-145808283D01*
X115827837Y-145934276D01*
X115785836Y-146053625D01*
X115730969Y-146170381D01*
X115664167Y-146281179D01*
X115573363Y-146394739D01*
X115469708Y-146490211D01*
X115353887Y-146567073D01*
X115226586Y-146624797D01*
X115088489Y-146662858D01*
X115050793Y-146668666D01*
X114971752Y-146674396D01*
X114883629Y-146674583D01*
X114794236Y-146669539D01*
X114711384Y-146659578D01*
X114642887Y-146645012D01*
X114612035Y-146635364D01*
X114534730Y-146605123D01*
X114457679Y-146567617D01*
X114388200Y-146526614D01*
X114333615Y-146485879D01*
X114310916Y-146466505D01*
X114288201Y-146448662D01*
X114276779Y-146441778D01*
X114275537Y-146443424D01*
X114272728Y-146461205D01*
X114270776Y-146494370D01*
X114270045Y-146537733D01*
X114270045Y-146633689D01*
X113411896Y-146633689D01*
X113446161Y-146572974D01*
X113451355Y-146563868D01*
X113459715Y-146549249D01*
X113467288Y-146535173D01*
X113474112Y-146520540D01*
X113480227Y-146504249D01*
X113485673Y-146485198D01*
X113490487Y-146462286D01*
X113494708Y-146434413D01*
X113498377Y-146400478D01*
X113501531Y-146359379D01*
X113504211Y-146310015D01*
X113506454Y-146251286D01*
X113508299Y-146182090D01*
X113509787Y-146101326D01*
X113510955Y-146007894D01*
X113511844Y-145900692D01*
X113512491Y-145778620D01*
X113512936Y-145640576D01*
X113513218Y-145485459D01*
X113513375Y-145312168D01*
X113513448Y-145119603D01*
X113513474Y-144906662D01*
X113513485Y-144770530D01*
X114315200Y-144770530D01*
X114315200Y-145920721D01*
X114385756Y-145967089D01*
X114426417Y-145990791D01*
X114480546Y-146016639D01*
X114529689Y-146034829D01*
X114593165Y-146050551D01*
X114689331Y-146061541D01*
X114773900Y-146053365D01*
X114847219Y-146025805D01*
X114909637Y-145978642D01*
X114961502Y-145911658D01*
X115003160Y-145824633D01*
X115034962Y-145717350D01*
X115037545Y-145705009D01*
X115046000Y-145643772D01*
X115051663Y-145566692D01*
X115054576Y-145479002D01*
X115054783Y-145385934D01*
X115052330Y-145292720D01*
X115047261Y-145204594D01*
X115039619Y-145126788D01*
X115029448Y-145064533D01*
X115028167Y-145058666D01*
X114999126Y-144948121D01*
X114964610Y-144857575D01*
X114923456Y-144784953D01*
X114874499Y-144728181D01*
X114816574Y-144685184D01*
X114784620Y-144669615D01*
X114711784Y-144650722D01*
X114630443Y-144647465D01*
X114545319Y-144659389D01*
X114461133Y-144686040D01*
X114382608Y-144726962D01*
X114315200Y-144770530D01*
X113513485Y-144770530D01*
X113513493Y-144672245D01*
X113513689Y-142987378D01*
X114419017Y-142987378D01*
X114394585Y-143024067D01*
X114388318Y-143033647D01*
X114362208Y-143079981D01*
X114344469Y-143127102D01*
X114332908Y-143182251D01*
X114325331Y-143252667D01*
X114324839Y-143259650D01*
X114323062Y-143297641D01*
X114321444Y-143351576D01*
X114319999Y-143418703D01*
X114318740Y-143496271D01*
X114317680Y-143581528D01*
X114316829Y-143671724D01*
X114316203Y-143764107D01*
X114315812Y-143855925D01*
X114315670Y-143944427D01*
X114315790Y-144026862D01*
X114316183Y-144100479D01*
X114316862Y-144162526D01*
X114317841Y-144210251D01*
X114319132Y-144240904D01*
X114320747Y-144251733D01*
X114328957Y-144247333D01*
X114350647Y-144232362D01*
X114380014Y-144210448D01*
X114428879Y-144176236D01*
X114517125Y-144129714D01*
X114615916Y-144096046D01*
X114728510Y-144074231D01*
X114858164Y-144063265D01*
X114950670Y-144062219D01*
X115072011Y-144072014D01*
X115182099Y-144096174D01*
X115285389Y-144135785D01*
X115386338Y-144191932D01*
X115431503Y-144222883D01*
X115536911Y-144314115D01*
X115628538Y-144423106D01*
X115706332Y-144549726D01*
X115770241Y-144693845D01*
X115820214Y-144855332D01*
X115856198Y-145034059D01*
X115878143Y-145229895D01*
X115883900Y-145385934D01*
X115885994Y-145442711D01*
G37*
X118427755Y-145843467D02*
X118427261Y-145877363D01*
X118423632Y-145952202D01*
X118416022Y-146014401D01*
X118403688Y-146070984D01*
X118359313Y-146197076D01*
X118296400Y-146311679D01*
X118216238Y-146412568D01*
X118119740Y-146498924D01*
X118007822Y-146569932D01*
X117881397Y-146624776D01*
X117741378Y-146662638D01*
X117705149Y-146668351D01*
X117626155Y-146674313D01*
X117537841Y-146674646D01*
X117448075Y-146669659D01*
X117364722Y-146659666D01*
X117295651Y-146644978D01*
X117209187Y-146614749D01*
X117099286Y-146560057D01*
X117001956Y-146492543D01*
X116939867Y-146441556D01*
X116936605Y-146537622D01*
X116933343Y-146633689D01*
X116510450Y-146633689D01*
X116499543Y-146633686D01*
X116405056Y-146633380D01*
X116318331Y-146632616D01*
X116241837Y-146631451D01*
X116178043Y-146629942D01*
X116129418Y-146628147D01*
X116098433Y-146626121D01*
X116087556Y-146623922D01*
X116087578Y-146623463D01*
X116094614Y-146607910D01*
X116110434Y-146585071D01*
X116114734Y-146579638D01*
X116125777Y-146565606D01*
X116135311Y-146552186D01*
X116143461Y-146537722D01*
X116150352Y-146520556D01*
X116156111Y-146499034D01*
X116160862Y-146471498D01*
X116164731Y-146436292D01*
X116167844Y-146391760D01*
X116170325Y-146336246D01*
X116172300Y-146268093D01*
X116173894Y-146185645D01*
X116175234Y-146087246D01*
X116176444Y-145971239D01*
X116177649Y-145835968D01*
X116178595Y-145724586D01*
X116979378Y-145724586D01*
X116979378Y-145920462D01*
X117024048Y-145976973D01*
X117036785Y-145992212D01*
X117083604Y-146034844D01*
X117144255Y-146070672D01*
X117154897Y-146075850D01*
X117193676Y-146092745D01*
X117228692Y-146102909D01*
X117268722Y-146108325D01*
X117322541Y-146110978D01*
X117340648Y-146111383D01*
X117416011Y-146108540D01*
X117476743Y-146096620D01*
X117528452Y-146074037D01*
X117576746Y-146039211D01*
X117581803Y-146034798D01*
X117630272Y-145979160D01*
X117658459Y-145915333D01*
X117667752Y-145840282D01*
X117660520Y-145768693D01*
X117635796Y-145705645D01*
X117591249Y-145647758D01*
X117536319Y-145600808D01*
X117463894Y-145560961D01*
X117377340Y-145533263D01*
X117274670Y-145517096D01*
X117153894Y-145511842D01*
X117145007Y-145511857D01*
X117089660Y-145512655D01*
X117042736Y-145514488D01*
X117008953Y-145517111D01*
X116993028Y-145520274D01*
X116988943Y-145526741D01*
X116984572Y-145548875D01*
X116981604Y-145587988D01*
X116979914Y-145645939D01*
X116979378Y-145724586D01*
X116178595Y-145724586D01*
X116178975Y-145679778D01*
X116180228Y-145537012D01*
X116181651Y-145391942D01*
X116183176Y-145266027D01*
X116184933Y-145157436D01*
X116187051Y-145064334D01*
X116189660Y-144984891D01*
X116192890Y-144917273D01*
X116196869Y-144859649D01*
X116201728Y-144810185D01*
X116207597Y-144767050D01*
X116214604Y-144728410D01*
X116222880Y-144692434D01*
X116232554Y-144657289D01*
X116243756Y-144621142D01*
X116256616Y-144582161D01*
X116272090Y-144539091D01*
X116314994Y-144446871D01*
X116368735Y-144367099D01*
X116437576Y-144292965D01*
X116515185Y-144229405D01*
X116619761Y-144167725D01*
X116739244Y-144120202D01*
X116874508Y-144086567D01*
X117026426Y-144066552D01*
X117195872Y-144059889D01*
X117253890Y-144060287D01*
X117319398Y-144062335D01*
X117380693Y-144066704D01*
X117442097Y-144074035D01*
X117507932Y-144084969D01*
X117582520Y-144100147D01*
X117670184Y-144120209D01*
X117775245Y-144145797D01*
X117803806Y-144152820D01*
X117879054Y-144170776D01*
X117949388Y-144186820D01*
X118010567Y-144200028D01*
X118058354Y-144209474D01*
X118088511Y-144214231D01*
X118116783Y-144217910D01*
X118143060Y-144223187D01*
X118153059Y-144227942D01*
X118149952Y-144236781D01*
X118139194Y-144264072D01*
X118121864Y-144306906D01*
X118099126Y-144362425D01*
X118072147Y-144427772D01*
X118042090Y-144500089D01*
X118035493Y-144515879D01*
X117996907Y-144606484D01*
X117965768Y-144676217D01*
X117941917Y-144725405D01*
X117925198Y-144754374D01*
X117915454Y-144763452D01*
X117907766Y-144761405D01*
X117881415Y-144751760D01*
X117842982Y-144736190D01*
X117797822Y-144716815D01*
X117703293Y-144678814D01*
X117566480Y-144637780D01*
X117425289Y-144612612D01*
X117387314Y-144608611D01*
X117284059Y-144606447D01*
X117196952Y-144619622D01*
X117125129Y-144648756D01*
X117067731Y-144694466D01*
X117023896Y-144757372D01*
X116992762Y-144838092D01*
X116973470Y-144937245D01*
X116966050Y-144996224D01*
X117127936Y-144989445D01*
X117254495Y-144987813D01*
X117405951Y-144994194D01*
X117554396Y-145008777D01*
X117690578Y-145030882D01*
X117755245Y-145045821D01*
X117887490Y-145088741D01*
X118009762Y-145145340D01*
X118119685Y-145214017D01*
X118214883Y-145293170D01*
X118292980Y-145381196D01*
X118351599Y-145476493D01*
X118375595Y-145528864D01*
X118401232Y-145599590D01*
X118417478Y-145670812D01*
X118425822Y-145749712D01*
X118427690Y-145840282D01*
X118427755Y-145843467D01*
G36*
X118427755Y-145843467D02*
G01*
X118427261Y-145877363D01*
X118423632Y-145952202D01*
X118416022Y-146014401D01*
X118403688Y-146070984D01*
X118359313Y-146197076D01*
X118296400Y-146311679D01*
X118216238Y-146412568D01*
X118119740Y-146498924D01*
X118007822Y-146569932D01*
X117881397Y-146624776D01*
X117741378Y-146662638D01*
X117705149Y-146668351D01*
X117626155Y-146674313D01*
X117537841Y-146674646D01*
X117448075Y-146669659D01*
X117364722Y-146659666D01*
X117295651Y-146644978D01*
X117209187Y-146614749D01*
X117099286Y-146560057D01*
X117001956Y-146492543D01*
X116939867Y-146441556D01*
X116936605Y-146537622D01*
X116933343Y-146633689D01*
X116510450Y-146633689D01*
X116499543Y-146633686D01*
X116405056Y-146633380D01*
X116318331Y-146632616D01*
X116241837Y-146631451D01*
X116178043Y-146629942D01*
X116129418Y-146628147D01*
X116098433Y-146626121D01*
X116087556Y-146623922D01*
X116087578Y-146623463D01*
X116094614Y-146607910D01*
X116110434Y-146585071D01*
X116114734Y-146579638D01*
X116125777Y-146565606D01*
X116135311Y-146552186D01*
X116143461Y-146537722D01*
X116150352Y-146520556D01*
X116156111Y-146499034D01*
X116160862Y-146471498D01*
X116164731Y-146436292D01*
X116167844Y-146391760D01*
X116170325Y-146336246D01*
X116172300Y-146268093D01*
X116173894Y-146185645D01*
X116175234Y-146087246D01*
X116176444Y-145971239D01*
X116177649Y-145835968D01*
X116178595Y-145724586D01*
X116979378Y-145724586D01*
X116979378Y-145920462D01*
X117024048Y-145976973D01*
X117036785Y-145992212D01*
X117083604Y-146034844D01*
X117144255Y-146070672D01*
X117154897Y-146075850D01*
X117193676Y-146092745D01*
X117228692Y-146102909D01*
X117268722Y-146108325D01*
X117322541Y-146110978D01*
X117340648Y-146111383D01*
X117416011Y-146108540D01*
X117476743Y-146096620D01*
X117528452Y-146074037D01*
X117576746Y-146039211D01*
X117581803Y-146034798D01*
X117630272Y-145979160D01*
X117658459Y-145915333D01*
X117667752Y-145840282D01*
X117660520Y-145768693D01*
X117635796Y-145705645D01*
X117591249Y-145647758D01*
X117536319Y-145600808D01*
X117463894Y-145560961D01*
X117377340Y-145533263D01*
X117274670Y-145517096D01*
X117153894Y-145511842D01*
X117145007Y-145511857D01*
X117089660Y-145512655D01*
X117042736Y-145514488D01*
X117008953Y-145517111D01*
X116993028Y-145520274D01*
X116988943Y-145526741D01*
X116984572Y-145548875D01*
X116981604Y-145587988D01*
X116979914Y-145645939D01*
X116979378Y-145724586D01*
X116178595Y-145724586D01*
X116178975Y-145679778D01*
X116180228Y-145537012D01*
X116181651Y-145391942D01*
X116183176Y-145266027D01*
X116184933Y-145157436D01*
X116187051Y-145064334D01*
X116189660Y-144984891D01*
X116192890Y-144917273D01*
X116196869Y-144859649D01*
X116201728Y-144810185D01*
X116207597Y-144767050D01*
X116214604Y-144728410D01*
X116222880Y-144692434D01*
X116232554Y-144657289D01*
X116243756Y-144621142D01*
X116256616Y-144582161D01*
X116272090Y-144539091D01*
X116314994Y-144446871D01*
X116368735Y-144367099D01*
X116437576Y-144292965D01*
X116515185Y-144229405D01*
X116619761Y-144167725D01*
X116739244Y-144120202D01*
X116874508Y-144086567D01*
X117026426Y-144066552D01*
X117195872Y-144059889D01*
X117253890Y-144060287D01*
X117319398Y-144062335D01*
X117380693Y-144066704D01*
X117442097Y-144074035D01*
X117507932Y-144084969D01*
X117582520Y-144100147D01*
X117670184Y-144120209D01*
X117775245Y-144145797D01*
X117803806Y-144152820D01*
X117879054Y-144170776D01*
X117949388Y-144186820D01*
X118010567Y-144200028D01*
X118058354Y-144209474D01*
X118088511Y-144214231D01*
X118116783Y-144217910D01*
X118143060Y-144223187D01*
X118153059Y-144227942D01*
X118149952Y-144236781D01*
X118139194Y-144264072D01*
X118121864Y-144306906D01*
X118099126Y-144362425D01*
X118072147Y-144427772D01*
X118042090Y-144500089D01*
X118035493Y-144515879D01*
X117996907Y-144606484D01*
X117965768Y-144676217D01*
X117941917Y-144725405D01*
X117925198Y-144754374D01*
X117915454Y-144763452D01*
X117907766Y-144761405D01*
X117881415Y-144751760D01*
X117842982Y-144736190D01*
X117797822Y-144716815D01*
X117703293Y-144678814D01*
X117566480Y-144637780D01*
X117425289Y-144612612D01*
X117387314Y-144608611D01*
X117284059Y-144606447D01*
X117196952Y-144619622D01*
X117125129Y-144648756D01*
X117067731Y-144694466D01*
X117023896Y-144757372D01*
X116992762Y-144838092D01*
X116973470Y-144937245D01*
X116966050Y-144996224D01*
X117127936Y-144989445D01*
X117254495Y-144987813D01*
X117405951Y-144994194D01*
X117554396Y-145008777D01*
X117690578Y-145030882D01*
X117755245Y-145045821D01*
X117887490Y-145088741D01*
X118009762Y-145145340D01*
X118119685Y-145214017D01*
X118214883Y-145293170D01*
X118292980Y-145381196D01*
X118351599Y-145476493D01*
X118375595Y-145528864D01*
X118401232Y-145599590D01*
X118417478Y-145670812D01*
X118425822Y-145749712D01*
X118427690Y-145840282D01*
X118427755Y-145843467D01*
G37*
X125975614Y-143311792D02*
X125976059Y-143443011D01*
X125976362Y-143590216D01*
X125976548Y-143754349D01*
X125976642Y-143936352D01*
X125976671Y-144137165D01*
X125976661Y-144357732D01*
X125976636Y-144598992D01*
X125976622Y-144861889D01*
X125976622Y-144904040D01*
X125976646Y-145164668D01*
X125976685Y-145403796D01*
X125976708Y-145622360D01*
X125976687Y-145821295D01*
X125976593Y-146001535D01*
X125976395Y-146164015D01*
X125976063Y-146309670D01*
X125975569Y-146439434D01*
X125974883Y-146554243D01*
X125973976Y-146655030D01*
X125972817Y-146742730D01*
X125971378Y-146818279D01*
X125969629Y-146882611D01*
X125967540Y-146936661D01*
X125965083Y-146981363D01*
X125962227Y-147017652D01*
X125958943Y-147046463D01*
X125955202Y-147068731D01*
X125950974Y-147085390D01*
X125946229Y-147097375D01*
X125940939Y-147105621D01*
X125935073Y-147111062D01*
X125928602Y-147114634D01*
X125921497Y-147117270D01*
X125913728Y-147119906D01*
X125905266Y-147123477D01*
X125900908Y-147125145D01*
X125892395Y-147127111D01*
X125879694Y-147128911D01*
X125861885Y-147130555D01*
X125838049Y-147132047D01*
X125807266Y-147133397D01*
X125768617Y-147134611D01*
X125721182Y-147135697D01*
X125664043Y-147136661D01*
X125596279Y-147137511D01*
X125516971Y-147138253D01*
X125425199Y-147138897D01*
X125320044Y-147139447D01*
X125200587Y-147139913D01*
X125065908Y-147140300D01*
X124915088Y-147140616D01*
X124747206Y-147140869D01*
X124561345Y-147141066D01*
X124356583Y-147141213D01*
X124132002Y-147141318D01*
X123886682Y-147141389D01*
X123619704Y-147141432D01*
X123581321Y-147141437D01*
X123315922Y-147141480D01*
X123072050Y-147141525D01*
X122848783Y-147141548D01*
X122645196Y-147141524D01*
X122460367Y-147141430D01*
X122293373Y-147141243D01*
X122143290Y-147140939D01*
X122009196Y-147140494D01*
X121890166Y-147139885D01*
X121785279Y-147139089D01*
X121693610Y-147138080D01*
X121614237Y-147136837D01*
X121546237Y-147135335D01*
X121488686Y-147133551D01*
X121440662Y-147131461D01*
X121401240Y-147129042D01*
X121369499Y-147126270D01*
X121344514Y-147123121D01*
X121325364Y-147119572D01*
X121311123Y-147115598D01*
X121300871Y-147111178D01*
X121293682Y-147106286D01*
X121288635Y-147100900D01*
X121284805Y-147094996D01*
X121281271Y-147088549D01*
X121277108Y-147081537D01*
X121276025Y-147079687D01*
X121273813Y-147074180D01*
X121271786Y-147065868D01*
X121269938Y-147053809D01*
X121268261Y-147037063D01*
X121266745Y-147014687D01*
X121265383Y-146985740D01*
X121264167Y-146949280D01*
X121263089Y-146904367D01*
X121262140Y-146850057D01*
X121261312Y-146785410D01*
X121260597Y-146709484D01*
X121259987Y-146621338D01*
X121259942Y-146612493D01*
X121551378Y-146612493D01*
X121555260Y-146613765D01*
X121578520Y-146615791D01*
X121620874Y-146617626D01*
X121680132Y-146619227D01*
X121754107Y-146620549D01*
X121840610Y-146621548D01*
X121937452Y-146622180D01*
X122042445Y-146622400D01*
X122740651Y-146622400D01*
X123895090Y-146622400D01*
X123894456Y-146546200D01*
X123895574Y-146504160D01*
X123901304Y-146468334D01*
X123913890Y-146430772D01*
X123935568Y-146382577D01*
X123938789Y-146375897D01*
X123964188Y-146326359D01*
X123990996Y-146278369D01*
X124013917Y-146241466D01*
X124018485Y-146234834D01*
X124040516Y-146203593D01*
X124072693Y-146158654D01*
X124113457Y-146102147D01*
X124161245Y-146036204D01*
X124214498Y-145962957D01*
X124271655Y-145884536D01*
X124331155Y-145803072D01*
X124391437Y-145720698D01*
X124450940Y-145639544D01*
X124508105Y-145561742D01*
X124561370Y-145489423D01*
X124609174Y-145424718D01*
X124649957Y-145369759D01*
X124682158Y-145326676D01*
X124704216Y-145297602D01*
X124714571Y-145284667D01*
X124719044Y-145280351D01*
X124723236Y-145278312D01*
X124726643Y-145280926D01*
X124729325Y-145289986D01*
X124731341Y-145307285D01*
X124732748Y-145334614D01*
X124733605Y-145373765D01*
X124733970Y-145426533D01*
X124733903Y-145494707D01*
X124733460Y-145580082D01*
X124732702Y-145684449D01*
X124731685Y-145809600D01*
X124731308Y-145854300D01*
X124730169Y-145975395D01*
X124728972Y-146076688D01*
X124727636Y-146160262D01*
X124726077Y-146228204D01*
X124724215Y-146282599D01*
X124721966Y-146325532D01*
X124719248Y-146359089D01*
X124715979Y-146385355D01*
X124712078Y-146406416D01*
X124707461Y-146424357D01*
X124699192Y-146450770D01*
X124675583Y-146512772D01*
X124649685Y-146565573D01*
X124624535Y-146602645D01*
X124623339Y-146604075D01*
X124621168Y-146608424D01*
X124623328Y-146612026D01*
X124631644Y-146614951D01*
X124647940Y-146617269D01*
X124674041Y-146619051D01*
X124711771Y-146620367D01*
X124762956Y-146621286D01*
X124829420Y-146621878D01*
X124912987Y-146622215D01*
X125015483Y-146622365D01*
X125138732Y-146622400D01*
X125670296Y-146622400D01*
X125631523Y-146564783D01*
X125625432Y-146555893D01*
X125614976Y-146541069D01*
X125605579Y-146527422D01*
X125597183Y-146513765D01*
X125589733Y-146498911D01*
X125583173Y-146481670D01*
X125577446Y-146460855D01*
X125572495Y-146435280D01*
X125568266Y-146403755D01*
X125564701Y-146365093D01*
X125561744Y-146318107D01*
X125559340Y-146261608D01*
X125557431Y-146194409D01*
X125555962Y-146115322D01*
X125554876Y-146023160D01*
X125554118Y-145916734D01*
X125553630Y-145794857D01*
X125553358Y-145656341D01*
X125553243Y-145499999D01*
X125553231Y-145324642D01*
X125553265Y-145129082D01*
X125553289Y-144912133D01*
X125553280Y-144789513D01*
X125553243Y-144584447D01*
X125553227Y-144400116D01*
X125553288Y-144235334D01*
X125553484Y-144088916D01*
X125553870Y-143959674D01*
X125554505Y-143846422D01*
X125555444Y-143747975D01*
X125556745Y-143663144D01*
X125558464Y-143590744D01*
X125560659Y-143529589D01*
X125563385Y-143478492D01*
X125566701Y-143436267D01*
X125570662Y-143401727D01*
X125575325Y-143373686D01*
X125580747Y-143350958D01*
X125586986Y-143332356D01*
X125594097Y-143316693D01*
X125602138Y-143302784D01*
X125611166Y-143289441D01*
X125621236Y-143275479D01*
X125632407Y-143259711D01*
X125672197Y-143201867D01*
X124612314Y-143201867D01*
X124650311Y-143264966D01*
X124664993Y-143290005D01*
X124679531Y-143317586D01*
X124691627Y-143345700D01*
X124701532Y-143376551D01*
X124709494Y-143412344D01*
X124715761Y-143455283D01*
X124720582Y-143507574D01*
X124724206Y-143571419D01*
X124726881Y-143649025D01*
X124728857Y-143742594D01*
X124730382Y-143854333D01*
X124731704Y-143986445D01*
X124732613Y-144106434D01*
X124733020Y-144223063D01*
X124732767Y-144318531D01*
X124731857Y-144392556D01*
X124730293Y-144444855D01*
X124728079Y-144475149D01*
X124725220Y-144483156D01*
X124722161Y-144479858D01*
X124704006Y-144458408D01*
X124674275Y-144421889D01*
X124634639Y-144372442D01*
X124586771Y-144312207D01*
X124532343Y-144243327D01*
X124473027Y-144167943D01*
X124410495Y-144088196D01*
X124346421Y-144006228D01*
X124282475Y-143924180D01*
X124220331Y-143844194D01*
X124161661Y-143768411D01*
X124108137Y-143698973D01*
X124061430Y-143638021D01*
X124023214Y-143587696D01*
X123995161Y-143550140D01*
X123978943Y-143527495D01*
X123933635Y-143455212D01*
X123893661Y-143375463D01*
X123872130Y-143307188D01*
X123868827Y-143249844D01*
X123874116Y-143201867D01*
X122742356Y-143202117D01*
X122781867Y-143232722D01*
X122791248Y-143240089D01*
X122854183Y-143294438D01*
X122922997Y-143362259D01*
X122999596Y-143445516D01*
X123085888Y-143546178D01*
X123103052Y-143566847D01*
X123143833Y-143616409D01*
X123193588Y-143677326D01*
X123250955Y-143747898D01*
X123314569Y-143826424D01*
X123383069Y-143911204D01*
X123455090Y-144000537D01*
X123529270Y-144092722D01*
X123544517Y-144111702D01*
X123604246Y-144186060D01*
X123678653Y-144278848D01*
X123751131Y-144369388D01*
X123820314Y-144455978D01*
X123884841Y-144536918D01*
X123943347Y-144610506D01*
X123994470Y-144675044D01*
X124036847Y-144728829D01*
X124069115Y-144770162D01*
X124089910Y-144797342D01*
X124097869Y-144808668D01*
X124096111Y-144812771D01*
X124083230Y-144833334D01*
X124058885Y-144869561D01*
X124024247Y-144919824D01*
X123980486Y-144982492D01*
X123928775Y-145055936D01*
X123870284Y-145138527D01*
X123806184Y-145228636D01*
X123737646Y-145324631D01*
X123665843Y-145424885D01*
X123591944Y-145527768D01*
X123517121Y-145631650D01*
X123442545Y-145734901D01*
X123369387Y-145835892D01*
X123298819Y-145932994D01*
X123232011Y-146024577D01*
X123170135Y-146109011D01*
X123114361Y-146184667D01*
X123065862Y-146249916D01*
X123025807Y-146303128D01*
X122995369Y-146342673D01*
X122974944Y-146368026D01*
X122928899Y-146422295D01*
X122878612Y-146478775D01*
X122831815Y-146528669D01*
X122740651Y-146622400D01*
X122042445Y-146622400D01*
X122111356Y-146622349D01*
X122209607Y-146622091D01*
X122299030Y-146621637D01*
X122377333Y-146621010D01*
X122442223Y-146620235D01*
X122491411Y-146619335D01*
X122522604Y-146618334D01*
X122533511Y-146617257D01*
X122532322Y-146614037D01*
X122522176Y-146596452D01*
X122505040Y-146570158D01*
X122496540Y-146557691D01*
X122487329Y-146543622D01*
X122479233Y-146529351D01*
X122472185Y-146513479D01*
X122466117Y-146494609D01*
X122460961Y-146471341D01*
X122456651Y-146442278D01*
X122453119Y-146406021D01*
X122450297Y-146361170D01*
X122448118Y-146306328D01*
X122446514Y-146240097D01*
X122445419Y-146161077D01*
X122444765Y-146067871D01*
X122444484Y-145959079D01*
X122444509Y-145833303D01*
X122444772Y-145689145D01*
X122445206Y-145525207D01*
X122445745Y-145340089D01*
X122446279Y-145161232D01*
X122446805Y-145002374D01*
X122447350Y-144863316D01*
X122447945Y-144742665D01*
X122448619Y-144639028D01*
X122449403Y-144551011D01*
X122450326Y-144477223D01*
X122451419Y-144416269D01*
X122452712Y-144366757D01*
X122454235Y-144327293D01*
X122456019Y-144296484D01*
X122458092Y-144272938D01*
X122460486Y-144255260D01*
X122463230Y-144242059D01*
X122466356Y-144231940D01*
X122469892Y-144223511D01*
X122473791Y-144215375D01*
X122493438Y-144178544D01*
X122512225Y-144148391D01*
X122513272Y-144146908D01*
X122527602Y-144124659D01*
X122533511Y-144111702D01*
X122532504Y-144111249D01*
X122515305Y-144109803D01*
X122478656Y-144108480D01*
X122424962Y-144107316D01*
X122356630Y-144106347D01*
X122276064Y-144105611D01*
X122185670Y-144105142D01*
X122087853Y-144104978D01*
X121642195Y-144104978D01*
X121639120Y-145281845D01*
X121636045Y-146458711D01*
X121609407Y-146517622D01*
X121597485Y-146542183D01*
X121580246Y-146572434D01*
X121567074Y-146589560D01*
X121559076Y-146597591D01*
X121551378Y-146612493D01*
X121259942Y-146612493D01*
X121259474Y-146520029D01*
X121259050Y-146404617D01*
X121258706Y-146274160D01*
X121258434Y-146127716D01*
X121258227Y-145964344D01*
X121258076Y-145783101D01*
X121257972Y-145583048D01*
X121257908Y-145363241D01*
X121257876Y-145122739D01*
X121257867Y-144860602D01*
X121257867Y-142669031D01*
X121296249Y-142630649D01*
X121323355Y-142606911D01*
X121350253Y-142595111D01*
X121386560Y-142592267D01*
X121438489Y-142592267D01*
X121438489Y-142680206D01*
X121440427Y-142730102D01*
X121459199Y-142840523D01*
X121496217Y-142941987D01*
X121549369Y-143033152D01*
X121616546Y-143112673D01*
X121695638Y-143179205D01*
X121784534Y-143231406D01*
X121881125Y-143267930D01*
X121983300Y-143287434D01*
X122088950Y-143288573D01*
X122195964Y-143270005D01*
X122302232Y-143230384D01*
X122399219Y-143172516D01*
X122484293Y-143097684D01*
X122553015Y-143009615D01*
X122603918Y-142910616D01*
X122635535Y-142802993D01*
X122646400Y-142689054D01*
X122646400Y-142592267D01*
X124266753Y-142592267D01*
X124477897Y-142592280D01*
X124682020Y-142592330D01*
X124865686Y-142592430D01*
X125029991Y-142592592D01*
X125176029Y-142592829D01*
X125304894Y-142593153D01*
X125417683Y-142593575D01*
X125515488Y-142594109D01*
X125599404Y-142594767D01*
X125670527Y-142595561D01*
X125729950Y-142596504D01*
X125778768Y-142597608D01*
X125818077Y-142598884D01*
X125848969Y-142600347D01*
X125872541Y-142602007D01*
X125889886Y-142603878D01*
X125902099Y-142605972D01*
X125910275Y-142608300D01*
X125915508Y-142610876D01*
X125921504Y-142614445D01*
X125928279Y-142617978D01*
X125934478Y-142621488D01*
X125940126Y-142625918D01*
X125945247Y-142632208D01*
X125949869Y-142641301D01*
X125954015Y-142654139D01*
X125957713Y-142671662D01*
X125960987Y-142694813D01*
X125963863Y-142724534D01*
X125966367Y-142761765D01*
X125968524Y-142807449D01*
X125970360Y-142862527D01*
X125971900Y-142927941D01*
X125973170Y-143004633D01*
X125974195Y-143093544D01*
X125975001Y-143195617D01*
X125975034Y-143201867D01*
X125975614Y-143311792D01*
G36*
X125975614Y-143311792D02*
G01*
X125976059Y-143443011D01*
X125976362Y-143590216D01*
X125976548Y-143754349D01*
X125976642Y-143936352D01*
X125976671Y-144137165D01*
X125976661Y-144357732D01*
X125976636Y-144598992D01*
X125976622Y-144861889D01*
X125976622Y-144904040D01*
X125976646Y-145164668D01*
X125976685Y-145403796D01*
X125976708Y-145622360D01*
X125976687Y-145821295D01*
X125976593Y-146001535D01*
X125976395Y-146164015D01*
X125976063Y-146309670D01*
X125975569Y-146439434D01*
X125974883Y-146554243D01*
X125973976Y-146655030D01*
X125972817Y-146742730D01*
X125971378Y-146818279D01*
X125969629Y-146882611D01*
X125967540Y-146936661D01*
X125965083Y-146981363D01*
X125962227Y-147017652D01*
X125958943Y-147046463D01*
X125955202Y-147068731D01*
X125950974Y-147085390D01*
X125946229Y-147097375D01*
X125940939Y-147105621D01*
X125935073Y-147111062D01*
X125928602Y-147114634D01*
X125921497Y-147117270D01*
X125913728Y-147119906D01*
X125905266Y-147123477D01*
X125900908Y-147125145D01*
X125892395Y-147127111D01*
X125879694Y-147128911D01*
X125861885Y-147130555D01*
X125838049Y-147132047D01*
X125807266Y-147133397D01*
X125768617Y-147134611D01*
X125721182Y-147135697D01*
X125664043Y-147136661D01*
X125596279Y-147137511D01*
X125516971Y-147138253D01*
X125425199Y-147138897D01*
X125320044Y-147139447D01*
X125200587Y-147139913D01*
X125065908Y-147140300D01*
X124915088Y-147140616D01*
X124747206Y-147140869D01*
X124561345Y-147141066D01*
X124356583Y-147141213D01*
X124132002Y-147141318D01*
X123886682Y-147141389D01*
X123619704Y-147141432D01*
X123581321Y-147141437D01*
X123315922Y-147141480D01*
X123072050Y-147141525D01*
X122848783Y-147141548D01*
X122645196Y-147141524D01*
X122460367Y-147141430D01*
X122293373Y-147141243D01*
X122143290Y-147140939D01*
X122009196Y-147140494D01*
X121890166Y-147139885D01*
X121785279Y-147139089D01*
X121693610Y-147138080D01*
X121614237Y-147136837D01*
X121546237Y-147135335D01*
X121488686Y-147133551D01*
X121440662Y-147131461D01*
X121401240Y-147129042D01*
X121369499Y-147126270D01*
X121344514Y-147123121D01*
X121325364Y-147119572D01*
X121311123Y-147115598D01*
X121300871Y-147111178D01*
X121293682Y-147106286D01*
X121288635Y-147100900D01*
X121284805Y-147094996D01*
X121281271Y-147088549D01*
X121277108Y-147081537D01*
X121276025Y-147079687D01*
X121273813Y-147074180D01*
X121271786Y-147065868D01*
X121269938Y-147053809D01*
X121268261Y-147037063D01*
X121266745Y-147014687D01*
X121265383Y-146985740D01*
X121264167Y-146949280D01*
X121263089Y-146904367D01*
X121262140Y-146850057D01*
X121261312Y-146785410D01*
X121260597Y-146709484D01*
X121259987Y-146621338D01*
X121259942Y-146612493D01*
X121551378Y-146612493D01*
X121555260Y-146613765D01*
X121578520Y-146615791D01*
X121620874Y-146617626D01*
X121680132Y-146619227D01*
X121754107Y-146620549D01*
X121840610Y-146621548D01*
X121937452Y-146622180D01*
X122042445Y-146622400D01*
X122740651Y-146622400D01*
X123895090Y-146622400D01*
X123894456Y-146546200D01*
X123895574Y-146504160D01*
X123901304Y-146468334D01*
X123913890Y-146430772D01*
X123935568Y-146382577D01*
X123938789Y-146375897D01*
X123964188Y-146326359D01*
X123990996Y-146278369D01*
X124013917Y-146241466D01*
X124018485Y-146234834D01*
X124040516Y-146203593D01*
X124072693Y-146158654D01*
X124113457Y-146102147D01*
X124161245Y-146036204D01*
X124214498Y-145962957D01*
X124271655Y-145884536D01*
X124331155Y-145803072D01*
X124391437Y-145720698D01*
X124450940Y-145639544D01*
X124508105Y-145561742D01*
X124561370Y-145489423D01*
X124609174Y-145424718D01*
X124649957Y-145369759D01*
X124682158Y-145326676D01*
X124704216Y-145297602D01*
X124714571Y-145284667D01*
X124719044Y-145280351D01*
X124723236Y-145278312D01*
X124726643Y-145280926D01*
X124729325Y-145289986D01*
X124731341Y-145307285D01*
X124732748Y-145334614D01*
X124733605Y-145373765D01*
X124733970Y-145426533D01*
X124733903Y-145494707D01*
X124733460Y-145580082D01*
X124732702Y-145684449D01*
X124731685Y-145809600D01*
X124731308Y-145854300D01*
X124730169Y-145975395D01*
X124728972Y-146076688D01*
X124727636Y-146160262D01*
X124726077Y-146228204D01*
X124724215Y-146282599D01*
X124721966Y-146325532D01*
X124719248Y-146359089D01*
X124715979Y-146385355D01*
X124712078Y-146406416D01*
X124707461Y-146424357D01*
X124699192Y-146450770D01*
X124675583Y-146512772D01*
X124649685Y-146565573D01*
X124624535Y-146602645D01*
X124623339Y-146604075D01*
X124621168Y-146608424D01*
X124623328Y-146612026D01*
X124631644Y-146614951D01*
X124647940Y-146617269D01*
X124674041Y-146619051D01*
X124711771Y-146620367D01*
X124762956Y-146621286D01*
X124829420Y-146621878D01*
X124912987Y-146622215D01*
X125015483Y-146622365D01*
X125138732Y-146622400D01*
X125670296Y-146622400D01*
X125631523Y-146564783D01*
X125625432Y-146555893D01*
X125614976Y-146541069D01*
X125605579Y-146527422D01*
X125597183Y-146513765D01*
X125589733Y-146498911D01*
X125583173Y-146481670D01*
X125577446Y-146460855D01*
X125572495Y-146435280D01*
X125568266Y-146403755D01*
X125564701Y-146365093D01*
X125561744Y-146318107D01*
X125559340Y-146261608D01*
X125557431Y-146194409D01*
X125555962Y-146115322D01*
X125554876Y-146023160D01*
X125554118Y-145916734D01*
X125553630Y-145794857D01*
X125553358Y-145656341D01*
X125553243Y-145499999D01*
X125553231Y-145324642D01*
X125553265Y-145129082D01*
X125553289Y-144912133D01*
X125553280Y-144789513D01*
X125553243Y-144584447D01*
X125553227Y-144400116D01*
X125553288Y-144235334D01*
X125553484Y-144088916D01*
X125553870Y-143959674D01*
X125554505Y-143846422D01*
X125555444Y-143747975D01*
X125556745Y-143663144D01*
X125558464Y-143590744D01*
X125560659Y-143529589D01*
X125563385Y-143478492D01*
X125566701Y-143436267D01*
X125570662Y-143401727D01*
X125575325Y-143373686D01*
X125580747Y-143350958D01*
X125586986Y-143332356D01*
X125594097Y-143316693D01*
X125602138Y-143302784D01*
X125611166Y-143289441D01*
X125621236Y-143275479D01*
X125632407Y-143259711D01*
X125672197Y-143201867D01*
X124612314Y-143201867D01*
X124650311Y-143264966D01*
X124664993Y-143290005D01*
X124679531Y-143317586D01*
X124691627Y-143345700D01*
X124701532Y-143376551D01*
X124709494Y-143412344D01*
X124715761Y-143455283D01*
X124720582Y-143507574D01*
X124724206Y-143571419D01*
X124726881Y-143649025D01*
X124728857Y-143742594D01*
X124730382Y-143854333D01*
X124731704Y-143986445D01*
X124732613Y-144106434D01*
X124733020Y-144223063D01*
X124732767Y-144318531D01*
X124731857Y-144392556D01*
X124730293Y-144444855D01*
X124728079Y-144475149D01*
X124725220Y-144483156D01*
X124722161Y-144479858D01*
X124704006Y-144458408D01*
X124674275Y-144421889D01*
X124634639Y-144372442D01*
X124586771Y-144312207D01*
X124532343Y-144243327D01*
X124473027Y-144167943D01*
X124410495Y-144088196D01*
X124346421Y-144006228D01*
X124282475Y-143924180D01*
X124220331Y-143844194D01*
X124161661Y-143768411D01*
X124108137Y-143698973D01*
X124061430Y-143638021D01*
X124023214Y-143587696D01*
X123995161Y-143550140D01*
X123978943Y-143527495D01*
X123933635Y-143455212D01*
X123893661Y-143375463D01*
X123872130Y-143307188D01*
X123868827Y-143249844D01*
X123874116Y-143201867D01*
X122742356Y-143202117D01*
X122781867Y-143232722D01*
X122791248Y-143240089D01*
X122854183Y-143294438D01*
X122922997Y-143362259D01*
X122999596Y-143445516D01*
X123085888Y-143546178D01*
X123103052Y-143566847D01*
X123143833Y-143616409D01*
X123193588Y-143677326D01*
X123250955Y-143747898D01*
X123314569Y-143826424D01*
X123383069Y-143911204D01*
X123455090Y-144000537D01*
X123529270Y-144092722D01*
X123544517Y-144111702D01*
X123604246Y-144186060D01*
X123678653Y-144278848D01*
X123751131Y-144369388D01*
X123820314Y-144455978D01*
X123884841Y-144536918D01*
X123943347Y-144610506D01*
X123994470Y-144675044D01*
X124036847Y-144728829D01*
X124069115Y-144770162D01*
X124089910Y-144797342D01*
X124097869Y-144808668D01*
X124096111Y-144812771D01*
X124083230Y-144833334D01*
X124058885Y-144869561D01*
X124024247Y-144919824D01*
X123980486Y-144982492D01*
X123928775Y-145055936D01*
X123870284Y-145138527D01*
X123806184Y-145228636D01*
X123737646Y-145324631D01*
X123665843Y-145424885D01*
X123591944Y-145527768D01*
X123517121Y-145631650D01*
X123442545Y-145734901D01*
X123369387Y-145835892D01*
X123298819Y-145932994D01*
X123232011Y-146024577D01*
X123170135Y-146109011D01*
X123114361Y-146184667D01*
X123065862Y-146249916D01*
X123025807Y-146303128D01*
X122995369Y-146342673D01*
X122974944Y-146368026D01*
X122928899Y-146422295D01*
X122878612Y-146478775D01*
X122831815Y-146528669D01*
X122740651Y-146622400D01*
X122042445Y-146622400D01*
X122111356Y-146622349D01*
X122209607Y-146622091D01*
X122299030Y-146621637D01*
X122377333Y-146621010D01*
X122442223Y-146620235D01*
X122491411Y-146619335D01*
X122522604Y-146618334D01*
X122533511Y-146617257D01*
X122532322Y-146614037D01*
X122522176Y-146596452D01*
X122505040Y-146570158D01*
X122496540Y-146557691D01*
X122487329Y-146543622D01*
X122479233Y-146529351D01*
X122472185Y-146513479D01*
X122466117Y-146494609D01*
X122460961Y-146471341D01*
X122456651Y-146442278D01*
X122453119Y-146406021D01*
X122450297Y-146361170D01*
X122448118Y-146306328D01*
X122446514Y-146240097D01*
X122445419Y-146161077D01*
X122444765Y-146067871D01*
X122444484Y-145959079D01*
X122444509Y-145833303D01*
X122444772Y-145689145D01*
X122445206Y-145525207D01*
X122445745Y-145340089D01*
X122446279Y-145161232D01*
X122446805Y-145002374D01*
X122447350Y-144863316D01*
X122447945Y-144742665D01*
X122448619Y-144639028D01*
X122449403Y-144551011D01*
X122450326Y-144477223D01*
X122451419Y-144416269D01*
X122452712Y-144366757D01*
X122454235Y-144327293D01*
X122456019Y-144296484D01*
X122458092Y-144272938D01*
X122460486Y-144255260D01*
X122463230Y-144242059D01*
X122466356Y-144231940D01*
X122469892Y-144223511D01*
X122473791Y-144215375D01*
X122493438Y-144178544D01*
X122512225Y-144148391D01*
X122513272Y-144146908D01*
X122527602Y-144124659D01*
X122533511Y-144111702D01*
X122532504Y-144111249D01*
X122515305Y-144109803D01*
X122478656Y-144108480D01*
X122424962Y-144107316D01*
X122356630Y-144106347D01*
X122276064Y-144105611D01*
X122185670Y-144105142D01*
X122087853Y-144104978D01*
X121642195Y-144104978D01*
X121639120Y-145281845D01*
X121636045Y-146458711D01*
X121609407Y-146517622D01*
X121597485Y-146542183D01*
X121580246Y-146572434D01*
X121567074Y-146589560D01*
X121559076Y-146597591D01*
X121551378Y-146612493D01*
X121259942Y-146612493D01*
X121259474Y-146520029D01*
X121259050Y-146404617D01*
X121258706Y-146274160D01*
X121258434Y-146127716D01*
X121258227Y-145964344D01*
X121258076Y-145783101D01*
X121257972Y-145583048D01*
X121257908Y-145363241D01*
X121257876Y-145122739D01*
X121257867Y-144860602D01*
X121257867Y-142669031D01*
X121296249Y-142630649D01*
X121323355Y-142606911D01*
X121350253Y-142595111D01*
X121386560Y-142592267D01*
X121438489Y-142592267D01*
X121438489Y-142680206D01*
X121440427Y-142730102D01*
X121459199Y-142840523D01*
X121496217Y-142941987D01*
X121549369Y-143033152D01*
X121616546Y-143112673D01*
X121695638Y-143179205D01*
X121784534Y-143231406D01*
X121881125Y-143267930D01*
X121983300Y-143287434D01*
X122088950Y-143288573D01*
X122195964Y-143270005D01*
X122302232Y-143230384D01*
X122399219Y-143172516D01*
X122484293Y-143097684D01*
X122553015Y-143009615D01*
X122603918Y-142910616D01*
X122635535Y-142802993D01*
X122646400Y-142689054D01*
X122646400Y-142592267D01*
X124266753Y-142592267D01*
X124477897Y-142592280D01*
X124682020Y-142592330D01*
X124865686Y-142592430D01*
X125029991Y-142592592D01*
X125176029Y-142592829D01*
X125304894Y-142593153D01*
X125417683Y-142593575D01*
X125515488Y-142594109D01*
X125599404Y-142594767D01*
X125670527Y-142595561D01*
X125729950Y-142596504D01*
X125778768Y-142597608D01*
X125818077Y-142598884D01*
X125848969Y-142600347D01*
X125872541Y-142602007D01*
X125889886Y-142603878D01*
X125902099Y-142605972D01*
X125910275Y-142608300D01*
X125915508Y-142610876D01*
X125921504Y-142614445D01*
X125928279Y-142617978D01*
X125934478Y-142621488D01*
X125940126Y-142625918D01*
X125945247Y-142632208D01*
X125949869Y-142641301D01*
X125954015Y-142654139D01*
X125957713Y-142671662D01*
X125960987Y-142694813D01*
X125963863Y-142724534D01*
X125966367Y-142761765D01*
X125968524Y-142807449D01*
X125970360Y-142862527D01*
X125971900Y-142927941D01*
X125973170Y-143004633D01*
X125974195Y-143093544D01*
X125975001Y-143195617D01*
X125975034Y-143201867D01*
X125975614Y-143311792D01*
G37*
X147871147Y-147693443D02*
X136212131Y-147693443D01*
X136212131Y-144820328D01*
X147871147Y-144820328D01*
X147871147Y-147693443D01*
G36*
X147871147Y-147693443D02*
G01*
X136212131Y-147693443D01*
X136212131Y-144820328D01*
X147871147Y-144820328D01*
X147871147Y-147693443D01*
G37*
X144456763Y-129340902D02*
X144458399Y-129383786D01*
X144479696Y-129455787D01*
X144540309Y-129516850D01*
X144658549Y-129589536D01*
X144762345Y-129655943D01*
X144920366Y-129783441D01*
X145063572Y-129926572D01*
X145173116Y-130065812D01*
X145230152Y-130181637D01*
X145244126Y-130226269D01*
X145270014Y-130256909D01*
X145278743Y-130267241D01*
X145350091Y-130284600D01*
X145481399Y-130288197D01*
X145705901Y-130288197D01*
X145705901Y-130662951D01*
X145177616Y-130662951D01*
X145128290Y-131251669D01*
X145121668Y-131332155D01*
X145106238Y-131533636D01*
X145095339Y-131697583D01*
X145089911Y-131808857D01*
X145090897Y-131852318D01*
X145105247Y-131839825D01*
X145170724Y-131774698D01*
X145283918Y-131659266D01*
X145439102Y-131499513D01*
X145630548Y-131301423D01*
X145852528Y-131070980D01*
X146099313Y-130814167D01*
X146365174Y-130536968D01*
X146644385Y-130245368D01*
X146931216Y-129945350D01*
X147219940Y-129642899D01*
X147504827Y-129343997D01*
X147780151Y-129054629D01*
X148040182Y-128780779D01*
X148279193Y-128528430D01*
X148491456Y-128303567D01*
X148671241Y-128112173D01*
X148992482Y-127769017D01*
X148993946Y-128061336D01*
X148995409Y-128353656D01*
X147006746Y-130445079D01*
X145018082Y-132536502D01*
X144978329Y-133013182D01*
X144819274Y-134920464D01*
X144791163Y-135258749D01*
X144756282Y-135682025D01*
X144724089Y-136076604D01*
X144695201Y-136434732D01*
X144670233Y-136748654D01*
X144649800Y-137010614D01*
X144634519Y-137212856D01*
X144625004Y-137347624D01*
X144621872Y-137407164D01*
X144630140Y-137434446D01*
X144667297Y-137493359D01*
X144737766Y-137582146D01*
X144771775Y-137620953D01*
X144845300Y-137704854D01*
X144993649Y-137865527D01*
X145186567Y-138068210D01*
X145427805Y-138316949D01*
X145721114Y-138615789D01*
X146070246Y-138968775D01*
X146299924Y-139200405D01*
X146620099Y-139523490D01*
X146939151Y-139845639D01*
X147247489Y-140157160D01*
X147535520Y-140448357D01*
X147793655Y-140709536D01*
X148012301Y-140931002D01*
X148181866Y-141103062D01*
X148846520Y-141778477D01*
X148725797Y-141904485D01*
X148697326Y-141932875D01*
X148613331Y-142002590D01*
X148555709Y-142030492D01*
X148510596Y-142006672D01*
X148426723Y-141935191D01*
X148326171Y-141832705D01*
X148264966Y-141767973D01*
X148150824Y-141649767D01*
X147989504Y-141483969D01*
X147786701Y-141276395D01*
X147548113Y-141032858D01*
X147279435Y-140759174D01*
X146986366Y-140461158D01*
X146674601Y-140144624D01*
X146349838Y-139815388D01*
X144553678Y-137995857D01*
X144480512Y-138940961D01*
X144464563Y-139142684D01*
X144441271Y-139413846D01*
X144420263Y-139619229D01*
X144399983Y-139769629D01*
X144378873Y-139875842D01*
X144355376Y-139948663D01*
X144327935Y-139998888D01*
X144289530Y-140069083D01*
X144257929Y-140198131D01*
X144248524Y-140384052D01*
X144248524Y-140656394D01*
X143499016Y-140656394D01*
X143499016Y-140073443D01*
X140698859Y-140073443D01*
X140536999Y-140257326D01*
X140492733Y-140305209D01*
X140252825Y-140497578D01*
X139981760Y-140616006D01*
X139688258Y-140656394D01*
X139429274Y-140634981D01*
X139136345Y-140544713D01*
X138885579Y-140383379D01*
X138836705Y-140337270D01*
X138714564Y-140188003D01*
X138607402Y-140014120D01*
X138530557Y-139842724D01*
X138499368Y-139700923D01*
X138498765Y-139680339D01*
X138494279Y-139604912D01*
X138482549Y-139552812D01*
X138458011Y-139528160D01*
X138415099Y-139535074D01*
X138348246Y-139577673D01*
X138251889Y-139660077D01*
X138120461Y-139786405D01*
X137948397Y-139960777D01*
X137730131Y-140187311D01*
X137460097Y-140470127D01*
X137316262Y-140621091D01*
X137075835Y-140873854D01*
X136848366Y-141113493D01*
X136642771Y-141330590D01*
X136467961Y-141515725D01*
X136332853Y-141659483D01*
X136246360Y-141752444D01*
X136009934Y-142009672D01*
X135863806Y-141863935D01*
X135717678Y-141718197D01*
X137525168Y-139823607D01*
X137639134Y-139704065D01*
X138044594Y-139277161D01*
X138392648Y-138907872D01*
X138684339Y-138595052D01*
X138920711Y-138337555D01*
X139087854Y-138150934D01*
X139772194Y-138150934D01*
X139777575Y-138194845D01*
X139778514Y-138199433D01*
X139823360Y-138303444D01*
X139912936Y-138351907D01*
X140189049Y-138455224D01*
X140435054Y-138627340D01*
X140628538Y-138855012D01*
X140761144Y-139128289D01*
X140824511Y-139437218D01*
X140845500Y-139698689D01*
X143989660Y-139698689D01*
X144011581Y-139605000D01*
X144015459Y-139582008D01*
X144027509Y-139479193D01*
X144043953Y-139312955D01*
X144063567Y-139096538D01*
X144085132Y-138843183D01*
X144107424Y-138566132D01*
X144181346Y-137620953D01*
X143184931Y-136609083D01*
X143002170Y-136424100D01*
X142778557Y-136199529D01*
X142577947Y-136000029D01*
X142407380Y-135832500D01*
X142273892Y-135703842D01*
X142184522Y-135620955D01*
X142146307Y-135590741D01*
X142120681Y-135605177D01*
X142044357Y-135670863D01*
X141929493Y-135780586D01*
X141786364Y-135924452D01*
X141625246Y-136092566D01*
X141583215Y-136137151D01*
X141394758Y-136336582D01*
X141170190Y-136573648D01*
X140926419Y-136830527D01*
X140680354Y-137089399D01*
X140448902Y-137332441D01*
X140434998Y-137347026D01*
X140219816Y-137573451D01*
X140055619Y-137748783D01*
X139935916Y-137881360D01*
X139854215Y-137979524D01*
X139804022Y-138051614D01*
X139778846Y-138105971D01*
X139772194Y-138150934D01*
X139087854Y-138150934D01*
X139102807Y-138134238D01*
X139231670Y-137983953D01*
X139308343Y-137885556D01*
X139333870Y-137837902D01*
X139333873Y-137837619D01*
X139330371Y-137778229D01*
X139320143Y-137645100D01*
X139303988Y-137447292D01*
X139282707Y-137193866D01*
X139257104Y-136893884D01*
X139227978Y-136556406D01*
X139196131Y-136190494D01*
X139162364Y-135805208D01*
X139127480Y-135409610D01*
X139092278Y-135012761D01*
X139057561Y-134623721D01*
X139024129Y-134251553D01*
X138992785Y-133905316D01*
X138964330Y-133594072D01*
X138939564Y-133326882D01*
X138919289Y-133112807D01*
X138904307Y-132960908D01*
X138895419Y-132880246D01*
X138877499Y-132745143D01*
X139305296Y-132745143D01*
X139310776Y-132847538D01*
X139322835Y-133019734D01*
X139340868Y-133254301D01*
X139364272Y-133543804D01*
X139392444Y-133880812D01*
X139424779Y-134257892D01*
X139460675Y-134667611D01*
X139499527Y-135102536D01*
X139529899Y-135437958D01*
X139567940Y-135853936D01*
X139603556Y-136238851D01*
X139636039Y-136585289D01*
X139664682Y-136885839D01*
X139688777Y-137133087D01*
X139707616Y-137319622D01*
X139720490Y-137438030D01*
X139726692Y-137480900D01*
X139745505Y-137467619D01*
X139814493Y-137402424D01*
X139926592Y-137290441D01*
X140074085Y-137139820D01*
X140249256Y-136958711D01*
X140444386Y-136755268D01*
X140651760Y-136537639D01*
X140863659Y-136313977D01*
X141072368Y-136092433D01*
X141270168Y-135881157D01*
X141449343Y-135688302D01*
X141602176Y-135522017D01*
X141720949Y-135390454D01*
X141797947Y-135301764D01*
X141820442Y-135270956D01*
X142422546Y-135270956D01*
X143335535Y-136183238D01*
X143558795Y-136405954D01*
X143769212Y-136614371D01*
X143932210Y-136773117D01*
X144053763Y-136887343D01*
X144139842Y-136962200D01*
X144196421Y-137002839D01*
X144229471Y-137014411D01*
X144244965Y-137002066D01*
X144248875Y-136970957D01*
X144251382Y-136920972D01*
X144260414Y-136792266D01*
X144275341Y-136596929D01*
X144295443Y-136343860D01*
X144320004Y-136041961D01*
X144348306Y-135700131D01*
X144379631Y-135327272D01*
X144413262Y-134932283D01*
X144442951Y-134584157D01*
X144473888Y-134217490D01*
X144501629Y-133884563D01*
X144525506Y-133593580D01*
X144544853Y-133352746D01*
X144559005Y-133170265D01*
X144567296Y-133054342D01*
X144569059Y-133013182D01*
X144567662Y-133013956D01*
X144528339Y-133051847D01*
X144440986Y-133140755D01*
X144313297Y-133272615D01*
X144152966Y-133439364D01*
X143967687Y-133632937D01*
X143765156Y-133845270D01*
X143553065Y-134068299D01*
X143339109Y-134293959D01*
X143130982Y-134514188D01*
X142936379Y-134720919D01*
X142762994Y-134906090D01*
X142428945Y-135264098D01*
X142422546Y-135270956D01*
X141820442Y-135270956D01*
X141825450Y-135264098D01*
X141798489Y-135227596D01*
X141720105Y-135140225D01*
X141597581Y-135009514D01*
X141438206Y-134842829D01*
X141249276Y-134647539D01*
X141038081Y-134431011D01*
X140811914Y-134200613D01*
X140578067Y-133963714D01*
X140343834Y-133727679D01*
X140116505Y-133499878D01*
X139903375Y-133287677D01*
X139711734Y-133098446D01*
X139548877Y-132939550D01*
X139422094Y-132818358D01*
X139338678Y-132742238D01*
X139305923Y-132718558D01*
X139305296Y-132745143D01*
X138877499Y-132745143D01*
X138871946Y-132703279D01*
X137960983Y-132703279D01*
X137959893Y-132005820D01*
X137959327Y-131643881D01*
X138294098Y-131643881D01*
X138294098Y-132370164D01*
X138564754Y-132370164D01*
X138588832Y-132370143D01*
X138724784Y-132367242D01*
X138798720Y-132354837D01*
X138829356Y-132326368D01*
X138835409Y-132275273D01*
X138808749Y-132200164D01*
X138717431Y-132075220D01*
X138564754Y-131912131D01*
X138294098Y-131643881D01*
X137959327Y-131643881D01*
X137958802Y-131308361D01*
X134967052Y-128268689D01*
X134965001Y-127980316D01*
X134962950Y-127691945D01*
X136757168Y-129510562D01*
X136930584Y-129686222D01*
X137290428Y-130049736D01*
X137598084Y-130358836D01*
X137857527Y-130617326D01*
X138072732Y-130829008D01*
X138247673Y-130997688D01*
X138386327Y-131127169D01*
X138492667Y-131221255D01*
X138570669Y-131283749D01*
X138624308Y-131318457D01*
X138657558Y-131329180D01*
X138713622Y-131325933D01*
X138745095Y-131302216D01*
X138750524Y-131237328D01*
X138737473Y-131110574D01*
X138728475Y-131030770D01*
X138715955Y-130897382D01*
X138710910Y-130808689D01*
X138708441Y-130778114D01*
X138684372Y-130745368D01*
X138617883Y-130734516D01*
X138488805Y-130739252D01*
X138455848Y-130741109D01*
X138323923Y-130739016D01*
X138230083Y-130710027D01*
X138163939Y-130662951D01*
X139101968Y-130662951D01*
X139115748Y-130819098D01*
X139122112Y-130889944D01*
X139141945Y-131083371D01*
X139161489Y-131210770D01*
X139184340Y-131285379D01*
X139214096Y-131320437D01*
X139254354Y-131329180D01*
X139290552Y-131335136D01*
X139314557Y-131363590D01*
X139327970Y-131429738D01*
X139333806Y-131548769D01*
X139335082Y-131735874D01*
X139335082Y-132142568D01*
X139468200Y-132275273D01*
X139793114Y-132599180D01*
X140251147Y-133055793D01*
X140251147Y-132703279D01*
X142749508Y-132703279D01*
X142749508Y-133494426D01*
X140701340Y-133494426D01*
X141395958Y-134212705D01*
X141529008Y-134349892D01*
X141712986Y-134538202D01*
X141872740Y-134700073D01*
X141999903Y-134827100D01*
X142086108Y-134910879D01*
X142122988Y-134943004D01*
X142137006Y-134934144D01*
X142202739Y-134874589D01*
X142316083Y-134764312D01*
X142470981Y-134609438D01*
X142661380Y-134416090D01*
X142881223Y-134190395D01*
X143124457Y-133938476D01*
X143385025Y-133666457D01*
X143646931Y-133391582D01*
X143903672Y-133120679D01*
X144111879Y-132898634D01*
X144276645Y-132719562D01*
X144403063Y-132577574D01*
X144496226Y-132466785D01*
X144561225Y-132381308D01*
X144603153Y-132315256D01*
X144627104Y-132262742D01*
X144638168Y-132217880D01*
X144641101Y-132196029D01*
X144654108Y-132075618D01*
X144670569Y-131898352D01*
X144688675Y-131684442D01*
X144706614Y-131454098D01*
X144712697Y-131373874D01*
X144730270Y-131157112D01*
X144747026Y-130970145D01*
X144761315Y-130830734D01*
X144771484Y-130756639D01*
X144791422Y-130662951D01*
X139101968Y-130662951D01*
X138163939Y-130662951D01*
X138137594Y-130644201D01*
X138121666Y-130630343D01*
X137991398Y-130462527D01*
X137939807Y-130288197D01*
X139068344Y-130288197D01*
X143752501Y-130288197D01*
X143745715Y-130121639D01*
X144456721Y-130121639D01*
X144456721Y-130288197D01*
X144645563Y-130288197D01*
X144702140Y-130287797D01*
X144785970Y-130280512D01*
X144810171Y-130256909D01*
X144791385Y-130207814D01*
X144785833Y-130198454D01*
X144723515Y-130126470D01*
X144633229Y-130046584D01*
X144543167Y-129981790D01*
X144481523Y-129955082D01*
X144475979Y-129959304D01*
X144462227Y-130017298D01*
X144456721Y-130121639D01*
X143745715Y-130121639D01*
X143740266Y-129987887D01*
X143728032Y-129687577D01*
X143478196Y-129637392D01*
X143352906Y-129614632D01*
X143143676Y-129582764D01*
X142947295Y-129558722D01*
X142666229Y-129530237D01*
X142666229Y-129871803D01*
X140750819Y-129871803D01*
X140750819Y-129570732D01*
X140511393Y-129599311D01*
X140145567Y-129660561D01*
X139777391Y-129771305D01*
X139472848Y-129925729D01*
X139226777Y-130125947D01*
X139068344Y-130288197D01*
X137939807Y-130288197D01*
X137934076Y-130268831D01*
X137951635Y-130065641D01*
X138046013Y-129869344D01*
X138055147Y-129857121D01*
X138181277Y-129751964D01*
X138345705Y-129689762D01*
X138522956Y-129673217D01*
X138687555Y-129705030D01*
X138814027Y-129787903D01*
X138856848Y-129830211D01*
X138898564Y-129840465D01*
X138958299Y-129808745D01*
X139059170Y-129729550D01*
X139090118Y-129705208D01*
X139329064Y-129551582D01*
X139612143Y-129414965D01*
X139843668Y-129330492D01*
X141083934Y-129330492D01*
X141083934Y-129538689D01*
X142333114Y-129538689D01*
X142333114Y-129330492D01*
X141083934Y-129330492D01*
X139843668Y-129330492D01*
X139912997Y-129305197D01*
X140205268Y-129232120D01*
X140462599Y-129205574D01*
X140489938Y-129205363D01*
X140641893Y-129190569D01*
X140725343Y-129149091D01*
X140750819Y-129076201D01*
X140753811Y-129053237D01*
X140770167Y-129033486D01*
X140809893Y-129019029D01*
X140882972Y-129009043D01*
X140999390Y-129002706D01*
X141169131Y-128999198D01*
X141402181Y-128997695D01*
X141708524Y-128997377D01*
X141995562Y-128997938D01*
X142239526Y-129000205D01*
X142418124Y-129004776D01*
X142540723Y-129012244D01*
X142616695Y-129023200D01*
X142655407Y-129038238D01*
X142666229Y-129057949D01*
X142701824Y-129106349D01*
X142801557Y-129137236D01*
X142839730Y-129142640D01*
X142969885Y-129161662D01*
X143143082Y-129187447D01*
X143332459Y-129216008D01*
X143436900Y-129230547D01*
X143589750Y-129246294D01*
X143697597Y-129250092D01*
X143741912Y-129240819D01*
X143749479Y-129234778D01*
X143819340Y-129219859D01*
X143945011Y-129209471D01*
X144106256Y-129205574D01*
X144456721Y-129205574D01*
X144456760Y-129330492D01*
X144456763Y-129340902D01*
G36*
X144456763Y-129340902D02*
G01*
X144458399Y-129383786D01*
X144479696Y-129455787D01*
X144540309Y-129516850D01*
X144658549Y-129589536D01*
X144762345Y-129655943D01*
X144920366Y-129783441D01*
X145063572Y-129926572D01*
X145173116Y-130065812D01*
X145230152Y-130181637D01*
X145244126Y-130226269D01*
X145270014Y-130256909D01*
X145278743Y-130267241D01*
X145350091Y-130284600D01*
X145481399Y-130288197D01*
X145705901Y-130288197D01*
X145705901Y-130662951D01*
X145177616Y-130662951D01*
X145128290Y-131251669D01*
X145121668Y-131332155D01*
X145106238Y-131533636D01*
X145095339Y-131697583D01*
X145089911Y-131808857D01*
X145090897Y-131852318D01*
X145105247Y-131839825D01*
X145170724Y-131774698D01*
X145283918Y-131659266D01*
X145439102Y-131499513D01*
X145630548Y-131301423D01*
X145852528Y-131070980D01*
X146099313Y-130814167D01*
X146365174Y-130536968D01*
X146644385Y-130245368D01*
X146931216Y-129945350D01*
X147219940Y-129642899D01*
X147504827Y-129343997D01*
X147780151Y-129054629D01*
X148040182Y-128780779D01*
X148279193Y-128528430D01*
X148491456Y-128303567D01*
X148671241Y-128112173D01*
X148992482Y-127769017D01*
X148993946Y-128061336D01*
X148995409Y-128353656D01*
X147006746Y-130445079D01*
X145018082Y-132536502D01*
X144978329Y-133013182D01*
X144819274Y-134920464D01*
X144791163Y-135258749D01*
X144756282Y-135682025D01*
X144724089Y-136076604D01*
X144695201Y-136434732D01*
X144670233Y-136748654D01*
X144649800Y-137010614D01*
X144634519Y-137212856D01*
X144625004Y-137347624D01*
X144621872Y-137407164D01*
X144630140Y-137434446D01*
X144667297Y-137493359D01*
X144737766Y-137582146D01*
X144771775Y-137620953D01*
X144845300Y-137704854D01*
X144993649Y-137865527D01*
X145186567Y-138068210D01*
X145427805Y-138316949D01*
X145721114Y-138615789D01*
X146070246Y-138968775D01*
X146299924Y-139200405D01*
X146620099Y-139523490D01*
X146939151Y-139845639D01*
X147247489Y-140157160D01*
X147535520Y-140448357D01*
X147793655Y-140709536D01*
X148012301Y-140931002D01*
X148181866Y-141103062D01*
X148846520Y-141778477D01*
X148725797Y-141904485D01*
X148697326Y-141932875D01*
X148613331Y-142002590D01*
X148555709Y-142030492D01*
X148510596Y-142006672D01*
X148426723Y-141935191D01*
X148326171Y-141832705D01*
X148264966Y-141767973D01*
X148150824Y-141649767D01*
X147989504Y-141483969D01*
X147786701Y-141276395D01*
X147548113Y-141032858D01*
X147279435Y-140759174D01*
X146986366Y-140461158D01*
X146674601Y-140144624D01*
X146349838Y-139815388D01*
X144553678Y-137995857D01*
X144480512Y-138940961D01*
X144464563Y-139142684D01*
X144441271Y-139413846D01*
X144420263Y-139619229D01*
X144399983Y-139769629D01*
X144378873Y-139875842D01*
X144355376Y-139948663D01*
X144327935Y-139998888D01*
X144289530Y-140069083D01*
X144257929Y-140198131D01*
X144248524Y-140384052D01*
X144248524Y-140656394D01*
X143499016Y-140656394D01*
X143499016Y-140073443D01*
X140698859Y-140073443D01*
X140536999Y-140257326D01*
X140492733Y-140305209D01*
X140252825Y-140497578D01*
X139981760Y-140616006D01*
X139688258Y-140656394D01*
X139429274Y-140634981D01*
X139136345Y-140544713D01*
X138885579Y-140383379D01*
X138836705Y-140337270D01*
X138714564Y-140188003D01*
X138607402Y-140014120D01*
X138530557Y-139842724D01*
X138499368Y-139700923D01*
X138498765Y-139680339D01*
X138494279Y-139604912D01*
X138482549Y-139552812D01*
X138458011Y-139528160D01*
X138415099Y-139535074D01*
X138348246Y-139577673D01*
X138251889Y-139660077D01*
X138120461Y-139786405D01*
X137948397Y-139960777D01*
X137730131Y-140187311D01*
X137460097Y-140470127D01*
X137316262Y-140621091D01*
X137075835Y-140873854D01*
X136848366Y-141113493D01*
X136642771Y-141330590D01*
X136467961Y-141515725D01*
X136332853Y-141659483D01*
X136246360Y-141752444D01*
X136009934Y-142009672D01*
X135863806Y-141863935D01*
X135717678Y-141718197D01*
X137525168Y-139823607D01*
X137639134Y-139704065D01*
X138044594Y-139277161D01*
X138392648Y-138907872D01*
X138684339Y-138595052D01*
X138920711Y-138337555D01*
X139087854Y-138150934D01*
X139772194Y-138150934D01*
X139777575Y-138194845D01*
X139778514Y-138199433D01*
X139823360Y-138303444D01*
X139912936Y-138351907D01*
X140189049Y-138455224D01*
X140435054Y-138627340D01*
X140628538Y-138855012D01*
X140761144Y-139128289D01*
X140824511Y-139437218D01*
X140845500Y-139698689D01*
X143989660Y-139698689D01*
X144011581Y-139605000D01*
X144015459Y-139582008D01*
X144027509Y-139479193D01*
X144043953Y-139312955D01*
X144063567Y-139096538D01*
X144085132Y-138843183D01*
X144107424Y-138566132D01*
X144181346Y-137620953D01*
X143184931Y-136609083D01*
X143002170Y-136424100D01*
X142778557Y-136199529D01*
X142577947Y-136000029D01*
X142407380Y-135832500D01*
X142273892Y-135703842D01*
X142184522Y-135620955D01*
X142146307Y-135590741D01*
X142120681Y-135605177D01*
X142044357Y-135670863D01*
X141929493Y-135780586D01*
X141786364Y-135924452D01*
X141625246Y-136092566D01*
X141583215Y-136137151D01*
X141394758Y-136336582D01*
X141170190Y-136573648D01*
X140926419Y-136830527D01*
X140680354Y-137089399D01*
X140448902Y-137332441D01*
X140434998Y-137347026D01*
X140219816Y-137573451D01*
X140055619Y-137748783D01*
X139935916Y-137881360D01*
X139854215Y-137979524D01*
X139804022Y-138051614D01*
X139778846Y-138105971D01*
X139772194Y-138150934D01*
X139087854Y-138150934D01*
X139102807Y-138134238D01*
X139231670Y-137983953D01*
X139308343Y-137885556D01*
X139333870Y-137837902D01*
X139333873Y-137837619D01*
X139330371Y-137778229D01*
X139320143Y-137645100D01*
X139303988Y-137447292D01*
X139282707Y-137193866D01*
X139257104Y-136893884D01*
X139227978Y-136556406D01*
X139196131Y-136190494D01*
X139162364Y-135805208D01*
X139127480Y-135409610D01*
X139092278Y-135012761D01*
X139057561Y-134623721D01*
X139024129Y-134251553D01*
X138992785Y-133905316D01*
X138964330Y-133594072D01*
X138939564Y-133326882D01*
X138919289Y-133112807D01*
X138904307Y-132960908D01*
X138895419Y-132880246D01*
X138877499Y-132745143D01*
X139305296Y-132745143D01*
X139310776Y-132847538D01*
X139322835Y-133019734D01*
X139340868Y-133254301D01*
X139364272Y-133543804D01*
X139392444Y-133880812D01*
X139424779Y-134257892D01*
X139460675Y-134667611D01*
X139499527Y-135102536D01*
X139529899Y-135437958D01*
X139567940Y-135853936D01*
X139603556Y-136238851D01*
X139636039Y-136585289D01*
X139664682Y-136885839D01*
X139688777Y-137133087D01*
X139707616Y-137319622D01*
X139720490Y-137438030D01*
X139726692Y-137480900D01*
X139745505Y-137467619D01*
X139814493Y-137402424D01*
X139926592Y-137290441D01*
X140074085Y-137139820D01*
X140249256Y-136958711D01*
X140444386Y-136755268D01*
X140651760Y-136537639D01*
X140863659Y-136313977D01*
X141072368Y-136092433D01*
X141270168Y-135881157D01*
X141449343Y-135688302D01*
X141602176Y-135522017D01*
X141720949Y-135390454D01*
X141797947Y-135301764D01*
X141820442Y-135270956D01*
X142422546Y-135270956D01*
X143335535Y-136183238D01*
X143558795Y-136405954D01*
X143769212Y-136614371D01*
X143932210Y-136773117D01*
X144053763Y-136887343D01*
X144139842Y-136962200D01*
X144196421Y-137002839D01*
X144229471Y-137014411D01*
X144244965Y-137002066D01*
X144248875Y-136970957D01*
X144251382Y-136920972D01*
X144260414Y-136792266D01*
X144275341Y-136596929D01*
X144295443Y-136343860D01*
X144320004Y-136041961D01*
X144348306Y-135700131D01*
X144379631Y-135327272D01*
X144413262Y-134932283D01*
X144442951Y-134584157D01*
X144473888Y-134217490D01*
X144501629Y-133884563D01*
X144525506Y-133593580D01*
X144544853Y-133352746D01*
X144559005Y-133170265D01*
X144567296Y-133054342D01*
X144569059Y-133013182D01*
X144567662Y-133013956D01*
X144528339Y-133051847D01*
X144440986Y-133140755D01*
X144313297Y-133272615D01*
X144152966Y-133439364D01*
X143967687Y-133632937D01*
X143765156Y-133845270D01*
X143553065Y-134068299D01*
X143339109Y-134293959D01*
X143130982Y-134514188D01*
X142936379Y-134720919D01*
X142762994Y-134906090D01*
X142428945Y-135264098D01*
X142422546Y-135270956D01*
X141820442Y-135270956D01*
X141825450Y-135264098D01*
X141798489Y-135227596D01*
X141720105Y-135140225D01*
X141597581Y-135009514D01*
X141438206Y-134842829D01*
X141249276Y-134647539D01*
X141038081Y-134431011D01*
X140811914Y-134200613D01*
X140578067Y-133963714D01*
X140343834Y-133727679D01*
X140116505Y-133499878D01*
X139903375Y-133287677D01*
X139711734Y-133098446D01*
X139548877Y-132939550D01*
X139422094Y-132818358D01*
X139338678Y-132742238D01*
X139305923Y-132718558D01*
X139305296Y-132745143D01*
X138877499Y-132745143D01*
X138871946Y-132703279D01*
X137960983Y-132703279D01*
X137959893Y-132005820D01*
X137959327Y-131643881D01*
X138294098Y-131643881D01*
X138294098Y-132370164D01*
X138564754Y-132370164D01*
X138588832Y-132370143D01*
X138724784Y-132367242D01*
X138798720Y-132354837D01*
X138829356Y-132326368D01*
X138835409Y-132275273D01*
X138808749Y-132200164D01*
X138717431Y-132075220D01*
X138564754Y-131912131D01*
X138294098Y-131643881D01*
X137959327Y-131643881D01*
X137958802Y-131308361D01*
X134967052Y-128268689D01*
X134965001Y-127980316D01*
X134962950Y-127691945D01*
X136757168Y-129510562D01*
X136930584Y-129686222D01*
X137290428Y-130049736D01*
X137598084Y-130358836D01*
X137857527Y-130617326D01*
X138072732Y-130829008D01*
X138247673Y-130997688D01*
X138386327Y-131127169D01*
X138492667Y-131221255D01*
X138570669Y-131283749D01*
X138624308Y-131318457D01*
X138657558Y-131329180D01*
X138713622Y-131325933D01*
X138745095Y-131302216D01*
X138750524Y-131237328D01*
X138737473Y-131110574D01*
X138728475Y-131030770D01*
X138715955Y-130897382D01*
X138710910Y-130808689D01*
X138708441Y-130778114D01*
X138684372Y-130745368D01*
X138617883Y-130734516D01*
X138488805Y-130739252D01*
X138455848Y-130741109D01*
X138323923Y-130739016D01*
X138230083Y-130710027D01*
X138163939Y-130662951D01*
X139101968Y-130662951D01*
X139115748Y-130819098D01*
X139122112Y-130889944D01*
X139141945Y-131083371D01*
X139161489Y-131210770D01*
X139184340Y-131285379D01*
X139214096Y-131320437D01*
X139254354Y-131329180D01*
X139290552Y-131335136D01*
X139314557Y-131363590D01*
X139327970Y-131429738D01*
X139333806Y-131548769D01*
X139335082Y-131735874D01*
X139335082Y-132142568D01*
X139468200Y-132275273D01*
X139793114Y-132599180D01*
X140251147Y-133055793D01*
X140251147Y-132703279D01*
X142749508Y-132703279D01*
X142749508Y-133494426D01*
X140701340Y-133494426D01*
X141395958Y-134212705D01*
X141529008Y-134349892D01*
X141712986Y-134538202D01*
X141872740Y-134700073D01*
X141999903Y-134827100D01*
X142086108Y-134910879D01*
X142122988Y-134943004D01*
X142137006Y-134934144D01*
X142202739Y-134874589D01*
X142316083Y-134764312D01*
X142470981Y-134609438D01*
X142661380Y-134416090D01*
X142881223Y-134190395D01*
X143124457Y-133938476D01*
X143385025Y-133666457D01*
X143646931Y-133391582D01*
X143903672Y-133120679D01*
X144111879Y-132898634D01*
X144276645Y-132719562D01*
X144403063Y-132577574D01*
X144496226Y-132466785D01*
X144561225Y-132381308D01*
X144603153Y-132315256D01*
X144627104Y-132262742D01*
X144638168Y-132217880D01*
X144641101Y-132196029D01*
X144654108Y-132075618D01*
X144670569Y-131898352D01*
X144688675Y-131684442D01*
X144706614Y-131454098D01*
X144712697Y-131373874D01*
X144730270Y-131157112D01*
X144747026Y-130970145D01*
X144761315Y-130830734D01*
X144771484Y-130756639D01*
X144791422Y-130662951D01*
X139101968Y-130662951D01*
X138163939Y-130662951D01*
X138137594Y-130644201D01*
X138121666Y-130630343D01*
X137991398Y-130462527D01*
X137939807Y-130288197D01*
X139068344Y-130288197D01*
X143752501Y-130288197D01*
X143745715Y-130121639D01*
X144456721Y-130121639D01*
X144456721Y-130288197D01*
X144645563Y-130288197D01*
X144702140Y-130287797D01*
X144785970Y-130280512D01*
X144810171Y-130256909D01*
X144791385Y-130207814D01*
X144785833Y-130198454D01*
X144723515Y-130126470D01*
X144633229Y-130046584D01*
X144543167Y-129981790D01*
X144481523Y-129955082D01*
X144475979Y-129959304D01*
X144462227Y-130017298D01*
X144456721Y-130121639D01*
X143745715Y-130121639D01*
X143740266Y-129987887D01*
X143728032Y-129687577D01*
X143478196Y-129637392D01*
X143352906Y-129614632D01*
X143143676Y-129582764D01*
X142947295Y-129558722D01*
X142666229Y-129530237D01*
X142666229Y-129871803D01*
X140750819Y-129871803D01*
X140750819Y-129570732D01*
X140511393Y-129599311D01*
X140145567Y-129660561D01*
X139777391Y-129771305D01*
X139472848Y-129925729D01*
X139226777Y-130125947D01*
X139068344Y-130288197D01*
X137939807Y-130288197D01*
X137934076Y-130268831D01*
X137951635Y-130065641D01*
X138046013Y-129869344D01*
X138055147Y-129857121D01*
X138181277Y-129751964D01*
X138345705Y-129689762D01*
X138522956Y-129673217D01*
X138687555Y-129705030D01*
X138814027Y-129787903D01*
X138856848Y-129830211D01*
X138898564Y-129840465D01*
X138958299Y-129808745D01*
X139059170Y-129729550D01*
X139090118Y-129705208D01*
X139329064Y-129551582D01*
X139612143Y-129414965D01*
X139843668Y-129330492D01*
X141083934Y-129330492D01*
X141083934Y-129538689D01*
X142333114Y-129538689D01*
X142333114Y-129330492D01*
X141083934Y-129330492D01*
X139843668Y-129330492D01*
X139912997Y-129305197D01*
X140205268Y-129232120D01*
X140462599Y-129205574D01*
X140489938Y-129205363D01*
X140641893Y-129190569D01*
X140725343Y-129149091D01*
X140750819Y-129076201D01*
X140753811Y-129053237D01*
X140770167Y-129033486D01*
X140809893Y-129019029D01*
X140882972Y-129009043D01*
X140999390Y-129002706D01*
X141169131Y-128999198D01*
X141402181Y-128997695D01*
X141708524Y-128997377D01*
X141995562Y-128997938D01*
X142239526Y-129000205D01*
X142418124Y-129004776D01*
X142540723Y-129012244D01*
X142616695Y-129023200D01*
X142655407Y-129038238D01*
X142666229Y-129057949D01*
X142701824Y-129106349D01*
X142801557Y-129137236D01*
X142839730Y-129142640D01*
X142969885Y-129161662D01*
X143143082Y-129187447D01*
X143332459Y-129216008D01*
X143436900Y-129230547D01*
X143589750Y-129246294D01*
X143697597Y-129250092D01*
X143741912Y-129240819D01*
X143749479Y-129234778D01*
X143819340Y-129219859D01*
X143945011Y-129209471D01*
X144106256Y-129205574D01*
X144456721Y-129205574D01*
X144456760Y-129330492D01*
X144456763Y-129340902D01*
G37*
%TD*%
M02*
