%TF.GenerationSoftware,KiCad,Pcbnew,8.0.8*%
%TF.CreationDate,2026-02-04T08:37:40+05:30*%
%TF.ProjectId,power supply,706f7765-7220-4737-9570-706c792e6b69,rev?*%
%TF.SameCoordinates,Original*%
%TF.FileFunction,Soldermask,Bot*%
%TF.FilePolarity,Negative*%
%FSLAX46Y46*%
G04 Gerber Fmt 4.6, Leading zero omitted, Abs format (unit mm)*
G04 Created by KiCad (PCBNEW 8.0.8) date 2026-02-04 08:37:40*
%MOMM*%
%LPD*%
G01*
G04 APERTURE LIST*
%ADD10R,2.200000X2.200000*%
%ADD11O,2.200000X2.200000*%
%ADD12R,2.600000X2.600000*%
%ADD13C,2.600000*%
%ADD14C,1.600000*%
%ADD15O,1.600000X1.600000*%
%ADD16R,1.800000X1.800000*%
%ADD17C,1.800000*%
%ADD18R,2.800000X2.800000*%
%ADD19O,2.800000X2.800000*%
%ADD20R,1.600000X1.600000*%
%ADD21C,2.400000*%
%ADD22R,1.905000X2.000000*%
%ADD23O,1.905000X2.000000*%
G04 APERTURE END LIST*
D10*
%TO.C,D1*%
X99300000Y-120920000D03*
D11*
X99300000Y-131080000D03*
%TD*%
D10*
%TO.C,D2*%
X99500000Y-135400000D03*
D11*
X99500000Y-145560000D03*
%TD*%
D12*
%TO.C,J1*%
X89600000Y-126000000D03*
D13*
X89600000Y-131000000D03*
%TD*%
D14*
%TO.C,R1*%
X88200000Y-121180000D03*
D15*
X88200000Y-111020000D03*
%TD*%
D12*
%TO.C,J2*%
X152800000Y-135100000D03*
D13*
X152800000Y-130100000D03*
%TD*%
D14*
%TO.C,C2*%
X115500000Y-121800000D03*
X120500000Y-121800000D03*
%TD*%
D10*
%TO.C,D3*%
X107600000Y-121500000D03*
D11*
X107600000Y-131660000D03*
%TD*%
D14*
%TO.C,R2*%
X125840000Y-136300000D03*
D15*
X136000000Y-136300000D03*
%TD*%
D16*
%TO.C,D7*%
X141400000Y-138200000D03*
D17*
X143940000Y-138200000D03*
%TD*%
D18*
%TO.C,D5*%
X126500000Y-121900000D03*
D19*
X139200000Y-121900000D03*
%TD*%
D20*
%TO.C,C3*%
X117647349Y-136700000D03*
D14*
X120147349Y-136700000D03*
%TD*%
D21*
%TO.C,C1*%
X95200000Y-114100000D03*
X110200000Y-114100000D03*
%TD*%
D14*
%TO.C,R3*%
X126600000Y-141400000D03*
D15*
X136760000Y-141400000D03*
%TD*%
D14*
%TO.C,R4*%
X130200000Y-114600000D03*
D15*
X140360000Y-114600000D03*
%TD*%
D20*
%TO.C,C4*%
X144847349Y-119900000D03*
D14*
X148347349Y-119900000D03*
%TD*%
D22*
%TO.C,U1*%
X124680000Y-112700000D03*
D23*
X122140000Y-112700000D03*
X119600000Y-112700000D03*
%TD*%
D10*
%TO.C,D4*%
X107800000Y-135500000D03*
D11*
X107800000Y-145660000D03*
%TD*%
D18*
%TO.C,D6*%
X127450000Y-129300000D03*
D19*
X140150000Y-129300000D03*
%TD*%
M02*
