%TF.GenerationSoftware,KiCad,Pcbnew,8.0.8*%
%TF.CreationDate,2026-02-04T08:37:40+05:30*%
%TF.ProjectId,power supply,706f7765-7220-4737-9570-706c792e6b69,rev?*%
%TF.SameCoordinates,Original*%
%TF.FileFunction,Copper,L2,Bot*%
%TF.FilePolarity,Positive*%
%FSLAX46Y46*%
G04 Gerber Fmt 4.6, Leading zero omitted, Abs format (unit mm)*
G04 Created by KiCad (PCBNEW 8.0.8) date 2026-02-04 08:37:40*
%MOMM*%
%LPD*%
G01*
G04 APERTURE LIST*
%TA.AperFunction,ComponentPad*%
%ADD10R,2.200000X2.200000*%
%TD*%
%TA.AperFunction,ComponentPad*%
%ADD11O,2.200000X2.200000*%
%TD*%
%TA.AperFunction,ComponentPad*%
%ADD12R,2.600000X2.600000*%
%TD*%
%TA.AperFunction,ComponentPad*%
%ADD13C,2.600000*%
%TD*%
%TA.AperFunction,ComponentPad*%
%ADD14C,1.600000*%
%TD*%
%TA.AperFunction,ComponentPad*%
%ADD15O,1.600000X1.600000*%
%TD*%
%TA.AperFunction,ComponentPad*%
%ADD16R,1.800000X1.800000*%
%TD*%
%TA.AperFunction,ComponentPad*%
%ADD17C,1.800000*%
%TD*%
%TA.AperFunction,ComponentPad*%
%ADD18R,2.800000X2.800000*%
%TD*%
%TA.AperFunction,ComponentPad*%
%ADD19O,2.800000X2.800000*%
%TD*%
%TA.AperFunction,ComponentPad*%
%ADD20R,1.600000X1.600000*%
%TD*%
%TA.AperFunction,ComponentPad*%
%ADD21C,2.400000*%
%TD*%
%TA.AperFunction,ComponentPad*%
%ADD22R,1.905000X2.000000*%
%TD*%
%TA.AperFunction,ComponentPad*%
%ADD23O,1.905000X2.000000*%
%TD*%
%TA.AperFunction,Conductor*%
%ADD24C,1.000000*%
%TD*%
G04 APERTURE END LIST*
D10*
%TO.P,D1,1,K*%
%TO.N,Net-(D1-K)*%
X99300000Y-120920000D03*
D11*
%TO.P,D1,2,A*%
%TO.N,Net-(D1-A)*%
X99300000Y-131080000D03*
%TD*%
D10*
%TO.P,D2,1,K*%
%TO.N,Net-(D1-A)*%
X99500000Y-135400000D03*
D11*
%TO.P,D2,2,A*%
%TO.N,GND*%
X99500000Y-145560000D03*
%TD*%
D12*
%TO.P,J1,1,Pin_1*%
%TO.N,Net-(J1-Pin_1)*%
X89600000Y-126000000D03*
D13*
%TO.P,J1,2,Pin_2*%
%TO.N,Net-(D3-A)*%
X89600000Y-131000000D03*
%TD*%
D14*
%TO.P,R1,1*%
%TO.N,Net-(J1-Pin_1)*%
X88200000Y-121180000D03*
D15*
%TO.P,R1,2*%
%TO.N,Net-(D1-A)*%
X88200000Y-111020000D03*
%TD*%
D12*
%TO.P,J2,1,Pin_1*%
%TO.N,+5V*%
X152800000Y-135100000D03*
D13*
%TO.P,J2,2,Pin_2*%
%TO.N,GND*%
X152800000Y-130100000D03*
%TD*%
D14*
%TO.P,C2,1*%
%TO.N,Net-(D1-K)*%
X115500000Y-121800000D03*
%TO.P,C2,2*%
%TO.N,GND*%
X120500000Y-121800000D03*
%TD*%
D10*
%TO.P,D3,1,K*%
%TO.N,Net-(D1-K)*%
X107600000Y-121500000D03*
D11*
%TO.P,D3,2,A*%
%TO.N,Net-(D3-A)*%
X107600000Y-131660000D03*
%TD*%
D14*
%TO.P,R2,1*%
%TO.N,Net-(D5-A)*%
X125840000Y-136300000D03*
D15*
%TO.P,R2,2*%
%TO.N,GND*%
X136000000Y-136300000D03*
%TD*%
D16*
%TO.P,D7,1,K*%
%TO.N,GND*%
X141400000Y-138200000D03*
D17*
%TO.P,D7,2,A*%
%TO.N,Net-(D7-A)*%
X143940000Y-138200000D03*
%TD*%
D18*
%TO.P,D5,1,K*%
%TO.N,Net-(D1-K)*%
X126500000Y-121900000D03*
D19*
%TO.P,D5,2,A*%
%TO.N,Net-(D5-A)*%
X139200000Y-121900000D03*
%TD*%
D20*
%TO.P,C3,1*%
%TO.N,Net-(D1-K)*%
X117647349Y-136700000D03*
D14*
%TO.P,C3,2*%
%TO.N,GND*%
X120147349Y-136700000D03*
%TD*%
D21*
%TO.P,C1,1*%
%TO.N,Net-(J1-Pin_1)*%
X95200000Y-114100000D03*
%TO.P,C1,2*%
%TO.N,Net-(D1-A)*%
X110200000Y-114100000D03*
%TD*%
D14*
%TO.P,R3,1*%
%TO.N,Net-(D6-A)*%
X126600000Y-141400000D03*
D15*
%TO.P,R3,2*%
%TO.N,GND*%
X136760000Y-141400000D03*
%TD*%
D14*
%TO.P,R4,1*%
%TO.N,Net-(D1-K)*%
X130200000Y-114600000D03*
D15*
%TO.P,R4,2*%
%TO.N,Net-(D7-A)*%
X140360000Y-114600000D03*
%TD*%
D20*
%TO.P,C4,1*%
%TO.N,+5V*%
X144847349Y-119900000D03*
D14*
%TO.P,C4,2*%
%TO.N,GND*%
X148347349Y-119900000D03*
%TD*%
D22*
%TO.P,U1,1,VI*%
%TO.N,Net-(D1-K)*%
X124680000Y-112700000D03*
D23*
%TO.P,U1,2,GND*%
%TO.N,GND*%
X122140000Y-112700000D03*
%TO.P,U1,3,VO*%
%TO.N,+5V*%
X119600000Y-112700000D03*
%TD*%
D10*
%TO.P,D4,1,K*%
%TO.N,Net-(D3-A)*%
X107800000Y-135500000D03*
D11*
%TO.P,D4,2,A*%
%TO.N,GND*%
X107800000Y-145660000D03*
%TD*%
D18*
%TO.P,D6,1,K*%
%TO.N,Net-(D1-K)*%
X127450000Y-129300000D03*
D19*
%TO.P,D6,2,A*%
%TO.N,Net-(D6-A)*%
X140150000Y-129300000D03*
%TD*%
D24*
%TO.N,Net-(D1-A)*%
X99300000Y-131080000D02*
X99300000Y-135200000D01*
X99300000Y-135200000D02*
X99500000Y-135400000D01*
X110200000Y-136700000D02*
X109600000Y-137300000D01*
X109600000Y-137300000D02*
X105520000Y-137300000D01*
X88200000Y-111020000D02*
X107120000Y-111020000D01*
X107120000Y-111020000D02*
X110200000Y-114100000D01*
X105520000Y-137300000D02*
X99300000Y-131080000D01*
X110200000Y-114100000D02*
X110200000Y-136700000D01*
%TO.N,Net-(J1-Pin_1)*%
X89600000Y-122580000D02*
X88200000Y-121180000D01*
X89600000Y-126000000D02*
X89600000Y-122580000D01*
X88200000Y-121100000D02*
X95200000Y-114100000D01*
X88200000Y-121180000D02*
X88200000Y-121100000D01*
%TO.N,Net-(D1-K)*%
X130200000Y-114600000D02*
X130200000Y-118200000D01*
X126580000Y-114600000D02*
X124680000Y-112700000D01*
X130200000Y-118200000D02*
X126500000Y-121900000D01*
X130200000Y-114600000D02*
X126580000Y-114600000D01*
X107020000Y-120920000D02*
X107600000Y-121500000D01*
X125047349Y-129300000D02*
X127450000Y-129300000D01*
X99300000Y-120920000D02*
X107020000Y-120920000D01*
X127450000Y-129300000D02*
X127450000Y-122850000D01*
X117647349Y-136700000D02*
X125047349Y-129300000D01*
X127450000Y-122850000D02*
X126500000Y-121900000D01*
%TO.N,Net-(D3-A)*%
X89600000Y-131000000D02*
X91320000Y-129280000D01*
X107600000Y-135300000D02*
X107800000Y-135500000D01*
X91320000Y-129280000D02*
X105220000Y-129280000D01*
X105220000Y-129280000D02*
X107600000Y-131660000D01*
X107600000Y-131660000D02*
X107600000Y-135300000D01*
%TO.N,Net-(D5-A)*%
X139200000Y-122940000D02*
X139200000Y-121900000D01*
X125840000Y-136300000D02*
X139200000Y-122940000D01*
%TO.N,Net-(D6-A)*%
X126600000Y-141400000D02*
X128050000Y-141400000D01*
X128050000Y-141400000D02*
X140150000Y-129300000D01*
%TO.N,Net-(D7-A)*%
X141300000Y-115540000D02*
X141300000Y-127300000D01*
X143940000Y-129940000D02*
X143940000Y-138200000D01*
X141300000Y-127300000D02*
X143940000Y-129940000D01*
X140360000Y-114600000D02*
X141300000Y-115540000D01*
%TO.N,+5V*%
X144847349Y-116947349D02*
X144847349Y-119900000D01*
X121300000Y-111000000D02*
X138900000Y-111000000D01*
X145428428Y-119900000D02*
X154800000Y-129271572D01*
X144847349Y-119900000D02*
X145428428Y-119900000D01*
X138900000Y-111000000D02*
X144847349Y-116947349D01*
X154800000Y-129271572D02*
X154800000Y-133100000D01*
X119600000Y-112700000D02*
X121300000Y-111000000D01*
X154800000Y-133100000D02*
X152800000Y-135100000D01*
%TD*%
%TA.AperFunction,Conductor*%
%TO.N,GND*%
G36*
X154736080Y-104920185D02*
G01*
X154781835Y-104972989D01*
X154791779Y-105042147D01*
X154762754Y-105105703D01*
X154751668Y-105116959D01*
X154733343Y-105133334D01*
X154493805Y-105401377D01*
X154285790Y-105694545D01*
X154111905Y-106009168D01*
X153974339Y-106341281D01*
X153874828Y-106686694D01*
X153874826Y-106686703D01*
X153814614Y-107041085D01*
X153814612Y-107041097D01*
X153794457Y-107400000D01*
X153814612Y-107758902D01*
X153814614Y-107758914D01*
X153874826Y-108113296D01*
X153874828Y-108113305D01*
X153974339Y-108458718D01*
X154111905Y-108790831D01*
X154285790Y-109105454D01*
X154422851Y-109298622D01*
X154493806Y-109398623D01*
X154733339Y-109666661D01*
X154875005Y-109793261D01*
X155001377Y-109906194D01*
X155215254Y-110057949D01*
X155294548Y-110114211D01*
X155609167Y-110288094D01*
X155941276Y-110425659D01*
X156286700Y-110525173D01*
X156641093Y-110585387D01*
X157000000Y-110605543D01*
X157358907Y-110585387D01*
X157713300Y-110525173D01*
X158058724Y-110425659D01*
X158390833Y-110288094D01*
X158705452Y-110114211D01*
X158998623Y-109906194D01*
X159266661Y-109666661D01*
X159283040Y-109648331D01*
X159342387Y-109611461D01*
X159412248Y-109612528D01*
X159470443Y-109651196D01*
X159498493Y-109715188D01*
X159499500Y-109730958D01*
X159499500Y-143869040D01*
X159479815Y-143936079D01*
X159427011Y-143981834D01*
X159357853Y-143991778D01*
X159294297Y-143962753D01*
X159283042Y-143951669D01*
X159266662Y-143933340D01*
X158998622Y-143693805D01*
X158705454Y-143485790D01*
X158390831Y-143311905D01*
X158300139Y-143274339D01*
X158058724Y-143174341D01*
X158058720Y-143174339D01*
X158058718Y-143174339D01*
X157713305Y-143074828D01*
X157713296Y-143074826D01*
X157358914Y-143014614D01*
X157358902Y-143014612D01*
X157000000Y-142994457D01*
X156641097Y-143014612D01*
X156641085Y-143014614D01*
X156286703Y-143074826D01*
X156286694Y-143074828D01*
X155941281Y-143174339D01*
X155609168Y-143311905D01*
X155294545Y-143485790D01*
X155001377Y-143693805D01*
X154733339Y-143933339D01*
X154493805Y-144201377D01*
X154285790Y-144494545D01*
X154111905Y-144809168D01*
X153974339Y-145141281D01*
X153874828Y-145486694D01*
X153874826Y-145486703D01*
X153814614Y-145841085D01*
X153814612Y-145841097D01*
X153794457Y-146200000D01*
X153814612Y-146558902D01*
X153814614Y-146558914D01*
X153874826Y-146913296D01*
X153874828Y-146913305D01*
X153974339Y-147258718D01*
X154111905Y-147590831D01*
X154285790Y-147905454D01*
X154396583Y-148061601D01*
X154493806Y-148198623D01*
X154733339Y-148466661D01*
X154863568Y-148583041D01*
X154900439Y-148642390D01*
X154899370Y-148712251D01*
X154860700Y-148770444D01*
X154796708Y-148798493D01*
X154780941Y-148799500D01*
X87730959Y-148799500D01*
X87663920Y-148779815D01*
X87618165Y-148727011D01*
X87608221Y-148657853D01*
X87637246Y-148594297D01*
X87648332Y-148583041D01*
X87653941Y-148578027D01*
X87666661Y-148566661D01*
X87906194Y-148298623D01*
X88114211Y-148005452D01*
X88288094Y-147690833D01*
X88425659Y-147358724D01*
X88525173Y-147013300D01*
X88585387Y-146658907D01*
X88605543Y-146300000D01*
X88585387Y-145941093D01*
X88525173Y-145586700D01*
X88445458Y-145309999D01*
X97914728Y-145309999D01*
X97914729Y-145310000D01*
X99009252Y-145310000D01*
X98987482Y-145347708D01*
X98950000Y-145487591D01*
X98950000Y-145632409D01*
X98987482Y-145772292D01*
X99009252Y-145810000D01*
X97914728Y-145810000D01*
X97914811Y-145811067D01*
X97973603Y-146055956D01*
X98069980Y-146288631D01*
X98201568Y-146503362D01*
X98201571Y-146503367D01*
X98365130Y-146694869D01*
X98556632Y-146858428D01*
X98556637Y-146858431D01*
X98771368Y-146990019D01*
X99004043Y-147086396D01*
X99248932Y-147145188D01*
X99249999Y-147145271D01*
X99250000Y-147145271D01*
X99250000Y-146050747D01*
X99287708Y-146072518D01*
X99427591Y-146110000D01*
X99572409Y-146110000D01*
X99712292Y-146072518D01*
X99750000Y-146050747D01*
X99750000Y-147145271D01*
X99751067Y-147145188D01*
X99995956Y-147086396D01*
X100228631Y-146990019D01*
X100443362Y-146858431D01*
X100443367Y-146858428D01*
X100634869Y-146694869D01*
X100798428Y-146503367D01*
X100798431Y-146503362D01*
X100930019Y-146288631D01*
X101026396Y-146055956D01*
X101085188Y-145811067D01*
X101085272Y-145810000D01*
X99990748Y-145810000D01*
X100012518Y-145772292D01*
X100050000Y-145632409D01*
X100050000Y-145487591D01*
X100029209Y-145409999D01*
X106214728Y-145409999D01*
X106214729Y-145410000D01*
X107309252Y-145410000D01*
X107287482Y-145447708D01*
X107250000Y-145587591D01*
X107250000Y-145732409D01*
X107287482Y-145872292D01*
X107309252Y-145910000D01*
X106214728Y-145910000D01*
X106214811Y-145911067D01*
X106273603Y-146155956D01*
X106369980Y-146388631D01*
X106501568Y-146603362D01*
X106501571Y-146603367D01*
X106665130Y-146794869D01*
X106856632Y-146958428D01*
X106856637Y-146958431D01*
X107071368Y-147090019D01*
X107304043Y-147186396D01*
X107548932Y-147245188D01*
X107549999Y-147245271D01*
X107550000Y-147245271D01*
X107550000Y-146150747D01*
X107587708Y-146172518D01*
X107727591Y-146210000D01*
X107872409Y-146210000D01*
X108012292Y-146172518D01*
X108050000Y-146150747D01*
X108050000Y-147245271D01*
X108051067Y-147245188D01*
X108295956Y-147186396D01*
X108528631Y-147090019D01*
X108743362Y-146958431D01*
X108743367Y-146958428D01*
X108934869Y-146794869D01*
X109098428Y-146603367D01*
X109098431Y-146603362D01*
X109230019Y-146388631D01*
X109326396Y-146155956D01*
X109385188Y-145911067D01*
X109385272Y-145910000D01*
X108290748Y-145910000D01*
X108312518Y-145872292D01*
X108350000Y-145732409D01*
X108350000Y-145587591D01*
X108312518Y-145447708D01*
X108290748Y-145410000D01*
X109385271Y-145410000D01*
X109385271Y-145409999D01*
X109385188Y-145408932D01*
X109326396Y-145164043D01*
X109230019Y-144931368D01*
X109098431Y-144716637D01*
X109098428Y-144716632D01*
X108934869Y-144525130D01*
X108743367Y-144361571D01*
X108743362Y-144361568D01*
X108528631Y-144229980D01*
X108295956Y-144133603D01*
X108051064Y-144074811D01*
X108050000Y-144074726D01*
X108050000Y-145169252D01*
X108012292Y-145147482D01*
X107872409Y-145110000D01*
X107727591Y-145110000D01*
X107587708Y-145147482D01*
X107550000Y-145169252D01*
X107550000Y-144074726D01*
X107548935Y-144074811D01*
X107304043Y-144133603D01*
X107071368Y-144229980D01*
X106856637Y-144361568D01*
X106856632Y-144361571D01*
X106665130Y-144525130D01*
X106501571Y-144716632D01*
X106501568Y-144716637D01*
X106369980Y-144931368D01*
X106273603Y-145164043D01*
X106214811Y-145408932D01*
X106214728Y-145409999D01*
X100029209Y-145409999D01*
X100012518Y-145347708D01*
X99990748Y-145310000D01*
X101085271Y-145310000D01*
X101085271Y-145309999D01*
X101085188Y-145308932D01*
X101026396Y-145064043D01*
X100930019Y-144831368D01*
X100798431Y-144616637D01*
X100798428Y-144616632D01*
X100634869Y-144425130D01*
X100443367Y-144261571D01*
X100443362Y-144261568D01*
X100228631Y-144129980D01*
X99995956Y-144033603D01*
X99751064Y-143974811D01*
X99750000Y-143974726D01*
X99750000Y-145069252D01*
X99712292Y-145047482D01*
X99572409Y-145010000D01*
X99427591Y-145010000D01*
X99287708Y-145047482D01*
X99250000Y-145069252D01*
X99250000Y-143974726D01*
X99248935Y-143974811D01*
X99004043Y-144033603D01*
X98771368Y-144129980D01*
X98556637Y-144261568D01*
X98556632Y-144261571D01*
X98365130Y-144425130D01*
X98201571Y-144616632D01*
X98201568Y-144616637D01*
X98069980Y-144831368D01*
X97973603Y-145064043D01*
X97914811Y-145308932D01*
X97914728Y-145309999D01*
X88445458Y-145309999D01*
X88425659Y-145241276D01*
X88288094Y-144909167D01*
X88114211Y-144594548D01*
X87906194Y-144301377D01*
X87666661Y-144033339D01*
X87398623Y-143793806D01*
X87257686Y-143693805D01*
X87105454Y-143585790D01*
X86790831Y-143411905D01*
X86549413Y-143311906D01*
X86458724Y-143274341D01*
X86458720Y-143274339D01*
X86458718Y-143274339D01*
X86113305Y-143174828D01*
X86113296Y-143174826D01*
X85758914Y-143114614D01*
X85758902Y-143114612D01*
X85400000Y-143094457D01*
X85041097Y-143114612D01*
X85041085Y-143114614D01*
X84686703Y-143174826D01*
X84686694Y-143174828D01*
X84341281Y-143274339D01*
X84009168Y-143411905D01*
X83694545Y-143585790D01*
X83401377Y-143793805D01*
X83133339Y-144033339D01*
X82893805Y-144301377D01*
X82725629Y-144538398D01*
X82670781Y-144581681D01*
X82601239Y-144588441D01*
X82539082Y-144556530D01*
X82504045Y-144496080D01*
X82500500Y-144466642D01*
X82500500Y-121179998D01*
X86894532Y-121179998D01*
X86894532Y-121180001D01*
X86914364Y-121406686D01*
X86914366Y-121406697D01*
X86973258Y-121626488D01*
X86973261Y-121626497D01*
X87069431Y-121832732D01*
X87069432Y-121832734D01*
X87199954Y-122019141D01*
X87360858Y-122180045D01*
X87360861Y-122180047D01*
X87547266Y-122310568D01*
X87753504Y-122406739D01*
X87973308Y-122465635D01*
X88035094Y-122471040D01*
X88100161Y-122496492D01*
X88111967Y-122506887D01*
X88563181Y-122958101D01*
X88596666Y-123019424D01*
X88599500Y-123045782D01*
X88599500Y-124075500D01*
X88579815Y-124142539D01*
X88527011Y-124188294D01*
X88475501Y-124199500D01*
X88252130Y-124199500D01*
X88252123Y-124199501D01*
X88192516Y-124205908D01*
X88057671Y-124256202D01*
X88057664Y-124256206D01*
X87942455Y-124342452D01*
X87942452Y-124342455D01*
X87856206Y-124457664D01*
X87856202Y-124457671D01*
X87805908Y-124592517D01*
X87799501Y-124652116D01*
X87799501Y-124652123D01*
X87799500Y-124652135D01*
X87799500Y-127347870D01*
X87799501Y-127347876D01*
X87805908Y-127407483D01*
X87856202Y-127542328D01*
X87856206Y-127542335D01*
X87942452Y-127657544D01*
X87942455Y-127657547D01*
X88057664Y-127743793D01*
X88057671Y-127743797D01*
X88192517Y-127794091D01*
X88192516Y-127794091D01*
X88199444Y-127794835D01*
X88252127Y-127800500D01*
X90947872Y-127800499D01*
X91007483Y-127794091D01*
X91142331Y-127743796D01*
X91257546Y-127657546D01*
X91343796Y-127542331D01*
X91394091Y-127407483D01*
X91400500Y-127347873D01*
X91400499Y-124652128D01*
X91394091Y-124592517D01*
X91343796Y-124457669D01*
X91343795Y-124457668D01*
X91343793Y-124457664D01*
X91257547Y-124342455D01*
X91257544Y-124342452D01*
X91142335Y-124256206D01*
X91142328Y-124256202D01*
X91007482Y-124205908D01*
X91007483Y-124205908D01*
X90947883Y-124199501D01*
X90947881Y-124199500D01*
X90947873Y-124199500D01*
X90947865Y-124199500D01*
X90724500Y-124199500D01*
X90657461Y-124179815D01*
X90611706Y-124127011D01*
X90600500Y-124075500D01*
X90600500Y-122481456D01*
X90562052Y-122288170D01*
X90562051Y-122288169D01*
X90562051Y-122288165D01*
X90551350Y-122262331D01*
X90530593Y-122212218D01*
X90513586Y-122171160D01*
X90486635Y-122106092D01*
X90486628Y-122106079D01*
X90377139Y-121942218D01*
X90377136Y-121942214D01*
X90234686Y-121799764D01*
X90234655Y-121799735D01*
X89662600Y-121227680D01*
X89629115Y-121166357D01*
X89634099Y-121096665D01*
X89662596Y-121052323D01*
X94890871Y-115824047D01*
X94952192Y-115790564D01*
X94997032Y-115789115D01*
X95036205Y-115795019D01*
X95072565Y-115800500D01*
X95327435Y-115800500D01*
X95579458Y-115762513D01*
X95823004Y-115687389D01*
X96052634Y-115576805D01*
X96263217Y-115433232D01*
X96450050Y-115259877D01*
X96608959Y-115060612D01*
X96736393Y-114839888D01*
X96829508Y-114602637D01*
X96886222Y-114354157D01*
X96900418Y-114164721D01*
X96905268Y-114100004D01*
X96905268Y-114099995D01*
X96890238Y-113899439D01*
X96886222Y-113845843D01*
X96829508Y-113597363D01*
X96736393Y-113360112D01*
X96608959Y-113139388D01*
X96450050Y-112940123D01*
X96263217Y-112766768D01*
X96052634Y-112623195D01*
X96052630Y-112623193D01*
X96052627Y-112623191D01*
X96052626Y-112623190D01*
X95823006Y-112512612D01*
X95823008Y-112512612D01*
X95579466Y-112437489D01*
X95579462Y-112437488D01*
X95579458Y-112437487D01*
X95458231Y-112419214D01*
X95327440Y-112399500D01*
X95327435Y-112399500D01*
X95072565Y-112399500D01*
X95072559Y-112399500D01*
X94915609Y-112423157D01*
X94820542Y-112437487D01*
X94820539Y-112437488D01*
X94820533Y-112437489D01*
X94576992Y-112512612D01*
X94347373Y-112623190D01*
X94347372Y-112623191D01*
X94136782Y-112766768D01*
X93949952Y-112940121D01*
X93949950Y-112940123D01*
X93791041Y-113139388D01*
X93663608Y-113360109D01*
X93570492Y-113597362D01*
X93570490Y-113597369D01*
X93513777Y-113845845D01*
X93494732Y-114099995D01*
X93494732Y-114100004D01*
X93510721Y-114313382D01*
X93496101Y-114381705D01*
X93474749Y-114410329D01*
X88020579Y-119864499D01*
X87964991Y-119896593D01*
X87753511Y-119953258D01*
X87753502Y-119953261D01*
X87547267Y-120049431D01*
X87547265Y-120049432D01*
X87360858Y-120179954D01*
X87199954Y-120340858D01*
X87069432Y-120527265D01*
X87069431Y-120527267D01*
X86973261Y-120733502D01*
X86973258Y-120733511D01*
X86914366Y-120953302D01*
X86914364Y-120953313D01*
X86894532Y-121179998D01*
X82500500Y-121179998D01*
X82500500Y-111019998D01*
X86894532Y-111019998D01*
X86894532Y-111020001D01*
X86914364Y-111246686D01*
X86914366Y-111246697D01*
X86973258Y-111466488D01*
X86973261Y-111466497D01*
X87069431Y-111672732D01*
X87069432Y-111672734D01*
X87199954Y-111859141D01*
X87360858Y-112020045D01*
X87360861Y-112020047D01*
X87547266Y-112150568D01*
X87753504Y-112246739D01*
X87973308Y-112305635D01*
X88135230Y-112319801D01*
X88199998Y-112325468D01*
X88200000Y-112325468D01*
X88200002Y-112325468D01*
X88256673Y-112320509D01*
X88426692Y-112305635D01*
X88646496Y-112246739D01*
X88852734Y-112150568D01*
X89006465Y-112042924D01*
X89072671Y-112020598D01*
X89077588Y-112020500D01*
X106654218Y-112020500D01*
X106721257Y-112040185D01*
X106741899Y-112056819D01*
X108474749Y-113789670D01*
X108508234Y-113850993D01*
X108510721Y-113886617D01*
X108494732Y-114099995D01*
X108494732Y-114100004D01*
X108513777Y-114354154D01*
X108569889Y-114599998D01*
X108570492Y-114602637D01*
X108663607Y-114839888D01*
X108791041Y-115060612D01*
X108949950Y-115259877D01*
X108949955Y-115259881D01*
X108949958Y-115259885D01*
X109136774Y-115433225D01*
X109136779Y-115433228D01*
X109136783Y-115433232D01*
X109145351Y-115439073D01*
X109189652Y-115493099D01*
X109199500Y-115541527D01*
X109199500Y-119900998D01*
X109179815Y-119968037D01*
X109127011Y-120013792D01*
X109057853Y-120023736D01*
X109001189Y-120000265D01*
X108942331Y-119956204D01*
X108942328Y-119956202D01*
X108807482Y-119905908D01*
X108807483Y-119905908D01*
X108747883Y-119899501D01*
X108747881Y-119899500D01*
X108747873Y-119899500D01*
X108747864Y-119899500D01*
X106452129Y-119899500D01*
X106452123Y-119899501D01*
X106392514Y-119905909D01*
X106377040Y-119911681D01*
X106333706Y-119919500D01*
X101024499Y-119919500D01*
X100957460Y-119899815D01*
X100911705Y-119847011D01*
X100900499Y-119795500D01*
X100900499Y-119772129D01*
X100900498Y-119772123D01*
X100900497Y-119772116D01*
X100894091Y-119712517D01*
X100879501Y-119673400D01*
X100843797Y-119577671D01*
X100843793Y-119577664D01*
X100757547Y-119462455D01*
X100757544Y-119462452D01*
X100642335Y-119376206D01*
X100642328Y-119376202D01*
X100507482Y-119325908D01*
X100507483Y-119325908D01*
X100447883Y-119319501D01*
X100447881Y-119319500D01*
X100447873Y-119319500D01*
X100447864Y-119319500D01*
X98152129Y-119319500D01*
X98152123Y-119319501D01*
X98092516Y-119325908D01*
X97957671Y-119376202D01*
X97957664Y-119376206D01*
X97842455Y-119462452D01*
X97842452Y-119462455D01*
X97756206Y-119577664D01*
X97756202Y-119577671D01*
X97705908Y-119712517D01*
X97702351Y-119745606D01*
X97699501Y-119772123D01*
X97699500Y-119772135D01*
X97699500Y-122067870D01*
X97699501Y-122067876D01*
X97705908Y-122127483D01*
X97756202Y-122262328D01*
X97756206Y-122262335D01*
X97842452Y-122377544D01*
X97842455Y-122377547D01*
X97957664Y-122463793D01*
X97957671Y-122463797D01*
X98092517Y-122514091D01*
X98092516Y-122514091D01*
X98099444Y-122514835D01*
X98152127Y-122520500D01*
X100447872Y-122520499D01*
X100507483Y-122514091D01*
X100642331Y-122463796D01*
X100757546Y-122377546D01*
X100843796Y-122262331D01*
X100894091Y-122127483D01*
X100900500Y-122067873D01*
X100900500Y-122044500D01*
X100920185Y-121977461D01*
X100972989Y-121931706D01*
X101024500Y-121920500D01*
X105875501Y-121920500D01*
X105942540Y-121940185D01*
X105988295Y-121992989D01*
X105999501Y-122044500D01*
X105999501Y-122647876D01*
X106005908Y-122707483D01*
X106056202Y-122842328D01*
X106056206Y-122842335D01*
X106142452Y-122957544D01*
X106142455Y-122957547D01*
X106257664Y-123043793D01*
X106257671Y-123043797D01*
X106392517Y-123094091D01*
X106392516Y-123094091D01*
X106399444Y-123094835D01*
X106452127Y-123100500D01*
X108747872Y-123100499D01*
X108807483Y-123094091D01*
X108942331Y-123043796D01*
X109001189Y-122999734D01*
X109066652Y-122975317D01*
X109134925Y-122990168D01*
X109184331Y-123039573D01*
X109199500Y-123099001D01*
X109199500Y-130767308D01*
X109179815Y-130834347D01*
X109127011Y-130880102D01*
X109057853Y-130890046D01*
X108994297Y-130861021D01*
X108969773Y-130832098D01*
X108898839Y-130716346D01*
X108898838Y-130716343D01*
X108785711Y-130583889D01*
X108735224Y-130524776D01*
X108584386Y-130395948D01*
X108543656Y-130361161D01*
X108543653Y-130361160D01*
X108328859Y-130229533D01*
X108096110Y-130133126D01*
X107851151Y-130074317D01*
X107662787Y-130059492D01*
X107600000Y-130054551D01*
X107599999Y-130054551D01*
X107539542Y-130059309D01*
X107480359Y-130063966D01*
X107411983Y-130049603D01*
X107382950Y-130028030D01*
X106004209Y-128649289D01*
X106004206Y-128649285D01*
X106004206Y-128649286D01*
X105997139Y-128642219D01*
X105997139Y-128642218D01*
X105857782Y-128502861D01*
X105857781Y-128502860D01*
X105857780Y-128502859D01*
X105693920Y-128393371D01*
X105693907Y-128393364D01*
X105560121Y-128337949D01*
X105560120Y-128337949D01*
X105511836Y-128317949D01*
X105511828Y-128317947D01*
X105415188Y-128298724D01*
X105318544Y-128279500D01*
X105318541Y-128279500D01*
X91418540Y-128279500D01*
X91221459Y-128279500D01*
X91221456Y-128279500D01*
X91028171Y-128317947D01*
X91028163Y-128317949D01*
X90979880Y-128337949D01*
X90979879Y-128337949D01*
X90846088Y-128393366D01*
X90694831Y-128494432D01*
X90694831Y-128494433D01*
X90686440Y-128500039D01*
X90682216Y-128502862D01*
X90682215Y-128502863D01*
X89997011Y-129188066D01*
X89935688Y-129221551D01*
X89890849Y-129223000D01*
X89734936Y-129199500D01*
X89734929Y-129199500D01*
X89465071Y-129199500D01*
X89465063Y-129199500D01*
X89198232Y-129239718D01*
X89198226Y-129239720D01*
X88940358Y-129319262D01*
X88697230Y-129436346D01*
X88474258Y-129588365D01*
X88276442Y-129771910D01*
X88108185Y-129982898D01*
X87973258Y-130216599D01*
X87973256Y-130216603D01*
X87874666Y-130467804D01*
X87874664Y-130467811D01*
X87814616Y-130730898D01*
X87794451Y-130999995D01*
X87794451Y-131000004D01*
X87814616Y-131269101D01*
X87874664Y-131532188D01*
X87874666Y-131532195D01*
X87926088Y-131663216D01*
X87973257Y-131783398D01*
X88108185Y-132017102D01*
X88244080Y-132187509D01*
X88276442Y-132228089D01*
X88409631Y-132351669D01*
X88474259Y-132411635D01*
X88697226Y-132563651D01*
X88940359Y-132680738D01*
X89198228Y-132760280D01*
X89198229Y-132760280D01*
X89198232Y-132760281D01*
X89465063Y-132800499D01*
X89465068Y-132800499D01*
X89465071Y-132800500D01*
X89465072Y-132800500D01*
X89734928Y-132800500D01*
X89734929Y-132800500D01*
X89734936Y-132800499D01*
X90001767Y-132760281D01*
X90001768Y-132760280D01*
X90001772Y-132760280D01*
X90259641Y-132680738D01*
X90502775Y-132563651D01*
X90725741Y-132411635D01*
X90923561Y-132228085D01*
X91091815Y-132017102D01*
X91226743Y-131783398D01*
X91325334Y-131532195D01*
X91385383Y-131269103D01*
X91394773Y-131143796D01*
X91405549Y-131000004D01*
X91405549Y-130999995D01*
X91385384Y-130730906D01*
X91385383Y-130730903D01*
X91385383Y-130730897D01*
X91381797Y-130715187D01*
X91386067Y-130645453D01*
X91415002Y-130599917D01*
X91698103Y-130316816D01*
X91759425Y-130283334D01*
X91785783Y-130280500D01*
X97713215Y-130280500D01*
X97780254Y-130300185D01*
X97826009Y-130352989D01*
X97835953Y-130422147D01*
X97827776Y-130451952D01*
X97773127Y-130583885D01*
X97773127Y-130583887D01*
X97714317Y-130828848D01*
X97694551Y-131080000D01*
X97714317Y-131331151D01*
X97773126Y-131576110D01*
X97869533Y-131808859D01*
X98001160Y-132023653D01*
X98001161Y-132023656D01*
X98164775Y-132215223D01*
X98164776Y-132215224D01*
X98256032Y-132293164D01*
X98294225Y-132351669D01*
X98299500Y-132387453D01*
X98299500Y-133717209D01*
X98279815Y-133784248D01*
X98227011Y-133830003D01*
X98218833Y-133833391D01*
X98157671Y-133856202D01*
X98157664Y-133856206D01*
X98042455Y-133942452D01*
X98042452Y-133942455D01*
X97956206Y-134057664D01*
X97956202Y-134057671D01*
X97905908Y-134192517D01*
X97899501Y-134252116D01*
X97899500Y-134252135D01*
X97899500Y-136547870D01*
X97899501Y-136547876D01*
X97905908Y-136607483D01*
X97956202Y-136742328D01*
X97956206Y-136742335D01*
X98042452Y-136857544D01*
X98042455Y-136857547D01*
X98157664Y-136943793D01*
X98157671Y-136943797D01*
X98292517Y-136994091D01*
X98292516Y-136994091D01*
X98299444Y-136994835D01*
X98352127Y-137000500D01*
X100647872Y-137000499D01*
X100707483Y-136994091D01*
X100842331Y-136943796D01*
X100957546Y-136857546D01*
X101043796Y-136742331D01*
X101094091Y-136607483D01*
X101100500Y-136547873D01*
X101100499Y-134594780D01*
X101120184Y-134527742D01*
X101172987Y-134481987D01*
X101242146Y-134472043D01*
X101305702Y-134501068D01*
X101312179Y-134507099D01*
X104742860Y-137937781D01*
X104742861Y-137937782D01*
X104831385Y-138026306D01*
X104882219Y-138077140D01*
X105046080Y-138186628D01*
X105046086Y-138186632D01*
X105152745Y-138230811D01*
X105228164Y-138262051D01*
X105421454Y-138300499D01*
X105421457Y-138300500D01*
X105421459Y-138300500D01*
X109698542Y-138300500D01*
X109717870Y-138296655D01*
X109795188Y-138281275D01*
X109891836Y-138262051D01*
X109945165Y-138239961D01*
X110073914Y-138186632D01*
X110237782Y-138077139D01*
X110377139Y-137937782D01*
X110377140Y-137937779D01*
X110384206Y-137930714D01*
X110384209Y-137930710D01*
X110837778Y-137477141D01*
X110837782Y-137477139D01*
X110977139Y-137337782D01*
X111086632Y-137173914D01*
X111141651Y-137041085D01*
X111155286Y-137008168D01*
X111155287Y-137008164D01*
X111162051Y-136991836D01*
X111188763Y-136857544D01*
X111191498Y-136843797D01*
X111191498Y-136843795D01*
X111191499Y-136843793D01*
X111200500Y-136798541D01*
X111200500Y-135852135D01*
X116346849Y-135852135D01*
X116346849Y-137547870D01*
X116346850Y-137547876D01*
X116353257Y-137607483D01*
X116403551Y-137742328D01*
X116403555Y-137742335D01*
X116489801Y-137857544D01*
X116489804Y-137857547D01*
X116605013Y-137943793D01*
X116605020Y-137943797D01*
X116739866Y-137994091D01*
X116739865Y-137994091D01*
X116746793Y-137994835D01*
X116799476Y-138000500D01*
X118495221Y-138000499D01*
X118554832Y-137994091D01*
X118689680Y-137943796D01*
X118804895Y-137857546D01*
X118891145Y-137742331D01*
X118941440Y-137607483D01*
X118947849Y-137547873D01*
X118947848Y-137547845D01*
X118948027Y-137544547D01*
X118949532Y-137544627D01*
X118967461Y-137483326D01*
X119020217Y-137437514D01*
X119063814Y-137429981D01*
X119747349Y-136746446D01*
X119747349Y-136752661D01*
X119774608Y-136854394D01*
X119827269Y-136945606D01*
X119901743Y-137020080D01*
X119992955Y-137072741D01*
X120094688Y-137100000D01*
X120100902Y-137100000D01*
X119421875Y-137779025D01*
X119494862Y-137830132D01*
X119494870Y-137830136D01*
X119701017Y-137926264D01*
X119701031Y-137926269D01*
X119920738Y-137985139D01*
X119920749Y-137985141D01*
X120147347Y-138004966D01*
X120147351Y-138004966D01*
X120373948Y-137985141D01*
X120373959Y-137985139D01*
X120593666Y-137926269D01*
X120593680Y-137926264D01*
X120799827Y-137830136D01*
X120872820Y-137779024D01*
X120193796Y-137100000D01*
X120200010Y-137100000D01*
X120301743Y-137072741D01*
X120392955Y-137020080D01*
X120467429Y-136945606D01*
X120520090Y-136854394D01*
X120547349Y-136752661D01*
X120547349Y-136746447D01*
X121226373Y-137425471D01*
X121277485Y-137352478D01*
X121373613Y-137146331D01*
X121373618Y-137146317D01*
X121432488Y-136926610D01*
X121432490Y-136926599D01*
X121452315Y-136700002D01*
X121452315Y-136699997D01*
X121432490Y-136473400D01*
X121432488Y-136473389D01*
X121373618Y-136253682D01*
X121373613Y-136253668D01*
X121277485Y-136047521D01*
X121277481Y-136047513D01*
X121226374Y-135974526D01*
X120547349Y-136653551D01*
X120547349Y-136647339D01*
X120520090Y-136545606D01*
X120467429Y-136454394D01*
X120392955Y-136379920D01*
X120301743Y-136327259D01*
X120200010Y-136300000D01*
X120193795Y-136300000D01*
X120872821Y-135620974D01*
X120799827Y-135569863D01*
X120593680Y-135473735D01*
X120593663Y-135473729D01*
X120560471Y-135464835D01*
X120500812Y-135428469D01*
X120470284Y-135365622D01*
X120478580Y-135296246D01*
X120504880Y-135257387D01*
X125337822Y-130424447D01*
X125399143Y-130390964D01*
X125468835Y-130395948D01*
X125524768Y-130437820D01*
X125549185Y-130503284D01*
X125549501Y-130512130D01*
X125549501Y-130747876D01*
X125555908Y-130807483D01*
X125606202Y-130942328D01*
X125606206Y-130942335D01*
X125692452Y-131057544D01*
X125692455Y-131057547D01*
X125807664Y-131143793D01*
X125807671Y-131143797D01*
X125942517Y-131194091D01*
X125942516Y-131194091D01*
X125949444Y-131194835D01*
X126002127Y-131200500D01*
X128897872Y-131200499D01*
X128957483Y-131194091D01*
X129092331Y-131143796D01*
X129207546Y-131057546D01*
X129293796Y-130942331D01*
X129344091Y-130807483D01*
X129350500Y-130747873D01*
X129350499Y-127852128D01*
X129344091Y-127792517D01*
X129325919Y-127743796D01*
X129293797Y-127657671D01*
X129293793Y-127657664D01*
X129207547Y-127542455D01*
X129207544Y-127542452D01*
X129092335Y-127456206D01*
X129092328Y-127456202D01*
X128957482Y-127405908D01*
X128957483Y-127405908D01*
X128897883Y-127399501D01*
X128897881Y-127399500D01*
X128897873Y-127399500D01*
X128897865Y-127399500D01*
X128574500Y-127399500D01*
X128507461Y-127379815D01*
X128461706Y-127327011D01*
X128450500Y-127275500D01*
X128450500Y-122751456D01*
X128412052Y-122558169D01*
X128412051Y-122558167D01*
X128412051Y-122558165D01*
X128409938Y-122553065D01*
X128400499Y-122505611D01*
X128400499Y-121465782D01*
X128420184Y-121398743D01*
X128436818Y-121378101D01*
X129621870Y-120193049D01*
X130837778Y-118977141D01*
X130837782Y-118977139D01*
X130977139Y-118837782D01*
X131086632Y-118673914D01*
X131162051Y-118491835D01*
X131200500Y-118298541D01*
X131200500Y-115477588D01*
X131220185Y-115410549D01*
X131222925Y-115406465D01*
X131330568Y-115252734D01*
X131426739Y-115046496D01*
X131485635Y-114826692D01*
X131505468Y-114600000D01*
X131485635Y-114373308D01*
X131426739Y-114153504D01*
X131330568Y-113947266D01*
X131200047Y-113760861D01*
X131200045Y-113760858D01*
X131039141Y-113599954D01*
X130852734Y-113469432D01*
X130852732Y-113469431D01*
X130646497Y-113373261D01*
X130646488Y-113373258D01*
X130426697Y-113314366D01*
X130426693Y-113314365D01*
X130426692Y-113314365D01*
X130426691Y-113314364D01*
X130426686Y-113314364D01*
X130200002Y-113294532D01*
X130199998Y-113294532D01*
X129973313Y-113314364D01*
X129973302Y-113314366D01*
X129753511Y-113373258D01*
X129753502Y-113373261D01*
X129547267Y-113469431D01*
X129547265Y-113469432D01*
X129490702Y-113509038D01*
X129413378Y-113563181D01*
X129393535Y-113577075D01*
X129327329Y-113599402D01*
X129322412Y-113599500D01*
X127045783Y-113599500D01*
X126978744Y-113579815D01*
X126958102Y-113563181D01*
X126169318Y-112774397D01*
X126135833Y-112713074D01*
X126132999Y-112686716D01*
X126132999Y-112124500D01*
X126152684Y-112057461D01*
X126205488Y-112011706D01*
X126256999Y-112000500D01*
X138434218Y-112000500D01*
X138501257Y-112020185D01*
X138521899Y-112036819D01*
X139750662Y-113265582D01*
X139784147Y-113326905D01*
X139779163Y-113396597D01*
X139737291Y-113452530D01*
X139715389Y-113465644D01*
X139707267Y-113469431D01*
X139520858Y-113599954D01*
X139359954Y-113760858D01*
X139229432Y-113947265D01*
X139229431Y-113947267D01*
X139133261Y-114153502D01*
X139133258Y-114153511D01*
X139074366Y-114373302D01*
X139074364Y-114373313D01*
X139054532Y-114599998D01*
X139054532Y-114600001D01*
X139074364Y-114826686D01*
X139074366Y-114826697D01*
X139133258Y-115046488D01*
X139133261Y-115046497D01*
X139229431Y-115252732D01*
X139229432Y-115252734D01*
X139359954Y-115439141D01*
X139520858Y-115600045D01*
X139520861Y-115600047D01*
X139707266Y-115730568D01*
X139913504Y-115826739D01*
X140133308Y-115885635D01*
X140186308Y-115890271D01*
X140251375Y-115915722D01*
X140292354Y-115972313D01*
X140299500Y-116013799D01*
X140299500Y-120126010D01*
X140279815Y-120193049D01*
X140227011Y-120238804D01*
X140157853Y-120248748D01*
X140116073Y-120234842D01*
X139991519Y-120166830D01*
X139934615Y-120145606D01*
X139736801Y-120071825D01*
X139736794Y-120071823D01*
X139736793Y-120071823D01*
X139471167Y-120014040D01*
X139471160Y-120014039D01*
X139200001Y-119994645D01*
X139199999Y-119994645D01*
X138928839Y-120014039D01*
X138928832Y-120014040D01*
X138663206Y-120071823D01*
X138663202Y-120071824D01*
X138663199Y-120071825D01*
X138535843Y-120119326D01*
X138408480Y-120166830D01*
X138169892Y-120297109D01*
X138169891Y-120297110D01*
X137952259Y-120460028D01*
X137952247Y-120460038D01*
X137760038Y-120652247D01*
X137760028Y-120652259D01*
X137597110Y-120869891D01*
X137597109Y-120869892D01*
X137466830Y-121108480D01*
X137432509Y-121200499D01*
X137371825Y-121363199D01*
X137371824Y-121363202D01*
X137371823Y-121363206D01*
X137314040Y-121628832D01*
X137314039Y-121628839D01*
X137294645Y-121899998D01*
X137294645Y-121900001D01*
X137314039Y-122171160D01*
X137314040Y-122171167D01*
X137358935Y-122377546D01*
X137371825Y-122436801D01*
X137417092Y-122558165D01*
X137466830Y-122691519D01*
X137597109Y-122930107D01*
X137597113Y-122930114D01*
X137617426Y-122957249D01*
X137641842Y-123022714D01*
X137626989Y-123090987D01*
X137605839Y-123119239D01*
X125751967Y-134973111D01*
X125690644Y-135006596D01*
X125675096Y-135008958D01*
X125613311Y-135014364D01*
X125613302Y-135014366D01*
X125393511Y-135073258D01*
X125393502Y-135073261D01*
X125187267Y-135169431D01*
X125187265Y-135169432D01*
X125000858Y-135299954D01*
X124839954Y-135460858D01*
X124709432Y-135647265D01*
X124709431Y-135647267D01*
X124613261Y-135853502D01*
X124613258Y-135853511D01*
X124554366Y-136073302D01*
X124554364Y-136073313D01*
X124534532Y-136299998D01*
X124534532Y-136300000D01*
X124554364Y-136526686D01*
X124554366Y-136526697D01*
X124613258Y-136746488D01*
X124613261Y-136746497D01*
X124709431Y-136952732D01*
X124709432Y-136952734D01*
X124839954Y-137139141D01*
X125000858Y-137300045D01*
X125000861Y-137300047D01*
X125187266Y-137430568D01*
X125393504Y-137526739D01*
X125613308Y-137585635D01*
X125775230Y-137599801D01*
X125839998Y-137605468D01*
X125840000Y-137605468D01*
X125840002Y-137605468D01*
X125896673Y-137600509D01*
X126066692Y-137585635D01*
X126286496Y-137526739D01*
X126492734Y-137430568D01*
X126679139Y-137300047D01*
X126840047Y-137139139D01*
X126970568Y-136952734D01*
X127066739Y-136746496D01*
X127125635Y-136526692D01*
X127131040Y-136464904D01*
X127156492Y-136399837D01*
X127166879Y-136388039D01*
X139830710Y-123724208D01*
X139830724Y-123724197D01*
X139861172Y-123693748D01*
X139905521Y-123665244D01*
X139991513Y-123633172D01*
X140116074Y-123565156D01*
X140184346Y-123550305D01*
X140249810Y-123574722D01*
X140291682Y-123630655D01*
X140299500Y-123673989D01*
X140299500Y-127272152D01*
X140279815Y-127339191D01*
X140227011Y-127384946D01*
X140166655Y-127395836D01*
X140150002Y-127394645D01*
X140149999Y-127394645D01*
X139878839Y-127414039D01*
X139878832Y-127414040D01*
X139613206Y-127471823D01*
X139613202Y-127471824D01*
X139613199Y-127471825D01*
X139485843Y-127519326D01*
X139358480Y-127566830D01*
X139119892Y-127697109D01*
X139119891Y-127697110D01*
X138902259Y-127860028D01*
X138902247Y-127860038D01*
X138710038Y-128052247D01*
X138710028Y-128052259D01*
X138547110Y-128269891D01*
X138547109Y-128269892D01*
X138416830Y-128508480D01*
X138370094Y-128633786D01*
X138321825Y-128763199D01*
X138321824Y-128763202D01*
X138321823Y-128763206D01*
X138264040Y-129028832D01*
X138264039Y-129028839D01*
X138244645Y-129299998D01*
X138244645Y-129300001D01*
X138264039Y-129571160D01*
X138264040Y-129571167D01*
X138285358Y-129669166D01*
X138280374Y-129738858D01*
X138251873Y-129783205D01*
X127671899Y-140363181D01*
X127610576Y-140396666D01*
X127584218Y-140399500D01*
X127477588Y-140399500D01*
X127410549Y-140379815D01*
X127406465Y-140377075D01*
X127386622Y-140363181D01*
X127252734Y-140269432D01*
X127252732Y-140269431D01*
X127046497Y-140173261D01*
X127046488Y-140173258D01*
X126826697Y-140114366D01*
X126826693Y-140114365D01*
X126826692Y-140114365D01*
X126826691Y-140114364D01*
X126826686Y-140114364D01*
X126600002Y-140094532D01*
X126599998Y-140094532D01*
X126373313Y-140114364D01*
X126373302Y-140114366D01*
X126153511Y-140173258D01*
X126153502Y-140173261D01*
X125947267Y-140269431D01*
X125947265Y-140269432D01*
X125760858Y-140399954D01*
X125599954Y-140560858D01*
X125469432Y-140747265D01*
X125469431Y-140747267D01*
X125373261Y-140953502D01*
X125373258Y-140953511D01*
X125314366Y-141173302D01*
X125314364Y-141173313D01*
X125294532Y-141399998D01*
X125294532Y-141400001D01*
X125314364Y-141626686D01*
X125314366Y-141626697D01*
X125373258Y-141846488D01*
X125373261Y-141846497D01*
X125469431Y-142052732D01*
X125469432Y-142052734D01*
X125599954Y-142239141D01*
X125760858Y-142400045D01*
X125760861Y-142400047D01*
X125947266Y-142530568D01*
X126153504Y-142626739D01*
X126373308Y-142685635D01*
X126535230Y-142699801D01*
X126599998Y-142705468D01*
X126600000Y-142705468D01*
X126600002Y-142705468D01*
X126656673Y-142700509D01*
X126826692Y-142685635D01*
X127046496Y-142626739D01*
X127252734Y-142530568D01*
X127406465Y-142422924D01*
X127472671Y-142400598D01*
X127477588Y-142400500D01*
X128148542Y-142400500D01*
X128167870Y-142396655D01*
X128245188Y-142381275D01*
X128341836Y-142362051D01*
X128395165Y-142339961D01*
X128523914Y-142286632D01*
X128687782Y-142177139D01*
X128827139Y-142037782D01*
X128827140Y-142037779D01*
X128834206Y-142030714D01*
X128834209Y-142030710D01*
X129714920Y-141149999D01*
X135481127Y-141149999D01*
X135481128Y-141150000D01*
X136444314Y-141150000D01*
X136439920Y-141154394D01*
X136387259Y-141245606D01*
X136360000Y-141347339D01*
X136360000Y-141452661D01*
X136387259Y-141554394D01*
X136439920Y-141645606D01*
X136444314Y-141650000D01*
X135481128Y-141650000D01*
X135533730Y-141846317D01*
X135533734Y-141846326D01*
X135629865Y-142052482D01*
X135760342Y-142238820D01*
X135921179Y-142399657D01*
X136107517Y-142530134D01*
X136313673Y-142626265D01*
X136313682Y-142626269D01*
X136509999Y-142678872D01*
X136510000Y-142678871D01*
X136510000Y-141715686D01*
X136514394Y-141720080D01*
X136605606Y-141772741D01*
X136707339Y-141800000D01*
X136812661Y-141800000D01*
X136914394Y-141772741D01*
X137005606Y-141720080D01*
X137010000Y-141715686D01*
X137010000Y-142678872D01*
X137206317Y-142626269D01*
X137206326Y-142626265D01*
X137412482Y-142530134D01*
X137598820Y-142399657D01*
X137759657Y-142238820D01*
X137890134Y-142052482D01*
X137986265Y-141846326D01*
X137986269Y-141846317D01*
X138038872Y-141650000D01*
X137075686Y-141650000D01*
X137080080Y-141645606D01*
X137132741Y-141554394D01*
X137160000Y-141452661D01*
X137160000Y-141347339D01*
X137132741Y-141245606D01*
X137080080Y-141154394D01*
X137075686Y-141150000D01*
X138038872Y-141150000D01*
X138038872Y-141149999D01*
X137986269Y-140953682D01*
X137986265Y-140953673D01*
X137890134Y-140747517D01*
X137759657Y-140561179D01*
X137598820Y-140400342D01*
X137412482Y-140269865D01*
X137206328Y-140173734D01*
X137010000Y-140121127D01*
X137010000Y-141084314D01*
X137005606Y-141079920D01*
X136914394Y-141027259D01*
X136812661Y-141000000D01*
X136707339Y-141000000D01*
X136605606Y-141027259D01*
X136514394Y-141079920D01*
X136510000Y-141084314D01*
X136510000Y-140121127D01*
X136313671Y-140173734D01*
X136107517Y-140269865D01*
X135921179Y-140400342D01*
X135760342Y-140561179D01*
X135629865Y-140747517D01*
X135533734Y-140953673D01*
X135533730Y-140953682D01*
X135481127Y-141149999D01*
X129714920Y-141149999D01*
X134496537Y-136368381D01*
X134557856Y-136334899D01*
X134627548Y-136339883D01*
X134683481Y-136381755D01*
X134707742Y-136445257D01*
X134714858Y-136526600D01*
X134714860Y-136526610D01*
X134773730Y-136746317D01*
X134773734Y-136746326D01*
X134869865Y-136952482D01*
X135000342Y-137138820D01*
X135161179Y-137299657D01*
X135347517Y-137430134D01*
X135553673Y-137526265D01*
X135553682Y-137526269D01*
X135749999Y-137578872D01*
X135750000Y-137578871D01*
X135750000Y-136615686D01*
X135754394Y-136620080D01*
X135845606Y-136672741D01*
X135947339Y-136700000D01*
X136052661Y-136700000D01*
X136154394Y-136672741D01*
X136245606Y-136620080D01*
X136250000Y-136615686D01*
X136250000Y-137578872D01*
X136446317Y-137526269D01*
X136446326Y-137526265D01*
X136652482Y-137430134D01*
X136838820Y-137299657D01*
X136999657Y-137138820D01*
X137130134Y-136952482D01*
X137226265Y-136746326D01*
X137226269Y-136746317D01*
X137278872Y-136550000D01*
X136315686Y-136550000D01*
X136320080Y-136545606D01*
X136372741Y-136454394D01*
X136400000Y-136352661D01*
X136400000Y-136247339D01*
X136372741Y-136145606D01*
X136320080Y-136054394D01*
X136315686Y-136050000D01*
X137278872Y-136050000D01*
X137278872Y-136049999D01*
X137226269Y-135853682D01*
X137226265Y-135853673D01*
X137130134Y-135647517D01*
X136999657Y-135461179D01*
X136838820Y-135300342D01*
X136652482Y-135169865D01*
X136446326Y-135073734D01*
X136446317Y-135073730D01*
X136226610Y-135014860D01*
X136226600Y-135014858D01*
X136145257Y-135007742D01*
X136080189Y-134982289D01*
X136039210Y-134925699D01*
X136035332Y-134855937D01*
X136068381Y-134796537D01*
X139666795Y-131198123D01*
X139728116Y-131164640D01*
X139780830Y-131164640D01*
X139878840Y-131185961D01*
X140129110Y-131203860D01*
X140149999Y-131205355D01*
X140150000Y-131205355D01*
X140150001Y-131205355D01*
X140168100Y-131204060D01*
X140421160Y-131185961D01*
X140686801Y-131128175D01*
X140941513Y-131033172D01*
X140941517Y-131033169D01*
X140941519Y-131033169D01*
X141128369Y-130931141D01*
X141180113Y-130902887D01*
X141397742Y-130739971D01*
X141589971Y-130547742D01*
X141752887Y-130330113D01*
X141878538Y-130100000D01*
X141883169Y-130091519D01*
X141883169Y-130091517D01*
X141883172Y-130091513D01*
X141978175Y-129836801D01*
X142009180Y-129694270D01*
X142042664Y-129632947D01*
X142103987Y-129599462D01*
X142173679Y-129604446D01*
X142218027Y-129632947D01*
X142903181Y-130318101D01*
X142936666Y-130379424D01*
X142939500Y-130405782D01*
X142939500Y-136947372D01*
X142919815Y-137014411D01*
X142867011Y-137060166D01*
X142797853Y-137070110D01*
X142734297Y-137041085D01*
X142716234Y-137021684D01*
X142657187Y-136942809D01*
X142542093Y-136856649D01*
X142542086Y-136856645D01*
X142407379Y-136806403D01*
X142407372Y-136806401D01*
X142347844Y-136800000D01*
X141650000Y-136800000D01*
X141650000Y-137824722D01*
X141573694Y-137780667D01*
X141459244Y-137750000D01*
X141340756Y-137750000D01*
X141226306Y-137780667D01*
X141150000Y-137824722D01*
X141150000Y-136800000D01*
X140452155Y-136800000D01*
X140392627Y-136806401D01*
X140392620Y-136806403D01*
X140257913Y-136856645D01*
X140257906Y-136856649D01*
X140142812Y-136942809D01*
X140142809Y-136942812D01*
X140056649Y-137057906D01*
X140056645Y-137057913D01*
X140006403Y-137192620D01*
X140006401Y-137192627D01*
X140000000Y-137252155D01*
X140000000Y-137950000D01*
X141024722Y-137950000D01*
X140980667Y-138026306D01*
X140950000Y-138140756D01*
X140950000Y-138259244D01*
X140980667Y-138373694D01*
X141024722Y-138450000D01*
X140000000Y-138450000D01*
X140000000Y-139147844D01*
X140006401Y-139207372D01*
X140006403Y-139207379D01*
X140056645Y-139342086D01*
X140056649Y-139342093D01*
X140142809Y-139457187D01*
X140142812Y-139457190D01*
X140257906Y-139543350D01*
X140257913Y-139543354D01*
X140392620Y-139593596D01*
X140392627Y-139593598D01*
X140452155Y-139599999D01*
X140452172Y-139600000D01*
X141150000Y-139600000D01*
X141150000Y-138575277D01*
X141226306Y-138619333D01*
X141340756Y-138650000D01*
X141459244Y-138650000D01*
X141573694Y-138619333D01*
X141650000Y-138575277D01*
X141650000Y-139600000D01*
X142347828Y-139600000D01*
X142347844Y-139599999D01*
X142407372Y-139593598D01*
X142407379Y-139593596D01*
X142542086Y-139543354D01*
X142542093Y-139543350D01*
X142657187Y-139457190D01*
X142657190Y-139457187D01*
X142743350Y-139342093D01*
X142743355Y-139342084D01*
X142772075Y-139265081D01*
X142813945Y-139209147D01*
X142879409Y-139184729D01*
X142947682Y-139199580D01*
X142979484Y-139224428D01*
X142988216Y-139233913D01*
X142988219Y-139233915D01*
X142988222Y-139233918D01*
X143171365Y-139376464D01*
X143171371Y-139376468D01*
X143171374Y-139376470D01*
X143375497Y-139486936D01*
X143489487Y-139526068D01*
X143595015Y-139562297D01*
X143595017Y-139562297D01*
X143595019Y-139562298D01*
X143823951Y-139600500D01*
X143823952Y-139600500D01*
X144056048Y-139600500D01*
X144056049Y-139600500D01*
X144284981Y-139562298D01*
X144504503Y-139486936D01*
X144708626Y-139376470D01*
X144891784Y-139233913D01*
X145048979Y-139063153D01*
X145175924Y-138868849D01*
X145269157Y-138656300D01*
X145326134Y-138431305D01*
X145338566Y-138281273D01*
X145345300Y-138200006D01*
X145345300Y-138199993D01*
X145326135Y-137968702D01*
X145326133Y-137968691D01*
X145269157Y-137743699D01*
X145175924Y-137531151D01*
X145048979Y-137336846D01*
X145048977Y-137336844D01*
X144973270Y-137254603D01*
X144942348Y-137191948D01*
X144940500Y-137170621D01*
X144940500Y-129841457D01*
X144921275Y-129744813D01*
X144921275Y-129744812D01*
X144902051Y-129648164D01*
X144862685Y-129553127D01*
X144850611Y-129523978D01*
X144826635Y-129466093D01*
X144826634Y-129466092D01*
X144826632Y-129466086D01*
X144826628Y-129466080D01*
X144717139Y-129302217D01*
X144574686Y-129159764D01*
X144574655Y-129159735D01*
X142336819Y-126921899D01*
X142303334Y-126860576D01*
X142300500Y-126834218D01*
X142300500Y-116114782D01*
X142320185Y-116047743D01*
X142372989Y-116001988D01*
X142442147Y-115992044D01*
X142505703Y-116021069D01*
X142512181Y-116027101D01*
X143810530Y-117325450D01*
X143844015Y-117386773D01*
X143846849Y-117413131D01*
X143846849Y-118562819D01*
X143827164Y-118629858D01*
X143797161Y-118662085D01*
X143689801Y-118742455D01*
X143603555Y-118857664D01*
X143603551Y-118857671D01*
X143553257Y-118992517D01*
X143546850Y-119052116D01*
X143546850Y-119052123D01*
X143546849Y-119052135D01*
X143546849Y-120747870D01*
X143546850Y-120747876D01*
X143553257Y-120807483D01*
X143603551Y-120942328D01*
X143603555Y-120942335D01*
X143689801Y-121057544D01*
X143689804Y-121057547D01*
X143805013Y-121143793D01*
X143805020Y-121143797D01*
X143939866Y-121194091D01*
X143939865Y-121194091D01*
X143946793Y-121194835D01*
X143999476Y-121200500D01*
X145262645Y-121200499D01*
X145329684Y-121220184D01*
X145350326Y-121236818D01*
X152295147Y-128181639D01*
X152328632Y-128242962D01*
X152323648Y-128312654D01*
X152281776Y-128368587D01*
X152244017Y-128387811D01*
X152140536Y-128419731D01*
X151897482Y-128536780D01*
X151897469Y-128536787D01*
X151714848Y-128661294D01*
X152552512Y-129498958D01*
X152492110Y-129523978D01*
X152385649Y-129595112D01*
X152295112Y-129685649D01*
X152223978Y-129792110D01*
X152198958Y-129852512D01*
X151362294Y-129015848D01*
X151308602Y-129083177D01*
X151173709Y-129316818D01*
X151075148Y-129567947D01*
X151075142Y-129567966D01*
X151015113Y-129830971D01*
X151015113Y-129830973D01*
X150994953Y-130099995D01*
X150994953Y-130100004D01*
X151015113Y-130369026D01*
X151015113Y-130369028D01*
X151075142Y-130632033D01*
X151075148Y-130632052D01*
X151173709Y-130883181D01*
X151173708Y-130883181D01*
X151308600Y-131116818D01*
X151362294Y-131184150D01*
X152198957Y-130347486D01*
X152223978Y-130407890D01*
X152295112Y-130514351D01*
X152385649Y-130604888D01*
X152492110Y-130676022D01*
X152552510Y-130701041D01*
X151714848Y-131538703D01*
X151897476Y-131663216D01*
X151897485Y-131663221D01*
X152140539Y-131780269D01*
X152140537Y-131780269D01*
X152398337Y-131859790D01*
X152398343Y-131859792D01*
X152665101Y-131899999D01*
X152665110Y-131900000D01*
X152934890Y-131900000D01*
X152934898Y-131899999D01*
X153201656Y-131859792D01*
X153201662Y-131859790D01*
X153459458Y-131780270D01*
X153621698Y-131702140D01*
X153690640Y-131690788D01*
X153754774Y-131718510D01*
X153793740Y-131776506D01*
X153799500Y-131813860D01*
X153799500Y-132634217D01*
X153779815Y-132701256D01*
X153763181Y-132721898D01*
X153221898Y-133263181D01*
X153160575Y-133296666D01*
X153134217Y-133299500D01*
X151452129Y-133299500D01*
X151452123Y-133299501D01*
X151392516Y-133305908D01*
X151257671Y-133356202D01*
X151257664Y-133356206D01*
X151142455Y-133442452D01*
X151142452Y-133442455D01*
X151056206Y-133557664D01*
X151056202Y-133557671D01*
X151005908Y-133692517D01*
X150999501Y-133752116D01*
X150999500Y-133752135D01*
X150999500Y-136447870D01*
X150999501Y-136447876D01*
X151005908Y-136507483D01*
X151056202Y-136642328D01*
X151056206Y-136642335D01*
X151142452Y-136757544D01*
X151142455Y-136757547D01*
X151257664Y-136843793D01*
X151257671Y-136843797D01*
X151392517Y-136894091D01*
X151392516Y-136894091D01*
X151399444Y-136894835D01*
X151452127Y-136900500D01*
X154147872Y-136900499D01*
X154207483Y-136894091D01*
X154342331Y-136843796D01*
X154457546Y-136757546D01*
X154543796Y-136642331D01*
X154594091Y-136507483D01*
X154600500Y-136447873D01*
X154600499Y-134765780D01*
X154620184Y-134698742D01*
X154636813Y-134678105D01*
X155437778Y-133877141D01*
X155437782Y-133877139D01*
X155577139Y-133737782D01*
X155686632Y-133573914D01*
X155762051Y-133391835D01*
X155800500Y-133198541D01*
X155800500Y-129173031D01*
X155771817Y-129028832D01*
X155767706Y-129008163D01*
X155762052Y-128979742D01*
X155762050Y-128979733D01*
X155739961Y-128926405D01*
X155686635Y-128797664D01*
X155686628Y-128797651D01*
X155577139Y-128633790D01*
X155577136Y-128633786D01*
X155434686Y-128491336D01*
X155434655Y-128491307D01*
X148352359Y-121409011D01*
X148318874Y-121347688D01*
X148323858Y-121277996D01*
X148365730Y-121222063D01*
X148429233Y-121197802D01*
X148573948Y-121185141D01*
X148573959Y-121185139D01*
X148793666Y-121126269D01*
X148793680Y-121126264D01*
X148999827Y-121030136D01*
X149072820Y-120979024D01*
X148393795Y-120300000D01*
X148400010Y-120300000D01*
X148501743Y-120272741D01*
X148592955Y-120220080D01*
X148667429Y-120145606D01*
X148720090Y-120054394D01*
X148747349Y-119952661D01*
X148747349Y-119946447D01*
X149426373Y-120625471D01*
X149477485Y-120552478D01*
X149573613Y-120346331D01*
X149573618Y-120346317D01*
X149632488Y-120126610D01*
X149632490Y-120126599D01*
X149652315Y-119900002D01*
X149652315Y-119899997D01*
X149632490Y-119673400D01*
X149632488Y-119673389D01*
X149573618Y-119453682D01*
X149573613Y-119453668D01*
X149477485Y-119247521D01*
X149477481Y-119247513D01*
X149426374Y-119174526D01*
X148747349Y-119853551D01*
X148747349Y-119847339D01*
X148720090Y-119745606D01*
X148667429Y-119654394D01*
X148592955Y-119579920D01*
X148501743Y-119527259D01*
X148400010Y-119500000D01*
X148393794Y-119500000D01*
X149072821Y-118820974D01*
X148999827Y-118769863D01*
X148793680Y-118673735D01*
X148793666Y-118673730D01*
X148573959Y-118614860D01*
X148573948Y-118614858D01*
X148347351Y-118595034D01*
X148347347Y-118595034D01*
X148120749Y-118614858D01*
X148120738Y-118614860D01*
X147901031Y-118673730D01*
X147901022Y-118673734D01*
X147694865Y-118769866D01*
X147694861Y-118769868D01*
X147621875Y-118820973D01*
X147621875Y-118820974D01*
X148300902Y-119500000D01*
X148294688Y-119500000D01*
X148192955Y-119527259D01*
X148101743Y-119579920D01*
X148027269Y-119654394D01*
X147974608Y-119745606D01*
X147947349Y-119847339D01*
X147947349Y-119853553D01*
X147268323Y-119174526D01*
X147268322Y-119174526D01*
X147217217Y-119247512D01*
X147217215Y-119247516D01*
X147121083Y-119453673D01*
X147121079Y-119453682D01*
X147062209Y-119673389D01*
X147062207Y-119673399D01*
X147049546Y-119818116D01*
X147024093Y-119883185D01*
X146967502Y-119924163D01*
X146897740Y-119928041D01*
X146838337Y-119894989D01*
X146209907Y-119266559D01*
X146209887Y-119266537D01*
X146184167Y-119240817D01*
X146150682Y-119179494D01*
X146147848Y-119153136D01*
X146147848Y-119052129D01*
X146147847Y-119052123D01*
X146147846Y-119052116D01*
X146141440Y-118992517D01*
X146138342Y-118984212D01*
X146091146Y-118857671D01*
X146091142Y-118857664D01*
X146004896Y-118742455D01*
X145897537Y-118662085D01*
X145855667Y-118606151D01*
X145847849Y-118562819D01*
X145847849Y-117052024D01*
X145847850Y-117052003D01*
X145847850Y-116848806D01*
X145847849Y-116848804D01*
X145809402Y-116655521D01*
X145809401Y-116655514D01*
X145733981Y-116473435D01*
X145733980Y-116473434D01*
X145733977Y-116473428D01*
X145624489Y-116309568D01*
X145624486Y-116309564D01*
X139684209Y-110369289D01*
X139684206Y-110369285D01*
X139684206Y-110369286D01*
X139677139Y-110362219D01*
X139677139Y-110362218D01*
X139537782Y-110222861D01*
X139537781Y-110222860D01*
X139537780Y-110222859D01*
X139373920Y-110113371D01*
X139373907Y-110113364D01*
X139240121Y-110057949D01*
X139240120Y-110057949D01*
X139191836Y-110037949D01*
X139191828Y-110037947D01*
X139072497Y-110014211D01*
X138998543Y-109999500D01*
X138998541Y-109999500D01*
X121201459Y-109999500D01*
X121201457Y-109999500D01*
X121127503Y-110014211D01*
X121127502Y-110014211D01*
X121008171Y-110037947D01*
X121008163Y-110037949D01*
X120959880Y-110057949D01*
X120959879Y-110057949D01*
X120826092Y-110113364D01*
X120826079Y-110113371D01*
X120662219Y-110222859D01*
X120596985Y-110288094D01*
X120522861Y-110362218D01*
X120522858Y-110362221D01*
X119721899Y-111163181D01*
X119660576Y-111196666D01*
X119634218Y-111199500D01*
X119485646Y-111199500D01*
X119410349Y-111211426D01*
X119259753Y-111235278D01*
X119259750Y-111235278D01*
X119042244Y-111305950D01*
X118838461Y-111409783D01*
X118760414Y-111466488D01*
X118653434Y-111544214D01*
X118653432Y-111544216D01*
X118653431Y-111544216D01*
X118491716Y-111705931D01*
X118491716Y-111705932D01*
X118491714Y-111705934D01*
X118433980Y-111785396D01*
X118357283Y-111890961D01*
X118253450Y-112094744D01*
X118182778Y-112312250D01*
X118182778Y-112312253D01*
X118147000Y-112538146D01*
X118147000Y-112861853D01*
X118182778Y-113087746D01*
X118182778Y-113087749D01*
X118253450Y-113305255D01*
X118328491Y-113452530D01*
X118357283Y-113509038D01*
X118491714Y-113694066D01*
X118653434Y-113855786D01*
X118838462Y-113990217D01*
X118970599Y-114057544D01*
X119042244Y-114094049D01*
X119259751Y-114164721D01*
X119259752Y-114164721D01*
X119259755Y-114164722D01*
X119485646Y-114200500D01*
X119485647Y-114200500D01*
X119714353Y-114200500D01*
X119714354Y-114200500D01*
X119940245Y-114164722D01*
X119940248Y-114164721D01*
X119940249Y-114164721D01*
X120157755Y-114094049D01*
X120157755Y-114094048D01*
X120157758Y-114094048D01*
X120361538Y-113990217D01*
X120546566Y-113855786D01*
X120708286Y-113694066D01*
X120769992Y-113609134D01*
X120825319Y-113566470D01*
X120894932Y-113560491D01*
X120956727Y-113593096D01*
X120970626Y-113609135D01*
X121032097Y-113693741D01*
X121032097Y-113693742D01*
X121193757Y-113855402D01*
X121378723Y-113989788D01*
X121582429Y-114093582D01*
X121799871Y-114164234D01*
X121890000Y-114178509D01*
X121890000Y-113190747D01*
X121927708Y-113212518D01*
X122067591Y-113250000D01*
X122212409Y-113250000D01*
X122352292Y-113212518D01*
X122390000Y-113190747D01*
X122390000Y-114178508D01*
X122480128Y-114164234D01*
X122697570Y-114093582D01*
X122901276Y-113989788D01*
X123084059Y-113856988D01*
X123149865Y-113833508D01*
X123217919Y-113849333D01*
X123266614Y-113899439D01*
X123273127Y-113913974D01*
X123283701Y-113942326D01*
X123283706Y-113942335D01*
X123369952Y-114057544D01*
X123369955Y-114057547D01*
X123485164Y-114143793D01*
X123485171Y-114143797D01*
X123620017Y-114194091D01*
X123620016Y-114194091D01*
X123626944Y-114194835D01*
X123679627Y-114200500D01*
X124714217Y-114200499D01*
X124781256Y-114220183D01*
X124801897Y-114236817D01*
X125802860Y-115237781D01*
X125802861Y-115237782D01*
X125942218Y-115377139D01*
X125942219Y-115377140D01*
X126106079Y-115486628D01*
X126106092Y-115486635D01*
X126234833Y-115539961D01*
X126277744Y-115557735D01*
X126288164Y-115562051D01*
X126384812Y-115581275D01*
X126433135Y-115590887D01*
X126481458Y-115600500D01*
X126481459Y-115600500D01*
X126481460Y-115600500D01*
X126678540Y-115600500D01*
X129075500Y-115600500D01*
X129142539Y-115620185D01*
X129188294Y-115672989D01*
X129199500Y-115724500D01*
X129199500Y-117734217D01*
X129179815Y-117801256D01*
X129163181Y-117821898D01*
X127021897Y-119963181D01*
X126960574Y-119996666D01*
X126934216Y-119999500D01*
X125052129Y-119999500D01*
X125052123Y-119999501D01*
X124992516Y-120005908D01*
X124857671Y-120056202D01*
X124857664Y-120056206D01*
X124742455Y-120142452D01*
X124742452Y-120142455D01*
X124656206Y-120257664D01*
X124656202Y-120257671D01*
X124605908Y-120392517D01*
X124599501Y-120452116D01*
X124599500Y-120452135D01*
X124599500Y-123347870D01*
X124599501Y-123347876D01*
X124605908Y-123407483D01*
X124656202Y-123542328D01*
X124656206Y-123542335D01*
X124742452Y-123657544D01*
X124742455Y-123657547D01*
X124857664Y-123743793D01*
X124857671Y-123743797D01*
X124992517Y-123794091D01*
X124992516Y-123794091D01*
X124999444Y-123794835D01*
X125052127Y-123800500D01*
X126325500Y-123800499D01*
X126392539Y-123820184D01*
X126438294Y-123872987D01*
X126449500Y-123924499D01*
X126449500Y-127275500D01*
X126429815Y-127342539D01*
X126377011Y-127388294D01*
X126325500Y-127399500D01*
X126002130Y-127399500D01*
X126002123Y-127399501D01*
X125942516Y-127405908D01*
X125807671Y-127456202D01*
X125807664Y-127456206D01*
X125692455Y-127542452D01*
X125692452Y-127542455D01*
X125606206Y-127657664D01*
X125606202Y-127657671D01*
X125555908Y-127792517D01*
X125549501Y-127852116D01*
X125549501Y-127852123D01*
X125549500Y-127852135D01*
X125549500Y-128175500D01*
X125529815Y-128242539D01*
X125477011Y-128288294D01*
X125425500Y-128299500D01*
X124948805Y-128299500D01*
X124755520Y-128337946D01*
X124755516Y-128337948D01*
X124755514Y-128337948D01*
X124755513Y-128337949D01*
X124681545Y-128368587D01*
X124680092Y-128369189D01*
X124573434Y-128413368D01*
X124573434Y-128413369D01*
X124573433Y-128413369D01*
X124409571Y-128522857D01*
X124409563Y-128522863D01*
X117569246Y-135363181D01*
X117507923Y-135396666D01*
X117481565Y-135399500D01*
X116799478Y-135399500D01*
X116799472Y-135399501D01*
X116739865Y-135405908D01*
X116605020Y-135456202D01*
X116605013Y-135456206D01*
X116489804Y-135542452D01*
X116489801Y-135542455D01*
X116403555Y-135657664D01*
X116403551Y-135657671D01*
X116353257Y-135792517D01*
X116346850Y-135852116D01*
X116346849Y-135852135D01*
X111200500Y-135852135D01*
X111200500Y-121799998D01*
X114194532Y-121799998D01*
X114194532Y-121800001D01*
X114214364Y-122026686D01*
X114214366Y-122026697D01*
X114273258Y-122246488D01*
X114273261Y-122246497D01*
X114369431Y-122452732D01*
X114369432Y-122452734D01*
X114499954Y-122639141D01*
X114660858Y-122800045D01*
X114660861Y-122800047D01*
X114847266Y-122930568D01*
X115053504Y-123026739D01*
X115273308Y-123085635D01*
X115426082Y-123099001D01*
X115499998Y-123105468D01*
X115500000Y-123105468D01*
X115500002Y-123105468D01*
X115556807Y-123100498D01*
X115726692Y-123085635D01*
X115946496Y-123026739D01*
X116152734Y-122930568D01*
X116339139Y-122800047D01*
X116500047Y-122639139D01*
X116630568Y-122452734D01*
X116726739Y-122246496D01*
X116785635Y-122026692D01*
X116805468Y-121800000D01*
X116805468Y-121799997D01*
X119195034Y-121799997D01*
X119195034Y-121800002D01*
X119214858Y-122026599D01*
X119214860Y-122026610D01*
X119273730Y-122246317D01*
X119273735Y-122246331D01*
X119369863Y-122452478D01*
X119420974Y-122525472D01*
X120100000Y-121846446D01*
X120100000Y-121852661D01*
X120127259Y-121954394D01*
X120179920Y-122045606D01*
X120254394Y-122120080D01*
X120345606Y-122172741D01*
X120447339Y-122200000D01*
X120453553Y-122200000D01*
X119774526Y-122879025D01*
X119847513Y-122930132D01*
X119847521Y-122930136D01*
X120053668Y-123026264D01*
X120053682Y-123026269D01*
X120273389Y-123085139D01*
X120273400Y-123085141D01*
X120499998Y-123104966D01*
X120500002Y-123104966D01*
X120726599Y-123085141D01*
X120726610Y-123085139D01*
X120946317Y-123026269D01*
X120946331Y-123026264D01*
X121152478Y-122930136D01*
X121225471Y-122879024D01*
X120546447Y-122200000D01*
X120552661Y-122200000D01*
X120654394Y-122172741D01*
X120745606Y-122120080D01*
X120820080Y-122045606D01*
X120872741Y-121954394D01*
X120900000Y-121852661D01*
X120900000Y-121846447D01*
X121579024Y-122525471D01*
X121630136Y-122452478D01*
X121726264Y-122246331D01*
X121726269Y-122246317D01*
X121785139Y-122026610D01*
X121785141Y-122026599D01*
X121804966Y-121800002D01*
X121804966Y-121799997D01*
X121785141Y-121573400D01*
X121785139Y-121573389D01*
X121726269Y-121353682D01*
X121726264Y-121353668D01*
X121630136Y-121147521D01*
X121630132Y-121147513D01*
X121579025Y-121074526D01*
X120900000Y-121753551D01*
X120900000Y-121747339D01*
X120872741Y-121645606D01*
X120820080Y-121554394D01*
X120745606Y-121479920D01*
X120654394Y-121427259D01*
X120552661Y-121400000D01*
X120546445Y-121400000D01*
X121225472Y-120720974D01*
X121152478Y-120669863D01*
X120946331Y-120573735D01*
X120946317Y-120573730D01*
X120726610Y-120514860D01*
X120726599Y-120514858D01*
X120500002Y-120495034D01*
X120499998Y-120495034D01*
X120273400Y-120514858D01*
X120273389Y-120514860D01*
X120053682Y-120573730D01*
X120053673Y-120573734D01*
X119847516Y-120669866D01*
X119847512Y-120669868D01*
X119774526Y-120720973D01*
X119774526Y-120720974D01*
X120453553Y-121400000D01*
X120447339Y-121400000D01*
X120345606Y-121427259D01*
X120254394Y-121479920D01*
X120179920Y-121554394D01*
X120127259Y-121645606D01*
X120100000Y-121747339D01*
X120100000Y-121753552D01*
X119420974Y-121074526D01*
X119420973Y-121074526D01*
X119369868Y-121147512D01*
X119369866Y-121147516D01*
X119273734Y-121353673D01*
X119273730Y-121353682D01*
X119214860Y-121573389D01*
X119214858Y-121573400D01*
X119195034Y-121799997D01*
X116805468Y-121799997D01*
X116805447Y-121799764D01*
X116790493Y-121628839D01*
X116785635Y-121573308D01*
X116726739Y-121353504D01*
X116630568Y-121147266D01*
X116500047Y-120960861D01*
X116500045Y-120960858D01*
X116339141Y-120799954D01*
X116152734Y-120669432D01*
X116152732Y-120669431D01*
X115946497Y-120573261D01*
X115946488Y-120573258D01*
X115726697Y-120514366D01*
X115726693Y-120514365D01*
X115726692Y-120514365D01*
X115726691Y-120514364D01*
X115726686Y-120514364D01*
X115500002Y-120494532D01*
X115499998Y-120494532D01*
X115273313Y-120514364D01*
X115273302Y-120514366D01*
X115053511Y-120573258D01*
X115053502Y-120573261D01*
X114847267Y-120669431D01*
X114847265Y-120669432D01*
X114660858Y-120799954D01*
X114499954Y-120960858D01*
X114369432Y-121147265D01*
X114369431Y-121147267D01*
X114273261Y-121353502D01*
X114273258Y-121353511D01*
X114214366Y-121573302D01*
X114214364Y-121573313D01*
X114194532Y-121799998D01*
X111200500Y-121799998D01*
X111200500Y-115541527D01*
X111220185Y-115474488D01*
X111254647Y-115439074D01*
X111263217Y-115433232D01*
X111450050Y-115259877D01*
X111608959Y-115060612D01*
X111736393Y-114839888D01*
X111829508Y-114602637D01*
X111886222Y-114354157D01*
X111900418Y-114164721D01*
X111905268Y-114100004D01*
X111905268Y-114099995D01*
X111890238Y-113899439D01*
X111886222Y-113845843D01*
X111829508Y-113597363D01*
X111736393Y-113360112D01*
X111608959Y-113139388D01*
X111450050Y-112940123D01*
X111263217Y-112766768D01*
X111052634Y-112623195D01*
X111052630Y-112623193D01*
X111052627Y-112623191D01*
X111052626Y-112623190D01*
X110823006Y-112512612D01*
X110823008Y-112512612D01*
X110579466Y-112437489D01*
X110579462Y-112437488D01*
X110579458Y-112437487D01*
X110458231Y-112419214D01*
X110327440Y-112399500D01*
X110327435Y-112399500D01*
X110072565Y-112399500D01*
X110072557Y-112399500D01*
X109997033Y-112410884D01*
X109927809Y-112401411D01*
X109890871Y-112375950D01*
X107904209Y-110389289D01*
X107904206Y-110389285D01*
X107904206Y-110389286D01*
X107897139Y-110382219D01*
X107897139Y-110382218D01*
X107757782Y-110242861D01*
X107757781Y-110242860D01*
X107757780Y-110242859D01*
X107593920Y-110133371D01*
X107593911Y-110133366D01*
X107510683Y-110098892D01*
X107465165Y-110080038D01*
X107438500Y-110068993D01*
X107411837Y-110057949D01*
X107411833Y-110057948D01*
X107311289Y-110037949D01*
X107218543Y-110019500D01*
X107218541Y-110019500D01*
X89077588Y-110019500D01*
X89010549Y-109999815D01*
X89006465Y-109997075D01*
X88852734Y-109889432D01*
X88852732Y-109889431D01*
X88646497Y-109793261D01*
X88646488Y-109793258D01*
X88426697Y-109734366D01*
X88426693Y-109734365D01*
X88426692Y-109734365D01*
X88426691Y-109734364D01*
X88426686Y-109734364D01*
X88200002Y-109714532D01*
X88199998Y-109714532D01*
X87973313Y-109734364D01*
X87973302Y-109734366D01*
X87753511Y-109793258D01*
X87753502Y-109793261D01*
X87547267Y-109889431D01*
X87547265Y-109889432D01*
X87360858Y-110019954D01*
X87199954Y-110180858D01*
X87069432Y-110367265D01*
X87069431Y-110367267D01*
X86973261Y-110573502D01*
X86973258Y-110573511D01*
X86914366Y-110793302D01*
X86914364Y-110793313D01*
X86894532Y-111019998D01*
X82500500Y-111019998D01*
X82500500Y-109630958D01*
X82520185Y-109563919D01*
X82572989Y-109518164D01*
X82642147Y-109508220D01*
X82705703Y-109537245D01*
X82716954Y-109548326D01*
X82733339Y-109566661D01*
X83001377Y-109806194D01*
X83294548Y-110014211D01*
X83609167Y-110188094D01*
X83941276Y-110325659D01*
X84286700Y-110425173D01*
X84641093Y-110485387D01*
X85000000Y-110505543D01*
X85358907Y-110485387D01*
X85713300Y-110425173D01*
X86058724Y-110325659D01*
X86390833Y-110188094D01*
X86705452Y-110014211D01*
X86998623Y-109806194D01*
X87266661Y-109566661D01*
X87506194Y-109298623D01*
X87714211Y-109005452D01*
X87888094Y-108690833D01*
X88025659Y-108358724D01*
X88125173Y-108013300D01*
X88185387Y-107658907D01*
X88205543Y-107300000D01*
X88185387Y-106941093D01*
X88125173Y-106586700D01*
X88025659Y-106241276D01*
X87888094Y-105909167D01*
X87714211Y-105594548D01*
X87506194Y-105301377D01*
X87332600Y-105107124D01*
X87302608Y-105044023D01*
X87311492Y-104974720D01*
X87356433Y-104921223D01*
X87423164Y-104900515D01*
X87425061Y-104900500D01*
X154669041Y-104900500D01*
X154736080Y-104920185D01*
G37*
%TD.AperFunction*%
%TD*%
M02*
