%TF.GenerationSoftware,KiCad,Pcbnew,8.0.8*%
%TF.CreationDate,2026-02-04T08:37:40+05:30*%
%TF.ProjectId,power supply,706f7765-7220-4737-9570-706c792e6b69,rev?*%
%TF.SameCoordinates,Original*%
%TF.FileFunction,Copper,L1,Top*%
%TF.FilePolarity,Positive*%
%FSLAX46Y46*%
G04 Gerber Fmt 4.6, Leading zero omitted, Abs format (unit mm)*
G04 Created by KiCad (PCBNEW 8.0.8) date 2026-02-04 08:37:40*
%MOMM*%
%LPD*%
G01*
G04 APERTURE LIST*
%TA.AperFunction,ComponentPad*%
%ADD10R,2.200000X2.200000*%
%TD*%
%TA.AperFunction,ComponentPad*%
%ADD11O,2.200000X2.200000*%
%TD*%
%TA.AperFunction,ComponentPad*%
%ADD12R,2.600000X2.600000*%
%TD*%
%TA.AperFunction,ComponentPad*%
%ADD13C,2.600000*%
%TD*%
%TA.AperFunction,ComponentPad*%
%ADD14C,1.600000*%
%TD*%
%TA.AperFunction,ComponentPad*%
%ADD15O,1.600000X1.600000*%
%TD*%
%TA.AperFunction,ComponentPad*%
%ADD16R,1.800000X1.800000*%
%TD*%
%TA.AperFunction,ComponentPad*%
%ADD17C,1.800000*%
%TD*%
%TA.AperFunction,ComponentPad*%
%ADD18R,2.800000X2.800000*%
%TD*%
%TA.AperFunction,ComponentPad*%
%ADD19O,2.800000X2.800000*%
%TD*%
%TA.AperFunction,ComponentPad*%
%ADD20R,1.600000X1.600000*%
%TD*%
%TA.AperFunction,ComponentPad*%
%ADD21C,2.400000*%
%TD*%
%TA.AperFunction,ComponentPad*%
%ADD22R,1.905000X2.000000*%
%TD*%
%TA.AperFunction,ComponentPad*%
%ADD23O,1.905000X2.000000*%
%TD*%
%TA.AperFunction,Conductor*%
%ADD24C,1.000000*%
%TD*%
G04 APERTURE END LIST*
D10*
%TO.P,D1,1,K*%
%TO.N,Net-(D1-K)*%
X99300000Y-120920000D03*
D11*
%TO.P,D1,2,A*%
%TO.N,Net-(D1-A)*%
X99300000Y-131080000D03*
%TD*%
D10*
%TO.P,D2,1,K*%
%TO.N,Net-(D1-A)*%
X99500000Y-135400000D03*
D11*
%TO.P,D2,2,A*%
%TO.N,GND*%
X99500000Y-145560000D03*
%TD*%
D12*
%TO.P,J1,1,Pin_1*%
%TO.N,Net-(J1-Pin_1)*%
X89600000Y-126000000D03*
D13*
%TO.P,J1,2,Pin_2*%
%TO.N,Net-(D3-A)*%
X89600000Y-131000000D03*
%TD*%
D14*
%TO.P,R1,1*%
%TO.N,Net-(J1-Pin_1)*%
X88200000Y-121180000D03*
D15*
%TO.P,R1,2*%
%TO.N,Net-(D1-A)*%
X88200000Y-111020000D03*
%TD*%
D12*
%TO.P,J2,1,Pin_1*%
%TO.N,+5V*%
X152800000Y-135100000D03*
D13*
%TO.P,J2,2,Pin_2*%
%TO.N,GND*%
X152800000Y-130100000D03*
%TD*%
D14*
%TO.P,C2,1*%
%TO.N,Net-(D1-K)*%
X115500000Y-121800000D03*
%TO.P,C2,2*%
%TO.N,GND*%
X120500000Y-121800000D03*
%TD*%
D10*
%TO.P,D3,1,K*%
%TO.N,Net-(D1-K)*%
X107600000Y-121500000D03*
D11*
%TO.P,D3,2,A*%
%TO.N,Net-(D3-A)*%
X107600000Y-131660000D03*
%TD*%
D14*
%TO.P,R2,1*%
%TO.N,Net-(D5-A)*%
X125840000Y-136300000D03*
D15*
%TO.P,R2,2*%
%TO.N,GND*%
X136000000Y-136300000D03*
%TD*%
D16*
%TO.P,D7,1,K*%
%TO.N,GND*%
X141400000Y-138200000D03*
D17*
%TO.P,D7,2,A*%
%TO.N,Net-(D7-A)*%
X143940000Y-138200000D03*
%TD*%
D18*
%TO.P,D5,1,K*%
%TO.N,Net-(D1-K)*%
X126500000Y-121900000D03*
D19*
%TO.P,D5,2,A*%
%TO.N,Net-(D5-A)*%
X139200000Y-121900000D03*
%TD*%
D20*
%TO.P,C3,1*%
%TO.N,Net-(D1-K)*%
X117647349Y-136700000D03*
D14*
%TO.P,C3,2*%
%TO.N,GND*%
X120147349Y-136700000D03*
%TD*%
D21*
%TO.P,C1,1*%
%TO.N,Net-(J1-Pin_1)*%
X95200000Y-114100000D03*
%TO.P,C1,2*%
%TO.N,Net-(D1-A)*%
X110200000Y-114100000D03*
%TD*%
D14*
%TO.P,R3,1*%
%TO.N,Net-(D6-A)*%
X126600000Y-141400000D03*
D15*
%TO.P,R3,2*%
%TO.N,GND*%
X136760000Y-141400000D03*
%TD*%
D14*
%TO.P,R4,1*%
%TO.N,Net-(D1-K)*%
X130200000Y-114600000D03*
D15*
%TO.P,R4,2*%
%TO.N,Net-(D7-A)*%
X140360000Y-114600000D03*
%TD*%
D20*
%TO.P,C4,1*%
%TO.N,+5V*%
X144847349Y-119900000D03*
D14*
%TO.P,C4,2*%
%TO.N,GND*%
X148347349Y-119900000D03*
%TD*%
D22*
%TO.P,U1,1,VI*%
%TO.N,Net-(D1-K)*%
X124680000Y-112700000D03*
D23*
%TO.P,U1,2,GND*%
%TO.N,GND*%
X122140000Y-112700000D03*
%TO.P,U1,3,VO*%
%TO.N,+5V*%
X119600000Y-112700000D03*
%TD*%
D10*
%TO.P,D4,1,K*%
%TO.N,Net-(D3-A)*%
X107800000Y-135500000D03*
D11*
%TO.P,D4,2,A*%
%TO.N,GND*%
X107800000Y-145660000D03*
%TD*%
D18*
%TO.P,D6,1,K*%
%TO.N,Net-(D1-K)*%
X127450000Y-129300000D03*
D19*
%TO.P,D6,2,A*%
%TO.N,Net-(D6-A)*%
X140150000Y-129300000D03*
%TD*%
D24*
%TO.N,Net-(D1-K)*%
X125100000Y-123300000D02*
X101680000Y-123300000D01*
X107600000Y-121500000D02*
X115200000Y-121500000D01*
X126500000Y-121900000D02*
X125100000Y-123300000D01*
X101680000Y-123300000D02*
X99300000Y-120920000D01*
X115200000Y-121500000D02*
X115500000Y-121800000D01*
%TD*%
%TA.AperFunction,Conductor*%
%TO.N,GND*%
G36*
X154736080Y-104920185D02*
G01*
X154781835Y-104972989D01*
X154791779Y-105042147D01*
X154762754Y-105105703D01*
X154751668Y-105116959D01*
X154733343Y-105133334D01*
X154493805Y-105401377D01*
X154285790Y-105694545D01*
X154111905Y-106009168D01*
X153974339Y-106341281D01*
X153874828Y-106686694D01*
X153874826Y-106686703D01*
X153814614Y-107041085D01*
X153814612Y-107041097D01*
X153794457Y-107400000D01*
X153814612Y-107758902D01*
X153814614Y-107758914D01*
X153874826Y-108113296D01*
X153874828Y-108113305D01*
X153974339Y-108458718D01*
X154111905Y-108790831D01*
X154285790Y-109105454D01*
X154422851Y-109298622D01*
X154493806Y-109398623D01*
X154733339Y-109666661D01*
X155001377Y-109906194D01*
X155294548Y-110114211D01*
X155609167Y-110288094D01*
X155941276Y-110425659D01*
X156286700Y-110525173D01*
X156641093Y-110585387D01*
X157000000Y-110605543D01*
X157358907Y-110585387D01*
X157713300Y-110525173D01*
X158058724Y-110425659D01*
X158390833Y-110288094D01*
X158705452Y-110114211D01*
X158998623Y-109906194D01*
X159266661Y-109666661D01*
X159283040Y-109648331D01*
X159342387Y-109611461D01*
X159412248Y-109612528D01*
X159470443Y-109651196D01*
X159498493Y-109715188D01*
X159499500Y-109730958D01*
X159499500Y-143869040D01*
X159479815Y-143936079D01*
X159427011Y-143981834D01*
X159357853Y-143991778D01*
X159294297Y-143962753D01*
X159283042Y-143951669D01*
X159266662Y-143933340D01*
X158998622Y-143693805D01*
X158705454Y-143485790D01*
X158390831Y-143311905D01*
X158300139Y-143274339D01*
X158058724Y-143174341D01*
X158058720Y-143174339D01*
X158058718Y-143174339D01*
X157713305Y-143074828D01*
X157713296Y-143074826D01*
X157358914Y-143014614D01*
X157358902Y-143014612D01*
X157000000Y-142994457D01*
X156641097Y-143014612D01*
X156641085Y-143014614D01*
X156286703Y-143074826D01*
X156286694Y-143074828D01*
X155941281Y-143174339D01*
X155609168Y-143311905D01*
X155294545Y-143485790D01*
X155001377Y-143693805D01*
X154733339Y-143933339D01*
X154493805Y-144201377D01*
X154285790Y-144494545D01*
X154111905Y-144809168D01*
X153974339Y-145141281D01*
X153874828Y-145486694D01*
X153874826Y-145486703D01*
X153814614Y-145841085D01*
X153814612Y-145841097D01*
X153794457Y-146200000D01*
X153814612Y-146558902D01*
X153814614Y-146558914D01*
X153874826Y-146913296D01*
X153874828Y-146913305D01*
X153974339Y-147258718D01*
X154111905Y-147590831D01*
X154285790Y-147905454D01*
X154396583Y-148061601D01*
X154493806Y-148198623D01*
X154733339Y-148466661D01*
X154863568Y-148583041D01*
X154900439Y-148642390D01*
X154899370Y-148712251D01*
X154860700Y-148770444D01*
X154796708Y-148798493D01*
X154780941Y-148799500D01*
X87730959Y-148799500D01*
X87663920Y-148779815D01*
X87618165Y-148727011D01*
X87608221Y-148657853D01*
X87637246Y-148594297D01*
X87648332Y-148583041D01*
X87653941Y-148578027D01*
X87666661Y-148566661D01*
X87906194Y-148298623D01*
X88114211Y-148005452D01*
X88288094Y-147690833D01*
X88425659Y-147358724D01*
X88525173Y-147013300D01*
X88585387Y-146658907D01*
X88605543Y-146300000D01*
X88585387Y-145941093D01*
X88525173Y-145586700D01*
X88445458Y-145309999D01*
X97914728Y-145309999D01*
X97914729Y-145310000D01*
X99009252Y-145310000D01*
X98987482Y-145347708D01*
X98950000Y-145487591D01*
X98950000Y-145632409D01*
X98987482Y-145772292D01*
X99009252Y-145810000D01*
X97914728Y-145810000D01*
X97914811Y-145811067D01*
X97973603Y-146055956D01*
X98069980Y-146288631D01*
X98201568Y-146503362D01*
X98201571Y-146503367D01*
X98365130Y-146694869D01*
X98556632Y-146858428D01*
X98556637Y-146858431D01*
X98771368Y-146990019D01*
X99004043Y-147086396D01*
X99248932Y-147145188D01*
X99249999Y-147145271D01*
X99250000Y-147145271D01*
X99250000Y-146050747D01*
X99287708Y-146072518D01*
X99427591Y-146110000D01*
X99572409Y-146110000D01*
X99712292Y-146072518D01*
X99750000Y-146050747D01*
X99750000Y-147145271D01*
X99751067Y-147145188D01*
X99995956Y-147086396D01*
X100228631Y-146990019D01*
X100443362Y-146858431D01*
X100443367Y-146858428D01*
X100634869Y-146694869D01*
X100798428Y-146503367D01*
X100798431Y-146503362D01*
X100930019Y-146288631D01*
X101026396Y-146055956D01*
X101085188Y-145811067D01*
X101085272Y-145810000D01*
X99990748Y-145810000D01*
X100012518Y-145772292D01*
X100050000Y-145632409D01*
X100050000Y-145487591D01*
X100029209Y-145409999D01*
X106214728Y-145409999D01*
X106214729Y-145410000D01*
X107309252Y-145410000D01*
X107287482Y-145447708D01*
X107250000Y-145587591D01*
X107250000Y-145732409D01*
X107287482Y-145872292D01*
X107309252Y-145910000D01*
X106214728Y-145910000D01*
X106214811Y-145911067D01*
X106273603Y-146155956D01*
X106369980Y-146388631D01*
X106501568Y-146603362D01*
X106501571Y-146603367D01*
X106665130Y-146794869D01*
X106856632Y-146958428D01*
X106856637Y-146958431D01*
X107071368Y-147090019D01*
X107304043Y-147186396D01*
X107548932Y-147245188D01*
X107549999Y-147245271D01*
X107550000Y-147245271D01*
X107550000Y-146150747D01*
X107587708Y-146172518D01*
X107727591Y-146210000D01*
X107872409Y-146210000D01*
X108012292Y-146172518D01*
X108050000Y-146150747D01*
X108050000Y-147245271D01*
X108051067Y-147245188D01*
X108295956Y-147186396D01*
X108528631Y-147090019D01*
X108743362Y-146958431D01*
X108743367Y-146958428D01*
X108934869Y-146794869D01*
X109098428Y-146603367D01*
X109098431Y-146603362D01*
X109230019Y-146388631D01*
X109326396Y-146155956D01*
X109385188Y-145911067D01*
X109385272Y-145910000D01*
X108290748Y-145910000D01*
X108312518Y-145872292D01*
X108350000Y-145732409D01*
X108350000Y-145587591D01*
X108312518Y-145447708D01*
X108290748Y-145410000D01*
X109385271Y-145410000D01*
X109385271Y-145409999D01*
X109385188Y-145408932D01*
X109326396Y-145164043D01*
X109230019Y-144931368D01*
X109098431Y-144716637D01*
X109098428Y-144716632D01*
X108934869Y-144525130D01*
X108743367Y-144361571D01*
X108743362Y-144361568D01*
X108528631Y-144229980D01*
X108295956Y-144133603D01*
X108051064Y-144074811D01*
X108050000Y-144074726D01*
X108050000Y-145169252D01*
X108012292Y-145147482D01*
X107872409Y-145110000D01*
X107727591Y-145110000D01*
X107587708Y-145147482D01*
X107550000Y-145169252D01*
X107550000Y-144074726D01*
X107548935Y-144074811D01*
X107304043Y-144133603D01*
X107071368Y-144229980D01*
X106856637Y-144361568D01*
X106856632Y-144361571D01*
X106665130Y-144525130D01*
X106501571Y-144716632D01*
X106501568Y-144716637D01*
X106369980Y-144931368D01*
X106273603Y-145164043D01*
X106214811Y-145408932D01*
X106214728Y-145409999D01*
X100029209Y-145409999D01*
X100012518Y-145347708D01*
X99990748Y-145310000D01*
X101085271Y-145310000D01*
X101085271Y-145309999D01*
X101085188Y-145308932D01*
X101026396Y-145064043D01*
X100930019Y-144831368D01*
X100798431Y-144616637D01*
X100798428Y-144616632D01*
X100634869Y-144425130D01*
X100443367Y-144261571D01*
X100443362Y-144261568D01*
X100228631Y-144129980D01*
X99995956Y-144033603D01*
X99751064Y-143974811D01*
X99750000Y-143974726D01*
X99750000Y-145069252D01*
X99712292Y-145047482D01*
X99572409Y-145010000D01*
X99427591Y-145010000D01*
X99287708Y-145047482D01*
X99250000Y-145069252D01*
X99250000Y-143974726D01*
X99248935Y-143974811D01*
X99004043Y-144033603D01*
X98771368Y-144129980D01*
X98556637Y-144261568D01*
X98556632Y-144261571D01*
X98365130Y-144425130D01*
X98201571Y-144616632D01*
X98201568Y-144616637D01*
X98069980Y-144831368D01*
X97973603Y-145064043D01*
X97914811Y-145308932D01*
X97914728Y-145309999D01*
X88445458Y-145309999D01*
X88425659Y-145241276D01*
X88288094Y-144909167D01*
X88114211Y-144594548D01*
X87906194Y-144301377D01*
X87666661Y-144033339D01*
X87398623Y-143793806D01*
X87257686Y-143693805D01*
X87105454Y-143585790D01*
X86790831Y-143411905D01*
X86549413Y-143311906D01*
X86458724Y-143274341D01*
X86458720Y-143274339D01*
X86458718Y-143274339D01*
X86113305Y-143174828D01*
X86113296Y-143174826D01*
X85758914Y-143114614D01*
X85758902Y-143114612D01*
X85400000Y-143094457D01*
X85041097Y-143114612D01*
X85041085Y-143114614D01*
X84686703Y-143174826D01*
X84686694Y-143174828D01*
X84341281Y-143274339D01*
X84009168Y-143411905D01*
X83694545Y-143585790D01*
X83401377Y-143793805D01*
X83133339Y-144033339D01*
X82893805Y-144301377D01*
X82725629Y-144538398D01*
X82670781Y-144581681D01*
X82601239Y-144588441D01*
X82539082Y-144556530D01*
X82504045Y-144496080D01*
X82500500Y-144466642D01*
X82500500Y-141399998D01*
X125294532Y-141399998D01*
X125294532Y-141400001D01*
X125314364Y-141626686D01*
X125314366Y-141626697D01*
X125373258Y-141846488D01*
X125373261Y-141846497D01*
X125469431Y-142052732D01*
X125469432Y-142052734D01*
X125599954Y-142239141D01*
X125760858Y-142400045D01*
X125760861Y-142400047D01*
X125947266Y-142530568D01*
X126153504Y-142626739D01*
X126373308Y-142685635D01*
X126535230Y-142699801D01*
X126599998Y-142705468D01*
X126600000Y-142705468D01*
X126600002Y-142705468D01*
X126656673Y-142700509D01*
X126826692Y-142685635D01*
X127046496Y-142626739D01*
X127252734Y-142530568D01*
X127439139Y-142400047D01*
X127600047Y-142239139D01*
X127730568Y-142052734D01*
X127826739Y-141846496D01*
X127885635Y-141626692D01*
X127905468Y-141400000D01*
X127885635Y-141173308D01*
X127879389Y-141149999D01*
X135481127Y-141149999D01*
X135481128Y-141150000D01*
X136444314Y-141150000D01*
X136439920Y-141154394D01*
X136387259Y-141245606D01*
X136360000Y-141347339D01*
X136360000Y-141452661D01*
X136387259Y-141554394D01*
X136439920Y-141645606D01*
X136444314Y-141650000D01*
X135481128Y-141650000D01*
X135533730Y-141846317D01*
X135533734Y-141846326D01*
X135629865Y-142052482D01*
X135760342Y-142238820D01*
X135921179Y-142399657D01*
X136107517Y-142530134D01*
X136313673Y-142626265D01*
X136313682Y-142626269D01*
X136509999Y-142678872D01*
X136510000Y-142678871D01*
X136510000Y-141715686D01*
X136514394Y-141720080D01*
X136605606Y-141772741D01*
X136707339Y-141800000D01*
X136812661Y-141800000D01*
X136914394Y-141772741D01*
X137005606Y-141720080D01*
X137010000Y-141715686D01*
X137010000Y-142678872D01*
X137206317Y-142626269D01*
X137206326Y-142626265D01*
X137412482Y-142530134D01*
X137598820Y-142399657D01*
X137759657Y-142238820D01*
X137890134Y-142052482D01*
X137986265Y-141846326D01*
X137986269Y-141846317D01*
X138038872Y-141650000D01*
X137075686Y-141650000D01*
X137080080Y-141645606D01*
X137132741Y-141554394D01*
X137160000Y-141452661D01*
X137160000Y-141347339D01*
X137132741Y-141245606D01*
X137080080Y-141154394D01*
X137075686Y-141150000D01*
X138038872Y-141150000D01*
X138038872Y-141149999D01*
X137986269Y-140953682D01*
X137986265Y-140953673D01*
X137890134Y-140747517D01*
X137759657Y-140561179D01*
X137598820Y-140400342D01*
X137412482Y-140269865D01*
X137206328Y-140173734D01*
X137010000Y-140121127D01*
X137010000Y-141084314D01*
X137005606Y-141079920D01*
X136914394Y-141027259D01*
X136812661Y-141000000D01*
X136707339Y-141000000D01*
X136605606Y-141027259D01*
X136514394Y-141079920D01*
X136510000Y-141084314D01*
X136510000Y-140121127D01*
X136313671Y-140173734D01*
X136107517Y-140269865D01*
X135921179Y-140400342D01*
X135760342Y-140561179D01*
X135629865Y-140747517D01*
X135533734Y-140953673D01*
X135533730Y-140953682D01*
X135481127Y-141149999D01*
X127879389Y-141149999D01*
X127826739Y-140953504D01*
X127730568Y-140747266D01*
X127600047Y-140560861D01*
X127600045Y-140560858D01*
X127439141Y-140399954D01*
X127252734Y-140269432D01*
X127252732Y-140269431D01*
X127046497Y-140173261D01*
X127046488Y-140173258D01*
X126826697Y-140114366D01*
X126826693Y-140114365D01*
X126826692Y-140114365D01*
X126826691Y-140114364D01*
X126826686Y-140114364D01*
X126600002Y-140094532D01*
X126599998Y-140094532D01*
X126373313Y-140114364D01*
X126373302Y-140114366D01*
X126153511Y-140173258D01*
X126153502Y-140173261D01*
X125947267Y-140269431D01*
X125947265Y-140269432D01*
X125760858Y-140399954D01*
X125599954Y-140560858D01*
X125469432Y-140747265D01*
X125469431Y-140747267D01*
X125373261Y-140953502D01*
X125373258Y-140953511D01*
X125314366Y-141173302D01*
X125314364Y-141173313D01*
X125294532Y-141399998D01*
X82500500Y-141399998D01*
X82500500Y-134252135D01*
X97899500Y-134252135D01*
X97899500Y-136547870D01*
X97899501Y-136547876D01*
X97905908Y-136607483D01*
X97956202Y-136742328D01*
X97956206Y-136742335D01*
X98042452Y-136857544D01*
X98042455Y-136857547D01*
X98157664Y-136943793D01*
X98157671Y-136943797D01*
X98292517Y-136994091D01*
X98292516Y-136994091D01*
X98299444Y-136994835D01*
X98352127Y-137000500D01*
X100647872Y-137000499D01*
X100707483Y-136994091D01*
X100842331Y-136943796D01*
X100957546Y-136857546D01*
X101043796Y-136742331D01*
X101094091Y-136607483D01*
X101100500Y-136547873D01*
X101100499Y-134352135D01*
X106199500Y-134352135D01*
X106199500Y-136647870D01*
X106199501Y-136647876D01*
X106205908Y-136707483D01*
X106256202Y-136842328D01*
X106256206Y-136842335D01*
X106342452Y-136957544D01*
X106342455Y-136957547D01*
X106457664Y-137043793D01*
X106457671Y-137043797D01*
X106592517Y-137094091D01*
X106592516Y-137094091D01*
X106599444Y-137094835D01*
X106652127Y-137100500D01*
X108947872Y-137100499D01*
X109007483Y-137094091D01*
X109142331Y-137043796D01*
X109257546Y-136957546D01*
X109343796Y-136842331D01*
X109394091Y-136707483D01*
X109400500Y-136647873D01*
X109400500Y-135852135D01*
X116346849Y-135852135D01*
X116346849Y-137547870D01*
X116346850Y-137547876D01*
X116353257Y-137607483D01*
X116403551Y-137742328D01*
X116403555Y-137742335D01*
X116489801Y-137857544D01*
X116489804Y-137857547D01*
X116605013Y-137943793D01*
X116605020Y-137943797D01*
X116739866Y-137994091D01*
X116739865Y-137994091D01*
X116746793Y-137994835D01*
X116799476Y-138000500D01*
X118495221Y-138000499D01*
X118554832Y-137994091D01*
X118689680Y-137943796D01*
X118804895Y-137857546D01*
X118891145Y-137742331D01*
X118941440Y-137607483D01*
X118947849Y-137547873D01*
X118947848Y-137547845D01*
X118948027Y-137544547D01*
X118949532Y-137544627D01*
X118967461Y-137483326D01*
X119020217Y-137437514D01*
X119063814Y-137429981D01*
X119747349Y-136746446D01*
X119747349Y-136752661D01*
X119774608Y-136854394D01*
X119827269Y-136945606D01*
X119901743Y-137020080D01*
X119992955Y-137072741D01*
X120094688Y-137100000D01*
X120100902Y-137100000D01*
X119421875Y-137779025D01*
X119494862Y-137830132D01*
X119494870Y-137830136D01*
X119701017Y-137926264D01*
X119701031Y-137926269D01*
X119920738Y-137985139D01*
X119920749Y-137985141D01*
X120147347Y-138004966D01*
X120147351Y-138004966D01*
X120373948Y-137985141D01*
X120373959Y-137985139D01*
X120593666Y-137926269D01*
X120593680Y-137926264D01*
X120799827Y-137830136D01*
X120872820Y-137779024D01*
X120193796Y-137100000D01*
X120200010Y-137100000D01*
X120301743Y-137072741D01*
X120392955Y-137020080D01*
X120467429Y-136945606D01*
X120520090Y-136854394D01*
X120547349Y-136752661D01*
X120547349Y-136746447D01*
X121226373Y-137425471D01*
X121277485Y-137352478D01*
X121373613Y-137146331D01*
X121373618Y-137146317D01*
X121432488Y-136926610D01*
X121432490Y-136926599D01*
X121452315Y-136700002D01*
X121452315Y-136699997D01*
X121432490Y-136473400D01*
X121432488Y-136473389D01*
X121386028Y-136299998D01*
X124534532Y-136299998D01*
X124534532Y-136300001D01*
X124554364Y-136526686D01*
X124554366Y-136526697D01*
X124613258Y-136746488D01*
X124613261Y-136746497D01*
X124709431Y-136952732D01*
X124709432Y-136952734D01*
X124839954Y-137139141D01*
X125000858Y-137300045D01*
X125000861Y-137300047D01*
X125187266Y-137430568D01*
X125393504Y-137526739D01*
X125613308Y-137585635D01*
X125775230Y-137599801D01*
X125839998Y-137605468D01*
X125840000Y-137605468D01*
X125840002Y-137605468D01*
X125896673Y-137600509D01*
X126066692Y-137585635D01*
X126286496Y-137526739D01*
X126492734Y-137430568D01*
X126679139Y-137300047D01*
X126840047Y-137139139D01*
X126970568Y-136952734D01*
X127066739Y-136746496D01*
X127125635Y-136526692D01*
X127145468Y-136300000D01*
X127141414Y-136253668D01*
X127125635Y-136073313D01*
X127125635Y-136073308D01*
X127119389Y-136049999D01*
X134721127Y-136049999D01*
X134721128Y-136050000D01*
X135684314Y-136050000D01*
X135679920Y-136054394D01*
X135627259Y-136145606D01*
X135600000Y-136247339D01*
X135600000Y-136352661D01*
X135627259Y-136454394D01*
X135679920Y-136545606D01*
X135684314Y-136550000D01*
X134721128Y-136550000D01*
X134773730Y-136746317D01*
X134773734Y-136746326D01*
X134869865Y-136952482D01*
X135000342Y-137138820D01*
X135161179Y-137299657D01*
X135347517Y-137430134D01*
X135553673Y-137526265D01*
X135553682Y-137526269D01*
X135749999Y-137578872D01*
X135750000Y-137578871D01*
X135750000Y-136615686D01*
X135754394Y-136620080D01*
X135845606Y-136672741D01*
X135947339Y-136700000D01*
X136052661Y-136700000D01*
X136154394Y-136672741D01*
X136245606Y-136620080D01*
X136250000Y-136615686D01*
X136250000Y-137578872D01*
X136446317Y-137526269D01*
X136446326Y-137526265D01*
X136652482Y-137430134D01*
X136838820Y-137299657D01*
X136886322Y-137252155D01*
X140000000Y-137252155D01*
X140000000Y-137950000D01*
X141024722Y-137950000D01*
X140980667Y-138026306D01*
X140950000Y-138140756D01*
X140950000Y-138259244D01*
X140980667Y-138373694D01*
X141024722Y-138450000D01*
X140000000Y-138450000D01*
X140000000Y-139147844D01*
X140006401Y-139207372D01*
X140006403Y-139207379D01*
X140056645Y-139342086D01*
X140056649Y-139342093D01*
X140142809Y-139457187D01*
X140142812Y-139457190D01*
X140257906Y-139543350D01*
X140257913Y-139543354D01*
X140392620Y-139593596D01*
X140392627Y-139593598D01*
X140452155Y-139599999D01*
X140452172Y-139600000D01*
X141150000Y-139600000D01*
X141150000Y-138575277D01*
X141226306Y-138619333D01*
X141340756Y-138650000D01*
X141459244Y-138650000D01*
X141573694Y-138619333D01*
X141650000Y-138575277D01*
X141650000Y-139600000D01*
X142347828Y-139600000D01*
X142347844Y-139599999D01*
X142407372Y-139593598D01*
X142407379Y-139593596D01*
X142542086Y-139543354D01*
X142542093Y-139543350D01*
X142657187Y-139457190D01*
X142657190Y-139457187D01*
X142743350Y-139342093D01*
X142743355Y-139342084D01*
X142772075Y-139265081D01*
X142813945Y-139209147D01*
X142879409Y-139184729D01*
X142947682Y-139199580D01*
X142979484Y-139224428D01*
X142988216Y-139233913D01*
X142988219Y-139233915D01*
X142988222Y-139233918D01*
X143171365Y-139376464D01*
X143171371Y-139376468D01*
X143171374Y-139376470D01*
X143375497Y-139486936D01*
X143489487Y-139526068D01*
X143595015Y-139562297D01*
X143595017Y-139562297D01*
X143595019Y-139562298D01*
X143823951Y-139600500D01*
X143823952Y-139600500D01*
X144056048Y-139600500D01*
X144056049Y-139600500D01*
X144284981Y-139562298D01*
X144504503Y-139486936D01*
X144708626Y-139376470D01*
X144891784Y-139233913D01*
X145048979Y-139063153D01*
X145175924Y-138868849D01*
X145269157Y-138656300D01*
X145326134Y-138431305D01*
X145345300Y-138200000D01*
X145345300Y-138199993D01*
X145326135Y-137968702D01*
X145326133Y-137968691D01*
X145269157Y-137743699D01*
X145175924Y-137531151D01*
X145048983Y-137336852D01*
X145048980Y-137336849D01*
X145048979Y-137336847D01*
X144891784Y-137166087D01*
X144891779Y-137166083D01*
X144891777Y-137166081D01*
X144708634Y-137023535D01*
X144708628Y-137023531D01*
X144504504Y-136913064D01*
X144504495Y-136913061D01*
X144284984Y-136837702D01*
X144097404Y-136806401D01*
X144056049Y-136799500D01*
X143823951Y-136799500D01*
X143782596Y-136806401D01*
X143595015Y-136837702D01*
X143375504Y-136913061D01*
X143375495Y-136913064D01*
X143171371Y-137023531D01*
X143171365Y-137023535D01*
X142988222Y-137166081D01*
X142988215Y-137166087D01*
X142979484Y-137175572D01*
X142919595Y-137211561D01*
X142849757Y-137209458D01*
X142792143Y-137169932D01*
X142772075Y-137134918D01*
X142743355Y-137057915D01*
X142743350Y-137057906D01*
X142657190Y-136942812D01*
X142657187Y-136942809D01*
X142542093Y-136856649D01*
X142542086Y-136856645D01*
X142407379Y-136806403D01*
X142407372Y-136806401D01*
X142347844Y-136800000D01*
X141650000Y-136800000D01*
X141650000Y-137824722D01*
X141573694Y-137780667D01*
X141459244Y-137750000D01*
X141340756Y-137750000D01*
X141226306Y-137780667D01*
X141150000Y-137824722D01*
X141150000Y-136800000D01*
X140452155Y-136800000D01*
X140392627Y-136806401D01*
X140392620Y-136806403D01*
X140257913Y-136856645D01*
X140257906Y-136856649D01*
X140142812Y-136942809D01*
X140142809Y-136942812D01*
X140056649Y-137057906D01*
X140056645Y-137057913D01*
X140006403Y-137192620D01*
X140006401Y-137192627D01*
X140000000Y-137252155D01*
X136886322Y-137252155D01*
X136999657Y-137138820D01*
X137130134Y-136952482D01*
X137226265Y-136746326D01*
X137226269Y-136746317D01*
X137278872Y-136550000D01*
X136315686Y-136550000D01*
X136320080Y-136545606D01*
X136372741Y-136454394D01*
X136400000Y-136352661D01*
X136400000Y-136247339D01*
X136372741Y-136145606D01*
X136320080Y-136054394D01*
X136315686Y-136050000D01*
X137278872Y-136050000D01*
X137278872Y-136049999D01*
X137226269Y-135853682D01*
X137226265Y-135853673D01*
X137130134Y-135647517D01*
X136999657Y-135461179D01*
X136838820Y-135300342D01*
X136652482Y-135169865D01*
X136446328Y-135073734D01*
X136250000Y-135021127D01*
X136250000Y-135984314D01*
X136245606Y-135979920D01*
X136154394Y-135927259D01*
X136052661Y-135900000D01*
X135947339Y-135900000D01*
X135845606Y-135927259D01*
X135754394Y-135979920D01*
X135750000Y-135984314D01*
X135750000Y-135021127D01*
X135553671Y-135073734D01*
X135347517Y-135169865D01*
X135161179Y-135300342D01*
X135000342Y-135461179D01*
X134869865Y-135647517D01*
X134773734Y-135853673D01*
X134773730Y-135853682D01*
X134721127Y-136049999D01*
X127119389Y-136049999D01*
X127066739Y-135853504D01*
X126970568Y-135647266D01*
X126840047Y-135460861D01*
X126840045Y-135460858D01*
X126679141Y-135299954D01*
X126492734Y-135169432D01*
X126492732Y-135169431D01*
X126286497Y-135073261D01*
X126286488Y-135073258D01*
X126066697Y-135014366D01*
X126066693Y-135014365D01*
X126066692Y-135014365D01*
X126066691Y-135014364D01*
X126066686Y-135014364D01*
X125840002Y-134994532D01*
X125839998Y-134994532D01*
X125613313Y-135014364D01*
X125613302Y-135014366D01*
X125393511Y-135073258D01*
X125393502Y-135073261D01*
X125187267Y-135169431D01*
X125187265Y-135169432D01*
X125000858Y-135299954D01*
X124839954Y-135460858D01*
X124709432Y-135647265D01*
X124709431Y-135647267D01*
X124613261Y-135853502D01*
X124613258Y-135853511D01*
X124554366Y-136073302D01*
X124554364Y-136073313D01*
X124534532Y-136299998D01*
X121386028Y-136299998D01*
X121373618Y-136253682D01*
X121373613Y-136253668D01*
X121277485Y-136047521D01*
X121277481Y-136047513D01*
X121226374Y-135974526D01*
X120547349Y-136653551D01*
X120547349Y-136647339D01*
X120520090Y-136545606D01*
X120467429Y-136454394D01*
X120392955Y-136379920D01*
X120301743Y-136327259D01*
X120200010Y-136300000D01*
X120193794Y-136300000D01*
X120872821Y-135620974D01*
X120799827Y-135569863D01*
X120593680Y-135473735D01*
X120593666Y-135473730D01*
X120373959Y-135414860D01*
X120373948Y-135414858D01*
X120147351Y-135395034D01*
X120147347Y-135395034D01*
X119920749Y-135414858D01*
X119920738Y-135414860D01*
X119701031Y-135473730D01*
X119701022Y-135473734D01*
X119494865Y-135569866D01*
X119494861Y-135569868D01*
X119421875Y-135620973D01*
X119421875Y-135620974D01*
X120100902Y-136300000D01*
X120094688Y-136300000D01*
X119992955Y-136327259D01*
X119901743Y-136379920D01*
X119827269Y-136454394D01*
X119774608Y-136545606D01*
X119747349Y-136647339D01*
X119747349Y-136653552D01*
X119063148Y-135969351D01*
X119014154Y-135959505D01*
X118963971Y-135910889D01*
X118949330Y-135855366D01*
X118948249Y-135855423D01*
X118948203Y-135855429D01*
X118948202Y-135855426D01*
X118948025Y-135855436D01*
X118947848Y-135852135D01*
X118947848Y-135852128D01*
X118941440Y-135792517D01*
X118891145Y-135657669D01*
X118891144Y-135657668D01*
X118891142Y-135657664D01*
X118804896Y-135542455D01*
X118804893Y-135542452D01*
X118689684Y-135456206D01*
X118689677Y-135456202D01*
X118554831Y-135405908D01*
X118554832Y-135405908D01*
X118495232Y-135399501D01*
X118495230Y-135399500D01*
X118495222Y-135399500D01*
X118495213Y-135399500D01*
X116799478Y-135399500D01*
X116799472Y-135399501D01*
X116739865Y-135405908D01*
X116605020Y-135456202D01*
X116605013Y-135456206D01*
X116489804Y-135542452D01*
X116489801Y-135542455D01*
X116403555Y-135657664D01*
X116403551Y-135657671D01*
X116353257Y-135792517D01*
X116346850Y-135852116D01*
X116346850Y-135852123D01*
X116346849Y-135852135D01*
X109400500Y-135852135D01*
X109400499Y-134352128D01*
X109394091Y-134292517D01*
X109379027Y-134252129D01*
X109343797Y-134157671D01*
X109343793Y-134157664D01*
X109257547Y-134042455D01*
X109257544Y-134042452D01*
X109142335Y-133956206D01*
X109142328Y-133956202D01*
X109007482Y-133905908D01*
X109007483Y-133905908D01*
X108947883Y-133899501D01*
X108947881Y-133899500D01*
X108947873Y-133899500D01*
X108947864Y-133899500D01*
X106652129Y-133899500D01*
X106652123Y-133899501D01*
X106592516Y-133905908D01*
X106457671Y-133956202D01*
X106457664Y-133956206D01*
X106342455Y-134042452D01*
X106342452Y-134042455D01*
X106256206Y-134157664D01*
X106256202Y-134157671D01*
X106205908Y-134292517D01*
X106199501Y-134352116D01*
X106199501Y-134352123D01*
X106199500Y-134352135D01*
X101100499Y-134352135D01*
X101100499Y-134252128D01*
X101094091Y-134192517D01*
X101081094Y-134157671D01*
X101043797Y-134057671D01*
X101043793Y-134057664D01*
X100957547Y-133942455D01*
X100957544Y-133942452D01*
X100842335Y-133856206D01*
X100842328Y-133856202D01*
X100707482Y-133805908D01*
X100707483Y-133805908D01*
X100647883Y-133799501D01*
X100647881Y-133799500D01*
X100647873Y-133799500D01*
X100647864Y-133799500D01*
X98352129Y-133799500D01*
X98352123Y-133799501D01*
X98292516Y-133805908D01*
X98157671Y-133856202D01*
X98157664Y-133856206D01*
X98042455Y-133942452D01*
X98042452Y-133942455D01*
X97956206Y-134057664D01*
X97956202Y-134057671D01*
X97905908Y-134192517D01*
X97899501Y-134252116D01*
X97899501Y-134252123D01*
X97899500Y-134252135D01*
X82500500Y-134252135D01*
X82500500Y-133752135D01*
X150999500Y-133752135D01*
X150999500Y-136447870D01*
X150999501Y-136447876D01*
X151005908Y-136507483D01*
X151056202Y-136642328D01*
X151056206Y-136642335D01*
X151142452Y-136757544D01*
X151142455Y-136757547D01*
X151257664Y-136843793D01*
X151257671Y-136843797D01*
X151392517Y-136894091D01*
X151392516Y-136894091D01*
X151399444Y-136894835D01*
X151452127Y-136900500D01*
X154147872Y-136900499D01*
X154207483Y-136894091D01*
X154342331Y-136843796D01*
X154457546Y-136757546D01*
X154543796Y-136642331D01*
X154594091Y-136507483D01*
X154600500Y-136447873D01*
X154600499Y-133752128D01*
X154594091Y-133692517D01*
X154543796Y-133557669D01*
X154543795Y-133557668D01*
X154543793Y-133557664D01*
X154457547Y-133442455D01*
X154457544Y-133442452D01*
X154342335Y-133356206D01*
X154342328Y-133356202D01*
X154207482Y-133305908D01*
X154207483Y-133305908D01*
X154147883Y-133299501D01*
X154147881Y-133299500D01*
X154147873Y-133299500D01*
X154147864Y-133299500D01*
X151452129Y-133299500D01*
X151452123Y-133299501D01*
X151392516Y-133305908D01*
X151257671Y-133356202D01*
X151257664Y-133356206D01*
X151142455Y-133442452D01*
X151142452Y-133442455D01*
X151056206Y-133557664D01*
X151056202Y-133557671D01*
X151005908Y-133692517D01*
X150999501Y-133752116D01*
X150999501Y-133752123D01*
X150999500Y-133752135D01*
X82500500Y-133752135D01*
X82500500Y-130999995D01*
X87794451Y-130999995D01*
X87794451Y-131000004D01*
X87814616Y-131269101D01*
X87874664Y-131532188D01*
X87874666Y-131532195D01*
X87926088Y-131663216D01*
X87973257Y-131783398D01*
X88108185Y-132017102D01*
X88244080Y-132187509D01*
X88276442Y-132228089D01*
X88438910Y-132378836D01*
X88474259Y-132411635D01*
X88697226Y-132563651D01*
X88940359Y-132680738D01*
X89198228Y-132760280D01*
X89198229Y-132760280D01*
X89198232Y-132760281D01*
X89465063Y-132800499D01*
X89465068Y-132800499D01*
X89465071Y-132800500D01*
X89465072Y-132800500D01*
X89734928Y-132800500D01*
X89734929Y-132800500D01*
X89734936Y-132800499D01*
X90001767Y-132760281D01*
X90001768Y-132760280D01*
X90001772Y-132760280D01*
X90259641Y-132680738D01*
X90502775Y-132563651D01*
X90725741Y-132411635D01*
X90923561Y-132228085D01*
X91091815Y-132017102D01*
X91226743Y-131783398D01*
X91325334Y-131532195D01*
X91385383Y-131269103D01*
X91394773Y-131143796D01*
X91399554Y-131080000D01*
X97694551Y-131080000D01*
X97714317Y-131331151D01*
X97773126Y-131576110D01*
X97869533Y-131808859D01*
X98001160Y-132023653D01*
X98001161Y-132023656D01*
X98001164Y-132023659D01*
X98164776Y-132215224D01*
X98313066Y-132341875D01*
X98356343Y-132378838D01*
X98356346Y-132378839D01*
X98571140Y-132510466D01*
X98699551Y-132563655D01*
X98803889Y-132606873D01*
X99048852Y-132665683D01*
X99300000Y-132685449D01*
X99551148Y-132665683D01*
X99796111Y-132606873D01*
X100028859Y-132510466D01*
X100243659Y-132378836D01*
X100435224Y-132215224D01*
X100598836Y-132023659D01*
X100730466Y-131808859D01*
X100792125Y-131660000D01*
X105994551Y-131660000D01*
X106014317Y-131911151D01*
X106073126Y-132156110D01*
X106169533Y-132388859D01*
X106301160Y-132603653D01*
X106301161Y-132603656D01*
X106356604Y-132668571D01*
X106464776Y-132795224D01*
X106613066Y-132921875D01*
X106656343Y-132958838D01*
X106656346Y-132958839D01*
X106871140Y-133090466D01*
X107103889Y-133186873D01*
X107348852Y-133245683D01*
X107600000Y-133265449D01*
X107851148Y-133245683D01*
X108096111Y-133186873D01*
X108328859Y-133090466D01*
X108543659Y-132958836D01*
X108735224Y-132795224D01*
X108898836Y-132603659D01*
X109030466Y-132388859D01*
X109126873Y-132156111D01*
X109185683Y-131911148D01*
X109205449Y-131660000D01*
X109185683Y-131408852D01*
X109126873Y-131163889D01*
X109082825Y-131057547D01*
X109030466Y-130931140D01*
X108898839Y-130716346D01*
X108898838Y-130716343D01*
X108754847Y-130547752D01*
X108735224Y-130524776D01*
X108552867Y-130369028D01*
X108543656Y-130361161D01*
X108543653Y-130361160D01*
X108328859Y-130229533D01*
X108096110Y-130133126D01*
X107851151Y-130074317D01*
X107600000Y-130054551D01*
X107348848Y-130074317D01*
X107103889Y-130133126D01*
X106871140Y-130229533D01*
X106656346Y-130361160D01*
X106656343Y-130361161D01*
X106464776Y-130524776D01*
X106301161Y-130716343D01*
X106301160Y-130716346D01*
X106169533Y-130931140D01*
X106073126Y-131163889D01*
X106014317Y-131408848D01*
X105994551Y-131660000D01*
X100792125Y-131660000D01*
X100826873Y-131576111D01*
X100885683Y-131331148D01*
X100905449Y-131080000D01*
X100885683Y-130828852D01*
X100826873Y-130583889D01*
X100811905Y-130547752D01*
X100730466Y-130351140D01*
X100598839Y-130136346D01*
X100598838Y-130136343D01*
X100545862Y-130074317D01*
X100435224Y-129944776D01*
X100301978Y-129830973D01*
X100243656Y-129781161D01*
X100243653Y-129781160D01*
X100028859Y-129649533D01*
X99796110Y-129553126D01*
X99551151Y-129494317D01*
X99300000Y-129474551D01*
X99048848Y-129494317D01*
X98803889Y-129553126D01*
X98571140Y-129649533D01*
X98356346Y-129781160D01*
X98356343Y-129781161D01*
X98164776Y-129944776D01*
X98001161Y-130136343D01*
X98001160Y-130136346D01*
X97869533Y-130351140D01*
X97773126Y-130583889D01*
X97714317Y-130828848D01*
X97694551Y-131080000D01*
X91399554Y-131080000D01*
X91405549Y-131000004D01*
X91405549Y-130999995D01*
X91388744Y-130775747D01*
X91385383Y-130730897D01*
X91325334Y-130467805D01*
X91226743Y-130216602D01*
X91091815Y-129982898D01*
X90923561Y-129771915D01*
X90923560Y-129771914D01*
X90923557Y-129771910D01*
X90725741Y-129588365D01*
X90674055Y-129553126D01*
X90502775Y-129436349D01*
X90502769Y-129436346D01*
X90502768Y-129436345D01*
X90502767Y-129436344D01*
X90259643Y-129319263D01*
X90259645Y-129319263D01*
X90001773Y-129239720D01*
X90001767Y-129239718D01*
X89734936Y-129199500D01*
X89734929Y-129199500D01*
X89465071Y-129199500D01*
X89465063Y-129199500D01*
X89198232Y-129239718D01*
X89198226Y-129239720D01*
X88940358Y-129319262D01*
X88697230Y-129436346D01*
X88474258Y-129588365D01*
X88276442Y-129771910D01*
X88108185Y-129982898D01*
X87973258Y-130216599D01*
X87973256Y-130216603D01*
X87874666Y-130467804D01*
X87874664Y-130467811D01*
X87814616Y-130730898D01*
X87794451Y-130999995D01*
X82500500Y-130999995D01*
X82500500Y-127852135D01*
X125549500Y-127852135D01*
X125549500Y-130747870D01*
X125549501Y-130747876D01*
X125555908Y-130807483D01*
X125606202Y-130942328D01*
X125606206Y-130942335D01*
X125692452Y-131057544D01*
X125692455Y-131057547D01*
X125807664Y-131143793D01*
X125807671Y-131143797D01*
X125942517Y-131194091D01*
X125942516Y-131194091D01*
X125949444Y-131194835D01*
X126002127Y-131200500D01*
X128897872Y-131200499D01*
X128957483Y-131194091D01*
X129092331Y-131143796D01*
X129207546Y-131057546D01*
X129293796Y-130942331D01*
X129344091Y-130807483D01*
X129350500Y-130747873D01*
X129350499Y-129299998D01*
X138244645Y-129299998D01*
X138244645Y-129300001D01*
X138264039Y-129571160D01*
X138264040Y-129571167D01*
X138307709Y-129771910D01*
X138321825Y-129836801D01*
X138349277Y-129910402D01*
X138416830Y-130091519D01*
X138547109Y-130330107D01*
X138547110Y-130330108D01*
X138547113Y-130330113D01*
X138710029Y-130547742D01*
X138710033Y-130547746D01*
X138710038Y-130547752D01*
X138902247Y-130739961D01*
X138902253Y-130739966D01*
X138902258Y-130739971D01*
X139119887Y-130902887D01*
X139119891Y-130902889D01*
X139119892Y-130902890D01*
X139358481Y-131033169D01*
X139358480Y-131033169D01*
X139358484Y-131033170D01*
X139358487Y-131033172D01*
X139613199Y-131128175D01*
X139878840Y-131185961D01*
X140130605Y-131203967D01*
X140149999Y-131205355D01*
X140150000Y-131205355D01*
X140150001Y-131205355D01*
X140168100Y-131204060D01*
X140421160Y-131185961D01*
X140686801Y-131128175D01*
X140941513Y-131033172D01*
X140941517Y-131033169D01*
X140941519Y-131033169D01*
X141128371Y-130931140D01*
X141180113Y-130902887D01*
X141397742Y-130739971D01*
X141589971Y-130547742D01*
X141752887Y-130330113D01*
X141843581Y-130164019D01*
X141878541Y-130099995D01*
X150994953Y-130099995D01*
X150994953Y-130100004D01*
X151015113Y-130369026D01*
X151015113Y-130369028D01*
X151075142Y-130632033D01*
X151075148Y-130632052D01*
X151173709Y-130883181D01*
X151173708Y-130883181D01*
X151308600Y-131116818D01*
X151362294Y-131184150D01*
X152198957Y-130347486D01*
X152223978Y-130407890D01*
X152295112Y-130514351D01*
X152385649Y-130604888D01*
X152492110Y-130676022D01*
X152552511Y-130701041D01*
X151714848Y-131538703D01*
X151897476Y-131663216D01*
X151897485Y-131663221D01*
X152140539Y-131780269D01*
X152140537Y-131780269D01*
X152398337Y-131859790D01*
X152398343Y-131859792D01*
X152665101Y-131899999D01*
X152665110Y-131900000D01*
X152934890Y-131900000D01*
X152934898Y-131899999D01*
X153201656Y-131859792D01*
X153201662Y-131859790D01*
X153459461Y-131780269D01*
X153702516Y-131663221D01*
X153702517Y-131663220D01*
X153885150Y-131538703D01*
X153047487Y-130701041D01*
X153107890Y-130676022D01*
X153214351Y-130604888D01*
X153304888Y-130514351D01*
X153376022Y-130407890D01*
X153401041Y-130347487D01*
X154237703Y-131184150D01*
X154237704Y-131184149D01*
X154291400Y-131116818D01*
X154426290Y-130883181D01*
X154524851Y-130632052D01*
X154524857Y-130632033D01*
X154584886Y-130369028D01*
X154584886Y-130369026D01*
X154605047Y-130100004D01*
X154605047Y-130099995D01*
X154584886Y-129830973D01*
X154584886Y-129830971D01*
X154524857Y-129567966D01*
X154524851Y-129567947D01*
X154426290Y-129316818D01*
X154426291Y-129316818D01*
X154291400Y-129083182D01*
X154291393Y-129083171D01*
X154237704Y-129015849D01*
X154237703Y-129015848D01*
X153401041Y-129852511D01*
X153376022Y-129792110D01*
X153304888Y-129685649D01*
X153214351Y-129595112D01*
X153107890Y-129523978D01*
X153047488Y-129498958D01*
X153885150Y-128661295D01*
X153702524Y-128536783D01*
X153702516Y-128536778D01*
X153459460Y-128419730D01*
X153459462Y-128419730D01*
X153201662Y-128340209D01*
X153201656Y-128340207D01*
X152934898Y-128300000D01*
X152665101Y-128300000D01*
X152398343Y-128340207D01*
X152398337Y-128340209D01*
X152140538Y-128419730D01*
X151897482Y-128536780D01*
X151897469Y-128536787D01*
X151714848Y-128661294D01*
X152552512Y-129498958D01*
X152492110Y-129523978D01*
X152385649Y-129595112D01*
X152295112Y-129685649D01*
X152223978Y-129792110D01*
X152198958Y-129852512D01*
X151362294Y-129015848D01*
X151308602Y-129083177D01*
X151173709Y-129316818D01*
X151075148Y-129567947D01*
X151075142Y-129567966D01*
X151015113Y-129830971D01*
X151015113Y-129830973D01*
X150994953Y-130099995D01*
X141878541Y-130099995D01*
X141883169Y-130091519D01*
X141883169Y-130091517D01*
X141883172Y-130091513D01*
X141978175Y-129836801D01*
X142035961Y-129571160D01*
X142055355Y-129300000D01*
X142035961Y-129028840D01*
X141978175Y-128763199D01*
X141883172Y-128508487D01*
X141883170Y-128508484D01*
X141883169Y-128508480D01*
X141752890Y-128269892D01*
X141752889Y-128269891D01*
X141752887Y-128269887D01*
X141589971Y-128052258D01*
X141589966Y-128052253D01*
X141589961Y-128052247D01*
X141397752Y-127860038D01*
X141397746Y-127860033D01*
X141397742Y-127860029D01*
X141180113Y-127697113D01*
X141180108Y-127697110D01*
X141180107Y-127697109D01*
X140941518Y-127566830D01*
X140941519Y-127566830D01*
X140891920Y-127548330D01*
X140686801Y-127471825D01*
X140686794Y-127471823D01*
X140686793Y-127471823D01*
X140421167Y-127414040D01*
X140421160Y-127414039D01*
X140150001Y-127394645D01*
X140149999Y-127394645D01*
X139878839Y-127414039D01*
X139878832Y-127414040D01*
X139613206Y-127471823D01*
X139613202Y-127471824D01*
X139613199Y-127471825D01*
X139485843Y-127519326D01*
X139358480Y-127566830D01*
X139119892Y-127697109D01*
X139119891Y-127697110D01*
X138902259Y-127860028D01*
X138902247Y-127860038D01*
X138710038Y-128052247D01*
X138710028Y-128052259D01*
X138547110Y-128269891D01*
X138547109Y-128269892D01*
X138416830Y-128508480D01*
X138369326Y-128635843D01*
X138321825Y-128763199D01*
X138321824Y-128763202D01*
X138321823Y-128763206D01*
X138264040Y-129028832D01*
X138264039Y-129028839D01*
X138244645Y-129299998D01*
X129350499Y-129299998D01*
X129350499Y-127852128D01*
X129344091Y-127792517D01*
X129325919Y-127743796D01*
X129293797Y-127657671D01*
X129293793Y-127657664D01*
X129207547Y-127542455D01*
X129207544Y-127542452D01*
X129092335Y-127456206D01*
X129092328Y-127456202D01*
X128957482Y-127405908D01*
X128957483Y-127405908D01*
X128897883Y-127399501D01*
X128897881Y-127399500D01*
X128897873Y-127399500D01*
X128897864Y-127399500D01*
X126002129Y-127399500D01*
X126002123Y-127399501D01*
X125942516Y-127405908D01*
X125807671Y-127456202D01*
X125807664Y-127456206D01*
X125692455Y-127542452D01*
X125692452Y-127542455D01*
X125606206Y-127657664D01*
X125606202Y-127657671D01*
X125555908Y-127792517D01*
X125549501Y-127852116D01*
X125549501Y-127852123D01*
X125549500Y-127852135D01*
X82500500Y-127852135D01*
X82500500Y-124652135D01*
X87799500Y-124652135D01*
X87799500Y-127347870D01*
X87799501Y-127347876D01*
X87805908Y-127407483D01*
X87856202Y-127542328D01*
X87856206Y-127542335D01*
X87942452Y-127657544D01*
X87942455Y-127657547D01*
X88057664Y-127743793D01*
X88057671Y-127743797D01*
X88192517Y-127794091D01*
X88192516Y-127794091D01*
X88199444Y-127794835D01*
X88252127Y-127800500D01*
X90947872Y-127800499D01*
X91007483Y-127794091D01*
X91142331Y-127743796D01*
X91257546Y-127657546D01*
X91343796Y-127542331D01*
X91394091Y-127407483D01*
X91400500Y-127347873D01*
X91400499Y-124652128D01*
X91394091Y-124592517D01*
X91343796Y-124457669D01*
X91343795Y-124457668D01*
X91343793Y-124457664D01*
X91257547Y-124342455D01*
X91257544Y-124342452D01*
X91142335Y-124256206D01*
X91142328Y-124256202D01*
X91007482Y-124205908D01*
X91007483Y-124205908D01*
X90947883Y-124199501D01*
X90947881Y-124199500D01*
X90947873Y-124199500D01*
X90947864Y-124199500D01*
X88252129Y-124199500D01*
X88252123Y-124199501D01*
X88192516Y-124205908D01*
X88057671Y-124256202D01*
X88057664Y-124256206D01*
X87942455Y-124342452D01*
X87942452Y-124342455D01*
X87856206Y-124457664D01*
X87856202Y-124457671D01*
X87805908Y-124592517D01*
X87799501Y-124652116D01*
X87799501Y-124652123D01*
X87799500Y-124652135D01*
X82500500Y-124652135D01*
X82500500Y-121179998D01*
X86894532Y-121179998D01*
X86894532Y-121180001D01*
X86914364Y-121406686D01*
X86914366Y-121406697D01*
X86973258Y-121626488D01*
X86973261Y-121626497D01*
X87069431Y-121832732D01*
X87069432Y-121832734D01*
X87199954Y-122019141D01*
X87360858Y-122180045D01*
X87360861Y-122180047D01*
X87547266Y-122310568D01*
X87753504Y-122406739D01*
X87973308Y-122465635D01*
X88135230Y-122479801D01*
X88199998Y-122485468D01*
X88200000Y-122485468D01*
X88200002Y-122485468D01*
X88256673Y-122480509D01*
X88426692Y-122465635D01*
X88646496Y-122406739D01*
X88852734Y-122310568D01*
X89039139Y-122180047D01*
X89200047Y-122019139D01*
X89330568Y-121832734D01*
X89426739Y-121626496D01*
X89485635Y-121406692D01*
X89503284Y-121204966D01*
X89505468Y-121180001D01*
X89505468Y-121179998D01*
X89494755Y-121057547D01*
X89485635Y-120953308D01*
X89426739Y-120733504D01*
X89330568Y-120527266D01*
X89207936Y-120352128D01*
X89200045Y-120340858D01*
X89039141Y-120179954D01*
X88852734Y-120049432D01*
X88852732Y-120049431D01*
X88646497Y-119953261D01*
X88646488Y-119953258D01*
X88426697Y-119894366D01*
X88426693Y-119894365D01*
X88426692Y-119894365D01*
X88426691Y-119894364D01*
X88426686Y-119894364D01*
X88200002Y-119874532D01*
X88199998Y-119874532D01*
X87973313Y-119894364D01*
X87973302Y-119894366D01*
X87753511Y-119953258D01*
X87753502Y-119953261D01*
X87547267Y-120049431D01*
X87547265Y-120049432D01*
X87360858Y-120179954D01*
X87199954Y-120340858D01*
X87069432Y-120527265D01*
X87069431Y-120527267D01*
X86973261Y-120733502D01*
X86973258Y-120733511D01*
X86914366Y-120953302D01*
X86914364Y-120953313D01*
X86894532Y-121179998D01*
X82500500Y-121179998D01*
X82500500Y-119772135D01*
X97699500Y-119772135D01*
X97699500Y-122067870D01*
X97699501Y-122067876D01*
X97705908Y-122127483D01*
X97756202Y-122262328D01*
X97756206Y-122262335D01*
X97842452Y-122377544D01*
X97842455Y-122377547D01*
X97957664Y-122463793D01*
X97957671Y-122463797D01*
X98092517Y-122514091D01*
X98092516Y-122514091D01*
X98099444Y-122514835D01*
X98152127Y-122520500D01*
X99434217Y-122520499D01*
X99501256Y-122540184D01*
X99521897Y-122556817D01*
X100902860Y-123937781D01*
X100902861Y-123937782D01*
X101042218Y-124077139D01*
X101042219Y-124077140D01*
X101206079Y-124186628D01*
X101206092Y-124186635D01*
X101334833Y-124239961D01*
X101374043Y-124256202D01*
X101388164Y-124262051D01*
X101484812Y-124281275D01*
X101533135Y-124290887D01*
X101581458Y-124300500D01*
X101581459Y-124300500D01*
X125198542Y-124300500D01*
X125217870Y-124296655D01*
X125295188Y-124281275D01*
X125391836Y-124262051D01*
X125445165Y-124239961D01*
X125573914Y-124186632D01*
X125737782Y-124077139D01*
X125877139Y-123937782D01*
X125877141Y-123937778D01*
X125978103Y-123836815D01*
X126039425Y-123803333D01*
X126065782Y-123800499D01*
X127947871Y-123800499D01*
X127947872Y-123800499D01*
X128007483Y-123794091D01*
X128142331Y-123743796D01*
X128257546Y-123657546D01*
X128343796Y-123542331D01*
X128394091Y-123407483D01*
X128400500Y-123347873D01*
X128400499Y-121899998D01*
X137294645Y-121899998D01*
X137294645Y-121900001D01*
X137314039Y-122171160D01*
X137314040Y-122171167D01*
X137358935Y-122377546D01*
X137371825Y-122436801D01*
X137448330Y-122641920D01*
X137466830Y-122691519D01*
X137597109Y-122930107D01*
X137597110Y-122930108D01*
X137597113Y-122930113D01*
X137760029Y-123147742D01*
X137760033Y-123147746D01*
X137760038Y-123147752D01*
X137952247Y-123339961D01*
X137952253Y-123339966D01*
X137952258Y-123339971D01*
X138169887Y-123502887D01*
X138169891Y-123502889D01*
X138169892Y-123502890D01*
X138408481Y-123633169D01*
X138408480Y-123633169D01*
X138408484Y-123633170D01*
X138408487Y-123633172D01*
X138663199Y-123728175D01*
X138928840Y-123785961D01*
X139180605Y-123803967D01*
X139199999Y-123805355D01*
X139200000Y-123805355D01*
X139200001Y-123805355D01*
X139218100Y-123804060D01*
X139471160Y-123785961D01*
X139736801Y-123728175D01*
X139991513Y-123633172D01*
X139991517Y-123633169D01*
X139991519Y-123633169D01*
X140157882Y-123542328D01*
X140230113Y-123502887D01*
X140447742Y-123339971D01*
X140639971Y-123147742D01*
X140802887Y-122930113D01*
X140933172Y-122691513D01*
X141028175Y-122436801D01*
X141085961Y-122171160D01*
X141105355Y-121900000D01*
X141085961Y-121628840D01*
X141028175Y-121363199D01*
X140933172Y-121108487D01*
X140933170Y-121108484D01*
X140933169Y-121108480D01*
X140802890Y-120869892D01*
X140802889Y-120869891D01*
X140802887Y-120869887D01*
X140639971Y-120652258D01*
X140639966Y-120652253D01*
X140639961Y-120652247D01*
X140447752Y-120460038D01*
X140447746Y-120460033D01*
X140447742Y-120460029D01*
X140230113Y-120297113D01*
X140230108Y-120297110D01*
X140230107Y-120297109D01*
X139991518Y-120166830D01*
X139991519Y-120166830D01*
X139934615Y-120145606D01*
X139736801Y-120071825D01*
X139736794Y-120071823D01*
X139736793Y-120071823D01*
X139471167Y-120014040D01*
X139471160Y-120014039D01*
X139200001Y-119994645D01*
X139199999Y-119994645D01*
X138928839Y-120014039D01*
X138928832Y-120014040D01*
X138663206Y-120071823D01*
X138663202Y-120071824D01*
X138663199Y-120071825D01*
X138535843Y-120119326D01*
X138408480Y-120166830D01*
X138169892Y-120297109D01*
X138169891Y-120297110D01*
X137952259Y-120460028D01*
X137952247Y-120460038D01*
X137760038Y-120652247D01*
X137760028Y-120652259D01*
X137597110Y-120869891D01*
X137597109Y-120869892D01*
X137466830Y-121108480D01*
X137432509Y-121200499D01*
X137371825Y-121363199D01*
X137371824Y-121363202D01*
X137371823Y-121363206D01*
X137314040Y-121628832D01*
X137314039Y-121628839D01*
X137294645Y-121899998D01*
X128400499Y-121899998D01*
X128400499Y-120452128D01*
X128394091Y-120392517D01*
X128379027Y-120352129D01*
X128343797Y-120257671D01*
X128343793Y-120257664D01*
X128257547Y-120142455D01*
X128257544Y-120142452D01*
X128142335Y-120056206D01*
X128142328Y-120056202D01*
X128007482Y-120005908D01*
X128007483Y-120005908D01*
X127947883Y-119999501D01*
X127947881Y-119999500D01*
X127947873Y-119999500D01*
X127947864Y-119999500D01*
X125052129Y-119999500D01*
X125052123Y-119999501D01*
X124992516Y-120005908D01*
X124857671Y-120056202D01*
X124857664Y-120056206D01*
X124742455Y-120142452D01*
X124742452Y-120142455D01*
X124656206Y-120257664D01*
X124656202Y-120257671D01*
X124605908Y-120392517D01*
X124602200Y-120427011D01*
X124599500Y-120452127D01*
X124599500Y-121363206D01*
X124599501Y-122175500D01*
X124579816Y-122242539D01*
X124527013Y-122288294D01*
X124475501Y-122299500D01*
X121873619Y-122299500D01*
X121806580Y-122279815D01*
X121760825Y-122227011D01*
X121750881Y-122157853D01*
X121753844Y-122143407D01*
X121785139Y-122026609D01*
X121785141Y-122026599D01*
X121804966Y-121800000D01*
X121804966Y-121799997D01*
X121785141Y-121573400D01*
X121785139Y-121573389D01*
X121726269Y-121353682D01*
X121726264Y-121353668D01*
X121630136Y-121147521D01*
X121630132Y-121147513D01*
X121579025Y-121074526D01*
X120900000Y-121753551D01*
X120900000Y-121747339D01*
X120872741Y-121645606D01*
X120820080Y-121554394D01*
X120745606Y-121479920D01*
X120654394Y-121427259D01*
X120552661Y-121400000D01*
X120546445Y-121400000D01*
X121225472Y-120720974D01*
X121152478Y-120669863D01*
X120946331Y-120573735D01*
X120946317Y-120573730D01*
X120726610Y-120514860D01*
X120726599Y-120514858D01*
X120500002Y-120495034D01*
X120499998Y-120495034D01*
X120273400Y-120514858D01*
X120273389Y-120514860D01*
X120053682Y-120573730D01*
X120053673Y-120573734D01*
X119847516Y-120669866D01*
X119847512Y-120669868D01*
X119774526Y-120720973D01*
X119774526Y-120720974D01*
X120453553Y-121400000D01*
X120447339Y-121400000D01*
X120345606Y-121427259D01*
X120254394Y-121479920D01*
X120179920Y-121554394D01*
X120127259Y-121645606D01*
X120100000Y-121747339D01*
X120100000Y-121753552D01*
X119420974Y-121074526D01*
X119420973Y-121074526D01*
X119369868Y-121147512D01*
X119369866Y-121147516D01*
X119273734Y-121353673D01*
X119273730Y-121353682D01*
X119214860Y-121573389D01*
X119214858Y-121573400D01*
X119195034Y-121799997D01*
X119195034Y-121800000D01*
X119214858Y-122026599D01*
X119214860Y-122026609D01*
X119246156Y-122143407D01*
X119244493Y-122213256D01*
X119205331Y-122271119D01*
X119141102Y-122298623D01*
X119126381Y-122299500D01*
X116874137Y-122299500D01*
X116807098Y-122279815D01*
X116761343Y-122227011D01*
X116751399Y-122157853D01*
X116754362Y-122143407D01*
X116780567Y-122045606D01*
X116785635Y-122026692D01*
X116805468Y-121800000D01*
X116785635Y-121573308D01*
X116726739Y-121353504D01*
X116630568Y-121147266D01*
X116532839Y-121007693D01*
X116500045Y-120960858D01*
X116339141Y-120799954D01*
X116152734Y-120669432D01*
X116152732Y-120669431D01*
X115946497Y-120573261D01*
X115946488Y-120573258D01*
X115726697Y-120514366D01*
X115726693Y-120514365D01*
X115726692Y-120514365D01*
X115726691Y-120514364D01*
X115726686Y-120514364D01*
X115500002Y-120494532D01*
X115499999Y-120494532D01*
X115360370Y-120506747D01*
X115325374Y-120504837D01*
X115298541Y-120499500D01*
X115298540Y-120499500D01*
X109324499Y-120499500D01*
X109257460Y-120479815D01*
X109211705Y-120427011D01*
X109200499Y-120375500D01*
X109200499Y-120352129D01*
X109200498Y-120352123D01*
X109200497Y-120352116D01*
X109194091Y-120292517D01*
X109181094Y-120257671D01*
X109143797Y-120157671D01*
X109143793Y-120157664D01*
X109057547Y-120042455D01*
X109057544Y-120042452D01*
X108942335Y-119956206D01*
X108942328Y-119956202D01*
X108807482Y-119905908D01*
X108807483Y-119905908D01*
X108747883Y-119899501D01*
X108747881Y-119899500D01*
X108747873Y-119899500D01*
X108747864Y-119899500D01*
X106452129Y-119899500D01*
X106452123Y-119899501D01*
X106392516Y-119905908D01*
X106257671Y-119956202D01*
X106257664Y-119956206D01*
X106142455Y-120042452D01*
X106142452Y-120042455D01*
X106056206Y-120157664D01*
X106056202Y-120157671D01*
X106005908Y-120292517D01*
X106000123Y-120346331D01*
X105999501Y-120352123D01*
X105999500Y-120352135D01*
X105999501Y-122175500D01*
X105979816Y-122242539D01*
X105927013Y-122288294D01*
X105875501Y-122299500D01*
X102145783Y-122299500D01*
X102078744Y-122279815D01*
X102058102Y-122263181D01*
X100936818Y-121141897D01*
X100903333Y-121080574D01*
X100900499Y-121054216D01*
X100900499Y-119772129D01*
X100900498Y-119772123D01*
X100900497Y-119772116D01*
X100894091Y-119712517D01*
X100879501Y-119673400D01*
X100843797Y-119577671D01*
X100843793Y-119577664D01*
X100757547Y-119462455D01*
X100757544Y-119462452D01*
X100642335Y-119376206D01*
X100642328Y-119376202D01*
X100507482Y-119325908D01*
X100507483Y-119325908D01*
X100447883Y-119319501D01*
X100447881Y-119319500D01*
X100447873Y-119319500D01*
X100447864Y-119319500D01*
X98152129Y-119319500D01*
X98152123Y-119319501D01*
X98092516Y-119325908D01*
X97957671Y-119376202D01*
X97957664Y-119376206D01*
X97842455Y-119462452D01*
X97842452Y-119462455D01*
X97756206Y-119577664D01*
X97756202Y-119577671D01*
X97705908Y-119712517D01*
X97702351Y-119745606D01*
X97699501Y-119772123D01*
X97699500Y-119772135D01*
X82500500Y-119772135D01*
X82500500Y-119052135D01*
X143546849Y-119052135D01*
X143546849Y-120747870D01*
X143546850Y-120747876D01*
X143553257Y-120807483D01*
X143603551Y-120942328D01*
X143603555Y-120942335D01*
X143689801Y-121057544D01*
X143689804Y-121057547D01*
X143805013Y-121143793D01*
X143805020Y-121143797D01*
X143939866Y-121194091D01*
X143939865Y-121194091D01*
X143946793Y-121194835D01*
X143999476Y-121200500D01*
X145695221Y-121200499D01*
X145754832Y-121194091D01*
X145889680Y-121143796D01*
X146004895Y-121057546D01*
X146091145Y-120942331D01*
X146141440Y-120807483D01*
X146147849Y-120747873D01*
X146147848Y-119899997D01*
X147042383Y-119899997D01*
X147042383Y-119900002D01*
X147062207Y-120126599D01*
X147062209Y-120126610D01*
X147121079Y-120346317D01*
X147121084Y-120346331D01*
X147217212Y-120552478D01*
X147268323Y-120625472D01*
X147947349Y-119946446D01*
X147947349Y-119952661D01*
X147974608Y-120054394D01*
X148027269Y-120145606D01*
X148101743Y-120220080D01*
X148192955Y-120272741D01*
X148294688Y-120300000D01*
X148300902Y-120300000D01*
X147621875Y-120979025D01*
X147694862Y-121030132D01*
X147694870Y-121030136D01*
X147901017Y-121126264D01*
X147901031Y-121126269D01*
X148120738Y-121185139D01*
X148120749Y-121185141D01*
X148347347Y-121204966D01*
X148347351Y-121204966D01*
X148573948Y-121185141D01*
X148573959Y-121185139D01*
X148793666Y-121126269D01*
X148793680Y-121126264D01*
X148999827Y-121030136D01*
X149072820Y-120979024D01*
X148393796Y-120300000D01*
X148400010Y-120300000D01*
X148501743Y-120272741D01*
X148592955Y-120220080D01*
X148667429Y-120145606D01*
X148720090Y-120054394D01*
X148747349Y-119952661D01*
X148747349Y-119946447D01*
X149426373Y-120625471D01*
X149477485Y-120552478D01*
X149573613Y-120346331D01*
X149573618Y-120346317D01*
X149632488Y-120126610D01*
X149632490Y-120126599D01*
X149652315Y-119900002D01*
X149652315Y-119899997D01*
X149632490Y-119673400D01*
X149632488Y-119673389D01*
X149573618Y-119453682D01*
X149573613Y-119453668D01*
X149477485Y-119247521D01*
X149477481Y-119247513D01*
X149426374Y-119174526D01*
X148747349Y-119853551D01*
X148747349Y-119847339D01*
X148720090Y-119745606D01*
X148667429Y-119654394D01*
X148592955Y-119579920D01*
X148501743Y-119527259D01*
X148400010Y-119500000D01*
X148393794Y-119500000D01*
X149072821Y-118820974D01*
X148999827Y-118769863D01*
X148793680Y-118673735D01*
X148793666Y-118673730D01*
X148573959Y-118614860D01*
X148573948Y-118614858D01*
X148347351Y-118595034D01*
X148347347Y-118595034D01*
X148120749Y-118614858D01*
X148120738Y-118614860D01*
X147901031Y-118673730D01*
X147901022Y-118673734D01*
X147694865Y-118769866D01*
X147694861Y-118769868D01*
X147621875Y-118820973D01*
X147621875Y-118820974D01*
X148300902Y-119500000D01*
X148294688Y-119500000D01*
X148192955Y-119527259D01*
X148101743Y-119579920D01*
X148027269Y-119654394D01*
X147974608Y-119745606D01*
X147947349Y-119847339D01*
X147947349Y-119853552D01*
X147268323Y-119174526D01*
X147268322Y-119174526D01*
X147217217Y-119247512D01*
X147217215Y-119247516D01*
X147121083Y-119453673D01*
X147121079Y-119453682D01*
X147062209Y-119673389D01*
X147062207Y-119673400D01*
X147042383Y-119899997D01*
X146147848Y-119899997D01*
X146147848Y-119052128D01*
X146141440Y-118992517D01*
X146091145Y-118857669D01*
X146091144Y-118857668D01*
X146091142Y-118857664D01*
X146004896Y-118742455D01*
X146004893Y-118742452D01*
X145889684Y-118656206D01*
X145889677Y-118656202D01*
X145754831Y-118605908D01*
X145754832Y-118605908D01*
X145695232Y-118599501D01*
X145695230Y-118599500D01*
X145695222Y-118599500D01*
X145695213Y-118599500D01*
X143999478Y-118599500D01*
X143999472Y-118599501D01*
X143939865Y-118605908D01*
X143805020Y-118656202D01*
X143805013Y-118656206D01*
X143689804Y-118742452D01*
X143689801Y-118742455D01*
X143603555Y-118857664D01*
X143603551Y-118857671D01*
X143553257Y-118992517D01*
X143546850Y-119052116D01*
X143546850Y-119052123D01*
X143546849Y-119052135D01*
X82500500Y-119052135D01*
X82500500Y-114099995D01*
X93494732Y-114099995D01*
X93494732Y-114100004D01*
X93513777Y-114354154D01*
X93569889Y-114599998D01*
X93570492Y-114602637D01*
X93663607Y-114839888D01*
X93791041Y-115060612D01*
X93949950Y-115259877D01*
X94136783Y-115433232D01*
X94347366Y-115576805D01*
X94347371Y-115576807D01*
X94347372Y-115576808D01*
X94347373Y-115576809D01*
X94469328Y-115635538D01*
X94576992Y-115687387D01*
X94576993Y-115687387D01*
X94576996Y-115687389D01*
X94820542Y-115762513D01*
X95072565Y-115800500D01*
X95327435Y-115800500D01*
X95579458Y-115762513D01*
X95823004Y-115687389D01*
X96052634Y-115576805D01*
X96263217Y-115433232D01*
X96450050Y-115259877D01*
X96608959Y-115060612D01*
X96736393Y-114839888D01*
X96829508Y-114602637D01*
X96886222Y-114354157D01*
X96900418Y-114164721D01*
X96905268Y-114100004D01*
X96905268Y-114099995D01*
X108494732Y-114099995D01*
X108494732Y-114100004D01*
X108513777Y-114354154D01*
X108569889Y-114599998D01*
X108570492Y-114602637D01*
X108663607Y-114839888D01*
X108791041Y-115060612D01*
X108949950Y-115259877D01*
X109136783Y-115433232D01*
X109347366Y-115576805D01*
X109347371Y-115576807D01*
X109347372Y-115576808D01*
X109347373Y-115576809D01*
X109469328Y-115635538D01*
X109576992Y-115687387D01*
X109576993Y-115687387D01*
X109576996Y-115687389D01*
X109820542Y-115762513D01*
X110072565Y-115800500D01*
X110327435Y-115800500D01*
X110579458Y-115762513D01*
X110823004Y-115687389D01*
X111052634Y-115576805D01*
X111263217Y-115433232D01*
X111450050Y-115259877D01*
X111608959Y-115060612D01*
X111736393Y-114839888D01*
X111829508Y-114602637D01*
X111830110Y-114599998D01*
X128894532Y-114599998D01*
X128894532Y-114600001D01*
X128914364Y-114826686D01*
X128914366Y-114826697D01*
X128973258Y-115046488D01*
X128973261Y-115046497D01*
X129069431Y-115252732D01*
X129069432Y-115252734D01*
X129199954Y-115439141D01*
X129360858Y-115600045D01*
X129360861Y-115600047D01*
X129547266Y-115730568D01*
X129753504Y-115826739D01*
X129973308Y-115885635D01*
X130135230Y-115899801D01*
X130199998Y-115905468D01*
X130200000Y-115905468D01*
X130200002Y-115905468D01*
X130256673Y-115900509D01*
X130426692Y-115885635D01*
X130646496Y-115826739D01*
X130852734Y-115730568D01*
X131039139Y-115600047D01*
X131200047Y-115439139D01*
X131330568Y-115252734D01*
X131426739Y-115046496D01*
X131485635Y-114826692D01*
X131505468Y-114600000D01*
X131505468Y-114599998D01*
X139054532Y-114599998D01*
X139054532Y-114600001D01*
X139074364Y-114826686D01*
X139074366Y-114826697D01*
X139133258Y-115046488D01*
X139133261Y-115046497D01*
X139229431Y-115252732D01*
X139229432Y-115252734D01*
X139359954Y-115439141D01*
X139520858Y-115600045D01*
X139520861Y-115600047D01*
X139707266Y-115730568D01*
X139913504Y-115826739D01*
X140133308Y-115885635D01*
X140295230Y-115899801D01*
X140359998Y-115905468D01*
X140360000Y-115905468D01*
X140360002Y-115905468D01*
X140416673Y-115900509D01*
X140586692Y-115885635D01*
X140806496Y-115826739D01*
X141012734Y-115730568D01*
X141199139Y-115600047D01*
X141360047Y-115439139D01*
X141490568Y-115252734D01*
X141586739Y-115046496D01*
X141645635Y-114826692D01*
X141665468Y-114600000D01*
X141645635Y-114373308D01*
X141586739Y-114153504D01*
X141490568Y-113947266D01*
X141360047Y-113760861D01*
X141360045Y-113760858D01*
X141199141Y-113599954D01*
X141012734Y-113469432D01*
X141012732Y-113469431D01*
X140806497Y-113373261D01*
X140806488Y-113373258D01*
X140586697Y-113314366D01*
X140586693Y-113314365D01*
X140586692Y-113314365D01*
X140586691Y-113314364D01*
X140586686Y-113314364D01*
X140360002Y-113294532D01*
X140359998Y-113294532D01*
X140133313Y-113314364D01*
X140133302Y-113314366D01*
X139913511Y-113373258D01*
X139913502Y-113373261D01*
X139707267Y-113469431D01*
X139707265Y-113469432D01*
X139520858Y-113599954D01*
X139359954Y-113760858D01*
X139229432Y-113947265D01*
X139229431Y-113947267D01*
X139133261Y-114153502D01*
X139133258Y-114153511D01*
X139074366Y-114373302D01*
X139074364Y-114373313D01*
X139054532Y-114599998D01*
X131505468Y-114599998D01*
X131485635Y-114373308D01*
X131426739Y-114153504D01*
X131330568Y-113947266D01*
X131200047Y-113760861D01*
X131200045Y-113760858D01*
X131039141Y-113599954D01*
X130852734Y-113469432D01*
X130852732Y-113469431D01*
X130646497Y-113373261D01*
X130646488Y-113373258D01*
X130426697Y-113314366D01*
X130426693Y-113314365D01*
X130426692Y-113314365D01*
X130426691Y-113314364D01*
X130426686Y-113314364D01*
X130200002Y-113294532D01*
X130199998Y-113294532D01*
X129973313Y-113314364D01*
X129973302Y-113314366D01*
X129753511Y-113373258D01*
X129753502Y-113373261D01*
X129547267Y-113469431D01*
X129547265Y-113469432D01*
X129360858Y-113599954D01*
X129199954Y-113760858D01*
X129069432Y-113947265D01*
X129069431Y-113947267D01*
X128973261Y-114153502D01*
X128973258Y-114153511D01*
X128914366Y-114373302D01*
X128914364Y-114373313D01*
X128894532Y-114599998D01*
X111830110Y-114599998D01*
X111886222Y-114354157D01*
X111900418Y-114164721D01*
X111905268Y-114100004D01*
X111905268Y-114099995D01*
X111886938Y-113855402D01*
X111886222Y-113845843D01*
X111829508Y-113597363D01*
X111736393Y-113360112D01*
X111608959Y-113139388D01*
X111450050Y-112940123D01*
X111263217Y-112766768D01*
X111052634Y-112623195D01*
X111052630Y-112623193D01*
X111052627Y-112623191D01*
X111052626Y-112623190D01*
X110876028Y-112538146D01*
X118147000Y-112538146D01*
X118147000Y-112861853D01*
X118182778Y-113087746D01*
X118182778Y-113087749D01*
X118253450Y-113305255D01*
X118288101Y-113373261D01*
X118357283Y-113509038D01*
X118491714Y-113694066D01*
X118653434Y-113855786D01*
X118838462Y-113990217D01*
X118970599Y-114057544D01*
X119042244Y-114094049D01*
X119259751Y-114164721D01*
X119259752Y-114164721D01*
X119259755Y-114164722D01*
X119485646Y-114200500D01*
X119485647Y-114200500D01*
X119714353Y-114200500D01*
X119714354Y-114200500D01*
X119940245Y-114164722D01*
X119940248Y-114164721D01*
X119940249Y-114164721D01*
X120157755Y-114094049D01*
X120157755Y-114094048D01*
X120157758Y-114094048D01*
X120361538Y-113990217D01*
X120546566Y-113855786D01*
X120708286Y-113694066D01*
X120769992Y-113609134D01*
X120825319Y-113566470D01*
X120894932Y-113560491D01*
X120956727Y-113593096D01*
X120970626Y-113609135D01*
X121032097Y-113693741D01*
X121032097Y-113693742D01*
X121193757Y-113855402D01*
X121378723Y-113989788D01*
X121582429Y-114093582D01*
X121799871Y-114164234D01*
X121890000Y-114178509D01*
X121890000Y-113190747D01*
X121927708Y-113212518D01*
X122067591Y-113250000D01*
X122212409Y-113250000D01*
X122352292Y-113212518D01*
X122390000Y-113190747D01*
X122390000Y-114178508D01*
X122480128Y-114164234D01*
X122697570Y-114093582D01*
X122901276Y-113989788D01*
X123084059Y-113856988D01*
X123149865Y-113833508D01*
X123217919Y-113849333D01*
X123266614Y-113899439D01*
X123273127Y-113913974D01*
X123283701Y-113942326D01*
X123283706Y-113942335D01*
X123369952Y-114057544D01*
X123369955Y-114057547D01*
X123485164Y-114143793D01*
X123485171Y-114143797D01*
X123620017Y-114194091D01*
X123620016Y-114194091D01*
X123626944Y-114194835D01*
X123679627Y-114200500D01*
X125680372Y-114200499D01*
X125739983Y-114194091D01*
X125874831Y-114143796D01*
X125990046Y-114057546D01*
X126076296Y-113942331D01*
X126126591Y-113807483D01*
X126133000Y-113747873D01*
X126132999Y-111652128D01*
X126126591Y-111592517D01*
X126116841Y-111566377D01*
X126076297Y-111457671D01*
X126076293Y-111457664D01*
X125990047Y-111342455D01*
X125990044Y-111342452D01*
X125874835Y-111256206D01*
X125874828Y-111256202D01*
X125739982Y-111205908D01*
X125739983Y-111205908D01*
X125680383Y-111199501D01*
X125680381Y-111199500D01*
X125680373Y-111199500D01*
X125680364Y-111199500D01*
X123679629Y-111199500D01*
X123679623Y-111199501D01*
X123620016Y-111205908D01*
X123485171Y-111256202D01*
X123485164Y-111256206D01*
X123369955Y-111342452D01*
X123369952Y-111342455D01*
X123283706Y-111457664D01*
X123283702Y-111457671D01*
X123273127Y-111486026D01*
X123231256Y-111541960D01*
X123165791Y-111566377D01*
X123097518Y-111551525D01*
X123084060Y-111543011D01*
X122901279Y-111410213D01*
X122697568Y-111306417D01*
X122480124Y-111235765D01*
X122390000Y-111221490D01*
X122390000Y-112209252D01*
X122352292Y-112187482D01*
X122212409Y-112150000D01*
X122067591Y-112150000D01*
X121927708Y-112187482D01*
X121890000Y-112209252D01*
X121890000Y-111221490D01*
X121889999Y-111221490D01*
X121799875Y-111235765D01*
X121582431Y-111306417D01*
X121378723Y-111410211D01*
X121193757Y-111544597D01*
X121032097Y-111706257D01*
X120970627Y-111790864D01*
X120915297Y-111833529D01*
X120845684Y-111839508D01*
X120783889Y-111806902D01*
X120769991Y-111790864D01*
X120708286Y-111705934D01*
X120546566Y-111544214D01*
X120361538Y-111409783D01*
X120157755Y-111305950D01*
X119940248Y-111235278D01*
X119754812Y-111205908D01*
X119714354Y-111199500D01*
X119485646Y-111199500D01*
X119445188Y-111205908D01*
X119259753Y-111235278D01*
X119259750Y-111235278D01*
X119042244Y-111305950D01*
X118838461Y-111409783D01*
X118772550Y-111457671D01*
X118653434Y-111544214D01*
X118653432Y-111544216D01*
X118653431Y-111544216D01*
X118491716Y-111705931D01*
X118491716Y-111705932D01*
X118491714Y-111705934D01*
X118433980Y-111785396D01*
X118357283Y-111890961D01*
X118253450Y-112094744D01*
X118182778Y-112312250D01*
X118182778Y-112312253D01*
X118147000Y-112538146D01*
X110876028Y-112538146D01*
X110823006Y-112512612D01*
X110823008Y-112512612D01*
X110579466Y-112437489D01*
X110579462Y-112437488D01*
X110579458Y-112437487D01*
X110458231Y-112419214D01*
X110327440Y-112399500D01*
X110327435Y-112399500D01*
X110072565Y-112399500D01*
X110072559Y-112399500D01*
X109915609Y-112423157D01*
X109820542Y-112437487D01*
X109820539Y-112437488D01*
X109820533Y-112437489D01*
X109576992Y-112512612D01*
X109347373Y-112623190D01*
X109347372Y-112623191D01*
X109136782Y-112766768D01*
X108949952Y-112940121D01*
X108949950Y-112940123D01*
X108791041Y-113139388D01*
X108663608Y-113360109D01*
X108570492Y-113597362D01*
X108570490Y-113597369D01*
X108513777Y-113845845D01*
X108494732Y-114099995D01*
X96905268Y-114099995D01*
X96886938Y-113855402D01*
X96886222Y-113845843D01*
X96829508Y-113597363D01*
X96736393Y-113360112D01*
X96608959Y-113139388D01*
X96450050Y-112940123D01*
X96263217Y-112766768D01*
X96052634Y-112623195D01*
X96052630Y-112623193D01*
X96052627Y-112623191D01*
X96052626Y-112623190D01*
X95823006Y-112512612D01*
X95823008Y-112512612D01*
X95579466Y-112437489D01*
X95579462Y-112437488D01*
X95579458Y-112437487D01*
X95458231Y-112419214D01*
X95327440Y-112399500D01*
X95327435Y-112399500D01*
X95072565Y-112399500D01*
X95072559Y-112399500D01*
X94915609Y-112423157D01*
X94820542Y-112437487D01*
X94820539Y-112437488D01*
X94820533Y-112437489D01*
X94576992Y-112512612D01*
X94347373Y-112623190D01*
X94347372Y-112623191D01*
X94136782Y-112766768D01*
X93949952Y-112940121D01*
X93949950Y-112940123D01*
X93791041Y-113139388D01*
X93663608Y-113360109D01*
X93570492Y-113597362D01*
X93570490Y-113597369D01*
X93513777Y-113845845D01*
X93494732Y-114099995D01*
X82500500Y-114099995D01*
X82500500Y-111019998D01*
X86894532Y-111019998D01*
X86894532Y-111020001D01*
X86914364Y-111246686D01*
X86914366Y-111246697D01*
X86973258Y-111466488D01*
X86973261Y-111466497D01*
X87069431Y-111672732D01*
X87069432Y-111672734D01*
X87199954Y-111859141D01*
X87360858Y-112020045D01*
X87360861Y-112020047D01*
X87547266Y-112150568D01*
X87753504Y-112246739D01*
X87973308Y-112305635D01*
X88135230Y-112319801D01*
X88199998Y-112325468D01*
X88200000Y-112325468D01*
X88200002Y-112325468D01*
X88256673Y-112320509D01*
X88426692Y-112305635D01*
X88646496Y-112246739D01*
X88852734Y-112150568D01*
X89039139Y-112020047D01*
X89200047Y-111859139D01*
X89330568Y-111672734D01*
X89426739Y-111466496D01*
X89485635Y-111246692D01*
X89505468Y-111020000D01*
X89485635Y-110793308D01*
X89429923Y-110585387D01*
X89426741Y-110573511D01*
X89426738Y-110573502D01*
X89395048Y-110505543D01*
X89330568Y-110367266D01*
X89200047Y-110180861D01*
X89200045Y-110180858D01*
X89039141Y-110019954D01*
X88852734Y-109889432D01*
X88852732Y-109889431D01*
X88646497Y-109793261D01*
X88646488Y-109793258D01*
X88426697Y-109734366D01*
X88426693Y-109734365D01*
X88426692Y-109734365D01*
X88426691Y-109734364D01*
X88426686Y-109734364D01*
X88200002Y-109714532D01*
X88199998Y-109714532D01*
X87973313Y-109734364D01*
X87973302Y-109734366D01*
X87753511Y-109793258D01*
X87753502Y-109793261D01*
X87547267Y-109889431D01*
X87547265Y-109889432D01*
X87360858Y-110019954D01*
X87199954Y-110180858D01*
X87069432Y-110367265D01*
X87069431Y-110367267D01*
X86973261Y-110573502D01*
X86973258Y-110573511D01*
X86914366Y-110793302D01*
X86914364Y-110793313D01*
X86894532Y-111019998D01*
X82500500Y-111019998D01*
X82500500Y-109630958D01*
X82520185Y-109563919D01*
X82572989Y-109518164D01*
X82642147Y-109508220D01*
X82705703Y-109537245D01*
X82716954Y-109548326D01*
X82733339Y-109566661D01*
X83001377Y-109806194D01*
X83294548Y-110014211D01*
X83609167Y-110188094D01*
X83941276Y-110325659D01*
X84286700Y-110425173D01*
X84641093Y-110485387D01*
X85000000Y-110505543D01*
X85358907Y-110485387D01*
X85713300Y-110425173D01*
X86058724Y-110325659D01*
X86390833Y-110188094D01*
X86705452Y-110014211D01*
X86998623Y-109806194D01*
X87266661Y-109566661D01*
X87506194Y-109298623D01*
X87714211Y-109005452D01*
X87888094Y-108690833D01*
X88025659Y-108358724D01*
X88125173Y-108013300D01*
X88185387Y-107658907D01*
X88205543Y-107300000D01*
X88185387Y-106941093D01*
X88125173Y-106586700D01*
X88025659Y-106241276D01*
X87888094Y-105909167D01*
X87714211Y-105594548D01*
X87506194Y-105301377D01*
X87332600Y-105107124D01*
X87302608Y-105044023D01*
X87311492Y-104974720D01*
X87356433Y-104921223D01*
X87423164Y-104900515D01*
X87425061Y-104900500D01*
X154669041Y-104900500D01*
X154736080Y-104920185D01*
G37*
%TD.AperFunction*%
%TD*%
M02*
